<svg xmlns="http://www.w3.org/2000/svg" xmlns:xlink="http://www.w3.org/1999/xlink" viewBox="0 0 853.45 721.32"><defs><style>.cls-1{fill:none;}.cls-2{fill:#d1ecf8;}.cls-3{clip-path:url(#clip-path);}.cls-4{fill:#dc6820;}.cls-5{fill:#d8d61e;}.cls-6{fill:url(#radial-gradient);}.cls-7{fill:url(#radial-gradient-2);}.cls-8{fill:url(#radial-gradient-3);}.cls-9{fill:url(#radial-gradient-4);}.cls-10{fill:url(#radial-gradient-5);}.cls-11{fill:url(#radial-gradient-6);}.cls-12{fill:url(#radial-gradient-7);}.cls-13{fill:url(#radial-gradient-8);}.cls-14{fill:url(#radial-gradient-9);}.cls-15{fill:url(#radial-gradient-10);}.cls-16{fill:url(#radial-gradient-11);}.cls-17{fill:url(#radial-gradient-12);}.cls-18{fill:url(#radial-gradient-13);}.cls-19{fill:url(#radial-gradient-19);}.cls-20{fill:#7eb63d;}.cls-21{fill:url(#radial-gradient-20);}</style><clipPath id="clip-path" transform="translate(317.18 110.38)"><path class="cls-1" d="M412.94,1.14c-5.43-2.79-9.25.23-13.11,1.74-14.62,5.74-29,12.82-40.54,24.27-16,15.85-32,17.09-51.71,9-30.47-12.55-61.95-22-92.78-33.48C205-1,200.17.36,197.12,12.44c-6.57,25.91-17.2,49.67-29.93,72.79-17.68,32.12-37,63.9-45,101.37-8.7,40.9-27.58,72.74-60.39,93.74-3.35,2.15-7,4.76-6.64,9.77,2,26.78-11.17,47.49-21.46,69.5C20.82,387.17,6.68,414.28,3.06,446-2.74,496.8.64,547.42,5.44,598c1.48,15.64,1.66,16,12.9,6.87C59.58,571.46,100,536.77,137.88,498.63c31.43-31.62,57.7-67.19,63.46-116.46,2-17.09,3.33-34.3,4.35-51.51.73-12.37,4.91-19.34,16.9-20a526.67,526.67,0,0,0,71.24-9.55c15.58-3.09,31.27-5.67,46-12.71,18.7-8.95,24.63-19.55,24.47-42.2-.11-15-3.65-29.4-6.52-43.89-5.41-27.32-10.14-54.5-.55-82.08,8.25-23.71,16.6-47.25,28.86-68.87C395.35,34.93,403.93,18,412.94,1.14Z"/></clipPath><radialGradient id="radial-gradient" cx="-248.18" cy="12.57" r="4.03" gradientUnits="userSpaceOnUse"><stop offset="0" stop-color="#2383c5" stop-opacity="0"/><stop offset="1" stop-color="#d45127"/></radialGradient><radialGradient id="radial-gradient-2" cx="-247.26" cy="56.79" r="4.49" xlink:href="#radial-gradient"/><radialGradient id="radial-gradient-3" cx="-205.52" cy="119.91" r="2.84" xlink:href="#radial-gradient"/><radialGradient id="radial-gradient-4" cx="-203.08" cy="140.54" r="6.76" xlink:href="#radial-gradient"/><radialGradient id="radial-gradient-5" cx="-189.68" cy="192.67" r="20.8" xlink:href="#radial-gradient"/><radialGradient id="radial-gradient-6" cx="170.97" cy="158.46" r="2.7" xlink:href="#radial-gradient"/><radialGradient id="radial-gradient-7" cx="195.09" cy="172.86" r="3.34" xlink:href="#radial-gradient"/><radialGradient id="radial-gradient-8" cx="351.19" cy="214.78" r="0.7" xlink:href="#radial-gradient"/><radialGradient id="radial-gradient-9" cx="363.58" cy="81.45" r="6.54" xlink:href="#radial-gradient"/><radialGradient id="radial-gradient-10" cx="350.72" cy="92.51" r="1.21" xlink:href="#radial-gradient"/><radialGradient id="radial-gradient-11" cx="273.84" cy="110.81" r="1.04" xlink:href="#radial-gradient"/><radialGradient id="radial-gradient-12" cx="241.39" cy="146.13" r="14.25" xlink:href="#radial-gradient"/><radialGradient id="radial-gradient-13" cx="-110.13" cy="342.59" r="1227.42" xlink:href="#radial-gradient"/><radialGradient id="radial-gradient-19" cx="530.87" cy="-56.22" r="0.08" xlink:href="#radial-gradient"/><radialGradient id="radial-gradient-20" cx="652.92" cy="296.24" r="358.03" gradientUnits="userSpaceOnUse"><stop offset="0" stop-color="#d45127"/><stop offset="1" stop-color="#2383c5" stop-opacity="0"/></radialGradient></defs><g id="Layer_2" data-name="Layer 2"><g id="Layer_1-2" data-name="Layer 1"><path class="cls-2" d="M412.94,1.14c-5.43-2.79-9.25.23-13.11,1.74-14.62,5.74-29,12.82-40.54,24.27-16,15.85-32,17.09-51.71,9-30.47-12.55-61.95-22-92.78-33.48C205-1,200.17.36,197.12,12.44c-6.57,25.91-17.2,49.67-29.93,72.79-17.68,32.12-37,63.9-45,101.37-8.7,40.9-27.58,72.74-60.39,93.74-3.35,2.15-7,4.76-6.64,9.77,2,26.78-11.17,47.49-21.46,69.5C20.82,387.17,6.68,414.28,3.06,446-2.74,496.8.64,547.42,5.44,598c1.48,15.64,1.66,16,12.9,6.87C59.58,571.46,100,536.77,137.88,498.63c31.43-31.62,57.7-67.19,63.46-116.46,2-17.09,3.33-34.3,4.35-51.51.73-12.37,4.91-19.34,16.9-20a526.67,526.67,0,0,0,71.24-9.55c15.58-3.09,31.27-5.67,46-12.71,18.7-8.95,24.63-19.55,24.47-42.2-.11-15-3.65-29.4-6.52-43.89-5.41-27.32-10.14-54.5-.55-82.08,8.25-23.71,16.6-47.25,28.86-68.87C395.35,34.93,403.93,18,412.94,1.14Z" transform="translate(317.18 110.38)"/><g class="cls-3"><path class="cls-4" d="M199.4,49.92l5.93,5.4c-16.51,31.75-20.28,68-35.16,100.29h0c-14.21,9.31-10.62,23.38-9.84,36.7,22.44-10,30.17.51,30.25,21.68,6.59,13.24,4.16,25.51-4,37.15l-6.78,20.8c.46,2.05.93,4.08,1.39,6.12l5.24,4.72.16.11c2,1.56,4.09,3.11,6.15,4.65l-.22-.32c17.58-10.27,40.25,7.84,56.45-10.1.21-3,.43-5.95.63-8.93a30.48,30.48,0,0,1-4.29-1.24c-1.09-8.26-8-16.41-8-24.69,0-4.27,1.85-8.59,7.3-13,.21-3.35.43-6.69.64-10q.18-13.23.38-26.48-.74-10.78-1.47-21.6c-1.14,0-2.28,0-3.41.07,1.13,0,2.27-.06,3.41-.08q-2.33-7.51-4.69-15h0c30.28-.56,30.28-.56,15.19,36.49q5.79,10.56,11.57,21.12c1.72.4,3.43.85,5.12,1.37,22.52,5.06,8.76,18.63,6.91,29.42l9,11.8c3.21.25,6.43.5,9.64.73l11-.58c1.21,6.46,4.24,9.84,9.23,9.84a16.83,16.83,0,0,0,5.62-1.12c14-5.06,10.72,5.81,11.76,12.7-.84,13.73,6.92,12.62,16,9.26q2.76-2.19,5.54-4.36l5.58-4.93.2-.21,4.83-5.7-.13.1c3.26-9-5.45-22.65,10.15-26.91q-3-10.59-6.05-21.2c1.53-1.59,3.07-3.19,4.62-4.78-1.06-3.53-2.1-7.07-3.15-10.59l-21,2.9-12.24-17.16-.18.26c-12.58-.42-16.27-6.73-12.05-18.25,6-3.36,10.25-7.66,8.3-15.33-5.36-1.75-8.57-5.66-10.72-10.63q-4.42-5-8.85-9.94a69.47,69.47,0,0,1-6,4.56c2.07-1.49,4.14-3,6-4.57-16.95-23.43-13.74-28.85,20.19-34.21q-.08,6.06-.13,12.11c1.68.64,3.35,1.26,5,1.89a3.79,3.79,0,0,1,4.53,1.53l6.23-1.34,4.56-2.65a2.25,2.25,0,0,0-.12.21c6.56-5.07,14-4.57,21.61-3.57l5.39-1.24q5-5.43,10.11-10.86c.18-3.42.37-6.84.55-10.26l-2.6-.22-2.51.65h0l-4.72-2.51c-6.75.77-6.12-4.19-6.51-8.37,1.68-.52,3.38-1,5.08-1.34,1.09-3.21,2.16-6.42,3.24-9.64l-7.78-10.52L361.61,59c-16.53,7.28-33.5,13.8-51.8,12.74-17-1-25.33,13.13-38.11,19.36-3.63-7.13-3.72-18.49-16.93-14.15-4.79-11.73-21.69-15-21.09-30.69.38-9.58-.55-19.42,11.4-23.16h0L388.35,37.61c10.3-.13,21.19,3.78,30.29-4.48a14.9,14.9,0,0,1,1.4-4.62c1.58-.29,3.15-.64,4.69-1.07L450.14,1.22c.36-11.45,8.78-16,17.29-20.46-.09-3.31-.2-6.63-.31-9.94-9-1.31-17.51-.86-24.7,5.6L409-3.52c-6.95,5-14,7.08-21.34.77-7.08-.26-14.14-.5-21.21-.77-1.62,3.16-3.37,3.18-5.22.21-1.74-.48-3.49-.94-5.24-1.4l-6.52-3.54a3.48,3.48,0,0,1-3.82-1.44l-6.49-3.26-30.36-2.28c-16-9-32-20.09-48.25-.35L255-14.2c-1.5,4.49-3.15,3.77-4.86.12a44.13,44.13,0,0,1-5.27.05c-1.86,1.5-3.71,3-5.57,4.53l-.46.44q-8.06,10.34-16.09,20.69a38,38,0,0,1-4.39.62q-5,5.61-9.92,11.21c2.19,10.56-6.77,17.29-9.07,26.32Z" transform="translate(317.18 110.38)"/><path class="cls-5" d="M199.37,49.78C196.5,33,176.57,31.7,170.37,18c-26.06-6.29-16.17-26.21-16.07-42.4l.1.08C140-38.53,130.26-53.44,147-72.43q-.66-6.41-1.33-12.82l-2-9.49c-2.84-.67-3.78-2.41-2.89-5.17a9,9,0,0,1-2-4.14l-10.55-1.32c-16.7,20.53-30.55.31-45.57-3.19l-15.31,0,0,1.41-.62-1.26a3,3,0,0,1-1.88-1.92L53.81-104c-.06,12.28.62,24.62-.45,36.82-.81,9.42-2.2,19.91-15.64,20.31l-10.4.18L22.39-40.1c-2.33,12.26,13.66,29.51-9.8,36C9.07,4.32,2,9.16-5.34,13.74-35.6,39.55-38.08,39.67-56.27,16-76.78,3.2-96.06-.12-114,21.1a16.54,16.54,0,0,1-19.25,4.17c-5.05,1.07-11.71.45-14.88,3.47-14.59,14-27.13,8.33-39.78-2.35-17.92-11.48-24.48-31.69-36.62-47.6l-1.1-1.05L-237-24c-.08,1.3-.15,2.61-.2,3.91l-5.82.22-4.93,2s-1.55,1.07-1.55,1.1a9.31,9.31,0,0,1,.2,1c-3.95,9.55-7.64,19.21-11.89,28.63-9.25,20.49-30.94,41.21,2,60.42,1.74,1,3.19,5,2.64,7.06-6.75,24.64,10.28,34.25,27.13,44.55,9.84,6,16.8,11.49,11.74,27.21-11.55,35.85,9.56,59.62,46.18,56.44,8-.7,20.19-7,23.65,3.84,9.58,30,29.73,16.56,46.86,12.6,8.34-1.92,18.24-10.17,24.36-3.28C-66,233.59-53.13,232.25-40.48,233c14.54.87,24.31,5.42,22.22,21.93-1.95,15.4,5.34,16.49,17,12,8.15-3.17,16.81-5.41,22.9-12.41,8.07,1.38,14.19-3.95,22.85-7.4,0,5.45,0,9.65,0,13.85,0,7-.56,15.71,6.7,18.53,8.86,3.43,14.49-5.24,19.09-10.77,15.41-18.51,9.22-36.32-3.84-53.23-.42,1-.87,2-1.36,2.91a37.71,37.71,0,0,1-2.35,4,41,41,0,0,1-2.7,3.52,43.08,43.08,0,0,0,2.7-3.52,41.5,41.5,0,0,0,2.35-4q.72-1.4,1.35-2.91c13.78-14.13,28.32-28,13.43-49.91-4.68-6.89-.83-13.07,5-15.11,40.39-14,52.9-44.21,50.22-83.68l-.42.49.4-.82c0,.12,0,.22,0,.33l3.84-4.43c11.83-28.31,35-10.3,53.08-13l7.41.64a.6.6,0,0,1,0-.12Z" transform="translate(317.18 110.38)"/><path class="cls-6" d="M-247.2,9.33l.84-1.44-.83,1.44L-248.71,12Z" transform="translate(317.18 110.38)"/><path class="cls-7" d="M-247.87,54.4c.84.71,1.74,1.4,2.71,2.11C-246.13,55.81-247,55.11-247.87,54.4Z" transform="translate(317.18 110.38)"/><path class="cls-8" d="M-205.9,117.37a19.05,19.05,0,0,1,1.69,2.24A21.2,21.2,0,0,0-205.9,117.37Z" transform="translate(317.18 110.38)"/><path class="cls-9" d="M-201.17,135.27c-.11.93-.26,1.89-.44,2.9.18-1,.32-2,.44-2.9.73-6.4-.29-11.06-2.53-14.85C-201.46,124.2-200.43,128.86-201.17,135.27Z" transform="translate(317.18 110.38)"/><path class="cls-10" d="M-183.42,191.32a37,37,0,0,1-9.1-3.54,37.76,37.76,0,0,0,9.1,3.54c1.14.29,2.32.55,3.55.78C-181.1,191.87-182.28,191.62-183.42,191.32Z" transform="translate(317.18 110.38)"/><path class="cls-11" d="M170.62,156.06a11.44,11.44,0,0,1,1.6,2.12A12.15,12.15,0,0,0,170.62,156.06Z" transform="translate(317.18 110.38)"/><path class="cls-12" d="M194.64,172.82a4.5,4.5,0,0,1,2-.26A4.83,4.83,0,0,0,194.64,172.82Z" transform="translate(317.18 110.38)"/><path class="cls-13" d="M351.3,214.47a11.77,11.77,0,0,0-.15-2.32A11,11,0,0,1,351.3,214.47Z" transform="translate(317.18 110.38)"/><path class="cls-14" d="M366.67,81.43c-1.35-.11-2.68-.19-4-.18C364,81.24,365.33,81.32,366.67,81.43Z" transform="translate(317.18 110.38)"/><path class="cls-15" d="M351.19,89.79c-.22.74-.43,1.54-.6,2.4h0A23.3,23.3,0,0,1,351.19,89.79Z" transform="translate(317.18 110.38)"/><path class="cls-16" d="M274.32,110.21a4.76,4.76,0,0,1-.62.53C273.92,110.56,274.14,110.39,274.32,110.21Z" transform="translate(317.18 110.38)"/><path class="cls-17" d="M239.45,145.83c2.9-.69,5.78-1.42,8.67-2.14-2.89.72-5.77,1.46-8.67,2.15Z" transform="translate(317.18 110.38)"/><path class="cls-18" d="M400.77,431.47c-13.42,12.62-21.58,34.4-46.86,26.45-2.93-.92-7.43-.08-10,1.68-31.79,21.33-65.31,13.62-98.85,6.46-6.88,12.82-13.27,26.14-30.24,28.1q-3.64-2.71-7.25-5.45c-.82,1.86-1.64,3.72-2.44,5.57l-1,.51c-5.38,3-10.76,5.13-16-.3-.55-3.38-1.08-6.75-1.61-10.12.29-4-1.83-6.25-5.46-7.38-1.37-1-2.75-2.06-4.13-3.09q-3.23-2.49-6.47-5l-10-6.9c-4.09-6.34-10.37-1.88-15.49-3.13-.08,3.19-.18,6.38-.26,9.57-10,16-19.58,2.91-28.43-1.12C82.63,452,47.92,462,14.1,464c-36.85,2.2-69.38-9.86-102.85-20.64-12.26-3.95-23.7-1.06-35.49,3.11-21.08,7.46-81.44-6.42-93.08-20.53,2.79-3.34,6.38-8-.14-9.66-13.64-3.52-27.68-6.37-41.52-.1L-272,409q-2-7-3.95-14.06l6.07-6.29,5.75-4.11c14.32,5.2,12.62-12.58,21.6-15h0c-1.71-28.44,14.56-22.55,31-16.28,7-.61,13.91-1.22,20.88-1.85,23.81-.88,48.37,1.4,66.56,16.45,23.35,19.3,66.94,19.79,86.72-3.13,7-8.1,11.66-12.39,25.48-4.21,15.84,9.39,36,18,56.94,12.11q2.88.45,5.77.87a4.08,4.08,0,0,1,2.67,2.72,21.32,21.32,0,0,0,2.23,4.64c-5.22,13.88,4.82,18.87,14.12,24.31,12.32,9,26.07,5.25,39,3.26,15.57-2.37,25.42,2.47,30,17.62l10.32-4.74c25.57.64,50.82-21.76,77.11,1,10.39,9,17.56,15.27,6,26.94-5,5-12.7,8.9-6.58,16.81,5.86,7.55,12.81-1.15,19.39-.81,8.12-11.19,1.05-30.89,20.12-36a3.26,3.26,0,0,1,1.85-3.52l13.71,1.42h0c6,1.76,12.1,3.63,17.4-1.79,10.21-3.85,21.68-4.81,28.49-15.7,4.05-6.46,14.18-9.88,18.63-5.69,16.83,15.87,26.15,3.29,36.64-8.44,9,7.8-3.62,31,20,27.18C403.62,422.47,403.67,428.75,400.77,431.47Z" transform="translate(317.18 110.38)"/><path class="cls-18" d="M376.88,245.07l-.26.08.05.17Z" transform="translate(317.18 110.38)"/><path class="cls-18" d="M536.05,50l0-.1c-11.68-16-10-32.43-2.41-49.66,2.33-5.27-1.69-9.84-7.72-11.3C521.13-5.14,514.55-.58,508-5.46c-7.22-5.39-1.61-14.77-3-22.24h0a36.5,36.5,0,0,0,20.68-7.66l.05,0c1.66-2.15,3.3-4.29,5-6.43.45-3.14.91-6.29,1.36-9.43a9.21,9.21,0,0,1-1.24-4.89l-10.37-2.18A5.81,5.81,0,0,1,516-56.21l-5.9,5.31-5.21,5.1-.93,5.38h0l-2.37,0L499.26-41c-8.94,6.13-18.76,11.46-21.15,23.49-3.46,1.46-6.74,1.74-9.63-.6,3.18,7.82-.83,14-5.49,20C456.66,29,471.87,51.61,478.42,76c-.32,3.39-.65,6.76-1,10.14-9.88,3-18.47,7.62-13.51,20,4.67,11.68,12.77,18.41,26.3,12.35-1.57,10-8.35,16.71-15,23.56-3.52,3.63-8.09,7.29-5.49,13.3s8.25,5,13.37,5.53c25.43,2.52,32.72-8.56,24.21-37l.31-.16c-.09-.21-.2-.39-.29-.58,7.28-4.79,15.4-8.82,16.65-18.92-5.82-15.13-21.77-25.87-19.41-44.58,10.89.35,24.73,19.25,31.68-5A3.59,3.59,0,0,1,536.05,50Zm-36.37,68.36c-.15.13-.29.24-.43.34l.06-.59c.14,0,.26,0,.4,0Z" transform="translate(317.18 110.38)"/><path class="cls-18" d="M467.87-19.47l-.42.38a9.92,9.92,0,0,0,1,.95C468.29-18.58,468.1-19,467.87-19.47Z" transform="translate(317.18 110.38)"/><path class="cls-18" d="M-263.8,266c.2.56.38,1.15.54,1.74a27.34,27.34,0,0,1,.78,4.8h0c12.45,10.63,22.88,10,30.63-5.53h0c3.69-12.33,9.48-24.72-9.71-30.6-4.88-1.49-9.1-8.22-11.74-13.49-16.81-33.63-23.35-34.51-51-5.92h0l-12.84,8.15q5.73,7.86,11.43,15.73c14.26-9.9,21.45-2.54,26.23,10.66,0,0,0,0,0,0a30.09,30.09,0,0,1,10.7,6.53A20.81,20.81,0,0,1-263.8,266Zm9.25-10.27a12.36,12.36,0,0,0,4.73,5.7,12.44,12.44,0,0,1-4.74-5.7,44.56,44.56,0,0,0-11.82-17.39A44.75,44.75,0,0,1-254.55,255.71Z" transform="translate(317.18 110.38)"/><path class="cls-18" d="M499.71,118.15l0,.22c-.15.13-.29.24-.43.34l.06-.59C499.45,118.12,499.57,118.14,499.71,118.15Z" transform="translate(317.18 110.38)"/><path class="cls-19" d="M530.81-56.32v.17l.13,0Z" transform="translate(317.18 110.38)"/><path class="cls-20" d="M400.77,431.47c-13.42,12.62-21.58,34.4-46.86,26.45-2.93-.92-7.43-.08-10,1.68-31.79,21.33-65.31,13.62-98.85,6.46-6.88,12.82-13.27,26.14-30.24,28.1q-3.64-2.71-7.25-5.45c-.82,1.86-1.64,3.72-2.44,5.57l-1,.51c-5.38,3-10.76,5.13-16-.3-.55-3.38-1.08-6.75-1.61-10.12.29-4-1.83-6.25-5.46-7.38-1.37-1-2.75-2.06-4.13-3.09q-3.23-2.49-6.47-5l-10-6.9c-4.09-6.34-10.37-1.88-15.49-3.13-.08,3.19-.18,6.38-.26,9.57-10,16-19.58,2.91-28.43-1.12C82.63,452,47.92,462,14.1,464c-36.85,2.2-69.38-9.86-102.85-20.64-12.26-3.95-23.7-1.06-35.49,3.11-21.08,7.46-81.44-6.42-93.08-20.53,2.79-3.34,6.38-8-.14-9.66-13.64-3.52-27.68-6.37-41.52-.1L-272,409q-2-7-3.95-14.06l6.07-6.29,5.75-4.11c14.32,5.2,12.62-12.58,21.6-15h0c-1.71-28.44,14.56-22.55,31-16.28,7-.61,13.91-1.22,20.88-1.85,23.81-.88,48.37,1.4,66.56,16.45,23.35,19.3,66.94,19.79,86.72-3.13,7-8.1,11.66-12.39,25.48-4.21,15.84,9.39,36,18,56.94,12.11q2.88.45,5.77.87a4.08,4.08,0,0,1,2.67,2.72,21.32,21.32,0,0,0,2.23,4.64c-5.22,13.88,4.82,18.87,14.12,24.31,12.32,9,26.07,5.25,39,3.26,15.57-2.37,25.42,2.47,30,17.62l10.32-4.74c25.57.64,50.82-21.76,77.11,1,10.39,9,17.56,15.27,6,26.94-5,5-12.7,8.9-6.58,16.81,5.86,7.55,12.81-1.15,19.39-.81,8.12-11.19,1.05-30.89,20.12-36a3.26,3.26,0,0,1,1.85-3.52l13.71,1.42h0c6,1.76,12.1,3.63,17.4-1.79,10.21-3.85,21.68-4.81,28.49-15.7,4.05-6.46,14.18-9.88,18.63-5.69,16.83,15.87,26.15,3.29,36.64-8.44,9,7.8-3.62,31,20,27.18C403.62,422.47,403.67,428.75,400.77,431.47Z" transform="translate(317.18 110.38)"/><path class="cls-21" d="M376.88,245.07l-.26.08.05.17Z" transform="translate(317.18 110.38)"/><path class="cls-21" d="M536.05,50l0-.1c-11.68-16-10-32.43-2.41-49.66,2.33-5.27-1.69-9.84-7.72-11.3C521.13-5.14,514.55-.58,508-5.46c-7.22-5.39-1.61-14.77-3-22.24h0a36.5,36.5,0,0,0,20.68-7.66l.05,0c1.66-2.15,3.3-4.29,5-6.43.45-3.14.91-6.29,1.36-9.43a9.21,9.21,0,0,1-1.24-4.89l-10.37-2.18A5.81,5.81,0,0,1,516-56.21l-5.9,5.31-5.21,5.1-.93,5.38h0l-2.37,0L499.26-41c-8.94,6.13-18.76,11.46-21.15,23.49-3.46,1.46-6.74,1.74-9.63-.6,3.18,7.82-.83,14-5.49,20C456.66,29,471.87,51.61,478.42,76c-.32,3.39-.65,6.76-1,10.14-9.88,3-18.47,7.62-13.51,20,4.67,11.68,12.77,18.41,26.3,12.35-1.57,10-8.35,16.71-15,23.56-3.52,3.63-8.09,7.29-5.49,13.3s8.25,5,13.37,5.53c25.43,2.52,32.72-8.56,24.21-37l.31-.16c-.09-.21-.2-.39-.29-.58,7.28-4.79,15.4-8.82,16.65-18.92-5.82-15.13-21.77-25.87-19.41-44.58,10.89.35,24.73,19.25,31.68-5A3.59,3.59,0,0,1,536.05,50Zm-36.37,68.36c-.15.13-.29.24-.43.34l.06-.59c.14,0,.26,0,.4,0Z" transform="translate(317.18 110.38)"/><path class="cls-21" d="M467.87-19.47l-.42.38a9.92,9.92,0,0,0,1,.95C468.29-18.58,468.1-19,467.87-19.47Z" transform="translate(317.18 110.38)"/><path class="cls-21" d="M-263.8,266c.2.56.38,1.15.54,1.74a27.34,27.34,0,0,1,.78,4.8h0c12.45,10.63,22.88,10,30.63-5.53h0c3.69-12.33,9.48-24.72-9.71-30.6-4.88-1.49-9.1-8.22-11.74-13.49-16.81-33.63-23.35-34.51-51-5.92h0l-12.84,8.15q5.73,7.86,11.43,15.73c14.26-9.9,21.45-2.54,26.23,10.66,0,0,0,0,0,0a30.09,30.09,0,0,1,10.7,6.53A20.81,20.81,0,0,1-263.8,266Zm9.25-10.27a12.36,12.36,0,0,0,4.73,5.7,12.44,12.44,0,0,1-4.74-5.7,44.56,44.56,0,0,0-11.82-17.39A44.75,44.75,0,0,1-254.55,255.71Z" transform="translate(317.18 110.38)"/><path class="cls-21" d="M499.71,118.15l0,.22c-.15.13-.29.24-.43.34l.06-.59C499.45,118.12,499.57,118.14,499.71,118.15Z" transform="translate(317.18 110.38)"/><path class="cls-21" d="M530.81-56.32v.17l.13,0Z" transform="translate(317.18 110.38)"/></g></g></g></svg>