<svg xmlns="http://www.w3.org/2000/svg" xmlns:xlink="http://www.w3.org/1999/xlink" viewBox="0 0 1920 827.91"><defs><style>.cls-1{fill:none;}.cls-2{fill:#d1ecf8;}.cls-3{clip-path:url(#clip-path);}.cls-4{fill:#1097a0;}</style><clipPath id="clip-path" transform="translate(0.14 0)"><path class="cls-1" d="M1.8,0C.73,2,.35,2.33.35,2.7Q.2,241.79,0,480.86c0,12.08,5.25,13.55,13.91,11.83,38.37-7.62,76.9-13.89,115.71-17.82s77.09-2.84,112.07,20.72a79.34,79.34,0,0,0,27.66,11.32c22.95,5,62.8-24.81,67.48-50.64a475.16,475.16,0,0,0,7.71-87.76c-.15-24.35-3.87-47.95-15.47-69.36C317,276.9,298.48,265.88,277,260.2c-30.83-8.18-61.61-16.95-92.78-23C124.64,225.48,86.68,183,56.91,127.75,35.29,87.62,18.9,44.59,1.8,0Z"/></clipPath></defs><g id="Layer_2" data-name="Layer 2"><g id="Layer_1-2" data-name="Layer 1"><path class="cls-2" d="M1.8,0C.73,2,.35,2.33.35,2.7Q.2,241.79,0,480.86c0,12.08,5.25,13.55,13.91,11.83,38.37-7.62,76.9-13.89,115.71-17.82s77.09-2.84,112.07,20.72a79.34,79.34,0,0,0,27.66,11.32c22.95,5,62.8-24.81,67.48-50.64a475.16,475.16,0,0,0,7.71-87.76c-.15-24.35-3.87-47.95-15.47-69.36C317,276.9,298.48,265.88,277,260.2c-30.83-8.18-61.61-16.95-92.78-23C124.64,225.48,86.68,183,56.91,127.75,35.29,87.62,18.9,44.59,1.8,0Z" transform="translate(0.14 0)"/><g class="cls-3"><path class="cls-4" d="M514.5,576.27c-2.3,3.52-7.25,7.88-6.46,10.47,10.29,33.52,0,67.89,4.8,101.53l-5.74,4.11c-2,2.1-4.05,4.2-6.07,6.29-4.92-.34-9.83-.69-14.76-1-1.71-3.92-5-5.42-9-5.74-2.91-3.35-5.81-3.32-8.71,0l-14.17.69c-8.34-2.62-12.61,10.07-21.4,5.65l-.18-.24c-1.61-1.9-3.2-3.8-4.81-5.71-1.64-2.11-3.3-4.22-4.95-6.33l-4.17-4.67C407,668.7,392,661,376.38,654.31l-.17.06c-2.18-1.43-4.38-2.85-6.58-4.27,0,0,0,0,0,0-1.77-1.3-3.55-2.6-5.3-3.9a3.57,3.57,0,0,0-3.62-2.1C341,636,343,608.93,323.06,601c0,.07.15.29.15.3L316.63,597c-1.78-1.29-3.58-2.56-5.36-3.84L294,575.9c-1.17-2.24-2.32-4.47-3.48-6.71a3.29,3.29,0,0,0-1.57-3.85c.44-3.26-1.24-4.84-4.26-5.37l0,0-5.36-4.63a2,2,0,0,0-2.66-1.5c-2.58-1.68-5.16-3.37-7.75-5-.82-6.85,4.06-14.06-1.26-20.63l-3.55-5.6c-.06-.11-.14-.22-.2-.33l0,.06c-2-3.2-4-6.42-6.07-9.63l-.11-.23q-2.21-3.17-4.42-6.31l.29.27c-5.5-11.68-11.33-23.13-21.12-31.94-.88-3.15-2.86-4.74-6.25-4.32l-6.5-5.7c.6-4.22,1.8-8.61-3-11.41,0,0,0-.1,0-.1-4.43-8.71-12.77-9.9-21.16-11l.23.32-6.58-3.38c-16.44-10.24-13-28-16.5-43.2-.65-12.84-5.29-22.25-19.87-23.11-28.3-8.09-39.06-33.62-54.39-54.65-16.71-22.94-45-31.08-64.74-50.85C23.18,256.42,13.49,246,5.64,233.25c-9-14.63-8.35-26,8.35-33.94,5.57-10.33,12.44-13.06,23.58-6.6,23.77,13.81,49.71,17.94,77,21.78,14.21,2,37.51,17.58,36.67,43.07l12,10.17L190,275.35c28.62-13.27,40.24-5.86,40,25.47,11.8,16.12,22,34.29,45.68,35,.81,0,2.14.41,2.37,1,11,27.12,49.69,24.69,58.07,54.74,2.75,9.84,12.78,7.25,19.78,9.94,13.05,5,18.94,23.84,40.59,14.16,8.9-4,15,16.11,7.46,26.71-16,22.6-3.73,30.79,16.17,35.49,27.27,6.43,22.82,36.94,39.73,51q5.73,7.86,11.43,15.73c14.26-9.91,21.45-2.54,26.23,10.66-2.17,2.69-4.36,5.46-6.92,7.34,2.57-1.87,4.75-4.64,6.93-7.32a30,30,0,0,1,10.7,6.53,20.74,20.74,0,0,1,5,7.9c.2.56.38,1.15.54,1.74a28.14,28.14,0,0,1,.78,4.8h0Z" transform="translate(0.14 0)"/><path class="cls-4" d="M1917.2,758c2.9-16,1.36-32-.78-48-.94-17.27,5.41-35.35-5.7-51.52l-.59-1.46c-9.36-12.28-2-21.84,5.1-31.45q-.2-8.25-.4-16.52a19.13,19.13,0,0,1-1.52-3.21c-.09-.33.82-.94,1.27-1.42,1.64-11.44,2.21-22.84-1.65-34-14.64-34.66.17-72.86-13-107.7a1.69,1.69,0,0,0-2.59-.91c-2.39-7.27-7.31-10.44-13.48-10.44a22.12,22.12,0,0,0-4.91.59c-16.74,3.86-31.77-1-46.62-7.61h0c-5.21-8-14.13-7.27-21.89-9.3a22.61,22.61,0,0,0,1.39,2.4,21,21,0,0,1-1.4-2.4l-.62-.6h0c-4.79-12.76-16.11-10.18-26-11.06h0l-8.08-4.91L1744.42,423a2.09,2.09,0,0,0-2.94,1.09,5.79,5.79,0,0,0-.17.63,5.8,5.8,0,0,1,.16-.63c-19.82,5.4-37.28-5.14-55.47-5.75-1.22-11.13,18-14.34,5.83-26.11-12-11.62-24.13-24.81-42.71-17.38-11.21,4.48-19.84,13.23-5,25,6.1,4.81,13.17,9.56,8.67,19.3-11.14,7.37-13.9,13.09.56,21.22,13.13,7.37,25.85,7.88,39.62,5.28,6.14,12.81-8.42,15.67-11.52,24.05,0,0-.19.29-.19.29,2.3,8.38,3.2,16.06-8.7,17.29-.53-1.62-1.1-3.22-1.73-4.8-10.31,4.44-12.27,20.42-26.67,19.23-16.58-8.47-16.62-29.29-29.9-40.27-.63,5.74-3,7.9-8,3.59-13.16-11.36-15.54-26.36-14-42.56,1-10.16,4.86-20.24.57-30.5-1.63-3.87-3.24-7.75-4.87-11.64-11.42-6.66-27.85,5.34-36.93-10l-6-4.63c-14-1.85-28-2.85-41.94.39a5.37,5.37,0,0,1-3.42,1.57l-7.48,2.6c-7.88,6-19.65,2.74-26.53,11.12-1.4.21-2.8.42-4.19.67-18.44,10-26.7,24.62-21.06,45.68,13.87,3.59,35-7.27,39.92,12.73,2.93,11.94,10.26,16.6,16.49,24,14.43-11.69,33.18,2,47.89-8.11-1.8,13.7-9.33,19.18-23,16.55-6.44-1.25-13.55-4.68-18.48,3.27l-5.88.16c-9,9.68-14,17.11,3.62,24.69,10.65,4.59,27.71,8.41,19.51,29.42-2.74,7,6.37,16.34,14.56,19.85s12.28-3.91,16.2-9.73q7.85-6.09,15.66-12.2c4.64,3.43,10,10.28,13.93,10.28a2.36,2.36,0,0,0,.65-.08c17.71-3.93,27-.26,33.85,18.56,2.33,6.46,17,16,31.2,15.32,50.73-2.43,89.92,27,131.68,49.25,4.66,2.49,6,5.17,3.36,10.3-5.58,10.76,2.67,17.69,7.5,25.86,12.26,20.8,31.73,42.18,28.76,65.27-3.53,27.59,10.08,21.62,22.87,18.09,11.84-3.28,20.47-1.81,28.56,6.64,7.93,8.27,15.51,16.92,24,24.62,5.07,4.62,8.13,15.85,18.6,8.54C1920.17,775.15,1922.12,767.24,1917.2,758ZM1569.44,508.81a16.87,16.87,0,0,0,.5-1.66A16.09,16.09,0,0,1,1569.44,508.81ZM1672.07,491c0,.42,0,.84-.07,1.26h0C1672,491.81,1672,491.39,1672.07,491Zm-.08,1.27c0,2.1.07,4.21.1,6.32C1667.79,496.52,1667.82,494.4,1672,492.24Zm35.63-11.47c0-.2-.08-.39-.12-.58,0,.19.08.38.13.59s.06.31.1.47C1707.69,481.08,1707.65,480.93,1707.62,480.77Zm124.48-36.43.57.56-.58-.55c-.47.08-.93.14-1.39.2Zm27.36,279.36-.81.29-2.93,1.11c-1.33.51-2.7,1-4.06,1.52,1.37-.48,2.73-1,4.06-1.52l2.93-1.12.81-.28a16.18,16.18,0,0,1,8.14-.61A16.4,16.4,0,0,0,1859.46,723.7Zm8.69-.5a17.4,17.4,0,0,1,1.91.54C1869.44,723.53,1868.8,723.35,1868.15,723.2Zm41.37-25.54a16.62,16.62,0,0,0-1.29-1.93,15.44,15.44,0,0,1,1.29,1.93c.4.67.75,1.39,1.1,2.12C1910.27,699.05,1909.91,698.33,1909.52,697.66Z" transform="translate(0.14 0)"/><path class="cls-4" d="M1269.08,249.56c-8.95-1.31-17.51-.86-24.69,5.6l-33.4,20c-7,5-14,7.09-21.35.77q-10.61-.37-21.21-.77c-1.61,3.16-3.36,3.18-5.21.21L1158,274l-6.53-3.55a3.45,3.45,0,0,1-3.81-1.44c-2.17-1.08-4.32-2.17-6.49-3.26l-30.36-2.28c-16-9.05-32-20.09-48.25-.35l-5.57,1.38c-1.51,4.49-3.15,3.77-4.87.12a42,42,0,0,1-5.26.06l-5.57,4.52-.46.44q-8.05,10.33-16.09,20.69a41.06,41.06,0,0,1-4.39.63q-5,5.6-9.93,11.2c2.19,10.56-6.76,17.3-9.06,26.32-2.88-16.75-22.8-18.08-29-31.81-26.06-6.28-16.18-26.21-16.07-42.4l.1.08C941.92,240.2,932.22,225.3,949,206.3q-.66-6.41-1.33-12.81l-2-9.5c-2.84-.67-3.78-2.4-2.89-5.16a9.07,9.07,0,0,1-2-4.14c-3.52-.44-7-.87-10.55-1.32-16.71,20.52-30.56.3-45.57-3.2l-15.32,0,0,1.41-.61-1.27a3,3,0,0,1-1.88-1.92l-10.93,6.41c-.06,12.28.61,24.61-.45,36.81-.82,9.42-2.21,19.91-15.64,20.31l-10.41.19-4.92,6.57c-2.33,12.26,13.65,29.5-9.81,36-3.51,8.42-10.59,13.26-17.93,17.84-30.26,25.81-32.73,25.93-50.93,2.25-20.5-12.79-39.78-16.1-57.75,5.11A16.53,16.53,0,0,1,668.69,304c-5.05,1.07-11.72.45-14.89,3.48-14.58,14-27.13,8.33-39.77-2.35-17.92-11.48-24.48-31.69-36.63-47.61l-1.09-1L565,254.72c-.07,1.3-.14,2.61-.19,3.9-1.94.09-3.88.16-5.82.23l-4.94,2s-1.54,1.07-1.54,1.1a9.89,9.89,0,0,1,.19,1c-3.94,9.54-7.63,19.2-11.88,28.62-9.26,20.5-30.95,41.22,2,60.42,1.74,1,3.19,5,2.64,7.07-6.75,24.63,10.28,34.24,27.13,44.55,9.83,6,16.79,11.49,11.73,27.2-11.55,35.85,9.57,59.63,46.19,56.45,8-.71,20.19-7,23.64,3.83,9.59,30,29.74,16.56,46.86,12.61,8.34-1.93,18.25-10.18,24.36-3.29,10.58,11.94,23.48,10.6,36.14,11.36,14.53.87,24.31,5.42,22.21,21.94-1.94,15.39,5.35,16.49,17,12,8.16-3.17,16.82-5.41,22.91-12.41,8.07,1.38,14.19-4,22.85-7.39,0,5.45,0,9.65,0,13.84,0,7-.57,15.71,6.69,18.53,8.87,3.44,14.5-5.23,19.1-10.76,15.4-18.51,9.22-36.32-3.85-53.24a29.82,29.82,0,0,1-1.36,2.91,36.07,36.07,0,0,1-2.35,4,37.41,37.41,0,0,1-2.7,3.53,38.25,38.25,0,0,0,5-7.5q.74-1.39,1.35-2.91c13.78-14.13,28.33-28,13.44-49.91-4.69-6.89-.83-13.07,5-15.1,40.38-14,52.9-44.22,50.22-83.69l-.42.49.4-.81c0,.11,0,.21,0,.32l3.83-4.42c11.84-28.32,35-10.31,53.09-13,2.48.2,4.94.42,7.41.63a.52.52,0,0,1,0-.11l5.93,5.39c-16.51,31.76-20.28,68-35.17,100.3h0c-14.21,9.3-10.61,23.38-9.83,36.7,22.44-10,30.16.51,30.25,21.68,6.59,13.24,4.16,25.5-4,37.15l-6.78,20.8c.46,2,.93,4.08,1.39,6.11l5.23,4.72.17.12,6.14,4.65-.21-.33c17.58-10.26,40.24,7.84,56.45-10.1l.63-8.92a31.91,31.91,0,0,1-4.29-1.25c-1.1-8.26-8-16.41-8-24.69,0-4.27,1.85-8.58,7.31-13,.2-3.34.43-6.69.63-10q.19-13.23.38-26.47-.74-10.8-1.46-21.6c-1.14,0-2.28,0-3.41.07,1.13,0,2.27-.06,3.41-.08-1.55-5-3.13-10-4.69-15h0c30.28-.56,30.28-.56,15.19,36.48q5.78,10.57,11.57,21.12c1.72.4,3.43.85,5.11,1.37,22.52,5.06,8.76,18.64,6.91,29.42l9,11.81,9.64.72,11-.58c1.2,6.46,4.24,9.85,9.23,9.85a16.71,16.71,0,0,0,5.62-1.13c14-5.06,10.71,5.82,11.76,12.71-.84,13.73,6.92,12.61,16,9.25l5.54-4.36,5.59-4.92.2-.22,4.83-5.69-.14.09c3.26-9-5.45-22.64,10.15-26.9q-3-10.61-6-21.21l4.62-4.78c-1.05-3.53-2.09-7.06-3.15-10.59l-21,2.9L1140.76,473l-.18.26c-12.59-.41-16.28-6.72-12.06-18.24,6-3.37,10.26-7.67,8.31-15.34-5.36-1.74-8.57-5.66-10.73-10.63-2.94-3.32-5.9-6.63-8.84-9.93-1.83,1.61-3.9,3.08-6,4.56,2.06-1.5,4.14-3,6-4.57-17-23.43-13.74-28.85,20.19-34.22q-.07,6.06-.13,12.12l5,1.89a3.77,3.77,0,0,1,4.52,1.52l6.24-1.34,4.56-2.65a2.39,2.39,0,0,0-.12.22c6.56-5.07,14-4.57,21.61-3.58l5.38-1.24L1194.65,381c.19-3.43.37-6.84.56-10.27l-2.6-.21-2.52.64h0l-4.72-2.5c-6.75.76-6.11-4.19-6.5-8.37,1.68-.53,3.37-1,5.08-1.34l3.24-9.64q-3.9-5.26-7.79-10.52l-15.81-1.12c-16.53,7.28-33.5,13.8-51.8,12.74-17-1-25.33,13.14-38.11,19.36-3.64-7.12-3.72-18.49-16.94-14.15-4.78-11.73-21.68-15-21.09-30.68.38-9.58-.55-19.43,11.4-23.17h0l143.28,14.54c10.29-.12,21.19,3.78,30.29-4.48a14.46,14.46,0,0,1,1.4-4.62c1.57-.28,3.15-.63,4.69-1.06L1252.1,280c.36-11.45,8.78-16,17.3-20.47Q1269.26,254.53,1269.08,249.56Zm-714.31,38.5c.28-.48.55-1,.84-1.44-.29.48-.55,1-.83,1.44l-1.52,2.69Zm-.67,45.07c.83.71,1.73,1.41,2.7,2.11C555.83,334.55,554.93,333.84,554.1,333.13Zm42,63a22.65,22.65,0,0,1,1.69,2.24A25.76,25.76,0,0,0,596.07,396.1Zm4.72,17.9c-.1.93-.25,1.9-.44,2.91.19-1,.33-2,.44-2.91.74-6.39-.29-11.06-2.52-14.85C600.5,402.93,601.54,407.59,600.79,414Zm17.76,56.05a36.79,36.79,0,0,1-9.1-3.53,38,38,0,0,0,9.1,3.53c1.13.29,2.32.56,3.54.78C620.87,470.61,619.68,470.35,618.55,470.05Zm354-35.25a11.41,11.41,0,0,1,1.61,2.11A12.12,12.12,0,0,0,972.58,434.8Zm24,16.75a4.53,4.53,0,0,1,2-.25A4.86,4.86,0,0,0,996.6,451.55Zm156.66,41.66a12.49,12.49,0,0,0-.14-2.32A11.64,11.64,0,0,1,1153.26,493.21Zm15.38-133c-1.35-.1-2.69-.19-4-.17C1166,360,1167.29,360.06,1168.64,360.16Zm-15.48,8.36c-.22.74-.43,1.55-.6,2.41h0A23.51,23.51,0,0,1,1153.16,368.52Zm-76.87,20.42a4.2,4.2,0,0,1-.63.53A6.77,6.77,0,0,0,1076.29,388.94Zm-34.87,35.62c2.89-.69,5.77-1.42,8.67-2.13-2.9.71-5.78,1.45-8.67,2.14Z" transform="translate(0.14 0)"/><path class="cls-4" d="M1202.74,710.2c-13.42,12.62-21.58,34.41-46.86,26.46a13.31,13.31,0,0,0-10,1.67c-31.78,21.34-65.3,13.63-98.84,6.46-6.88,12.82-13.28,26.14-30.25,28.1l-7.25-5.45c-.81,1.87-1.63,3.73-2.44,5.58l-1,.51c-5.39,3-10.76,5.12-16-.31-.54-3.37-1.07-6.75-1.6-10.12.28-4-1.83-6.25-5.46-7.38l-4.13-3.09-6.47-5-10-6.9c-4.1-6.33-10.38-1.88-15.5-3.12-.08,3.19-.17,6.38-.25,9.56-10,16-19.59,2.92-28.43-1.12-33.66-15.36-68.38-5.34-102.19-3.31-36.86,2.2-69.38-9.87-102.85-20.65-12.26-4-23.71-1-35.49,3.12-21.08,7.45-81.45-6.42-93.08-20.54,2.79-3.33,6.38-8-.14-9.66-13.64-3.52-27.69-6.37-41.53-.09l-13-7.23-4-14.06,6.08-6.28,5.74-4.11c14.32,5.19,12.63-12.59,21.6-15h0c-1.71-28.44,14.57-22.55,31-16.27l20.87-1.85c23.82-.88,48.37,1.4,66.57,16.44,23.35,19.3,66.94,19.8,86.72-3.12,7-8.11,11.66-12.39,25.47-4.22,15.85,9.39,36,18,57,12.12l5.77.87a4.07,4.07,0,0,1,2.66,2.72,22,22,0,0,0,2.23,4.64c-5.21,13.87,4.83,18.87,14.13,24.31,12.32,9,26.07,5.24,39,3.26,15.57-2.37,25.41,2.46,30,17.61L951.19,700c25.56.63,50.81-21.77,77.1,1,10.4,9,17.57,15.27,6,27-5,5-12.69,8.89-6.57,16.8,5.86,7.56,12.81-1.14,19.38-.81,8.13-11.19,1.06-30.89,20.13-36a3.24,3.24,0,0,1,1.85-3.51l13.71,1.42h0c6,1.75,12.09,3.63,17.4-1.79,10.21-3.86,21.68-4.82,28.49-15.7,4-6.46,14.18-9.89,18.62-5.7,16.84,15.88,26.15,3.29,36.65-8.43,9,7.8-3.63,31,20,27.17C1205.58,701.2,1205.63,707.48,1202.74,710.2Z" transform="translate(0.14 0)"/><path class="cls-4" d="M1447.24,529.44c-2.87,10.85-11.53,19-20.4,12.34-33.65-25.15-73.13-22.81-111.3-27.28-11,2.24-21.78,3.51-12.28-12.88,8.42-14.55,17.91-27.62,38.65-24.82,23.21,3.13,47-1.48,70.17,5.5C1436,489.49,1447.64,504.68,1447.24,529.44Z" transform="translate(0.14 0)"/><path class="cls-4" d="M1359.65,671.43c-7.41-10-15.64,4.19-23.42,8-15.12,7.3-30.73,21-47.35,9.83-25.37-17.08-43.35-6.49-61.54,10.42,2.93,3,4.31,7.26,7.06,10.16-2.75-2.9-4.13-7.14-7.06-10.16-9.4,5.54-15,15-8.78,23.55,7,9.69,19-.3,28.69,1.49-1.64,11.38-5.9,19.31-19.72,17.39-10.5-1.45-20.69-.5-27.07,10-6.91,4.46-13.81,9.54-10,19,3,7.63,10.39,9.22,17.86,7.68,9.3-1.9,14.47,3.72,20.46,9.2,19.89,18.22,32.5,16.82,52.82-5.08,5.85-3.71,5.88-10.14,1.58-12.9-15.83-10.14-16.85-26.45-19.78-42.18,12.3,3.12,23.83,3,32.93-7.65,18.68-3.6,40.16-.12,52.16-20.63C1360.55,693.26,1365.67,679.56,1359.65,671.43Z" transform="translate(0.14 0)"/><path class="cls-4" d="M1373.17,272.89c17.11,1.82,33.55-18.07,42.26-13.44,15.19,8.08,29,14.54,46,14,3.27-.1,6.47-2.49,9.71-3.82q0-9.18,0-18.34c-11.7-9.67-22.16-29.81-37.07-2.09-2.65,4.92-12.87,1.38-18.91-3.7-20.52-17.22-35.32,4.41-52.61,8.7-1.51.37-2.2,8.16-1.54,12.23C1362,273.17,1367.63,272.3,1373.17,272.89Z" transform="translate(0.14 0)"/><path class="cls-4" d="M1178.85,523.8l-.27.08.05.18Z" transform="translate(0.14 0)"/><path class="cls-4" d="M1338,328.74l0-.09c-11.67-16-10-32.44-2.4-49.66,2.33-5.28-1.7-9.85-7.73-11.31-4.75,5.91-11.33,10.48-17.88,5.59-7.21-5.39-1.6-14.77-3-22.23h0a36.61,36.61,0,0,0,20.68-7.67l0,0c1.65-2.15,3.3-4.28,5-6.43.45-3.14.91-6.29,1.36-9.42a9.25,9.25,0,0,1-1.24-4.9l-10.38-2.18a5.78,5.78,0,0,1-4.47,2.13l-5.9,5.3-5.22,5.1q-.45,2.69-.93,5.38h0l-2.37,0-2.29-.63c-8.93,6.12-18.76,11.46-21.15,23.48-3.45,1.46-6.73,1.75-9.63-.59,3.18,7.82-.83,14-5.49,20-6.32,27.1,8.89,49.72,15.44,74.14-.33,3.38-.66,6.75-1,10.14-9.89,3-18.47,7.61-13.52,20,4.68,11.68,12.77,18.41,26.31,12.35-1.58,10-8.36,16.71-15,23.56-3.53,3.63-8.1,7.29-5.49,13.3s8.25,5,13.36,5.53c25.43,2.53,32.72-8.55,24.22-37,.1-.07.2-.11.3-.17-.09-.2-.19-.39-.28-.58,7.28-4.78,15.39-8.81,16.65-18.91-5.83-15.14-21.77-25.87-19.41-44.58,10.89.35,24.73,19.25,31.68-5.05A3.61,3.61,0,0,1,1338,328.74Zm-36.37,68.37a4.46,4.46,0,0,1-.43.33c0-.19,0-.38.06-.59.15,0,.27,0,.4,0Z" transform="translate(0.14 0)"/><path class="cls-4" d="M1269.84,259.26l-.43.38a11.39,11.39,0,0,0,1,1C1270.26,260.16,1270.06,259.71,1269.84,259.26Z" transform="translate(0.14 0)"/><path class="cls-4" d="M1436.12,714.56c.67.26,1.35.48,2,.69-.69-.21-1.37-.43-2-.69l-28.19,21.53c-8.42,5-16.72,10.38-15.83,21.73,1.71,21.74-6.24,38.7-23.21,52.21-4.23,3.38-11.91,8.41-6.26,14.75,6.31,7.09,13.12.55,18.15-3.83,11.84-10.28,21.35-25.54,34.94-31,25.79-10.38,37.09-29.93,45.63-53.38h0l4.27-5.49c26.93-7.34,19.9-35.55,33.39-51.87C1480.26,696.35,1451,693,1436.12,714.56Z" transform="translate(0.14 0)"/><path class="cls-4" d="M538.17,544.72c.2.56.37,1.14.53,1.74a27,27,0,0,1,.79,4.8h0c12.46,10.62,22.88,10,30.64-5.54h0c3.69-12.32,9.47-24.72-9.72-30.59-4.88-1.5-9.1-8.23-11.73-13.5-16.82-33.62-23.35-34.5-51-5.91h0q-6.44,4.06-12.84,8.15l11.43,15.73c14.25-9.91,21.44-2.55,26.23,10.65v0a29.89,29.89,0,0,1,10.69,6.52A20.68,20.68,0,0,1,538.17,544.72Zm9.24-10.27a12.42,12.42,0,0,0,4.74,5.69,12.39,12.39,0,0,1-4.74-5.7,44.83,44.83,0,0,0-11.83-17.39A44.58,44.58,0,0,1,547.41,534.45Z" transform="translate(0.14 0)"/><path class="cls-4" d="M1260.93,464.21c-11.27-3.19-19.75,5.3-22.18,16.42-2,9.09-11.18,6.87-15.16,12.16-10.89,7.93-21.11,20.33-7.48,29.31,12,7.92,24.79,30.88,44.51,12.43,11.16-10.44,30.07-20.66,11.83-40.53C1275.68,481.25,1275.35,468.29,1260.93,464.21Z" transform="translate(0.14 0)"/><path class="cls-4" d="M1417.48,449.55l-.1.09a.94.94,0,0,0-.1.1Z" transform="translate(0.14 0)"/><path class="cls-4" d="M1402.9,428.82c-5.32,2.44-11.29,3.46-17,5.13l-.17.1-10.51,10.7c.12,1.92.23,3.84.35,5.77l5.92,4.56a15.58,15.58,0,0,1,4.66.55l5.29-.26,20-.65,6-5.08,5.25-5.52-.13,0C1425.09,427.3,1419.71,421.12,1402.9,428.82Z" transform="translate(0.14 0)"/><path class="cls-4" d="M1621.82,595c-10.81-3.2-14.17,6.79-18.4,14.08-19,17.64,4,43.78-13,62.5-7.21,7.94-.92,16.89,7.78,16.35,7.54-.46,20.36-10.55,16.19-16.22-13.93-18.9,9.79-18.5,11.93-28.35,8.6-8.2,7.43-18.84,6.07-28.84C1631.4,607.08,1630.19,597.49,1621.82,595Z" transform="translate(0.14 0)"/><path class="cls-4" d="M141.32,383.63,135.88,380l.07.1-10.19-6.19-11.31,1.68.51-2.23-5.3.71-10,5.92L94,385.74c2.83,13.1,12.33,21.6,19.92,31.85,9.63,13,17.89,18.4,32.3,9.51q2.13-4.83,4.25-9.67c3.44-11.23,2.49-21.83-4.51-31.56A6.45,6.45,0,0,1,141.32,383.63Z" transform="translate(0.14 0)"/><path class="cls-4" d="M1301.67,396.88l0,.23a4.46,4.46,0,0,1-.43.33c0-.19,0-.38.06-.59C1301.42,396.85,1301.54,396.87,1301.67,396.88Z" transform="translate(0.14 0)"/><path class="cls-4" d="M1428.56,370.92l6.71,2.93s.61.17.61.17l14-2.72c13.17-4.34,5-13.59,4.83-21-9-1.59-18.67-1-26.54-7.05-6.76,5.41-13.79,10.71-9.38,21.08l6.71,5A3.88,3.88,0,0,1,1428.56,370.92Z" transform="translate(0.14 0)"/><path class="cls-4" d="M1418.32,666.88c-14.48,2.16-32.25-4-39.85,15.69,28.59,16.82,41.59,16.06,66.51-4,3.77,0,5.86-2.44,7.37-5.62,10.47-8.86,11.1-16.16-4.3-17.88C1436.7,653.86,1425,654.81,1418.32,666.88Z" transform="translate(0.14 0)"/><path class="cls-4" d="M1912.93,570.38c-14.64-34.66.17-72.86-13-107.7,6.69-.33,9.62,3.86,9.7,9.52C1910.08,505,1917.34,537.47,1912.93,570.38Z" transform="translate(0.14 0)"/><path class="cls-4" d="M206.65,496.9a5.36,5.36,0,0,1-2.4-4.41L200.08,486c-6.87-8.62-13.44-4.06-20,.47-.56,1.92-1.11,3.84-1.68,5.76,5,14.14,12.59,23.39,25.42,23-12.83.44-20.44-8.82-25.42-23-1.47,0-2.93-.08-4.39-.21l.11-.23-5.53,5.41.21-.25-5.5,6c.05,2.6.11,5.21.17,7.81l4.89,6.51,0,0c1.56,1.84,3.11,3.69,4.66,5.53l.3.39c11,10.44,24.2,7,37,5.7l.73-.71,4.54-4.58.24-11.21L210,500.3Zm-2.74,18.3a28.14,28.14,0,0,0,3.09-.28A28.14,28.14,0,0,1,203.91,515.2Z" transform="translate(0.14 0)"/><path class="cls-4" d="M1502.77,623.62c-5.34,2.59-10.76,5-16.13,7.55.66,3.84,1.92,6.26,3.56,7.77-1.64-1.51-2.9-3.93-3.56-7.77-11.4,4.92-21.54,15-14.88,25.25,5.31,8.2,18.16-2.72,27.63-4.81,4.18-.92,7.25-6.88,10.83-10.56a15,15,0,0,0-2.46-.33,15,15,0,0,1,2.46.33c9-2.75,20.59-6.28,15.31-17.61C1520.85,613.39,1510.53,619.85,1502.77,623.62Zm-8.93,17.24a12,12,0,0,0,1.61.28A12,12,0,0,1,1493.84,640.86Z" transform="translate(0.14 0)"/><path class="cls-4" d="M1332.77,222.41c0,.06,0,.11,0,.17l.13,0Z" transform="translate(0.14 0)"/><path class="cls-4" d="M1487.08,268.85c4.54-5.19,9.21-10.89,5.46-17.94s-10.22-3.13-15.73-1.89c-1.91.76-3.82,1.53-5.73,2.26q0,9.15,0,18.37C1477,279.38,1482.57,284.24,1487.08,268.85Z" transform="translate(0.14 0)"/><path class="cls-4" d="M1744.41,423l31.36-4.59C1762.82,402.91,1754,415.71,1744.41,423Z" transform="translate(0.14 0)"/></g></g></g></svg>