<svg xmlns="http://www.w3.org/2000/svg" xmlns:xlink="http://www.w3.org/1999/xlink" viewBox="0 0 837 855.25"><defs><style>.cls-1{fill:none;}.cls-2{fill:#fff;}.cls-3{fill:#d1ecf8;}.cls-4{clip-path:url(#clip-path);}.cls-5{fill:#dc6820;}.cls-6{fill:#24758e;}.cls-7{fill:#49b3b8;}.cls-8{fill:#81b63e;}.cls-9{fill:#d8d61e;}.cls-10{opacity:0.1;}.cls-11{clip-path:url(#clip-path-2);}</style><clipPath id="clip-path" transform="translate(430.91 216.42)"><path class="cls-1" d="M0,444.25c1.33,11.67,2.63,23.11,5.63,34.28,15.9,59,49.18,106.63,80,155.92,4.76,7.62,6.94,4.25,9.11-2.13,3.07-9,6.56-17.84,9.64-26.84,23.37-68.35,57.58-125.86,119.86-156.58,57.14-28.18,91.37-80.7,116.29-142.56,6.76-16.77,6-18.63-10.5-19.68-21.14-1.35-39.3-8.84-56.37-23.86-34.41-30.26-70.25-58.44-105.37-87.69-12.31-10.25-24.54-20-33.71-34.94C107,95.32,78.12,51.58,49.69,7.47c-1.93-3-3.07-8.06-7.08-7.41S38.8,5.94,38,9.47c-5.1,23.44-10.26,46.88-15,70.42-10.13,50.7-9,99.7,17.65,144.79,3.07,5.18,5,11.19,7.43,16.85,12.18,28.63,11.6,57-2,84.75-9.48,19.41-19.26,38.63-28.94,57.92A167.28,167.28,0,0,0,0,444.25Z"/></clipPath><clipPath id="clip-path-2" transform="translate(430.91 216.42)"><path id="SVGID" class="cls-2" d="M0,444.25c1.33,11.67,2.63,23.11,5.63,34.28,15.9,59,49.18,106.63,80,155.92,4.76,7.62,6.94,4.25,9.11-2.13,3.07-9,6.56-17.84,9.64-26.84,23.37-68.35,57.58-125.86,119.86-156.58,57.14-28.18,91.37-80.7,116.29-142.56,6.76-16.77,6-18.63-10.5-19.68-21.14-1.35-39.3-8.84-56.37-23.86-34.41-30.26-70.25-58.44-105.37-87.69-12.31-10.25-24.54-20-33.71-34.94C107,95.32,78.12,51.58,49.69,7.47c-1.93-3-3.07-8.06-7.08-7.41S38.8,5.94,38,9.47c-5.1,23.44-10.26,46.88-15,70.42-10.13,50.7-9,99.7,17.65,144.79,3.07,5.18,5,11.19,7.43,16.85,12.18,28.63,11.6,57-2,84.75-9.48,19.41-19.26,38.63-28.94,57.92A167.28,167.28,0,0,0,0,444.25Z"/></clipPath></defs><g id="Layer_2" data-name="Layer 2"><g id="Layer_1-2" data-name="Layer 1"><path class="cls-3" d="M0,444.25c1.33,11.67,2.63,23.11,5.63,34.28,15.9,59,49.18,106.63,80,155.92,4.76,7.62,6.94,4.25,9.11-2.13,3.07-9,6.56-17.84,9.64-26.84,23.37-68.35,57.58-125.86,119.86-156.58,57.14-28.18,91.37-80.7,116.29-142.56,6.76-16.77,6-18.63-10.5-19.68-21.14-1.35-39.3-8.84-56.37-23.86-34.41-30.26-70.25-58.44-105.37-87.69-12.31-10.25-24.54-20-33.71-34.94C107,95.32,78.12,51.58,49.69,7.47c-1.93-3-3.07-8.06-7.08-7.41S38.8,5.94,38,9.47c-5.1,23.44-10.26,46.88-15,70.42-10.13,50.7-9,99.7,17.65,144.79,3.07,5.18,5,11.19,7.43,16.85,12.18,28.63,11.6,57-2,84.75-9.48,19.41-19.26,38.63-28.94,57.92A167.28,167.28,0,0,0,0,444.25Z" transform="translate(430.91 216.42)"/><g class="cls-4"><path class="cls-5" d="M45.28-56.11l5.93,5.4C34.7-19,30.93,17.26,16,49.58h0C1.82,58.88,5.42,73,6.2,86.28c22.44-10,30.16.51,30.25,21.68,6.59,13.24,4.16,25.51-4,37.15l-6.78,20.8C26.1,168,26.57,170,27,172c1.75,1.57,3.5,3.14,5.23,4.72l.17.11q3.06,2.34,6.14,4.65l-.21-.32c17.58-10.27,40.24,7.84,56.45-10.1l.63-8.93a30.51,30.51,0,0,1-4.29-1.25c-1.1-8.26-8-16.4-8-24.68,0-4.28,1.85-8.59,7.31-13,.2-3.34.43-6.68.63-10q.2-13.24.38-26.48-.74-10.8-1.46-21.6c-1.14,0-2.28,0-3.41.07,1.13,0,2.27-.06,3.41-.08-1.55-5-3.13-10-4.69-15h0c30.28-.56,30.28-.56,15.19,36.49q5.78,10.56,11.57,21.12c1.72.39,3.43.84,5.11,1.37,22.52,5.06,8.76,18.63,6.91,29.42l9,11.8,9.64.73,11-.58c1.2,6.46,4.24,9.84,9.23,9.84a16.93,16.93,0,0,0,5.62-1.12c14-5.06,10.71,5.81,11.76,12.7-.84,13.73,6.92,12.62,16,9.25l5.54-4.35,5.59-4.93.2-.21,4.83-5.7-.14.1c3.26-9-5.45-22.65,10.15-26.91q-3-10.59-6.05-21.2l4.62-4.79c-1.05-3.52-2.09-7.06-3.15-10.59q-10.5,1.44-21,2.91L184.67,88.27l-.18.27c-12.59-.42-16.28-6.73-12.06-18.25,6-3.36,10.26-7.66,8.31-15.33-5.36-1.75-8.57-5.66-10.73-10.63-2.94-3.32-5.9-6.64-8.84-9.94a71.06,71.06,0,0,1-6,4.56c2.06-1.49,4.14-3,6-4.57C144.21,11,147.42,5.53,181.35.17q-.07,6-.13,12.11l5,1.89a3.78,3.78,0,0,1,4.52,1.52L197,14.36l4.56-2.65a2.25,2.25,0,0,0-.12.21c6.56-5.07,14-4.57,21.61-3.58l5.38-1.23L238.56-3.75c.19-3.42.37-6.84.56-10.26l-2.6-.22-2.52.65h0l-4.72-2.51c-6.75.77-6.11-4.19-6.5-8.37,1.68-.52,3.37-1,5.08-1.34l3.24-9.64q-3.9-5.25-7.79-10.52c-5.26-.38-10.54-.74-15.81-1.11C191-39.79,174-33.27,155.69-34.33c-17-1-25.33,13.13-38.11,19.36-3.64-7.13-3.72-18.5-16.94-14.15C95.86-40.86,79-44.16,79.55-59.81,79.93-69.39,79-79.23,91-83h0L234.23-68.43c10.29-.12,21.19,3.79,30.29-4.47a14.38,14.38,0,0,1,1.4-4.62c1.57-.29,3.15-.64,4.69-1.07L296-104.81c.36-11.45,8.78-16,17.3-20.46q-.13-5-.32-9.94c-8.95-1.31-17.51-.86-24.69,5.6l-33.4,20.06c-7,5-14,7.08-21.35.77l-21.21-.77c-1.61,3.16-3.36,3.18-5.21.2l-5.24-1.39c-2.18-1.18-4.35-2.37-6.53-3.54a3.47,3.47,0,0,1-3.81-1.45c-2.17-1.08-4.32-2.16-6.49-3.26q-15.18-1.12-30.36-2.28c-16-9-32-20.08-48.25-.34l-5.57,1.38c-1.51,4.48-3.15,3.77-4.87.12a44,44,0,0,1-5.26,0c-1.86,1.5-3.71,3-5.57,4.53l-.46.44Q76.66-104.75,68.63-94.4a41,41,0,0,1-4.39.62L54.31-82.57C56.5-72,47.55-65.28,45.25-56.25Z" transform="translate(430.91 216.42)"/><path class="cls-6" d="M90.91,360c33.54,7.16,67.06,14.87,98.84-6.46,2.61-1.76,7.11-2.6,10-1.68,25.28,7.95,33.44-13.83,46.86-26.46,2.89-2.72,2.84-9,1.16-8.72-23.59,3.87-11-19.37-20-27.17C217.35,301.27,208,313.85,191.2,298c-4.44-4.19-14.57-.77-18.62,5.69-6.81,10.89-18.28,11.85-28.49,15.7-5.31,5.42-11.36,3.55-17.4,1.79h0L113,319.73a3.26,3.26,0,0,0-1.85,3.52c-19.07,5.07-12,24.77-20.13,36Z" transform="translate(430.91 216.42)"/><path class="cls-7" d="M403.56,286.67c-7.41-10-15.64,4.18-23.42,7.94-15.12,7.31-30.73,21-47.35,9.83-25.37-17.07-43.35-6.49-61.54,10.42,2.93,3,4.31,7.27,7.06,10.17-2.75-2.9-4.13-7.14-7.06-10.17-9.4,5.54-15,15-8.78,23.56,7,9.68,19-.3,28.69,1.48-1.64,11.38-5.9,19.32-19.72,17.4-10.5-1.46-20.69-.51-27.07,9.95-6.91,4.47-13.81,9.54-10.05,18.95,3,7.63,10.39,9.22,17.86,7.69,9.3-1.91,14.47,3.71,20.46,9.2,19.89,18.21,32.5,16.82,52.82-5.09,5.85-3.7,5.88-10.14,1.58-12.89-15.83-10.14-16.85-26.45-19.78-42.19,12.3,3.12,23.83,3,32.93-7.65,18.68-3.6,40.16-.11,52.16-20.62C404.46,308.49,409.58,294.79,403.56,286.67Z" transform="translate(430.91 216.42)"/><path class="cls-8" d="M90.91,360c-6.88,12.82-13.28,26.14-30.25,28.1l-7.25-5.45c-.81,1.86-1.63,3.72-2.44,5.57l-1,.51c-5.39,3.05-10.76,5.12-16-.3q-.81-5.07-1.6-10.12c.28-4-1.83-6.25-5.46-7.39l-4.13-3.08-6.47-5-10-6.9c-4.1-6.34-10.38-1.88-15.5-3.13-.08,3.19-.17,6.38-.25,9.57-10,16-19.59,2.91-28.43-1.12C-71.49,346-106.21,356-140,358c-36.86,2.2-69.38-9.86-102.85-20.65-12.26-3.94-23.71-1.05-35.49,3.12-21.08,7.45-81.45-6.42-93.08-20.54,2.79-3.33,6.38-8-.14-9.66-13.64-3.51-27.69-6.36-41.53-.09l-13-7.22-4-14.06,6.08-6.29,5.74-4.11c14.32,5.2,12.63-12.58,21.6-15h0c-1.71-28.44,14.57-22.55,31.05-16.28l20.87-1.85c23.82-.88,48.37,1.4,66.57,16.45,23.35,19.3,66.94,19.79,86.72-3.13,7-8.11,11.66-12.39,25.47-4.21,15.85,9.38,36,18,57,12.11q2.87.45,5.77.87a4.07,4.07,0,0,1,2.66,2.72,21.79,21.79,0,0,0,2.23,4.64c-5.21,13.87,4.83,18.87,14.13,24.31,12.32,9,26.07,5.25,39,3.26,15.57-2.37,25.41,2.47,30,17.62l10.33-4.74c25.56.64,50.81-21.76,77.1,1,10.4,9,17.57,15.28,6,26.95-5,5-12.69,8.89-6.57,16.81,5.86,7.55,12.81-1.15,19.38-.81Z" transform="translate(430.91 216.42)"/><path class="cls-9" d="M45.25-56.25c-2.88-16.76-22.8-18.08-29-31.81C-9.81-94.35.07-114.27.18-130.47l.1.09c-14.45-14.18-24.15-29.09-7.42-48.08q-.66-6.4-1.33-12.82l-2-9.5c-2.84-.66-3.78-2.4-2.89-5.16a9,9,0,0,1-2-4.14c-3.52-.44-7-.87-10.55-1.32-16.71,20.53-30.56.31-45.57-3.2l-15.32,0,0,1.41-.61-1.26a3,3,0,0,1-1.88-1.93q-5.46,3.21-10.93,6.41c-.06,12.28.61,24.62-.45,36.81-.82,9.43-2.21,19.92-15.64,20.32l-10.41.18-4.92,6.57c-2.33,12.26,13.65,29.51-9.81,36-3.51,8.42-10.59,13.25-17.93,17.83C-189.73-66.48-192.2-66.36-210.4-90c-20.5-12.78-39.78-16.1-57.75,5.11a16.53,16.53,0,0,1-19.25,4.18c-5.05,1.07-11.72.45-14.89,3.47-14.58,14-27.13,8.33-39.77-2.35-17.92-11.48-24.48-31.69-36.63-47.61l-1.09-1L-391.13-130c-.07,1.3-.14,2.61-.19,3.91l-5.82.22-4.94,2s-1.54,1.07-1.54,1.1a9.23,9.23,0,0,1,.19,1c-3.94,9.55-7.63,19.21-11.88,28.62-9.26,20.5-30.95,41.22,2,60.43,1.74,1,3.19,5,2.64,7.06C-417.4-1.1-400.37,8.51-383.52,18.81c9.83,6,16.79,11.49,11.73,27.2-11.55,35.85,9.57,59.63,46.19,56.45,8-.7,20.19-7,23.64,3.84,9.59,30,29.74,16.56,46.86,12.6,8.34-1.92,18.25-10.17,24.36-3.28,10.58,11.94,23.48,10.6,36.14,11.36,14.53.86,24.31,5.41,22.21,21.93-1.94,15.4,5.35,16.49,17,12,8.16-3.17,16.82-5.4,22.91-12.41,8.07,1.38,14.19-3.94,22.85-7.39,0,5.45,0,9.65,0,13.84,0,7.05-.57,15.72,6.69,18.54,8.87,3.43,14.5-5.24,19.1-10.77,15.4-18.51,9.22-36.32-3.85-53.24A28.94,28.94,0,0,1-89,112.37a35,35,0,0,1-2.35,4,36.16,36.16,0,0,1-2.7,3.53,37.8,37.8,0,0,0,2.7-3.53,38.27,38.27,0,0,0,2.35-4,31.27,31.27,0,0,0,1.35-2.92c13.78-14.12,28.33-28,13.44-49.9-4.69-6.89-.83-13.08,5-15.11C-28.87,30.4-16.35.23-19-39.24l-.42.49.4-.82c0,.11,0,.22,0,.33,1.28-1.47,2.55-3,3.83-4.43,11.84-28.31,35-10.3,53.09-13L45.3-56a.52.52,0,0,1,0-.11Z" transform="translate(430.91 216.42)"/></g><g class="cls-10"><path class="cls-2" d="M0,444.25c1.33,11.67,2.63,23.11,5.63,34.28,15.9,59,49.18,106.63,80,155.92,4.76,7.62,6.94,4.25,9.11-2.13,3.07-9,6.56-17.84,9.64-26.84,23.37-68.35,57.58-125.86,119.86-156.58,57.14-28.18,91.37-80.7,116.29-142.56,6.76-16.77,6-18.63-10.5-19.68-21.14-1.35-39.3-8.84-56.37-23.86-34.41-30.26-70.25-58.44-105.37-87.69-12.31-10.25-24.54-20-33.71-34.94C107,95.32,78.12,51.58,49.69,7.47c-1.93-3-3.07-8.06-7.08-7.41S38.8,5.94,38,9.47c-5.1,23.44-10.26,46.88-15,70.42-10.13,50.7-9,99.7,17.65,144.79,3.07,5.18,5,11.19,7.43,16.85,12.18,28.63,11.6,57-2,84.75-9.48,19.41-19.26,38.63-28.94,57.92A167.28,167.28,0,0,0,0,444.25Z" transform="translate(430.91 216.42)"/><path id="SVGID-2" data-name="SVGID" class="cls-2" d="M0,444.25c1.33,11.67,2.63,23.11,5.63,34.28,15.9,59,49.18,106.63,80,155.92,4.76,7.62,6.94,4.25,9.11-2.13,3.07-9,6.56-17.84,9.64-26.84,23.37-68.35,57.58-125.86,119.86-156.58,57.14-28.18,91.37-80.7,116.29-142.56,6.76-16.77,6-18.63-10.5-19.68-21.14-1.35-39.3-8.84-56.37-23.86-34.41-30.26-70.25-58.44-105.37-87.69-12.31-10.25-24.54-20-33.71-34.94C107,95.32,78.12,51.58,49.69,7.47c-1.93-3-3.07-8.06-7.08-7.41S38.8,5.94,38,9.47c-5.1,23.44-10.26,46.88-15,70.42-10.13,50.7-9,99.7,17.65,144.79,3.07,5.18,5,11.19,7.43,16.85,12.18,28.63,11.6,57-2,84.75-9.48,19.41-19.26,38.63-28.94,57.92A167.28,167.28,0,0,0,0,444.25Z" transform="translate(430.91 216.42)"/><g class="cls-11"><path class="cls-2" d="M45.28-56.11l5.93,5.4C34.7-19,30.93,17.26,16,49.58h0C1.82,58.88,5.42,73,6.2,86.28c22.44-10,30.16.51,30.25,21.68,6.59,13.24,4.16,25.51-4,37.15l-6.78,20.8C26.1,168,26.57,170,27,172c1.75,1.57,3.5,3.14,5.23,4.72l.17.11q3.06,2.34,6.14,4.65l-.21-.32c17.58-10.27,40.24,7.84,56.45-10.1l.63-8.93a30.51,30.51,0,0,1-4.29-1.25c-1.1-8.26-8-16.4-8-24.68,0-4.28,1.85-8.59,7.31-13,.2-3.34.43-6.68.63-10q.2-13.24.38-26.48-.74-10.8-1.46-21.6c-1.14,0-2.28,0-3.41.07,1.13,0,2.27-.06,3.41-.08-1.55-5-3.13-10-4.69-15h0c30.28-.56,30.28-.56,15.19,36.49q5.78,10.56,11.57,21.12c1.72.39,3.43.84,5.11,1.37,22.52,5.06,8.76,18.63,6.91,29.42l9,11.8,9.64.73,11-.58c1.2,6.46,4.24,9.84,9.23,9.84a16.93,16.93,0,0,0,5.62-1.12c14-5.06,10.71,5.81,11.76,12.7-.84,13.73,6.92,12.62,16,9.25l5.54-4.35,5.59-4.93.2-.21,4.83-5.7-.14.1c3.26-9-5.45-22.65,10.15-26.91q-3-10.59-6.05-21.2l4.62-4.79c-1.05-3.52-2.09-7.06-3.15-10.59q-10.5,1.44-21,2.91L184.67,88.27l-.18.27c-12.59-.42-16.28-6.73-12.06-18.25,6-3.36,10.26-7.66,8.31-15.33-5.36-1.75-8.57-5.66-10.73-10.63-2.94-3.32-5.9-6.64-8.84-9.94a71.06,71.06,0,0,1-6,4.56c2.06-1.49,4.14-3,6-4.57C144.21,11,147.42,5.53,181.35.17q-.07,6-.13,12.11l5,1.89a3.78,3.78,0,0,1,4.52,1.52L197,14.36l4.56-2.65a2.25,2.25,0,0,0-.12.21c6.56-5.07,14-4.57,21.61-3.58l5.38-1.23L238.56-3.75c.19-3.42.37-6.84.56-10.26l-2.6-.22-2.52.65h0l-4.72-2.51c-6.75.77-6.11-4.19-6.5-8.37,1.68-.52,3.37-1,5.08-1.34l3.24-9.64q-3.9-5.25-7.79-10.52c-5.26-.38-10.54-.74-15.81-1.11C191-39.79,174-33.27,155.69-34.33c-17-1-25.33,13.13-38.11,19.36-3.64-7.13-3.72-18.5-16.94-14.15C95.86-40.86,79-44.16,79.55-59.81,79.93-69.39,79-79.23,91-83h0L234.23-68.43c10.29-.12,21.19,3.79,30.29-4.47a14.38,14.38,0,0,1,1.4-4.62c1.57-.29,3.15-.64,4.69-1.07L296-104.81c.36-11.45,8.78-16,17.3-20.46q-.13-5-.32-9.94c-8.95-1.31-17.51-.86-24.69,5.6l-33.4,20.06c-7,5-14,7.08-21.35.77l-21.21-.77c-1.61,3.16-3.36,3.18-5.21.2l-5.24-1.39c-2.18-1.18-4.35-2.37-6.53-3.54a3.47,3.47,0,0,1-3.81-1.45c-2.17-1.08-4.32-2.16-6.49-3.26q-15.18-1.12-30.36-2.28c-16-9-32-20.08-48.25-.34l-5.57,1.38c-1.51,4.48-3.15,3.77-4.87.12a44,44,0,0,1-5.26,0c-1.86,1.5-3.71,3-5.57,4.53l-.46.44Q76.66-104.75,68.63-94.4a41,41,0,0,1-4.39.62L54.31-82.57C56.5-72,47.55-65.28,45.25-56.25Z" transform="translate(430.91 216.42)"/><path class="cls-2" d="M90.91,360c33.54,7.16,67.06,14.87,98.84-6.46,2.61-1.76,7.11-2.6,10-1.68,25.28,7.95,33.44-13.83,46.86-26.46,2.89-2.72,2.84-9,1.16-8.72-23.59,3.87-11-19.37-20-27.17C217.35,301.27,208,313.85,191.2,298c-4.44-4.19-14.57-.77-18.62,5.69-6.81,10.89-18.28,11.85-28.49,15.7-5.31,5.42-11.36,3.55-17.4,1.79h0L113,319.73a3.26,3.26,0,0,0-1.85,3.52c-19.07,5.07-12,24.77-20.13,36Z" transform="translate(430.91 216.42)"/><path class="cls-2" d="M403.56,286.67c-7.41-10-15.64,4.18-23.42,7.94-15.12,7.31-30.73,21-47.35,9.83-25.37-17.07-43.35-6.49-61.54,10.42,2.93,3,4.31,7.27,7.06,10.17-2.75-2.9-4.13-7.14-7.06-10.17-9.4,5.54-15,15-8.78,23.56,7,9.68,19-.3,28.69,1.48-1.64,11.38-5.9,19.32-19.72,17.4-10.5-1.46-20.69-.51-27.07,9.95-6.91,4.47-13.81,9.54-10.05,18.95,3,7.63,10.39,9.22,17.86,7.69,9.3-1.91,14.47,3.71,20.46,9.2,19.89,18.21,32.5,16.82,52.82-5.09,5.85-3.7,5.88-10.14,1.58-12.89-15.83-10.14-16.85-26.45-19.78-42.19,12.3,3.12,23.83,3,32.93-7.65,18.68-3.6,40.16-.11,52.16-20.62C404.46,308.49,409.58,294.79,403.56,286.67Z" transform="translate(430.91 216.42)"/><path class="cls-2" d="M90.91,360c-6.88,12.82-13.28,26.14-30.25,28.1l-7.25-5.45c-.81,1.86-1.63,3.72-2.44,5.57l-1,.51c-5.39,3.05-10.76,5.12-16-.3q-.81-5.07-1.6-10.12c.28-4-1.83-6.25-5.46-7.39l-4.13-3.08-6.47-5-10-6.9c-4.1-6.34-10.38-1.88-15.5-3.13-.08,3.19-.17,6.38-.25,9.57-10,16-19.59,2.91-28.43-1.12C-71.49,346-106.21,356-140,358c-36.86,2.2-69.38-9.86-102.85-20.65-12.26-3.94-23.71-1.05-35.49,3.12-21.08,7.45-81.45-6.42-93.08-20.54,2.79-3.33,6.38-8-.14-9.66-13.64-3.51-27.69-6.36-41.53-.09l-13-7.22-4-14.06,6.08-6.29,5.74-4.11c14.32,5.2,12.63-12.58,21.6-15h0c-1.71-28.44,14.57-22.55,31.05-16.28l20.87-1.85c23.82-.88,48.37,1.4,66.57,16.45,23.35,19.3,66.94,19.79,86.72-3.13,7-8.11,11.66-12.39,25.47-4.21,15.85,9.38,36,18,57,12.11q2.87.45,5.77.87a4.07,4.07,0,0,1,2.66,2.72,21.79,21.79,0,0,0,2.23,4.64c-5.21,13.87,4.83,18.87,14.13,24.31,12.32,9,26.07,5.25,39,3.26,15.57-2.37,25.41,2.47,30,17.62l10.33-4.74c25.56.64,50.81-21.76,77.1,1,10.4,9,17.57,15.28,6,26.95-5,5-12.69,8.89-6.57,16.81,5.86,7.55,12.81-1.15,19.38-.81Z" transform="translate(430.91 216.42)"/><path class="cls-2" d="M45.25-56.25c-2.88-16.76-22.8-18.08-29-31.81C-9.81-94.35.07-114.27.18-130.47l.1.09c-14.45-14.18-24.15-29.09-7.42-48.08q-.66-6.4-1.33-12.82l-2-9.5c-2.84-.66-3.78-2.4-2.89-5.16a9,9,0,0,1-2-4.14c-3.52-.44-7-.87-10.55-1.32-16.71,20.53-30.56.31-45.57-3.2l-15.32,0,0,1.41-.61-1.26a3,3,0,0,1-1.88-1.93q-5.46,3.21-10.93,6.41c-.06,12.28.61,24.62-.45,36.81-.82,9.43-2.21,19.92-15.64,20.32l-10.41.18-4.92,6.57c-2.33,12.26,13.65,29.51-9.81,36-3.51,8.42-10.59,13.25-17.93,17.83C-189.73-66.48-192.2-66.36-210.4-90c-20.5-12.78-39.78-16.1-57.75,5.11a16.53,16.53,0,0,1-19.25,4.18c-5.05,1.07-11.72.45-14.89,3.47-14.58,14-27.13,8.33-39.77-2.35-17.92-11.48-24.48-31.69-36.63-47.61l-1.09-1L-391.13-130c-.07,1.3-.14,2.61-.19,3.91l-5.82.22-4.94,2s-1.54,1.07-1.54,1.1a9.23,9.23,0,0,1,.19,1c-3.94,9.55-7.63,19.21-11.88,28.62-9.26,20.5-30.95,41.22,2,60.43,1.74,1,3.19,5,2.64,7.06C-417.4-1.1-400.37,8.51-383.52,18.81c9.83,6,16.79,11.49,11.73,27.2-11.55,35.85,9.57,59.63,46.19,56.45,8-.7,20.19-7,23.64,3.84,9.59,30,29.74,16.56,46.86,12.6,8.34-1.92,18.25-10.17,24.36-3.28,10.58,11.94,23.48,10.6,36.14,11.36,14.53.86,24.31,5.41,22.21,21.93-1.94,15.4,5.35,16.49,17,12,8.16-3.17,16.82-5.4,22.91-12.41,8.07,1.38,14.19-3.94,22.85-7.39,0,5.45,0,9.65,0,13.84,0,7.05-.57,15.72,6.69,18.54,8.87,3.43,14.5-5.24,19.1-10.77,15.4-18.51,9.22-36.32-3.85-53.24A28.94,28.94,0,0,1-89,112.37a35,35,0,0,1-2.35,4,36.16,36.16,0,0,1-2.7,3.53,37.8,37.8,0,0,0,2.7-3.53,38.27,38.27,0,0,0,2.35-4,31.27,31.27,0,0,0,1.35-2.92c13.78-14.12,28.33-28,13.44-49.9-4.69-6.89-.83-13.08,5-15.11C-28.87,30.4-16.35.23-19-39.24l-.42.49.4-.82c0,.11,0,.22,0,.33,1.28-1.47,2.55-3,3.83-4.43,11.84-28.31,35-10.3,53.09-13L45.3-56a.52.52,0,0,1,0-.11Z" transform="translate(430.91 216.42)"/></g></g></g></g></svg>