<svg xmlns="http://www.w3.org/2000/svg" xmlns:xlink="http://www.w3.org/1999/xlink" viewBox="0 0 1920 845.24"><defs><style>.cls-1{fill:none;}.cls-2{fill:#fff;}.cls-3{fill:#d1ecf8;}.cls-4{clip-path:url(#clip-path);}.cls-5{fill:#1097a0;}.cls-6{opacity:0.1;}.cls-7{clip-path:url(#clip-path-2);}</style><clipPath id="clip-path" transform="translate(0.21 288.33)"><path class="cls-1" d="M0,556.75l2.43.17c10-17.38,19.44-35.17,30-52,17.72-28.25,39.56-47,72.86-36.2,4.47,1.46,9.29,1.66,14,2.25,18,2.24,28.72-6.21,32.57-26,1.19-6.08,1.14-12.46,1.91-18.66,4.08-32.51,0-65.63,6.45-98.07s22.78-53.42,51.39-61.69c24.88-7.2,49.76-14.43,74.8-20.86,34.8-9,62.68-29.51,85.19-60.55Q404.11,140.28,434,93.3C454,62,477.27,34.07,504.5,6.66c-15.3-.81-27.81,2.62-40.64.7C441,3.94,417.89,2,394.84.28s-44,4.7-61.24,23.63c-8.25,9.05-17.51,17-26.76,24.83-11.41,9.64-24.26,14.12-38.67,10.86-11-2.49-21.16-7.6-31-13.57-22.31-13.5-46.07-20.66-71.5-20-48.89,1.28-97.22,8.6-145.42,17.21C0,46.87,0,47,0,70.25q0,237,0,473.92Z"/></clipPath><clipPath id="clip-path-2" transform="translate(0.21 288.33)"><path id="SVGID" class="cls-2" d="M0,556.75l2.43.17c10-17.38,19.44-35.17,30-52,17.72-28.25,39.56-47,72.86-36.2,4.47,1.46,9.29,1.66,14,2.25,18,2.24,28.72-6.21,32.57-26,1.19-6.08,1.14-12.46,1.91-18.66,4.08-32.51,0-65.63,6.45-98.07s22.78-53.42,51.39-61.69c24.88-7.2,49.76-14.43,74.8-20.86,34.8-9,62.68-29.51,85.19-60.55Q404.11,140.28,434,93.3C454,62,477.27,34.07,504.5,6.66c-15.3-.81-27.81,2.62-40.64.7C441,3.94,417.89,2,394.84.28s-44,4.7-61.24,23.63c-8.25,9.05-17.51,17-26.76,24.83-11.41,9.64-24.26,14.12-38.67,10.86-11-2.49-21.16-7.6-31-13.57-22.31-13.5-46.07-20.66-71.5-20-48.89,1.28-97.22,8.6-145.42,17.21C0,46.87,0,47,0,70.25q0,237,0,473.92Z"/></clipPath></defs><g id="Layer_2" data-name="Layer 2"><g id="Layer_1-2" data-name="Layer 1"><path class="cls-3" d="M0,556.75l2.43.17c10-17.38,19.44-35.17,30-52,17.72-28.25,39.56-47,72.86-36.2,4.47,1.46,9.29,1.66,14,2.25,18,2.24,28.72-6.21,32.57-26,1.19-6.08,1.14-12.46,1.91-18.66,4.08-32.51,0-65.63,6.45-98.07s22.78-53.42,51.39-61.69c24.88-7.2,49.76-14.43,74.8-20.86,34.8-9,62.68-29.51,85.19-60.55Q404.11,140.28,434,93.3C454,62,477.27,34.07,504.5,6.66c-15.3-.81-27.81,2.62-40.64.7C441,3.94,417.89,2,394.84.28s-44,4.7-61.24,23.63c-8.25,9.05-17.51,17-26.76,24.83-11.41,9.64-24.26,14.12-38.67,10.86-11-2.49-21.16-7.6-31-13.57-22.31-13.5-46.07-20.66-71.5-20-48.89,1.28-97.22,8.6-145.42,17.21C0,46.87,0,47,0,70.25q0,237,0,473.92Z" transform="translate(0.21 288.33)"/><g class="cls-4"><path class="cls-5" d="M514.43,119.59c-2.3,3.53-7.26,7.88-6.46,10.48,10.28,33.52,0,67.88,4.79,101.53L507,235.71c-2,2.09-4,4.2-6.07,6.28l-14.76-1c-1.71-3.91-5-5.42-9-5.73-2.91-3.36-5.82-3.33-8.71,0l-14.18.68c-8.33-2.62-12.6,10.07-21.39,5.65l-.19-.23c-1.6-1.9-3.2-3.8-4.8-5.72L423,229.31l-4.17-4.67c-11.88-12.62-26.9-20.29-42.53-27l-.16.06-6.58-4.27s0,0,0,0c-1.77-1.3-3.55-2.6-5.31-3.91a3.55,3.55,0,0,0-3.62-2.09c-19.75-8.07-17.69-35.16-37.64-43a3.21,3.21,0,0,1,.16.3c-2.19-1.47-4.39-2.92-6.59-4.38-1.77-1.29-3.57-2.56-5.35-3.83L294,119.22l-3.47-6.7a3.31,3.31,0,0,0-1.58-3.86c.44-3.26-1.23-4.83-4.25-5.36,0,0,0,0,0,0l-5.37-4.63a2,2,0,0,0-2.65-1.51l-7.75-5c-.82-6.85,4.06-14-1.26-20.63l-3.56-5.6c-.06-.11-.13-.21-.19-.33l0,.07c-2-3.2-4-6.42-6.07-9.63l-.11-.24c-1.48-2.1-2.95-4.21-4.42-6.31l.29.27c-5.5-11.67-11.33-23.12-21.12-31.93-.88-3.15-2.87-4.75-6.25-4.33l-6.5-5.69c.59-4.22,1.8-8.62-3-11.41,0,0,0-.1,0-.1-4.42-8.71-12.77-9.91-21.16-11l.24.31-6.59-3.38c-16.43-10.23-13-28-16.5-43.2-.64-12.84-5.28-22.24-19.87-23.1-28.29-8.1-39.06-33.62-54.38-54.65-16.71-22.94-45-31.09-64.74-50.86-10.61-10.65-20.3-21.11-28.15-33.81-9-14.63-8.35-26,8.35-33.94,5.57-10.34,12.44-13.07,23.57-6.61,23.78,13.81,49.71,17.94,77,21.79,14.21,2,37.5,17.57,36.67,43.06q6,5.1,12,10.18l26.74,7.61c28.61-13.27,40.23-5.86,40,25.48,11.8,16.12,22,34.28,45.67,35,.82,0,2.15.41,2.37,1,11,27.12,49.7,24.69,58.08,54.73,2.75,9.84,12.78,7.26,19.78,10,13,5,18.94,23.83,40.59,14.15,8.89-4,15,16.11,7.45,26.72-16,22.6-3.73,30.79,16.18,35.49,27.27,6.43,22.81,36.93,39.73,51l11.43,15.72c14.26-9.91,21.45-2.53,26.23,10.66-2.18,2.69-4.37,5.46-6.92,7.34,2.56-1.87,4.74-4.64,6.93-7.32a29.93,29.93,0,0,1,10.69,6.54,20.56,20.56,0,0,1,5,7.9c.2.56.38,1.14.53,1.73a27.29,27.29,0,0,1,.79,4.81h0Z" transform="translate(0.21 288.33)"/><path class="cls-5" d="M1917.12,301.31c2.91-16.05,1.36-32-.77-48-.95-17.28,5.4-35.36-5.7-51.52l-.59-1.46c-9.37-12.28-2-21.85,5.1-31.46q-.2-8.25-.4-16.52a17.72,17.72,0,0,1-1.52-3.21c-.09-.32.82-.94,1.26-1.42,1.65-11.44,2.21-22.84-1.64-34-14.64-34.65.16-72.85-13-107.69a1.68,1.68,0,0,0-2.59-.91c-2.39-7.28-7.31-10.45-13.48-10.45a22.66,22.66,0,0,0-4.91.59c-16.74,3.87-31.77-1-46.62-7.6h0c-5.22-8-14.13-7.28-21.89-9.3a24.8,24.8,0,0,0,1.39,2.4,22.93,22.93,0,0,1-1.4-2.4l-.62-.61h0c-4.79-12.75-16.12-10.18-26-11.06h0l-8.09-4.9-31.35,4.57a2.08,2.08,0,0,0-2.93,1.1c-.07.19-.12.41-.18.62,0-.21.11-.43.17-.62-19.82,5.4-37.28-5.14-55.47-5.76-1.23-11.13,18-14.34,5.83-26.1s-24.14-24.81-42.71-17.38c-11.22,4.47-19.84,13.22-5,24.95,6.09,4.81,13.17,9.57,8.67,19.3-11.14,7.37-13.9,13.09.56,21.22,13.13,7.37,25.84,7.88,39.61,5.29,6.15,12.81-8.41,15.67-11.52,24,0,0-.18.3-.18.3,2.3,8.38,3.2,16.06-8.7,17.28-.53-1.61-1.1-3.22-1.73-4.79-10.31,4.43-12.28,20.41-26.67,19.23-16.58-8.48-16.62-29.29-29.9-40.28-.63,5.75-3,7.9-8,3.6C1593-3,1590.65-18,1592.23-34.25c1-10.16,4.87-20.24.58-30.49q-2.44-5.82-4.87-11.64c-11.42-6.67-27.86,5.33-36.93-10-2-1.54-4-3.09-6-4.63-14-1.85-28-2.85-41.94.39a5.26,5.26,0,0,1-3.41,1.56l-7.49,2.61c-7.88,6-19.64,2.74-26.52,11.12-1.4.2-2.8.42-4.19.66-18.45,10-26.71,24.63-21.06,45.69,13.87,3.59,35-7.27,39.92,12.72,2.93,11.94,10.26,16.61,16.49,24,14.43-11.7,33.18,2,47.89-8.12-1.8,13.71-9.34,19.19-23,16.55-6.44-1.25-13.55-4.67-18.49,3.27l-5.87.16c-9,9.69-14,17.12,3.61,24.69,10.66,4.59,27.72,8.42,19.52,29.42-2.74,7,6.37,16.35,14.56,19.85s12.27-3.9,16.2-9.73l15.66-12.19c4.64,3.42,10,10.27,13.92,10.27a2.9,2.9,0,0,0,.66-.07c17.7-3.94,27-.27,33.84,18.55,2.33,6.46,17,16,31.2,15.33,50.74-2.44,89.93,27,131.69,49.25,4.66,2.48,6,5.16,3.36,10.29-5.58,10.77,2.67,17.7,7.49,25.86,12.27,20.81,31.73,42.18,28.77,65.27-3.54,27.6,10.08,21.63,22.87,18.1,11.83-3.28,20.46-1.81,28.56,6.63,7.93,8.27,15.51,16.92,23.95,24.63,5.07,4.62,8.13,15.84,18.59,8.53C1920.1,318.48,1922.05,310.57,1917.12,301.31ZM1569.37,52.13c.19-.53.35-1.08.5-1.65C1569.72,51.05,1569.56,51.61,1569.37,52.13ZM1672,34.29c0,.42,0,.84-.07,1.26h0C1672,35.13,1672,34.71,1672,34.29Zm-.08,1.27c0,2.11.07,4.21.1,6.33C1667.72,39.84,1667.75,37.73,1671.92,35.56Zm35.62-11.47c0-.19-.07-.39-.11-.57,0,.18.08.38.12.58s.06.32.1.47C1707.61,24.41,1707.57,24.26,1707.54,24.09ZM1832-12.33l.56.55-.57-.54-1.39.19ZM1859.39,267l-.81.28c-.95.35-1.93.73-2.94,1.12-1.32.51-2.69,1-4.05,1.51,1.37-.48,2.73-1,4.05-1.51l2.94-1.13q.4-.15.81-.27a16.16,16.16,0,0,1,8.13-.62A16.38,16.38,0,0,0,1859.39,267Zm8.68-.5a14,14,0,0,1,1.92.54A15.59,15.59,0,0,0,1868.07,266.53ZM1909.44,241a15.26,15.26,0,0,0-1.28-1.92,14.24,14.24,0,0,1,1.28,1.92c.4.68.76,1.39,1.11,2.13Q1910,242,1909.44,241Z" transform="translate(0.21 288.33)"/><path class="cls-5" d="M1269-207.12c-9-1.31-17.51-.86-24.7,5.6l-33.39,20.06c-7,5-14,7.08-21.35.77l-21.21-.77c-1.62,3.16-3.36,3.18-5.21.2l-5.25-1.39c-2.18-1.18-4.34-2.37-6.52-3.54a3.47,3.47,0,0,1-3.81-1.45c-2.17-1.08-4.33-2.16-6.49-3.26l-30.36-2.28c-16-9-32-20.08-48.25-.34l-5.58,1.38c-1.5,4.48-3.14,3.77-4.86.12a44.13,44.13,0,0,1-5.27.05c-1.86,1.5-3.71,3-5.57,4.53l-.46.44-16.09,20.69a40.49,40.49,0,0,1-4.38.62l-9.93,11.21c2.19,10.56-6.77,17.29-9.07,26.32-2.87-16.76-22.79-18.08-29-31.81-26-6.29-16.17-26.21-16.07-42.41l.11.09c-14.45-14.18-24.15-29.09-7.43-48.08q-.66-6.4-1.33-12.82l-2-9.5c-2.84-.66-3.78-2.4-2.89-5.16a9.09,9.09,0,0,1-2-4.14l-10.55-1.32c-16.7,20.53-30.55.31-45.57-3.2l-15.31,0,0,1.41-.62-1.26a3,3,0,0,1-1.88-1.93c-3.64,2.14-7.27,4.28-10.92,6.41-.07,12.28.61,24.62-.45,36.81-.82,9.43-2.21,19.92-15.64,20.32l-10.41.18L824.28-218c-2.33,12.26,13.66,29.5-9.8,36-3.52,8.42-10.59,13.25-17.93,17.83-30.26,25.82-32.73,25.94-50.93,2.25-20.51-12.78-39.78-16.1-57.76,5.11a16.52,16.52,0,0,1-19.24,4.18c-5,1.07-11.72.45-14.89,3.47-14.59,14-27.13,8.33-39.77-2.35C596-163,589.47-183.24,577.33-199.16l-1.09-1L564.89-202c-.07,1.3-.14,2.61-.2,3.91l-5.81.22-4.94,2s-1.54,1.07-1.54,1.1a9.23,9.23,0,0,1,.19,1c-4,9.55-7.64,19.21-11.89,28.62-9.25,20.5-30.94,41.22,2,60.43,1.73,1,3.19,5,2.63,7.06C538.62-73,555.65-63.4,572.49-53.1c9.84,6,16.8,11.49,11.74,27.2C572.68,10,593.8,33.73,630.41,30.55c8-.7,20.19-7,23.65,3.84,9.59,30,29.74,16.56,46.86,12.6,8.34-1.92,18.25-10.17,24.36-3.28,10.58,11.94,23.48,10.6,36.13,11.36,14.54.86,24.31,5.41,22.22,21.93-1.94,15.4,5.34,16.49,17,12,8.16-3.17,16.81-5.4,22.91-12.41,8.06,1.38,14.19-3.94,22.84-7.39,0,5.45,0,9.65,0,13.84,0,7-.56,15.72,6.7,18.54,8.86,3.43,14.49-5.24,19.09-10.77,15.41-18.51,9.23-36.32-3.84-53.24-.42,1-.87,2-1.36,2.92a35,35,0,0,1-2.35,4,39.61,39.61,0,0,1-2.7,3.53,41.59,41.59,0,0,0,2.7-3.53,38.27,38.27,0,0,0,2.35-4c.48-.93.93-1.9,1.35-2.92,13.78-14.12,28.33-28,13.43-49.9-4.68-6.89-.82-13.08,5-15.11,40.39-14,52.9-44.21,50.22-83.68l-.41.49.39-.82c0,.11,0,.22,0,.33l3.84-4.43c11.84-28.31,35-10.3,53.08-13,2.49.2,5,.42,7.41.63a.52.52,0,0,1,0-.11l5.93,5.4c-16.51,31.75-20.28,68-35.16,100.29h0c-14.21,9.3-10.61,23.38-9.84,36.7,22.44-10,30.17.51,30.25,21.68,6.6,13.24,4.16,25.51-4,37.15Q985.06,83.6,981.66,94c.46,2,.93,4.08,1.39,6.12l5.23,4.72.16.11c2,1.55,4.09,3.11,6.15,4.65l-.22-.32c17.59-10.27,40.25,7.84,56.45-10.1.22-3,.43-6,.64-8.93a30.26,30.26,0,0,1-4.3-1.25c-1.09-8.26-8-16.4-8-24.68,0-4.28,1.85-8.59,7.31-13,.2-3.34.43-6.68.63-10q.18-13.24.38-26.48Q1046.74,4,1046-6.76c-1.15,0-2.28,0-3.42.07,1.14,0,2.27-.06,3.42-.08q-2.34-7.51-4.7-15h0c30.28-.56,30.28-.56,15.2,36.49q5.77,10.56,11.57,21.12c1.71.39,3.42.84,5.11,1.37,22.52,5.06,8.76,18.63,6.91,29.42l9.05,11.8,9.64.73,11-.58C1111,85,1114,88.37,1119,88.37a16.93,16.93,0,0,0,5.63-1.12c14-5.06,10.71,5.81,11.75,12.7-.84,13.73,6.92,12.62,16,9.25l5.54-4.35,5.58-4.93.21-.21,4.82-5.7-.13.1c3.26-9-5.45-22.65,10.15-26.91q-3-10.59-6-21.2c1.53-1.6,3.08-3.19,4.62-4.79l-3.15-10.59-21,2.91-12.23-17.17-.19.27c-12.58-.42-16.27-6.73-12-18.25,6-3.36,10.25-7.66,8.3-15.33-5.35-1.75-8.56-5.66-10.72-10.63q-4.42-5-8.84-9.94a71.06,71.06,0,0,1-6,4.56c2.06-1.49,4.14-3,6-4.57-17-23.43-13.74-28.85,20.18-34.21q-.08,6-.13,12.11l5,1.89a3.79,3.79,0,0,1,4.53,1.52l6.24-1.33,4.56-2.65a1.2,1.2,0,0,0-.13.21c6.57-5.07,14-4.57,21.61-3.58l5.39-1.23q5-5.43,10.11-10.86c.18-3.42.37-6.84.55-10.26l-2.59-.22-2.52.65h0L1185.29-88c-6.75.77-6.12-4.19-6.5-8.37,1.67-.52,3.37-1,5.08-1.34,1.08-3.21,2.15-6.42,3.24-9.64q-3.9-5.25-7.79-10.52c-5.27-.38-10.54-.74-15.82-1.11-16.53,7.28-33.5,13.8-51.79,12.74-17-1-25.33,13.13-38.11,19.36-3.64-7.13-3.72-18.5-16.94-14.15-4.79-11.74-21.68-15-21.09-30.69.38-9.58-.55-19.42,11.4-23.16h0l143.28,14.53c10.29-.12,21.19,3.79,30.28-4.47a14.65,14.65,0,0,1,1.41-4.62c1.57-.29,3.14-.64,4.69-1.07l25.4-26.22c.36-11.45,8.78-16,17.3-20.46Q1269.18-202.16,1269-207.12ZM554.7-168.61c.27-.48.55-1,.83-1.44-.28.48-.55,1-.82,1.44-.51.9-1,1.8-1.53,2.69C553.68-166.81,554.2-167.71,554.7-168.61ZM554-123.54c.84.7,1.74,1.4,2.71,2.11C555.76-122.13,554.86-122.84,554-123.54Zm42,63a20.13,20.13,0,0,1,1.68,2.24A22.55,22.55,0,0,0,596-60.57Zm4.72,17.9c-.1.93-.26,1.89-.44,2.9.18-1,.33-2,.44-2.9.73-6.4-.29-11.06-2.53-14.85C600.43-53.74,601.46-49.08,600.72-42.67Zm17.75,56.05a37.11,37.11,0,0,1-9.09-3.54,37.93,37.93,0,0,0,9.09,3.54c1.14.28,2.32.55,3.55.78C620.79,13.93,619.61,13.67,618.47,13.38Zm354-35.26a11.12,11.12,0,0,1,1.6,2.12A11.78,11.78,0,0,0,972.51-21.88Zm24,16.76a4.52,4.52,0,0,1,2-.26A4.85,4.85,0,0,0,996.53-5.12Zm156.66,41.65a12.54,12.54,0,0,0-.14-2.32A11.69,11.69,0,0,1,1153.19,36.53Zm15.37-133c-1.34-.11-2.68-.19-4-.18C1165.88-96.7,1167.22-96.62,1168.56-96.51Zm-15.47,8.36c-.23.74-.43,1.54-.61,2.4h0A23.24,23.24,0,0,1,1153.09-88.15Zm-76.88,20.41a3.7,3.7,0,0,1-.62.54A5.58,5.58,0,0,0,1076.21-67.74Zm-34.86,35.63c2.89-.7,5.77-1.42,8.66-2.14-2.89.72-5.77,1.45-8.66,2.15Z" transform="translate(0.21 288.33)"/><path class="cls-5" d="M1202.67,253.52c-13.43,12.63-21.58,34.41-46.86,26.46a13.3,13.3,0,0,0-10,1.68c-31.78,21.33-65.3,13.62-98.84,6.46-6.88,12.82-13.28,26.14-30.25,28.1l-7.25-5.45q-1.23,2.79-2.44,5.57l-1,.51c-5.39,3-10.77,5.12-16-.3-.54-3.38-1.07-6.75-1.61-10.12.29-4-1.83-6.25-5.45-7.39L978.83,296l-6.48-5-10-6.9c-4.1-6.34-10.38-1.88-15.5-3.13q-.12,4.78-.26,9.57c-10,16-19.58,2.91-28.42-1.13-33.67-15.36-68.38-5.33-102.2-3.31-36.85,2.2-69.38-9.86-102.85-20.65-12.25-3.94-23.7-1.05-35.49,3.12-21.08,7.45-81.44-6.42-93.07-20.54,2.79-3.33,6.38-8-.15-9.66-13.63-3.51-27.68-6.36-41.52-.09l-13-7.22L526,217l6.07-6.29,5.75-4.11c14.32,5.2,12.62-12.58,21.6-15h0c-1.71-28.44,14.57-22.56,31-16.28l20.88-1.85c23.82-.88,48.37,1.4,66.57,16.45,23.34,19.3,66.93,19.79,86.71-3.13,7-8.11,11.67-12.39,25.48-4.21,15.84,9.38,36,18,57,12.11q2.87.45,5.76.87a4.08,4.08,0,0,1,2.67,2.72,21.32,21.32,0,0,0,2.23,4.64c-5.21,13.87,4.82,18.87,14.13,24.31,12.31,9,26.06,5.25,39,3.26,15.56-2.37,25.41,2.47,29.95,17.62l10.32-4.74c25.57.64,50.82-21.76,77.11,1,10.4,9,17.56,15.28,6,27-5,5-12.7,8.89-6.57,16.81,5.85,7.55,12.81-1.15,19.38-.81,8.13-11.19,1-30.89,20.13-36a3.24,3.24,0,0,1,1.85-3.52l13.71,1.42h0c6,1.76,12.09,3.63,17.39-1.79,10.22-3.85,21.69-4.81,28.49-15.7,4.05-6.46,14.18-9.88,18.63-5.69,16.84,15.87,26.15,3.29,36.65-8.44,9,7.8-3.63,31,20,27.17C1205.51,244.53,1205.56,250.8,1202.67,253.52Z" transform="translate(0.21 288.33)"/><path class="cls-5" d="M1447.17,72.76c-2.88,10.86-11.53,19-20.41,12.35-33.64-25.16-73.12-22.82-111.29-27.28-11,2.23-21.78,3.5-12.29-12.88,8.43-14.55,17.91-27.63,38.65-24.82,23.22,3.12,47-1.49,70.18,5.49C1435.9,32.81,1447.56,48,1447.17,72.76Z" transform="translate(0.21 288.33)"/><path class="cls-5" d="M1359.58,214.76c-7.41-10-15.64,4.18-23.42,7.94-15.13,7.31-30.73,21-47.36,9.83-25.36-17.07-43.34-6.49-61.53,10.42,2.92,3,4.3,7.27,7,10.17-2.75-2.9-4.13-7.14-7-10.17-9.4,5.54-15,15-8.78,23.56,7,9.68,19-.3,28.68,1.48-1.63,11.38-5.89,19.32-19.72,17.4-10.49-1.46-20.68-.51-27.06,9.95-6.91,4.47-13.81,9.54-10.05,19,3,7.63,10.38,9.22,17.86,7.69,9.3-1.91,14.47,3.71,20.46,9.2,19.89,18.21,32.5,16.82,52.81-5.09,5.86-3.7,5.89-10.14,1.59-12.89-15.84-10.14-16.85-26.45-19.78-42.19,12.29,3.12,23.83,3,32.92-7.65,18.69-3.6,40.17-.11,52.16-20.62C1360.48,236.58,1365.59,222.88,1359.58,214.76Z" transform="translate(0.21 288.33)"/><path class="cls-5" d="M1373.1-183.79c17.11,1.82,33.55-18.07,42.26-13.44,15.19,8.09,29,14.55,46,14,3.28-.11,6.48-2.49,9.72-3.83q0-9.18,0-18.33c-11.69-9.68-22.15-29.81-37.06-2.09-2.65,4.92-12.88,1.37-18.92-3.7-20.52-17.23-35.32,4.41-52.6,8.69-1.51.38-2.2,8.17-1.55,12.23C1362-183.5,1367.56-184.38,1373.1-183.79Z" transform="translate(0.21 288.33)"/><path class="cls-5" d="M1178.78,67.12l-.27.08,0,.18Z" transform="translate(0.21 288.33)"/><path class="cls-5" d="M1337.94-127.94l0-.09c-11.68-16-10-32.43-2.4-49.66,2.33-5.27-1.7-9.84-7.73-11.31-4.76,5.91-11.34,10.48-17.88,5.6-7.22-5.39-1.61-14.77-3-22.24h0a36.5,36.5,0,0,0,20.68-7.66l0,0,5-6.43c.45-3.14.91-6.29,1.36-9.43a9.13,9.13,0,0,1-1.23-4.9l-10.38-2.17a5.81,5.81,0,0,1-4.48,2.12l-5.9,5.31-5.21,5.1c-.31,1.79-.61,3.58-.93,5.38h0l-2.37,0-2.29-.64c-8.94,6.13-18.76,11.46-21.15,23.48-3.46,1.47-6.74,1.75-9.63-.59,3.18,7.82-.83,14-5.49,20-6.33,27.1,8.88,49.72,15.44,74.13l-1,10.14c-9.88,3-18.47,7.62-13.51,20,4.67,11.68,12.77,18.41,26.3,12.34-1.57,10-8.35,16.72-15,23.57-3.53,3.63-8.1,7.29-5.49,13.3,2.54,5.86,8.25,5,13.36,5.53,25.43,2.52,32.72-8.56,24.21-37l.31-.16c-.09-.21-.19-.39-.28-.59,7.27-4.78,15.39-8.81,16.65-18.91-5.83-15.14-21.78-25.87-19.42-44.58,10.89.35,24.73,19.25,31.68-5.05A3.62,3.62,0,0,1,1337.94-127.94Zm-36.37,68.37c-.15.12-.29.24-.43.34l.06-.59c.14,0,.27,0,.4,0Z" transform="translate(0.21 288.33)"/><path class="cls-5" d="M1269.76-197.42l-.42.39a9.05,9.05,0,0,0,1,.95C1270.19-196.52,1270-197,1269.76-197.42Z" transform="translate(0.21 288.33)"/><path class="cls-5" d="M1436.05,257.89c.66.25,1.34.48,2,.68-.69-.2-1.37-.43-2-.68l-28.19,21.53c-8.43,4.95-16.73,10.38-15.83,21.72,1.7,21.74-6.24,38.71-23.21,52.22-4.24,3.37-11.91,8.4-6.26,14.74,6.31,7.09,13.11.55,18.15-3.82,11.83-10.28,21.35-25.54,34.93-31,25.79-10.38,37.1-29.93,45.64-53.38h0l4.26-5.49c26.94-7.34,19.91-35.55,33.4-51.86C1480.18,239.67,1450.9,236.29,1436.05,257.89Z" transform="translate(0.21 288.33)"/><path class="cls-5" d="M538.1,88c.2.56.37,1.14.53,1.74a26.16,26.16,0,0,1,.78,4.8h0c12.46,10.62,22.88,10,30.64-5.53h0c3.7-12.33,9.48-24.72-9.71-30.6-4.88-1.49-9.1-8.23-11.74-13.5-16.81-33.62-23.34-34.5-51.05-5.91h0L484.71,47.2q5.73,7.86,11.44,15.73c14.25-9.91,21.44-2.54,26.22,10.66a0,0,0,0,1,0,0,30.08,30.08,0,0,1,10.7,6.52A20.68,20.68,0,0,1,538.1,88Zm9.24-10.27a12.37,12.37,0,0,0,4.74,5.69,12.31,12.31,0,0,1-4.74-5.69,44.68,44.68,0,0,0-11.83-17.39A44.68,44.68,0,0,1,547.34,77.77Z" transform="translate(0.21 288.33)"/><path class="cls-5" d="M1260.85,7.53c-11.27-3.19-19.75,5.3-22.17,16.42-2,9.1-11.19,6.88-15.16,12.17-10.89,7.92-21.11,20.33-7.48,29.31,12,7.91,24.79,30.87,44.5,12.43,11.17-10.44,30.08-20.67,11.83-40.54C1275.61,24.58,1275.28,11.61,1260.85,7.53Z" transform="translate(0.21 288.33)"/><path class="cls-5" d="M1417.41-7.13l-.11.09-.1.11Z" transform="translate(0.21 288.33)"/><path class="cls-5" d="M1402.83-27.86c-5.32,2.44-11.3,3.46-17,5.13l-.18.1-10.5,10.7q.16,2.89.35,5.77l5.92,4.57a15.3,15.3,0,0,1,4.66.55l5.29-.27,19.94-.64,6-5.09,5.25-5.52-.13,0C1425-29.37,1419.63-35.56,1402.83-27.86Z" transform="translate(0.21 288.33)"/><path class="cls-5" d="M1621.75,138.34c-10.82-3.21-14.17,6.79-18.41,14.08-19,17.63,4,43.78-13,62.49-7.21,7.94-.92,16.89,7.79,16.36,7.53-.47,20.36-10.55,16.18-16.22-13.93-18.91,9.79-18.51,11.94-28.35,8.6-8.21,7.43-18.85,6.07-28.85C1631.32,150.4,1630.12,140.82,1621.75,138.34Z" transform="translate(0.21 288.33)"/><path class="cls-5" d="M141.24-73l-5.43-3.62.07.11-10.19-6.2-11.32,1.69.52-2.23-5.31.71-10,5.91-5.62,5.73c2.83,13.11,12.32,21.6,19.92,31.85,9.63,13,17.88,18.4,32.3,9.51q2.13-4.83,4.25-9.67c3.44-11.22,2.48-21.82-4.51-31.55A6.55,6.55,0,0,1,141.24-73Z" transform="translate(0.21 288.33)"/><path class="cls-5" d="M1301.6-59.79l0,.22c-.15.12-.29.24-.43.34l.06-.59C1301.34-59.82,1301.47-59.8,1301.6-59.79Z" transform="translate(0.21 288.33)"/><path class="cls-5" d="M1428.49-85.75l6.71,2.92s.61.18.61.18l14-2.72c13.17-4.35,5.06-13.59,4.84-21-9.05-1.59-18.67-1-26.55-7-6.76,5.41-13.78,10.7-9.37,21.08l6.7,4.95A3.88,3.88,0,0,1,1428.49-85.75Z" transform="translate(0.21 288.33)"/><path class="cls-5" d="M1418.25,210.2c-14.49,2.17-32.25-4-39.85,15.7,28.59,16.81,41.59,16.06,66.5-4,3.78,0,5.86-2.43,7.38-5.62,10.47-8.85,11.1-16.16-4.3-17.87C1436.63,197.19,1424.92,198.13,1418.25,210.2Z" transform="translate(0.21 288.33)"/><path class="cls-5" d="M1912.86,113.7c-14.64-34.65.16-72.85-13-107.69,6.68-.34,9.62,3.85,9.7,9.52C1910,48.28,1917.27,80.8,1912.86,113.7Z" transform="translate(0.21 288.33)"/><path class="cls-5" d="M206.58,40.22a5.36,5.36,0,0,1-2.4-4.4L200,29.35c-6.87-8.62-13.44-4.06-20,.46l-1.68,5.76c5,14.14,12.59,23.4,25.42,23-12.83.43-20.44-8.82-25.42-23-1.47,0-2.94-.08-4.4-.21l.11-.23-5.53,5.4.22-.24-5.51,6c.06,2.61.12,5.21.17,7.82l4.9,6.5,0,0c1.55,1.85,3.11,3.69,4.66,5.53l.29.4c11,10.43,24.21,7,37.05,5.69l.73-.71L215.58,67l.24-11.21-5.88-12.15Zm-2.74,18.31a28.21,28.21,0,0,0,3.09-.29A28.21,28.21,0,0,1,203.84,58.53Z" transform="translate(0.21 288.33)"/><path class="cls-5" d="M1502.69,166.94c-5.34,2.6-10.75,5-16.13,7.55.67,3.84,1.93,6.27,3.57,7.78-1.64-1.51-2.9-3.94-3.57-7.78-11.4,4.92-21.53,15-14.87,25.26,5.3,8.2,18.16-2.72,27.63-4.81,4.18-.92,7.25-6.89,10.83-10.56a13.25,13.25,0,0,0-2.46-.33,13.25,13.25,0,0,1,2.46.33c8.95-2.75,20.59-6.28,15.31-17.62C1520.77,156.71,1510.46,163.18,1502.69,166.94Zm-8.92,17.24a12,12,0,0,0,1.61.29A12,12,0,0,1,1493.77,184.18Z" transform="translate(0.21 288.33)"/><path class="cls-5" d="M1332.7-234.26a.85.85,0,0,1,0,.16l.13,0Z" transform="translate(0.21 288.33)"/><path class="cls-5" d="M1487-187.83c4.53-5.19,9.2-10.89,5.45-17.94s-10.21-3.13-15.73-1.89q-2.87,1.16-5.73,2.27,0,9.13,0,18.37C1476.9-177.3,1482.49-172.43,1487-187.83Z" transform="translate(0.21 288.33)"/><path class="cls-5" d="M1744.34-33.68l31.35-4.58C1762.75-53.77,1753.94-41,1744.34-33.68Z" transform="translate(0.21 288.33)"/></g><g class="cls-6"><path class="cls-2" d="M0,556.75l2.43.17c10-17.38,19.44-35.17,30-52,17.72-28.25,39.56-47,72.86-36.2,4.47,1.46,9.29,1.66,14,2.25,18,2.24,28.72-6.21,32.57-26,1.19-6.08,1.14-12.46,1.91-18.66,4.08-32.51,0-65.63,6.45-98.07s22.78-53.42,51.39-61.69c24.88-7.2,49.76-14.43,74.8-20.86,34.8-9,62.68-29.51,85.19-60.55Q404.11,140.28,434,93.3C454,62,477.27,34.07,504.5,6.66c-15.3-.81-27.81,2.62-40.64.7C441,3.94,417.89,2,394.84.28s-44,4.7-61.24,23.63c-8.25,9.05-17.51,17-26.76,24.83-11.41,9.64-24.26,14.12-38.67,10.86-11-2.49-21.16-7.6-31-13.57-22.31-13.5-46.07-20.66-71.5-20-48.89,1.28-97.22,8.6-145.42,17.21C0,46.87,0,47,0,70.25q0,237,0,473.92Z" transform="translate(0.21 288.33)"/><path id="SVGID-2" data-name="SVGID" class="cls-2" d="M0,556.75l2.43.17c10-17.38,19.44-35.17,30-52,17.72-28.25,39.56-47,72.86-36.2,4.47,1.46,9.29,1.66,14,2.25,18,2.24,28.72-6.21,32.57-26,1.19-6.08,1.14-12.46,1.91-18.66,4.08-32.51,0-65.63,6.45-98.07s22.78-53.42,51.39-61.69c24.88-7.2,49.76-14.43,74.8-20.86,34.8-9,62.68-29.51,85.19-60.55Q404.11,140.28,434,93.3C454,62,477.27,34.07,504.5,6.66c-15.3-.81-27.81,2.62-40.64.7C441,3.94,417.89,2,394.84.28s-44,4.7-61.24,23.63c-8.25,9.05-17.51,17-26.76,24.83-11.41,9.64-24.26,14.12-38.67,10.86-11-2.49-21.16-7.6-31-13.57-22.31-13.5-46.07-20.66-71.5-20-48.89,1.28-97.22,8.6-145.42,17.21C0,46.87,0,47,0,70.25q0,237,0,473.92Z" transform="translate(0.21 288.33)"/><g class="cls-7"><path class="cls-2" d="M514.43,119.59c-2.3,3.53-7.26,7.88-6.46,10.48,10.28,33.52,0,67.88,4.79,101.53L507,235.71c-2,2.09-4,4.2-6.07,6.28l-14.76-1c-1.71-3.91-5-5.42-9-5.73-2.91-3.36-5.82-3.33-8.71,0l-14.18.68c-8.33-2.62-12.6,10.07-21.39,5.65l-.19-.23c-1.6-1.9-3.2-3.8-4.8-5.72L423,229.31l-4.17-4.67c-11.88-12.62-26.9-20.29-42.53-27l-.16.06-6.58-4.27s0,0,0,0c-1.77-1.3-3.55-2.6-5.31-3.91a3.55,3.55,0,0,0-3.62-2.09c-19.75-8.07-17.69-35.16-37.64-43a3.21,3.21,0,0,1,.16.3c-2.19-1.47-4.39-2.92-6.59-4.38-1.77-1.29-3.57-2.56-5.35-3.83L294,119.22l-3.47-6.7a3.31,3.31,0,0,0-1.58-3.86c.44-3.26-1.23-4.83-4.25-5.36,0,0,0,0,0,0l-5.37-4.63a2,2,0,0,0-2.65-1.51l-7.75-5c-.82-6.85,4.06-14-1.26-20.63l-3.56-5.6c-.06-.11-.13-.21-.19-.33l0,.07c-2-3.2-4-6.42-6.07-9.63l-.11-.24c-1.48-2.1-2.95-4.21-4.42-6.31l.29.27c-5.5-11.67-11.33-23.12-21.12-31.93-.88-3.15-2.87-4.75-6.25-4.33l-6.5-5.69c.59-4.22,1.8-8.62-3-11.41,0,0,0-.1,0-.1-4.42-8.71-12.77-9.91-21.16-11l.24.31-6.59-3.38c-16.43-10.23-13-28-16.5-43.2-.64-12.84-5.28-22.24-19.87-23.1-28.29-8.1-39.06-33.62-54.38-54.65-16.71-22.94-45-31.09-64.74-50.86-10.61-10.65-20.3-21.11-28.15-33.81-9-14.63-8.35-26,8.35-33.94,5.57-10.34,12.44-13.07,23.57-6.61,23.78,13.81,49.71,17.94,77,21.79,14.21,2,37.5,17.57,36.67,43.06q6,5.1,12,10.18l26.74,7.61c28.61-13.27,40.23-5.86,40,25.48,11.8,16.12,22,34.28,45.67,35,.82,0,2.15.41,2.37,1,11,27.12,49.7,24.69,58.08,54.73,2.75,9.84,12.78,7.26,19.78,10,13,5,18.94,23.83,40.59,14.15,8.89-4,15,16.11,7.45,26.72-16,22.6-3.73,30.79,16.18,35.49,27.27,6.43,22.81,36.93,39.73,51l11.43,15.72c14.26-9.91,21.45-2.53,26.23,10.66-2.18,2.69-4.37,5.46-6.92,7.34,2.56-1.87,4.74-4.64,6.93-7.32a29.93,29.93,0,0,1,10.69,6.54,20.56,20.56,0,0,1,5,7.9c.2.56.38,1.14.53,1.73a27.29,27.29,0,0,1,.79,4.81h0Z" transform="translate(0.21 288.33)"/><path class="cls-2" d="M1917.12,301.31c2.91-16.05,1.36-32-.77-48-.95-17.28,5.4-35.36-5.7-51.52l-.59-1.46c-9.37-12.28-2-21.85,5.1-31.46q-.2-8.25-.4-16.52a17.72,17.72,0,0,1-1.52-3.21c-.09-.32.82-.94,1.26-1.42,1.65-11.44,2.21-22.84-1.64-34-14.64-34.65.16-72.85-13-107.69a1.68,1.68,0,0,0-2.59-.91c-2.39-7.28-7.31-10.45-13.48-10.45a22.66,22.66,0,0,0-4.91.59c-16.74,3.87-31.77-1-46.62-7.6h0c-5.22-8-14.13-7.28-21.89-9.3a24.8,24.8,0,0,0,1.39,2.4,22.93,22.93,0,0,1-1.4-2.4l-.62-.61h0c-4.79-12.75-16.12-10.18-26-11.06h0l-8.09-4.9-31.35,4.57a2.08,2.08,0,0,0-2.93,1.1c-.07.19-.12.41-.18.62,0-.21.11-.43.17-.62-19.82,5.4-37.28-5.14-55.47-5.76-1.23-11.13,18-14.34,5.83-26.1s-24.14-24.81-42.71-17.38c-11.22,4.47-19.84,13.22-5,24.95,6.09,4.81,13.17,9.57,8.67,19.3-11.14,7.37-13.9,13.09.56,21.22,13.13,7.37,25.84,7.88,39.61,5.29,6.15,12.81-8.41,15.67-11.52,24,0,0-.18.3-.18.3,2.3,8.38,3.2,16.06-8.7,17.28-.53-1.61-1.1-3.22-1.73-4.79-10.31,4.43-12.28,20.41-26.67,19.23-16.58-8.48-16.62-29.29-29.9-40.28-.63,5.75-3,7.9-8,3.6C1593-3,1590.65-18,1592.23-34.25c1-10.16,4.87-20.24.58-30.49q-2.44-5.82-4.87-11.64c-11.42-6.67-27.86,5.33-36.93-10-2-1.54-4-3.09-6-4.63-14-1.85-28-2.85-41.94.39a5.26,5.26,0,0,1-3.41,1.56l-7.49,2.61c-7.88,6-19.64,2.74-26.52,11.12-1.4.2-2.8.42-4.19.66-18.45,10-26.71,24.63-21.06,45.69,13.87,3.59,35-7.27,39.92,12.72,2.93,11.94,10.26,16.61,16.49,24,14.43-11.7,33.18,2,47.89-8.12-1.8,13.71-9.34,19.19-23,16.55-6.44-1.25-13.55-4.67-18.49,3.27l-5.87.16c-9,9.69-14,17.12,3.61,24.69,10.66,4.59,27.72,8.42,19.52,29.42-2.74,7,6.37,16.35,14.56,19.85s12.27-3.9,16.2-9.73l15.66-12.19c4.64,3.42,10,10.27,13.92,10.27a2.9,2.9,0,0,0,.66-.07c17.7-3.94,27-.27,33.84,18.55,2.33,6.46,17,16,31.2,15.33,50.74-2.44,89.93,27,131.69,49.25,4.66,2.48,6,5.16,3.36,10.29-5.58,10.77,2.67,17.7,7.49,25.86,12.27,20.81,31.73,42.18,28.77,65.27-3.54,27.6,10.08,21.63,22.87,18.1,11.83-3.28,20.46-1.81,28.56,6.63,7.93,8.27,15.51,16.92,23.95,24.63,5.07,4.62,8.13,15.84,18.59,8.53C1920.1,318.48,1922.05,310.57,1917.12,301.31ZM1569.37,52.13c.19-.53.35-1.08.5-1.65C1569.72,51.05,1569.56,51.61,1569.37,52.13ZM1672,34.29c0,.42,0,.84-.07,1.26h0C1672,35.13,1672,34.71,1672,34.29Zm-.08,1.27c0,2.11.07,4.21.1,6.33C1667.72,39.84,1667.75,37.73,1671.92,35.56Zm35.62-11.47c0-.19-.07-.39-.11-.57,0,.18.08.38.12.58s.06.32.1.47C1707.61,24.41,1707.57,24.26,1707.54,24.09ZM1832-12.33l.56.55-.57-.54-1.39.19ZM1859.39,267l-.81.28c-.95.35-1.93.73-2.94,1.12-1.32.51-2.69,1-4.05,1.51,1.37-.48,2.73-1,4.05-1.51l2.94-1.13q.4-.15.81-.27a16.16,16.16,0,0,1,8.13-.62A16.38,16.38,0,0,0,1859.39,267Zm8.68-.5a14,14,0,0,1,1.92.54A15.59,15.59,0,0,0,1868.07,266.53ZM1909.44,241a15.26,15.26,0,0,0-1.28-1.92,14.24,14.24,0,0,1,1.28,1.92c.4.68.76,1.39,1.11,2.13Q1910,242,1909.44,241Z" transform="translate(0.21 288.33)"/><path class="cls-2" d="M1269-207.12c-9-1.31-17.51-.86-24.7,5.6l-33.39,20.06c-7,5-14,7.08-21.35.77l-21.21-.77c-1.62,3.16-3.36,3.18-5.21.2l-5.25-1.39c-2.18-1.18-4.34-2.37-6.52-3.54a3.47,3.47,0,0,1-3.81-1.45c-2.17-1.08-4.33-2.16-6.49-3.26l-30.36-2.28c-16-9-32-20.08-48.25-.34l-5.58,1.38c-1.5,4.48-3.14,3.77-4.86.12a44.13,44.13,0,0,1-5.27.05c-1.86,1.5-3.71,3-5.57,4.53l-.46.44-16.09,20.69a40.49,40.49,0,0,1-4.38.62l-9.93,11.21c2.19,10.56-6.77,17.29-9.07,26.32-2.87-16.76-22.79-18.08-29-31.81-26-6.29-16.17-26.21-16.07-42.41l.11.09c-14.45-14.18-24.15-29.09-7.43-48.08q-.66-6.4-1.33-12.82l-2-9.5c-2.84-.66-3.78-2.4-2.89-5.16a9.09,9.09,0,0,1-2-4.14l-10.55-1.32c-16.7,20.53-30.55.31-45.57-3.2l-15.31,0,0,1.41-.62-1.26a3,3,0,0,1-1.88-1.93c-3.64,2.14-7.27,4.28-10.92,6.41-.07,12.28.61,24.62-.45,36.81-.82,9.43-2.21,19.92-15.64,20.32l-10.41.18L824.28-218c-2.33,12.26,13.66,29.5-9.8,36-3.52,8.42-10.59,13.25-17.93,17.83-30.26,25.82-32.73,25.94-50.93,2.25-20.51-12.78-39.78-16.1-57.76,5.11a16.52,16.52,0,0,1-19.24,4.18c-5,1.07-11.72.45-14.89,3.47-14.59,14-27.13,8.33-39.77-2.35C596-163,589.47-183.24,577.33-199.16l-1.09-1L564.89-202c-.07,1.3-.14,2.61-.2,3.91l-5.81.22-4.94,2s-1.54,1.07-1.54,1.1a9.23,9.23,0,0,1,.19,1c-4,9.55-7.64,19.21-11.89,28.62-9.25,20.5-30.94,41.22,2,60.43,1.73,1,3.19,5,2.63,7.06C538.62-73,555.65-63.4,572.49-53.1c9.84,6,16.8,11.49,11.74,27.2C572.68,10,593.8,33.73,630.41,30.55c8-.7,20.19-7,23.65,3.84,9.59,30,29.74,16.56,46.86,12.6,8.34-1.92,18.25-10.17,24.36-3.28,10.58,11.94,23.48,10.6,36.13,11.36,14.54.86,24.31,5.41,22.22,21.93-1.94,15.4,5.34,16.49,17,12,8.16-3.17,16.81-5.4,22.91-12.41,8.06,1.38,14.19-3.94,22.84-7.39,0,5.45,0,9.65,0,13.84,0,7-.56,15.72,6.7,18.54,8.86,3.43,14.49-5.24,19.09-10.77,15.41-18.51,9.23-36.32-3.84-53.24-.42,1-.87,2-1.36,2.92a35,35,0,0,1-2.35,4,39.61,39.61,0,0,1-2.7,3.53,41.59,41.59,0,0,0,2.7-3.53,38.27,38.27,0,0,0,2.35-4c.48-.93.93-1.9,1.35-2.92,13.78-14.12,28.33-28,13.43-49.9-4.68-6.89-.82-13.08,5-15.11,40.39-14,52.9-44.21,50.22-83.68l-.41.49.39-.82c0,.11,0,.22,0,.33l3.84-4.43c11.84-28.31,35-10.3,53.08-13,2.49.2,5,.42,7.41.63a.52.52,0,0,1,0-.11l5.93,5.4c-16.51,31.75-20.28,68-35.16,100.29h0c-14.21,9.3-10.61,23.38-9.84,36.7,22.44-10,30.17.51,30.25,21.68,6.6,13.24,4.16,25.51-4,37.15Q985.06,83.6,981.66,94c.46,2,.93,4.08,1.39,6.12l5.23,4.72.16.11c2,1.55,4.09,3.11,6.15,4.65l-.22-.32c17.59-10.27,40.25,7.84,56.45-10.1.22-3,.43-6,.64-8.93a30.26,30.26,0,0,1-4.3-1.25c-1.09-8.26-8-16.4-8-24.68,0-4.28,1.85-8.59,7.31-13,.2-3.34.43-6.68.63-10q.18-13.24.38-26.48Q1046.74,4,1046-6.76c-1.15,0-2.28,0-3.42.07,1.14,0,2.27-.06,3.42-.08q-2.34-7.51-4.7-15h0c30.28-.56,30.28-.56,15.2,36.49q5.77,10.56,11.57,21.12c1.71.39,3.42.84,5.11,1.37,22.52,5.06,8.76,18.63,6.91,29.42l9.05,11.8,9.64.73,11-.58C1111,85,1114,88.37,1119,88.37a16.93,16.93,0,0,0,5.63-1.12c14-5.06,10.71,5.81,11.75,12.7-.84,13.73,6.92,12.62,16,9.25l5.54-4.35,5.58-4.93.21-.21,4.82-5.7-.13.1c3.26-9-5.45-22.65,10.15-26.91q-3-10.59-6-21.2c1.53-1.6,3.08-3.19,4.62-4.79l-3.15-10.59-21,2.91-12.23-17.17-.19.27c-12.58-.42-16.27-6.73-12-18.25,6-3.36,10.25-7.66,8.3-15.33-5.35-1.75-8.56-5.66-10.72-10.63q-4.42-5-8.84-9.94a71.06,71.06,0,0,1-6,4.56c2.06-1.49,4.14-3,6-4.57-17-23.43-13.74-28.85,20.18-34.21q-.08,6-.13,12.11l5,1.89a3.79,3.79,0,0,1,4.53,1.52l6.24-1.33,4.56-2.65a1.2,1.2,0,0,0-.13.21c6.57-5.07,14-4.57,21.61-3.58l5.39-1.23q5-5.43,10.11-10.86c.18-3.42.37-6.84.55-10.26l-2.59-.22-2.52.65h0L1185.29-88c-6.75.77-6.12-4.19-6.5-8.37,1.67-.52,3.37-1,5.08-1.34,1.08-3.21,2.15-6.42,3.24-9.64q-3.9-5.25-7.79-10.52c-5.27-.38-10.54-.74-15.82-1.11-16.53,7.28-33.5,13.8-51.79,12.74-17-1-25.33,13.13-38.11,19.36-3.64-7.13-3.72-18.5-16.94-14.15-4.79-11.74-21.68-15-21.09-30.69.38-9.58-.55-19.42,11.4-23.16h0l143.28,14.53c10.29-.12,21.19,3.79,30.28-4.47a14.65,14.65,0,0,1,1.41-4.62c1.57-.29,3.14-.64,4.69-1.07l25.4-26.22c.36-11.45,8.78-16,17.3-20.46Q1269.18-202.16,1269-207.12ZM554.7-168.61c.27-.48.55-1,.83-1.44-.28.48-.55,1-.82,1.44-.51.9-1,1.8-1.53,2.69C553.68-166.81,554.2-167.71,554.7-168.61ZM554-123.54c.84.7,1.74,1.4,2.71,2.11C555.76-122.13,554.86-122.84,554-123.54Zm42,63a20.13,20.13,0,0,1,1.68,2.24A22.55,22.55,0,0,0,596-60.57Zm4.72,17.9c-.1.93-.26,1.89-.44,2.9.18-1,.33-2,.44-2.9.73-6.4-.29-11.06-2.53-14.85C600.43-53.74,601.46-49.08,600.72-42.67Zm17.75,56.05a37.11,37.11,0,0,1-9.09-3.54,37.93,37.93,0,0,0,9.09,3.54c1.14.28,2.32.55,3.55.78C620.79,13.93,619.61,13.67,618.47,13.38Zm354-35.26a11.12,11.12,0,0,1,1.6,2.12A11.78,11.78,0,0,0,972.51-21.88Zm24,16.76a4.52,4.52,0,0,1,2-.26A4.85,4.85,0,0,0,996.53-5.12Zm156.66,41.65a12.54,12.54,0,0,0-.14-2.32A11.69,11.69,0,0,1,1153.19,36.53Zm15.37-133c-1.34-.11-2.68-.19-4-.18C1165.88-96.7,1167.22-96.62,1168.56-96.51Zm-15.47,8.36c-.23.74-.43,1.54-.61,2.4h0A23.24,23.24,0,0,1,1153.09-88.15Zm-76.88,20.41a3.7,3.7,0,0,1-.62.54A5.58,5.58,0,0,0,1076.21-67.74Zm-34.86,35.63c2.89-.7,5.77-1.42,8.66-2.14-2.89.72-5.77,1.45-8.66,2.15Z" transform="translate(0.21 288.33)"/><path class="cls-2" d="M1202.67,253.52c-13.43,12.63-21.58,34.41-46.86,26.46a13.3,13.3,0,0,0-10,1.68c-31.78,21.33-65.3,13.62-98.84,6.46-6.88,12.82-13.28,26.14-30.25,28.1l-7.25-5.45q-1.23,2.79-2.44,5.57l-1,.51c-5.39,3-10.77,5.12-16-.3-.54-3.38-1.07-6.75-1.61-10.12.29-4-1.83-6.25-5.45-7.39L978.83,296l-6.48-5-10-6.9c-4.1-6.34-10.38-1.88-15.5-3.13q-.12,4.78-.26,9.57c-10,16-19.58,2.91-28.42-1.13-33.67-15.36-68.38-5.33-102.2-3.31-36.85,2.2-69.38-9.86-102.85-20.65-12.25-3.94-23.7-1.05-35.49,3.12-21.08,7.45-81.44-6.42-93.07-20.54,2.79-3.33,6.38-8-.15-9.66-13.63-3.51-27.68-6.36-41.52-.09l-13-7.22L526,217l6.07-6.29,5.75-4.11c14.32,5.2,12.62-12.58,21.6-15h0c-1.71-28.44,14.57-22.56,31-16.28l20.88-1.85c23.82-.88,48.37,1.4,66.57,16.45,23.34,19.3,66.93,19.79,86.71-3.13,7-8.11,11.67-12.39,25.48-4.21,15.84,9.38,36,18,57,12.11q2.87.45,5.76.87a4.08,4.08,0,0,1,2.67,2.72,21.32,21.32,0,0,0,2.23,4.64c-5.21,13.87,4.82,18.87,14.13,24.31,12.31,9,26.06,5.25,39,3.26,15.56-2.37,25.41,2.47,29.95,17.62l10.32-4.74c25.57.64,50.82-21.76,77.11,1,10.4,9,17.56,15.28,6,27-5,5-12.7,8.89-6.57,16.81,5.85,7.55,12.81-1.15,19.38-.81,8.13-11.19,1-30.89,20.13-36a3.24,3.24,0,0,1,1.85-3.52l13.71,1.42h0c6,1.76,12.09,3.63,17.39-1.79,10.22-3.85,21.69-4.81,28.49-15.7,4.05-6.46,14.18-9.88,18.63-5.69,16.84,15.87,26.15,3.29,36.65-8.44,9,7.8-3.63,31,20,27.17C1205.51,244.53,1205.56,250.8,1202.67,253.52Z" transform="translate(0.21 288.33)"/><path class="cls-2" d="M1447.17,72.76c-2.88,10.86-11.53,19-20.41,12.35-33.64-25.16-73.12-22.82-111.29-27.28-11,2.23-21.78,3.5-12.29-12.88,8.43-14.55,17.91-27.63,38.65-24.82,23.22,3.12,47-1.49,70.18,5.49C1435.9,32.81,1447.56,48,1447.17,72.76Z" transform="translate(0.21 288.33)"/><path class="cls-2" d="M1359.58,214.76c-7.41-10-15.64,4.18-23.42,7.94-15.13,7.31-30.73,21-47.36,9.83-25.36-17.07-43.34-6.49-61.53,10.42,2.92,3,4.3,7.27,7,10.17-2.75-2.9-4.13-7.14-7-10.17-9.4,5.54-15,15-8.78,23.56,7,9.68,19-.3,28.68,1.48-1.63,11.38-5.89,19.32-19.72,17.4-10.49-1.46-20.68-.51-27.06,9.95-6.91,4.47-13.81,9.54-10.05,19,3,7.63,10.38,9.22,17.86,7.69,9.3-1.91,14.47,3.71,20.46,9.2,19.89,18.21,32.5,16.82,52.81-5.09,5.86-3.7,5.89-10.14,1.59-12.89-15.84-10.14-16.85-26.45-19.78-42.19,12.29,3.12,23.83,3,32.92-7.65,18.69-3.6,40.17-.11,52.16-20.62C1360.48,236.58,1365.59,222.88,1359.58,214.76Z" transform="translate(0.21 288.33)"/><path class="cls-2" d="M1373.1-183.79c17.11,1.82,33.55-18.07,42.26-13.44,15.19,8.09,29,14.55,46,14,3.28-.11,6.48-2.49,9.72-3.83q0-9.18,0-18.33c-11.69-9.68-22.15-29.81-37.06-2.09-2.65,4.92-12.88,1.37-18.92-3.7-20.52-17.23-35.32,4.41-52.6,8.69-1.51.38-2.2,8.17-1.55,12.23C1362-183.5,1367.56-184.38,1373.1-183.79Z" transform="translate(0.21 288.33)"/><path class="cls-2" d="M1178.78,67.12l-.27.08,0,.18Z" transform="translate(0.21 288.33)"/><path class="cls-2" d="M1337.94-127.94l0-.09c-11.68-16-10-32.43-2.4-49.66,2.33-5.27-1.7-9.84-7.73-11.31-4.76,5.91-11.34,10.48-17.88,5.6-7.22-5.39-1.61-14.77-3-22.24h0a36.5,36.5,0,0,0,20.68-7.66l0,0,5-6.43c.45-3.14.91-6.29,1.36-9.43a9.13,9.13,0,0,1-1.23-4.9l-10.38-2.17a5.81,5.81,0,0,1-4.48,2.12l-5.9,5.31-5.21,5.1c-.31,1.79-.61,3.58-.93,5.38h0l-2.37,0-2.29-.64c-8.94,6.13-18.76,11.46-21.15,23.48-3.46,1.47-6.74,1.75-9.63-.59,3.18,7.82-.83,14-5.49,20-6.33,27.1,8.88,49.72,15.44,74.13l-1,10.14c-9.88,3-18.47,7.62-13.51,20,4.67,11.68,12.77,18.41,26.3,12.34-1.57,10-8.35,16.72-15,23.57-3.53,3.63-8.1,7.29-5.49,13.3,2.54,5.86,8.25,5,13.36,5.53,25.43,2.52,32.72-8.56,24.21-37l.31-.16c-.09-.21-.19-.39-.28-.59,7.27-4.78,15.39-8.81,16.65-18.91-5.83-15.14-21.78-25.87-19.42-44.58,10.89.35,24.73,19.25,31.68-5.05A3.62,3.62,0,0,1,1337.94-127.94Zm-36.37,68.37c-.15.12-.29.24-.43.34l.06-.59c.14,0,.27,0,.4,0Z" transform="translate(0.21 288.33)"/><path class="cls-2" d="M1269.76-197.42l-.42.39a9.05,9.05,0,0,0,1,.95C1270.19-196.52,1270-197,1269.76-197.42Z" transform="translate(0.21 288.33)"/><path class="cls-2" d="M1436.05,257.89c.66.25,1.34.48,2,.68-.69-.2-1.37-.43-2-.68l-28.19,21.53c-8.43,4.95-16.73,10.38-15.83,21.72,1.7,21.74-6.24,38.71-23.21,52.22-4.24,3.37-11.91,8.4-6.26,14.74,6.31,7.09,13.11.55,18.15-3.82,11.83-10.28,21.35-25.54,34.93-31,25.79-10.38,37.1-29.93,45.64-53.38h0l4.26-5.49c26.94-7.34,19.91-35.55,33.4-51.86C1480.18,239.67,1450.9,236.29,1436.05,257.89Z" transform="translate(0.21 288.33)"/><path class="cls-2" d="M538.1,88c.2.56.37,1.14.53,1.74a26.16,26.16,0,0,1,.78,4.8h0c12.46,10.62,22.88,10,30.64-5.53h0c3.7-12.33,9.48-24.72-9.71-30.6-4.88-1.49-9.1-8.23-11.74-13.5-16.81-33.62-23.34-34.5-51.05-5.91h0L484.71,47.2q5.73,7.86,11.44,15.73c14.25-9.91,21.44-2.54,26.22,10.66a0,0,0,0,1,0,0,30.08,30.08,0,0,1,10.7,6.52A20.68,20.68,0,0,1,538.1,88Zm9.24-10.27a12.37,12.37,0,0,0,4.74,5.69,12.31,12.31,0,0,1-4.74-5.69,44.68,44.68,0,0,0-11.83-17.39A44.68,44.68,0,0,1,547.34,77.77Z" transform="translate(0.21 288.33)"/><path class="cls-2" d="M1260.85,7.53c-11.27-3.19-19.75,5.3-22.17,16.42-2,9.1-11.19,6.88-15.16,12.17-10.89,7.92-21.11,20.33-7.48,29.31,12,7.91,24.79,30.87,44.5,12.43,11.17-10.44,30.08-20.67,11.83-40.54C1275.61,24.58,1275.28,11.61,1260.85,7.53Z" transform="translate(0.21 288.33)"/><path class="cls-2" d="M1417.41-7.13l-.11.09-.1.11Z" transform="translate(0.21 288.33)"/><path class="cls-2" d="M1402.83-27.86c-5.32,2.44-11.3,3.46-17,5.13l-.18.1-10.5,10.7q.16,2.89.35,5.77l5.92,4.57a15.3,15.3,0,0,1,4.66.55l5.29-.27,19.94-.64,6-5.09,5.25-5.52-.13,0C1425-29.37,1419.63-35.56,1402.83-27.86Z" transform="translate(0.21 288.33)"/><path class="cls-2" d="M1621.75,138.34c-10.82-3.21-14.17,6.79-18.41,14.08-19,17.63,4,43.78-13,62.49-7.21,7.94-.92,16.89,7.79,16.36,7.53-.47,20.36-10.55,16.18-16.22-13.93-18.91,9.79-18.51,11.94-28.35,8.6-8.21,7.43-18.85,6.07-28.85C1631.32,150.4,1630.12,140.82,1621.75,138.34Z" transform="translate(0.21 288.33)"/><path class="cls-2" d="M141.24-73l-5.43-3.62.07.11-10.19-6.2-11.32,1.69.52-2.23-5.31.71-10,5.91-5.62,5.73c2.83,13.11,12.32,21.6,19.92,31.85,9.63,13,17.88,18.4,32.3,9.51q2.13-4.83,4.25-9.67c3.44-11.22,2.48-21.82-4.51-31.55A6.55,6.55,0,0,1,141.24-73Z" transform="translate(0.21 288.33)"/><path class="cls-2" d="M1301.6-59.79l0,.22c-.15.12-.29.24-.43.34l.06-.59C1301.34-59.82,1301.47-59.8,1301.6-59.79Z" transform="translate(0.21 288.33)"/><path class="cls-2" d="M1428.49-85.75l6.71,2.92s.61.18.61.18l14-2.72c13.17-4.35,5.06-13.59,4.84-21-9.05-1.59-18.67-1-26.55-7-6.76,5.41-13.78,10.7-9.37,21.08l6.7,4.95A3.88,3.88,0,0,1,1428.49-85.75Z" transform="translate(0.21 288.33)"/><path class="cls-2" d="M1418.25,210.2c-14.49,2.17-32.25-4-39.85,15.7,28.59,16.81,41.59,16.06,66.5-4,3.78,0,5.86-2.43,7.38-5.62,10.47-8.85,11.1-16.16-4.3-17.87C1436.63,197.19,1424.92,198.13,1418.25,210.2Z" transform="translate(0.21 288.33)"/><path class="cls-2" d="M1912.86,113.7c-14.64-34.65.16-72.85-13-107.69,6.68-.34,9.62,3.85,9.7,9.52C1910,48.28,1917.27,80.8,1912.86,113.7Z" transform="translate(0.21 288.33)"/><path class="cls-2" d="M206.58,40.22a5.36,5.36,0,0,1-2.4-4.4L200,29.35c-6.87-8.62-13.44-4.06-20,.46l-1.68,5.76c5,14.14,12.59,23.4,25.42,23-12.83.43-20.44-8.82-25.42-23-1.47,0-2.94-.08-4.4-.21l.11-.23-5.53,5.4.22-.24-5.51,6c.06,2.61.12,5.21.17,7.82l4.9,6.5,0,0c1.55,1.85,3.11,3.69,4.66,5.53l.29.4c11,10.43,24.21,7,37.05,5.69l.73-.71L215.58,67l.24-11.21-5.88-12.15Zm-2.74,18.31a28.21,28.21,0,0,0,3.09-.29A28.21,28.21,0,0,1,203.84,58.53Z" transform="translate(0.21 288.33)"/><path class="cls-2" d="M1502.69,166.94c-5.34,2.6-10.75,5-16.13,7.55.67,3.84,1.93,6.27,3.57,7.78-1.64-1.51-2.9-3.94-3.57-7.78-11.4,4.92-21.53,15-14.87,25.26,5.3,8.2,18.16-2.72,27.63-4.81,4.18-.92,7.25-6.89,10.83-10.56a13.25,13.25,0,0,0-2.46-.33,13.25,13.25,0,0,1,2.46.33c8.95-2.75,20.59-6.28,15.31-17.62C1520.77,156.71,1510.46,163.18,1502.69,166.94Zm-8.92,17.24a12,12,0,0,0,1.61.29A12,12,0,0,1,1493.77,184.18Z" transform="translate(0.21 288.33)"/><path class="cls-2" d="M1332.7-234.26a.85.85,0,0,1,0,.16l.13,0Z" transform="translate(0.21 288.33)"/><path class="cls-2" d="M1487-187.83c4.53-5.19,9.2-10.89,5.45-17.94s-10.21-3.13-15.73-1.89q-2.87,1.16-5.73,2.27,0,9.13,0,18.37C1476.9-177.3,1482.49-172.43,1487-187.83Z" transform="translate(0.21 288.33)"/><path class="cls-2" d="M1744.34-33.68l31.35-4.58C1762.75-53.77,1753.94-41,1744.34-33.68Z" transform="translate(0.21 288.33)"/></g></g></g></g></svg>