<svg xmlns="http://www.w3.org/2000/svg" xmlns:xlink="http://www.w3.org/1999/xlink" viewBox="0 0 1920 807.89"><defs><style>.cls-1{fill:none;}.cls-2{fill:#fff;}.cls-3{fill:#d1ecf8;}.cls-4{clip-path:url(#clip-path);}.cls-5{fill:#1097a0;}.cls-6{fill:#d6d622;}.cls-7{opacity:0.1;}.cls-8{clip-path:url(#clip-path-2);}</style><clipPath id="clip-path" transform="translate(19.14)"><path class="cls-1" d="M0,0C.83,3.07,1.41,6.26,2.53,9.19,18.45,51,35.9,91.81,60,128.59c23.45,35.79,51.1,64.76,91.14,75.3,27.94,7.35,55.84,14.73,84.05,20.68a238.15,238.15,0,0,1,29.94,8.18c42.73,15,65.48,50.56,67.87,104.38,1.36,30.59-2.19,60.69-6.07,90.8-.61,4.69-2.22,11.79,5.35,7.94,28.39-14.47,57.45-8.5,86-3,47.33,9.11,89.28-.56,125.19-38,6-6.19,13-11,19.48-16.56,23.58-20.12,50.26-29.69,79.61-32.92,27.32-3,54.72-1.55,82-4.87,30.9-3.75,53.47-17.91,64.35-52.42,7.23-22.91,13.85-46.23,27.83-68.33-18,3.69-33.44,6.84-48.92,10.06C695.17,245,622.19,255.41,548.25,245.26c-34.91-4.8-67.88-16.15-93.25-46.24-9.07-10.77-13.94-24.36-19.25-37.43-15-36.94-40.15-57.11-75.52-63.89Q320.95,90.16,281.36,86C241.76,81.93,209,65.51,185,28.29,172.74,9.4,155.17,1.4,133.94,6.75c-15.87,4-31.86,7.38-47.7,11.5C55.35,26.28,24.89,32.48,0,0Z"/></clipPath><clipPath id="clip-path-2" transform="translate(19.14)"><path id="SVGID" class="cls-2" d="M0,0C.83,3.07,1.41,6.26,2.53,9.19,18.45,51,35.9,91.81,60,128.59c23.45,35.79,51.1,64.76,91.14,75.3,27.94,7.35,55.84,14.73,84.05,20.68a238.15,238.15,0,0,1,29.94,8.18c42.73,15,65.48,50.56,67.87,104.38,1.36,30.59-2.19,60.69-6.07,90.8-.61,4.69-2.22,11.79,5.35,7.94,28.39-14.47,57.45-8.5,86-3,47.33,9.11,89.28-.56,125.19-38,6-6.19,13-11,19.48-16.56,23.58-20.12,50.26-29.69,79.61-32.92,27.32-3,54.72-1.55,82-4.87,30.9-3.75,53.47-17.91,64.35-52.42,7.23-22.91,13.85-46.23,27.83-68.33-18,3.69-33.44,6.84-48.92,10.06C695.17,245,622.19,255.41,548.25,245.26c-34.91-4.8-67.88-16.15-93.25-46.24-9.07-10.77-13.94-24.36-19.25-37.43-15-36.94-40.15-57.11-75.52-63.89Q320.95,90.16,281.36,86C241.76,81.93,209,65.51,185,28.29,172.74,9.4,155.17,1.4,133.94,6.75c-15.87,4-31.86,7.38-47.7,11.5C55.35,26.28,24.89,32.48,0,0Z"/></clipPath></defs><g id="Layer_2" data-name="Layer 2"><g id="Layer_1-2" data-name="Layer 1"><path class="cls-3" d="M0,0C.83,3.07,1.41,6.26,2.53,9.19,18.45,51,35.9,91.81,60,128.59c23.45,35.79,51.1,64.76,91.14,75.3,27.94,7.35,55.84,14.73,84.05,20.68a238.15,238.15,0,0,1,29.94,8.18c42.73,15,65.48,50.56,67.87,104.38,1.36,30.59-2.19,60.69-6.07,90.8-.61,4.69-2.22,11.79,5.35,7.94,28.39-14.47,57.45-8.5,86-3,47.33,9.11,89.28-.56,125.19-38,6-6.19,13-11,19.48-16.56,23.58-20.12,50.26-29.69,79.61-32.92,27.32-3,54.72-1.55,82-4.87,30.9-3.75,53.47-17.91,64.35-52.42,7.23-22.91,13.85-46.23,27.83-68.33-18,3.69-33.44,6.84-48.92,10.06C695.17,245,622.19,255.41,548.25,245.26c-34.91-4.8-67.88-16.15-93.25-46.24-9.07-10.77-13.94-24.36-19.25-37.43-15-36.94-40.15-57.11-75.52-63.89Q320.95,90.16,281.36,86C241.76,81.93,209,65.51,185,28.29,172.74,9.4,155.17,1.4,133.94,6.75c-15.87,4-31.86,7.38-47.7,11.5C55.35,26.28,24.89,32.48,0,0Z" transform="translate(19.14)"/><g class="cls-4"><path class="cls-5" d="M495.5,556.24c-2.3,3.53-7.26,7.88-6.46,10.48,10.29,33.52,0,67.89,4.8,101.53l-5.74,4.11c-2,2.09-4.05,4.2-6.07,6.28l-14.76-1c-1.71-3.91-5-5.42-9-5.73-2.91-3.36-5.81-3.33-8.71,0l-14.18.68c-8.33-2.62-12.6,10.07-21.39,5.65l-.19-.23-4.8-5.72L404.07,666l-4.17-4.67C388,648.67,373,641,357.38,634.29l-.17.06c-2.18-1.43-4.38-2.85-6.58-4.27,0,0,0,0,0,0-1.77-1.3-3.55-2.6-5.31-3.91a3.54,3.54,0,0,0-3.61-2.09C322,616,324,588.9,304.06,581c0,.06.15.29.15.3-2.19-1.47-4.39-2.92-6.58-4.38-1.78-1.29-3.58-2.56-5.36-3.83L275,555.87l-3.47-6.7a3.3,3.3,0,0,0-1.58-3.86c.44-3.26-1.23-4.83-4.25-5.36l0,0-5.36-4.63a2,2,0,0,0-2.66-1.51l-7.75-5c-.82-6.85,4.06-14-1.26-20.63-1.18-1.87-2.37-3.73-3.56-5.6l-.19-.32.05.06c-2-3.2-4-6.42-6.07-9.63l-.11-.24-4.42-6.31.29.27c-5.5-11.67-11.33-23.12-21.12-31.93-.88-3.15-2.86-4.75-6.25-4.33l-6.5-5.69c.59-4.22,1.8-8.62-3-11.41,0,0,0-.1,0-.1-4.42-8.71-12.76-9.91-21.16-11l.24.31-6.58-3.38c-16.44-10.23-13-28-16.5-43.2-.65-12.84-5.29-22.24-19.88-23.1-28.29-8.1-39.06-33.62-54.38-54.65C62.82,275,34.49,266.81,14.79,247c-10.61-10.65-20.3-21.11-28.15-33.81-9-14.63-8.35-26,8.35-33.94C.56,169,7.43,166.22,18.56,172.68c23.78,13.81,49.72,17.94,77,21.79,14.21,2,37.51,17.57,36.67,43.07l12,10.17L171,255.32c28.61-13.27,40.24-5.86,40,25.48,11.8,16.12,22,34.28,45.67,35,.82,0,2.15.41,2.38,1,10.95,27.12,49.69,24.69,58.07,54.73,2.75,9.84,12.78,7.26,19.78,9.95,13,5,18.94,23.84,40.59,14.15,8.9-4,15,16.12,7.46,26.72-16,22.6-3.74,30.79,16.17,35.49,27.27,6.43,22.81,36.93,39.73,51l11.43,15.72c14.26-9.9,21.45-2.53,26.23,10.66-2.18,2.69-4.36,5.46-6.92,7.34,2.57-1.87,4.74-4.64,6.93-7.32a29.93,29.93,0,0,1,10.69,6.54,20.56,20.56,0,0,1,5,7.9c.2.56.38,1.14.53,1.74a27,27,0,0,1,.79,4.8h0Z" transform="translate(19.14)"/><path class="cls-5" d="M1898.19,738c2.91-16.05,1.36-32-.77-48-.94-17.28,5.4-35.36-5.7-51.52l-.59-1.46c-9.36-12.28-2-21.85,5.1-31.46q-.2-8.25-.4-16.52a18.42,18.42,0,0,1-1.52-3.21c-.09-.32.82-.94,1.27-1.42,1.64-11.44,2.2-22.83-1.65-34-14.64-34.65.16-72.85-13-107.69a1.68,1.68,0,0,0-2.59-.91c-2.39-7.28-7.31-10.45-13.48-10.45a22.66,22.66,0,0,0-4.91.59c-16.74,3.87-31.77-1-46.62-7.6h0c-5.22-8-14.13-7.28-21.89-9.3a24.8,24.8,0,0,0,1.39,2.4,22.93,22.93,0,0,1-1.4-2.4l-.62-.61h0c-4.79-12.75-16.11-10.18-26-11.06h0l-8.08-4.9L1725.41,403a2.08,2.08,0,0,0-2.93,1.1,5.61,5.61,0,0,0-.17.62,5.61,5.61,0,0,1,.16-.62c-19.82,5.4-37.28-5.14-55.47-5.76-1.22-11.13,18-14.34,5.83-26.1s-24.14-24.81-42.71-17.38c-11.21,4.47-19.84,13.23-5,24.95,6.09,4.81,13.17,9.57,8.67,19.3-11.14,7.37-13.9,13.1.56,21.22,13.13,7.37,25.85,7.88,39.62,5.29,6.14,12.81-8.42,15.67-11.53,24,0,0-.18.3-.18.3,2.3,8.38,3.2,16.06-8.7,17.28-.53-1.61-1.1-3.22-1.73-4.79-10.31,4.43-12.27,20.41-26.67,19.23-16.58-8.48-16.62-29.29-29.9-40.28-.63,5.75-3,7.9-8,3.6-13.16-11.37-15.54-26.36-14-42.57,1-10.16,4.87-20.24.58-30.49-1.63-3.88-3.24-7.76-4.87-11.64-11.42-6.67-27.86,5.33-36.93-10-2-1.54-4-3.09-6-4.63-14-1.85-28-2.85-42,.39a5.26,5.26,0,0,1-3.41,1.56l-7.48,2.61c-7.89,6-19.65,2.74-26.53,11.12-1.4.2-2.8.42-4.19.66-18.44,10-26.7,24.63-21.06,45.69,13.87,3.59,35-7.27,39.92,12.72,2.93,11.94,10.26,16.61,16.49,24,14.43-11.7,33.18,2,47.89-8.12-1.8,13.71-9.33,19.19-23,16.55-6.44-1.25-13.55-4.67-18.48,3.27l-5.88.17c-9,9.68-14,17.11,3.62,24.68,10.65,4.59,27.71,8.42,19.51,29.42-2.74,7,6.37,16.35,14.56,19.85s12.27-3.9,16.2-9.73l15.66-12.19c4.64,3.42,10,10.27,13.92,10.27a2.9,2.9,0,0,0,.66-.07c17.7-3.94,27-.27,33.84,18.55,2.34,6.46,17,16,31.2,15.33,50.74-2.44,89.93,27,131.69,49.25,4.66,2.48,6,5.16,3.36,10.29-5.58,10.77,2.67,17.7,7.5,25.86,12.26,20.81,31.73,42.18,28.76,65.28-3.54,27.59,10.08,21.62,22.87,18.09,11.84-3.28,20.46-1.81,28.56,6.63,7.93,8.27,15.51,16.92,24,24.63,5.07,4.62,8.13,15.84,18.6,8.53C1901.17,755.13,1903.12,747.22,1898.19,738ZM1550.44,488.78c.19-.53.35-1.08.5-1.65C1550.79,487.7,1550.63,488.26,1550.44,488.78Zm102.63-17.84c0,.42,0,.84-.07,1.26h0C1653,471.78,1653,471.36,1653.07,470.94Zm-.08,1.27c0,2.11.07,4.21.1,6.33C1648.79,476.49,1648.82,474.38,1653,472.21Zm35.62-11.47c0-.19-.07-.39-.11-.57,0,.18.08.38.12.58s.07.32.11.47C1688.69,461.06,1688.64,460.91,1688.61,460.74Zm124.49-36.42.56.55-.57-.54-1.39.19Zm27.36,279.36-.81.28c-1,.35-1.93.73-2.93,1.12-1.33.51-2.7,1-4.06,1.51,1.37-.48,2.73-1,4.06-1.51l2.93-1.13.81-.27a16.16,16.16,0,0,1,8.13-.62A16.38,16.38,0,0,0,1840.46,703.68Zm8.69-.5a14.28,14.28,0,0,1,1.91.54A16,16,0,0,0,1849.15,703.18Zm41.37-25.55a16.49,16.49,0,0,0-1.29-1.92,15.32,15.32,0,0,1,1.29,1.92c.4.68.75,1.39,1.1,2.13C1891.27,679,1890.91,678.31,1890.52,677.63Z" transform="translate(19.14)"/><path class="cls-6" d="M1250.08,229.53c-8.95-1.31-17.51-.86-24.7,5.6L1192,255.19c-7,5-14,7.08-21.35.77l-21.21-.77c-1.61,3.16-3.36,3.18-5.21.2L1139,254c-2.17-1.18-4.34-2.37-6.52-3.54a3.47,3.47,0,0,1-3.81-1.45c-2.17-1.08-4.33-2.16-6.49-3.26q-15.18-1.12-30.36-2.28c-16-9-32-20.08-48.25-.34l-5.57,1.38c-1.51,4.48-3.15,3.77-4.87.12a44,44,0,0,1-5.26.05c-1.87,1.5-3.72,3-5.58,4.53l-.46.44-16.09,20.69a38.15,38.15,0,0,1-4.38.62l-9.93,11.21c2.19,10.56-6.76,17.29-9.06,26.32-2.88-16.76-22.8-18.08-29-31.81-26.05-6.29-16.17-26.21-16.07-42.41l.11.09c-14.45-14.18-24.15-29.09-7.42-48.08q-.66-6.41-1.33-12.82l-2-9.5c-2.84-.66-3.78-2.4-2.89-5.16a9,9,0,0,1-2-4.14c-3.52-.44-7-.87-10.55-1.32-16.71,20.53-30.56.31-45.58-3.2l-15.31,0,0,1.41-.61-1.26a3,3,0,0,1-1.88-1.93q-5.46,3.21-10.93,6.41c-.06,12.28.61,24.62-.45,36.81-.82,9.43-2.21,19.92-15.64,20.32-3.48.06-6.94.13-10.41.18-1.64,2.2-3.28,4.38-4.93,6.57-2.33,12.26,13.66,29.51-9.8,36C792,263,785,267.86,777.62,272.44c-30.26,25.82-32.73,25.94-50.93,2.25-20.5-12.78-39.78-16.1-57.75,5.11A16.53,16.53,0,0,1,649.69,284c-5.05,1.07-11.72.45-14.89,3.47-14.58,14-27.13,8.33-39.77-2.35-17.92-11.48-24.49-31.69-36.63-47.61l-1.09-1L546,234.69c-.07,1.3-.14,2.61-.19,3.91l-5.82.22-4.94,2s-1.54,1.07-1.54,1.1a9.23,9.23,0,0,1,.19,1c-3.94,9.55-7.63,19.21-11.89,28.62-9.25,20.5-30.94,41.22,2,60.43,1.74,1,3.19,5,2.64,7.06-6.75,24.64,10.28,34.25,27.13,44.55,9.83,6,16.79,11.49,11.73,27.2-11.55,35.85,9.57,59.63,46.19,56.45,8-.7,20.19-7,23.64,3.84,9.59,30,29.74,16.56,46.86,12.6,8.34-1.92,18.25-10.17,24.36-3.28,10.58,11.94,23.48,10.6,36.14,11.36,14.53.86,24.31,5.41,22.21,21.93-1.94,15.4,5.35,16.49,17,12,8.16-3.17,16.82-5.4,22.91-12.41,8.06,1.38,14.19-3.94,22.85-7.39,0,5.45,0,9.65,0,13.84,0,7.05-.57,15.72,6.69,18.54,8.86,3.43,14.5-5.24,19.1-10.77,15.4-18.51,9.22-36.32-3.85-53.24-.42,1-.87,2-1.36,2.92a35,35,0,0,1-2.35,4,39.61,39.61,0,0,1-2.7,3.53,41.59,41.59,0,0,0,2.7-3.53,38.27,38.27,0,0,0,2.35-4c.48-.93.93-1.9,1.35-2.92,13.78-14.12,28.33-28,13.43-49.9-4.68-6.89-.82-13.08,5-15.11,40.39-14,52.9-44.21,50.23-83.68-.15.16-.29.33-.42.49l.4-.82c0,.11,0,.22,0,.33,1.27-1.47,2.55-3,3.83-4.43,11.84-28.31,35-10.3,53.09-13l7.41.63a.52.52,0,0,1,0-.11l5.92,5.4c-16.5,31.75-20.28,68-35.16,100.29h0c-14.21,9.3-10.61,23.38-9.83,36.7,22.43-10,30.16.51,30.24,21.68,6.6,13.24,4.16,25.51-4,37.15l-6.78,20.8c.46,2.05.93,4.08,1.39,6.12l5.23,4.72.17.11q3.06,2.34,6.14,4.65l-.21-.32c17.58-10.27,40.24,7.84,56.44-10.1.22-3,.43-6,.64-8.93a30.65,30.65,0,0,1-4.3-1.25c-1.09-8.26-8-16.4-8-24.68,0-4.28,1.85-8.59,7.31-13,.2-3.34.43-6.68.63-10q.19-13.25.38-26.48-.74-10.8-1.46-21.6c-1.15,0-2.28,0-3.42.07,1.14,0,2.27-.06,3.42-.08-1.55-5-3.13-10-4.69-15h0c30.28-.56,30.28-.56,15.19,36.49q5.78,10.56,11.57,21.12c1.72.4,3.42.84,5.11,1.37,22.52,5.06,8.76,18.63,6.91,29.42l9,11.8,9.64.73,11-.58c1.2,6.46,4.24,9.84,9.23,9.84a16.93,16.93,0,0,0,5.62-1.12c14-5.06,10.71,5.81,11.75,12.7-.83,13.73,6.93,12.62,16,9.25l5.54-4.35,5.58-4.93.21-.21,4.82-5.7-.13.1c3.26-9-5.45-22.65,10.15-26.91q-3-10.59-6-21.2c1.53-1.6,3.08-3.19,4.62-4.79-1.05-3.52-2.09-7.06-3.15-10.59l-21,2.91L1121.76,453l-.18.27c-12.59-.42-16.28-6.73-12.06-18.25,6-3.36,10.26-7.66,8.3-15.33-5.35-1.75-8.56-5.66-10.72-10.63-2.94-3.32-5.9-6.64-8.84-9.94a71.06,71.06,0,0,1-6,4.56c2.06-1.49,4.14-3,6-4.57-17-23.43-13.74-28.85,20.19-34.21q-.07,6-.14,12.11l5,1.89a3.79,3.79,0,0,1,4.53,1.52l6.24-1.33,4.56-2.65-.13.21c6.57-5.07,14-4.57,21.61-3.58l5.39-1.23q5-5.43,10.11-10.86.28-5.13.55-10.26l-2.59-.22-2.52.65h0l-4.72-2.51c-6.75.77-6.11-4.19-6.5-8.37,1.67-.52,3.37-1,5.08-1.34l3.24-9.64q-3.9-5.25-7.79-10.52c-5.26-.38-10.54-.74-15.81-1.11-16.53,7.28-33.5,13.8-51.8,12.74-17-1-25.33,13.13-38.11,19.36-3.64-7.13-3.72-18.5-16.94-14.15-4.78-11.74-21.68-15-21.09-30.69.38-9.58-.55-19.42,11.4-23.16h0l143.28,14.53c10.29-.12,21.19,3.79,30.29-4.47a14.38,14.38,0,0,1,1.4-4.62c1.57-.29,3.15-.64,4.69-1.07l25.4-26.22c.36-11.45,8.78-16,17.3-20.46C1250.31,236.15,1250.19,232.84,1250.08,229.53ZM535.77,268q.4-.72.84-1.44c-.29.48-.56,1-.83,1.44l-1.52,2.69Zm-.68,45.07c.84.7,1.74,1.4,2.71,2.11C536.83,314.52,535.93,313.81,535.09,313.11Zm42,63a20.13,20.13,0,0,1,1.68,2.24A22.55,22.55,0,0,0,577.07,376.08Zm4.72,17.9c-.1.93-.26,1.89-.44,2.9.18-1,.33-2,.44-2.9.74-6.4-.29-11.06-2.53-14.85C581.5,382.91,582.54,387.57,581.79,394Zm17.76,56a37.19,37.19,0,0,1-9.1-3.54,38,38,0,0,0,9.1,3.54c1.13.28,2.32.55,3.54.78C601.87,450.58,600.68,450.33,599.55,450Zm354-35.26a11.12,11.12,0,0,1,1.6,2.12A12.15,12.15,0,0,0,953.58,414.77Zm24,16.76a4.54,4.54,0,0,1,2-.26A4.88,4.88,0,0,0,977.6,431.53Zm156.66,41.65a12.54,12.54,0,0,0-.14-2.32A11.69,11.69,0,0,1,1134.26,473.18Zm15.38-133c-1.35-.11-2.69-.19-4-.18C1147,340,1148.29,340,1149.64,340.14Zm-15.48,8.36a23.36,23.36,0,0,0-.6,2.4h0A21,21,0,0,1,1134.16,348.5Zm-76.87,20.41a4.24,4.24,0,0,1-.63.54A6.83,6.83,0,0,0,1057.29,368.91Zm-34.87,35.63c2.89-.7,5.77-1.42,8.67-2.14-2.9.72-5.78,1.45-8.67,2.15Z" transform="translate(19.14)"/><path class="cls-5" d="M1183.74,690.17c-13.42,12.63-21.58,34.41-46.86,26.46a13.31,13.31,0,0,0-10,1.68c-31.78,21.33-65.3,13.62-98.84,6.46-6.88,12.82-13.28,26.14-30.25,28.1l-7.25-5.45c-.81,1.86-1.63,3.72-2.44,5.57l-1,.51c-5.39,3-10.77,5.12-16-.3q-.81-5.07-1.6-10.12c.28-4-1.83-6.25-5.46-7.39l-4.13-3.08-6.47-5-10-6.9c-4.1-6.34-10.38-1.88-15.5-3.13-.08,3.19-.17,6.38-.25,9.57-10,16-19.59,2.91-28.43-1.12-33.66-15.37-68.38-5.34-102.2-3.32-36.85,2.2-69.38-9.86-102.84-20.65-12.26-3.94-23.71-1.05-35.5,3.12-21.07,7.45-81.44-6.42-93.07-20.54,2.79-3.33,6.38-8-.14-9.66-13.64-3.51-27.69-6.36-41.53-.09l-13-7.22-4-14.06,6.07-6.29,5.75-4.11c14.32,5.2,12.62-12.58,21.6-15h0c-1.71-28.44,14.57-22.55,31-16.28l20.87-1.85c23.82-.88,48.37,1.4,66.57,16.45,23.35,19.3,66.93,19.79,86.72-3.13,7-8.11,11.66-12.39,25.47-4.21,15.84,9.38,36,18,57,12.11q2.86.45,5.76.87a4.08,4.08,0,0,1,2.67,2.72,21.32,21.32,0,0,0,2.23,4.64c-5.21,13.87,4.83,18.87,14.13,24.31,12.32,9,26.07,5.25,39,3.26,15.57-2.37,25.41,2.47,30,17.62L932.18,680c25.57.64,50.82-21.76,77.11,1,10.4,9,17.56,15.28,6,27-5,5-12.69,8.89-6.57,16.81,5.86,7.55,12.81-1.15,19.38-.81,8.13-11.19,1.05-30.89,20.13-36a3.24,3.24,0,0,1,1.85-3.52l13.71,1.42h0c6,1.76,12.09,3.63,17.4-1.79,10.21-3.85,21.68-4.81,28.49-15.7,4-6.46,14.17-9.88,18.62-5.69,16.84,15.87,26.15,3.29,36.65-8.44,9,7.8-3.63,31,20,27.17C1186.58,681.18,1186.63,687.46,1183.74,690.17Z" transform="translate(19.14)"/><path class="cls-5" d="M1428.24,509.41c-2.87,10.86-11.53,19-20.41,12.35-33.64-25.16-73.12-22.82-111.29-27.28-11,2.23-21.78,3.5-12.29-12.88,8.43-14.55,17.91-27.63,38.66-24.82,23.21,3.12,47-1.49,70.17,5.5C1417,469.46,1428.64,484.65,1428.24,509.41Z" transform="translate(19.14)"/><path class="cls-5" d="M1340.65,651.41c-7.41-10-15.64,4.18-23.42,7.94-15.13,7.31-30.73,21-47.36,9.83-25.36-17.07-43.34-6.49-61.53,10.42,2.92,3,4.31,7.27,7.06,10.17-2.75-2.9-4.14-7.14-7.06-10.17-9.4,5.54-15,15-8.78,23.56,7,9.68,19-.3,28.68,1.48-1.63,11.38-5.89,19.32-19.72,17.4-10.49-1.46-20.68-.51-27.06,10-6.91,4.47-13.81,9.54-10,19,3,7.63,10.39,9.22,17.86,7.69,9.3-1.91,14.47,3.71,20.46,9.2,19.89,18.21,32.5,16.82,52.82-5.09,5.85-3.7,5.88-10.14,1.58-12.89-15.84-10.14-16.85-26.45-19.78-42.19,12.29,3.13,23.83,3,32.93-7.65,18.68-3.6,40.16-.11,52.15-20.62C1341.55,673.23,1346.66,659.53,1340.65,651.41Z" transform="translate(19.14)"/><path class="cls-5" d="M1354.17,252.86c17.11,1.82,33.55-18.07,42.26-13.44,15.19,8.09,29,14.55,46,14,3.28-.11,6.48-2.49,9.72-3.83q0-9.18,0-18.33c-11.7-9.68-22.16-29.81-37.07-2.09-2.65,4.92-12.87,1.37-18.92-3.7-20.51-17.23-35.31,4.41-52.6,8.69-1.51.38-2.2,8.17-1.55,12.23C1343,253.15,1348.63,252.27,1354.17,252.86Z" transform="translate(19.14)"/><path class="cls-5" d="M1159.85,503.78l-.27.07.05.18Z" transform="translate(19.14)"/><path class="cls-5" d="M1319,308.71l0-.09c-11.67-16-10-32.43-2.4-49.66,2.33-5.27-1.7-9.84-7.73-11.3-4.75,5.9-11.34,10.47-17.88,5.59-7.22-5.39-1.6-14.77-3-22.24h0a36.56,36.56,0,0,0,20.68-7.66l0,0,5-6.43c.45-3.14.91-6.29,1.36-9.43a9.31,9.31,0,0,1-1.23-4.9l-10.38-2.17a5.79,5.79,0,0,1-4.48,2.12l-5.89,5.31c-1.74,1.7-3.48,3.39-5.22,5.1q-.45,2.68-.93,5.38h0l-2.37,0-2.29-.64c-8.93,6.13-18.76,11.46-21.15,23.48-3.45,1.47-6.74,1.75-9.63-.59,3.18,7.82-.83,14-5.49,20-6.33,27.1,8.88,49.72,15.44,74.13q-.5,5.07-1,10.14c-9.89,3.05-18.48,7.62-13.52,20,4.67,11.68,12.77,18.41,26.3,12.34-1.57,10-8.35,16.72-15,23.57-3.53,3.63-8.1,7.29-5.49,13.3s8.25,5,13.36,5.53c25.43,2.52,32.72-8.56,24.22-37l.3-.16c-.09-.21-.19-.39-.28-.59,7.28-4.78,15.39-8.81,16.65-18.91-5.83-15.14-21.77-25.87-19.41-44.58,10.88.35,24.72,19.25,31.68-5.05A3.61,3.61,0,0,1,1319,308.71Zm-36.37,68.37c-.14.12-.29.24-.43.34l.06-.59c.14,0,.27,0,.4,0Z" transform="translate(19.14)"/><path class="cls-5" d="M1250.84,239.24l-.43.38a10,10,0,0,0,1,.95C1251.26,240.13,1251.06,239.69,1250.84,239.24Z" transform="translate(19.14)"/><path class="cls-5" d="M1417.12,694.54c.66.25,1.34.48,2,.69-.69-.21-1.37-.44-2-.69l-28.19,21.53c-8.43,4.95-16.72,10.38-15.83,21.72,1.71,21.74-6.24,38.71-23.21,52.22-4.23,3.37-11.91,8.41-6.26,14.74,6.31,7.09,13.11.55,18.15-3.82,11.83-10.28,21.35-25.54,34.94-31,25.78-10.38,37.09-29.93,45.63-53.38h0l4.27-5.49c26.93-7.34,19.9-35.55,33.39-51.86C1461.25,676.32,1432,672.94,1417.12,694.54Z" transform="translate(19.14)"/><path class="cls-5" d="M519.17,524.69c.2.56.37,1.14.53,1.74a26.16,26.16,0,0,1,.78,4.8h0c12.46,10.62,22.88,10,30.64-5.53h0c3.69-12.33,9.47-24.72-9.72-30.6-4.88-1.49-9.1-8.23-11.73-13.5-16.82-33.62-23.35-34.5-51-5.91h0l-12.84,8.15,11.43,15.73c14.25-9.91,21.44-2.54,26.23,10.66v0a30,30,0,0,1,10.7,6.53A20.56,20.56,0,0,1,519.17,524.69Zm9.24-10.27a12.37,12.37,0,0,0,4.74,5.69,12.37,12.37,0,0,1-4.74-5.69A44.68,44.68,0,0,0,516.58,497,44.57,44.57,0,0,1,528.41,514.42Z" transform="translate(19.14)"/><path class="cls-5" d="M1241.93,444.18c-11.28-3.19-19.75,5.3-22.18,16.43-2,9.09-11.19,6.87-15.16,12.16-10.89,7.92-21.11,20.33-7.48,29.31,12,7.91,24.79,30.87,44.51,12.43,11.16-10.44,30.07-20.67,11.82-40.54C1256.68,461.23,1256.35,448.26,1241.93,444.18Z" transform="translate(19.14)"/><path class="cls-5" d="M1398.48,429.52l-.11.09-.1.11Z" transform="translate(19.14)"/><path class="cls-5" d="M1383.9,408.79c-5.32,2.44-11.29,3.46-17,5.13l-.18.1-10.5,10.71c.12,1.92.23,3.84.35,5.76l5.92,4.57a15.3,15.3,0,0,1,4.66.55l5.29-.27,19.94-.64,6-5.09,5.26-5.52-.14,0C1406.08,407.28,1400.7,401.09,1383.9,408.79Z" transform="translate(19.14)"/><path class="cls-5" d="M1602.82,575c-10.82-3.21-14.17,6.79-18.4,14.08-19,17.63,4,43.78-13,62.49-7.21,7.94-.92,16.89,7.78,16.36,7.53-.47,20.36-10.55,16.18-16.22-13.93-18.91,9.8-18.51,11.94-28.35,8.6-8.21,7.43-18.85,6.07-28.85C1612.4,587.06,1611.19,577.47,1602.82,575Z" transform="translate(19.14)"/><path class="cls-5" d="M122.32,363.61,116.88,360l.07.11-10.19-6.2-11.31,1.69.51-2.23-5.31.71-10,5.91L75,365.72c2.83,13.1,12.32,21.59,19.92,31.84,9.63,13,17.89,18.4,32.3,9.52l4.25-9.68c3.44-11.22,2.49-21.82-4.51-31.55A6.51,6.51,0,0,1,122.32,363.61Z" transform="translate(19.14)"/><path class="cls-5" d="M1282.67,376.86l0,.22c-.14.12-.29.24-.43.34l.06-.59C1282.41,376.83,1282.54,376.85,1282.67,376.86Z" transform="translate(19.14)"/><path class="cls-5" d="M1409.56,350.9l6.71,2.92.61.18,14-2.72c13.17-4.35,5-13.59,4.83-21-9-1.59-18.67-1-26.55-7-6.75,5.41-13.78,10.7-9.37,21.08l6.7,4.95A3.86,3.86,0,0,1,1409.56,350.9Z" transform="translate(19.14)"/><path class="cls-5" d="M1399.32,646.85c-14.48,2.17-32.25-4-39.85,15.7,28.59,16.81,41.59,16.06,66.51-4,3.77,0,5.86-2.43,7.37-5.62,10.47-8.85,11.1-16.16-4.3-17.87C1417.7,633.84,1406,634.78,1399.32,646.85Z" transform="translate(19.14)"/><path class="cls-5" d="M1893.93,550.35c-14.64-34.65.16-72.85-13-107.69,6.68-.34,9.62,3.85,9.7,9.52C1891.08,484.93,1898.34,517.45,1893.93,550.35Z" transform="translate(19.14)"/><path class="cls-5" d="M187.65,476.87a5.34,5.34,0,0,1-2.4-4.4L181.08,466c-6.87-8.62-13.44-4.06-20,.46l-1.68,5.76c5,14.15,12.59,23.4,25.42,23-12.83.43-20.44-8.82-25.42-23-1.47,0-2.94-.08-4.4-.21l.12-.23-5.54,5.4.22-.24-5.51,6,.18,7.82,4.89,6.5,0,0c1.55,1.85,3.11,3.69,4.66,5.53l.3.4c11,10.43,24.2,7,37,5.69l.73-.71,4.54-4.58.24-11.21L191,480.28Zm-2.74,18.31a28.21,28.21,0,0,0,3.09-.29A28.21,28.21,0,0,1,184.91,495.18Z" transform="translate(19.14)"/><path class="cls-5" d="M1483.77,603.6c-5.35,2.59-10.76,5-16.13,7.54.66,3.84,1.92,6.27,3.56,7.78-1.64-1.51-2.9-3.94-3.56-7.78-11.4,4.92-21.54,15-14.88,25.26,5.31,8.2,18.16-2.72,27.63-4.81,4.18-.92,7.25-6.89,10.83-10.56a13.14,13.14,0,0,0-2.46-.33,13.14,13.14,0,0,1,2.46.33c9-2.75,20.59-6.28,15.31-17.62C1501.85,593.36,1491.53,599.83,1483.77,603.6Zm-8.93,17.23a12,12,0,0,0,1.61.29A12,12,0,0,1,1474.84,620.83Z" transform="translate(19.14)"/><path class="cls-5" d="M1313.77,202.39c0,.06,0,.11,0,.16l.12,0Z" transform="translate(19.14)"/><path class="cls-5" d="M1468.08,248.82c4.54-5.19,9.21-10.89,5.46-17.94s-10.22-3.13-15.74-1.89c-1.91.77-3.81,1.53-5.72,2.27q0,9.13,0,18.37C1458,259.35,1463.56,264.22,1468.08,248.82Z" transform="translate(19.14)"/><path class="cls-5" d="M1725.41,403l31.35-4.58C1743.82,382.88,1735,395.68,1725.41,403Z" transform="translate(19.14)"/></g><g class="cls-7"><path class="cls-2" d="M0,0C.83,3.07,1.41,6.26,2.53,9.19,18.45,51,35.9,91.81,60,128.59c23.45,35.79,51.1,64.76,91.14,75.3,27.94,7.35,55.84,14.73,84.05,20.68a238.15,238.15,0,0,1,29.94,8.18c42.73,15,65.48,50.56,67.87,104.38,1.36,30.59-2.19,60.69-6.07,90.8-.61,4.69-2.22,11.79,5.35,7.94,28.39-14.47,57.45-8.5,86-3,47.33,9.11,89.28-.56,125.19-38,6-6.19,13-11,19.48-16.56,23.58-20.12,50.26-29.69,79.61-32.92,27.32-3,54.72-1.55,82-4.87,30.9-3.75,53.47-17.91,64.35-52.42,7.23-22.91,13.85-46.23,27.83-68.33-18,3.69-33.44,6.84-48.92,10.06C695.17,245,622.19,255.41,548.25,245.26c-34.91-4.8-67.88-16.15-93.25-46.24-9.07-10.77-13.94-24.36-19.25-37.43-15-36.94-40.15-57.11-75.52-63.89Q320.95,90.16,281.36,86C241.76,81.93,209,65.51,185,28.29,172.74,9.4,155.17,1.4,133.94,6.75c-15.87,4-31.86,7.38-47.7,11.5C55.35,26.28,24.89,32.48,0,0Z" transform="translate(19.14)"/><path id="SVGID-2" data-name="SVGID" class="cls-2" d="M0,0C.83,3.07,1.41,6.26,2.53,9.19,18.45,51,35.9,91.81,60,128.59c23.45,35.79,51.1,64.76,91.14,75.3,27.94,7.35,55.84,14.73,84.05,20.68a238.15,238.15,0,0,1,29.94,8.18c42.73,15,65.48,50.56,67.87,104.38,1.36,30.59-2.19,60.69-6.07,90.8-.61,4.69-2.22,11.79,5.35,7.94,28.39-14.47,57.45-8.5,86-3,47.33,9.11,89.28-.56,125.19-38,6-6.19,13-11,19.48-16.56,23.58-20.12,50.26-29.69,79.61-32.92,27.32-3,54.72-1.55,82-4.87,30.9-3.75,53.47-17.91,64.35-52.42,7.23-22.91,13.85-46.23,27.83-68.33-18,3.69-33.44,6.84-48.92,10.06C695.17,245,622.19,255.41,548.25,245.26c-34.91-4.8-67.88-16.15-93.25-46.24-9.07-10.77-13.94-24.36-19.25-37.43-15-36.94-40.15-57.11-75.52-63.89Q320.95,90.16,281.36,86C241.76,81.93,209,65.51,185,28.29,172.74,9.4,155.17,1.4,133.94,6.75c-15.87,4-31.86,7.38-47.7,11.5C55.35,26.28,24.89,32.48,0,0Z" transform="translate(19.14)"/><g class="cls-8"><path class="cls-2" d="M495.5,556.24c-2.3,3.53-7.26,7.88-6.46,10.48,10.29,33.52,0,67.89,4.8,101.53l-5.74,4.11c-2,2.09-4.05,4.2-6.07,6.28l-14.76-1c-1.71-3.91-5-5.42-9-5.73-2.91-3.36-5.81-3.33-8.71,0l-14.18.68c-8.33-2.62-12.6,10.07-21.39,5.65l-.19-.23-4.8-5.72L404.07,666l-4.17-4.67C388,648.67,373,641,357.38,634.29l-.17.06c-2.18-1.43-4.38-2.85-6.58-4.27,0,0,0,0,0,0-1.77-1.3-3.55-2.6-5.31-3.91a3.54,3.54,0,0,0-3.61-2.09C322,616,324,588.9,304.06,581c0,.06.15.29.15.3-2.19-1.47-4.39-2.92-6.58-4.38-1.78-1.29-3.58-2.56-5.36-3.83L275,555.87l-3.47-6.7a3.3,3.3,0,0,0-1.58-3.86c.44-3.26-1.23-4.83-4.25-5.36l0,0-5.36-4.63a2,2,0,0,0-2.66-1.51l-7.75-5c-.82-6.85,4.06-14-1.26-20.63-1.18-1.87-2.37-3.73-3.56-5.6l-.19-.32.05.06c-2-3.2-4-6.42-6.07-9.63l-.11-.24-4.42-6.31.29.27c-5.5-11.67-11.33-23.12-21.12-31.93-.88-3.15-2.86-4.75-6.25-4.33l-6.5-5.69c.59-4.22,1.8-8.62-3-11.41,0,0,0-.1,0-.1-4.42-8.71-12.76-9.91-21.16-11l.24.31-6.58-3.38c-16.44-10.23-13-28-16.5-43.2-.65-12.84-5.29-22.24-19.88-23.1-28.29-8.1-39.06-33.62-54.38-54.65C62.82,275,34.49,266.81,14.79,247c-10.61-10.65-20.3-21.11-28.15-33.81-9-14.63-8.35-26,8.35-33.94C.56,169,7.43,166.22,18.56,172.68c23.78,13.81,49.72,17.94,77,21.79,14.21,2,37.51,17.57,36.67,43.07l12,10.17L171,255.32c28.61-13.27,40.24-5.86,40,25.48,11.8,16.12,22,34.28,45.67,35,.82,0,2.15.41,2.38,1,10.95,27.12,49.69,24.69,58.07,54.73,2.75,9.84,12.78,7.26,19.78,9.95,13,5,18.94,23.84,40.59,14.15,8.9-4,15,16.12,7.46,26.72-16,22.6-3.74,30.79,16.17,35.49,27.27,6.43,22.81,36.93,39.73,51l11.43,15.72c14.26-9.9,21.45-2.53,26.23,10.66-2.18,2.69-4.36,5.46-6.92,7.34,2.57-1.87,4.74-4.64,6.93-7.32a29.93,29.93,0,0,1,10.69,6.54,20.56,20.56,0,0,1,5,7.9c.2.56.38,1.14.53,1.74a27,27,0,0,1,.79,4.8h0Z" transform="translate(19.14)"/><path class="cls-2" d="M1898.19,738c2.91-16.05,1.36-32-.77-48-.94-17.28,5.4-35.36-5.7-51.52l-.59-1.46c-9.36-12.28-2-21.85,5.1-31.46q-.2-8.25-.4-16.52a18.42,18.42,0,0,1-1.52-3.21c-.09-.32.82-.94,1.27-1.42,1.64-11.44,2.2-22.83-1.65-34-14.64-34.65.16-72.85-13-107.69a1.68,1.68,0,0,0-2.59-.91c-2.39-7.28-7.31-10.45-13.48-10.45a22.66,22.66,0,0,0-4.91.59c-16.74,3.87-31.77-1-46.62-7.6h0c-5.22-8-14.13-7.28-21.89-9.3a24.8,24.8,0,0,0,1.39,2.4,22.93,22.93,0,0,1-1.4-2.4l-.62-.61h0c-4.79-12.75-16.11-10.18-26-11.06h0l-8.08-4.9L1725.41,403a2.08,2.08,0,0,0-2.93,1.1,5.61,5.61,0,0,0-.17.62,5.61,5.61,0,0,1,.16-.62c-19.82,5.4-37.28-5.14-55.47-5.76-1.22-11.13,18-14.34,5.83-26.1s-24.14-24.81-42.71-17.38c-11.21,4.47-19.84,13.23-5,24.95,6.09,4.81,13.17,9.57,8.67,19.3-11.14,7.37-13.9,13.1.56,21.22,13.13,7.37,25.85,7.88,39.62,5.29,6.14,12.81-8.42,15.67-11.53,24,0,0-.18.3-.18.3,2.3,8.38,3.2,16.06-8.7,17.28-.53-1.61-1.1-3.22-1.73-4.79-10.31,4.43-12.27,20.41-26.67,19.23-16.58-8.48-16.62-29.29-29.9-40.28-.63,5.75-3,7.9-8,3.6-13.16-11.37-15.54-26.36-14-42.57,1-10.16,4.87-20.24.58-30.49-1.63-3.88-3.24-7.76-4.87-11.64-11.42-6.67-27.86,5.33-36.93-10-2-1.54-4-3.09-6-4.63-14-1.85-28-2.85-42,.39a5.26,5.26,0,0,1-3.41,1.56l-7.48,2.61c-7.89,6-19.65,2.74-26.53,11.12-1.4.2-2.8.42-4.19.66-18.44,10-26.7,24.63-21.06,45.69,13.87,3.59,35-7.27,39.92,12.72,2.93,11.94,10.26,16.61,16.49,24,14.43-11.7,33.18,2,47.89-8.12-1.8,13.71-9.33,19.19-23,16.55-6.44-1.25-13.55-4.67-18.48,3.27l-5.88.17c-9,9.68-14,17.11,3.62,24.68,10.65,4.59,27.71,8.42,19.51,29.42-2.74,7,6.37,16.35,14.56,19.85s12.27-3.9,16.2-9.73l15.66-12.19c4.64,3.42,10,10.27,13.92,10.27a2.9,2.9,0,0,0,.66-.07c17.7-3.94,27-.27,33.84,18.55,2.34,6.46,17,16,31.2,15.33,50.74-2.44,89.93,27,131.69,49.25,4.66,2.48,6,5.16,3.36,10.29-5.58,10.77,2.67,17.7,7.5,25.86,12.26,20.81,31.73,42.18,28.76,65.28-3.54,27.59,10.08,21.62,22.87,18.09,11.84-3.28,20.46-1.81,28.56,6.63,7.93,8.27,15.51,16.92,24,24.63,5.07,4.62,8.13,15.84,18.6,8.53C1901.17,755.13,1903.12,747.22,1898.19,738ZM1550.44,488.78c.19-.53.35-1.08.5-1.65C1550.79,487.7,1550.63,488.26,1550.44,488.78Zm102.63-17.84c0,.42,0,.84-.07,1.26h0C1653,471.78,1653,471.36,1653.07,470.94Zm-.08,1.27c0,2.11.07,4.21.1,6.33C1648.79,476.49,1648.82,474.38,1653,472.21Zm35.62-11.47c0-.19-.07-.39-.11-.57,0,.18.08.38.12.58s.07.32.11.47C1688.69,461.06,1688.64,460.91,1688.61,460.74Zm124.49-36.42.56.55-.57-.54-1.39.19Zm27.36,279.36-.81.28c-1,.35-1.93.73-2.93,1.12-1.33.51-2.7,1-4.06,1.51,1.37-.48,2.73-1,4.06-1.51l2.93-1.13.81-.27a16.16,16.16,0,0,1,8.13-.62A16.38,16.38,0,0,0,1840.46,703.68Zm8.69-.5a14.28,14.28,0,0,1,1.91.54A16,16,0,0,0,1849.15,703.18Zm41.37-25.55a16.49,16.49,0,0,0-1.29-1.92,15.32,15.32,0,0,1,1.29,1.92c.4.68.75,1.39,1.1,2.13C1891.27,679,1890.91,678.31,1890.52,677.63Z" transform="translate(19.14)"/><path class="cls-2" d="M1250.08,229.53c-8.95-1.31-17.51-.86-24.7,5.6L1192,255.19c-7,5-14,7.08-21.35.77l-21.21-.77c-1.61,3.16-3.36,3.18-5.21.2L1139,254c-2.17-1.18-4.34-2.37-6.52-3.54a3.47,3.47,0,0,1-3.81-1.45c-2.17-1.08-4.33-2.16-6.49-3.26q-15.18-1.12-30.36-2.28c-16-9-32-20.08-48.25-.34l-5.57,1.38c-1.51,4.48-3.15,3.77-4.87.12a44,44,0,0,1-5.26.05c-1.87,1.5-3.72,3-5.58,4.53l-.46.44-16.09,20.69a38.15,38.15,0,0,1-4.38.62l-9.93,11.21c2.19,10.56-6.76,17.29-9.06,26.32-2.88-16.76-22.8-18.08-29-31.81-26.05-6.29-16.17-26.21-16.07-42.41l.11.09c-14.45-14.18-24.15-29.09-7.42-48.08q-.66-6.41-1.33-12.82l-2-9.5c-2.84-.66-3.78-2.4-2.89-5.16a9,9,0,0,1-2-4.14c-3.52-.44-7-.87-10.55-1.32-16.71,20.53-30.56.31-45.58-3.2l-15.31,0,0,1.41-.61-1.26a3,3,0,0,1-1.88-1.93q-5.46,3.21-10.93,6.41c-.06,12.28.61,24.62-.45,36.81-.82,9.43-2.21,19.92-15.64,20.32-3.48.06-6.94.13-10.41.18-1.64,2.2-3.28,4.38-4.93,6.57-2.33,12.26,13.66,29.51-9.8,36C792,263,785,267.86,777.62,272.44c-30.26,25.82-32.73,25.94-50.93,2.25-20.5-12.78-39.78-16.1-57.75,5.11A16.53,16.53,0,0,1,649.69,284c-5.05,1.07-11.72.45-14.89,3.47-14.58,14-27.13,8.33-39.77-2.35-17.92-11.48-24.49-31.69-36.63-47.61l-1.09-1L546,234.69c-.07,1.3-.14,2.61-.19,3.91l-5.82.22-4.94,2s-1.54,1.07-1.54,1.1a9.23,9.23,0,0,1,.19,1c-3.94,9.55-7.63,19.21-11.89,28.62-9.25,20.5-30.94,41.22,2,60.43,1.74,1,3.19,5,2.64,7.06-6.75,24.64,10.28,34.25,27.13,44.55,9.83,6,16.79,11.49,11.73,27.2-11.55,35.85,9.57,59.63,46.19,56.45,8-.7,20.19-7,23.64,3.84,9.59,30,29.74,16.56,46.86,12.6,8.34-1.92,18.25-10.17,24.36-3.28,10.58,11.94,23.48,10.6,36.14,11.36,14.53.86,24.31,5.41,22.21,21.93-1.94,15.4,5.35,16.49,17,12,8.16-3.17,16.82-5.4,22.91-12.41,8.06,1.38,14.19-3.94,22.85-7.39,0,5.45,0,9.65,0,13.84,0,7.05-.57,15.72,6.69,18.54,8.86,3.43,14.5-5.24,19.1-10.77,15.4-18.51,9.22-36.32-3.85-53.24-.42,1-.87,2-1.36,2.92a35,35,0,0,1-2.35,4,39.61,39.61,0,0,1-2.7,3.53,41.59,41.59,0,0,0,2.7-3.53,38.27,38.27,0,0,0,2.35-4c.48-.93.93-1.9,1.35-2.92,13.78-14.12,28.33-28,13.43-49.9-4.68-6.89-.82-13.08,5-15.11,40.39-14,52.9-44.21,50.23-83.68-.15.16-.29.33-.42.49l.4-.82c0,.11,0,.22,0,.33,1.27-1.47,2.55-3,3.83-4.43,11.84-28.31,35-10.3,53.09-13l7.41.63a.52.52,0,0,1,0-.11l5.92,5.4c-16.5,31.75-20.28,68-35.16,100.29h0c-14.21,9.3-10.61,23.38-9.83,36.7,22.43-10,30.16.51,30.24,21.68,6.6,13.24,4.16,25.51-4,37.15l-6.78,20.8c.46,2.05.93,4.08,1.39,6.12l5.23,4.72.17.11q3.06,2.34,6.14,4.65l-.21-.32c17.58-10.27,40.24,7.84,56.44-10.1.22-3,.43-6,.64-8.93a30.65,30.65,0,0,1-4.3-1.25c-1.09-8.26-8-16.4-8-24.68,0-4.28,1.85-8.59,7.31-13,.2-3.34.43-6.68.63-10q.19-13.25.38-26.48-.74-10.8-1.46-21.6c-1.15,0-2.28,0-3.42.07,1.14,0,2.27-.06,3.42-.08-1.55-5-3.13-10-4.69-15h0c30.28-.56,30.28-.56,15.19,36.49q5.78,10.56,11.57,21.12c1.72.4,3.42.84,5.11,1.37,22.52,5.06,8.76,18.63,6.91,29.42l9,11.8,9.64.73,11-.58c1.2,6.46,4.24,9.84,9.23,9.84a16.93,16.93,0,0,0,5.62-1.12c14-5.06,10.71,5.81,11.75,12.7-.83,13.73,6.93,12.62,16,9.25l5.54-4.35,5.58-4.93.21-.21,4.82-5.7-.13.1c3.26-9-5.45-22.65,10.15-26.91q-3-10.59-6-21.2c1.53-1.6,3.08-3.19,4.62-4.79-1.05-3.52-2.09-7.06-3.15-10.59l-21,2.91L1121.76,453l-.18.27c-12.59-.42-16.28-6.73-12.06-18.25,6-3.36,10.26-7.66,8.3-15.33-5.35-1.75-8.56-5.66-10.72-10.63-2.94-3.32-5.9-6.64-8.84-9.94a71.06,71.06,0,0,1-6,4.56c2.06-1.49,4.14-3,6-4.57-17-23.43-13.74-28.85,20.19-34.21q-.07,6-.14,12.11l5,1.89a3.79,3.79,0,0,1,4.53,1.52l6.24-1.33,4.56-2.65-.13.21c6.57-5.07,14-4.57,21.61-3.58l5.39-1.23q5-5.43,10.11-10.86.28-5.13.55-10.26l-2.59-.22-2.52.65h0l-4.72-2.51c-6.75.77-6.11-4.19-6.5-8.37,1.67-.52,3.37-1,5.08-1.34l3.24-9.64q-3.9-5.25-7.79-10.52c-5.26-.38-10.54-.74-15.81-1.11-16.53,7.28-33.5,13.8-51.8,12.74-17-1-25.33,13.13-38.11,19.36-3.64-7.13-3.72-18.5-16.94-14.15-4.78-11.74-21.68-15-21.09-30.69.38-9.58-.55-19.42,11.4-23.16h0l143.28,14.53c10.29-.12,21.19,3.79,30.29-4.47a14.38,14.38,0,0,1,1.4-4.62c1.57-.29,3.15-.64,4.69-1.07l25.4-26.22c.36-11.45,8.78-16,17.3-20.46C1250.31,236.15,1250.19,232.84,1250.08,229.53ZM535.77,268q.4-.72.84-1.44c-.29.48-.56,1-.83,1.44l-1.52,2.69Zm-.68,45.07c.84.7,1.74,1.4,2.71,2.11C536.83,314.52,535.93,313.81,535.09,313.11Zm42,63a20.13,20.13,0,0,1,1.68,2.24A22.55,22.55,0,0,0,577.07,376.08Zm4.72,17.9c-.1.93-.26,1.89-.44,2.9.18-1,.33-2,.44-2.9.74-6.4-.29-11.06-2.53-14.85C581.5,382.91,582.54,387.57,581.79,394Zm17.76,56a37.19,37.19,0,0,1-9.1-3.54,38,38,0,0,0,9.1,3.54c1.13.28,2.32.55,3.54.78C601.87,450.58,600.68,450.33,599.55,450Zm354-35.26a11.12,11.12,0,0,1,1.6,2.12A12.15,12.15,0,0,0,953.58,414.77Zm24,16.76a4.54,4.54,0,0,1,2-.26A4.88,4.88,0,0,0,977.6,431.53Zm156.66,41.65a12.54,12.54,0,0,0-.14-2.32A11.69,11.69,0,0,1,1134.26,473.18Zm15.38-133c-1.35-.11-2.69-.19-4-.18C1147,340,1148.29,340,1149.64,340.14Zm-15.48,8.36a23.36,23.36,0,0,0-.6,2.4h0A21,21,0,0,1,1134.16,348.5Zm-76.87,20.41a4.24,4.24,0,0,1-.63.54A6.83,6.83,0,0,0,1057.29,368.91Zm-34.87,35.63c2.89-.7,5.77-1.42,8.67-2.14-2.9.72-5.78,1.45-8.67,2.15Z" transform="translate(19.14)"/><path class="cls-2" d="M1183.74,690.17c-13.42,12.63-21.58,34.41-46.86,26.46a13.31,13.31,0,0,0-10,1.68c-31.78,21.33-65.3,13.62-98.84,6.46-6.88,12.82-13.28,26.14-30.25,28.1l-7.25-5.45c-.81,1.86-1.63,3.72-2.44,5.57l-1,.51c-5.39,3-10.77,5.12-16-.3q-.81-5.07-1.6-10.12c.28-4-1.83-6.25-5.46-7.39l-4.13-3.08-6.47-5-10-6.9c-4.1-6.34-10.38-1.88-15.5-3.13-.08,3.19-.17,6.38-.25,9.57-10,16-19.59,2.91-28.43-1.12-33.66-15.37-68.38-5.34-102.2-3.32-36.85,2.2-69.38-9.86-102.84-20.65-12.26-3.94-23.71-1.05-35.5,3.12-21.07,7.45-81.44-6.42-93.07-20.54,2.79-3.33,6.38-8-.14-9.66-13.64-3.51-27.69-6.36-41.53-.09l-13-7.22-4-14.06,6.07-6.29,5.75-4.11c14.32,5.2,12.62-12.58,21.6-15h0c-1.71-28.44,14.57-22.55,31-16.28l20.87-1.85c23.82-.88,48.37,1.4,66.57,16.45,23.35,19.3,66.93,19.79,86.72-3.13,7-8.11,11.66-12.39,25.47-4.21,15.84,9.38,36,18,57,12.11q2.86.45,5.76.87a4.08,4.08,0,0,1,2.67,2.72,21.32,21.32,0,0,0,2.23,4.64c-5.21,13.87,4.83,18.87,14.13,24.31,12.32,9,26.07,5.25,39,3.26,15.57-2.37,25.41,2.47,30,17.62L932.18,680c25.57.64,50.82-21.76,77.11,1,10.4,9,17.56,15.28,6,27-5,5-12.69,8.89-6.57,16.81,5.86,7.55,12.81-1.15,19.38-.81,8.13-11.19,1.05-30.89,20.13-36a3.24,3.24,0,0,1,1.85-3.52l13.71,1.42h0c6,1.76,12.09,3.63,17.4-1.79,10.21-3.85,21.68-4.81,28.49-15.7,4-6.46,14.17-9.88,18.62-5.69,16.84,15.87,26.15,3.29,36.65-8.44,9,7.8-3.63,31,20,27.17C1186.58,681.18,1186.63,687.46,1183.74,690.17Z" transform="translate(19.14)"/><path class="cls-2" d="M1428.24,509.41c-2.87,10.86-11.53,19-20.41,12.35-33.64-25.16-73.12-22.82-111.29-27.28-11,2.23-21.78,3.5-12.29-12.88,8.43-14.55,17.91-27.63,38.66-24.82,23.21,3.12,47-1.49,70.17,5.5C1417,469.46,1428.64,484.65,1428.24,509.41Z" transform="translate(19.14)"/><path class="cls-2" d="M1340.65,651.41c-7.41-10-15.64,4.18-23.42,7.94-15.13,7.31-30.73,21-47.36,9.83-25.36-17.07-43.34-6.49-61.53,10.42,2.92,3,4.31,7.27,7.06,10.17-2.75-2.9-4.14-7.14-7.06-10.17-9.4,5.54-15,15-8.78,23.56,7,9.68,19-.3,28.68,1.48-1.63,11.38-5.89,19.32-19.72,17.4-10.49-1.46-20.68-.51-27.06,10-6.91,4.47-13.81,9.54-10,19,3,7.63,10.39,9.22,17.86,7.69,9.3-1.91,14.47,3.71,20.46,9.2,19.89,18.21,32.5,16.82,52.82-5.09,5.85-3.7,5.88-10.14,1.58-12.89-15.84-10.14-16.85-26.45-19.78-42.19,12.29,3.13,23.83,3,32.93-7.65,18.68-3.6,40.16-.11,52.15-20.62C1341.55,673.23,1346.66,659.53,1340.65,651.41Z" transform="translate(19.14)"/><path class="cls-2" d="M1354.17,252.86c17.11,1.82,33.55-18.07,42.26-13.44,15.19,8.09,29,14.55,46,14,3.28-.11,6.48-2.49,9.72-3.83q0-9.18,0-18.33c-11.7-9.68-22.16-29.81-37.07-2.09-2.65,4.92-12.87,1.37-18.92-3.7-20.51-17.23-35.31,4.41-52.6,8.69-1.51.38-2.2,8.17-1.55,12.23C1343,253.15,1348.63,252.27,1354.17,252.86Z" transform="translate(19.14)"/><path class="cls-2" d="M1159.85,503.78l-.27.07.05.18Z" transform="translate(19.14)"/><path class="cls-2" d="M1319,308.71l0-.09c-11.67-16-10-32.43-2.4-49.66,2.33-5.27-1.7-9.84-7.73-11.3-4.75,5.9-11.34,10.47-17.88,5.59-7.22-5.39-1.6-14.77-3-22.24h0a36.56,36.56,0,0,0,20.68-7.66l0,0,5-6.43c.45-3.14.91-6.29,1.36-9.43a9.31,9.31,0,0,1-1.23-4.9l-10.38-2.17a5.79,5.79,0,0,1-4.48,2.12l-5.89,5.31c-1.74,1.7-3.48,3.39-5.22,5.1q-.45,2.68-.93,5.38h0l-2.37,0-2.29-.64c-8.93,6.13-18.76,11.46-21.15,23.48-3.45,1.47-6.74,1.75-9.63-.59,3.18,7.82-.83,14-5.49,20-6.33,27.1,8.88,49.72,15.44,74.13q-.5,5.07-1,10.14c-9.89,3.05-18.48,7.62-13.52,20,4.67,11.68,12.77,18.41,26.3,12.34-1.57,10-8.35,16.72-15,23.57-3.53,3.63-8.1,7.29-5.49,13.3s8.25,5,13.36,5.53c25.43,2.52,32.72-8.56,24.22-37l.3-.16c-.09-.21-.19-.39-.28-.59,7.28-4.78,15.39-8.81,16.65-18.91-5.83-15.14-21.77-25.87-19.41-44.58,10.88.35,24.72,19.25,31.68-5.05A3.61,3.61,0,0,1,1319,308.71Zm-36.37,68.37c-.14.12-.29.24-.43.34l.06-.59c.14,0,.27,0,.4,0Z" transform="translate(19.14)"/><path class="cls-2" d="M1250.84,239.24l-.43.38a10,10,0,0,0,1,.95C1251.26,240.13,1251.06,239.69,1250.84,239.24Z" transform="translate(19.14)"/><path class="cls-2" d="M1417.12,694.54c.66.25,1.34.48,2,.69-.69-.21-1.37-.44-2-.69l-28.19,21.53c-8.43,4.95-16.72,10.38-15.83,21.72,1.71,21.74-6.24,38.71-23.21,52.22-4.23,3.37-11.91,8.41-6.26,14.74,6.31,7.09,13.11.55,18.15-3.82,11.83-10.28,21.35-25.54,34.94-31,25.78-10.38,37.09-29.93,45.63-53.38h0l4.27-5.49c26.93-7.34,19.9-35.55,33.39-51.86C1461.25,676.32,1432,672.94,1417.12,694.54Z" transform="translate(19.14)"/><path class="cls-2" d="M519.17,524.69c.2.56.37,1.14.53,1.74a26.16,26.16,0,0,1,.78,4.8h0c12.46,10.62,22.88,10,30.64-5.53h0c3.69-12.33,9.47-24.72-9.72-30.6-4.88-1.49-9.1-8.23-11.73-13.5-16.82-33.62-23.35-34.5-51-5.91h0l-12.84,8.15,11.43,15.73c14.25-9.91,21.44-2.54,26.23,10.66v0a30,30,0,0,1,10.7,6.53A20.56,20.56,0,0,1,519.17,524.69Zm9.24-10.27a12.37,12.37,0,0,0,4.74,5.69,12.37,12.37,0,0,1-4.74-5.69A44.68,44.68,0,0,0,516.58,497,44.57,44.57,0,0,1,528.41,514.42Z" transform="translate(19.14)"/><path class="cls-2" d="M1241.93,444.18c-11.28-3.19-19.75,5.3-22.18,16.43-2,9.09-11.19,6.87-15.16,12.16-10.89,7.92-21.11,20.33-7.48,29.31,12,7.91,24.79,30.87,44.51,12.43,11.16-10.44,30.07-20.67,11.82-40.54C1256.68,461.23,1256.35,448.26,1241.93,444.18Z" transform="translate(19.14)"/><path class="cls-2" d="M1398.48,429.52l-.11.09-.1.11Z" transform="translate(19.14)"/><path class="cls-2" d="M1383.9,408.79c-5.32,2.44-11.29,3.46-17,5.13l-.18.1-10.5,10.71c.12,1.92.23,3.84.35,5.76l5.92,4.57a15.3,15.3,0,0,1,4.66.55l5.29-.27,19.94-.64,6-5.09,5.26-5.52-.14,0C1406.08,407.28,1400.7,401.09,1383.9,408.79Z" transform="translate(19.14)"/><path class="cls-2" d="M1602.82,575c-10.82-3.21-14.17,6.79-18.4,14.08-19,17.63,4,43.78-13,62.49-7.21,7.94-.92,16.89,7.78,16.36,7.53-.47,20.36-10.55,16.18-16.22-13.93-18.91,9.8-18.51,11.94-28.35,8.6-8.21,7.43-18.85,6.07-28.85C1612.4,587.06,1611.19,577.47,1602.82,575Z" transform="translate(19.14)"/><path class="cls-2" d="M122.32,363.61,116.88,360l.07.11-10.19-6.2-11.31,1.69.51-2.23-5.31.71-10,5.91L75,365.72c2.83,13.1,12.32,21.59,19.92,31.84,9.63,13,17.89,18.4,32.3,9.52l4.25-9.68c3.44-11.22,2.49-21.82-4.51-31.55A6.51,6.51,0,0,1,122.32,363.61Z" transform="translate(19.14)"/><path class="cls-2" d="M1282.67,376.86l0,.22c-.14.12-.29.24-.43.34l.06-.59C1282.41,376.83,1282.54,376.85,1282.67,376.86Z" transform="translate(19.14)"/><path class="cls-2" d="M1409.56,350.9l6.71,2.92.61.18,14-2.72c13.17-4.35,5-13.59,4.83-21-9-1.59-18.67-1-26.55-7-6.75,5.41-13.78,10.7-9.37,21.08l6.7,4.95A3.86,3.86,0,0,1,1409.56,350.9Z" transform="translate(19.14)"/><path class="cls-2" d="M1399.32,646.85c-14.48,2.17-32.25-4-39.85,15.7,28.59,16.81,41.59,16.06,66.51-4,3.77,0,5.86-2.43,7.37-5.62,10.47-8.85,11.1-16.16-4.3-17.87C1417.7,633.84,1406,634.78,1399.32,646.85Z" transform="translate(19.14)"/><path class="cls-2" d="M1893.93,550.35c-14.64-34.65.16-72.85-13-107.69,6.68-.34,9.62,3.85,9.7,9.52C1891.08,484.93,1898.34,517.45,1893.93,550.35Z" transform="translate(19.14)"/><path class="cls-2" d="M187.65,476.87a5.34,5.34,0,0,1-2.4-4.4L181.08,466c-6.87-8.62-13.44-4.06-20,.46l-1.68,5.76c5,14.15,12.59,23.4,25.42,23-12.83.43-20.44-8.82-25.42-23-1.47,0-2.94-.08-4.4-.21l.12-.23-5.54,5.4.22-.24-5.51,6,.18,7.82,4.89,6.5,0,0c1.55,1.85,3.11,3.69,4.66,5.53l.3.4c11,10.43,24.2,7,37,5.69l.73-.71,4.54-4.58.24-11.21L191,480.28Zm-2.74,18.31a28.21,28.21,0,0,0,3.09-.29A28.21,28.21,0,0,1,184.91,495.18Z" transform="translate(19.14)"/><path class="cls-2" d="M1483.77,603.6c-5.35,2.59-10.76,5-16.13,7.54.66,3.84,1.92,6.27,3.56,7.78-1.64-1.51-2.9-3.94-3.56-7.78-11.4,4.92-21.54,15-14.88,25.26,5.31,8.2,18.16-2.72,27.63-4.81,4.18-.92,7.25-6.89,10.83-10.56a13.14,13.14,0,0,0-2.46-.33,13.14,13.14,0,0,1,2.46.33c9-2.75,20.59-6.28,15.31-17.62C1501.85,593.36,1491.53,599.83,1483.77,603.6Zm-8.93,17.23a12,12,0,0,0,1.61.29A12,12,0,0,1,1474.84,620.83Z" transform="translate(19.14)"/><path class="cls-2" d="M1313.77,202.39c0,.06,0,.11,0,.16l.12,0Z" transform="translate(19.14)"/><path class="cls-2" d="M1468.08,248.82c4.54-5.19,9.21-10.89,5.46-17.94s-10.22-3.13-15.74-1.89c-1.91.77-3.81,1.53-5.72,2.27q0,9.13,0,18.37C1458,259.35,1463.56,264.22,1468.08,248.82Z" transform="translate(19.14)"/><path class="cls-2" d="M1725.41,403l31.35-4.58C1743.82,382.88,1735,395.68,1725.41,403Z" transform="translate(19.14)"/></g></g></g></g></svg>