<svg xmlns="http://www.w3.org/2000/svg" viewBox="0 0 533.73 253.44"><defs><style>.cls-1{fill:#d1ecf8;}</style></defs><g id="Layer_2" data-name="Layer 2"><g id="Layer_1-2" data-name="Layer 1"><path class="cls-1" d="M533.49,0H50.14C71.85,6.69,85.54,19.84,88.4,37.88,90.8,53,85,69.41,72.11,84.25,58.63,99.74,38.71,112.1,14.5,120c-5.6,1.82-9.44,5-11.75,9.79-8.64,17.83,4.87,54.39,15.71,83.76,5.82,15.74,10.85,29.37,12.78,39.91,19.39-48.85,41.3-60.58,93.12-54.83,17,1.89,34,4.3,51.22,3.7s30.47-7.82,39-25.33c4.95-10.14,10.7-19.78,16.08-29.66C238.52,132.89,250,126.41,265,126c18.54-.48,36.74,2.35,54.92,5.67,25.41,4.64,47.21-2.08,61.79-27.35C402.11,68.89,432.87,49.65,466,33.9,488.42,23.22,511.14,13.27,533.73,3Z"/></g></g></svg>