<svg xmlns="http://www.w3.org/2000/svg" xmlns:xlink="http://www.w3.org/1999/xlink" viewBox="0 0 1920 869.78"><defs><style>.cls-1{fill:none;}.cls-2{fill:#fff;}.cls-3{fill:#d1ecf8;}.cls-4{clip-path:url(#clip-path);}.cls-5{fill:url(#radial-gradient);}.cls-6{fill:#24758e;}.cls-7{fill:#81b63e;}.cls-8{fill:url(#radial-gradient-23);}.cls-9{opacity:0.1;}.cls-10{clip-path:url(#clip-path-2);}</style><clipPath id="clip-path" transform="translate(813.69 435.5)"><path class="cls-1" d="M98.15,434.28a6.73,6.73,0,0,0,5.23-2.32c-1.7-5.53-6.64-5.59-10.2-7.64-24.71-14.23-50.62-25.85-73.92-43.09-22.54-16.67-23.82-22.11-11.45-49,4.37-9.52,6.69-19.47-.29-28.18-5.82-7.26-3.73-11.21,2.2-15.9,9.08-7.18,17.84-14.87,26.76-22.3C73.54,235,109.8,203.09,143.4,167.37s53.21-78,56.53-129.78c.52-8.12,1.26-16.23,2-24.32.44-4.61-1.11-10.87,3.49-12.92,4.06-1.8,6.47,3.74,9,6.67,7.49,8.55,14.74,17.35,22,26.17,24,29.28,35.92,63.54,34.1,103.61-.55,12,2,24.66-.74,35.84-7.8,32.11,4.92,49.12,29.1,63.46,22.86,13.57,40.54,34.23,40.62,66.62.05,20.25-3.52,40-7.33,59.71a609.66,609.66,0,0,1-15,61c-.89,2.92-2.71,7.19,1.23,8.7Z"/></clipPath><radialGradient id="radial-gradient" cx="-121.71" cy="17.48" r="1227.42" gradientUnits="userSpaceOnUse"><stop offset="0" stop-color="#2383c5" stop-opacity="0"/><stop offset="1" stop-color="#d45127"/></radialGradient><radialGradient id="radial-gradient-23" cx="519.28" cy="-381.34" r="0.08" xlink:href="#radial-gradient"/><clipPath id="clip-path-2" transform="translate(813.69 435.5)"><path id="SVGID" class="cls-2" d="M98.15,434.28a6.73,6.73,0,0,0,5.23-2.32c-1.7-5.53-6.64-5.59-10.2-7.64-24.71-14.23-50.62-25.85-73.92-43.09-22.54-16.67-23.82-22.11-11.45-49,4.37-9.52,6.69-19.47-.29-28.18-5.82-7.26-3.73-11.21,2.2-15.9,9.08-7.18,17.84-14.87,26.76-22.3C73.54,235,109.8,203.09,143.4,167.37s53.21-78,56.53-129.78c.52-8.12,1.26-16.23,2-24.32.44-4.61-1.11-10.87,3.49-12.92,4.06-1.8,6.47,3.74,9,6.67,7.49,8.55,14.74,17.35,22,26.17,24,29.28,35.92,63.54,34.1,103.61-.55,12,2,24.66-.74,35.84-7.8,32.11,4.92,49.12,29.1,63.46,22.86,13.57,40.54,34.23,40.62,66.62.05,20.25-3.52,40-7.33,59.71a609.66,609.66,0,0,1-15,61c-.89,2.92-2.71,7.19,1.23,8.7Z"/></clipPath></defs><g id="Layer_2" data-name="Layer 2"><g id="Layer_1-2" data-name="Layer 1"><path class="cls-3" d="M98.15,434.28a6.73,6.73,0,0,0,5.23-2.32c-1.7-5.53-6.64-5.59-10.2-7.64-24.71-14.23-50.62-25.85-73.92-43.09-22.54-16.67-23.82-22.11-11.45-49,4.37-9.52,6.69-19.47-.29-28.18-5.82-7.26-3.73-11.21,2.2-15.9,9.08-7.18,17.84-14.87,26.76-22.3C73.54,235,109.8,203.09,143.4,167.37s53.21-78,56.53-129.78c.52-8.12,1.26-16.23,2-24.32.44-4.61-1.11-10.87,3.49-12.92,4.06-1.8,6.47,3.74,9,6.67,7.49,8.55,14.74,17.35,22,26.17,24,29.28,35.92,63.54,34.1,103.61-.55,12,2,24.66-.74,35.84-7.8,32.11,4.92,49.12,29.1,63.46,22.86,13.57,40.54,34.23,40.62,66.62.05,20.25-3.52,40-7.33,59.71a609.66,609.66,0,0,1-15,61c-.89,2.92-2.71,7.19,1.23,8.7Z" transform="translate(813.69 435.5)"/><g class="cls-4"><path class="cls-5" d="M-299-27.58c-2.3,3.52-7.26,7.88-6.46,10.47,10.28,33.52,0,67.89,4.79,101.53l-5.73,4.11q-3,3.15-6.08,6.29c-4.91-.34-9.83-.69-14.76-1-1.7-3.92-4.95-5.42-9-5.74-2.91-3.35-5.82-3.32-8.71,0l-14.18.69c-8.33-2.62-12.6,10.07-21.4,5.65l-.18-.23-4.8-5.72c-1.65-2.1-3.31-4.22-5-6.33-1.39-1.55-2.78-3.1-4.17-4.67-11.88-12.61-26.9-20.28-42.53-27l-.16.07c-2.19-1.44-4.39-2.86-6.58-4.28,0,0,0,0,0,0-1.77-1.3-3.55-2.59-5.31-3.9a3.58,3.58,0,0,0-3.62-2.1c-19.75-8.06-17.69-35.15-37.64-43,0,.06.16.28.16.29l-6.59-4.37c-1.78-1.29-3.58-2.56-5.35-3.84l-17.24-17.23c-1.16-2.24-2.32-4.47-3.47-6.71a3.31,3.31,0,0,0-1.58-3.85c.44-3.26-1.24-4.84-4.25-5.37l0,0-5.37-4.63a2,2,0,0,0-2.66-1.5l-7.74-5c-.82-6.85,4-14.06-1.26-20.63l-3.56-5.6-.19-.33.05.06c-2-3.2-4-6.42-6.07-9.63l-.12-.23-4.41-6.31.28.27c-5.5-11.68-11.32-23.13-21.12-31.94-.88-3.15-2.86-4.74-6.24-4.32q-3.25-2.84-6.5-5.7c.59-4.22,1.8-8.61-3-11.4,0,0,0-.11,0-.11-4.43-8.71-12.77-9.9-21.16-11l.23.32-6.58-3.38c-16.44-10.24-13-28-16.5-43.2-.64-12.84-5.28-22.25-19.87-23.11-28.3-8.09-39.06-33.62-54.38-54.64-16.72-22.94-45-31.09-64.74-50.86-10.61-10.65-20.3-21.11-28.15-33.82-9-14.63-8.36-26,8.35-33.94,5.57-10.33,12.44-13.06,23.57-6.6,23.78,13.81,49.71,17.94,77,21.78,14.21,2,37.5,17.58,36.66,43.07l12,10.17,26.75,7.62c28.61-13.27,40.23-5.86,40,25.47,11.79,16.12,22,34.29,45.67,35,.82,0,2.15.41,2.37,1,11,27.12,49.69,24.68,58.08,54.73,2.75,9.84,12.77,7.25,19.78,9.94,13,5,18.94,23.84,40.59,14.16,8.89-4,14.95,16.11,7.45,26.71-16,22.6-3.73,30.79,16.17,35.49,27.28,6.43,22.82,36.94,39.74,51.05l11.43,15.72c14.26-9.91,21.44-2.54,26.23,10.66-2.18,2.69-4.37,5.46-6.92,7.34,2.56-1.87,4.74-4.64,6.93-7.32A30,30,0,0,1-305.4-42a20.72,20.72,0,0,1,5,7.9c.19.57.38,1.15.53,1.74a28.08,28.08,0,0,1,.79,4.81h0Z" transform="translate(813.69 435.5)"/><path class="cls-5" d="M1103.64,154.14c2.9-16,1.36-32-.78-48-.94-17.28,5.41-35.36-5.69-51.52l-.59-1.47c-9.37-12.27-2-21.84,5.1-31.45q-.21-8.25-.4-16.52A18,18,0,0,1,1099.76,2c-.1-.33.81-.94,1.26-1.42,1.65-11.44,2.21-22.84-1.64-34-14.64-34.66.16-72.86-13-107.69a1.67,1.67,0,0,0-2.58-.91c-2.39-7.28-7.31-10.45-13.49-10.45a22,22,0,0,0-4.9.59c-16.75,3.86-31.77-1-46.63-7.6h0c-5.21-8-14.12-7.28-21.88-9.31a22.61,22.61,0,0,0,1.39,2.4,21,21,0,0,1-1.4-2.4l-.63-.6h0c-4.78-12.76-16.11-10.18-26-11.06h0l-8.09-4.91-31.35,4.58a2.08,2.08,0,0,0-2.93,1.1,3.74,3.74,0,0,0-.18.62,3.74,3.74,0,0,1,.17-.62c-19.83,5.39-37.28-5.15-55.47-5.76-1.23-11.13,18-14.34,5.83-26.11-12-11.62-24.14-24.81-42.71-17.38-11.22,4.48-19.85,13.23-5,25,6.09,4.81,13.16,9.57,8.67,19.3-11.15,7.37-13.91,13.09.56,21.22,13.12,7.37,25.84,7.88,39.61,5.28,6.14,12.81-8.41,15.67-11.52,24.05,0,0-.18.29-.18.29,2.3,8.39,3.2,16.06-8.7,17.29q-.79-2.43-1.73-4.8C847-117,845-101,830.62-102.18c-16.58-8.47-16.62-29.28-29.9-40.27-.64,5.74-3,7.9-8,3.6-13.15-11.37-15.53-26.37-14-42.57,1-10.16,4.87-20.24.57-30.49l-4.86-11.65c-11.42-6.66-27.86,5.34-36.94-9.95l-6-4.64c-14-1.85-28-2.85-41.94.39a5.29,5.29,0,0,1-3.42,1.57l-7.48,2.6c-7.88,6-19.65,2.74-26.53,11.13-1.4.2-2.8.42-4.19.66-18.44,10-26.7,24.63-21,45.68,13.87,3.59,35-7.26,39.91,12.73,2.94,11.94,10.27,16.6,16.49,24,14.44-11.69,33.18,2,47.9-8.11-1.8,13.71-9.34,19.18-23,16.55-6.44-1.25-13.54-4.67-18.48,3.27l-5.88.16c-9,9.68-14,17.11,3.62,24.69C698-98.25,715.1-94.43,706.9-73.42c-2.74,7,6.37,16.34,14.55,19.85s12.28-3.9,16.21-9.73l15.66-12.2c4.64,3.43,10,10.28,13.92,10.28a2.81,2.81,0,0,0,.65-.07c17.71-3.94,27.05-.27,33.85,18.55,2.33,6.46,17,16,31.2,15.32,50.73-2.43,89.93,27,131.68,49.25,4.67,2.49,6,5.17,3.37,10.3-5.58,10.76,2.67,17.69,7.49,25.86,12.27,20.8,31.73,42.18,28.77,65.27-3.54,27.59,10.08,21.62,22.86,18.1,11.84-3.29,20.47-1.81,28.57,6.63,7.93,8.27,15.5,16.92,24,24.63,5.07,4.62,8.12,15.84,18.59,8.53C1106.61,171.3,1108.57,163.39,1103.64,154.14ZM755.88-95a14,14,0,0,0,.5-1.66A13.41,13.41,0,0,1,755.88-95Zm102.64-17.84c0,.42,0,.84-.08,1.26h0C858.47-112,858.49-112.46,858.52-112.88Zm-.09,1.27q.06,3.15.11,6.33C854.23-107.33,854.26-109.44,858.43-111.61Zm35.63-11.47c0-.2-.07-.39-.11-.57,0,.18.08.37.12.58s.06.32.1.47C894.13-122.76,894.09-122.92,894.06-123.08Zm124.49-36.42.56.55-.57-.54-1.39.19Zm27.35,279.35-.8.29c-.95.35-1.94.73-2.94,1.12-1.33.51-2.7,1-4.06,1.51,1.37-.48,2.73-1,4.06-1.51l2.94-1.13.8-.28a16.19,16.19,0,0,1,8.14-.61A16.41,16.41,0,0,0,1045.9,119.85Zm8.69-.5a15,15,0,0,1,1.91.55A16.82,16.82,0,0,0,1054.59,119.35ZM1096,93.81a15.68,15.68,0,0,0-1.29-1.92,14.62,14.62,0,0,1,1.29,1.92c.4.67.76,1.39,1.11,2.12C1096.72,95.2,1096.35,94.48,1096,93.81Z" transform="translate(813.69 435.5)"/><path class="cls-5" d="M455.53-354.29c-9-1.31-17.51-.86-24.7,5.6l-33.4,20.06c-6.95,4.95-14,7.08-21.34.76l-21.21-.76c-1.62,3.15-3.37,3.18-5.22.2l-5.24-1.39-6.52-3.55a3.46,3.46,0,0,1-3.82-1.44l-6.49-3.26-30.36-2.28c-16-9-32-20.09-48.25-.35l-5.57,1.38c-1.5,4.49-3.15,3.78-4.86.13a44.13,44.13,0,0,1-5.27.05c-1.86,1.5-3.71,3-5.57,4.53l-.46.44q-8.06,10.34-16.09,20.69a40.32,40.32,0,0,1-4.39.62l-9.92,11.2c2.19,10.56-6.77,17.3-9.07,26.33-2.87-16.76-22.79-18.09-29-31.82-26.06-6.28-16.17-26.21-16.07-42.4l.1.08c-14.44-14.18-24.14-29.08-7.42-48.07q-.66-6.42-1.33-12.82l-2-9.5c-2.84-.66-3.78-2.4-2.89-5.16a9.09,9.09,0,0,1-2-4.14l-10.55-1.32c-16.7,20.53-30.55.31-45.57-3.2l-15.31,0,0,1.41L55-433.58a3,3,0,0,1-1.88-1.92l-10.93,6.41c-.06,12.28.62,24.62-.45,36.81-.81,9.43-2.2,19.91-15.64,20.31-3.47.06-6.94.14-10.4.19l-4.93,6.57c-2.33,12.26,13.66,29.5-9.8,36C-2.52-320.79-9.59-316-16.93-311.38c-30.26,25.81-32.74,25.94-50.93,2.25-20.51-12.79-39.79-16.1-57.76,5.11a16.53,16.53,0,0,1-19.25,4.17c-5,1.08-11.71.45-14.88,3.48-14.59,14-27.13,8.33-39.78-2.35-17.92-11.48-24.48-31.69-36.62-47.61l-1.1-1-11.34-1.76c-.08,1.3-.15,2.61-.2,3.9-1.94.09-3.87.16-5.81.23l-4.94,2s-1.55,1.08-1.55,1.11a7.37,7.37,0,0,1,.2,1c-3.95,9.55-7.64,19.21-11.89,28.62-9.25,20.5-30.94,41.22,2,60.43,1.74,1,3.19,5,2.64,7.06-6.75,24.64,10.28,34.24,27.13,44.55,9.84,6,16.8,11.49,11.74,27.2-11.55,35.85,9.56,59.63,46.18,56.45,8-.71,20.19-7,23.65,3.83,9.58,30,29.73,16.56,46.86,12.61,8.34-1.93,18.24-10.17,24.36-3.28,10.58,11.94,23.48,10.6,36.13,11.35,14.54.87,24.31,5.42,22.22,21.94-1.95,15.39,5.34,16.49,17,12C-4.7-61.37,4-63.61,10.05-70.61c8.07,1.38,14.19-4,22.85-7.39,0,5.45,0,9.65,0,13.84.05,7-.56,15.71,6.7,18.53,8.86,3.44,14.49-5.23,19.09-10.76,15.41-18.51,9.22-36.32-3.84-53.24-.42,1-.87,2-1.36,2.91a36.72,36.72,0,0,1-2.35,4,41.11,41.11,0,0,1-2.7,3.53,43.25,43.25,0,0,0,2.7-3.53,40.3,40.3,0,0,0,2.35-4q.72-1.4,1.35-2.91c13.78-14.13,28.32-28,13.43-49.9-4.68-6.89-.83-13.08,5-15.11,40.39-14,52.9-44.22,50.22-83.68l-.42.49c0-.1.4-.82.4-.82s0,.21,0,.33l3.84-4.43c11.83-28.32,35-10.3,53.08-13,2.49.2,5,.42,7.41.63a.52.52,0,0,1,0-.11l5.93,5.4c-16.51,31.75-20.28,68-35.16,100.29h0c-14.21,9.3-10.62,23.38-9.84,36.7,22.44-10,30.17.51,30.25,21.68,6.59,13.24,4.16,25.5-4,37.15l-6.78,20.8c.46,2,.93,4.08,1.39,6.11l5.24,4.73.16.11c2,1.55,4.09,3.11,6.15,4.65l-.22-.33c17.58-10.26,40.25,7.84,56.45-10.1.21-3,.43-6,.63-8.92a31.91,31.91,0,0,1-4.29-1.25c-1.09-8.26-8-16.41-8-24.69,0-4.27,1.85-8.58,7.3-13,.21-3.34.43-6.68.64-10q.18-13.23.38-26.47-.74-10.8-1.47-21.6c-1.14,0-2.27,0-3.41.07,1.14,0,2.27-.06,3.41-.08q-2.33-7.51-4.69-15h0c30.28-.56,30.28-.56,15.19,36.48q5.79,10.57,11.58,21.12c1.71.4,3.42.85,5.11,1.37,22.52,5.06,8.76,18.64,6.91,29.42l9,11.81,9.64.73,11-.59c1.21,6.46,4.24,9.85,9.23,9.85a16.62,16.62,0,0,0,5.62-1.13c14-5.06,10.72,5.82,11.76,12.71-.84,13.73,6.92,12.61,16,9.25l5.54-4.35L350-47.25l.2-.22L355-53.16l-.13.09c3.26-9-5.45-22.64,10.15-26.9q-3-10.61-6-21.2c1.53-1.6,3.07-3.19,4.62-4.79-1.06-3.53-2.1-7.06-3.15-10.59l-21,2.9L327.2-130.81l-.18.27c-12.58-.42-16.27-6.73-12-18.25,6-3.36,10.25-7.67,8.3-15.33-5.36-1.75-8.57-5.67-10.72-10.64q-4.43-5-8.85-9.93a71.56,71.56,0,0,1-6,4.56c2.07-1.5,4.14-3,6-4.57-16.95-23.43-13.74-28.85,20.19-34.22q-.08,6.06-.13,12.12l5,1.89a3.8,3.8,0,0,1,4.53,1.52l6.23-1.34,4.56-2.65-.12.22c6.56-5.07,14-4.57,21.61-3.58L371-212l10.11-10.85c.18-3.43.37-6.84.55-10.27l-2.6-.21-2.51.64h0l-4.72-2.5c-6.75.77-6.12-4.19-6.51-8.37,1.68-.52,3.38-1,5.08-1.34,1.09-3.21,2.16-6.42,3.25-9.64q-3.9-5.26-7.79-10.52-7.9-.57-15.82-1.11c-16.53,7.27-33.5,13.8-51.8,12.73-17-1-25.33,13.14-38.1,19.36-3.64-7.12-3.73-18.49-16.94-14.14-4.79-11.74-21.69-15-21.09-30.69.38-9.58-.55-19.42,11.4-23.17h0l143.27,14.54c10.3-.12,21.19,3.78,30.29-4.48a15,15,0,0,1,1.4-4.62c1.58-.28,3.15-.63,4.7-1.06l25.4-26.22c.36-11.45,8.78-16,17.29-20.47C455.75-347.67,455.64-351,455.53-354.29Zm-714.32,38.51.84-1.45-.83,1.45-1.52,2.68Zm-.67,45.07c.84.7,1.74,1.4,2.71,2.1C-257.72-269.3-258.62-270-259.46-270.71Zm42,63a18.26,18.26,0,0,1,1.69,2.24A20.22,20.22,0,0,0-217.49-207.74Zm4.73,17.9c-.11.93-.26,1.89-.44,2.9.18-1,.32-2,.44-2.9.73-6.4-.29-11.06-2.53-14.86C-213-200.92-212-196.25-212.76-189.84ZM-195-133.79a37.35,37.35,0,0,1-9.1-3.54,38.18,38.18,0,0,0,9.1,3.54c1.14.28,2.32.55,3.55.77C-192.69-133.24-193.87-133.5-195-133.79ZM159-169a11.37,11.37,0,0,1,1.6,2.11A12.07,12.07,0,0,0,159-169Zm24,16.75a4.63,4.63,0,0,1,2-.25A5,5,0,0,0,183.05-152.3Zm156.66,41.66a11.73,11.73,0,0,0-.15-2.32A11,11,0,0,1,339.71-110.64Zm15.37-133c-1.35-.1-2.68-.19-4-.17C352.4-243.88,353.74-243.79,355.08-243.69Zm-15.48,8.37c-.22.73-.42,1.54-.6,2.4h0C339.17-233.78,339.37-234.59,339.6-235.32Zm-76.87,20.41a4.1,4.1,0,0,1-.62.53A6.6,6.6,0,0,0,262.73-214.91Zm-34.87,35.63c2.9-.7,5.78-1.43,8.67-2.14-2.89.71-5.77,1.45-8.67,2.15Z" transform="translate(813.69 435.5)"/><path class="cls-6" d="M233.44,140.94c33.54,7.17,67.06,14.88,98.85-6.46a13.28,13.28,0,0,1,10-1.67c25.28,7.95,33.44-13.83,46.86-26.46,2.9-2.72,2.85-9,1.17-8.72-23.59,3.87-11-19.37-20-27.17-10.49,11.72-19.81,24.31-36.64,8.43-4.45-4.19-14.58-.76-18.63,5.7-6.81,10.88-18.28,11.85-28.49,15.7-5.3,5.42-11.36,3.55-17.4,1.79h0l-13.7-1.42a3.24,3.24,0,0,0-1.86,3.51c-19.07,5.07-12,24.77-20.12,36Z" transform="translate(813.69 435.5)"/><path class="cls-7" d="M233.44,140.94c-6.87,12.82-13.27,26.14-30.24,28.11q-3.64-2.72-7.25-5.45c-.82,1.86-1.64,3.72-2.44,5.57l-1,.51c-5.38,3-10.76,5.12-16-.31-.55-3.37-1.08-6.74-1.61-10.12.29-4-1.83-6.24-5.46-7.38l-4.13-3.09c-2.15-1.65-4.31-3.31-6.47-4.95l-10-6.9c-4.09-6.34-10.37-1.88-15.49-3.13-.08,3.19-.18,6.38-.26,9.57-10,16-19.58,2.91-28.43-1.13C71,126.88,36.33,136.91,2.51,138.93c-36.85,2.2-69.38-9.86-102.85-20.65-12.25-4-23.7-1-35.49,3.12-21.08,7.45-81.44-6.42-93.08-20.54,2.8-3.33,6.38-8-.14-9.66-13.64-3.52-27.68-6.37-41.52-.09q-6.51-3.6-13-7.23-2-7-3.95-14l6.07-6.29,5.75-4.11c14.32,5.19,12.62-12.58,21.6-15h0c-1.71-28.44,14.56-22.55,31-16.27l20.88-1.85c23.81-.88,48.37,1.4,66.56,16.45C-112.27,62-68.68,62.5-48.9,39.58c7-8.11,11.66-12.39,25.48-4.21,15.84,9.38,36,18,56.94,12.11,1.92.3,3.84.58,5.77.87A4.08,4.08,0,0,1,42,51.07a21.55,21.55,0,0,0,2.23,4.64C39,69.58,49,74.58,58.31,80c12.32,9,26.07,5.24,39,3.26,15.57-2.37,25.42,2.46,30,17.61l10.32-4.73c25.57.63,50.82-21.76,77.11,1,10.39,9,17.56,15.27,6,26.95-5,5-12.7,8.89-6.57,16.8,5.85,7.56,12.8-1.14,19.38-.8Z" transform="translate(813.69 435.5)"/><path class="cls-5" d="M633.68-74.41c-2.87,10.85-11.53,19-20.4,12.35C579.64-87.22,540.16-84.88,502-89.35c-11,2.24-21.79,3.51-12.29-12.88,8.42-14.54,17.91-27.62,38.65-24.82,23.22,3.13,47-1.48,70.18,5.5C622.42-114.36,634.08-99.17,633.68-74.41Z" transform="translate(813.69 435.5)"/><path class="cls-5" d="M546.1,67.58c-7.41-10-15.65,4.19-23.42,8-15.13,7.31-30.73,21-47.36,9.83C450,68.28,432,78.87,413.78,95.78c2.93,3,4.31,7.26,7.06,10.17-2.75-2.91-4.13-7.14-7.06-10.17-9.39,5.54-15,15-8.77,23.56,7,9.68,19-.31,28.68,1.48-1.63,11.38-5.9,19.31-19.72,17.4-10.49-1.46-20.68-.51-27.07,9.95-6.9,4.46-13.8,9.54-10,19,3,7.63,10.39,9.22,17.87,7.69,9.29-1.91,14.46,3.71,20.46,9.2,19.88,18.21,32.5,16.81,52.81-5.09,5.86-3.71,5.89-10.14,1.59-12.9-15.84-10.14-16.85-26.44-19.78-42.18,12.29,3.12,23.82,3,32.92-7.65,18.68-3.6,40.17-.11,52.16-20.63C547,89.41,552.11,75.71,546.1,67.58Z" transform="translate(813.69 435.5)"/><path class="cls-5" d="M559.61-331c17.12,1.82,33.56-18.07,42.26-13.44,15.2,8.08,29,14.54,46,14,3.28-.11,6.48-2.5,9.71-3.83q0-9.18,0-18.33c-11.69-9.68-22.15-29.81-37.07-2.09-2.64,4.91-12.87,1.37-18.91-3.7-20.52-17.23-35.32,4.41-52.6,8.69-1.51.38-2.21,8.16-1.55,12.23C548.48-330.68,554.08-331.55,559.61-331Z" transform="translate(813.69 435.5)"/><path class="cls-5" d="M365.29-80,365-80l.05.18Z" transform="translate(813.69 435.5)"/><path class="cls-5" d="M524.46-275.11l0-.09c-11.68-16-10-32.44-2.41-49.66,2.33-5.28-1.69-9.85-7.72-11.31-4.76,5.91-11.34,10.48-17.88,5.59-7.22-5.38-1.61-14.77-3-22.23h0a36.59,36.59,0,0,0,20.68-7.67l0,0c1.66-2.14,3.3-4.28,5-6.43.45-3.14.91-6.28,1.36-9.42a9.25,9.25,0,0,1-1.24-4.9l-10.37-2.18a5.82,5.82,0,0,1-4.48,2.13l-5.9,5.3-5.21,5.11-.93,5.37h0l-2.37,0-2.29-.63c-8.94,6.12-18.76,11.46-21.15,23.48-3.46,1.46-6.74,1.75-9.63-.59,3.18,7.82-.83,14-5.49,20-6.33,27.1,8.88,49.73,15.43,74.14-.32,3.38-.65,6.75-1,10.14-9.88,3-18.47,7.61-13.51,20,4.67,11.69,12.77,18.41,26.3,12.35-1.57,10-8.35,16.71-15,23.56-3.52,3.63-8.09,7.29-5.49,13.3s8.25,5,13.37,5.53c25.43,2.53,32.72-8.55,24.21-37,.1-.06.21-.1.31-.17-.09-.2-.2-.38-.29-.58,7.28-4.78,15.4-8.81,16.66-18.91C506.59-236,490.64-246.78,493-265.49c10.89.35,24.73,19.25,31.68-5.05A3.62,3.62,0,0,1,524.46-275.11Zm-36.37,68.37-.43.34.06-.6c.14,0,.26,0,.4,0Z" transform="translate(813.69 435.5)"/><path class="cls-5" d="M456.28-344.59l-.42.38a10.05,10.05,0,0,0,1,1C456.7-343.69,456.51-344.14,456.28-344.59Z" transform="translate(813.69 435.5)"/><path class="cls-5" d="M622.57,110.71c.66.26,1.34.48,2,.69-.69-.21-1.37-.43-2-.69l-28.2,21.53c-8.42,5-16.72,10.38-15.83,21.73,1.71,21.74-6.23,38.7-23.2,52.21-4.24,3.38-11.91,8.41-6.27,14.75,6.32,7.09,13.12.55,18.16-3.82,11.83-10.29,21.35-25.54,34.93-31,25.79-10.38,37.1-29.93,45.64-53.38h0l4.27-5.49C679,119.89,672,91.68,685.46,75.36,666.7,92.5,637.42,89.12,622.57,110.71Z" transform="translate(813.69 435.5)"/><path class="cls-5" d="M-275.39-59.13q.3.84.54,1.74a26.16,26.16,0,0,1,.78,4.8h0c12.45,10.62,22.88,10,30.63-5.53h0c3.69-12.32,9.48-24.72-9.71-30.59-4.88-1.49-9.1-8.23-11.74-13.5-16.81-33.62-23.35-34.5-51.05-5.91h0L-328.77-100q5.73,7.86,11.43,15.73c14.26-9.91,21.45-2.54,26.23,10.65,0,0,0,0,0,0A30.08,30.08,0,0,1-280.4-67,20.78,20.78,0,0,1-275.39-59.13Zm9.25-10.27a12.29,12.29,0,0,0,4.73,5.69,12.42,12.42,0,0,1-4.74-5.69A44.67,44.67,0,0,0-278-86.8,44.79,44.79,0,0,1-266.14-69.4Z" transform="translate(813.69 435.5)"/><path class="cls-5" d="M447.37-139.64c-11.27-3.19-19.75,5.3-22.17,16.42-2,9.09-11.19,6.88-15.16,12.16-10.89,7.93-21.11,20.33-7.49,29.31,12,7.92,24.79,30.88,44.51,12.43,11.16-10.44,30.08-20.66,11.83-40.53C462.13-122.6,461.8-135.56,447.37-139.64Z" transform="translate(813.69 435.5)"/><path class="cls-5" d="M603.93-154.3l-.11.09-.1.1Z" transform="translate(813.69 435.5)"/><path class="cls-5" d="M589.35-175c-5.32,2.44-11.3,3.46-17,5.13l-.18.1-10.51,10.7.36,5.77,5.92,4.56a15.21,15.21,0,0,1,4.65.56l5.3-.27,19.94-.64,6-5.09,5.25-5.52-.13,0C611.53-176.55,606.15-182.73,589.35-175Z" transform="translate(813.69 435.5)"/><path class="cls-5" d="M808.26-8.84C797.45-12,794.1-2,789.86,5.25c-19,17.63,4,43.78-13,62.49-7.21,7.94-.92,16.89,7.79,16.35,7.53-.46,20.36-10.54,16.18-16.22-13.93-18.9,9.79-18.5,11.94-28.35,8.6-8.2,7.42-18.84,6.06-28.84C817.84,3.23,816.64-6.35,808.26-8.84Z" transform="translate(813.69 435.5)"/><path class="cls-5" d="M-672.24-220.22l-5.43-3.61.07.11-10.2-6.2-11.31,1.69.52-2.24-5.31.71-10,5.92-5.62,5.73c2.82,13.1,12.32,21.6,19.92,31.85,9.63,13,17.88,18.4,32.3,9.51q2.12-4.83,4.25-9.67c3.43-11.23,2.48-21.83-4.52-31.56A6.47,6.47,0,0,1-672.24-220.22Z" transform="translate(813.69 435.5)"/><path class="cls-5" d="M488.12-207l0,.23-.43.34.06-.6C487.86-207,488-207,488.12-207Z" transform="translate(813.69 435.5)"/><path class="cls-5" d="M615-232.92l6.71,2.92s.61.18.61.17l14-2.71c13.17-4.35,5.06-13.59,4.84-21-9-1.59-18.68-1-26.55-7.05-6.76,5.42-13.78,10.71-9.37,21.09l6.7,5A3.88,3.88,0,0,1,615-232.92Z" transform="translate(813.69 435.5)"/><path class="cls-5" d="M604.77,63c-14.49,2.16-32.26-4-39.85,15.7,28.59,16.81,41.58,16.06,66.5-4,3.78,0,5.86-2.43,7.37-5.62,10.48-8.85,11.1-16.16-4.3-17.87C623.15,50,611.44,51,604.77,63Z" transform="translate(813.69 435.5)"/><path class="cls-5" d="M1099.38-33.47c-14.64-34.66.16-72.86-13-107.69,6.69-.34,9.62,3.85,9.71,9.51C1096.52-98.9,1103.78-66.38,1099.38-33.47Z" transform="translate(813.69 435.5)"/><path class="cls-5" d="M-606.91-106.95a5.38,5.38,0,0,1-2.4-4.41l-4.16-6.46c-6.87-8.63-13.44-4.06-20,.46l-1.68,5.76c5,14.14,12.59,23.4,25.42,23-12.83.44-20.45-8.82-25.43-23-1.47,0-2.93-.07-4.39-.21l.11-.23-5.53,5.41.22-.25-5.51,6c.06,2.6.12,5.21.17,7.81l4.9,6.51,0,0c1.55,1.84,3.1,3.69,4.66,5.53l.29.39c11,10.44,24.21,7,37.05,5.7l.73-.71q2.27-2.3,4.54-4.58c.07-3.74.15-7.47.23-11.21l-5.88-12.15Zm-2.73,18.31a30.91,30.91,0,0,0,3.09-.29A30.91,30.91,0,0,1-609.64-88.64Z" transform="translate(813.69 435.5)"/><path class="cls-5" d="M689.21,19.77c-5.34,2.59-10.75,5-16.13,7.55.67,3.84,1.92,6.27,3.57,7.77-1.65-1.5-2.9-3.93-3.57-7.77-11.4,4.92-21.54,15-14.87,25.26,5.3,8.19,18.15-2.72,27.62-4.81,4.19-.93,7.26-6.89,10.83-10.56a13,13,0,0,0-2.46-.33,13,13,0,0,1,2.46.33c9-2.76,20.6-6.29,15.31-17.62C707.29,9.54,697,16,689.21,19.77ZM680.28,37a14.44,14.44,0,0,0,1.62.29A14.44,14.44,0,0,1,680.28,37Z" transform="translate(813.69 435.5)"/><path class="cls-8" d="M519.22-381.43v.16l.13,0Z" transform="translate(813.69 435.5)"/><path class="cls-5" d="M673.53-335c4.53-5.19,9.2-10.89,5.45-17.94s-10.22-3.13-15.73-1.89c-1.91.76-3.82,1.53-5.73,2.27q0,9.13.05,18.36C663.42-324.47,669-319.61,673.53-335Z" transform="translate(813.69 435.5)"/><path class="cls-5" d="M930.86-180.85l31.35-4.58C949.27-200.94,940.46-188.14,930.86-180.85Z" transform="translate(813.69 435.5)"/></g><g class="cls-9"><path class="cls-2" d="M98.15,434.28a6.73,6.73,0,0,0,5.23-2.32c-1.7-5.53-6.64-5.59-10.2-7.64-24.71-14.23-50.62-25.85-73.92-43.09-22.54-16.67-23.82-22.11-11.45-49,4.37-9.52,6.69-19.47-.29-28.18-5.82-7.26-3.73-11.21,2.2-15.9,9.08-7.18,17.84-14.87,26.76-22.3C73.54,235,109.8,203.09,143.4,167.37s53.21-78,56.53-129.78c.52-8.12,1.26-16.23,2-24.32.44-4.61-1.11-10.87,3.49-12.92,4.06-1.8,6.47,3.74,9,6.67,7.49,8.55,14.74,17.35,22,26.17,24,29.28,35.92,63.54,34.1,103.61-.55,12,2,24.66-.74,35.84-7.8,32.11,4.92,49.12,29.1,63.46,22.86,13.57,40.54,34.23,40.62,66.62.05,20.25-3.52,40-7.33,59.71a609.66,609.66,0,0,1-15,61c-.89,2.92-2.71,7.19,1.23,8.7Z" transform="translate(813.69 435.5)"/><path id="SVGID-2" data-name="SVGID" class="cls-2" d="M98.15,434.28a6.73,6.73,0,0,0,5.23-2.32c-1.7-5.53-6.64-5.59-10.2-7.64-24.71-14.23-50.62-25.85-73.92-43.09-22.54-16.67-23.82-22.11-11.45-49,4.37-9.52,6.69-19.47-.29-28.18-5.82-7.26-3.73-11.21,2.2-15.9,9.08-7.18,17.84-14.87,26.76-22.3C73.54,235,109.8,203.09,143.4,167.37s53.21-78,56.53-129.78c.52-8.12,1.26-16.23,2-24.32.44-4.61-1.11-10.87,3.49-12.92,4.06-1.8,6.47,3.74,9,6.67,7.49,8.55,14.74,17.35,22,26.17,24,29.28,35.92,63.54,34.1,103.61-.55,12,2,24.66-.74,35.84-7.8,32.11,4.92,49.12,29.1,63.46,22.86,13.57,40.54,34.23,40.62,66.62.05,20.25-3.52,40-7.33,59.71a609.66,609.66,0,0,1-15,61c-.89,2.92-2.71,7.19,1.23,8.7Z" transform="translate(813.69 435.5)"/><g class="cls-10"><path class="cls-2" d="M-299-27.58c-2.3,3.52-7.26,7.88-6.46,10.47,10.28,33.52,0,67.89,4.79,101.53l-5.73,4.11q-3,3.15-6.08,6.29c-4.91-.34-9.83-.69-14.76-1-1.7-3.92-4.95-5.42-9-5.74-2.91-3.35-5.82-3.32-8.71,0l-14.18.69c-8.33-2.62-12.6,10.07-21.4,5.65l-.18-.23-4.8-5.72c-1.65-2.1-3.31-4.22-5-6.33-1.39-1.55-2.78-3.1-4.17-4.67-11.88-12.61-26.9-20.28-42.53-27l-.16.07c-2.19-1.44-4.39-2.86-6.58-4.28,0,0,0,0,0,0-1.77-1.3-3.55-2.59-5.31-3.9a3.58,3.58,0,0,0-3.62-2.1c-19.75-8.06-17.69-35.15-37.64-43,0,.06.16.28.16.29l-6.59-4.37c-1.78-1.29-3.58-2.56-5.35-3.84l-17.24-17.23c-1.16-2.24-2.32-4.47-3.47-6.71a3.31,3.31,0,0,0-1.58-3.85c.44-3.26-1.24-4.84-4.25-5.37l0,0-5.37-4.63a2,2,0,0,0-2.66-1.5l-7.74-5c-.82-6.85,4-14.06-1.26-20.63l-3.56-5.6-.19-.33.05.06c-2-3.2-4-6.42-6.07-9.63l-.12-.23-4.41-6.31.28.27c-5.5-11.68-11.32-23.13-21.12-31.94-.88-3.15-2.86-4.74-6.24-4.32q-3.25-2.84-6.5-5.7c.59-4.22,1.8-8.61-3-11.4,0,0,0-.11,0-.11-4.43-8.71-12.77-9.9-21.16-11l.23.32-6.58-3.38c-16.44-10.24-13-28-16.5-43.2-.64-12.84-5.28-22.25-19.87-23.11-28.3-8.09-39.06-33.62-54.38-54.64-16.72-22.94-45-31.09-64.74-50.86-10.61-10.65-20.3-21.11-28.15-33.82-9-14.63-8.36-26,8.35-33.94,5.57-10.33,12.44-13.06,23.57-6.6,23.78,13.81,49.71,17.94,77,21.78,14.21,2,37.5,17.58,36.66,43.07l12,10.17,26.75,7.62c28.61-13.27,40.23-5.86,40,25.47,11.79,16.12,22,34.29,45.67,35,.82,0,2.15.41,2.37,1,11,27.12,49.69,24.68,58.08,54.73,2.75,9.84,12.77,7.25,19.78,9.94,13,5,18.94,23.84,40.59,14.16,8.89-4,14.95,16.11,7.45,26.71-16,22.6-3.73,30.79,16.17,35.49,27.28,6.43,22.82,36.94,39.74,51.05l11.43,15.72c14.26-9.91,21.44-2.54,26.23,10.66-2.18,2.69-4.37,5.46-6.92,7.34,2.56-1.87,4.74-4.64,6.93-7.32A30,30,0,0,1-305.4-42a20.72,20.72,0,0,1,5,7.9c.19.57.38,1.15.53,1.74a28.08,28.08,0,0,1,.79,4.81h0Z" transform="translate(813.69 435.5)"/><path class="cls-2" d="M1103.64,154.14c2.9-16,1.36-32-.78-48-.94-17.28,5.41-35.36-5.69-51.52l-.59-1.47c-9.37-12.27-2-21.84,5.1-31.45q-.21-8.25-.4-16.52A18,18,0,0,1,1099.76,2c-.1-.33.81-.94,1.26-1.42,1.65-11.44,2.21-22.84-1.64-34-14.64-34.66.16-72.86-13-107.69a1.67,1.67,0,0,0-2.58-.91c-2.39-7.28-7.31-10.45-13.49-10.45a22,22,0,0,0-4.9.59c-16.75,3.86-31.77-1-46.63-7.6h0c-5.21-8-14.12-7.28-21.88-9.31a22.61,22.61,0,0,0,1.39,2.4,21,21,0,0,1-1.4-2.4l-.63-.6h0c-4.78-12.76-16.11-10.18-26-11.06h0l-8.09-4.91-31.35,4.58a2.08,2.08,0,0,0-2.93,1.1,3.74,3.74,0,0,0-.18.62,3.74,3.74,0,0,1,.17-.62c-19.83,5.39-37.28-5.15-55.47-5.76-1.23-11.13,18-14.34,5.83-26.11-12-11.62-24.14-24.81-42.71-17.38-11.22,4.48-19.85,13.23-5,25,6.09,4.81,13.16,9.57,8.67,19.3-11.15,7.37-13.91,13.09.56,21.22,13.12,7.37,25.84,7.88,39.61,5.28,6.14,12.81-8.41,15.67-11.52,24.05,0,0-.18.29-.18.29,2.3,8.39,3.2,16.06-8.7,17.29q-.79-2.43-1.73-4.8C847-117,845-101,830.62-102.18c-16.58-8.47-16.62-29.28-29.9-40.27-.64,5.74-3,7.9-8,3.6-13.15-11.37-15.53-26.37-14-42.57,1-10.16,4.87-20.24.57-30.49l-4.86-11.65c-11.42-6.66-27.86,5.34-36.94-9.95l-6-4.64c-14-1.85-28-2.85-41.94.39a5.29,5.29,0,0,1-3.42,1.57l-7.48,2.6c-7.88,6-19.65,2.74-26.53,11.13-1.4.2-2.8.42-4.19.66-18.44,10-26.7,24.63-21,45.68,13.87,3.59,35-7.26,39.91,12.73,2.94,11.94,10.27,16.6,16.49,24,14.44-11.69,33.18,2,47.9-8.11-1.8,13.71-9.34,19.18-23,16.55-6.44-1.25-13.54-4.67-18.48,3.27l-5.88.16c-9,9.68-14,17.11,3.62,24.69C698-98.25,715.1-94.43,706.9-73.42c-2.74,7,6.37,16.34,14.55,19.85s12.28-3.9,16.21-9.73l15.66-12.2c4.64,3.43,10,10.28,13.92,10.28a2.81,2.81,0,0,0,.65-.07c17.71-3.94,27.05-.27,33.85,18.55,2.33,6.46,17,16,31.2,15.32,50.73-2.43,89.93,27,131.68,49.25,4.67,2.49,6,5.17,3.37,10.3-5.58,10.76,2.67,17.69,7.49,25.86,12.27,20.8,31.73,42.18,28.77,65.27-3.54,27.59,10.08,21.62,22.86,18.1,11.84-3.29,20.47-1.81,28.57,6.63,7.93,8.27,15.5,16.92,24,24.63,5.07,4.62,8.12,15.84,18.59,8.53C1106.61,171.3,1108.57,163.39,1103.64,154.14ZM755.88-95a14,14,0,0,0,.5-1.66A13.41,13.41,0,0,1,755.88-95Zm102.64-17.84c0,.42,0,.84-.08,1.26h0C858.47-112,858.49-112.46,858.52-112.88Zm-.09,1.27q.06,3.15.11,6.33C854.23-107.33,854.26-109.44,858.43-111.61Zm35.63-11.47c0-.2-.07-.39-.11-.57,0,.18.08.37.12.58s.06.32.1.47C894.13-122.76,894.09-122.92,894.06-123.08Zm124.49-36.42.56.55-.57-.54-1.39.19Zm27.35,279.35-.8.29c-.95.35-1.94.73-2.94,1.12-1.33.51-2.7,1-4.06,1.51,1.37-.48,2.73-1,4.06-1.51l2.94-1.13.8-.28a16.19,16.19,0,0,1,8.14-.61A16.41,16.41,0,0,0,1045.9,119.85Zm8.69-.5a15,15,0,0,1,1.91.55A16.82,16.82,0,0,0,1054.59,119.35ZM1096,93.81a15.68,15.68,0,0,0-1.29-1.92,14.62,14.62,0,0,1,1.29,1.92c.4.67.76,1.39,1.11,2.12C1096.72,95.2,1096.35,94.48,1096,93.81Z" transform="translate(813.69 435.5)"/><path class="cls-2" d="M455.53-354.29c-9-1.31-17.51-.86-24.7,5.6l-33.4,20.06c-6.95,4.95-14,7.08-21.34.76l-21.21-.76c-1.62,3.15-3.37,3.18-5.22.2l-5.24-1.39-6.52-3.55a3.46,3.46,0,0,1-3.82-1.44l-6.49-3.26-30.36-2.28c-16-9-32-20.09-48.25-.35l-5.57,1.38c-1.5,4.49-3.15,3.78-4.86.13a44.13,44.13,0,0,1-5.27.05c-1.86,1.5-3.71,3-5.57,4.53l-.46.44q-8.06,10.34-16.09,20.69a40.32,40.32,0,0,1-4.39.62l-9.92,11.2c2.19,10.56-6.77,17.3-9.07,26.33-2.87-16.76-22.79-18.09-29-31.82-26.06-6.28-16.17-26.21-16.07-42.4l.1.08c-14.44-14.18-24.14-29.08-7.42-48.07q-.66-6.42-1.33-12.82l-2-9.5c-2.84-.66-3.78-2.4-2.89-5.16a9.09,9.09,0,0,1-2-4.14l-10.55-1.32c-16.7,20.53-30.55.31-45.57-3.2l-15.31,0,0,1.41L55-433.58a3,3,0,0,1-1.88-1.92l-10.93,6.41c-.06,12.28.62,24.62-.45,36.81-.81,9.43-2.2,19.91-15.64,20.31-3.47.06-6.94.14-10.4.19l-4.93,6.57c-2.33,12.26,13.66,29.5-9.8,36C-2.52-320.79-9.59-316-16.93-311.38c-30.26,25.81-32.74,25.94-50.93,2.25-20.51-12.79-39.79-16.1-57.76,5.11a16.53,16.53,0,0,1-19.25,4.17c-5,1.08-11.71.45-14.88,3.48-14.59,14-27.13,8.33-39.78-2.35-17.92-11.48-24.48-31.69-36.62-47.61l-1.1-1-11.34-1.76c-.08,1.3-.15,2.61-.2,3.9-1.94.09-3.87.16-5.81.23l-4.94,2s-1.55,1.08-1.55,1.11a7.37,7.37,0,0,1,.2,1c-3.95,9.55-7.64,19.21-11.89,28.62-9.25,20.5-30.94,41.22,2,60.43,1.74,1,3.19,5,2.64,7.06-6.75,24.64,10.28,34.24,27.13,44.55,9.84,6,16.8,11.49,11.74,27.2-11.55,35.85,9.56,59.63,46.18,56.45,8-.71,20.19-7,23.65,3.83,9.58,30,29.73,16.56,46.86,12.61,8.34-1.93,18.24-10.17,24.36-3.28,10.58,11.94,23.48,10.6,36.13,11.35,14.54.87,24.31,5.42,22.22,21.94-1.95,15.39,5.34,16.49,17,12C-4.7-61.37,4-63.61,10.05-70.61c8.07,1.38,14.19-4,22.85-7.39,0,5.45,0,9.65,0,13.84.05,7-.56,15.71,6.7,18.53,8.86,3.44,14.49-5.23,19.09-10.76,15.41-18.51,9.22-36.32-3.84-53.24-.42,1-.87,2-1.36,2.91a36.72,36.72,0,0,1-2.35,4,41.11,41.11,0,0,1-2.7,3.53,43.25,43.25,0,0,0,2.7-3.53,40.3,40.3,0,0,0,2.35-4q.72-1.4,1.35-2.91c13.78-14.13,28.32-28,13.43-49.9-4.68-6.89-.83-13.08,5-15.11,40.39-14,52.9-44.22,50.22-83.68l-.42.49c0-.1.4-.82.4-.82s0,.21,0,.33l3.84-4.43c11.83-28.32,35-10.3,53.08-13,2.49.2,5,.42,7.41.63a.52.52,0,0,1,0-.11l5.93,5.4c-16.51,31.75-20.28,68-35.16,100.29h0c-14.21,9.3-10.62,23.38-9.84,36.7,22.44-10,30.17.51,30.25,21.68,6.59,13.24,4.16,25.5-4,37.15l-6.78,20.8c.46,2,.93,4.08,1.39,6.11l5.24,4.73.16.11c2,1.55,4.09,3.11,6.15,4.65l-.22-.33c17.58-10.26,40.25,7.84,56.45-10.1.21-3,.43-6,.63-8.92a31.91,31.91,0,0,1-4.29-1.25c-1.09-8.26-8-16.41-8-24.69,0-4.27,1.85-8.58,7.3-13,.21-3.34.43-6.68.64-10q.18-13.23.38-26.47-.74-10.8-1.47-21.6c-1.14,0-2.27,0-3.41.07,1.14,0,2.27-.06,3.41-.08q-2.33-7.51-4.69-15h0c30.28-.56,30.28-.56,15.19,36.48q5.79,10.57,11.58,21.12c1.71.4,3.42.85,5.11,1.37,22.52,5.06,8.76,18.64,6.91,29.42l9,11.81,9.64.73,11-.59c1.21,6.46,4.24,9.85,9.23,9.85a16.62,16.62,0,0,0,5.62-1.13c14-5.06,10.72,5.82,11.76,12.71-.84,13.73,6.92,12.61,16,9.25l5.54-4.35L350-47.25l.2-.22L355-53.16l-.13.09c3.26-9-5.45-22.64,10.15-26.9q-3-10.61-6-21.2c1.53-1.6,3.07-3.19,4.62-4.79-1.06-3.53-2.1-7.06-3.15-10.59l-21,2.9L327.2-130.81l-.18.27c-12.58-.42-16.27-6.73-12-18.25,6-3.36,10.25-7.67,8.3-15.33-5.36-1.75-8.57-5.67-10.72-10.64q-4.43-5-8.85-9.93a71.56,71.56,0,0,1-6,4.56c2.07-1.5,4.14-3,6-4.57-16.95-23.43-13.74-28.85,20.19-34.22q-.08,6.06-.13,12.12l5,1.89a3.8,3.8,0,0,1,4.53,1.52l6.23-1.34,4.56-2.65-.12.22c6.56-5.07,14-4.57,21.61-3.58L371-212l10.11-10.85c.18-3.43.37-6.84.55-10.27l-2.6-.21-2.51.64h0l-4.72-2.5c-6.75.77-6.12-4.19-6.51-8.37,1.68-.52,3.38-1,5.08-1.34,1.09-3.21,2.16-6.42,3.25-9.64q-3.9-5.26-7.79-10.52-7.9-.57-15.82-1.11c-16.53,7.27-33.5,13.8-51.8,12.73-17-1-25.33,13.14-38.1,19.36-3.64-7.12-3.73-18.49-16.94-14.14-4.79-11.74-21.69-15-21.09-30.69.38-9.58-.55-19.42,11.4-23.17h0l143.27,14.54c10.3-.12,21.19,3.78,30.29-4.48a15,15,0,0,1,1.4-4.62c1.58-.28,3.15-.63,4.7-1.06l25.4-26.22c.36-11.45,8.78-16,17.29-20.47C455.75-347.67,455.64-351,455.53-354.29Zm-714.32,38.51.84-1.45-.83,1.45-1.52,2.68Zm-.67,45.07c.84.7,1.74,1.4,2.71,2.1C-257.72-269.3-258.62-270-259.46-270.71Zm42,63a18.26,18.26,0,0,1,1.69,2.24A20.22,20.22,0,0,0-217.49-207.74Zm4.73,17.9c-.11.93-.26,1.89-.44,2.9.18-1,.32-2,.44-2.9.73-6.4-.29-11.06-2.53-14.86C-213-200.92-212-196.25-212.76-189.84ZM-195-133.79a37.35,37.35,0,0,1-9.1-3.54,38.18,38.18,0,0,0,9.1,3.54c1.14.28,2.32.55,3.55.77C-192.69-133.24-193.87-133.5-195-133.79ZM159-169a11.37,11.37,0,0,1,1.6,2.11A12.07,12.07,0,0,0,159-169Zm24,16.75a4.63,4.63,0,0,1,2-.25A5,5,0,0,0,183.05-152.3Zm156.66,41.66a11.73,11.73,0,0,0-.15-2.32A11,11,0,0,1,339.71-110.64Zm15.37-133c-1.35-.1-2.68-.19-4-.17C352.4-243.88,353.74-243.79,355.08-243.69Zm-15.48,8.37c-.22.73-.42,1.54-.6,2.4h0C339.17-233.78,339.37-234.59,339.6-235.32Zm-76.87,20.41a4.1,4.1,0,0,1-.62.53A6.6,6.6,0,0,0,262.73-214.91Zm-34.87,35.63c2.9-.7,5.78-1.43,8.67-2.14-2.89.71-5.77,1.45-8.67,2.15Z" transform="translate(813.69 435.5)"/><path class="cls-2" d="M233.44,140.94c33.54,7.17,67.06,14.88,98.85-6.46a13.28,13.28,0,0,1,10-1.67c25.28,7.95,33.44-13.83,46.86-26.46,2.9-2.72,2.85-9,1.17-8.72-23.59,3.87-11-19.37-20-27.17-10.49,11.72-19.81,24.31-36.64,8.43-4.45-4.19-14.58-.76-18.63,5.7-6.81,10.88-18.28,11.85-28.49,15.7-5.3,5.42-11.36,3.55-17.4,1.79h0l-13.7-1.42a3.24,3.24,0,0,0-1.86,3.51c-19.07,5.07-12,24.77-20.12,36Z" transform="translate(813.69 435.5)"/><path class="cls-2" d="M233.44,140.94c-6.87,12.82-13.27,26.14-30.24,28.11q-3.64-2.72-7.25-5.45c-.82,1.86-1.64,3.72-2.44,5.57l-1,.51c-5.38,3-10.76,5.12-16-.31-.55-3.37-1.08-6.74-1.61-10.12.29-4-1.83-6.24-5.46-7.38l-4.13-3.09c-2.15-1.65-4.31-3.31-6.47-4.95l-10-6.9c-4.09-6.34-10.37-1.88-15.49-3.13-.08,3.19-.18,6.38-.26,9.57-10,16-19.58,2.91-28.43-1.13C71,126.88,36.33,136.91,2.51,138.93c-36.85,2.2-69.38-9.86-102.85-20.65-12.25-4-23.7-1-35.49,3.12-21.08,7.45-81.44-6.42-93.08-20.54,2.8-3.33,6.38-8-.14-9.66-13.64-3.52-27.68-6.37-41.52-.09q-6.51-3.6-13-7.23-2-7-3.95-14l6.07-6.29,5.75-4.11c14.32,5.19,12.62-12.58,21.6-15h0c-1.71-28.44,14.56-22.55,31-16.27l20.88-1.85c23.81-.88,48.37,1.4,66.56,16.45C-112.27,62-68.68,62.5-48.9,39.58c7-8.11,11.66-12.39,25.48-4.21,15.84,9.38,36,18,56.94,12.11,1.92.3,3.84.58,5.77.87A4.08,4.08,0,0,1,42,51.07a21.55,21.55,0,0,0,2.23,4.64C39,69.58,49,74.58,58.31,80c12.32,9,26.07,5.24,39,3.26,15.57-2.37,25.42,2.46,30,17.61l10.32-4.73c25.57.63,50.82-21.76,77.11,1,10.39,9,17.56,15.27,6,26.95-5,5-12.7,8.89-6.57,16.8,5.85,7.56,12.8-1.14,19.38-.8Z" transform="translate(813.69 435.5)"/><path class="cls-2" d="M633.68-74.41c-2.87,10.85-11.53,19-20.4,12.35C579.64-87.22,540.16-84.88,502-89.35c-11,2.24-21.79,3.51-12.29-12.88,8.42-14.54,17.91-27.62,38.65-24.82,23.22,3.13,47-1.48,70.18,5.5C622.42-114.36,634.08-99.17,633.68-74.41Z" transform="translate(813.69 435.5)"/><path class="cls-2" d="M546.1,67.58c-7.41-10-15.65,4.19-23.42,8-15.13,7.31-30.73,21-47.36,9.83C450,68.28,432,78.87,413.78,95.78c2.93,3,4.31,7.26,7.06,10.17-2.75-2.91-4.13-7.14-7.06-10.17-9.39,5.54-15,15-8.77,23.56,7,9.68,19-.31,28.68,1.48-1.63,11.38-5.9,19.31-19.72,17.4-10.49-1.46-20.68-.51-27.07,9.95-6.9,4.46-13.8,9.54-10,19,3,7.63,10.39,9.22,17.87,7.69,9.29-1.91,14.46,3.71,20.46,9.2,19.88,18.21,32.5,16.81,52.81-5.09,5.86-3.71,5.89-10.14,1.59-12.9-15.84-10.14-16.85-26.44-19.78-42.18,12.29,3.12,23.82,3,32.92-7.65,18.68-3.6,40.17-.11,52.16-20.63C547,89.41,552.11,75.71,546.1,67.58Z" transform="translate(813.69 435.5)"/><path class="cls-2" d="M559.61-331c17.12,1.82,33.56-18.07,42.26-13.44,15.2,8.08,29,14.54,46,14,3.28-.11,6.48-2.5,9.71-3.83q0-9.18,0-18.33c-11.69-9.68-22.15-29.81-37.07-2.09-2.64,4.91-12.87,1.37-18.91-3.7-20.52-17.23-35.32,4.41-52.6,8.69-1.51.38-2.21,8.16-1.55,12.23C548.48-330.68,554.08-331.55,559.61-331Z" transform="translate(813.69 435.5)"/><path class="cls-2" d="M365.29-80,365-80l.05.18Z" transform="translate(813.69 435.5)"/><path class="cls-2" d="M524.46-275.11l0-.09c-11.68-16-10-32.44-2.41-49.66,2.33-5.28-1.69-9.85-7.72-11.31-4.76,5.91-11.34,10.48-17.88,5.59-7.22-5.38-1.61-14.77-3-22.23h0a36.59,36.59,0,0,0,20.68-7.67l0,0c1.66-2.14,3.3-4.28,5-6.43.45-3.14.91-6.28,1.36-9.42a9.25,9.25,0,0,1-1.24-4.9l-10.37-2.18a5.82,5.82,0,0,1-4.48,2.13l-5.9,5.3-5.21,5.11-.93,5.37h0l-2.37,0-2.29-.63c-8.94,6.12-18.76,11.46-21.15,23.48-3.46,1.46-6.74,1.75-9.63-.59,3.18,7.82-.83,14-5.49,20-6.33,27.1,8.88,49.73,15.43,74.14-.32,3.38-.65,6.75-1,10.14-9.88,3-18.47,7.61-13.51,20,4.67,11.69,12.77,18.41,26.3,12.35-1.57,10-8.35,16.71-15,23.56-3.52,3.63-8.09,7.29-5.49,13.3s8.25,5,13.37,5.53c25.43,2.53,32.72-8.55,24.21-37,.1-.06.21-.1.31-.17-.09-.2-.2-.38-.29-.58,7.28-4.78,15.4-8.81,16.66-18.91C506.59-236,490.64-246.78,493-265.49c10.89.35,24.73,19.25,31.68-5.05A3.62,3.62,0,0,1,524.46-275.11Zm-36.37,68.37-.43.34.06-.6c.14,0,.26,0,.4,0Z" transform="translate(813.69 435.5)"/><path class="cls-2" d="M456.28-344.59l-.42.38a10.05,10.05,0,0,0,1,1C456.7-343.69,456.51-344.14,456.28-344.59Z" transform="translate(813.69 435.5)"/><path class="cls-2" d="M622.57,110.71c.66.26,1.34.48,2,.69-.69-.21-1.37-.43-2-.69l-28.2,21.53c-8.42,5-16.72,10.38-15.83,21.73,1.71,21.74-6.23,38.7-23.2,52.21-4.24,3.38-11.91,8.41-6.27,14.75,6.32,7.09,13.12.55,18.16-3.82,11.83-10.29,21.35-25.54,34.93-31,25.79-10.38,37.1-29.93,45.64-53.38h0l4.27-5.49C679,119.89,672,91.68,685.46,75.36,666.7,92.5,637.42,89.12,622.57,110.71Z" transform="translate(813.69 435.5)"/><path class="cls-2" d="M-275.39-59.13q.3.84.54,1.74a26.16,26.16,0,0,1,.78,4.8h0c12.45,10.62,22.88,10,30.63-5.53h0c3.69-12.32,9.48-24.72-9.71-30.59-4.88-1.49-9.1-8.23-11.74-13.5-16.81-33.62-23.35-34.5-51.05-5.91h0L-328.77-100q5.73,7.86,11.43,15.73c14.26-9.91,21.45-2.54,26.23,10.65,0,0,0,0,0,0A30.08,30.08,0,0,1-280.4-67,20.78,20.78,0,0,1-275.39-59.13Zm9.25-10.27a12.29,12.29,0,0,0,4.73,5.69,12.42,12.42,0,0,1-4.74-5.69A44.67,44.67,0,0,0-278-86.8,44.79,44.79,0,0,1-266.14-69.4Z" transform="translate(813.69 435.5)"/><path class="cls-2" d="M447.37-139.64c-11.27-3.19-19.75,5.3-22.17,16.42-2,9.09-11.19,6.88-15.16,12.16-10.89,7.93-21.11,20.33-7.49,29.31,12,7.92,24.79,30.88,44.51,12.43,11.16-10.44,30.08-20.66,11.83-40.53C462.13-122.6,461.8-135.56,447.37-139.64Z" transform="translate(813.69 435.5)"/><path class="cls-2" d="M603.93-154.3l-.11.09-.1.1Z" transform="translate(813.69 435.5)"/><path class="cls-2" d="M589.35-175c-5.32,2.44-11.3,3.46-17,5.13l-.18.1-10.51,10.7.36,5.77,5.92,4.56a15.21,15.21,0,0,1,4.65.56l5.3-.27,19.94-.64,6-5.09,5.25-5.52-.13,0C611.53-176.55,606.15-182.73,589.35-175Z" transform="translate(813.69 435.5)"/><path class="cls-2" d="M808.26-8.84C797.45-12,794.1-2,789.86,5.25c-19,17.63,4,43.78-13,62.49-7.21,7.94-.92,16.89,7.79,16.35,7.53-.46,20.36-10.54,16.18-16.22-13.93-18.9,9.79-18.5,11.94-28.35,8.6-8.2,7.42-18.84,6.06-28.84C817.84,3.23,816.64-6.35,808.26-8.84Z" transform="translate(813.69 435.5)"/><path class="cls-2" d="M-672.24-220.22l-5.43-3.61.07.11-10.2-6.2-11.31,1.69.52-2.24-5.31.71-10,5.92-5.62,5.73c2.82,13.1,12.32,21.6,19.92,31.85,9.63,13,17.88,18.4,32.3,9.51q2.12-4.83,4.25-9.67c3.43-11.23,2.48-21.83-4.52-31.56A6.47,6.47,0,0,1-672.24-220.22Z" transform="translate(813.69 435.5)"/><path class="cls-2" d="M488.12-207l0,.23-.43.34.06-.6C487.86-207,488-207,488.12-207Z" transform="translate(813.69 435.5)"/><path class="cls-2" d="M615-232.92l6.71,2.92s.61.18.61.17l14-2.71c13.17-4.35,5.06-13.59,4.84-21-9-1.59-18.68-1-26.55-7.05-6.76,5.42-13.78,10.71-9.37,21.09l6.7,5A3.88,3.88,0,0,1,615-232.92Z" transform="translate(813.69 435.5)"/><path class="cls-2" d="M604.77,63c-14.49,2.16-32.26-4-39.85,15.7,28.59,16.81,41.58,16.06,66.5-4,3.78,0,5.86-2.43,7.37-5.62,10.48-8.85,11.1-16.16-4.3-17.87C623.15,50,611.44,51,604.77,63Z" transform="translate(813.69 435.5)"/><path class="cls-2" d="M1099.38-33.47c-14.64-34.66.16-72.86-13-107.69,6.69-.34,9.62,3.85,9.71,9.51C1096.52-98.9,1103.78-66.38,1099.38-33.47Z" transform="translate(813.69 435.5)"/><path class="cls-2" d="M-606.91-106.95a5.38,5.38,0,0,1-2.4-4.41l-4.16-6.46c-6.87-8.63-13.44-4.06-20,.46l-1.68,5.76c5,14.14,12.59,23.4,25.42,23-12.83.44-20.45-8.82-25.43-23-1.47,0-2.93-.07-4.39-.21l.11-.23-5.53,5.41.22-.25-5.51,6c.06,2.6.12,5.21.17,7.81l4.9,6.51,0,0c1.55,1.84,3.1,3.69,4.66,5.53l.29.39c11,10.44,24.21,7,37.05,5.7l.73-.71q2.27-2.3,4.54-4.58c.07-3.74.15-7.47.23-11.21l-5.88-12.15Zm-2.73,18.31a30.91,30.91,0,0,0,3.09-.29A30.91,30.91,0,0,1-609.64-88.64Z" transform="translate(813.69 435.5)"/><path class="cls-2" d="M689.21,19.77c-5.34,2.59-10.75,5-16.13,7.55.67,3.84,1.92,6.27,3.57,7.77-1.65-1.5-2.9-3.93-3.57-7.77-11.4,4.92-21.54,15-14.87,25.26,5.3,8.19,18.15-2.72,27.62-4.81,4.19-.93,7.26-6.89,10.83-10.56a13,13,0,0,0-2.46-.33,13,13,0,0,1,2.46.33c9-2.76,20.6-6.29,15.31-17.62C707.29,9.54,697,16,689.21,19.77ZM680.28,37a14.44,14.44,0,0,0,1.62.29A14.44,14.44,0,0,1,680.28,37Z" transform="translate(813.69 435.5)"/><path class="cls-2" d="M519.22-381.43v.16l.13,0Z" transform="translate(813.69 435.5)"/><path class="cls-2" d="M673.53-335c4.53-5.19,9.2-10.89,5.45-17.94s-10.22-3.13-15.73-1.89c-1.91.76-3.82,1.53-5.73,2.27q0,9.13.05,18.36C663.42-324.47,669-319.61,673.53-335Z" transform="translate(813.69 435.5)"/><path class="cls-2" d="M930.86-180.85l31.35-4.58C949.27-200.94,940.46-188.14,930.86-180.85Z" transform="translate(813.69 435.5)"/></g></g></g></g></svg>