<svg xmlns="http://www.w3.org/2000/svg" viewBox="0 0 618.15 556.26"><defs><style>.cls-1{fill:#d1ecf8;}.cls-2{fill:#fff;opacity:0.1;}</style></defs><g id="Layer_2" data-name="Layer 2"><g id="Layer_1-2" data-name="Layer 1"><path class="cls-1" d="M618.15,556.26c-2.41-.41-4.5-2-6.52-3.26-33-21.29-65.12-44.08-95-70.76-12.87-11.51-20.18-24.57-14.26-43.57,2.58-8.28-.16-14.86-5.75-20.53-11.21-11.38-23.91-20.12-37.45-27.44-40-21.66-81-41.25-120.12-65A151,151,0,0,1,310.52,304c-15.78-15.62-24.46-35.2-16.92-57.77,14-42.11-2.76-70-30.5-94-11.84-10.25-24.2-19.73-36.38-29.48a26.29,26.29,0,0,0-5.63-3.38c-8.49-3.77-16.62-4.35-26,1.45-11.94,7.34-22.25.74-32.07-6.82-12.79-9.85-23.11-22.8-34.09-34.85-13.72-15-28.7-21.68-47.63-14.1C67.65,70.49,57.78,63.53,51,50.84,45.77,41,41.72,30.33,37.15,20,28.7,1,26-.7,7.24,1.25,4.75,1.51,2.13,2.43,0,0V556.26Z"/><path class="cls-2" d="M618.15,556.26c-2.41-.41-4.5-2-6.52-3.26-33-21.29-65.12-44.08-95-70.76-12.87-11.51-20.18-24.57-14.26-43.57,2.58-8.28-.16-14.86-5.75-20.53-11.21-11.38-23.91-20.12-37.45-27.44-40-21.66-81-41.25-120.12-65A151,151,0,0,1,310.52,304c-15.78-15.62-24.46-35.2-16.92-57.77,14-42.11-2.76-70-30.5-94-11.84-10.25-24.2-19.73-36.38-29.48a26.29,26.29,0,0,0-5.63-3.38c-8.49-3.77-16.62-4.35-26,1.45-11.94,7.34-22.25.74-32.07-6.82-12.79-9.85-23.11-22.8-34.09-34.85-13.72-15-28.7-21.68-47.63-14.1C67.65,70.49,57.78,63.53,51,50.84,45.77,41,41.72,30.33,37.15,20,28.7,1,26-.7,7.24,1.25,4.75,1.51,2.13,2.43,0,0V556.26Z"/></g></g></svg>