<svg xmlns="http://www.w3.org/2000/svg" viewBox="0 0 996.99 376.93"><defs><style>.cls-1{fill:#d1ecf8;}.cls-2{fill:#fff;opacity:0.1;}</style></defs><g id="Layer_2" data-name="Layer 2"><g id="Layer_1-2" data-name="Layer 1"><path class="cls-1" d="M52.67,0h6.27C37.42,18,26.71,42.27,23.31,71.9,21.07,91.41,16.49,110.61,0,125.2a251.9,251.9,0,0,0,73.76,5.91c41.18-2.87,81-14.4,121.15-23.36,17.18-3.84,34.44-7.34,51.47-11.92C255.6,93.35,261,97,265.3,105.55c7.42,14.6,15.88,28.44,26.08,40.84,9.77,11.89,21.57,17.78,36.3,18,38.41.61,75.69-7.41,112.64-17.77,10.32-2.89,18.2-2.12,27,6.05,32.2,30,65.16,58.94,97.91,88.19,15.42,13.78,32.39,24.94,49.39,36,26,17,52.78,17.13,80,4.14,15.32-7.31,30.38-15.39,45.94-22,19.43-8.25,38.43-6.09,56.9,5,29,17.39,52,43.16,76.38,67.1,16.34,16.07,31.63,33.81,53.07,41.8,22,8.19,42,3.45,61-10.49,7.54-5.52,7.23-13.34,7.23-21.52q0-113.64,0-227.28c0-37.87.31-75.75.48-113.62H997"/><path class="cls-2" d="M52.67,0h6.27C37.42,18,26.71,42.27,23.31,71.9,21.07,91.41,16.49,110.61,0,125.2a251.9,251.9,0,0,0,73.76,5.91c41.18-2.87,81-14.4,121.15-23.36,17.18-3.84,34.44-7.34,51.47-11.92C255.6,93.35,261,97,265.3,105.55c7.42,14.6,15.88,28.44,26.08,40.84,9.77,11.89,21.57,17.78,36.3,18,38.41.61,75.69-7.41,112.64-17.77,10.32-2.89,18.2-2.12,27,6.05,32.2,30,65.16,58.94,97.91,88.19,15.42,13.78,32.39,24.94,49.39,36,26,17,52.78,17.13,80,4.14,15.32-7.31,30.38-15.39,45.94-22,19.43-8.25,38.43-6.09,56.9,5,29,17.39,52,43.16,76.38,67.1,16.34,16.07,31.63,33.81,53.07,41.8,22,8.19,42,3.45,61-10.49,7.54-5.52,7.23-13.34,7.23-21.52q0-113.64,0-227.28c0-37.87.31-75.75.48-113.62H997"/></g></g></svg>