<svg xmlns="http://www.w3.org/2000/svg" xmlns:xlink="http://www.w3.org/1999/xlink" viewBox="0 0 1041.57 285.72"><defs><style>.cls-1{fill:none;}.cls-2{clip-path:url(#clip-path);}.cls-3{fill:#d1ecf8;}</style><clipPath id="clip-path" transform="translate(-1.93 1.7)"><path class="cls-1" d="M588.29,34.86C584.83,13,560,0,521.93,0H11.11C9.84,0,8.57,0,7.3.05c-1.74,0-3.55.06-5.36,0A8.63,8.63,0,0,0,0,.23,10.76,10.76,0,0,0,.92,2.94c2.5,5.41,4.26,9.5,4.47,9.89C21.7,42.76,53,160.41,53,160.41,87.11,288.57,496.33,319.1,523.7,279a51.9,51.9,0,0,0,7-16c2.51-7.22-5.24-28.2-12.73-48.48-12.25-33.17-26.14-70.77-15.52-92.68,3.55-7.33,9.56-12.42,17.86-15.12,22.76-7.41,41.37-18.89,53.8-33.18C585.22,60.84,590.24,47.1,588.29,34.86Z"/></clipPath></defs><g id="Layer_2" data-name="Layer 2"><g id="Layer_1-2" data-name="Layer 1"><g class="cls-2"><path class="cls-3" d="M1043.51,1.3c-.09-1-.17-2-.25-3H18c-3,0-6,.13-9,.09C2.33-1.7.23,1.59,3.34,8.3c5.54,12,10.54,24.39,17,35.69C34.8,69.11,55,80.46,81.85,74c20.93-5.06,41.89-10,62.92-14.48,27.78-6,52.12-.08,69.24,27.81,17.52,28.54,42.1,42,72.14,46.95,36.81,6,73.92,9.87,110.28,19.68,27,7.27,46.12,24.21,58.88,51.35,4.22,9,8.7,17.77,12.73,26.83,8.95,20.1,21.86,35.37,40.09,45.18,19.45,10.46,20.07,10.52,28-12.43,20.77-59.86,41.8-74.16,98-67.92,17,1.89,34,4.29,51.23,3.7s30.46-7.82,39-25.33c4.95-10.15,10.7-19.79,16.08-29.67,7.86-14.43,19.33-20.91,34.3-21.3,18.54-.48,36.74,2.35,54.92,5.68,25.41,4.64,47.21-2.08,61.79-27.36C911.88,67.2,942.64,48,975.75,32.2,998.19,21.52,1020.91,11.57,1043.51,1.3Z" transform="translate(-1.93 1.7)"/></g></g></g></svg>