<svg xmlns="http://www.w3.org/2000/svg" viewBox="0 0 759.43 230.65"><defs><style>.cls-1{fill:#d1ecf8;}.cls-2{fill:#fff;opacity:0.1;}</style></defs><g id="Layer_2" data-name="Layer 2"><g id="Layer_1-2" data-name="Layer 1"><path class="cls-1" d="M759.39,14.82V0H721.84Q504.47.12,287.1.06C262.82.06,266.3-1.65,260,22.23c-5,19.06-12.36,37.05-19.6,55.09-22.65,56.51-64.24,79.59-116.46,85.16-37.53,4-74.76,10.63-111,22.92-4,1.36-8.35,1.85-12.92,6.44,23.36,10.38,46.77,16.75,70.5,21.62,31.24,6.41,62.77,9.14,94.54,9.28,76.23.33,152.44.2,228.54-5.79,28-2.2,55.53,2.48,83,7.62,11.82,2.21,23.66,4.43,35.57,5.79,15.77,1.81,25.15-4.89,31.08-21.61a185.11,185.11,0,0,0,5.88-20.67c5.51-24,19.24-38.15,40.4-43.41,12.55-3.12,25.08-6.6,37.78-8.54,31.24-4.77,53.9-24.95,74.42-50,18.07-22,40.25-45.72,56.15-69.72C759.81,13.52,759.39,14.82,759.39,14.82Z"/><path class="cls-2" d="M759.39,14.82V0H721.84Q504.47.12,287.1.06C262.82.06,266.3-1.65,260,22.23c-5,19.06-12.36,37.05-19.6,55.09-22.65,56.51-64.24,79.59-116.46,85.16-37.53,4-74.76,10.63-111,22.92-4,1.36-8.35,1.85-12.92,6.44,23.36,10.38,46.77,16.75,70.5,21.62,31.24,6.41,62.77,9.14,94.54,9.28,76.23.33,152.44.2,228.54-5.79,28-2.2,55.53,2.48,83,7.62,11.82,2.21,23.66,4.43,35.57,5.79,15.77,1.81,25.15-4.89,31.08-21.61a185.11,185.11,0,0,0,5.88-20.67c5.51-24,19.24-38.15,40.4-43.41,12.55-3.12,25.08-6.6,37.78-8.54,31.24-4.77,53.9-24.95,74.42-50,18.07-22,40.25-45.72,56.15-69.72C759.81,13.52,759.39,14.82,759.39,14.82Z"/></g></g></svg>