<svg xmlns="http://www.w3.org/2000/svg" viewBox="0 0 878.46 304.03"><defs><style>.cls-1{fill:#d1ecf8;}</style></defs><g id="Layer_2" data-name="Layer 2"><g id="Layer_1-2" data-name="Layer 1"><path class="cls-1" d="M88,304c32.91-1.34,65.15-6.17,97.51-9.7,64.28-7,126.38-30.41,191.39-31.85,7.21-.16,14.41-2.14,21.57-3.58,41.94-8.44,81.49-26.25,121.83-40.69,78.74-28.17,156.49-59.54,240-66.54,36-3,66.17-21.45,86.29-57.65,12.9-23.21,21.4-48.28,28.67-74.12C880.7.66,880.71.43,863,.42,771.36.4,679.69,1.13,588,0c-32.9-.4-64.08,3.16-94.88,18-52.29,25.1-108,43.13-141.43,101.46-.91,1.58-2.44,2.7-3.6,4.12-10.83,13.29-24.33,18.7-40.21,18.81-19,.14-37.37-5-56-7.73-23.76-3.5-37.2,3.77-48.92,27.26-3.57,7.16-6.91,14.47-10.79,21.41-10.3,18.46-24.62,28.45-44.6,28.77-22.78.37-45.3-2.67-67.88-4.67-27-2.4-49.31,5.28-62.68,34-4.76,10.23-9.11,20.77-13,31.47-6.65,18.34-6.31,18.65,10.35,22.57C38.8,301.2,63.55,302.89,88,304Z" transform="translate(0 0)"/></g></g></svg>