<svg xmlns="http://www.w3.org/2000/svg" xmlns:xlink="http://www.w3.org/1999/xlink" viewBox="0 0 1920 659.57"><defs><style>.cls-1{fill:none;}.cls-2{fill:#d1ecf8;}.cls-3{clip-path:url(#clip-path);}.cls-4{fill:#49b3b8;}.cls-5{fill:#d8d61e;}.cls-6{fill:#69aacd;}.cls-7{fill:url(#radial-gradient);}.cls-8{fill:url(#radial-gradient-23);}.cls-9{opacity:0.5;}.cls-10{fill:url(#radial-gradient-26);}.cls-11{fill:url(#radial-gradient-48);}.cls-12{fill:url(#radial-gradient-51);}.cls-13{fill:url(#radial-gradient-76);}.cls-14{fill:url(#radial-gradient-82);}.cls-15{fill:url(#radial-gradient-88);}.cls-16{fill:url(#radial-gradient-101);}.cls-17{fill:url(#radial-gradient-124);}.cls-18{fill:url(#radial-gradient-126);}.cls-19{fill:url(#radial-gradient-150);}.cls-20{fill:#d9b21b;}.cls-21{fill:#e3dd40;}.cls-22{fill:#1097a0;}.cls-23{fill:#dc6820;}</style><clipPath id="clip-path" transform="translate(1004.63 209.65)"><path class="cls-1" d="M872.86,103.15c-4.15,2.18-8.27,4.45-12.46,6.54-23.82,12-46.86,25.76-72.67,32.51-26,6.79-46.1.17-61.42-25.31-15.92-26.46-38.48-39.1-67-41.93-33-3.29-65.82-.68-98.74.38-49.21,1.57-98.26,6.4-147.51,7.52-44.39,1-88-1.11-130.55-17.16-26.57-10-53.28-13.07-80.34-.86-28.22,12.74-56,8.5-83.86-3.45C81.72,45.72,47.17,25.56,12.81,4.8,9.3,2.67,6.14-1.23,0,.38c27.5,42.9,54.33,85.24,81.68,127.15,8,12.32,14.65,25.91,26.23,35.32,42.7,34.72,85.26,69.67,127.32,105.37,10,8.51,20.14,13.81,32.48,14.86,10.66.9,21.29,2.45,31.9,4,45.55,6.54,87.59,21.59,121.14,59.77,13.2,15,28.12,28.28,43,41.21,13,11.24,14.21,10.33,22.23-5.12,9.52-18.34,18.69-36.92,28.72-54.9,17.57-31.51,36.21-62.07,60.57-87.78,19.43-20.51,41.63-27.73,67.39-21.58,11.72,2.8,23.49,5.62,35,9.42,30.14,10,57.45,3,83.16-16C802.15,181.48,838.65,144.44,872.86,103.15Z"/></clipPath><radialGradient id="radial-gradient" cx="-312.65" cy="243.33" r="1227.42" gradientUnits="userSpaceOnUse"><stop offset="0" stop-color="#2383c5" stop-opacity="0"/><stop offset="1" stop-color="#d45127"/></radialGradient><radialGradient id="radial-gradient-23" cx="328.35" cy="-155.49" r="0.08" xlink:href="#radial-gradient"/><radialGradient id="radial-gradient-26" cx="-312.65" cy="243.33" r="1227.42" gradientUnits="userSpaceOnUse"><stop offset="0" stop-color="#d45127"/><stop offset="1" stop-color="#2383c5" stop-opacity="0"/></radialGradient><radialGradient id="radial-gradient-48" cx="328.35" cy="-155.49" r="0.08" xlink:href="#radial-gradient-26"/><radialGradient id="radial-gradient-51" cx="212.73" cy="-58.73" r="320.49" xlink:href="#radial-gradient-26"/><radialGradient id="radial-gradient-76" cx="-906.38" cy="-142.97" r="598.69" xlink:href="#radial-gradient-26"/><radialGradient id="radial-gradient-82" cx="174.22" cy="145.93" r="0.13" xlink:href="#radial-gradient-26"/><radialGradient id="radial-gradient-88" cx="412.89" cy="71.65" r="0.1" xlink:href="#radial-gradient-26"/><radialGradient id="radial-gradient-101" cx="432.34" cy="368.46" r="251.16" xlink:href="#radial-gradient-26"/><radialGradient id="radial-gradient-124" cx="432.34" cy="368.46" r="251.16" xlink:href="#radial-gradient-26"/><radialGradient id="radial-gradient-126" cx="-30.95" cy="106.73" r="288.44" xlink:href="#radial-gradient-26"/><radialGradient id="radial-gradient-150" cx="450.39" cy="196.98" r="358.03" xlink:href="#radial-gradient-26"/></defs><g id="Layer_2" data-name="Layer 2"><g id="Layer_1-2" data-name="Layer 1"><path class="cls-2" d="M872.86,103.15c-4.15,2.18-8.27,4.45-12.46,6.54-23.82,12-46.86,25.76-72.67,32.51-26,6.79-46.1.17-61.42-25.31-15.92-26.46-38.48-39.1-67-41.93-33-3.29-65.82-.68-98.74.38-49.21,1.57-98.26,6.4-147.51,7.52-44.39,1-88-1.11-130.55-17.16-26.57-10-53.28-13.07-80.34-.86-28.22,12.74-56,8.5-83.86-3.45C81.72,45.72,47.17,25.56,12.81,4.8,9.3,2.67,6.14-1.23,0,.38c27.5,42.9,54.33,85.24,81.68,127.15,8,12.32,14.65,25.91,26.23,35.32,42.7,34.72,85.26,69.67,127.32,105.37,10,8.51,20.14,13.81,32.48,14.86,10.66.9,21.29,2.45,31.9,4,45.55,6.54,87.59,21.59,121.14,59.77,13.2,15,28.12,28.28,43,41.21,13,11.24,14.21,10.33,22.23-5.12,9.52-18.34,18.69-36.92,28.72-54.9,17.57-31.51,36.21-62.07,60.57-87.78,19.43-20.51,41.63-27.73,67.39-21.58,11.72,2.8,23.49,5.62,35,9.42,30.14,10,57.45,3,83.16-16C802.15,181.48,838.65,144.44,872.86,103.15Z" transform="translate(1004.63 209.65)"/><g class="cls-3"><path class="cls-4" d="M353.16,293.43c-7.41-10-15.64,4.19-23.42,7.95-15.12,7.31-30.73,21-47.35,9.83C257,294.13,239,304.72,220.85,321.63c2.93,3,4.31,7.26,7.06,10.17-2.75-2.91-4.14-7.14-7.06-10.17-9.4,5.54-15,15-8.78,23.56,7,9.68,19-.31,28.69,1.48-1.64,11.38-5.9,19.32-19.72,17.4-10.5-1.46-20.69-.51-27.07,9.95-6.91,4.47-13.81,9.54-10.05,19,3,7.63,10.39,9.22,17.86,7.69,9.3-1.91,14.47,3.71,20.46,9.2,19.89,18.21,32.5,16.82,52.82-5.09,5.85-3.71,5.88-10.14,1.58-12.9-15.84-10.14-16.85-26.44-19.78-42.18,12.29,3.12,23.83,3,32.93-7.65,18.68-3.6,40.16-.11,52.16-20.62C354.06,315.26,359.17,301.56,353.16,293.43Z" transform="translate(1004.63 209.65)"/><path class="cls-5" d="M-5.15-49.48C-8-66.24-27.95-67.57-34.16-81.3c-26.05-6.28-16.17-26.21-16.06-42.4l.1.08c-14.45-14.18-24.15-29.08-7.42-48.07q-.66-6.42-1.33-12.82l-2-9.5c-2.84-.66-3.78-2.4-2.89-5.16a9.07,9.07,0,0,1-2-4.14c-3.52-.44-7-.87-10.55-1.32-16.71,20.53-30.56.31-45.58-3.2l-15.31,0,0,1.41-.61-1.27a3,3,0,0,1-1.88-1.92l-10.93,6.41c-.06,12.28.61,24.62-.45,36.81-.82,9.43-2.21,19.91-15.64,20.31-3.48.06-6.94.14-10.41.19-1.64,2.2-3.28,4.37-4.93,6.57-2.33,12.26,13.66,29.5-9.8,36-3.51,8.43-10.59,13.26-17.93,17.84-30.26,25.81-32.73,25.94-50.93,2.25-20.5-12.79-39.78-16.1-57.75,5.11A16.53,16.53,0,0,1-337.8-74c-5.05,1.08-11.72.45-14.89,3.48-14.58,14-27.13,8.33-39.77-2.35-17.92-11.48-24.48-31.69-36.63-47.61l-1.09-1-11.35-1.76c-.07,1.3-.14,2.61-.19,3.91l-5.82.22-4.94,2s-1.54,1.08-1.54,1.11a9.23,9.23,0,0,1,.19,1c-3.94,9.55-7.63,19.21-11.89,28.62C-475-66-496.66-45.24-463.69-26c1.74,1,3.19,5,2.64,7.06-6.75,24.64,10.28,34.25,27.13,44.55,9.83,6,16.79,11.49,11.73,27.2-11.55,35.85,9.57,59.63,46.19,56.45,8-.71,20.19-7,23.64,3.83,9.59,30,29.74,16.56,46.86,12.61,8.34-1.92,18.25-10.17,24.36-3.28,10.58,11.94,23.48,10.6,36.14,11.35,14.53.87,24.31,5.42,22.21,21.94-1.94,15.4,5.35,16.49,17,12,8.16-3.17,16.82-5.41,22.91-12.41,8.06,1.38,14.19-3.94,22.85-7.39,0,5.45,0,9.65,0,13.84.05,7-.57,15.71,6.69,18.53,8.86,3.44,14.5-5.23,19.1-10.76,15.4-18.51,9.22-36.32-3.85-53.24-.42,1-.87,2-1.36,2.92a35.92,35.92,0,0,1-2.35,4,41.11,41.11,0,0,1-2.7,3.53,43.25,43.25,0,0,0,2.7-3.53,39.35,39.35,0,0,0,2.35-4c.48-.93.93-1.91,1.35-2.92,13.78-14.13,28.33-28,13.44-49.9-4.69-6.89-.83-13.08,5-15.11C-79.27,37.17-66.75,7-69.43-32.47a6.4,6.4,0,0,0-.42.49l.4-.82c0,.11,0,.21,0,.33q1.91-2.22,3.83-4.43c11.84-28.32,35-10.3,53.09-13,2.48.2,4.94.42,7.41.63a.52.52,0,0,1,0-.11Z" transform="translate(1004.63 209.65)"/><path class="cls-6" d="M429.63,336.56q1,.39,2,.69-1.05-.3-2-.69L401.44,358.1c-8.42,4.95-16.72,10.37-15.83,21.72,1.71,21.74-6.24,38.7-23.21,52.22-4.23,3.37-11.91,8.4-6.26,14.74,6.31,7.09,13.11.55,18.15-3.82,11.84-10.29,21.35-25.54,34.94-31C435,401.57,446.32,382,454.86,358.57h0l4.27-5.49c26.93-7.34,19.9-35.55,33.39-51.87C473.77,318.35,444.48,315,429.63,336.56Z" transform="translate(1004.63 209.65)"/><path class="cls-7" d="M-490,198.27c-2.3,3.52-7.26,7.88-6.46,10.48,10.29,33.51,0,67.88,4.8,101.52l-5.74,4.11c-2,2.1-4.05,4.21-6.07,6.29l-14.76-1c-1.71-3.92-5-5.42-9-5.74-2.91-3.35-5.81-3.32-8.71,0l-14.17.69c-8.34-2.62-12.61,10.07-21.4,5.65l-.18-.23c-1.61-1.9-3.2-3.81-4.81-5.72l-4.95-6.33c-1.39-1.55-2.78-3.1-4.17-4.67-11.88-12.61-26.89-20.28-42.52-27l-.17.06c-2.18-1.43-4.38-2.86-6.58-4.28,0,0,0,0,0,0-1.77-1.29-3.55-2.59-5.31-3.9a3.57,3.57,0,0,0-3.61-2.1c-19.75-8.06-17.7-35.15-37.64-43l.15.29-6.58-4.37c-1.78-1.29-3.58-2.56-5.36-3.84l-17.23-17.23c-1.17-2.24-2.32-4.47-3.48-6.71a3.29,3.29,0,0,0-1.57-3.85c.44-3.26-1.24-4.84-4.26-5.37l0,0-5.36-4.63a2,2,0,0,0-2.66-1.5l-7.75-5c-.82-6.85,4.06-14.06-1.26-20.63l-3.55-5.6c-.07-.11-.14-.22-.2-.33l0,.06c-2-3.2-4-6.42-6.07-9.63l-.11-.23c-1.47-2.11-3-4.21-4.42-6.31l.29.27c-5.5-11.68-11.33-23.13-21.12-31.94-.88-3.15-2.86-4.74-6.25-4.32l-6.5-5.7c.59-4.22,1.8-8.61-3-11.4,0,0,0-.11,0-.11-4.42-8.71-12.76-9.9-21.16-11l.24.32-6.58-3.38c-16.44-10.23-13-28-16.5-43.2C-832.35,4.84-837-4.57-851.58-5.43-879.87-13.52-890.64-39-906-60.07-922.67-83-951-91.16-970.7-110.93c-10.61-10.65-20.3-21.11-28.15-33.82-9-14.62-8.35-26,8.35-33.94,5.57-10.33,12.44-13.06,23.57-6.6,23.78,13.81,49.72,17.94,77,21.79,14.21,2,37.51,17.57,36.67,43.06l12,10.17,26.74,7.62c28.61-13.27,40.24-5.86,40,25.47,11.8,16.12,22,34.29,45.67,35,.82,0,2.15.41,2.38,1,11,27.12,49.69,24.68,58.07,54.73,2.75,9.84,12.78,7.26,19.78,9.94,13,5,18.94,23.84,40.59,14.16,8.9-4,15,16.11,7.46,26.71-16,22.6-3.74,30.79,16.17,35.5,27.27,6.43,22.81,36.93,39.73,51q5.73,7.85,11.43,15.72c14.26-9.91,21.45-2.54,26.23,10.66-2.18,2.69-4.36,5.46-6.92,7.34,2.57-1.87,4.74-4.64,6.93-7.32a30,30,0,0,1,10.69,6.53,20.72,20.72,0,0,1,5,7.9q.3.85.54,1.74a28.1,28.1,0,0,1,.78,4.81h0Z" transform="translate(1004.63 209.65)"/><path class="cls-7" d="M912.7,380c2.91-16.05,1.36-32-.77-48-.94-17.28,5.41-35.36-5.7-51.52l-.59-1.47c-9.36-12.27-2-21.84,5.1-31.45q-.19-8.25-.4-16.52a18.77,18.77,0,0,1-1.52-3.21c-.09-.33.82-.94,1.27-1.42,1.64-11.44,2.21-22.84-1.65-34-14.64-34.65.17-72.86-13-107.69a1.68,1.68,0,0,0-2.59-.91c-2.39-7.28-7.31-10.45-13.48-10.45a22.12,22.12,0,0,0-4.91.59c-16.74,3.87-31.77-1-46.62-7.6h0C822.64,58.31,813.73,59,806,57a23.84,23.84,0,0,0,1.39,2.41A22.11,22.11,0,0,1,806,57l-.62-.6h0c-4.79-12.76-16.11-10.18-26-11.06h0l-8.08-4.91L739.92,45A2.08,2.08,0,0,0,737,46.1a5.06,5.06,0,0,0-.17.62,5.09,5.09,0,0,1,.16-.62c-19.82,5.39-37.28-5.15-55.47-5.76-1.22-11.13,18-14.34,5.83-26.11S663.21-10.58,644.63-3.15c-11.21,4.48-19.84,13.23-5,25,6.1,4.81,13.17,9.57,8.67,19.3-11.14,7.37-13.9,13.09.56,21.22,13.13,7.37,25.85,7.88,39.62,5.28,6.14,12.81-8.42,15.68-11.52,24a2.4,2.4,0,0,0-.19.29c2.3,8.39,3.2,16.06-8.7,17.29-.53-1.62-1.1-3.22-1.73-4.79-10.31,4.43-12.27,20.41-26.67,19.22-16.58-8.47-16.62-29.28-29.9-40.27-.63,5.74-3,7.9-8,3.6-13.16-11.37-15.54-26.37-13.95-42.57,1-10.16,4.86-20.24.57-30.49-1.63-3.88-3.24-7.76-4.87-11.65-11.42-6.66-27.85,5.34-36.93-9.95l-6-4.63c-14-1.85-28-2.86-41.95.38a5.27,5.27,0,0,1-3.41,1.57l-7.48,2.6c-7.88,6-19.65,2.74-26.53,11.13-1.4.2-2.8.42-4.19.66-18.44,10-26.7,24.63-21.06,45.69,13.87,3.58,35-7.27,39.92,12.72,2.93,11.94,10.26,16.6,16.49,24,14.43-11.69,33.18,2,47.89-8.11-1.8,13.71-9.33,19.19-23,16.55-6.44-1.25-13.55-4.67-18.48,3.27l-5.88.16c-9,9.68-14,17.11,3.62,24.69,10.65,4.59,27.71,8.41,19.51,29.42-2.74,7,6.37,16.35,14.56,19.85s12.28-3.9,16.2-9.73l15.66-12.2c4.64,3.43,10,10.28,13.92,10.28a2.9,2.9,0,0,0,.66-.07c17.7-3.94,27-.27,33.85,18.55,2.33,6.46,17,16,31.19,15.32,50.74-2.43,89.93,27,131.69,49.26,4.66,2.48,6,5.16,3.36,10.29-5.58,10.76,2.67,17.69,7.5,25.86,12.26,20.8,31.73,42.18,28.76,65.27-3.54,27.59,10.08,21.62,22.87,18.1,11.84-3.29,20.46-1.81,28.56,6.63,7.93,8.27,15.51,16.92,24,24.63,5.07,4.62,8.13,15.84,18.6,8.53C915.68,397.15,917.63,389.24,912.7,380ZM565,130.81a16.09,16.09,0,0,0,.5-1.66A15.38,15.38,0,0,1,565,130.81ZM667.58,113c0,.42-.05.84-.07,1.26h0C667.53,113.81,667.55,113.39,667.58,113Zm-.08,1.27c0,2.1.07,4.21.1,6.33C663.3,118.52,663.33,116.41,667.5,114.24Zm35.62-11.47c0-.2-.07-.39-.11-.57,0,.18.08.37.12.58s.07.32.11.47C703.2,103.09,703.15,102.93,703.12,102.77ZM827.61,66.35l.57.55-.58-.54-1.39.19ZM855,345.71l-.81.28c-.95.35-1.93.73-2.93,1.12-1.33.51-2.7,1-4.06,1.51,1.37-.48,2.73-1,4.06-1.51l2.93-1.13.81-.27a16.08,16.08,0,0,1,8.14-.62A16.3,16.3,0,0,0,855,345.71Zm8.69-.51a15.48,15.48,0,0,1,1.91.55A17.44,17.44,0,0,0,863.66,345.2ZM905,319.66a15.68,15.68,0,0,0-1.29-1.92,14.62,14.62,0,0,1,1.29,1.92c.4.67.75,1.39,1.1,2.12C905.78,321.05,905.42,320.33,905,319.66Z" transform="translate(1004.63 209.65)"/><path class="cls-7" d="M198.25,332.2c-13.42,12.63-21.58,34.41-46.86,26.46-2.94-.92-7.43-.08-10,1.67-31.78,21.34-65.3,13.63-98.84,6.46-6.88,12.82-13.28,26.14-30.25,28.11L5,389.45c-.81,1.86-1.63,3.72-2.44,5.57l-1,.51c-5.39,3.05-10.76,5.12-16-.31q-.81-5.06-1.6-10.12c.28-4-1.83-6.24-5.46-7.38l-4.13-3.09-6.47-4.95-10-6.9c-4.1-6.34-10.38-1.88-15.5-3.13-.08,3.19-.17,6.38-.25,9.57-10,16-19.59,2.91-28.43-1.13-33.66-15.36-68.38-5.33-102.2-3.31-36.85,2.2-69.38-9.86-102.84-20.65-12.26-3.94-23.71-1.05-35.5,3.12-21.07,7.45-81.44-6.42-93.07-20.54,2.79-3.33,6.38-8-.14-9.66-13.64-3.51-27.69-6.37-41.53-.09q-6.5-3.6-13-7.23l-4-14.05,6.08-6.29,5.74-4.11c14.32,5.19,12.63-12.58,21.6-15h0c-1.71-28.44,14.57-22.55,31.05-16.27l20.87-1.85c23.82-.88,48.37,1.4,66.57,16.45,23.35,19.3,66.94,19.79,86.72-3.13,7-8.11,11.66-12.39,25.47-4.21,15.84,9.38,36,18,57,12.11,1.91.3,3.83.58,5.76.87a4.08,4.08,0,0,1,2.67,2.72,22,22,0,0,0,2.23,4.64c-5.21,13.87,4.83,18.87,14.13,24.31,12.32,9,26.07,5.24,39,3.26,15.57-2.37,25.41,2.46,29.95,17.61L-53.31,322c25.57.63,50.82-21.76,77.11,1,10.4,9,17.56,15.27,6,27-5,5-12.69,8.89-6.57,16.8,5.86,7.56,12.81-1.14,19.38-.8,8.13-11.2,1-30.9,20.13-36a3.24,3.24,0,0,1,1.85-3.51l13.71,1.42h0c6,1.76,12.09,3.63,17.4-1.79,10.21-3.85,21.68-4.82,28.49-15.7,4-6.46,14.18-9.89,18.62-5.7,16.84,15.88,26.15,3.3,36.65-8.43,9,7.8-3.63,31,20,27.17C201.09,323.21,201.14,329.48,198.25,332.2Z" transform="translate(1004.63 209.65)"/><path class="cls-7" d="M442.75,151.44c-2.87,10.85-11.53,19-20.41,12.35C388.7,138.63,349.22,141,311.05,136.5c-11,2.24-21.78,3.51-12.28-12.88,8.42-14.54,17.91-27.62,38.65-24.82,23.21,3.13,47-1.48,70.17,5.5C431.48,111.49,443.15,126.68,442.75,151.44Z" transform="translate(1004.63 209.65)"/><path class="cls-7" d="M355.16,293.43c-7.41-10-15.64,4.19-23.42,7.95-15.12,7.31-30.73,21-47.35,9.83C259,294.13,241,304.72,222.85,321.63c2.93,3,4.31,7.26,7.06,10.17-2.75-2.91-4.14-7.14-7.06-10.17-9.4,5.54-15,15-8.78,23.56,7,9.68,19-.31,28.69,1.48-1.64,11.38-5.9,19.32-19.72,17.4-10.5-1.46-20.69-.51-27.07,9.95-6.91,4.47-13.81,9.54-10.05,19,3,7.63,10.39,9.22,17.86,7.69,9.3-1.91,14.47,3.71,20.46,9.2,19.89,18.21,32.5,16.82,52.82-5.09,5.85-3.71,5.88-10.14,1.58-12.9-15.84-10.14-16.85-26.44-19.78-42.18,12.29,3.12,23.83,3,32.93-7.65,18.68-3.6,40.16-.11,52.16-20.62C356.06,315.26,361.17,301.56,355.16,293.43Z" transform="translate(1004.63 209.65)"/><path class="cls-7" d="M368.68-105.11c17.11,1.82,33.55-18.07,42.26-13.44,15.19,8.09,29,14.54,46,14,3.28-.11,6.48-2.49,9.72-3.83q0-9.18,0-18.33c-11.7-9.68-22.16-29.81-37.07-2.09-2.65,4.91-12.87,1.37-18.92-3.7-20.51-17.23-35.31,4.41-52.6,8.69-1.51.38-2.2,8.16-1.55,12.23C357.54-104.83,363.14-105.7,368.68-105.11Z" transform="translate(1004.63 209.65)"/><path class="cls-7" d="M174.36,145.8l-.27.08,0,.18Z" transform="translate(1004.63 209.65)"/><path class="cls-7" d="M333.52-49.26l0-.09c-11.67-16-10-32.44-2.4-49.66,2.33-5.28-1.7-9.85-7.73-11.31-4.75,5.91-11.34,10.48-17.88,5.59-7.22-5.38-1.6-14.77-3-22.23h0a36.64,36.64,0,0,0,20.68-7.67l0,0,5-6.43c.45-3.14.91-6.28,1.35-9.42a9.33,9.33,0,0,1-1.23-4.9l-10.38-2.18a5.8,5.8,0,0,1-4.48,2.13l-5.89,5.31q-2.61,2.53-5.22,5.1c-.3,1.79-.61,3.57-.93,5.37h0l-2.37,0-2.29-.63c-8.93,6.12-18.76,11.46-21.15,23.48-3.45,1.46-6.74,1.75-9.63-.59,3.18,7.82-.83,14-5.49,20-6.33,27.1,8.89,49.73,15.44,74.14-.33,3.38-.66,6.75-1,10.14-9.89,3-18.48,7.61-13.52,20,4.67,11.69,12.77,18.41,26.3,12.35-1.57,10-8.35,16.72-15,23.56-3.53,3.63-8.1,7.29-5.49,13.3s8.25,5,13.36,5.53c25.43,2.53,32.72-8.55,24.22-37,.1-.06.2-.1.3-.17-.09-.2-.19-.38-.28-.58,7.28-4.78,15.39-8.81,16.65-18.91-5.83-15.14-21.77-25.87-19.41-44.58,10.88.35,24.73,19.25,31.68-5A3.61,3.61,0,0,1,333.52-49.26ZM297.15,19.11l-.43.34.06-.6c.15,0,.27,0,.4,0Z" transform="translate(1004.63 209.65)"/><path class="cls-7" d="M265.35-118.74l-.43.38a10.12,10.12,0,0,0,1,1C265.77-117.84,265.57-118.29,265.35-118.74Z" transform="translate(1004.63 209.65)"/><path class="cls-7" d="M431.63,336.56q1,.39,2,.69-1.05-.3-2-.69L403.44,358.1c-8.42,4.95-16.72,10.37-15.83,21.72,1.71,21.74-6.24,38.7-23.21,52.22-4.23,3.37-11.91,8.4-6.26,14.74,6.31,7.09,13.11.55,18.15-3.82,11.84-10.29,21.35-25.54,34.94-31C437,401.57,448.32,382,456.86,358.57h0l4.27-5.49c26.93-7.34,19.9-35.55,33.39-51.87C475.77,318.35,446.48,315,431.63,336.56Z" transform="translate(1004.63 209.65)"/><path class="cls-7" d="M-466.32,166.72c.2.56.37,1.14.53,1.74a26.16,26.16,0,0,1,.78,4.8h0c12.46,10.62,22.88,10,30.64-5.53h0c3.69-12.33,9.47-24.73-9.72-30.6-4.88-1.49-9.1-8.23-11.73-13.5-16.82-33.62-23.35-34.5-51.05-5.91h0q-6.43,4.06-12.84,8.15l11.43,15.73c14.25-9.91,21.44-2.54,26.23,10.65v0a30,30,0,0,1,10.7,6.52A20.68,20.68,0,0,1-466.32,166.72Zm9.24-10.27a12.37,12.37,0,0,0,4.74,5.69,12.42,12.42,0,0,1-4.74-5.69,44.79,44.79,0,0,0-11.83-17.4A44.69,44.69,0,0,1-457.08,156.45Z" transform="translate(1004.63 209.65)"/><path class="cls-7" d="M256.44,86.21c-11.28-3.19-19.75,5.3-22.18,16.42-2,9.09-11.18,6.88-15.16,12.16-10.89,7.93-21.11,20.33-7.48,29.31,12,7.92,24.79,30.88,44.51,12.43C267.29,146.09,286.2,135.87,268,116,271.19,103.26,270.86,90.29,256.44,86.21Z" transform="translate(1004.63 209.65)"/><path class="cls-7" d="M413,71.55l-.1.09-.11.1Z" transform="translate(1004.63 209.65)"/><path class="cls-7" d="M398.41,50.82c-5.32,2.44-11.29,3.46-17,5.13l-.17.1-10.51,10.7c.12,1.92.23,3.85.35,5.77L377,77.08a15.27,15.27,0,0,1,4.66.56l5.29-.27,19.94-.64,6-5.09,5.25-5.52-.14,0C420.59,49.3,415.22,43.12,398.41,50.82Z" transform="translate(1004.63 209.65)"/><path class="cls-7" d="M617.33,217c-10.82-3.2-14.17,6.79-18.4,14.09-19,17.63,4,43.78-13,62.49-7.21,7.94-.92,16.89,7.78,16.35,7.53-.46,20.36-10.54,16.18-16.22-13.92-18.9,9.8-18.5,11.94-28.35,8.6-8.2,7.43-18.84,6.07-28.84C626.91,229.08,625.7,219.5,617.33,217Z" transform="translate(1004.63 209.65)"/><path class="cls-7" d="M-863.17,5.63-868.61,2l.07.11-10.19-6.2L-890-2.38l.51-2.23-5.31.7-10,5.92-5.63,5.73c2.83,13.11,12.32,21.6,19.92,31.85,9.63,13,17.89,18.4,32.3,9.51q2.13-4.83,4.25-9.67c3.44-11.23,2.49-21.82-4.51-31.56A6.43,6.43,0,0,1-863.17,5.63Z" transform="translate(1004.63 209.65)"/><path class="cls-7" d="M297.18,18.88l0,.23-.43.34.06-.6C296.93,18.85,297.05,18.87,297.18,18.88Z" transform="translate(1004.63 209.65)"/><path class="cls-7" d="M424.07-7.07l6.71,2.92.61.18,14-2.72c13.17-4.35,5-13.59,4.83-21-9.05-1.59-18.67-1-26.55-7-6.75,5.42-13.78,10.71-9.37,21.09L421-8.72A3.86,3.86,0,0,1,424.07-7.07Z" transform="translate(1004.63 209.65)"/><path class="cls-7" d="M413.83,288.88c-14.48,2.16-32.25-4-39.85,15.7,28.59,16.81,41.59,16.06,66.51-4,3.77,0,5.86-2.43,7.37-5.62,10.47-8.85,11.1-16.16-4.3-17.87C432.21,275.86,420.5,276.81,413.83,288.88Z" transform="translate(1004.63 209.65)"/><path class="cls-7" d="M908.44,192.38c-14.64-34.65.17-72.86-13-107.69,6.68-.34,9.62,3.85,9.7,9.51C905.59,127,912.85,159.47,908.44,192.38Z" transform="translate(1004.63 209.65)"/><path class="cls-7" d="M-797.84,118.9a5.36,5.36,0,0,1-2.4-4.41l-4.17-6.46c-6.87-8.63-13.44-4.06-20,.46l-1.68,5.76c5,14.14,12.59,23.4,25.42,23-12.83.44-20.44-8.82-25.42-23-1.47,0-2.94-.07-4.39-.21l.11-.23-5.54,5.41.22-.25-5.5,6c.05,2.6.11,5.21.17,7.81l4.89,6.51,0,0,4.66,5.53.3.4c11,10.43,24.2,7,37,5.69l.73-.71,4.54-4.58.24-11.21-5.88-12.15Zm-2.74,18.31a28.21,28.21,0,0,0,3.09-.29A28.21,28.21,0,0,1-800.58,137.21Z" transform="translate(1004.63 209.65)"/><path class="cls-7" d="M498.28,245.62c-5.34,2.59-10.76,5-16.13,7.55.66,3.84,1.92,6.27,3.56,7.78-1.64-1.51-2.9-3.94-3.56-7.78-11.4,4.92-21.54,15-14.88,25.26,5.31,8.19,18.16-2.72,27.63-4.81,4.18-.93,7.25-6.89,10.83-10.56a13.14,13.14,0,0,0-2.46-.33,13.14,13.14,0,0,1,2.46.33c8.95-2.76,20.59-6.29,15.31-17.62C516.36,235.39,506,241.85,498.28,245.62Zm-8.93,17.24a13.87,13.87,0,0,0,1.61.29A13.87,13.87,0,0,1,489.35,262.86Z" transform="translate(1004.63 209.65)"/><path class="cls-8" d="M328.28-155.58c0,.05,0,.11,0,.16l.13,0Z" transform="translate(1004.63 209.65)"/><path class="cls-7" d="M482.59-109.15c4.54-5.19,9.21-10.89,5.46-17.94s-10.22-3.13-15.74-1.89c-1.91.76-3.81,1.53-5.72,2.27q0,9.13,0,18.36C472.48-98.62,478.07-93.76,482.59-109.15Z" transform="translate(1004.63 209.65)"/><path class="cls-7" d="M739.92,45l31.35-4.58C758.33,24.91,749.52,37.71,739.92,45Z" transform="translate(1004.63 209.65)"/><g class="cls-9"><path class="cls-10" d="M-490,198.27c-2.3,3.52-7.26,7.88-6.46,10.48,10.29,33.51,0,67.88,4.8,101.52l-5.74,4.11c-2,2.1-4.05,4.21-6.07,6.29l-14.76-1c-1.71-3.92-5-5.42-9-5.74-2.91-3.35-5.81-3.32-8.71,0l-14.17.69c-8.34-2.62-12.61,10.07-21.4,5.65l-.18-.23c-1.61-1.9-3.2-3.81-4.81-5.72l-4.95-6.33c-1.39-1.55-2.78-3.1-4.17-4.67-11.88-12.61-26.89-20.28-42.52-27l-.17.06c-2.18-1.43-4.38-2.86-6.58-4.28,0,0,0,0,0,0-1.77-1.29-3.55-2.59-5.31-3.9a3.57,3.57,0,0,0-3.61-2.1c-19.75-8.06-17.7-35.15-37.64-43l.15.29-6.58-4.37c-1.78-1.29-3.58-2.56-5.36-3.84l-17.23-17.23c-1.17-2.24-2.32-4.47-3.48-6.71a3.29,3.29,0,0,0-1.57-3.85c.44-3.26-1.24-4.84-4.26-5.37l0,0-5.36-4.63a2,2,0,0,0-2.66-1.5l-7.75-5c-.82-6.85,4.06-14.06-1.26-20.63l-3.55-5.6c-.07-.11-.14-.22-.2-.33l0,.06c-2-3.2-4-6.42-6.07-9.63l-.11-.23c-1.47-2.11-3-4.21-4.42-6.31l.29.27c-5.5-11.68-11.33-23.13-21.12-31.94-.88-3.15-2.86-4.74-6.25-4.32l-6.5-5.7c.59-4.22,1.8-8.61-3-11.4,0,0,0-.11,0-.11-4.42-8.71-12.76-9.9-21.16-11l.24.32-6.58-3.38c-16.44-10.23-13-28-16.5-43.2C-832.35,4.84-837-4.57-851.58-5.43-879.87-13.52-890.64-39-906-60.07-922.67-83-951-91.16-970.7-110.93c-10.61-10.65-20.3-21.11-28.15-33.82-9-14.62-8.35-26,8.35-33.94,5.57-10.33,12.44-13.06,23.57-6.6,23.78,13.81,49.72,17.94,77,21.79,14.21,2,37.51,17.57,36.67,43.06l12,10.17,26.74,7.62c28.61-13.27,40.24-5.86,40,25.47,11.8,16.12,22,34.29,45.67,35,.82,0,2.15.41,2.38,1,11,27.12,49.69,24.68,58.07,54.73,2.75,9.84,12.78,7.26,19.78,9.94,13,5,18.94,23.84,40.59,14.16,8.9-4,15,16.11,7.46,26.71-16,22.6-3.74,30.79,16.17,35.5,27.27,6.43,22.81,36.93,39.73,51q5.73,7.85,11.43,15.72c14.26-9.91,21.45-2.54,26.23,10.66-2.18,2.69-4.36,5.46-6.92,7.34,2.57-1.87,4.74-4.64,6.93-7.32a30,30,0,0,1,10.69,6.53,20.72,20.72,0,0,1,5,7.9q.3.85.54,1.74a28.1,28.1,0,0,1,.78,4.81h0Z" transform="translate(1004.63 209.65)"/><path class="cls-10" d="M912.7,380c2.91-16.05,1.36-32-.77-48-.94-17.28,5.41-35.36-5.7-51.52l-.59-1.47c-9.36-12.27-2-21.84,5.1-31.45q-.19-8.25-.4-16.52a18.77,18.77,0,0,1-1.52-3.21c-.09-.33.82-.94,1.27-1.42,1.64-11.44,2.21-22.84-1.65-34-14.64-34.65.17-72.86-13-107.69a1.68,1.68,0,0,0-2.59-.91c-2.39-7.28-7.31-10.45-13.48-10.45a22.12,22.12,0,0,0-4.91.59c-16.74,3.87-31.77-1-46.62-7.6h0C822.64,58.31,813.73,59,806,57a23.84,23.84,0,0,0,1.39,2.41A22.11,22.11,0,0,1,806,57l-.62-.6h0c-4.79-12.76-16.11-10.18-26-11.06h0l-8.08-4.91L739.92,45A2.08,2.08,0,0,0,737,46.1a5.06,5.06,0,0,0-.17.62,5.09,5.09,0,0,1,.16-.62c-19.82,5.39-37.28-5.15-55.47-5.76-1.22-11.13,18-14.34,5.83-26.11S663.21-10.58,644.63-3.15c-11.21,4.48-19.84,13.23-5,25,6.1,4.81,13.17,9.57,8.67,19.3-11.14,7.37-13.9,13.09.56,21.22,13.13,7.37,25.85,7.88,39.62,5.28,6.14,12.81-8.42,15.68-11.52,24a2.4,2.4,0,0,0-.19.29c2.3,8.39,3.2,16.06-8.7,17.29-.53-1.62-1.1-3.22-1.73-4.79-10.31,4.43-12.27,20.41-26.67,19.22-16.58-8.47-16.62-29.28-29.9-40.27-.63,5.74-3,7.9-8,3.6-13.16-11.37-15.54-26.37-13.95-42.57,1-10.16,4.86-20.24.57-30.49-1.63-3.88-3.24-7.76-4.87-11.65-11.42-6.66-27.85,5.34-36.93-9.95l-6-4.63c-14-1.85-28-2.86-41.95.38a5.27,5.27,0,0,1-3.41,1.57l-7.48,2.6c-7.88,6-19.65,2.74-26.53,11.13-1.4.2-2.8.42-4.19.66-18.44,10-26.7,24.63-21.06,45.69,13.87,3.58,35-7.27,39.92,12.72,2.93,11.94,10.26,16.6,16.49,24,14.43-11.69,33.18,2,47.89-8.11-1.8,13.71-9.33,19.19-23,16.55-6.44-1.25-13.55-4.67-18.48,3.27l-5.88.16c-9,9.68-14,17.11,3.62,24.69,10.65,4.59,27.71,8.41,19.51,29.42-2.74,7,6.37,16.35,14.56,19.85s12.28-3.9,16.2-9.73l15.66-12.2c4.64,3.43,10,10.28,13.92,10.28a2.9,2.9,0,0,0,.66-.07c17.7-3.94,27-.27,33.85,18.55,2.33,6.46,17,16,31.19,15.32,50.74-2.43,89.93,27,131.69,49.26,4.66,2.48,6,5.16,3.36,10.29-5.58,10.76,2.67,17.69,7.5,25.86,12.26,20.8,31.73,42.18,28.76,65.27-3.54,27.59,10.08,21.62,22.87,18.1,11.84-3.29,20.46-1.81,28.56,6.63,7.93,8.27,15.51,16.92,24,24.63,5.07,4.62,8.13,15.84,18.6,8.53C915.68,397.15,917.63,389.24,912.7,380ZM565,130.81a16.09,16.09,0,0,0,.5-1.66A15.38,15.38,0,0,1,565,130.81ZM667.58,113c0,.42-.05.84-.07,1.26h0C667.53,113.81,667.55,113.39,667.58,113Zm-.08,1.27c0,2.1.07,4.21.1,6.33C663.3,118.52,663.33,116.41,667.5,114.24Zm35.62-11.47c0-.2-.07-.39-.11-.57,0,.18.08.37.12.58s.07.32.11.47C703.2,103.09,703.15,102.93,703.12,102.77ZM827.61,66.35l.57.55-.58-.54-1.39.19ZM855,345.71l-.81.28c-.95.35-1.93.73-2.93,1.12-1.33.51-2.7,1-4.06,1.51,1.37-.48,2.73-1,4.06-1.51l2.93-1.13.81-.27a16.08,16.08,0,0,1,8.14-.62A16.3,16.3,0,0,0,855,345.71Zm8.69-.51a15.48,15.48,0,0,1,1.91.55A17.44,17.44,0,0,0,863.66,345.2ZM905,319.66a15.68,15.68,0,0,0-1.29-1.92,14.62,14.62,0,0,1,1.29,1.92c.4.67.75,1.39,1.1,2.12C905.78,321.05,905.42,320.33,905,319.66Z" transform="translate(1004.63 209.65)"/><path class="cls-10" d="M198.25,332.2c-13.42,12.63-21.58,34.41-46.86,26.46-2.94-.92-7.43-.08-10,1.67-31.78,21.34-65.3,13.63-98.84,6.46-6.88,12.82-13.28,26.14-30.25,28.11L5,389.45c-.81,1.86-1.63,3.72-2.44,5.57l-1,.51c-5.39,3.05-10.76,5.12-16-.31q-.81-5.06-1.6-10.12c.28-4-1.83-6.24-5.46-7.38l-4.13-3.09-6.47-4.95-10-6.9c-4.1-6.34-10.38-1.88-15.5-3.13-.08,3.19-.17,6.38-.25,9.57-10,16-19.59,2.91-28.43-1.13-33.66-15.36-68.38-5.33-102.2-3.31-36.85,2.2-69.38-9.86-102.84-20.65-12.26-3.94-23.71-1.05-35.5,3.12-21.07,7.45-81.44-6.42-93.07-20.54,2.79-3.33,6.38-8-.14-9.66-13.64-3.51-27.69-6.37-41.53-.09q-6.5-3.6-13-7.23l-4-14.05,6.08-6.29,5.74-4.11c14.32,5.19,12.63-12.58,21.6-15h0c-1.71-28.44,14.57-22.55,31.05-16.27l20.87-1.85c23.82-.88,48.37,1.4,66.57,16.45,23.35,19.3,66.94,19.79,86.72-3.13,7-8.11,11.66-12.39,25.47-4.21,15.84,9.38,36,18,57,12.11,1.91.3,3.83.58,5.76.87a4.08,4.08,0,0,1,2.67,2.72,22,22,0,0,0,2.23,4.64c-5.21,13.87,4.83,18.87,14.13,24.31,12.32,9,26.07,5.24,39,3.26,15.57-2.37,25.41,2.46,29.95,17.61L-53.31,322c25.57.63,50.82-21.76,77.11,1,10.4,9,17.56,15.27,6,27-5,5-12.69,8.89-6.57,16.8,5.86,7.56,12.81-1.14,19.38-.8,8.13-11.2,1-30.9,20.13-36a3.24,3.24,0,0,1,1.85-3.51l13.71,1.42h0c6,1.76,12.09,3.63,17.4-1.79,10.21-3.85,21.68-4.82,28.49-15.7,4-6.46,14.18-9.89,18.62-5.7,16.84,15.88,26.15,3.3,36.65-8.43,9,7.8-3.63,31,20,27.17C201.09,323.21,201.14,329.48,198.25,332.2Z" transform="translate(1004.63 209.65)"/><path class="cls-10" d="M442.75,151.44c-2.87,10.85-11.53,19-20.41,12.35C388.7,138.63,349.22,141,311.05,136.5c-11,2.24-21.78,3.51-12.28-12.88,8.42-14.54,17.91-27.62,38.65-24.82,23.21,3.13,47-1.48,70.17,5.5C431.48,111.49,443.15,126.68,442.75,151.44Z" transform="translate(1004.63 209.65)"/><path class="cls-10" d="M355.16,293.43c-7.41-10-15.64,4.19-23.42,7.95-15.12,7.31-30.73,21-47.35,9.83C259,294.13,241,304.72,222.85,321.63c2.93,3,4.31,7.26,7.06,10.17-2.75-2.91-4.14-7.14-7.06-10.17-9.4,5.54-15,15-8.78,23.56,7,9.68,19-.31,28.69,1.48-1.64,11.38-5.9,19.32-19.72,17.4-10.5-1.46-20.69-.51-27.07,9.95-6.91,4.47-13.81,9.54-10.05,19,3,7.63,10.39,9.22,17.86,7.69,9.3-1.91,14.47,3.71,20.46,9.2,19.89,18.21,32.5,16.82,52.82-5.09,5.85-3.71,5.88-10.14,1.58-12.9-15.84-10.14-16.85-26.44-19.78-42.18,12.29,3.12,23.83,3,32.93-7.65,18.68-3.6,40.16-.11,52.16-20.62C356.06,315.26,361.17,301.56,355.16,293.43Z" transform="translate(1004.63 209.65)"/><path class="cls-10" d="M368.68-105.11c17.11,1.82,33.55-18.07,42.26-13.44,15.19,8.09,29,14.54,46,14,3.28-.11,6.48-2.49,9.72-3.83q0-9.18,0-18.33c-11.7-9.68-22.16-29.81-37.07-2.09-2.65,4.91-12.87,1.37-18.92-3.7-20.51-17.23-35.31,4.41-52.6,8.69-1.51.38-2.2,8.16-1.55,12.23C357.54-104.83,363.14-105.7,368.68-105.11Z" transform="translate(1004.63 209.65)"/><path class="cls-10" d="M174.36,145.8l-.27.08,0,.18Z" transform="translate(1004.63 209.65)"/><path class="cls-10" d="M333.52-49.26l0-.09c-11.67-16-10-32.44-2.4-49.66,2.33-5.28-1.7-9.85-7.73-11.31-4.75,5.91-11.34,10.48-17.88,5.59-7.22-5.38-1.6-14.77-3-22.23h0a36.64,36.64,0,0,0,20.68-7.67l0,0,5-6.43c.45-3.14.91-6.28,1.35-9.42a9.33,9.33,0,0,1-1.23-4.9l-10.38-2.18a5.8,5.8,0,0,1-4.48,2.13l-5.89,5.31q-2.61,2.53-5.22,5.1c-.3,1.79-.61,3.57-.93,5.37h0l-2.37,0-2.29-.63c-8.93,6.12-18.76,11.46-21.15,23.48-3.45,1.46-6.74,1.75-9.63-.59,3.18,7.82-.83,14-5.49,20-6.33,27.1,8.89,49.73,15.44,74.14-.33,3.38-.66,6.75-1,10.14-9.89,3-18.48,7.61-13.52,20,4.67,11.69,12.77,18.41,26.3,12.35-1.57,10-8.35,16.72-15,23.56-3.53,3.63-8.1,7.29-5.49,13.3s8.25,5,13.36,5.53c25.43,2.53,32.72-8.55,24.22-37,.1-.06.2-.1.3-.17-.09-.2-.19-.38-.28-.58,7.28-4.78,15.39-8.81,16.65-18.91-5.83-15.14-21.77-25.87-19.41-44.58,10.88.35,24.73,19.25,31.68-5A3.61,3.61,0,0,1,333.52-49.26ZM297.15,19.11l-.43.34.06-.6c.15,0,.27,0,.4,0Z" transform="translate(1004.63 209.65)"/><path class="cls-10" d="M265.35-118.74l-.43.38a10.12,10.12,0,0,0,1,1C265.77-117.84,265.57-118.29,265.35-118.74Z" transform="translate(1004.63 209.65)"/><path class="cls-10" d="M431.63,336.56q1,.39,2,.69-1.05-.3-2-.69L403.44,358.1c-8.42,4.95-16.72,10.37-15.83,21.72,1.71,21.74-6.24,38.7-23.21,52.22-4.23,3.37-11.91,8.4-6.26,14.74,6.31,7.09,13.11.55,18.15-3.82,11.84-10.29,21.35-25.54,34.94-31C437,401.57,448.32,382,456.86,358.57h0l4.27-5.49c26.93-7.34,19.9-35.55,33.39-51.87C475.77,318.35,446.48,315,431.63,336.56Z" transform="translate(1004.63 209.65)"/><path class="cls-10" d="M-466.32,166.72c.2.56.37,1.14.53,1.74a26.16,26.16,0,0,1,.78,4.8h0c12.46,10.62,22.88,10,30.64-5.53h0c3.69-12.33,9.47-24.73-9.72-30.6-4.88-1.49-9.1-8.23-11.73-13.5-16.82-33.62-23.35-34.5-51.05-5.91h0q-6.43,4.06-12.84,8.15l11.43,15.73c14.25-9.91,21.44-2.54,26.23,10.65v0a30,30,0,0,1,10.7,6.52A20.68,20.68,0,0,1-466.32,166.72Zm9.24-10.27a12.37,12.37,0,0,0,4.74,5.69,12.42,12.42,0,0,1-4.74-5.69,44.79,44.79,0,0,0-11.83-17.4A44.69,44.69,0,0,1-457.08,156.45Z" transform="translate(1004.63 209.65)"/><path class="cls-10" d="M256.44,86.21c-11.28-3.19-19.75,5.3-22.18,16.42-2,9.09-11.18,6.88-15.16,12.16-10.89,7.93-21.11,20.33-7.48,29.31,12,7.92,24.79,30.88,44.51,12.43C267.29,146.09,286.2,135.87,268,116,271.19,103.26,270.86,90.29,256.44,86.21Z" transform="translate(1004.63 209.65)"/><path class="cls-10" d="M413,71.55l-.1.09-.11.1Z" transform="translate(1004.63 209.65)"/><path class="cls-10" d="M398.41,50.82c-5.32,2.44-11.29,3.46-17,5.13l-.17.1-10.51,10.7c.12,1.92.23,3.85.35,5.77L377,77.08a15.27,15.27,0,0,1,4.66.56l5.29-.27,19.94-.64,6-5.09,5.25-5.52-.14,0C420.59,49.3,415.22,43.12,398.41,50.82Z" transform="translate(1004.63 209.65)"/><path class="cls-10" d="M617.33,217c-10.82-3.2-14.17,6.79-18.4,14.09-19,17.63,4,43.78-13,62.49-7.21,7.94-.92,16.89,7.78,16.35,7.53-.46,20.36-10.54,16.18-16.22-13.92-18.9,9.8-18.5,11.94-28.35,8.6-8.2,7.43-18.84,6.07-28.84C626.91,229.08,625.7,219.5,617.33,217Z" transform="translate(1004.63 209.65)"/><path class="cls-10" d="M-863.17,5.63-868.61,2l.07.11-10.19-6.2L-890-2.38l.51-2.23-5.31.7-10,5.92-5.63,5.73c2.83,13.11,12.32,21.6,19.92,31.85,9.63,13,17.89,18.4,32.3,9.51q2.13-4.83,4.25-9.67c3.44-11.23,2.49-21.82-4.51-31.56A6.43,6.43,0,0,1-863.17,5.63Z" transform="translate(1004.63 209.65)"/><path class="cls-10" d="M297.18,18.88l0,.23-.43.34.06-.6C296.93,18.85,297.05,18.87,297.18,18.88Z" transform="translate(1004.63 209.65)"/><path class="cls-10" d="M424.07-7.07l6.71,2.92.61.18,14-2.72c13.17-4.35,5-13.59,4.83-21-9.05-1.59-18.67-1-26.55-7-6.75,5.42-13.78,10.71-9.37,21.09L421-8.72A3.86,3.86,0,0,1,424.07-7.07Z" transform="translate(1004.63 209.65)"/><path class="cls-10" d="M413.83,288.88c-14.48,2.16-32.25-4-39.85,15.7,28.59,16.81,41.59,16.06,66.51-4,3.77,0,5.86-2.43,7.37-5.62,10.47-8.85,11.1-16.16-4.3-17.87C432.21,275.86,420.5,276.81,413.83,288.88Z" transform="translate(1004.63 209.65)"/><path class="cls-10" d="M908.44,192.38c-14.64-34.65.17-72.86-13-107.69,6.68-.34,9.62,3.85,9.7,9.51C905.59,127,912.85,159.47,908.44,192.38Z" transform="translate(1004.63 209.65)"/><path class="cls-10" d="M-797.84,118.9a5.36,5.36,0,0,1-2.4-4.41l-4.17-6.46c-6.87-8.63-13.44-4.06-20,.46l-1.68,5.76c5,14.14,12.59,23.4,25.42,23-12.83.44-20.44-8.82-25.42-23-1.47,0-2.94-.07-4.39-.21l.11-.23-5.54,5.41.22-.25-5.5,6c.05,2.6.11,5.21.17,7.81l4.89,6.51,0,0,4.66,5.53.3.4c11,10.43,24.2,7,37,5.69l.73-.71,4.54-4.58.24-11.21-5.88-12.15Zm-2.74,18.31a28.21,28.21,0,0,0,3.09-.29A28.21,28.21,0,0,1-800.58,137.21Z" transform="translate(1004.63 209.65)"/><path class="cls-10" d="M498.28,245.62c-5.34,2.59-10.76,5-16.13,7.55.66,3.84,1.92,6.27,3.56,7.78-1.64-1.51-2.9-3.94-3.56-7.78-11.4,4.92-21.54,15-14.88,25.26,5.31,8.19,18.16-2.72,27.63-4.81,4.18-.93,7.25-6.89,10.83-10.56a13.14,13.14,0,0,0-2.46-.33,13.14,13.14,0,0,1,2.46.33c8.95-2.76,20.59-6.29,15.31-17.62C516.36,235.39,506,241.85,498.28,245.62Zm-8.93,17.24a13.87,13.87,0,0,0,1.61.29A13.87,13.87,0,0,1,489.35,262.86Z" transform="translate(1004.63 209.65)"/><path class="cls-11" d="M328.28-155.58c0,.05,0,.11,0,.16l.13,0Z" transform="translate(1004.63 209.65)"/><path class="cls-10" d="M482.59-109.15c4.54-5.19,9.21-10.89,5.46-17.94s-10.22-3.13-15.74-1.89c-1.91.76-3.81,1.53-5.72,2.27q0,9.13,0,18.36C472.48-98.62,478.07-93.76,482.59-109.15Z" transform="translate(1004.63 209.65)"/><path class="cls-10" d="M739.92,45l31.35-4.58C758.33,24.91,749.52,37.71,739.92,45Z" transform="translate(1004.63 209.65)"/></g><g class="cls-9"><path class="cls-12" d="M-490,198.27c-2.3,3.52-7.26,7.88-6.46,10.48,10.29,33.51,0,67.88,4.8,101.52l-5.74,4.11c-2,2.1-4.05,4.21-6.07,6.29l-14.76-1c-1.71-3.92-5-5.42-9-5.74-2.91-3.35-5.81-3.32-8.71,0l-14.17.69c-8.34-2.62-12.61,10.07-21.4,5.65l-.18-.23c-1.61-1.9-3.2-3.81-4.81-5.72l-4.95-6.33c-1.39-1.55-2.78-3.1-4.17-4.67-11.88-12.61-26.89-20.28-42.52-27l-.17.06c-2.18-1.43-4.38-2.86-6.58-4.28,0,0,0,0,0,0-1.77-1.29-3.55-2.59-5.31-3.9a3.57,3.57,0,0,0-3.61-2.1c-19.75-8.06-17.7-35.15-37.64-43l.15.29-6.58-4.37c-1.78-1.29-3.58-2.56-5.36-3.84l-17.23-17.23c-1.17-2.24-2.32-4.47-3.48-6.71a3.29,3.29,0,0,0-1.57-3.85c.44-3.26-1.24-4.84-4.26-5.37l0,0-5.36-4.63a2,2,0,0,0-2.66-1.5l-7.75-5c-.82-6.85,4.06-14.06-1.26-20.63l-3.55-5.6c-.07-.11-.14-.22-.2-.33l0,.06c-2-3.2-4-6.42-6.07-9.63l-.11-.23c-1.47-2.11-3-4.21-4.42-6.31l.29.27c-5.5-11.68-11.33-23.13-21.12-31.94-.88-3.15-2.86-4.74-6.25-4.32l-6.5-5.7c.59-4.22,1.8-8.61-3-11.4,0,0,0-.11,0-.11-4.42-8.71-12.76-9.9-21.16-11l.24.32-6.58-3.38c-16.44-10.23-13-28-16.5-43.2C-832.35,4.84-837-4.57-851.58-5.43-879.87-13.52-890.64-39-906-60.07-922.67-83-951-91.16-970.7-110.93c-10.61-10.65-20.3-21.11-28.15-33.82-9-14.62-8.35-26,8.35-33.94,5.57-10.33,12.44-13.06,23.57-6.6,23.78,13.81,49.72,17.94,77,21.79,14.21,2,37.51,17.57,36.67,43.06l12,10.17,26.74,7.62c28.61-13.27,40.24-5.86,40,25.47,11.8,16.12,22,34.29,45.67,35,.82,0,2.15.41,2.38,1,11,27.12,49.69,24.68,58.07,54.73,2.75,9.84,12.78,7.26,19.78,9.94,13,5,18.94,23.84,40.59,14.16,8.9-4,15,16.11,7.46,26.71-16,22.6-3.74,30.79,16.17,35.5,27.27,6.43,22.81,36.93,39.73,51q5.73,7.85,11.43,15.72c14.26-9.91,21.45-2.54,26.23,10.66-2.18,2.69-4.36,5.46-6.92,7.34,2.57-1.87,4.74-4.64,6.93-7.32a30,30,0,0,1,10.69,6.53,20.72,20.72,0,0,1,5,7.9q.3.85.54,1.74a28.1,28.1,0,0,1,.78,4.81h0Z" transform="translate(1004.63 209.65)"/><path class="cls-12" d="M912.7,380c2.91-16.05,1.36-32-.77-48-.94-17.28,5.41-35.36-5.7-51.52l-.59-1.47c-9.36-12.27-2-21.84,5.1-31.45q-.19-8.25-.4-16.52a18.77,18.77,0,0,1-1.52-3.21c-.09-.33.82-.94,1.27-1.42,1.64-11.44,2.21-22.84-1.65-34-14.64-34.65.17-72.86-13-107.69a1.68,1.68,0,0,0-2.59-.91c-2.39-7.28-7.31-10.45-13.48-10.45a22.12,22.12,0,0,0-4.91.59c-16.74,3.87-31.77-1-46.62-7.6h0C822.64,58.31,813.73,59,806,57a23.84,23.84,0,0,0,1.39,2.41A22.11,22.11,0,0,1,806,57l-.62-.6h0c-4.79-12.76-16.11-10.18-26-11.06h0l-8.08-4.91L739.92,45A2.08,2.08,0,0,0,737,46.1a5.06,5.06,0,0,0-.17.62,5.09,5.09,0,0,1,.16-.62c-19.82,5.39-37.28-5.15-55.47-5.76-1.22-11.13,18-14.34,5.83-26.11S663.21-10.58,644.63-3.15c-11.21,4.48-19.84,13.23-5,25,6.1,4.81,13.17,9.57,8.67,19.3-11.14,7.37-13.9,13.09.56,21.22,13.13,7.37,25.85,7.88,39.62,5.28,6.14,12.81-8.42,15.68-11.52,24a2.4,2.4,0,0,0-.19.29c2.3,8.39,3.2,16.06-8.7,17.29-.53-1.62-1.1-3.22-1.73-4.79-10.31,4.43-12.27,20.41-26.67,19.22-16.58-8.47-16.62-29.28-29.9-40.27-.63,5.74-3,7.9-8,3.6-13.16-11.37-15.54-26.37-13.95-42.57,1-10.16,4.86-20.24.57-30.49-1.63-3.88-3.24-7.76-4.87-11.65-11.42-6.66-27.85,5.34-36.93-9.95l-6-4.63c-14-1.85-28-2.86-41.95.38a5.27,5.27,0,0,1-3.41,1.57l-7.48,2.6c-7.88,6-19.65,2.74-26.53,11.13-1.4.2-2.8.42-4.19.66-18.44,10-26.7,24.63-21.06,45.69,13.87,3.58,35-7.27,39.92,12.72,2.93,11.94,10.26,16.6,16.49,24,14.43-11.69,33.18,2,47.89-8.11-1.8,13.71-9.33,19.19-23,16.55-6.44-1.25-13.55-4.67-18.48,3.27l-5.88.16c-9,9.68-14,17.11,3.62,24.69,10.65,4.59,27.71,8.41,19.51,29.42-2.74,7,6.37,16.35,14.56,19.85s12.28-3.9,16.2-9.73l15.66-12.2c4.64,3.43,10,10.28,13.92,10.28a2.9,2.9,0,0,0,.66-.07c17.7-3.94,27-.27,33.85,18.55,2.33,6.46,17,16,31.19,15.32,50.74-2.43,89.93,27,131.69,49.26,4.66,2.48,6,5.16,3.36,10.29-5.58,10.76,2.67,17.69,7.5,25.86,12.26,20.8,31.73,42.18,28.76,65.27-3.54,27.59,10.08,21.62,22.87,18.1,11.84-3.29,20.46-1.81,28.56,6.63,7.93,8.27,15.51,16.92,24,24.63,5.07,4.62,8.13,15.84,18.6,8.53C915.68,397.15,917.63,389.24,912.7,380ZM565,130.81a16.09,16.09,0,0,0,.5-1.66A15.38,15.38,0,0,1,565,130.81ZM667.58,113c0,.42-.05.84-.07,1.26h0C667.53,113.81,667.55,113.39,667.58,113Zm-.08,1.27c0,2.1.07,4.21.1,6.33C663.3,118.52,663.33,116.41,667.5,114.24Zm35.62-11.47c0-.2-.07-.39-.11-.57,0,.18.08.37.12.58s.07.32.11.47C703.2,103.09,703.15,102.93,703.12,102.77ZM827.61,66.35l.57.55-.58-.54-1.39.19ZM855,345.71l-.81.28c-.95.35-1.93.73-2.93,1.12-1.33.51-2.7,1-4.06,1.51,1.37-.48,2.73-1,4.06-1.51l2.93-1.13.81-.27a16.08,16.08,0,0,1,8.14-.62A16.3,16.3,0,0,0,855,345.71Zm8.69-.51a15.48,15.48,0,0,1,1.91.55A17.44,17.44,0,0,0,863.66,345.2ZM905,319.66a15.68,15.68,0,0,0-1.29-1.92,14.62,14.62,0,0,1,1.29,1.92c.4.67.75,1.39,1.1,2.12C905.78,321.05,905.42,320.33,905,319.66Z" transform="translate(1004.63 209.65)"/><path class="cls-12" d="M198.25,332.2c-13.42,12.63-21.58,34.41-46.86,26.46-2.94-.92-7.43-.08-10,1.67-31.78,21.34-65.3,13.63-98.84,6.46-6.88,12.82-13.28,26.14-30.25,28.11L5,389.45c-.81,1.86-1.63,3.72-2.44,5.57l-1,.51c-5.39,3.05-10.76,5.12-16-.31q-.81-5.06-1.6-10.12c.28-4-1.83-6.24-5.46-7.38l-4.13-3.09-6.47-4.95-10-6.9c-4.1-6.34-10.38-1.88-15.5-3.13-.08,3.19-.17,6.38-.25,9.57-10,16-19.59,2.91-28.43-1.13-33.66-15.36-68.38-5.33-102.2-3.31-36.85,2.2-69.38-9.86-102.84-20.65-12.26-3.94-23.71-1.05-35.5,3.12-21.07,7.45-81.44-6.42-93.07-20.54,2.79-3.33,6.38-8-.14-9.66-13.64-3.51-27.69-6.37-41.53-.09q-6.5-3.6-13-7.23l-4-14.05,6.08-6.29,5.74-4.11c14.32,5.19,12.63-12.58,21.6-15h0c-1.71-28.44,14.57-22.55,31.05-16.27l20.87-1.85c23.82-.88,48.37,1.4,66.57,16.45,23.35,19.3,66.94,19.79,86.72-3.13,7-8.11,11.66-12.39,25.47-4.21,15.84,9.38,36,18,57,12.11,1.91.3,3.83.58,5.76.87a4.08,4.08,0,0,1,2.67,2.72,22,22,0,0,0,2.23,4.64c-5.21,13.87,4.83,18.87,14.13,24.31,12.32,9,26.07,5.24,39,3.26,15.57-2.37,25.41,2.46,29.95,17.61L-53.31,322c25.57.63,50.82-21.76,77.11,1,10.4,9,17.56,15.27,6,27-5,5-12.69,8.89-6.57,16.8,5.86,7.56,12.81-1.14,19.38-.8,8.13-11.2,1-30.9,20.13-36a3.24,3.24,0,0,1,1.85-3.51l13.71,1.42h0c6,1.76,12.09,3.63,17.4-1.79,10.21-3.85,21.68-4.82,28.49-15.7,4-6.46,14.18-9.89,18.62-5.7,16.84,15.88,26.15,3.3,36.65-8.43,9,7.8-3.63,31,20,27.17C201.09,323.21,201.14,329.48,198.25,332.2Z" transform="translate(1004.63 209.65)"/><path class="cls-12" d="M442.75,151.44c-2.87,10.85-11.53,19-20.41,12.35C388.7,138.63,349.22,141,311.05,136.5c-11,2.24-21.78,3.51-12.28-12.88,8.42-14.54,17.91-27.62,38.65-24.82,23.21,3.13,47-1.48,70.17,5.5C431.48,111.49,443.15,126.68,442.75,151.44Z" transform="translate(1004.63 209.65)"/><path class="cls-12" d="M355.16,293.43c-7.41-10-15.64,4.19-23.42,7.95-15.12,7.31-30.73,21-47.35,9.83C259,294.13,241,304.72,222.85,321.63c2.93,3,4.31,7.26,7.06,10.17-2.75-2.91-4.14-7.14-7.06-10.17-9.4,5.54-15,15-8.78,23.56,7,9.68,19-.31,28.69,1.48-1.64,11.38-5.9,19.32-19.72,17.4-10.5-1.46-20.69-.51-27.07,9.95-6.91,4.47-13.81,9.54-10.05,19,3,7.63,10.39,9.22,17.86,7.69,9.3-1.91,14.47,3.71,20.46,9.2,19.89,18.21,32.5,16.82,52.82-5.09,5.85-3.71,5.88-10.14,1.58-12.9-15.84-10.14-16.85-26.44-19.78-42.18,12.29,3.12,23.83,3,32.93-7.65,18.68-3.6,40.16-.11,52.16-20.62C356.06,315.26,361.17,301.56,355.16,293.43Z" transform="translate(1004.63 209.65)"/><path class="cls-12" d="M368.68-105.11c17.11,1.82,33.55-18.07,42.26-13.44,15.19,8.09,29,14.54,46,14,3.28-.11,6.48-2.49,9.72-3.83q0-9.18,0-18.33c-11.7-9.68-22.16-29.81-37.07-2.09-2.65,4.91-12.87,1.37-18.92-3.7-20.51-17.23-35.31,4.41-52.6,8.69-1.51.38-2.2,8.16-1.55,12.23C357.54-104.83,363.14-105.7,368.68-105.11Z" transform="translate(1004.63 209.65)"/><path class="cls-12" d="M174.36,145.8l-.27.08,0,.18Z" transform="translate(1004.63 209.65)"/><path class="cls-12" d="M333.52-49.26l0-.09c-11.67-16-10-32.44-2.4-49.66,2.33-5.28-1.7-9.85-7.73-11.31-4.75,5.91-11.34,10.48-17.88,5.59-7.22-5.38-1.6-14.77-3-22.23h0a36.64,36.64,0,0,0,20.68-7.67l0,0,5-6.43c.45-3.14.91-6.28,1.35-9.42a9.33,9.33,0,0,1-1.23-4.9l-10.38-2.18a5.8,5.8,0,0,1-4.48,2.13l-5.89,5.31q-2.61,2.53-5.22,5.1c-.3,1.79-.61,3.57-.93,5.37h0l-2.37,0-2.29-.63c-8.93,6.12-18.76,11.46-21.15,23.48-3.45,1.46-6.74,1.75-9.63-.59,3.18,7.82-.83,14-5.49,20-6.33,27.1,8.89,49.73,15.44,74.14-.33,3.38-.66,6.75-1,10.14-9.89,3-18.48,7.61-13.52,20,4.67,11.69,12.77,18.41,26.3,12.35-1.57,10-8.35,16.72-15,23.56-3.53,3.63-8.1,7.29-5.49,13.3s8.25,5,13.36,5.53c25.43,2.53,32.72-8.55,24.22-37,.1-.06.2-.1.3-.17-.09-.2-.19-.38-.28-.58,7.28-4.78,15.39-8.81,16.65-18.91-5.83-15.14-21.77-25.87-19.41-44.58,10.88.35,24.73,19.25,31.68-5A3.61,3.61,0,0,1,333.52-49.26ZM297.15,19.11l-.43.34.06-.6c.15,0,.27,0,.4,0Z" transform="translate(1004.63 209.65)"/><path class="cls-12" d="M265.35-118.74l-.43.38a10.12,10.12,0,0,0,1,1C265.77-117.84,265.57-118.29,265.35-118.74Z" transform="translate(1004.63 209.65)"/><path class="cls-12" d="M431.63,336.56q1,.39,2,.69-1.05-.3-2-.69L403.44,358.1c-8.42,4.95-16.72,10.37-15.83,21.72,1.71,21.74-6.24,38.7-23.21,52.22-4.23,3.37-11.91,8.4-6.26,14.74,6.31,7.09,13.11.55,18.15-3.82,11.84-10.29,21.35-25.54,34.94-31C437,401.57,448.32,382,456.86,358.57h0l4.27-5.49c26.93-7.34,19.9-35.55,33.39-51.87C475.77,318.35,446.48,315,431.63,336.56Z" transform="translate(1004.63 209.65)"/><path class="cls-12" d="M-466.32,166.72c.2.56.37,1.14.53,1.74a26.16,26.16,0,0,1,.78,4.8h0c12.46,10.62,22.88,10,30.64-5.53h0c3.69-12.33,9.47-24.73-9.72-30.6-4.88-1.49-9.1-8.23-11.73-13.5-16.82-33.62-23.35-34.5-51.05-5.91h0q-6.43,4.06-12.84,8.15l11.43,15.73c14.25-9.91,21.44-2.54,26.23,10.65v0a30,30,0,0,1,10.7,6.52A20.68,20.68,0,0,1-466.32,166.72Zm9.24-10.27a12.37,12.37,0,0,0,4.74,5.69,12.42,12.42,0,0,1-4.74-5.69,44.79,44.79,0,0,0-11.83-17.4A44.69,44.69,0,0,1-457.08,156.45Z" transform="translate(1004.63 209.65)"/><path class="cls-12" d="M256.44,86.21c-11.28-3.19-19.75,5.3-22.18,16.42-2,9.09-11.18,6.88-15.16,12.16-10.89,7.93-21.11,20.33-7.48,29.31,12,7.92,24.79,30.88,44.51,12.43C267.29,146.09,286.2,135.87,268,116,271.19,103.26,270.86,90.29,256.44,86.21Z" transform="translate(1004.63 209.65)"/><path class="cls-12" d="M413,71.55l-.1.09-.11.1Z" transform="translate(1004.63 209.65)"/><path class="cls-12" d="M398.41,50.82c-5.32,2.44-11.29,3.46-17,5.13l-.17.1-10.51,10.7c.12,1.92.23,3.85.35,5.77L377,77.08a15.27,15.27,0,0,1,4.66.56l5.29-.27,19.94-.64,6-5.09,5.25-5.52-.14,0C420.59,49.3,415.22,43.12,398.41,50.82Z" transform="translate(1004.63 209.65)"/><path class="cls-12" d="M617.33,217c-10.82-3.2-14.17,6.79-18.4,14.09-19,17.63,4,43.78-13,62.49-7.21,7.94-.92,16.89,7.78,16.35,7.53-.46,20.36-10.54,16.18-16.22-13.92-18.9,9.8-18.5,11.94-28.35,8.6-8.2,7.43-18.84,6.07-28.84C626.91,229.08,625.7,219.5,617.33,217Z" transform="translate(1004.63 209.65)"/><path class="cls-12" d="M-863.17,5.63-868.61,2l.07.11-10.19-6.2L-890-2.38l.51-2.23-5.31.7-10,5.92-5.63,5.73c2.83,13.11,12.32,21.6,19.92,31.85,9.63,13,17.89,18.4,32.3,9.51q2.13-4.83,4.25-9.67c3.44-11.23,2.49-21.82-4.51-31.56A6.43,6.43,0,0,1-863.17,5.63Z" transform="translate(1004.63 209.65)"/><path class="cls-12" d="M297.18,18.88l0,.23-.43.34.06-.6C296.93,18.85,297.05,18.87,297.18,18.88Z" transform="translate(1004.63 209.65)"/><path class="cls-12" d="M424.07-7.07l6.71,2.92.61.18,14-2.72c13.17-4.35,5-13.59,4.83-21-9.05-1.59-18.67-1-26.55-7-6.75,5.42-13.78,10.71-9.37,21.09L421-8.72A3.86,3.86,0,0,1,424.07-7.07Z" transform="translate(1004.63 209.65)"/><path class="cls-12" d="M413.83,288.88c-14.48,2.16-32.25-4-39.85,15.7,28.59,16.81,41.59,16.06,66.51-4,3.77,0,5.86-2.43,7.37-5.62,10.47-8.85,11.1-16.16-4.3-17.87C432.21,275.86,420.5,276.81,413.83,288.88Z" transform="translate(1004.63 209.65)"/><path class="cls-12" d="M908.44,192.38c-14.64-34.65.17-72.86-13-107.69,6.68-.34,9.62,3.85,9.7,9.51C905.59,127,912.85,159.47,908.44,192.38Z" transform="translate(1004.63 209.65)"/><path class="cls-12" d="M-797.84,118.9a5.36,5.36,0,0,1-2.4-4.41l-4.17-6.46c-6.87-8.63-13.44-4.06-20,.46l-1.68,5.76c5,14.14,12.59,23.4,25.42,23-12.83.44-20.44-8.82-25.42-23-1.47,0-2.94-.07-4.39-.21l.11-.23-5.54,5.41.22-.25-5.5,6c.05,2.6.11,5.21.17,7.81l4.89,6.51,0,0,4.66,5.53.3.4c11,10.43,24.2,7,37,5.69l.73-.71,4.54-4.58.24-11.21-5.88-12.15Zm-2.74,18.31a28.21,28.21,0,0,0,3.09-.29A28.21,28.21,0,0,1-800.58,137.21Z" transform="translate(1004.63 209.65)"/><path class="cls-12" d="M498.28,245.62c-5.34,2.59-10.76,5-16.13,7.55.66,3.84,1.92,6.27,3.56,7.78-1.64-1.51-2.9-3.94-3.56-7.78-11.4,4.92-21.54,15-14.88,25.26,5.31,8.19,18.16-2.72,27.63-4.81,4.18-.93,7.25-6.89,10.83-10.56a13.14,13.14,0,0,0-2.46-.33,13.14,13.14,0,0,1,2.46.33c8.95-2.76,20.59-6.29,15.31-17.62C516.36,235.39,506,241.85,498.28,245.62Zm-8.93,17.24a13.87,13.87,0,0,0,1.61.29A13.87,13.87,0,0,1,489.35,262.86Z" transform="translate(1004.63 209.65)"/><path class="cls-12" d="M328.28-155.58c0,.05,0,.11,0,.16l.13,0Z" transform="translate(1004.63 209.65)"/><path class="cls-12" d="M482.59-109.15c4.54-5.19,9.21-10.89,5.46-17.94s-10.22-3.13-15.74-1.89c-1.91.76-3.81,1.53-5.72,2.27q0,9.13,0,18.36C472.48-98.62,478.07-93.76,482.59-109.15Z" transform="translate(1004.63 209.65)"/><path class="cls-12" d="M739.92,45l31.35-4.58C758.33,24.91,749.52,37.71,739.92,45Z" transform="translate(1004.63 209.65)"/></g><g class="cls-9"><path class="cls-13" d="M-490,198.27c-2.3,3.52-7.26,7.88-6.46,10.48,10.29,33.51,0,67.88,4.8,101.52l-5.74,4.11c-2,2.1-4.05,4.21-6.07,6.29l-14.76-1c-1.71-3.92-5-5.42-9-5.74-2.91-3.35-5.81-3.32-8.71,0l-14.17.69c-8.34-2.62-12.61,10.07-21.4,5.65l-.18-.23c-1.61-1.9-3.2-3.81-4.81-5.72l-4.95-6.33c-1.39-1.55-2.78-3.1-4.17-4.67-11.88-12.61-26.89-20.28-42.52-27l-.17.06c-2.18-1.43-4.38-2.86-6.58-4.28,0,0,0,0,0,0-1.77-1.29-3.55-2.59-5.31-3.9a3.57,3.57,0,0,0-3.61-2.1c-19.75-8.06-17.7-35.15-37.64-43l.15.29-6.58-4.37c-1.78-1.29-3.58-2.56-5.36-3.84l-17.23-17.23c-1.17-2.24-2.32-4.47-3.48-6.71a3.29,3.29,0,0,0-1.57-3.85c.44-3.26-1.24-4.84-4.26-5.37l0,0-5.36-4.63a2,2,0,0,0-2.66-1.5l-7.75-5c-.82-6.85,4.06-14.06-1.26-20.63l-3.55-5.6c-.07-.11-.14-.22-.2-.33l0,.06c-2-3.2-4-6.42-6.07-9.63l-.11-.23c-1.47-2.11-3-4.21-4.42-6.31l.29.27c-5.5-11.68-11.33-23.13-21.12-31.94-.88-3.15-2.86-4.74-6.25-4.32l-6.5-5.7c.59-4.22,1.8-8.61-3-11.4,0,0,0-.11,0-.11-4.42-8.71-12.76-9.9-21.16-11l.24.32-6.58-3.38c-16.44-10.23-13-28-16.5-43.2C-832.35,4.84-837-4.57-851.58-5.43-879.87-13.52-890.64-39-906-60.07-922.67-83-951-91.16-970.7-110.93c-10.61-10.65-20.3-21.11-28.15-33.82-9-14.62-8.35-26,8.35-33.94,5.57-10.33,12.44-13.06,23.57-6.6,23.78,13.81,49.72,17.94,77,21.79,14.21,2,37.51,17.57,36.67,43.06l12,10.17,26.74,7.62c28.61-13.27,40.24-5.86,40,25.47,11.8,16.12,22,34.29,45.67,35,.82,0,2.15.41,2.38,1,11,27.12,49.69,24.68,58.07,54.73,2.75,9.84,12.78,7.26,19.78,9.94,13,5,18.94,23.84,40.59,14.16,8.9-4,15,16.11,7.46,26.71-16,22.6-3.74,30.79,16.17,35.5,27.27,6.43,22.81,36.93,39.73,51q5.73,7.85,11.43,15.72c14.26-9.91,21.45-2.54,26.23,10.66-2.18,2.69-4.36,5.46-6.92,7.34,2.57-1.87,4.74-4.64,6.93-7.32a30,30,0,0,1,10.69,6.53,20.72,20.72,0,0,1,5,7.9q.3.85.54,1.74a28.1,28.1,0,0,1,.78,4.81h0Z" transform="translate(1004.63 209.65)"/><path class="cls-13" d="M912.7,380c2.91-16.05,1.36-32-.77-48-.94-17.28,5.41-35.36-5.7-51.52l-.59-1.47c-9.36-12.27-2-21.84,5.1-31.45q-.19-8.25-.4-16.52a18.77,18.77,0,0,1-1.52-3.21c-.09-.33.82-.94,1.27-1.42,1.64-11.44,2.21-22.84-1.65-34-14.64-34.65.17-72.86-13-107.69a1.68,1.68,0,0,0-2.59-.91c-2.39-7.28-7.31-10.45-13.48-10.45a22.12,22.12,0,0,0-4.91.59c-16.74,3.87-31.77-1-46.62-7.6h0C822.64,58.31,813.73,59,806,57a23.84,23.84,0,0,0,1.39,2.41A22.11,22.11,0,0,1,806,57l-.62-.6h0c-4.79-12.76-16.11-10.18-26-11.06h0l-8.08-4.91L739.92,45A2.08,2.08,0,0,0,737,46.1a5.06,5.06,0,0,0-.17.62,5.09,5.09,0,0,1,.16-.62c-19.82,5.39-37.28-5.15-55.47-5.76-1.22-11.13,18-14.34,5.83-26.11S663.21-10.58,644.63-3.15c-11.21,4.48-19.84,13.23-5,25,6.1,4.81,13.17,9.57,8.67,19.3-11.14,7.37-13.9,13.09.56,21.22,13.13,7.37,25.85,7.88,39.62,5.28,6.14,12.81-8.42,15.68-11.52,24a2.4,2.4,0,0,0-.19.29c2.3,8.39,3.2,16.06-8.7,17.29-.53-1.62-1.1-3.22-1.73-4.79-10.31,4.43-12.27,20.41-26.67,19.22-16.58-8.47-16.62-29.28-29.9-40.27-.63,5.74-3,7.9-8,3.6-13.16-11.37-15.54-26.37-13.95-42.57,1-10.16,4.86-20.24.57-30.49-1.63-3.88-3.24-7.76-4.87-11.65-11.42-6.66-27.85,5.34-36.93-9.95l-6-4.63c-14-1.85-28-2.86-41.95.38a5.27,5.27,0,0,1-3.41,1.57l-7.48,2.6c-7.88,6-19.65,2.74-26.53,11.13-1.4.2-2.8.42-4.19.66-18.44,10-26.7,24.63-21.06,45.69,13.87,3.58,35-7.27,39.92,12.72,2.93,11.94,10.26,16.6,16.49,24,14.43-11.69,33.18,2,47.89-8.11-1.8,13.71-9.33,19.19-23,16.55-6.44-1.25-13.55-4.67-18.48,3.27l-5.88.16c-9,9.68-14,17.11,3.62,24.69,10.65,4.59,27.71,8.41,19.51,29.42-2.74,7,6.37,16.35,14.56,19.85s12.28-3.9,16.2-9.73l15.66-12.2c4.64,3.43,10,10.28,13.92,10.28a2.9,2.9,0,0,0,.66-.07c17.7-3.94,27-.27,33.85,18.55,2.33,6.46,17,16,31.19,15.32,50.74-2.43,89.93,27,131.69,49.26,4.66,2.48,6,5.16,3.36,10.29-5.58,10.76,2.67,17.69,7.5,25.86,12.26,20.8,31.73,42.18,28.76,65.27-3.54,27.59,10.08,21.62,22.87,18.1,11.84-3.29,20.46-1.81,28.56,6.63,7.93,8.27,15.51,16.92,24,24.63,5.07,4.62,8.13,15.84,18.6,8.53C915.68,397.15,917.63,389.24,912.7,380ZM565,130.81a16.09,16.09,0,0,0,.5-1.66A15.38,15.38,0,0,1,565,130.81ZM667.58,113c0,.42-.05.84-.07,1.26h0C667.53,113.81,667.55,113.39,667.58,113Zm-.08,1.27c0,2.1.07,4.21.1,6.33C663.3,118.52,663.33,116.41,667.5,114.24Zm35.62-11.47c0-.2-.07-.39-.11-.57,0,.18.08.37.12.58s.07.32.11.47C703.2,103.09,703.15,102.93,703.12,102.77ZM827.61,66.35l.57.55-.58-.54-1.39.19ZM855,345.71l-.81.28c-.95.35-1.93.73-2.93,1.12-1.33.51-2.7,1-4.06,1.51,1.37-.48,2.73-1,4.06-1.51l2.93-1.13.81-.27a16.08,16.08,0,0,1,8.14-.62A16.3,16.3,0,0,0,855,345.71Zm8.69-.51a15.48,15.48,0,0,1,1.91.55A17.44,17.44,0,0,0,863.66,345.2ZM905,319.66a15.68,15.68,0,0,0-1.29-1.92,14.62,14.62,0,0,1,1.29,1.92c.4.67.75,1.39,1.1,2.12C905.78,321.05,905.42,320.33,905,319.66Z" transform="translate(1004.63 209.65)"/><path class="cls-13" d="M198.25,332.2c-13.42,12.63-21.58,34.41-46.86,26.46-2.94-.92-7.43-.08-10,1.67-31.78,21.34-65.3,13.63-98.84,6.46-6.88,12.82-13.28,26.14-30.25,28.11L5,389.45c-.81,1.86-1.63,3.72-2.44,5.57l-1,.51c-5.39,3.05-10.76,5.12-16-.31q-.81-5.06-1.6-10.12c.28-4-1.83-6.24-5.46-7.38l-4.13-3.09-6.47-4.95-10-6.9c-4.1-6.34-10.38-1.88-15.5-3.13-.08,3.19-.17,6.38-.25,9.57-10,16-19.59,2.91-28.43-1.13-33.66-15.36-68.38-5.33-102.2-3.31-36.85,2.2-69.38-9.86-102.84-20.65-12.26-3.94-23.71-1.05-35.5,3.12-21.07,7.45-81.44-6.42-93.07-20.54,2.79-3.33,6.38-8-.14-9.66-13.64-3.51-27.69-6.37-41.53-.09q-6.5-3.6-13-7.23l-4-14.05,6.08-6.29,5.74-4.11c14.32,5.19,12.63-12.58,21.6-15h0c-1.71-28.44,14.57-22.55,31.05-16.27l20.87-1.85c23.82-.88,48.37,1.4,66.57,16.45,23.35,19.3,66.94,19.79,86.72-3.13,7-8.11,11.66-12.39,25.47-4.21,15.84,9.38,36,18,57,12.11,1.91.3,3.83.58,5.76.87a4.08,4.08,0,0,1,2.67,2.72,22,22,0,0,0,2.23,4.64c-5.21,13.87,4.83,18.87,14.13,24.31,12.32,9,26.07,5.24,39,3.26,15.57-2.37,25.41,2.46,29.95,17.61L-53.31,322c25.57.63,50.82-21.76,77.11,1,10.4,9,17.56,15.27,6,27-5,5-12.69,8.89-6.57,16.8,5.86,7.56,12.81-1.14,19.38-.8,8.13-11.2,1-30.9,20.13-36a3.24,3.24,0,0,1,1.85-3.51l13.71,1.42h0c6,1.76,12.09,3.63,17.4-1.79,10.21-3.85,21.68-4.82,28.49-15.7,4-6.46,14.18-9.89,18.62-5.7,16.84,15.88,26.15,3.3,36.65-8.43,9,7.8-3.63,31,20,27.17C201.09,323.21,201.14,329.48,198.25,332.2Z" transform="translate(1004.63 209.65)"/><path class="cls-13" d="M442.75,151.44c-2.87,10.85-11.53,19-20.41,12.35C388.7,138.63,349.22,141,311.05,136.5c-11,2.24-21.78,3.51-12.28-12.88,8.42-14.54,17.91-27.62,38.65-24.82,23.21,3.13,47-1.48,70.17,5.5C431.48,111.49,443.15,126.68,442.75,151.44Z" transform="translate(1004.63 209.65)"/><path class="cls-13" d="M355.16,293.43c-7.41-10-15.64,4.19-23.42,7.95-15.12,7.31-30.73,21-47.35,9.83C259,294.13,241,304.72,222.85,321.63c2.93,3,4.31,7.26,7.06,10.17-2.75-2.91-4.14-7.14-7.06-10.17-9.4,5.54-15,15-8.78,23.56,7,9.68,19-.31,28.69,1.48-1.64,11.38-5.9,19.32-19.72,17.4-10.5-1.46-20.69-.51-27.07,9.95-6.91,4.47-13.81,9.54-10.05,19,3,7.63,10.39,9.22,17.86,7.69,9.3-1.91,14.47,3.71,20.46,9.2,19.89,18.21,32.5,16.82,52.82-5.09,5.85-3.71,5.88-10.14,1.58-12.9-15.84-10.14-16.85-26.44-19.78-42.18,12.29,3.12,23.83,3,32.93-7.65,18.68-3.6,40.16-.11,52.16-20.62C356.06,315.26,361.17,301.56,355.16,293.43Z" transform="translate(1004.63 209.65)"/><path class="cls-13" d="M368.68-105.11c17.11,1.82,33.55-18.07,42.26-13.44,15.19,8.09,29,14.54,46,14,3.28-.11,6.48-2.49,9.72-3.83q0-9.18,0-18.33c-11.7-9.68-22.16-29.81-37.07-2.09-2.65,4.91-12.87,1.37-18.92-3.7-20.51-17.23-35.31,4.41-52.6,8.69-1.51.38-2.2,8.16-1.55,12.23C357.54-104.83,363.14-105.7,368.68-105.11Z" transform="translate(1004.63 209.65)"/><path class="cls-14" d="M174.36,145.8l-.27.08,0,.18Z" transform="translate(1004.63 209.65)"/><path class="cls-13" d="M333.52-49.26l0-.09c-11.67-16-10-32.44-2.4-49.66,2.33-5.28-1.7-9.85-7.73-11.31-4.75,5.91-11.34,10.48-17.88,5.59-7.22-5.38-1.6-14.77-3-22.23h0a36.64,36.64,0,0,0,20.68-7.67l0,0,5-6.43c.45-3.14.91-6.28,1.35-9.42a9.33,9.33,0,0,1-1.23-4.9l-10.38-2.18a5.8,5.8,0,0,1-4.48,2.13l-5.89,5.31q-2.61,2.53-5.22,5.1c-.3,1.79-.61,3.57-.93,5.37h0l-2.37,0-2.29-.63c-8.93,6.12-18.76,11.46-21.15,23.48-3.45,1.46-6.74,1.75-9.63-.59,3.18,7.82-.83,14-5.49,20-6.33,27.1,8.89,49.73,15.44,74.14-.33,3.38-.66,6.75-1,10.14-9.89,3-18.48,7.61-13.52,20,4.67,11.69,12.77,18.41,26.3,12.35-1.57,10-8.35,16.72-15,23.56-3.53,3.63-8.1,7.29-5.49,13.3s8.25,5,13.36,5.53c25.43,2.53,32.72-8.55,24.22-37,.1-.06.2-.1.3-.17-.09-.2-.19-.38-.28-.58,7.28-4.78,15.39-8.81,16.65-18.91-5.83-15.14-21.77-25.87-19.41-44.58,10.88.35,24.73,19.25,31.68-5A3.61,3.61,0,0,1,333.52-49.26ZM297.15,19.11l-.43.34.06-.6c.15,0,.27,0,.4,0Z" transform="translate(1004.63 209.65)"/><path class="cls-13" d="M265.35-118.74l-.43.38a10.12,10.12,0,0,0,1,1C265.77-117.84,265.57-118.29,265.35-118.74Z" transform="translate(1004.63 209.65)"/><path class="cls-13" d="M431.63,336.56q1,.39,2,.69-1.05-.3-2-.69L403.44,358.1c-8.42,4.95-16.72,10.37-15.83,21.72,1.71,21.74-6.24,38.7-23.21,52.22-4.23,3.37-11.91,8.4-6.26,14.74,6.31,7.09,13.11.55,18.15-3.82,11.84-10.29,21.35-25.54,34.94-31C437,401.57,448.32,382,456.86,358.57h0l4.27-5.49c26.93-7.34,19.9-35.55,33.39-51.87C475.77,318.35,446.48,315,431.63,336.56Z" transform="translate(1004.63 209.65)"/><path class="cls-13" d="M-466.32,166.72c.2.56.37,1.14.53,1.74a26.16,26.16,0,0,1,.78,4.8h0c12.46,10.62,22.88,10,30.64-5.53h0c3.69-12.33,9.47-24.73-9.72-30.6-4.88-1.49-9.1-8.23-11.73-13.5-16.82-33.62-23.35-34.5-51.05-5.91h0q-6.43,4.06-12.84,8.15l11.43,15.73c14.25-9.91,21.44-2.54,26.23,10.65v0a30,30,0,0,1,10.7,6.52A20.68,20.68,0,0,1-466.32,166.72Zm9.24-10.27a12.37,12.37,0,0,0,4.74,5.69,12.42,12.42,0,0,1-4.74-5.69,44.79,44.79,0,0,0-11.83-17.4A44.69,44.69,0,0,1-457.08,156.45Z" transform="translate(1004.63 209.65)"/><path class="cls-13" d="M256.44,86.21c-11.28-3.19-19.75,5.3-22.18,16.42-2,9.09-11.18,6.88-15.16,12.16-10.89,7.93-21.11,20.33-7.48,29.31,12,7.92,24.79,30.88,44.51,12.43C267.29,146.09,286.2,135.87,268,116,271.19,103.26,270.86,90.29,256.44,86.21Z" transform="translate(1004.63 209.65)"/><path class="cls-15" d="M413,71.55l-.1.09-.11.1Z" transform="translate(1004.63 209.65)"/><path class="cls-13" d="M398.41,50.82c-5.32,2.44-11.29,3.46-17,5.13l-.17.1-10.51,10.7c.12,1.92.23,3.85.35,5.77L377,77.08a15.27,15.27,0,0,1,4.66.56l5.29-.27,19.94-.64,6-5.09,5.25-5.52-.14,0C420.59,49.3,415.22,43.12,398.41,50.82Z" transform="translate(1004.63 209.65)"/><path class="cls-13" d="M617.33,217c-10.82-3.2-14.17,6.79-18.4,14.09-19,17.63,4,43.78-13,62.49-7.21,7.94-.92,16.89,7.78,16.35,7.53-.46,20.36-10.54,16.18-16.22-13.92-18.9,9.8-18.5,11.94-28.35,8.6-8.2,7.43-18.84,6.07-28.84C626.91,229.08,625.7,219.5,617.33,217Z" transform="translate(1004.63 209.65)"/><path class="cls-13" d="M-863.17,5.63-868.61,2l.07.11-10.19-6.2L-890-2.38l.51-2.23-5.31.7-10,5.92-5.63,5.73c2.83,13.11,12.32,21.6,19.92,31.85,9.63,13,17.89,18.4,32.3,9.51q2.13-4.83,4.25-9.67c3.44-11.23,2.49-21.82-4.51-31.56A6.43,6.43,0,0,1-863.17,5.63Z" transform="translate(1004.63 209.65)"/><path class="cls-13" d="M297.18,18.88l0,.23-.43.34.06-.6C296.93,18.85,297.05,18.87,297.18,18.88Z" transform="translate(1004.63 209.65)"/><path class="cls-13" d="M424.07-7.07l6.71,2.92.61.18,14-2.72c13.17-4.35,5-13.59,4.83-21-9.05-1.59-18.67-1-26.55-7-6.75,5.42-13.78,10.71-9.37,21.09L421-8.72A3.86,3.86,0,0,1,424.07-7.07Z" transform="translate(1004.63 209.65)"/><path class="cls-13" d="M413.83,288.88c-14.48,2.16-32.25-4-39.85,15.7,28.59,16.81,41.59,16.06,66.51-4,3.77,0,5.86-2.43,7.37-5.62,10.47-8.85,11.1-16.16-4.3-17.87C432.21,275.86,420.5,276.81,413.83,288.88Z" transform="translate(1004.63 209.65)"/><path class="cls-13" d="M908.44,192.38c-14.64-34.65.17-72.86-13-107.69,6.68-.34,9.62,3.85,9.7,9.51C905.59,127,912.85,159.47,908.44,192.38Z" transform="translate(1004.63 209.65)"/><path class="cls-13" d="M-797.84,118.9a5.36,5.36,0,0,1-2.4-4.41l-4.17-6.46c-6.87-8.63-13.44-4.06-20,.46l-1.68,5.76c5,14.14,12.59,23.4,25.42,23-12.83.44-20.44-8.82-25.42-23-1.47,0-2.94-.07-4.39-.21l.11-.23-5.54,5.41.22-.25-5.5,6c.05,2.6.11,5.21.17,7.81l4.89,6.51,0,0,4.66,5.53.3.4c11,10.43,24.2,7,37,5.69l.73-.71,4.54-4.58.24-11.21-5.88-12.15Zm-2.74,18.31a28.21,28.21,0,0,0,3.09-.29A28.21,28.21,0,0,1-800.58,137.21Z" transform="translate(1004.63 209.65)"/><path class="cls-13" d="M498.28,245.62c-5.34,2.59-10.76,5-16.13,7.55.66,3.84,1.92,6.27,3.56,7.78-1.64-1.51-2.9-3.94-3.56-7.78-11.4,4.92-21.54,15-14.88,25.26,5.31,8.19,18.16-2.72,27.63-4.81,4.18-.93,7.25-6.89,10.83-10.56a13.14,13.14,0,0,0-2.46-.33,13.14,13.14,0,0,1,2.46.33c8.95-2.76,20.59-6.29,15.31-17.62C516.36,235.39,506,241.85,498.28,245.62Zm-8.93,17.24a13.87,13.87,0,0,0,1.61.29A13.87,13.87,0,0,1,489.35,262.86Z" transform="translate(1004.63 209.65)"/><path class="cls-11" d="M328.28-155.58c0,.05,0,.11,0,.16l.13,0Z" transform="translate(1004.63 209.65)"/><path class="cls-13" d="M482.59-109.15c4.54-5.19,9.21-10.89,5.46-17.94s-10.22-3.13-15.74-1.89c-1.91.76-3.81,1.53-5.72,2.27q0,9.13,0,18.36C472.48-98.62,478.07-93.76,482.59-109.15Z" transform="translate(1004.63 209.65)"/><path class="cls-13" d="M739.92,45l31.35-4.58C758.33,24.91,749.52,37.71,739.92,45Z" transform="translate(1004.63 209.65)"/></g><g class="cls-9"><path class="cls-16" d="M-490,198.27c-2.3,3.52-7.26,7.88-6.46,10.48,10.29,33.51,0,67.88,4.8,101.52l-5.74,4.11c-2,2.1-4.05,4.21-6.07,6.29l-14.76-1c-1.71-3.92-5-5.42-9-5.74-2.91-3.35-5.81-3.32-8.71,0l-14.17.69c-8.34-2.62-12.61,10.07-21.4,5.65l-.18-.23c-1.61-1.9-3.2-3.81-4.81-5.72l-4.95-6.33c-1.39-1.55-2.78-3.1-4.17-4.67-11.88-12.61-26.89-20.28-42.52-27l-.17.06c-2.18-1.43-4.38-2.86-6.58-4.28,0,0,0,0,0,0-1.77-1.29-3.55-2.59-5.31-3.9a3.57,3.57,0,0,0-3.61-2.1c-19.75-8.06-17.7-35.15-37.64-43l.15.29-6.58-4.37c-1.78-1.29-3.58-2.56-5.36-3.84l-17.23-17.23c-1.17-2.24-2.32-4.47-3.48-6.71a3.29,3.29,0,0,0-1.57-3.85c.44-3.26-1.24-4.84-4.26-5.37l0,0-5.36-4.63a2,2,0,0,0-2.66-1.5l-7.75-5c-.82-6.85,4.06-14.06-1.26-20.63l-3.55-5.6c-.07-.11-.14-.22-.2-.33l0,.06c-2-3.2-4-6.42-6.07-9.63l-.11-.23c-1.47-2.11-3-4.21-4.42-6.31l.29.27c-5.5-11.68-11.33-23.13-21.12-31.94-.88-3.15-2.86-4.74-6.25-4.32l-6.5-5.7c.59-4.22,1.8-8.61-3-11.4,0,0,0-.11,0-.11-4.42-8.71-12.76-9.9-21.16-11l.24.32-6.58-3.38c-16.44-10.23-13-28-16.5-43.2C-832.35,4.84-837-4.57-851.58-5.43-879.87-13.52-890.64-39-906-60.07-922.67-83-951-91.16-970.7-110.93c-10.61-10.65-20.3-21.11-28.15-33.82-9-14.62-8.35-26,8.35-33.94,5.57-10.33,12.44-13.06,23.57-6.6,23.78,13.81,49.72,17.94,77,21.79,14.21,2,37.51,17.57,36.67,43.06l12,10.17,26.74,7.62c28.61-13.27,40.24-5.86,40,25.47,11.8,16.12,22,34.29,45.67,35,.82,0,2.15.41,2.38,1,11,27.12,49.69,24.68,58.07,54.73,2.75,9.84,12.78,7.26,19.78,9.94,13,5,18.94,23.84,40.59,14.16,8.9-4,15,16.11,7.46,26.71-16,22.6-3.74,30.79,16.17,35.5,27.27,6.43,22.81,36.93,39.73,51q5.73,7.85,11.43,15.72c14.26-9.91,21.45-2.54,26.23,10.66-2.18,2.69-4.36,5.46-6.92,7.34,2.57-1.87,4.74-4.64,6.93-7.32a30,30,0,0,1,10.69,6.53,20.72,20.72,0,0,1,5,7.9q.3.85.54,1.74a28.1,28.1,0,0,1,.78,4.81h0Z" transform="translate(1004.63 209.65)"/><path class="cls-16" d="M912.7,380c2.91-16.05,1.36-32-.77-48-.94-17.28,5.41-35.36-5.7-51.52l-.59-1.47c-9.36-12.27-2-21.84,5.1-31.45q-.19-8.25-.4-16.52a18.77,18.77,0,0,1-1.52-3.21c-.09-.33.82-.94,1.27-1.42,1.64-11.44,2.21-22.84-1.65-34-14.64-34.65.17-72.86-13-107.69a1.68,1.68,0,0,0-2.59-.91c-2.39-7.28-7.31-10.45-13.48-10.45a22.12,22.12,0,0,0-4.91.59c-16.74,3.87-31.77-1-46.62-7.6h0C822.64,58.31,813.73,59,806,57a23.84,23.84,0,0,0,1.39,2.41A22.11,22.11,0,0,1,806,57l-.62-.6h0c-4.79-12.76-16.11-10.18-26-11.06h0l-8.08-4.91L739.92,45A2.08,2.08,0,0,0,737,46.1a5.06,5.06,0,0,0-.17.62,5.09,5.09,0,0,1,.16-.62c-19.82,5.39-37.28-5.15-55.47-5.76-1.22-11.13,18-14.34,5.83-26.11S663.21-10.58,644.63-3.15c-11.21,4.48-19.84,13.23-5,25,6.1,4.81,13.17,9.57,8.67,19.3-11.14,7.37-13.9,13.09.56,21.22,13.13,7.37,25.85,7.88,39.62,5.28,6.14,12.81-8.42,15.68-11.52,24a2.4,2.4,0,0,0-.19.29c2.3,8.39,3.2,16.06-8.7,17.29-.53-1.62-1.1-3.22-1.73-4.79-10.31,4.43-12.27,20.41-26.67,19.22-16.58-8.47-16.62-29.28-29.9-40.27-.63,5.74-3,7.9-8,3.6-13.16-11.37-15.54-26.37-13.95-42.57,1-10.16,4.86-20.24.57-30.49-1.63-3.88-3.24-7.76-4.87-11.65-11.42-6.66-27.85,5.34-36.93-9.95l-6-4.63c-14-1.85-28-2.86-41.95.38a5.27,5.27,0,0,1-3.41,1.57l-7.48,2.6c-7.88,6-19.65,2.74-26.53,11.13-1.4.2-2.8.42-4.19.66-18.44,10-26.7,24.63-21.06,45.69,13.87,3.58,35-7.27,39.92,12.72,2.93,11.94,10.26,16.6,16.49,24,14.43-11.69,33.18,2,47.89-8.11-1.8,13.71-9.33,19.19-23,16.55-6.44-1.25-13.55-4.67-18.48,3.27l-5.88.16c-9,9.68-14,17.11,3.62,24.69,10.65,4.59,27.71,8.41,19.51,29.42-2.74,7,6.37,16.35,14.56,19.85s12.28-3.9,16.2-9.73l15.66-12.2c4.64,3.43,10,10.28,13.92,10.28a2.9,2.9,0,0,0,.66-.07c17.7-3.94,27-.27,33.85,18.55,2.33,6.46,17,16,31.19,15.32,50.74-2.43,89.93,27,131.69,49.26,4.66,2.48,6,5.16,3.36,10.29-5.58,10.76,2.67,17.69,7.5,25.86,12.26,20.8,31.73,42.18,28.76,65.27-3.54,27.59,10.08,21.62,22.87,18.1,11.84-3.29,20.46-1.81,28.56,6.63,7.93,8.27,15.51,16.92,24,24.63,5.07,4.62,8.13,15.84,18.6,8.53C915.68,397.15,917.63,389.24,912.7,380ZM565,130.81a16.09,16.09,0,0,0,.5-1.66A15.38,15.38,0,0,1,565,130.81ZM667.58,113c0,.42-.05.84-.07,1.26h0C667.53,113.81,667.55,113.39,667.58,113Zm-.08,1.27c0,2.1.07,4.21.1,6.33C663.3,118.52,663.33,116.41,667.5,114.24Zm35.62-11.47c0-.2-.07-.39-.11-.57,0,.18.08.37.12.58s.07.32.11.47C703.2,103.09,703.15,102.93,703.12,102.77ZM827.61,66.35l.57.55-.58-.54-1.39.19ZM855,345.71l-.81.28c-.95.35-1.93.73-2.93,1.12-1.33.51-2.7,1-4.06,1.51,1.37-.48,2.73-1,4.06-1.51l2.93-1.13.81-.27a16.08,16.08,0,0,1,8.14-.62A16.3,16.3,0,0,0,855,345.71Zm8.69-.51a15.48,15.48,0,0,1,1.91.55A17.44,17.44,0,0,0,863.66,345.2ZM905,319.66a15.68,15.68,0,0,0-1.29-1.92,14.62,14.62,0,0,1,1.29,1.92c.4.67.75,1.39,1.1,2.12C905.78,321.05,905.42,320.33,905,319.66Z" transform="translate(1004.63 209.65)"/><path class="cls-16" d="M198.25,332.2c-13.42,12.63-21.58,34.41-46.86,26.46-2.94-.92-7.43-.08-10,1.67-31.78,21.34-65.3,13.63-98.84,6.46-6.88,12.82-13.28,26.14-30.25,28.11L5,389.45c-.81,1.86-1.63,3.72-2.44,5.57l-1,.51c-5.39,3.05-10.76,5.12-16-.31q-.81-5.06-1.6-10.12c.28-4-1.83-6.24-5.46-7.38l-4.13-3.09-6.47-4.95-10-6.9c-4.1-6.34-10.38-1.88-15.5-3.13-.08,3.19-.17,6.38-.25,9.57-10,16-19.59,2.91-28.43-1.13-33.66-15.36-68.38-5.33-102.2-3.31-36.85,2.2-69.38-9.86-102.84-20.65-12.26-3.94-23.71-1.05-35.5,3.12-21.07,7.45-81.44-6.42-93.07-20.54,2.79-3.33,6.38-8-.14-9.66-13.64-3.51-27.69-6.37-41.53-.09q-6.5-3.6-13-7.23l-4-14.05,6.08-6.29,5.74-4.11c14.32,5.19,12.63-12.58,21.6-15h0c-1.71-28.44,14.57-22.55,31.05-16.27l20.87-1.85c23.82-.88,48.37,1.4,66.57,16.45,23.35,19.3,66.94,19.79,86.72-3.13,7-8.11,11.66-12.39,25.47-4.21,15.84,9.38,36,18,57,12.11,1.91.3,3.83.58,5.76.87a4.08,4.08,0,0,1,2.67,2.72,22,22,0,0,0,2.23,4.64c-5.21,13.87,4.83,18.87,14.13,24.31,12.32,9,26.07,5.24,39,3.26,15.57-2.37,25.41,2.46,29.95,17.61L-53.31,322c25.57.63,50.82-21.76,77.11,1,10.4,9,17.56,15.27,6,27-5,5-12.69,8.89-6.57,16.8,5.86,7.56,12.81-1.14,19.38-.8,8.13-11.2,1-30.9,20.13-36a3.24,3.24,0,0,1,1.85-3.51l13.71,1.42h0c6,1.76,12.09,3.63,17.4-1.79,10.21-3.85,21.68-4.82,28.49-15.7,4-6.46,14.18-9.89,18.62-5.7,16.84,15.88,26.15,3.3,36.65-8.43,9,7.8-3.63,31,20,27.17C201.09,323.21,201.14,329.48,198.25,332.2Z" transform="translate(1004.63 209.65)"/><path class="cls-16" d="M442.75,151.44c-2.87,10.85-11.53,19-20.41,12.35C388.7,138.63,349.22,141,311.05,136.5c-11,2.24-21.78,3.51-12.28-12.88,8.42-14.54,17.91-27.62,38.65-24.82,23.21,3.13,47-1.48,70.17,5.5C431.48,111.49,443.15,126.68,442.75,151.44Z" transform="translate(1004.63 209.65)"/><path class="cls-16" d="M355.16,293.43c-7.41-10-15.64,4.19-23.42,7.95-15.12,7.31-30.73,21-47.35,9.83C259,294.13,241,304.72,222.85,321.63c2.93,3,4.31,7.26,7.06,10.17-2.75-2.91-4.14-7.14-7.06-10.17-9.4,5.54-15,15-8.78,23.56,7,9.68,19-.31,28.69,1.48-1.64,11.38-5.9,19.32-19.72,17.4-10.5-1.46-20.69-.51-27.07,9.95-6.91,4.47-13.81,9.54-10.05,19,3,7.63,10.39,9.22,17.86,7.69,9.3-1.91,14.47,3.71,20.46,9.2,19.89,18.21,32.5,16.82,52.82-5.09,5.85-3.71,5.88-10.14,1.58-12.9-15.84-10.14-16.85-26.44-19.78-42.18,12.29,3.12,23.83,3,32.93-7.65,18.68-3.6,40.16-.11,52.16-20.62C356.06,315.26,361.17,301.56,355.16,293.43Z" transform="translate(1004.63 209.65)"/><path class="cls-16" d="M368.68-105.11c17.11,1.82,33.55-18.07,42.26-13.44,15.19,8.09,29,14.54,46,14,3.28-.11,6.48-2.49,9.72-3.83q0-9.18,0-18.33c-11.7-9.68-22.16-29.81-37.07-2.09-2.65,4.91-12.87,1.37-18.92-3.7-20.51-17.23-35.31,4.41-52.6,8.69-1.51.38-2.2,8.16-1.55,12.23C357.54-104.83,363.14-105.7,368.68-105.11Z" transform="translate(1004.63 209.65)"/><path class="cls-16" d="M174.36,145.8l-.27.08,0,.18Z" transform="translate(1004.63 209.65)"/><path class="cls-16" d="M333.52-49.26l0-.09c-11.67-16-10-32.44-2.4-49.66,2.33-5.28-1.7-9.85-7.73-11.31-4.75,5.91-11.34,10.48-17.88,5.59-7.22-5.38-1.6-14.77-3-22.23h0a36.64,36.64,0,0,0,20.68-7.67l0,0,5-6.43c.45-3.14.91-6.28,1.35-9.42a9.33,9.33,0,0,1-1.23-4.9l-10.38-2.18a5.8,5.8,0,0,1-4.48,2.13l-5.89,5.31q-2.61,2.53-5.22,5.1c-.3,1.79-.61,3.57-.93,5.37h0l-2.37,0-2.29-.63c-8.93,6.12-18.76,11.46-21.15,23.48-3.45,1.46-6.74,1.75-9.63-.59,3.18,7.82-.83,14-5.49,20-6.33,27.1,8.89,49.73,15.44,74.14-.33,3.38-.66,6.75-1,10.14-9.89,3-18.48,7.61-13.52,20,4.67,11.69,12.77,18.41,26.3,12.35-1.57,10-8.35,16.72-15,23.56-3.53,3.63-8.1,7.29-5.49,13.3s8.25,5,13.36,5.53c25.43,2.53,32.72-8.55,24.22-37,.1-.06.2-.1.3-.17-.09-.2-.19-.38-.28-.58,7.28-4.78,15.39-8.81,16.65-18.91-5.83-15.14-21.77-25.87-19.41-44.58,10.88.35,24.73,19.25,31.68-5A3.61,3.61,0,0,1,333.52-49.26ZM297.15,19.11l-.43.34.06-.6c.15,0,.27,0,.4,0Z" transform="translate(1004.63 209.65)"/><path class="cls-16" d="M265.35-118.74l-.43.38a10.12,10.12,0,0,0,1,1C265.77-117.84,265.57-118.29,265.35-118.74Z" transform="translate(1004.63 209.65)"/><path class="cls-16" d="M431.63,336.56q1,.39,2,.69-1.05-.3-2-.69L403.44,358.1c-8.42,4.95-16.72,10.37-15.83,21.72,1.71,21.74-6.24,38.7-23.21,52.22-4.23,3.37-11.91,8.4-6.26,14.74,6.31,7.09,13.11.55,18.15-3.82,11.84-10.29,21.35-25.54,34.94-31C437,401.57,448.32,382,456.86,358.57h0l4.27-5.49c26.93-7.34,19.9-35.55,33.39-51.87C475.77,318.35,446.48,315,431.63,336.56Z" transform="translate(1004.63 209.65)"/><path class="cls-16" d="M-466.32,166.72c.2.56.37,1.14.53,1.74a26.16,26.16,0,0,1,.78,4.8h0c12.46,10.62,22.88,10,30.64-5.53h0c3.69-12.33,9.47-24.73-9.72-30.6-4.88-1.49-9.1-8.23-11.73-13.5-16.82-33.62-23.35-34.5-51.05-5.91h0q-6.43,4.06-12.84,8.15l11.43,15.73c14.25-9.91,21.44-2.54,26.23,10.65v0a30,30,0,0,1,10.7,6.52A20.68,20.68,0,0,1-466.32,166.72Zm9.24-10.27a12.37,12.37,0,0,0,4.74,5.69,12.42,12.42,0,0,1-4.74-5.69,44.79,44.79,0,0,0-11.83-17.4A44.69,44.69,0,0,1-457.08,156.45Z" transform="translate(1004.63 209.65)"/><path class="cls-16" d="M256.44,86.21c-11.28-3.19-19.75,5.3-22.18,16.42-2,9.09-11.18,6.88-15.16,12.16-10.89,7.93-21.11,20.33-7.48,29.31,12,7.92,24.79,30.88,44.51,12.43C267.29,146.09,286.2,135.87,268,116,271.19,103.26,270.86,90.29,256.44,86.21Z" transform="translate(1004.63 209.65)"/><path class="cls-16" d="M413,71.55l-.1.09-.11.1Z" transform="translate(1004.63 209.65)"/><path class="cls-16" d="M398.41,50.82c-5.32,2.44-11.29,3.46-17,5.13l-.17.1-10.51,10.7c.12,1.92.23,3.85.35,5.77L377,77.08a15.27,15.27,0,0,1,4.66.56l5.29-.27,19.94-.64,6-5.09,5.25-5.52-.14,0C420.59,49.3,415.22,43.12,398.41,50.82Z" transform="translate(1004.63 209.65)"/><path class="cls-16" d="M617.33,217c-10.82-3.2-14.17,6.79-18.4,14.09-19,17.63,4,43.78-13,62.49-7.21,7.94-.92,16.89,7.78,16.35,7.53-.46,20.36-10.54,16.18-16.22-13.92-18.9,9.8-18.5,11.94-28.35,8.6-8.2,7.43-18.84,6.07-28.84C626.91,229.08,625.7,219.5,617.33,217Z" transform="translate(1004.63 209.65)"/><path class="cls-16" d="M-863.17,5.63-868.61,2l.07.11-10.19-6.2L-890-2.38l.51-2.23-5.31.7-10,5.92-5.63,5.73c2.83,13.11,12.32,21.6,19.92,31.85,9.63,13,17.89,18.4,32.3,9.51q2.13-4.83,4.25-9.67c3.44-11.23,2.49-21.82-4.51-31.56A6.43,6.43,0,0,1-863.17,5.63Z" transform="translate(1004.63 209.65)"/><path class="cls-16" d="M297.18,18.88l0,.23-.43.34.06-.6C296.93,18.85,297.05,18.87,297.18,18.88Z" transform="translate(1004.63 209.65)"/><path class="cls-16" d="M424.07-7.07l6.71,2.92.61.18,14-2.72c13.17-4.35,5-13.59,4.83-21-9.05-1.59-18.67-1-26.55-7-6.75,5.42-13.78,10.71-9.37,21.09L421-8.72A3.86,3.86,0,0,1,424.07-7.07Z" transform="translate(1004.63 209.65)"/><path class="cls-16" d="M413.83,288.88c-14.48,2.16-32.25-4-39.85,15.7,28.59,16.81,41.59,16.06,66.51-4,3.77,0,5.86-2.43,7.37-5.62,10.47-8.85,11.1-16.16-4.3-17.87C432.21,275.86,420.5,276.81,413.83,288.88Z" transform="translate(1004.63 209.65)"/><path class="cls-16" d="M908.44,192.38c-14.64-34.65.17-72.86-13-107.69,6.68-.34,9.62,3.85,9.7,9.51C905.59,127,912.85,159.47,908.44,192.38Z" transform="translate(1004.63 209.65)"/><path class="cls-16" d="M-797.84,118.9a5.36,5.36,0,0,1-2.4-4.41l-4.17-6.46c-6.87-8.63-13.44-4.06-20,.46l-1.68,5.76c5,14.14,12.59,23.4,25.42,23-12.83.44-20.44-8.82-25.42-23-1.47,0-2.94-.07-4.39-.21l.11-.23-5.54,5.41.22-.25-5.5,6c.05,2.6.11,5.21.17,7.81l4.89,6.51,0,0,4.66,5.53.3.4c11,10.43,24.2,7,37,5.69l.73-.71,4.54-4.58.24-11.21-5.88-12.15Zm-2.74,18.31a28.21,28.21,0,0,0,3.09-.29A28.21,28.21,0,0,1-800.58,137.21Z" transform="translate(1004.63 209.65)"/><path class="cls-16" d="M498.28,245.62c-5.34,2.59-10.76,5-16.13,7.55.66,3.84,1.92,6.27,3.56,7.78-1.64-1.51-2.9-3.94-3.56-7.78-11.4,4.92-21.54,15-14.88,25.26,5.31,8.19,18.16-2.72,27.63-4.81,4.18-.93,7.25-6.89,10.83-10.56a13.14,13.14,0,0,0-2.46-.33,13.14,13.14,0,0,1,2.46.33c8.95-2.76,20.59-6.29,15.31-17.62C516.36,235.39,506,241.85,498.28,245.62Zm-8.93,17.24a13.87,13.87,0,0,0,1.61.29A13.87,13.87,0,0,1,489.35,262.86Z" transform="translate(1004.63 209.65)"/><path class="cls-16" d="M328.28-155.58c0,.05,0,.11,0,.16l.13,0Z" transform="translate(1004.63 209.65)"/><path class="cls-17" d="M482.59-109.15c4.54-5.19,9.21-10.89,5.46-17.94s-10.22-3.13-15.74-1.89c-1.91.76-3.81,1.53-5.72,2.27q0,9.13,0,18.36C472.48-98.62,478.07-93.76,482.59-109.15Z" transform="translate(1004.63 209.65)"/><path class="cls-16" d="M739.92,45l31.35-4.58C758.33,24.91,749.52,37.71,739.92,45Z" transform="translate(1004.63 209.65)"/></g><g class="cls-9"><path class="cls-18" d="M-490,198.27c-2.3,3.52-7.26,7.88-6.46,10.48,10.29,33.51,0,67.88,4.8,101.52l-5.74,4.11c-2,2.1-4.05,4.21-6.07,6.29l-14.76-1c-1.71-3.92-5-5.42-9-5.74-2.91-3.35-5.81-3.32-8.71,0l-14.17.69c-8.34-2.62-12.61,10.07-21.4,5.65l-.18-.23c-1.61-1.9-3.2-3.81-4.81-5.72l-4.95-6.33c-1.39-1.55-2.78-3.1-4.17-4.67-11.88-12.61-26.89-20.28-42.52-27l-.17.06c-2.18-1.43-4.38-2.86-6.58-4.28,0,0,0,0,0,0-1.77-1.29-3.55-2.59-5.31-3.9a3.57,3.57,0,0,0-3.61-2.1c-19.75-8.06-17.7-35.15-37.64-43l.15.29-6.58-4.37c-1.78-1.29-3.58-2.56-5.36-3.84l-17.23-17.23c-1.17-2.24-2.32-4.47-3.48-6.71a3.29,3.29,0,0,0-1.57-3.85c.44-3.26-1.24-4.84-4.26-5.37l0,0-5.36-4.63a2,2,0,0,0-2.66-1.5l-7.75-5c-.82-6.85,4.06-14.06-1.26-20.63l-3.55-5.6c-.07-.11-.14-.22-.2-.33l0,.06c-2-3.2-4-6.42-6.07-9.63l-.11-.23c-1.47-2.11-3-4.21-4.42-6.31l.29.27c-5.5-11.68-11.33-23.13-21.12-31.94-.88-3.15-2.86-4.74-6.25-4.32l-6.5-5.7c.59-4.22,1.8-8.61-3-11.4,0,0,0-.11,0-.11-4.42-8.71-12.76-9.9-21.16-11l.24.32-6.58-3.38c-16.44-10.23-13-28-16.5-43.2C-832.35,4.84-837-4.57-851.58-5.43-879.87-13.52-890.64-39-906-60.07-922.67-83-951-91.16-970.7-110.93c-10.61-10.65-20.3-21.11-28.15-33.82-9-14.62-8.35-26,8.35-33.94,5.57-10.33,12.44-13.06,23.57-6.6,23.78,13.81,49.72,17.94,77,21.79,14.21,2,37.51,17.57,36.67,43.06l12,10.17,26.74,7.62c28.61-13.27,40.24-5.86,40,25.47,11.8,16.12,22,34.29,45.67,35,.82,0,2.15.41,2.38,1,11,27.12,49.69,24.68,58.07,54.73,2.75,9.84,12.78,7.26,19.78,9.94,13,5,18.94,23.84,40.59,14.16,8.9-4,15,16.11,7.46,26.71-16,22.6-3.74,30.79,16.17,35.5,27.27,6.43,22.81,36.93,39.73,51q5.73,7.85,11.43,15.72c14.26-9.91,21.45-2.54,26.23,10.66-2.18,2.69-4.36,5.46-6.92,7.34,2.57-1.87,4.74-4.64,6.93-7.32a30,30,0,0,1,10.69,6.53,20.72,20.72,0,0,1,5,7.9q.3.85.54,1.74a28.1,28.1,0,0,1,.78,4.81h0Z" transform="translate(1004.63 209.65)"/><path class="cls-18" d="M912.7,380c2.91-16.05,1.36-32-.77-48-.94-17.28,5.41-35.36-5.7-51.52l-.59-1.47c-9.36-12.27-2-21.84,5.1-31.45q-.19-8.25-.4-16.52a18.77,18.77,0,0,1-1.52-3.21c-.09-.33.82-.94,1.27-1.42,1.64-11.44,2.21-22.84-1.65-34-14.64-34.65.17-72.86-13-107.69a1.68,1.68,0,0,0-2.59-.91c-2.39-7.28-7.31-10.45-13.48-10.45a22.12,22.12,0,0,0-4.91.59c-16.74,3.87-31.77-1-46.62-7.6h0C822.64,58.31,813.73,59,806,57a23.84,23.84,0,0,0,1.39,2.41A22.11,22.11,0,0,1,806,57l-.62-.6h0c-4.79-12.76-16.11-10.18-26-11.06h0l-8.08-4.91L739.92,45A2.08,2.08,0,0,0,737,46.1a5.06,5.06,0,0,0-.17.62,5.09,5.09,0,0,1,.16-.62c-19.82,5.39-37.28-5.15-55.47-5.76-1.22-11.13,18-14.34,5.83-26.11S663.21-10.58,644.63-3.15c-11.21,4.48-19.84,13.23-5,25,6.1,4.81,13.17,9.57,8.67,19.3-11.14,7.37-13.9,13.09.56,21.22,13.13,7.37,25.85,7.88,39.62,5.28,6.14,12.81-8.42,15.68-11.52,24a2.4,2.4,0,0,0-.19.29c2.3,8.39,3.2,16.06-8.7,17.29-.53-1.62-1.1-3.22-1.73-4.79-10.31,4.43-12.27,20.41-26.67,19.22-16.58-8.47-16.62-29.28-29.9-40.27-.63,5.74-3,7.9-8,3.6-13.16-11.37-15.54-26.37-13.95-42.57,1-10.16,4.86-20.24.57-30.49-1.63-3.88-3.24-7.76-4.87-11.65-11.42-6.66-27.85,5.34-36.93-9.95l-6-4.63c-14-1.85-28-2.86-41.95.38a5.27,5.27,0,0,1-3.41,1.57l-7.48,2.6c-7.88,6-19.65,2.74-26.53,11.13-1.4.2-2.8.42-4.19.66-18.44,10-26.7,24.63-21.06,45.69,13.87,3.58,35-7.27,39.92,12.72,2.93,11.94,10.26,16.6,16.49,24,14.43-11.69,33.18,2,47.89-8.11-1.8,13.71-9.33,19.19-23,16.55-6.44-1.25-13.55-4.67-18.48,3.27l-5.88.16c-9,9.68-14,17.11,3.62,24.69,10.65,4.59,27.71,8.41,19.51,29.42-2.74,7,6.37,16.35,14.56,19.85s12.28-3.9,16.2-9.73l15.66-12.2c4.64,3.43,10,10.28,13.92,10.28a2.9,2.9,0,0,0,.66-.07c17.7-3.94,27-.27,33.85,18.55,2.33,6.46,17,16,31.19,15.32,50.74-2.43,89.93,27,131.69,49.26,4.66,2.48,6,5.16,3.36,10.29-5.58,10.76,2.67,17.69,7.5,25.86,12.26,20.8,31.73,42.18,28.76,65.27-3.54,27.59,10.08,21.62,22.87,18.1,11.84-3.29,20.46-1.81,28.56,6.63,7.93,8.27,15.51,16.92,24,24.63,5.07,4.62,8.13,15.84,18.6,8.53C915.68,397.15,917.63,389.24,912.7,380ZM565,130.81a16.09,16.09,0,0,0,.5-1.66A15.38,15.38,0,0,1,565,130.81ZM667.58,113c0,.42-.05.84-.07,1.26h0C667.53,113.81,667.55,113.39,667.58,113Zm-.08,1.27c0,2.1.07,4.21.1,6.33C663.3,118.52,663.33,116.41,667.5,114.24Zm35.62-11.47c0-.2-.07-.39-.11-.57,0,.18.08.37.12.58s.07.32.11.47C703.2,103.09,703.15,102.93,703.12,102.77ZM827.61,66.35l.57.55-.58-.54-1.39.19ZM855,345.71l-.81.28c-.95.35-1.93.73-2.93,1.12-1.33.51-2.7,1-4.06,1.51,1.37-.48,2.73-1,4.06-1.51l2.93-1.13.81-.27a16.08,16.08,0,0,1,8.14-.62A16.3,16.3,0,0,0,855,345.71Zm8.69-.51a15.48,15.48,0,0,1,1.91.55A17.44,17.44,0,0,0,863.66,345.2ZM905,319.66a15.68,15.68,0,0,0-1.29-1.92,14.62,14.62,0,0,1,1.29,1.92c.4.67.75,1.39,1.1,2.12C905.78,321.05,905.42,320.33,905,319.66Z" transform="translate(1004.63 209.65)"/><path class="cls-18" d="M442.75,151.44c-2.87,10.85-11.53,19-20.41,12.35C388.7,138.63,349.22,141,311.05,136.5c-11,2.24-21.78,3.51-12.28-12.88,8.42-14.54,17.91-27.62,38.65-24.82,23.21,3.13,47-1.48,70.17,5.5C431.48,111.49,443.15,126.68,442.75,151.44Z" transform="translate(1004.63 209.65)"/><path class="cls-18" d="M355.16,293.43c-7.41-10-15.64,4.19-23.42,7.95-15.12,7.31-30.73,21-47.35,9.83C259,294.13,241,304.72,222.85,321.63c2.93,3,4.31,7.26,7.06,10.17-2.75-2.91-4.14-7.14-7.06-10.17-9.4,5.54-15,15-8.78,23.56,7,9.68,19-.31,28.69,1.48-1.64,11.38-5.9,19.32-19.72,17.4-10.5-1.46-20.69-.51-27.07,9.95-6.91,4.47-13.81,9.54-10.05,19,3,7.63,10.39,9.22,17.86,7.69,9.3-1.91,14.47,3.71,20.46,9.2,19.89,18.21,32.5,16.82,52.82-5.09,5.85-3.71,5.88-10.14,1.58-12.9-15.84-10.14-16.85-26.44-19.78-42.18,12.29,3.12,23.83,3,32.93-7.65,18.68-3.6,40.16-.11,52.16-20.62C356.06,315.26,361.17,301.56,355.16,293.43Z" transform="translate(1004.63 209.65)"/><path class="cls-18" d="M368.68-105.11c17.11,1.82,33.55-18.07,42.26-13.44,15.19,8.09,29,14.54,46,14,3.28-.11,6.48-2.49,9.72-3.83q0-9.18,0-18.33c-11.7-9.68-22.16-29.81-37.07-2.09-2.65,4.91-12.87,1.37-18.92-3.7-20.51-17.23-35.31,4.41-52.6,8.69-1.51.38-2.2,8.16-1.55,12.23C357.54-104.83,363.14-105.7,368.68-105.11Z" transform="translate(1004.63 209.65)"/><path class="cls-18" d="M174.36,145.8l-.27.08,0,.18Z" transform="translate(1004.63 209.65)"/><path class="cls-18" d="M333.52-49.26l0-.09c-11.67-16-10-32.44-2.4-49.66,2.33-5.28-1.7-9.85-7.73-11.31-4.75,5.91-11.34,10.48-17.88,5.59-7.22-5.38-1.6-14.77-3-22.23h0a36.64,36.64,0,0,0,20.68-7.67l0,0,5-6.43c.45-3.14.91-6.28,1.35-9.42a9.33,9.33,0,0,1-1.23-4.9l-10.38-2.18a5.8,5.8,0,0,1-4.48,2.13l-5.89,5.31q-2.61,2.53-5.22,5.1c-.3,1.79-.61,3.57-.93,5.37h0l-2.37,0-2.29-.63c-8.93,6.12-18.76,11.46-21.15,23.48-3.45,1.46-6.74,1.75-9.63-.59,3.18,7.82-.83,14-5.49,20-6.33,27.1,8.89,49.73,15.44,74.14-.33,3.38-.66,6.75-1,10.14-9.89,3-18.48,7.61-13.52,20,4.67,11.69,12.77,18.41,26.3,12.35-1.57,10-8.35,16.72-15,23.56-3.53,3.63-8.1,7.29-5.49,13.3s8.25,5,13.36,5.53c25.43,2.53,32.72-8.55,24.22-37,.1-.06.2-.1.3-.17-.09-.2-.19-.38-.28-.58,7.28-4.78,15.39-8.81,16.65-18.91-5.83-15.14-21.77-25.87-19.41-44.58,10.88.35,24.73,19.25,31.68-5A3.61,3.61,0,0,1,333.52-49.26ZM297.15,19.11l-.43.34.06-.6c.15,0,.27,0,.4,0Z" transform="translate(1004.63 209.65)"/><path class="cls-18" d="M265.35-118.74l-.43.38a10.12,10.12,0,0,0,1,1C265.77-117.84,265.57-118.29,265.35-118.74Z" transform="translate(1004.63 209.65)"/><path class="cls-18" d="M431.63,336.56q1,.39,2,.69-1.05-.3-2-.69L403.44,358.1c-8.42,4.95-16.72,10.37-15.83,21.72,1.71,21.74-6.24,38.7-23.21,52.22-4.23,3.37-11.91,8.4-6.26,14.74,6.31,7.09,13.11.55,18.15-3.82,11.84-10.29,21.35-25.54,34.94-31C437,401.57,448.32,382,456.86,358.57h0l4.27-5.49c26.93-7.34,19.9-35.55,33.39-51.87C475.77,318.35,446.48,315,431.63,336.56Z" transform="translate(1004.63 209.65)"/><path class="cls-18" d="M-466.32,166.72c.2.56.37,1.14.53,1.74a26.16,26.16,0,0,1,.78,4.8h0c12.46,10.62,22.88,10,30.64-5.53h0c3.69-12.33,9.47-24.73-9.72-30.6-4.88-1.49-9.1-8.23-11.73-13.5-16.82-33.62-23.35-34.5-51.05-5.91h0q-6.43,4.06-12.84,8.15l11.43,15.73c14.25-9.91,21.44-2.54,26.23,10.65v0a30,30,0,0,1,10.7,6.52A20.68,20.68,0,0,1-466.32,166.72Zm9.24-10.27a12.37,12.37,0,0,0,4.74,5.69,12.42,12.42,0,0,1-4.74-5.69,44.79,44.79,0,0,0-11.83-17.4A44.69,44.69,0,0,1-457.08,156.45Z" transform="translate(1004.63 209.65)"/><path class="cls-18" d="M256.44,86.21c-11.28-3.19-19.75,5.3-22.18,16.42-2,9.09-11.18,6.88-15.16,12.16-10.89,7.93-21.11,20.33-7.48,29.31,12,7.92,24.79,30.88,44.51,12.43C267.29,146.09,286.2,135.87,268,116,271.19,103.26,270.86,90.29,256.44,86.21Z" transform="translate(1004.63 209.65)"/><path class="cls-18" d="M413,71.55l-.1.09-.11.1Z" transform="translate(1004.63 209.65)"/><path class="cls-18" d="M398.41,50.82c-5.32,2.44-11.29,3.46-17,5.13l-.17.1-10.51,10.7c.12,1.92.23,3.85.35,5.77L377,77.08a15.27,15.27,0,0,1,4.66.56l5.29-.27,19.94-.64,6-5.09,5.25-5.52-.14,0C420.59,49.3,415.22,43.12,398.41,50.82Z" transform="translate(1004.63 209.65)"/><path class="cls-18" d="M617.33,217c-10.82-3.2-14.17,6.79-18.4,14.09-19,17.63,4,43.78-13,62.49-7.21,7.94-.92,16.89,7.78,16.35,7.53-.46,20.36-10.54,16.18-16.22-13.92-18.9,9.8-18.5,11.94-28.35,8.6-8.2,7.43-18.84,6.07-28.84C626.91,229.08,625.7,219.5,617.33,217Z" transform="translate(1004.63 209.65)"/><path class="cls-18" d="M-863.17,5.63-868.61,2l.07.11-10.19-6.2L-890-2.38l.51-2.23-5.31.7-10,5.92-5.63,5.73c2.83,13.11,12.32,21.6,19.92,31.85,9.63,13,17.89,18.4,32.3,9.51q2.13-4.83,4.25-9.67c3.44-11.23,2.49-21.82-4.51-31.56A6.43,6.43,0,0,1-863.17,5.63Z" transform="translate(1004.63 209.65)"/><path class="cls-18" d="M297.18,18.88l0,.23-.43.34.06-.6C296.93,18.85,297.05,18.87,297.18,18.88Z" transform="translate(1004.63 209.65)"/><path class="cls-18" d="M424.07-7.07l6.71,2.92.61.18,14-2.72c13.17-4.35,5-13.59,4.83-21-9.05-1.59-18.67-1-26.55-7-6.75,5.42-13.78,10.71-9.37,21.09L421-8.72A3.86,3.86,0,0,1,424.07-7.07Z" transform="translate(1004.63 209.65)"/><path class="cls-18" d="M413.83,288.88c-14.48,2.16-32.25-4-39.85,15.7,28.59,16.81,41.59,16.06,66.51-4,3.77,0,5.86-2.43,7.37-5.62,10.47-8.85,11.1-16.16-4.3-17.87C432.21,275.86,420.5,276.81,413.83,288.88Z" transform="translate(1004.63 209.65)"/><path class="cls-18" d="M908.44,192.38c-14.64-34.65.17-72.86-13-107.69,6.68-.34,9.62,3.85,9.7,9.51C905.59,127,912.85,159.47,908.44,192.38Z" transform="translate(1004.63 209.65)"/><path class="cls-18" d="M-797.84,118.9a5.36,5.36,0,0,1-2.4-4.41l-4.17-6.46c-6.87-8.63-13.44-4.06-20,.46l-1.68,5.76c5,14.14,12.59,23.4,25.42,23-12.83.44-20.44-8.82-25.42-23-1.47,0-2.94-.07-4.39-.21l.11-.23-5.54,5.41.22-.25-5.5,6c.05,2.6.11,5.21.17,7.81l4.89,6.51,0,0,4.66,5.53.3.4c11,10.43,24.2,7,37,5.69l.73-.71,4.54-4.58.24-11.21-5.88-12.15Zm-2.74,18.31a28.21,28.21,0,0,0,3.09-.29A28.21,28.21,0,0,1-800.58,137.21Z" transform="translate(1004.63 209.65)"/><path class="cls-18" d="M498.28,245.62c-5.34,2.59-10.76,5-16.13,7.55.66,3.84,1.92,6.27,3.56,7.78-1.64-1.51-2.9-3.94-3.56-7.78-11.4,4.92-21.54,15-14.88,25.26,5.31,8.19,18.16-2.72,27.63-4.81,4.18-.93,7.25-6.89,10.83-10.56a13.14,13.14,0,0,0-2.46-.33,13.14,13.14,0,0,1,2.46.33c8.95-2.76,20.59-6.29,15.31-17.62C516.36,235.39,506,241.85,498.28,245.62Zm-8.93,17.24a13.87,13.87,0,0,0,1.61.29A13.87,13.87,0,0,1,489.35,262.86Z" transform="translate(1004.63 209.65)"/><path class="cls-18" d="M328.28-155.58c0,.05,0,.11,0,.16l.13,0Z" transform="translate(1004.63 209.65)"/><path class="cls-18" d="M482.59-109.15c4.54-5.19,9.21-10.89,5.46-17.94s-10.22-3.13-15.74-1.89c-1.91.76-3.81,1.53-5.72,2.27q0,9.13,0,18.36C472.48-98.62,478.07-93.76,482.59-109.15Z" transform="translate(1004.63 209.65)"/><path class="cls-18" d="M739.92,45l31.35-4.58C758.33,24.91,749.52,37.71,739.92,45Z" transform="translate(1004.63 209.65)"/></g><path class="cls-19" d="M-490,198.27c-2.3,3.52-7.26,7.88-6.46,10.48,10.29,33.51,0,67.88,4.8,101.52l-5.74,4.11c-2,2.1-4.05,4.21-6.07,6.29l-14.76-1c-1.71-3.92-5-5.42-9-5.74-2.91-3.35-5.81-3.32-8.71,0l-14.17.69c-8.34-2.62-12.61,10.07-21.4,5.65l-.18-.23c-1.61-1.9-3.2-3.81-4.81-5.72l-4.95-6.33c-1.39-1.55-2.78-3.1-4.17-4.67-11.88-12.61-26.89-20.28-42.52-27l-.17.06c-2.18-1.43-4.38-2.86-6.58-4.28,0,0,0,0,0,0-1.77-1.29-3.55-2.59-5.31-3.9a3.57,3.57,0,0,0-3.61-2.1c-19.75-8.06-17.7-35.15-37.64-43l.15.29-6.58-4.37c-1.78-1.29-3.58-2.56-5.36-3.84l-17.23-17.23c-1.17-2.24-2.32-4.47-3.48-6.71a3.29,3.29,0,0,0-1.57-3.85c.44-3.26-1.24-4.84-4.26-5.37l0,0-5.36-4.63a2,2,0,0,0-2.66-1.5l-7.75-5c-.82-6.85,4.06-14.06-1.26-20.63l-3.55-5.6c-.07-.11-.14-.22-.2-.33l0,.06c-2-3.2-4-6.42-6.07-9.63l-.11-.23c-1.47-2.11-3-4.21-4.42-6.31l.29.27c-5.5-11.68-11.33-23.13-21.12-31.94-.88-3.15-2.86-4.74-6.25-4.32l-6.5-5.7c.59-4.22,1.8-8.61-3-11.4,0,0,0-.11,0-.11-4.42-8.71-12.76-9.9-21.16-11l.24.32-6.58-3.38c-16.44-10.23-13-28-16.5-43.2C-832.35,4.84-837-4.57-851.58-5.43-879.87-13.52-890.64-39-906-60.07-922.67-83-951-91.16-970.7-110.93c-10.61-10.65-20.3-21.11-28.15-33.82-9-14.62-8.35-26,8.35-33.94,5.57-10.33,12.44-13.06,23.57-6.6,23.78,13.81,49.72,17.94,77,21.79,14.21,2,37.51,17.57,36.67,43.06l12,10.17,26.74,7.62c28.61-13.27,40.24-5.86,40,25.47,11.8,16.12,22,34.29,45.67,35,.82,0,2.15.41,2.38,1,11,27.12,49.69,24.68,58.07,54.73,2.75,9.84,12.78,7.26,19.78,9.94,13,5,18.94,23.84,40.59,14.16,8.9-4,15,16.11,7.46,26.71-16,22.6-3.74,30.79,16.17,35.5,27.27,6.43,22.81,36.93,39.73,51q5.73,7.85,11.43,15.72c14.26-9.91,21.45-2.54,26.23,10.66-2.18,2.69-4.36,5.46-6.92,7.34,2.57-1.87,4.74-4.64,6.93-7.32a30,30,0,0,1,10.69,6.53,20.72,20.72,0,0,1,5,7.9q.3.85.54,1.74a28.1,28.1,0,0,1,.78,4.81h0Z" transform="translate(1004.63 209.65)"/><path class="cls-20" d="M912.7,380c2.91-16.05,1.36-32-.77-48-.94-17.28,5.41-35.36-5.7-51.52l-.59-1.47c-9.36-12.27-2-21.84,5.1-31.45q-.19-8.25-.4-16.52a18.77,18.77,0,0,1-1.52-3.21c-.09-.33.82-.94,1.27-1.42,1.64-11.44,2.21-22.84-1.65-34-14.64-34.65.17-72.86-13-107.69a1.68,1.68,0,0,0-2.59-.91c-2.39-7.28-7.31-10.45-13.48-10.45a22.12,22.12,0,0,0-4.91.59c-16.74,3.87-31.77-1-46.62-7.6h0C822.64,58.31,813.73,59,806,57a23.84,23.84,0,0,0,1.39,2.41A22.11,22.11,0,0,1,806,57l-.62-.6h0c-4.79-12.76-16.11-10.18-26-11.06h0l-8.08-4.91L739.92,45A2.08,2.08,0,0,0,737,46.1a5.06,5.06,0,0,0-.17.62,5.09,5.09,0,0,1,.16-.62c-19.82,5.39-37.28-5.15-55.47-5.76-1.22-11.13,18-14.34,5.83-26.11S663.21-10.58,644.63-3.15c-11.21,4.48-19.84,13.23-5,25,6.1,4.81,13.17,9.57,8.67,19.3-11.14,7.37-13.9,13.09.56,21.22,13.13,7.37,25.85,7.88,39.62,5.28,6.14,12.81-8.42,15.68-11.52,24a2.4,2.4,0,0,0-.19.29c2.3,8.39,3.2,16.06-8.7,17.29-.53-1.62-1.1-3.22-1.73-4.79-10.31,4.43-12.27,20.41-26.67,19.22-16.58-8.47-16.62-29.28-29.9-40.27-.63,5.74-3,7.9-8,3.6-13.16-11.37-15.54-26.37-13.95-42.57,1-10.16,4.86-20.24.57-30.49-1.63-3.88-3.24-7.76-4.87-11.65-11.42-6.66-27.85,5.34-36.93-9.95l-6-4.63c-14-1.85-28-2.86-41.95.38a5.27,5.27,0,0,1-3.41,1.57l-7.48,2.6c-7.88,6-19.65,2.74-26.53,11.13-1.4.2-2.8.42-4.19.66-18.44,10-26.7,24.63-21.06,45.69,13.87,3.58,35-7.27,39.92,12.72,2.93,11.94,10.26,16.6,16.49,24,14.43-11.69,33.18,2,47.89-8.11-1.8,13.71-9.33,19.19-23,16.55-6.44-1.25-13.55-4.67-18.48,3.27l-5.88.16c-9,9.68-14,17.11,3.62,24.69,10.65,4.59,27.71,8.41,19.51,29.42-2.74,7,6.37,16.35,14.56,19.85s12.28-3.9,16.2-9.73l15.66-12.2c4.64,3.43,10,10.28,13.92,10.28a2.9,2.9,0,0,0,.66-.07c17.7-3.94,27-.27,33.85,18.55,2.33,6.46,17,16,31.19,15.32,50.74-2.43,89.93,27,131.69,49.26,4.66,2.48,6,5.16,3.36,10.29-5.58,10.76,2.67,17.69,7.5,25.86,12.26,20.8,31.73,42.18,28.76,65.27-3.54,27.59,10.08,21.62,22.87,18.1,11.84-3.29,20.46-1.81,28.56,6.63,7.93,8.27,15.51,16.92,24,24.63,5.07,4.62,8.13,15.84,18.6,8.53C915.68,397.15,917.63,389.24,912.7,380ZM565,130.81a16.09,16.09,0,0,0,.5-1.66A15.38,15.38,0,0,1,565,130.81ZM667.58,113c0,.42-.05.84-.07,1.26h0C667.53,113.81,667.55,113.39,667.58,113Zm-.08,1.27c0,2.1.07,4.21.1,6.33C663.3,118.52,663.33,116.41,667.5,114.24Zm35.62-11.47c0-.2-.07-.39-.11-.57,0,.18.08.37.12.58s.07.32.11.47C703.2,103.09,703.15,102.93,703.12,102.77ZM827.61,66.35l.57.55-.58-.54-1.39.19ZM855,345.71l-.81.28c-.95.35-1.93.73-2.93,1.12-1.33.51-2.7,1-4.06,1.51,1.37-.48,2.73-1,4.06-1.51l2.93-1.13.81-.27a16.08,16.08,0,0,1,8.14-.62A16.3,16.3,0,0,0,855,345.71Zm8.69-.51a15.48,15.48,0,0,1,1.91.55A17.44,17.44,0,0,0,863.66,345.2ZM905,319.66a15.68,15.68,0,0,0-1.29-1.92,14.62,14.62,0,0,1,1.29,1.92c.4.67.75,1.39,1.1,2.12C905.78,321.05,905.42,320.33,905,319.66Z" transform="translate(1004.63 209.65)"/><path class="cls-19" d="M198.25,332.2c-13.42,12.63-21.58,34.41-46.86,26.46-2.94-.92-7.43-.08-10,1.67-31.78,21.34-65.3,13.63-98.84,6.46-6.88,12.82-13.28,26.14-30.25,28.11L5,389.45c-.81,1.86-1.63,3.72-2.44,5.57l-1,.51c-5.39,3.05-10.76,5.12-16-.31q-.81-5.06-1.6-10.12c.28-4-1.83-6.24-5.46-7.38l-4.13-3.09-6.47-4.95-10-6.9c-4.1-6.34-10.38-1.88-15.5-3.13-.08,3.19-.17,6.38-.25,9.57-10,16-19.59,2.91-28.43-1.13-33.66-15.36-68.38-5.33-102.2-3.31-36.85,2.2-69.38-9.86-102.84-20.65-12.26-3.94-23.71-1.05-35.5,3.12-21.07,7.45-81.44-6.42-93.07-20.54,2.79-3.33,6.38-8-.14-9.66-13.64-3.51-27.69-6.37-41.53-.09q-6.5-3.6-13-7.23l-4-14.05,6.08-6.29,5.74-4.11c14.32,5.19,12.63-12.58,21.6-15h0c-1.71-28.44,14.57-22.55,31.05-16.27l20.87-1.85c23.82-.88,48.37,1.4,66.57,16.45,23.35,19.3,66.94,19.79,86.72-3.13,7-8.11,11.66-12.39,25.47-4.21,15.84,9.38,36,18,57,12.11,1.91.3,3.83.58,5.76.87a4.08,4.08,0,0,1,2.67,2.72,22,22,0,0,0,2.23,4.64c-5.21,13.87,4.83,18.87,14.13,24.31,12.32,9,26.07,5.24,39,3.26,15.57-2.37,25.41,2.46,29.95,17.61L-53.31,322c25.57.63,50.82-21.76,77.11,1,10.4,9,17.56,15.27,6,27-5,5-12.69,8.89-6.57,16.8,5.86,7.56,12.81-1.14,19.38-.8,8.13-11.2,1-30.9,20.13-36a3.24,3.24,0,0,1,1.85-3.51l13.71,1.42h0c6,1.76,12.09,3.63,17.4-1.79,10.21-3.85,21.68-4.82,28.49-15.7,4-6.46,14.18-9.89,18.62-5.7,16.84,15.88,26.15,3.3,36.65-8.43,9,7.8-3.63,31,20,27.17C201.09,323.21,201.14,329.48,198.25,332.2Z" transform="translate(1004.63 209.65)"/><path class="cls-21" d="M442.75,151.44c-2.87,10.85-11.53,19-20.41,12.35C388.7,138.63,349.22,141,311.05,136.5c-11,2.24-21.78,3.51-12.28-12.88,8.42-14.54,17.91-27.62,38.65-24.82,23.21,3.13,47-1.48,70.17,5.5C431.48,111.49,443.15,126.68,442.75,151.44Z" transform="translate(1004.63 209.65)"/><path class="cls-22" d="M355.16,293.43c-7.41-10-15.64,4.19-23.42,7.95-15.12,7.31-30.73,21-47.35,9.83C259,294.13,241,304.72,222.85,321.63c2.93,3,4.31,7.26,7.06,10.17-2.75-2.91-4.14-7.14-7.06-10.17-9.4,5.54-15,15-8.78,23.56,7,9.68,19-.31,28.69,1.48-1.64,11.38-5.9,19.32-19.72,17.4-10.5-1.46-20.69-.51-27.07,9.95-6.91,4.47-13.81,9.54-10.05,19,3,7.63,10.39,9.22,17.86,7.69,9.3-1.91,14.47,3.71,20.46,9.2,19.89,18.21,32.5,16.82,52.82-5.09,5.85-3.71,5.88-10.14,1.58-12.9-15.84-10.14-16.85-26.44-19.78-42.18,12.29,3.12,23.83,3,32.93-7.65,18.68-3.6,40.16-.11,52.16-20.62C356.06,315.26,361.17,301.56,355.16,293.43Z" transform="translate(1004.63 209.65)"/><path class="cls-19" d="M368.68-105.11c17.11,1.82,33.55-18.07,42.26-13.44,15.19,8.09,29,14.54,46,14,3.28-.11,6.48-2.49,9.72-3.83q0-9.18,0-18.33c-11.7-9.68-22.16-29.81-37.07-2.09-2.65,4.91-12.87,1.37-18.92-3.7-20.51-17.23-35.31,4.41-52.6,8.69-1.51.38-2.2,8.16-1.55,12.23C357.54-104.83,363.14-105.7,368.68-105.11Z" transform="translate(1004.63 209.65)"/><path class="cls-19" d="M174.36,145.8l-.27.08,0,.18Z" transform="translate(1004.63 209.65)"/><path class="cls-19" d="M333.52-49.26l0-.09c-11.67-16-10-32.44-2.4-49.66,2.33-5.28-1.7-9.85-7.73-11.31-4.75,5.91-11.34,10.48-17.88,5.59-7.22-5.38-1.6-14.77-3-22.23h0a36.64,36.64,0,0,0,20.68-7.67l0,0,5-6.43c.45-3.14.91-6.28,1.35-9.42a9.33,9.33,0,0,1-1.23-4.9l-10.38-2.18a5.8,5.8,0,0,1-4.48,2.13l-5.89,5.31q-2.61,2.53-5.22,5.1c-.3,1.79-.61,3.57-.93,5.37h0l-2.37,0-2.29-.63c-8.93,6.12-18.76,11.46-21.15,23.48-3.45,1.46-6.74,1.75-9.63-.59,3.18,7.82-.83,14-5.49,20-6.33,27.1,8.89,49.73,15.44,74.14-.33,3.38-.66,6.75-1,10.14-9.89,3-18.48,7.61-13.52,20,4.67,11.69,12.77,18.41,26.3,12.35-1.57,10-8.35,16.72-15,23.56-3.53,3.63-8.1,7.29-5.49,13.3s8.25,5,13.36,5.53c25.43,2.53,32.72-8.55,24.22-37,.1-.06.2-.1.3-.17-.09-.2-.19-.38-.28-.58,7.28-4.78,15.39-8.81,16.65-18.91-5.83-15.14-21.77-25.87-19.41-44.58,10.88.35,24.73,19.25,31.68-5A3.61,3.61,0,0,1,333.52-49.26ZM297.15,19.11l-.43.34.06-.6c.15,0,.27,0,.4,0Z" transform="translate(1004.63 209.65)"/><path class="cls-19" d="M265.35-118.74l-.43.38a10.12,10.12,0,0,0,1,1C265.77-117.84,265.57-118.29,265.35-118.74Z" transform="translate(1004.63 209.65)"/><path class="cls-6" d="M431.63,336.56q1,.39,2,.69-1.05-.3-2-.69L403.44,358.1c-8.42,4.95-16.72,10.37-15.83,21.72,1.71,21.74-6.24,38.7-23.21,52.22-4.23,3.37-11.91,8.4-6.26,14.74,6.31,7.09,13.11.55,18.15-3.82,11.84-10.29,21.35-25.54,34.94-31C437,401.57,448.32,382,456.86,358.57h0l4.27-5.49c26.93-7.34,19.9-35.55,33.39-51.87C475.77,318.35,446.48,315,431.63,336.56Z" transform="translate(1004.63 209.65)"/><path class="cls-19" d="M-466.32,166.72c.2.56.37,1.14.53,1.74a26.16,26.16,0,0,1,.78,4.8h0c12.46,10.62,22.88,10,30.64-5.53h0c3.69-12.33,9.47-24.73-9.72-30.6-4.88-1.49-9.1-8.23-11.73-13.5-16.82-33.62-23.35-34.5-51.05-5.91h0q-6.43,4.06-12.84,8.15l11.43,15.73c14.25-9.91,21.44-2.54,26.23,10.65v0a30,30,0,0,1,10.7,6.52A20.68,20.68,0,0,1-466.32,166.72Zm9.24-10.27a12.37,12.37,0,0,0,4.74,5.69,12.42,12.42,0,0,1-4.74-5.69,44.79,44.79,0,0,0-11.83-17.4A44.69,44.69,0,0,1-457.08,156.45Z" transform="translate(1004.63 209.65)"/><path class="cls-21" d="M256.44,86.21c-11.28-3.19-19.75,5.3-22.18,16.42-2,9.09-11.18,6.88-15.16,12.16-10.89,7.93-21.11,20.33-7.48,29.31,12,7.92,24.79,30.88,44.51,12.43C267.29,146.09,286.2,135.87,268,116,271.19,103.26,270.86,90.29,256.44,86.21Z" transform="translate(1004.63 209.65)"/><path class="cls-19" d="M413,71.55l-.1.09-.11.1Z" transform="translate(1004.63 209.65)"/><path class="cls-19" d="M398.41,50.82c-5.32,2.44-11.29,3.46-17,5.13l-.17.1-10.51,10.7c.12,1.92.23,3.85.35,5.77L377,77.08a15.27,15.27,0,0,1,4.66.56l5.29-.27,19.94-.64,6-5.09,5.25-5.52-.14,0C420.59,49.3,415.22,43.12,398.41,50.82Z" transform="translate(1004.63 209.65)"/><path class="cls-20" d="M617.33,217c-10.82-3.2-14.17,6.79-18.4,14.09-19,17.63,4,43.78-13,62.49-7.21,7.94-.92,16.89,7.78,16.35,7.53-.46,20.36-10.54,16.18-16.22-13.92-18.9,9.8-18.5,11.94-28.35,8.6-8.2,7.43-18.84,6.07-28.84C626.91,229.08,625.7,219.5,617.33,217Z" transform="translate(1004.63 209.65)"/><path class="cls-19" d="M-863.17,5.63-868.61,2l.07.11-10.19-6.2L-890-2.38l.51-2.23-5.31.7-10,5.92-5.63,5.73c2.83,13.11,12.32,21.6,19.92,31.85,9.63,13,17.89,18.4,32.3,9.51q2.13-4.83,4.25-9.67c3.44-11.23,2.49-21.82-4.51-31.56A6.43,6.43,0,0,1-863.17,5.63Z" transform="translate(1004.63 209.65)"/><path class="cls-19" d="M297.18,18.88l0,.23-.43.34.06-.6C296.93,18.85,297.05,18.87,297.18,18.88Z" transform="translate(1004.63 209.65)"/><path class="cls-19" d="M424.07-7.07l6.71,2.92.61.18,14-2.72c13.17-4.35,5-13.59,4.83-21-9.05-1.59-18.67-1-26.55-7-6.75,5.42-13.78,10.71-9.37,21.09L421-8.72A3.86,3.86,0,0,1,424.07-7.07Z" transform="translate(1004.63 209.65)"/><path class="cls-20" d="M413.83,288.88c-14.48,2.16-32.25-4-39.85,15.7,28.59,16.81,41.59,16.06,66.51-4,3.77,0,5.86-2.43,7.37-5.62,10.47-8.85,11.1-16.16-4.3-17.87C432.21,275.86,420.5,276.81,413.83,288.88Z" transform="translate(1004.63 209.65)"/><path class="cls-20" d="M908.44,192.38c-14.64-34.65.17-72.86-13-107.69,6.68-.34,9.62,3.85,9.7,9.51C905.59,127,912.85,159.47,908.44,192.38Z" transform="translate(1004.63 209.65)"/><path class="cls-19" d="M-797.84,118.9a5.36,5.36,0,0,1-2.4-4.41l-4.17-6.46c-6.87-8.63-13.44-4.06-20,.46l-1.68,5.76c5,14.14,12.59,23.4,25.42,23-12.83.44-20.44-8.82-25.42-23-1.47,0-2.94-.07-4.39-.21l.11-.23-5.54,5.41.22-.25-5.5,6c.05,2.6.11,5.21.17,7.81l4.89,6.51,0,0,4.66,5.53.3.4c11,10.43,24.2,7,37,5.69l.73-.71,4.54-4.58.24-11.21-5.88-12.15Zm-2.74,18.31a28.21,28.21,0,0,0,3.09-.29A28.21,28.21,0,0,1-800.58,137.21Z" transform="translate(1004.63 209.65)"/><path class="cls-20" d="M498.28,245.62c-5.34,2.59-10.76,5-16.13,7.55.66,3.84,1.92,6.27,3.56,7.78-1.64-1.51-2.9-3.94-3.56-7.78-11.4,4.92-21.54,15-14.88,25.26,5.31,8.19,18.16-2.72,27.63-4.81,4.18-.93,7.25-6.89,10.83-10.56a13.14,13.14,0,0,0-2.46-.33,13.14,13.14,0,0,1,2.46.33c8.95-2.76,20.59-6.29,15.31-17.62C516.36,235.39,506,241.85,498.28,245.62Zm-8.93,17.24a13.87,13.87,0,0,0,1.61.29A13.87,13.87,0,0,1,489.35,262.86Z" transform="translate(1004.63 209.65)"/><path class="cls-19" d="M328.28-155.58c0,.05,0,.11,0,.16l.13,0Z" transform="translate(1004.63 209.65)"/><path class="cls-19" d="M482.59-109.15c4.54-5.19,9.21-10.89,5.46-17.94s-10.22-3.13-15.74-1.89c-1.91.76-3.81,1.53-5.72,2.27q0,9.13,0,18.36C472.48-98.62,478.07-93.76,482.59-109.15Z" transform="translate(1004.63 209.65)"/><path class="cls-19" d="M739.92,45l31.35-4.58C758.33,24.91,749.52,37.71,739.92,45Z" transform="translate(1004.63 209.65)"/><path class="cls-23" d="M-5.12-49.34l5.93,5.4C-15.7-12.19-19.48,24-34.36,56.35h0C-48.58,65.65-45,79.73-44.2,93.05-21.77,83-14,93.56-14,114.73c6.6,13.24,4.16,25.5-4,37.15l-6.78,20.8c.46,2,.93,4.08,1.39,6.11,1.75,1.58,3.5,3.15,5.23,4.73l.17.11c2,1.55,4.09,3.11,6.14,4.65L-12,188c17.58-10.26,40.24,7.84,56.44-10.1.22-3,.43-5.95.64-8.92a32.48,32.48,0,0,1-4.3-1.25c-1.09-8.26-8-16.41-8-24.69,0-4.27,1.85-8.58,7.31-13,.2-3.34.43-6.68.63-10q.19-13.23.38-26.47-.73-10.8-1.46-21.6c-1.15,0-2.28,0-3.41.07,1.13,0,2.26-.06,3.41-.08-1.55-5-3.13-10-4.69-15h0c30.28-.56,30.28-.56,15.19,36.48q5.77,10.57,11.57,21.12c1.72.4,3.42.85,5.11,1.37,22.52,5.06,8.76,18.64,6.91,29.42l9,11.81,9.64.73,11-.59c1.2,6.46,4.24,9.85,9.23,9.85a16.71,16.71,0,0,0,5.62-1.13c14-5.06,10.71,5.82,11.76,12.71-.84,13.73,6.92,12.61,16,9.25l5.54-4.35,5.59-4.93.2-.22c1.6-1.9,3.22-3.8,4.82-5.69l-.13.09c3.26-9-5.45-22.64,10.15-26.9q-3-10.6-6.05-21.2c1.53-1.6,3.08-3.19,4.62-4.79-1-3.52-2.09-7.06-3.15-10.59l-21,2.9L134.27,95l-.18.27c-12.59-.42-16.28-6.73-12.06-18.25,6-3.36,10.26-7.67,8.3-15.33C125,60,121.77,56.06,119.61,51.09c-2.94-3.32-5.9-6.63-8.84-9.93a73.25,73.25,0,0,1-6,4.56c2.06-1.49,4.14-3,6-4.57C93.81,17.72,97,12.3,131,6.93q-.07,6.06-.14,12.12l5,1.89a3.79,3.79,0,0,1,4.53,1.52l6.24-1.34c1.52-.89,3-1.77,4.56-2.64a2.25,2.25,0,0,0-.12.21c6.56-5.07,14-4.57,21.61-3.58l5.38-1.24L188.16,3c.19-3.43.37-6.84.55-10.26l-2.59-.22-2.52.64h0l-4.72-2.5c-6.75.77-6.11-4.19-6.5-8.37,1.68-.52,3.37-1,5.08-1.34l3.24-9.64L172.9-39.19c-5.26-.38-10.54-.75-15.81-1.11-16.53,7.27-33.5,13.8-51.8,12.73-17-1-25.33,13.14-38.11,19.36-3.64-7.12-3.72-18.49-16.94-14.14C45.46-34.09,28.56-37.39,29.15-53c.38-9.58-.55-19.42,11.4-23.17v0L183.83-61.66c10.29-.12,21.19,3.78,30.29-4.48a14.53,14.53,0,0,1,1.4-4.62c1.57-.28,3.15-.63,4.69-1.06L245.61-98c.36-11.45,8.78-16,17.3-20.47-.09-3.31-.21-6.62-.32-9.93-8.95-1.31-17.51-.86-24.7,5.6L204.5-102.78c-6.95,5-14,7.08-21.35.76l-21.21-.76c-1.61,3.16-3.36,3.18-5.21.2L151.48-104,145-107.52a3.45,3.45,0,0,1-3.81-1.44c-2.17-1.08-4.32-2.17-6.49-3.26L104.3-114.5c-16-9-32-20.09-48.25-.35l-5.57,1.38c-1.51,4.49-3.15,3.78-4.87.13a44,44,0,0,1-5.26,0c-1.86,1.5-3.71,3-5.58,4.53l-.46.44L18.22-87.63a40.49,40.49,0,0,1-4.38.62q-5,5.6-9.93,11.2C6.1-65.25-2.85-58.51-5.15-49.48Z" transform="translate(1004.63 209.65)"/></g></g></g></svg>