<svg xmlns="http://www.w3.org/2000/svg" xmlns:xlink="http://www.w3.org/1999/xlink" viewBox="0 0 1922.01 869.4"><defs><style>.cls-1{fill:none;}.cls-2{fill:#fff;}.cls-3{fill:#d1ecf8;}.cls-4{clip-path:url(#clip-path);}.cls-5{fill:url(#radial-gradient);}.cls-6{fill:#49b3b8;}.cls-7{fill:#69aacd;}.cls-8{fill:url(#radial-gradient-22);}.cls-9{fill:url(#radial-gradient-25);}.cls-10{fill:#d8d520;}.cls-11{fill:#81b73a;}.cls-12{opacity:0.1;}.cls-13{clip-path:url(#clip-path-2);}</style><clipPath id="clip-path" transform="translate(1044.77 513.03)"><path class="cls-1" d="M0,356.37c4.12-.59,8.05-4.12,10.48-10.14,7.25-18,14.67-36,21.16-54.39,20.15-57,54.75-97.83,104-124.31,27.42-14.76,52.72-33.46,73-60.38,21.06-28,35.91-59.9,50.64-92.07,3.48-7.61,6.49-16.7,16.08-14.83C306.46,6.31,336.13,16,360.65,40.31c19.26,19.13,38.49,38.42,58.79,56.1,5.18,4.51,10.49,13.72,15.95,17,20.46,12.4,43,16.24,68.13,10.69,18.48-4.07,37.06-7.87,55.74-10.32,50.4-6.62,61.13.35,73.69,49,8.35,32.33,25.17,56.68,50.53,75.59,38.7,28.87,79.65,52.89,120.62,77,20.5,12.06,72.17,41.46,73.14,40.91Z"/></clipPath><radialGradient id="radial-gradient" cx="-352.79" cy="-60.06" r="1227.42" gradientUnits="userSpaceOnUse"><stop offset="0" stop-color="#2383c5" stop-opacity="0"/><stop offset="1" stop-color="#d45127"/></radialGradient><radialGradient id="radial-gradient-22" cx="288.2" cy="-458.87" r="0.08" xlink:href="#radial-gradient"/><radialGradient id="radial-gradient-25" cx="410.25" cy="-106.4" r="358.03" gradientUnits="userSpaceOnUse"><stop offset="0" stop-color="#d45127"/><stop offset="1" stop-color="#2383c5" stop-opacity="0"/></radialGradient><clipPath id="clip-path-2" transform="translate(1044.77 513.03)"><path id="SVGID" class="cls-2" d="M0,356.37c4.12-.59,8.05-4.12,10.48-10.14,7.25-18,14.67-36,21.16-54.39,20.15-57,54.75-97.83,104-124.31,27.42-14.76,52.72-33.46,73-60.38,21.06-28,35.91-59.9,50.64-92.07,3.48-7.61,6.49-16.7,16.08-14.83C306.46,6.31,336.13,16,360.65,40.31c19.26,19.13,38.49,38.42,58.79,56.1,5.18,4.51,10.49,13.72,15.95,17,20.46,12.4,43,16.24,68.13,10.69,18.48-4.07,37.06-7.87,55.74-10.32,50.4-6.62,61.13.35,73.69,49,8.35,32.33,25.17,56.68,50.53,75.59,38.7,28.87,79.65,52.89,120.62,77,20.5,12.06,72.17,41.46,73.14,40.91Z"/></clipPath></defs><g id="Layer_2" data-name="Layer 2"><g id="Layer_1-2" data-name="Layer 1"><path class="cls-3" d="M0,356.37c4.12-.59,8.05-4.12,10.48-10.14,7.25-18,14.67-36,21.16-54.39,20.15-57,54.75-97.83,104-124.31,27.42-14.76,52.72-33.46,73-60.38,21.06-28,35.91-59.9,50.64-92.07,3.48-7.61,6.49-16.7,16.08-14.83C306.46,6.31,336.13,16,360.65,40.31c19.26,19.13,38.49,38.42,58.79,56.1,5.18,4.51,10.49,13.72,15.95,17,20.46,12.4,43,16.24,68.13,10.69,18.48-4.07,37.06-7.87,55.74-10.32,50.4-6.62,61.13.35,73.69,49,8.35,32.33,25.17,56.68,50.53,75.59,38.7,28.87,79.65,52.89,120.62,77,20.5,12.06,72.17,41.46,73.14,40.91Z" transform="translate(1044.77 513.03)"/><g class="cls-4"><path class="cls-5" d="M-530.13-105.12c-2.3,3.53-7.26,7.89-6.46,10.48,10.28,33.52,0,67.89,4.79,101.53L-537.53,11q-3,3.15-6.08,6.29l-14.76-1c-1.7-3.91-5-5.41-9-5.73-2.92-3.35-5.82-3.32-8.71,0l-14.18.69c-8.33-2.62-12.6,10.06-21.4,5.65l-.18-.24-4.8-5.71c-1.65-2.11-3.31-4.22-4.95-6.33l-4.17-4.67c-11.88-12.62-26.9-20.28-42.53-27l-.16.06L-675-31.28s0,0,0,0c-1.77-1.3-3.55-2.6-5.31-3.91a3.57,3.57,0,0,0-3.62-2.09c-19.75-8.07-17.69-35.16-37.64-43l.16.3L-728-84.42c-1.78-1.28-3.58-2.55-5.35-3.83l-17.24-17.23-3.48-6.71a3.29,3.29,0,0,0-1.57-3.85c.44-3.27-1.24-4.84-4.25-5.37l0,0-5.37-4.63a2,2,0,0,0-2.66-1.5c-2.57-1.68-5.16-3.37-7.74-5-.82-6.85,4-14.06-1.26-20.63l-3.56-5.6c-.06-.12-.13-.22-.19-.33l0,.06c-2-3.2-4-6.42-6.07-9.63l-.12-.23c-1.47-2.11-2.94-4.22-4.41-6.31l.28.26c-5.5-11.67-11.32-23.12-21.12-31.93-.88-3.15-2.86-4.74-6.24-4.32l-6.5-5.7c.59-4.22,1.8-8.62-3-11.41,0,0,0-.1,0-.1-4.43-8.71-12.77-9.9-21.16-11l.23.32c-2.19-1.14-4.39-2.26-6.58-3.39-16.44-10.23-13-28-16.5-43.2-.64-12.84-5.28-22.24-19.87-23.1-28.3-8.09-39.06-33.62-54.38-54.65-16.72-22.94-45-31.08-64.74-50.85-10.61-10.66-20.3-21.11-28.15-33.82-9-14.63-8.36-26,8.35-33.94,5.57-10.33,12.44-13.06,23.57-6.6,23.78,13.81,49.71,17.94,77,21.78,14.21,2,37.5,17.57,36.66,43.07l12,10.17,26.75,7.62c28.61-13.27,40.23-5.86,40,25.47,11.79,16.12,22,34.29,45.67,35,.82,0,2.15.41,2.37,1,11,27.12,49.69,24.69,58.07,54.73,2.75,9.85,12.78,7.26,19.79,9.95,13,5,18.94,23.84,40.59,14.16,8.89-4,15,16.11,7.45,26.71-16,22.6-3.73,30.79,16.17,35.49,27.28,6.43,22.82,36.94,39.74,51q5.72,7.86,11.43,15.72c14.26-9.9,21.44-2.53,26.23,10.67-2.18,2.68-4.37,5.46-6.92,7.34,2.56-1.87,4.74-4.64,6.93-7.32a29.91,29.91,0,0,1,10.69,6.53,20.76,20.76,0,0,1,5,7.9c.19.56.38,1.15.53,1.74a28.13,28.13,0,0,1,.79,4.8h0Z" transform="translate(1044.77 513.03)"/><path class="cls-5" d="M872.56,76.61c2.9-16,1.36-32-.78-48-.94-17.27,5.41-35.36-5.69-51.52l-.59-1.46c-9.37-12.28-2-21.84,5.1-31.45q-.21-8.25-.4-16.52a19.19,19.19,0,0,1-1.53-3.21c-.09-.33.82-.94,1.27-1.42,1.65-11.44,2.21-22.84-1.64-34-14.64-34.66.16-72.86-13-107.7a1.68,1.68,0,0,0-2.58-.91c-2.39-7.28-7.31-10.44-13.49-10.44a22,22,0,0,0-4.9.59c-16.75,3.86-31.77-1-46.63-7.61h0c-5.21-8-14.12-7.28-21.88-9.3a22.61,22.61,0,0,0,1.39,2.4,21,21,0,0,1-1.4-2.4l-.63-.6h0c-4.78-12.76-16.11-10.18-26-11.06h0L731.13-263l-31.35,4.58a2.08,2.08,0,0,0-2.93,1.09,4.17,4.17,0,0,0-.18.63,4.16,4.16,0,0,1,.17-.63c-19.83,5.4-37.29-5.14-55.47-5.75-1.23-11.13,18-14.34,5.83-26.11S623.06-314,604.49-306.53c-11.22,4.48-19.85,13.23-5,24.95,6.09,4.82,13.16,9.57,8.67,19.3-11.15,7.37-13.91,13.1.56,21.23,13.12,7.37,25.84,7.88,39.61,5.28,6.14,12.81-8.41,15.67-11.52,24,0,0-.18.3-.18.3,2.3,8.38,3.2,16.06-8.7,17.29q-.8-2.43-1.73-4.8c-10.32,4.44-12.28,20.42-26.67,19.23C583-188.18,582.92-209,569.64-220c-.64,5.75-3,7.91-8,3.6-13.15-11.36-15.53-26.36-14-42.56,1-10.16,4.87-20.24.57-30.5l-4.86-11.64c-11.42-6.67-27.86,5.34-36.94-10l-6-4.63c-14-1.85-28-2.85-41.94.39a5.28,5.28,0,0,1-3.42,1.56l-7.48,2.61c-7.88,6-19.65,2.74-26.53,11.12-1.4.21-2.8.42-4.19.67-18.44,10-26.7,24.62-21,45.68,13.87,3.59,35-7.27,39.91,12.73,2.94,11.94,10.27,16.6,16.49,24,14.44-11.69,33.18,2,47.89-8.12-1.79,13.71-9.33,19.19-23,16.55-6.44-1.24-13.54-4.67-18.48,3.28l-5.88.16c-9,9.68-13.95,17.11,3.62,24.69C467-175.78,484-172,475.82-150.95c-2.74,7,6.37,16.34,14.55,19.85s12.28-3.91,16.21-9.73L522.24-153c4.64,3.43,10,10.27,13.92,10.27a2.81,2.81,0,0,0,.65-.07c17.71-3.93,27.05-.26,33.85,18.56,2.33,6.46,17,16,31.2,15.32,50.73-2.43,89.93,27,131.68,49.25,4.67,2.49,6,5.16,3.37,10.3-5.58,10.76,2.67,17.69,7.49,25.86,12.27,20.8,31.73,42.18,28.77,65.27C769.63,69.32,783.25,63.35,796,59.82c11.84-3.28,20.47-1.81,28.57,6.64,7.93,8.27,15.5,16.92,23.95,24.62,5.07,4.62,8.12,15.85,18.59,8.54C875.53,93.77,877.49,85.86,872.56,76.61ZM524.8-172.57a15.17,15.17,0,0,0,.5-1.66A14.53,14.53,0,0,1,524.8-172.57Zm102.64-17.84c0,.42-.06.84-.08,1.25h0Zm-.09,1.27c0,2.1.08,4.21.11,6.32C623.15-184.86,623.18-187,627.35-189.14ZM663-200.61c0-.2-.07-.39-.11-.58,0,.19.08.38.12.59s.06.31.1.47C663.05-200.3,663-200.45,663-200.61ZM787.47-237c.18.19.37.37.56.56l-.57-.55-1.39.2ZM814.82,42.32l-.8.29q-1.44.53-2.94,1.11c-1.33.51-2.7,1-4.06,1.52,1.37-.49,2.73-1,4.06-1.52L814,42.6c.27-.1.54-.2.8-.28a16.19,16.19,0,0,1,8.14-.61A16.41,16.41,0,0,0,814.82,42.32Zm8.69-.5a15,15,0,0,1,1.91.54A16.8,16.8,0,0,0,823.51,41.82Zm41.37-25.54a16.62,16.62,0,0,0-1.29-1.93,15.44,15.44,0,0,1,1.29,1.93c.4.67.76,1.39,1.11,2.12C865.64,17.67,865.27,17,864.88,16.28Z" transform="translate(1044.77 513.03)"/><path class="cls-5" d="M224.45-431.83c-9-1.3-17.51-.85-24.7,5.61l-33.4,20.05c-6.95,5-14,7.09-21.34.77-7.08-.26-14.14-.5-21.21-.77-1.62,3.16-3.37,3.18-5.22.21l-5.24-1.39-6.52-3.55a3.46,3.46,0,0,1-3.82-1.44l-6.49-3.26-30.36-2.28c-16-9.05-32-20.09-48.25-.35l-5.57,1.38c-1.5,4.49-3.15,3.77-4.86.12a40.3,40.3,0,0,1-5.27.05c-1.86,1.51-3.71,3-5.57,4.53l-.46.44Q-11.88-401.37-19.92-391a40.34,40.34,0,0,1-4.39.63l-9.92,11.2c2.19,10.56-6.77,17.3-9.07,26.32-2.87-16.75-22.8-18.08-29-31.81-26.06-6.29-16.17-26.21-16.07-42.4l.1.08c-14.44-14.18-24.14-29.08-7.42-48.08q-.66-6.41-1.33-12.82l-2-9.49c-2.84-.67-3.78-2.4-2.89-5.16a9.09,9.09,0,0,1-2-4.14L-114.51-508c-16.7,20.52-30.55.3-45.57-3.2l-15.31,0,0,1.41-.62-1.27a3,3,0,0,1-1.88-1.92l-10.93,6.41c-.06,12.27.62,24.61-.45,36.81-.81,9.42-2.2,19.91-15.64,20.31l-10.4.18-4.93,6.58c-2.33,12.25,13.66,29.5-9.8,36-3.52,8.42-10.59,13.26-17.93,17.84-30.26,25.81-32.74,25.93-50.93,2.25-20.51-12.79-39.79-16.1-57.76,5.11a16.53,16.53,0,0,1-19.25,4.17c-5.05,1.07-11.71.45-14.88,3.47-14.59,14-27.13,8.34-39.78-2.35-17.92-11.48-24.48-31.69-36.62-47.6l-1.1-1-11.34-1.76c-.08,1.3-.15,2.6-.2,3.9l-5.82.23-4.93,2s-1.55,1.07-1.55,1.1a9.48,9.48,0,0,1,.2,1c-3.95,9.54-7.64,19.2-11.89,28.62-9.25,20.49-30.94,41.22,2,60.42,1.74,1,3.19,5,2.64,7.07-6.75,24.63,10.28,34.24,27.13,44.55,9.84,6,16.8,11.49,11.74,27.2-11.55,35.85,9.56,59.63,46.18,56.45,8-.71,20.19-7,23.65,3.83,9.58,30,29.73,16.56,46.86,12.6,8.34-1.92,18.24-10.17,24.36-3.28,10.58,11.94,23.48,10.6,36.13,11.36,14.54.87,24.31,5.42,22.22,21.94-1.95,15.39,5.34,16.49,17,12,8.15-3.17,16.81-5.41,22.9-12.41,8.07,1.38,14.19-4,22.85-7.39,0,5.45,0,9.65,0,13.84.05,7-.56,15.71,6.7,18.53,8.86,3.44,14.49-5.23,19.09-10.76,15.41-18.52,9.22-36.32-3.84-53.24-.42,1-.87,2-1.36,2.91a37.71,37.71,0,0,1-2.35,4,41,41,0,0,1-2.7,3.52,43.08,43.08,0,0,0,2.7-3.52,41.5,41.5,0,0,0,2.35-4q.72-1.4,1.35-2.91c13.78-14.13,28.32-28,13.43-49.91-4.68-6.89-.83-13.07,5-15.11,40.39-14,52.9-44.21,50.22-83.68l-.42.49.4-.81c0,.11,0,.21,0,.32l3.84-4.42c11.83-28.32,35-10.31,53.08-13l7.41.64a.52.52,0,0,1,0-.11l5.93,5.39c-16.51,31.75-20.28,68-35.16,100.3h0c-14.21,9.3-10.62,23.37-9.84,36.69,22.44-10,30.17.52,30.25,21.69,6.59,13.23,4.16,25.5-4,37.14l-6.78,20.81c.46,2,.93,4.08,1.39,6.11l5.24,4.72.16.12L-50-115.1l-.22-.33c17.58-10.26,40.25,7.84,56.45-10.1.21-3,.43-5.95.63-8.92A31.91,31.91,0,0,1,2.6-135.7c-1.09-8.26-8-16.41-8-24.69,0-4.27,1.85-8.59,7.3-13,.21-3.34.43-6.69.64-10q.18-13.23.38-26.48-.74-10.78-1.47-21.6c-1.14,0-2.27.05-3.41.08,1.14,0,2.27-.07,3.41-.09q-2.33-7.5-4.69-15h0C27-247.09,27-247.09,11.94-210l11.57,21.12c1.72.4,3.43.85,5.12,1.37,22.52,5.06,8.76,18.64,6.91,29.42l9,11.81,9.64.72,11-.58c1.21,6.46,4.24,9.84,9.23,9.84A16.59,16.59,0,0,0,80-137.46c14-5.06,10.72,5.82,11.76,12.71-.84,13.73,6.92,12.61,16,9.25l5.54-4.36,5.58-4.92.2-.22,4.83-5.69-.13.09c3.26-9-5.45-22.64,10.15-26.91q-3-10.59-6-21.2c1.53-1.59,3.07-3.19,4.62-4.78-1.06-3.53-2.1-7.07-3.15-10.59l-21,2.9L96.12-208.34l-.18.26c-12.58-.42-16.27-6.72-12-18.24,6-3.37,10.25-7.67,8.3-15.34-5.36-1.75-8.57-5.66-10.72-10.63l-8.85-9.93a71.48,71.48,0,0,1-6,4.55c2.07-1.49,4.14-3,6-4.57-17-23.43-13.74-28.84,20.19-34.21q-.08,6.06-.13,12.11l5,1.9a3.77,3.77,0,0,1,4.53,1.52l6.23-1.34,4.56-2.65a2.39,2.39,0,0,0-.12.22c6.56-5.07,14-4.57,21.61-3.58l5.39-1.24q5-5.43,10.11-10.85c.18-3.43.37-6.84.55-10.27l-2.6-.21-2.51.64h0l-4.72-2.5c-6.75.76-6.12-4.19-6.51-8.38,1.68-.52,3.38-1,5.08-1.33,1.09-3.21,2.16-6.42,3.24-9.64l-7.78-10.52-15.82-1.12c-16.53,7.28-33.5,13.8-51.8,12.74-17-1-25.33,13.14-38.11,19.36-3.63-7.12-3.72-18.49-16.93-14.15C7.31-337.47-9.59-340.77-9-356.42c.38-9.58-.55-19.43,11.4-23.17h0L145.68-365c10.3-.12,21.19,3.78,30.29-4.48a15,15,0,0,1,1.4-4.62c1.58-.29,3.15-.63,4.69-1.06l25.41-26.22c.36-11.45,8.78-16,17.29-20.47C224.67-425.2,224.56-428.51,224.45-431.83Zm-714.32,38.51.84-1.44-.83,1.44-1.52,2.69Zm-.67,45.07c.84.71,1.74,1.4,2.71,2.11C-488.8-346.84-489.7-347.54-490.54-348.25Zm42,63a19.92,19.92,0,0,1,1.69,2.24A22.28,22.28,0,0,0-448.57-285.28Zm4.73,17.9c-.11.93-.26,1.89-.44,2.91.18-1,.32-2,.44-2.91.73-6.4-.29-11.06-2.53-14.85C-444.13-278.45-443.1-273.79-443.84-267.38Zm17.75,56a37.34,37.34,0,0,1-9.1-3.53,38.17,38.17,0,0,0,9.1,3.53c1.14.29,2.32.55,3.55.78C-423.77-210.78-424.95-211-426.09-211.33Zm354-35.25a11,11,0,0,1,1.6,2.11A11.71,11.71,0,0,0-72-246.58Zm24,16.75a4.5,4.5,0,0,1,2-.26A4.83,4.83,0,0,0-48-229.83Zm156.66,41.66a11.68,11.68,0,0,0-.15-2.32A10.93,10.93,0,0,1,108.63-188.17ZM124-321.22c-1.35-.11-2.68-.19-4-.18C121.32-321.41,122.66-321.33,124-321.22Zm-15.48,8.36c-.22.74-.42,1.55-.6,2.41h0C108.09-311.31,108.29-312.12,108.52-312.86ZM31.65-292.44a4.1,4.1,0,0,1-.62.53A6.6,6.6,0,0,0,31.65-292.44ZM-3.22-256.82c2.9-.69,5.78-1.42,8.67-2.13-2.89.71-5.77,1.45-8.67,2.14Z" transform="translate(1044.77 513.03)"/><path class="cls-5" d="M158.1,28.82c-13.42,12.62-21.58,34.41-46.86,26.45-2.93-.92-7.43-.08-10,1.68C69.42,78.28,35.9,70.58,2.36,63.41c-6.88,12.82-13.27,26.14-30.24,28.1q-3.64-2.72-7.25-5.45c-.82,1.86-1.64,3.72-2.44,5.57l-1,.52c-5.38,3-10.76,5.12-16-.31-.55-3.37-1.08-6.75-1.61-10.12.29-4-1.83-6.25-5.46-7.38l-4.13-3.09-6.47-5-10-6.9c-4.09-6.33-10.37-1.88-15.49-3.12-.08,3.18-.18,6.37-.26,9.56-10,16-19.58,2.92-28.43-1.12C-160,49.34-194.75,59.37-228.57,61.4c-36.85,2.19-69.38-9.87-102.85-20.65-12.26-4-23.7-1.06-35.49,3.12C-388,51.32-448.35,37.45-460,23.33c2.79-3.33,6.38-8-.14-9.66-13.64-3.52-27.68-6.37-41.52-.09l-13-7.23q-2-7-4-14.06l6.07-6.28,5.75-4.11c14.32,5.19,12.62-12.59,21.6-15h0c-1.71-28.44,14.56-22.55,31-16.27l20.88-1.85c23.81-.88,48.37,1.4,66.56,16.44C-343.35-15.53-299.76-15-280-38c7-8.1,11.66-12.38,25.48-4.21,15.84,9.39,35.95,18,56.94,12.12l5.77.87a4.08,4.08,0,0,1,2.67,2.72,21.78,21.78,0,0,0,2.23,4.64c-5.22,13.87,4.82,18.87,14.12,24.3,12.32,9,26.07,5.25,39,3.27,15.57-2.38,25.42,2.46,30,17.61,3.44-1.58,6.87-3.16,10.32-4.73,25.57.63,50.82-21.77,77.11,1,10.39,9,17.56,15.27,6,26.94-5,5-12.7,8.9-6.58,16.81,5.86,7.55,12.81-1.14,19.39-.81,8.12-11.19,1-30.89,20.12-36a3.26,3.26,0,0,1,1.85-3.52l13.71,1.42h0c6,1.76,12.1,3.63,17.4-1.78C65.75,18.9,77.22,17.94,84,7.05c4-6.46,14.18-9.88,18.63-5.69,16.83,15.88,26.15,3.29,36.64-8.43,9,7.8-3.62,31,20,27.17C161,19.82,161,26.1,158.1,28.82Z" transform="translate(1044.77 513.03)"/><path class="cls-5" d="M402.6-151.95c-2.87,10.86-11.53,19-20.4,12.35-33.64-25.15-73.12-22.81-111.29-27.28-11,2.24-21.79,3.51-12.29-12.88,8.42-14.55,17.91-27.62,38.65-24.82,23.22,3.13,47-1.48,70.18,5.5C391.34-191.89,403-176.7,402.6-151.95Z" transform="translate(1044.77 513.03)"/><path class="cls-6" d="M315-9.95c-7.41-10-15.65,4.19-23.42,8-15.13,7.3-30.73,21-47.36,9.82C218.88-9.25,200.9,1.34,182.7,18.24c2.93,3,4.31,7.27,7.06,10.17-2.75-2.9-4.13-7.14-7.06-10.17-9.39,5.55-15,15-8.77,23.56,7,9.69,19-.3,28.68,1.49-1.63,11.38-5.9,19.31-19.72,17.39-10.49-1.45-20.68-.5-27.07,10-6.9,4.46-13.8,9.54-10,19,3,7.63,10.39,9.22,17.87,7.68,9.29-1.9,14.46,3.72,20.46,9.2,19.88,18.21,32.5,16.82,52.81-5.08,5.85-3.71,5.89-10.15,1.59-12.9C222.66,78.35,221.65,62,218.72,46.31c12.29,3.12,23.82,3,32.92-7.65,18.68-3.6,40.17-.12,52.16-20.63C315.91,11.88,321-1.82,315-9.95Z" transform="translate(1044.77 513.03)"/><path class="cls-5" d="M328.53-408.49c17.12,1.82,33.56-18.07,42.26-13.44,15.2,8.08,29,14.54,46,14,3.28-.1,6.48-2.49,9.71-3.82q0-9.18,0-18.34c-11.69-9.67-22.15-29.81-37.07-2.09-2.64,4.92-12.87,1.38-18.91-3.7-20.52-17.22-35.32,4.41-52.6,8.7-1.51.37-2.21,8.16-1.55,12.23C317.4-408.21,323-409.08,328.53-408.49Z" transform="translate(1044.77 513.03)"/><path class="cls-5" d="M134.21-157.58l-.26.08.05.18Z" transform="translate(1044.77 513.03)"/><path class="cls-5" d="M293.38-352.64l0-.09c-11.68-16-10-32.44-2.41-49.66,2.33-5.28-1.69-9.85-7.72-11.31-4.76,5.91-11.34,10.48-17.88,5.59-7.22-5.39-1.61-14.77-3-22.23h0A36.59,36.59,0,0,0,283-438l.05,0,5-6.43c.45-3.14.91-6.29,1.36-9.43a9.19,9.19,0,0,1-1.24-4.89L277.77-461a5.82,5.82,0,0,1-4.48,2.13l-5.9,5.3-5.21,5.1-.93,5.38h0l-2.37,0-2.29-.63c-8.94,6.12-18.76,11.46-21.15,23.48-3.46,1.46-6.74,1.75-9.63-.6,3.18,7.83-.83,14-5.49,20-6.33,27.1,8.88,49.72,15.43,74.13-.32,3.39-.65,6.76-1,10.14-9.88,3.05-18.47,7.62-13.51,20,4.67,11.68,12.77,18.41,26.3,12.35-1.57,10-8.35,16.71-15,23.56-3.52,3.63-8.09,7.29-5.49,13.3s8.25,5,13.37,5.53c25.43,2.53,32.72-8.56,24.21-37l.31-.16c-.09-.2-.2-.39-.29-.58,7.28-4.79,15.4-8.81,16.65-18.91-5.82-15.14-21.77-25.88-19.41-44.58,10.89.34,24.73,19.25,31.68-5.05A3.61,3.61,0,0,1,293.38-352.64ZM257-284.27l-.43.33.06-.59c.14,0,.26,0,.4,0Z" transform="translate(1044.77 513.03)"/><path class="cls-5" d="M225.2-422.12l-.42.38a9.92,9.92,0,0,0,1,.95C225.62-421.23,225.43-421.67,225.2-422.12Z" transform="translate(1044.77 513.03)"/><path class="cls-7" d="M391.48,33.18q1,.38,2,.69-1-.32-2-.69L363.29,54.71c-8.42,4.95-16.72,10.38-15.83,21.72,1.71,21.75-6.23,38.71-23.2,52.22C320,132,312.35,137.06,318,143.4c6.32,7.08,13.12.55,18.16-3.83,11.83-10.28,21.35-25.54,34.93-31,25.79-10.38,37.1-29.93,45.64-53.37h0c1.42-1.83,2.85-3.66,4.27-5.5,26.94-7.33,19.91-35.54,33.4-51.86C435.62,15,406.34,11.58,391.48,33.18Z" transform="translate(1044.77 513.03)"/><path class="cls-5" d="M-506.47-136.66c.2.55.38,1.14.54,1.74a27,27,0,0,1,.78,4.8h0c12.45,10.63,22.88,10,30.63-5.53h0c3.69-12.32,9.48-24.72-9.71-30.59-4.88-1.5-9.1-8.23-11.74-13.5-16.81-33.63-23.35-34.5-51.05-5.91h0l-12.84,8.14q5.73,7.86,11.43,15.73c14.26-9.9,21.45-2.54,26.23,10.66v0a29.93,29.93,0,0,1,10.7,6.52A20.78,20.78,0,0,1-506.47-136.66Zm9.25-10.27a12.34,12.34,0,0,0,4.73,5.69,12.44,12.44,0,0,1-4.74-5.7A44.7,44.7,0,0,0-509-164.33,44.79,44.79,0,0,1-497.22-146.93Z" transform="translate(1044.77 513.03)"/><path class="cls-5" d="M216.29-217.18c-11.27-3.19-19.75,5.3-22.17,16.43-2,9.09-11.19,6.87-15.16,12.16-10.89,7.92-21.11,20.33-7.49,29.31,12,7.92,24.79,30.88,44.51,12.43,11.16-10.44,30.08-20.66,11.83-40.53C231.05-200.13,230.72-213.1,216.29-217.18Z" transform="translate(1044.77 513.03)"/><path class="cls-5" d="M372.85-231.84l-.11.09-.1.11Z" transform="translate(1044.77 513.03)"/><path class="cls-5" d="M358.27-252.56c-5.33,2.44-11.3,3.46-17,5.13l-.18.1-10.51,10.7.36,5.77,5.92,4.56a15.51,15.51,0,0,1,4.65.55l5.29-.26,19.95-.65,6-5.09,5.25-5.51-.13,0C380.45-254.08,375.07-260.26,358.27-252.56Z" transform="translate(1044.77 513.03)"/><path class="cls-5" d="M577.18-86.37c-10.81-3.2-14.16,6.79-18.4,14.08-19,17.64,4,43.78-13,62.5-7.21,7.94-.92,16.89,7.79,16.35C561.12,6.1,574-4,569.77-9.66,555.84-28.57,579.56-28.16,581.7-38c8.61-8.2,7.43-18.85,6.07-28.84C586.76-74.3,585.56-83.89,577.18-86.37Z" transform="translate(1044.77 513.03)"/><path class="cls-5" d="M-903.32-297.75l-5.43-3.61.07.1-10.2-6.19-11.31,1.68.52-2.23-5.31.71-10,5.92-5.62,5.73c2.82,13.1,12.32,21.59,19.92,31.85,9.63,13,17.88,18.4,32.3,9.51q2.11-4.84,4.25-9.68c3.43-11.22,2.48-21.82-4.52-31.55A6.51,6.51,0,0,1-903.32-297.75Z" transform="translate(1044.77 513.03)"/><path class="cls-5" d="M257-284.5l0,.23-.43.33.06-.59C256.78-284.53,256.9-284.51,257-284.5Z" transform="translate(1044.77 513.03)"/><path class="cls-5" d="M383.93-310.46l6.71,2.92.61.18,14-2.72c13.17-4.35,5.05-13.59,4.84-21-9.05-1.59-18.68-1-26.55-7.05-6.76,5.41-13.78,10.71-9.37,21.08l6.7,5A3.87,3.87,0,0,1,383.93-310.46Z" transform="translate(1044.77 513.03)"/><path class="cls-5" d="M373.68-14.5c-14.48,2.16-32.25-4-39.84,15.69,28.59,16.82,41.58,16.06,66.5-3.95,3.78,0,5.86-2.44,7.37-5.63,10.48-8.85,11.1-16.15-4.3-17.87C392.06-27.52,380.36-26.57,373.68-14.5Z" transform="translate(1044.77 513.03)"/><path class="cls-5" d="M868.3-111c-14.64-34.66.16-72.86-13-107.7,6.69-.34,9.62,3.86,9.71,9.52C865.44-176.43,872.7-143.91,868.3-111Z" transform="translate(1044.77 513.03)"/><path class="cls-5" d="M-838-184.48a5.38,5.38,0,0,1-2.4-4.41c-1.39-2.16-2.78-4.31-4.16-6.47-6.87-8.62-13.44-4.06-20,.47l-1.68,5.76c5,14.14,12.58,23.39,25.42,23-12.84.43-20.45-8.82-25.43-23-1.47,0-2.93-.08-4.39-.21l.11-.23-5.53,5.4.22-.24-5.51,6c.06,2.6.12,5.21.17,7.81l4.9,6.51,0,0,4.66,5.53.29.39c11,10.44,24.21,7,37,5.69l.73-.7q2.26-2.3,4.54-4.58.11-5.61.23-11.21l-5.88-12.16Zm-2.73,18.3a28.14,28.14,0,0,0,3.09-.28A28.14,28.14,0,0,1-840.72-166.18Z" transform="translate(1044.77 513.03)"/><path class="cls-5" d="M458.13-57.76c-5.34,2.59-10.75,5-16.13,7.55.67,3.84,1.92,6.26,3.57,7.77-1.65-1.51-2.9-3.93-3.57-7.77-11.4,4.92-21.54,15-14.87,25.25,5.3,8.2,18.15-2.72,27.62-4.81,4.19-.92,7.26-6.88,10.83-10.56a14.89,14.89,0,0,0-2.46-.33,14.89,14.89,0,0,1,2.46.33c9-2.75,20.6-6.28,15.31-17.62C476.21-68,465.9-61.53,458.13-57.76ZM449.2-40.53a11,11,0,0,0,1.62.29A11,11,0,0,1,449.2-40.53Z" transform="translate(1044.77 513.03)"/><path class="cls-8" d="M288.14-459v.17l.13,0Z" transform="translate(1044.77 513.03)"/><path class="cls-5" d="M442.45-412.53c4.53-5.19,9.2-10.89,5.45-17.94s-10.22-3.14-15.73-1.89c-1.91.76-3.82,1.53-5.73,2.26q0,9.15.05,18.37C432.34-402,437.93-397.14,442.45-412.53Z" transform="translate(1044.77 513.03)"/><path class="cls-5" d="M699.78-258.38,731.13-263C718.19-278.48,709.38-265.68,699.78-258.38Z" transform="translate(1044.77 513.03)"/><path class="cls-9" d="M-530.13-105.12c-2.3,3.53-7.26,7.89-6.46,10.48,10.28,33.52,0,67.89,4.79,101.53L-537.53,11q-3,3.15-6.08,6.29l-14.76-1c-1.7-3.91-5-5.41-9-5.73-2.92-3.35-5.82-3.32-8.71,0l-14.18.69c-8.33-2.62-12.6,10.06-21.4,5.65l-.18-.24-4.8-5.71c-1.65-2.11-3.31-4.22-4.95-6.33l-4.17-4.67c-11.88-12.62-26.9-20.28-42.53-27l-.16.06L-675-31.28s0,0,0,0c-1.77-1.3-3.55-2.6-5.31-3.91a3.57,3.57,0,0,0-3.62-2.09c-19.75-8.07-17.69-35.16-37.64-43l.16.3L-728-84.42c-1.78-1.28-3.58-2.55-5.35-3.83l-17.24-17.23-3.48-6.71a3.29,3.29,0,0,0-1.57-3.85c.44-3.27-1.24-4.84-4.25-5.37l0,0-5.37-4.63a2,2,0,0,0-2.66-1.5c-2.57-1.68-5.16-3.37-7.74-5-.82-6.85,4-14.06-1.26-20.63l-3.56-5.6c-.06-.12-.13-.22-.19-.33l0,.06c-2-3.2-4-6.42-6.07-9.63l-.12-.23c-1.47-2.11-2.94-4.22-4.41-6.31l.28.26c-5.5-11.67-11.32-23.12-21.12-31.93-.88-3.15-2.86-4.74-6.24-4.32l-6.5-5.7c.59-4.22,1.8-8.62-3-11.41,0,0,0-.1,0-.1-4.43-8.71-12.77-9.9-21.16-11l.23.32c-2.19-1.14-4.39-2.26-6.58-3.39-16.44-10.23-13-28-16.5-43.2-.64-12.84-5.28-22.24-19.87-23.1-28.3-8.09-39.06-33.62-54.38-54.65-16.72-22.94-45-31.08-64.74-50.85-10.61-10.66-20.3-21.11-28.15-33.82-9-14.63-8.36-26,8.35-33.94,5.57-10.33,12.44-13.06,23.57-6.6,23.78,13.81,49.71,17.94,77,21.78,14.21,2,37.5,17.57,36.66,43.07l12,10.17,26.75,7.62c28.61-13.27,40.23-5.86,40,25.47,11.79,16.12,22,34.29,45.67,35,.82,0,2.15.41,2.37,1,11,27.12,49.69,24.69,58.07,54.73,2.75,9.85,12.78,7.26,19.79,9.95,13,5,18.94,23.84,40.59,14.16,8.89-4,15,16.11,7.45,26.71-16,22.6-3.73,30.79,16.17,35.49,27.28,6.43,22.82,36.94,39.74,51q5.72,7.86,11.43,15.72c14.26-9.9,21.44-2.53,26.23,10.67-2.18,2.68-4.37,5.46-6.92,7.34,2.56-1.87,4.74-4.64,6.93-7.32a29.91,29.91,0,0,1,10.69,6.53,20.76,20.76,0,0,1,5,7.9c.19.56.38,1.15.53,1.74a28.13,28.13,0,0,1,.79,4.8h0Z" transform="translate(1044.77 513.03)"/><path class="cls-9" d="M872.56,76.61c2.9-16,1.36-32-.78-48-.94-17.27,5.41-35.36-5.69-51.52l-.59-1.46c-9.37-12.28-2-21.84,5.1-31.45q-.21-8.25-.4-16.52a19.19,19.19,0,0,1-1.53-3.21c-.09-.33.82-.94,1.27-1.42,1.65-11.44,2.21-22.84-1.64-34-14.64-34.66.16-72.86-13-107.7a1.68,1.68,0,0,0-2.58-.91c-2.39-7.28-7.31-10.44-13.49-10.44a22,22,0,0,0-4.9.59c-16.75,3.86-31.77-1-46.63-7.61h0c-5.21-8-14.12-7.28-21.88-9.3a22.61,22.61,0,0,0,1.39,2.4,21,21,0,0,1-1.4-2.4l-.63-.6h0c-4.78-12.76-16.11-10.18-26-11.06h0L731.13-263l-31.35,4.58a2.08,2.08,0,0,0-2.93,1.09,4.17,4.17,0,0,0-.18.63,4.16,4.16,0,0,1,.17-.63c-19.83,5.4-37.29-5.14-55.47-5.75-1.23-11.13,18-14.34,5.83-26.11S623.06-314,604.49-306.53c-11.22,4.48-19.85,13.23-5,24.95,6.09,4.82,13.16,9.57,8.67,19.3-11.15,7.37-13.91,13.1.56,21.23,13.12,7.37,25.84,7.88,39.61,5.28,6.14,12.81-8.41,15.67-11.52,24,0,0-.18.3-.18.3,2.3,8.38,3.2,16.06-8.7,17.29q-.8-2.43-1.73-4.8c-10.32,4.44-12.28,20.42-26.67,19.23C583-188.18,582.92-209,569.64-220c-.64,5.75-3,7.91-8,3.6-13.15-11.36-15.53-26.36-14-42.56,1-10.16,4.87-20.24.57-30.5l-4.86-11.64c-11.42-6.67-27.86,5.34-36.94-10l-6-4.63c-14-1.85-28-2.85-41.94.39a5.28,5.28,0,0,1-3.42,1.56l-7.48,2.61c-7.88,6-19.65,2.74-26.53,11.12-1.4.21-2.8.42-4.19.67-18.44,10-26.7,24.62-21,45.68,13.87,3.59,35-7.27,39.91,12.73,2.94,11.94,10.27,16.6,16.49,24,14.44-11.69,33.18,2,47.89-8.12-1.79,13.71-9.33,19.19-23,16.55-6.44-1.24-13.54-4.67-18.48,3.28l-5.88.16c-9,9.68-13.95,17.11,3.62,24.69C467-175.78,484-172,475.82-150.95c-2.74,7,6.37,16.34,14.55,19.85s12.28-3.91,16.21-9.73L522.24-153c4.64,3.43,10,10.27,13.92,10.27a2.81,2.81,0,0,0,.65-.07c17.71-3.93,27.05-.26,33.85,18.56,2.33,6.46,17,16,31.2,15.32,50.73-2.43,89.93,27,131.68,49.25,4.67,2.49,6,5.16,3.37,10.3-5.58,10.76,2.67,17.69,7.49,25.86,12.27,20.8,31.73,42.18,28.77,65.27C769.63,69.32,783.25,63.35,796,59.82c11.84-3.28,20.47-1.81,28.57,6.64,7.93,8.27,15.5,16.92,23.95,24.62,5.07,4.62,8.12,15.85,18.59,8.54C875.53,93.77,877.49,85.86,872.56,76.61ZM524.8-172.57a15.17,15.17,0,0,0,.5-1.66A14.53,14.53,0,0,1,524.8-172.57Zm102.64-17.84c0,.42-.06.84-.08,1.25h0Zm-.09,1.27c0,2.1.08,4.21.11,6.32C623.15-184.86,623.18-187,627.35-189.14ZM663-200.61c0-.2-.07-.39-.11-.58,0,.19.08.38.12.59s.06.31.1.47C663.05-200.3,663-200.45,663-200.61ZM787.47-237c.18.19.37.37.56.56l-.57-.55-1.39.2ZM814.82,42.32l-.8.29q-1.44.53-2.94,1.11c-1.33.51-2.7,1-4.06,1.52,1.37-.49,2.73-1,4.06-1.52L814,42.6c.27-.1.54-.2.8-.28a16.19,16.19,0,0,1,8.14-.61A16.41,16.41,0,0,0,814.82,42.32Zm8.69-.5a15,15,0,0,1,1.91.54A16.8,16.8,0,0,0,823.51,41.82Zm41.37-25.54a16.62,16.62,0,0,0-1.29-1.93,15.44,15.44,0,0,1,1.29,1.93c.4.67.76,1.39,1.11,2.12C865.64,17.67,865.27,17,864.88,16.28Z" transform="translate(1044.77 513.03)"/><path class="cls-10" d="M224.45-431.83c-9-1.3-17.51-.85-24.7,5.61l-33.4,20.05c-6.95,5-14,7.09-21.34.77-7.08-.26-14.14-.5-21.21-.77-1.62,3.16-3.37,3.18-5.22.21l-5.24-1.39-6.52-3.55a3.46,3.46,0,0,1-3.82-1.44l-6.49-3.26-30.36-2.28c-16-9.05-32-20.09-48.25-.35l-5.57,1.38c-1.5,4.49-3.15,3.77-4.86.12a40.3,40.3,0,0,1-5.27.05c-1.86,1.51-3.71,3-5.57,4.53l-.46.44Q-11.88-401.37-19.92-391a40.34,40.34,0,0,1-4.39.63l-9.92,11.2c2.19,10.56-6.77,17.3-9.07,26.32-2.87-16.75-22.8-18.08-29-31.81-26.06-6.29-16.17-26.21-16.07-42.4l.1.08c-14.44-14.18-24.14-29.08-7.42-48.08q-.66-6.41-1.33-12.82l-2-9.49c-2.84-.67-3.78-2.4-2.89-5.16a9.09,9.09,0,0,1-2-4.14L-114.51-508c-16.7,20.52-30.55.3-45.57-3.2l-15.31,0,0,1.41-.62-1.27a3,3,0,0,1-1.88-1.92l-10.93,6.41c-.06,12.27.62,24.61-.45,36.81-.81,9.42-2.2,19.91-15.64,20.31l-10.4.18-4.93,6.58c-2.33,12.25,13.66,29.5-9.8,36-3.52,8.42-10.59,13.26-17.93,17.84-30.26,25.81-32.74,25.93-50.93,2.25-20.51-12.79-39.79-16.1-57.76,5.11a16.53,16.53,0,0,1-19.25,4.17c-5.05,1.07-11.71.45-14.88,3.47-14.59,14-27.13,8.34-39.78-2.35-17.92-11.48-24.48-31.69-36.62-47.6l-1.1-1-11.34-1.76c-.08,1.3-.15,2.6-.2,3.9l-5.82.23-4.93,2s-1.55,1.07-1.55,1.1a9.48,9.48,0,0,1,.2,1c-3.95,9.54-7.64,19.2-11.89,28.62-9.25,20.49-30.94,41.22,2,60.42,1.74,1,3.19,5,2.64,7.07-6.75,24.63,10.28,34.24,27.13,44.55,9.84,6,16.8,11.49,11.74,27.2-11.55,35.85,9.56,59.63,46.18,56.45,8-.71,20.19-7,23.65,3.83,9.58,30,29.73,16.56,46.86,12.6,8.34-1.92,18.24-10.17,24.36-3.28,10.58,11.94,23.48,10.6,36.13,11.36,14.54.87,24.31,5.42,22.22,21.94-1.95,15.39,5.34,16.49,17,12,8.15-3.17,16.81-5.41,22.9-12.41,8.07,1.38,14.19-4,22.85-7.39,0,5.45,0,9.65,0,13.84.05,7-.56,15.71,6.7,18.53,8.86,3.44,14.49-5.23,19.09-10.76,15.41-18.52,9.22-36.32-3.84-53.24-.42,1-.87,2-1.36,2.91a37.71,37.71,0,0,1-2.35,4,41,41,0,0,1-2.7,3.52,43.08,43.08,0,0,0,2.7-3.52,41.5,41.5,0,0,0,2.35-4q.72-1.4,1.35-2.91c13.78-14.13,28.32-28,13.43-49.91-4.68-6.89-.83-13.07,5-15.11,40.39-14,52.9-44.21,50.22-83.68l-.42.49.4-.81c0,.11,0,.21,0,.32l3.84-4.42c11.83-28.32,35-10.31,53.08-13l7.41.64a.52.52,0,0,1,0-.11l5.93,5.39c-16.51,31.75-20.28,68-35.16,100.3h0c-14.21,9.3-10.62,23.37-9.84,36.69,22.44-10,30.17.52,30.25,21.69,6.59,13.23,4.16,25.5-4,37.14l-6.78,20.81c.46,2,.93,4.08,1.39,6.11l5.24,4.72.16.12L-50-115.1l-.22-.33c17.58-10.26,40.25,7.84,56.45-10.1.21-3,.43-5.95.63-8.92A31.91,31.91,0,0,1,2.6-135.7c-1.09-8.26-8-16.41-8-24.69,0-4.27,1.85-8.59,7.3-13,.21-3.34.43-6.69.64-10q.18-13.23.38-26.48-.74-10.78-1.47-21.6c-1.14,0-2.27.05-3.41.08,1.14,0,2.27-.07,3.41-.09q-2.33-7.5-4.69-15h0C27-247.09,27-247.09,11.94-210l11.57,21.12c1.72.4,3.43.85,5.12,1.37,22.52,5.06,8.76,18.64,6.91,29.42l9,11.81,9.64.72,11-.58c1.21,6.46,4.24,9.84,9.23,9.84A16.59,16.59,0,0,0,80-137.46c14-5.06,10.72,5.82,11.76,12.71-.84,13.73,6.92,12.61,16,9.25l5.54-4.36,5.58-4.92.2-.22,4.83-5.69-.13.09c3.26-9-5.45-22.64,10.15-26.91q-3-10.59-6-21.2c1.53-1.59,3.07-3.19,4.62-4.78-1.06-3.53-2.1-7.07-3.15-10.59l-21,2.9L96.12-208.34l-.18.26c-12.58-.42-16.27-6.72-12-18.24,6-3.37,10.25-7.67,8.3-15.34-5.36-1.75-8.57-5.66-10.72-10.63l-8.85-9.93a71.48,71.48,0,0,1-6,4.55c2.07-1.49,4.14-3,6-4.57-17-23.43-13.74-28.84,20.19-34.21q-.08,6.06-.13,12.11l5,1.9a3.77,3.77,0,0,1,4.53,1.52l6.23-1.34,4.56-2.65a2.39,2.39,0,0,0-.12.22c6.56-5.07,14-4.57,21.61-3.58l5.39-1.24q5-5.43,10.11-10.85c.18-3.43.37-6.84.55-10.27l-2.6-.21-2.51.64h0l-4.72-2.5c-6.75.76-6.12-4.19-6.51-8.38,1.68-.52,3.38-1,5.08-1.33,1.09-3.21,2.16-6.42,3.24-9.64l-7.78-10.52-15.82-1.12c-16.53,7.28-33.5,13.8-51.8,12.74-17-1-25.33,13.14-38.11,19.36-3.63-7.12-3.72-18.49-16.93-14.15C7.31-337.47-9.59-340.77-9-356.42c.38-9.58-.55-19.43,11.4-23.17h0L145.68-365c10.3-.12,21.19,3.78,30.29-4.48a15,15,0,0,1,1.4-4.62c1.58-.29,3.15-.63,4.69-1.06l25.41-26.22c.36-11.45,8.78-16,17.29-20.47C224.67-425.2,224.56-428.51,224.45-431.83Zm-714.32,38.51.84-1.44-.83,1.44-1.52,2.69Zm-.67,45.07c.84.71,1.74,1.4,2.71,2.11C-488.8-346.84-489.7-347.54-490.54-348.25Zm42,63a19.92,19.92,0,0,1,1.69,2.24A22.28,22.28,0,0,0-448.57-285.28Zm4.73,17.9c-.11.93-.26,1.89-.44,2.91.18-1,.32-2,.44-2.91.73-6.4-.29-11.06-2.53-14.85C-444.13-278.45-443.1-273.79-443.84-267.38Zm17.75,56a37.34,37.34,0,0,1-9.1-3.53,38.17,38.17,0,0,0,9.1,3.53c1.14.29,2.32.55,3.55.78C-423.77-210.78-424.95-211-426.09-211.33Zm354-35.25a11,11,0,0,1,1.6,2.11A11.71,11.71,0,0,0-72-246.58Zm24,16.75a4.5,4.5,0,0,1,2-.26A4.83,4.83,0,0,0-48-229.83Zm156.66,41.66a11.68,11.68,0,0,0-.15-2.32A10.93,10.93,0,0,1,108.63-188.17ZM124-321.22c-1.35-.11-2.68-.19-4-.18C121.32-321.41,122.66-321.33,124-321.22Zm-15.48,8.36c-.22.74-.42,1.55-.6,2.41h0C108.09-311.31,108.29-312.12,108.52-312.86ZM31.65-292.44a4.1,4.1,0,0,1-.62.53A6.6,6.6,0,0,0,31.65-292.44ZM-3.22-256.82c2.9-.69,5.78-1.42,8.67-2.13-2.89.71-5.77,1.45-8.67,2.14Z" transform="translate(1044.77 513.03)"/><path class="cls-11" d="M158.1,28.82c-13.42,12.62-21.58,34.41-46.86,26.45-2.93-.92-7.43-.08-10,1.68C69.42,78.28,35.9,70.58,2.36,63.41c-6.88,12.82-13.27,26.14-30.24,28.1q-3.64-2.72-7.25-5.45c-.82,1.86-1.64,3.72-2.44,5.57l-1,.52c-5.38,3-10.76,5.12-16-.31-.55-3.37-1.08-6.75-1.61-10.12.29-4-1.83-6.25-5.46-7.38l-4.13-3.09-6.47-5-10-6.9c-4.09-6.33-10.37-1.88-15.49-3.12-.08,3.18-.18,6.37-.26,9.56-10,16-19.58,2.92-28.43-1.12C-160,49.34-194.75,59.37-228.57,61.4c-36.85,2.19-69.38-9.87-102.85-20.65-12.26-4-23.7-1.06-35.49,3.12C-388,51.32-448.35,37.45-460,23.33c2.79-3.33,6.38-8-.14-9.66-13.64-3.52-27.68-6.37-41.52-.09l-13-7.23q-2-7-4-14.06l6.07-6.28,5.75-4.11c14.32,5.19,12.62-12.59,21.6-15h0c-1.71-28.44,14.56-22.55,31-16.27l20.88-1.85c23.81-.88,48.37,1.4,66.56,16.44C-343.35-15.53-299.76-15-280-38c7-8.1,11.66-12.38,25.48-4.21,15.84,9.39,35.95,18,56.94,12.12l5.77.87a4.08,4.08,0,0,1,2.67,2.72,21.78,21.78,0,0,0,2.23,4.64c-5.22,13.87,4.82,18.87,14.12,24.3,12.32,9,26.07,5.25,39,3.27,15.57-2.38,25.42,2.46,30,17.61,3.44-1.58,6.87-3.16,10.32-4.73,25.57.63,50.82-21.77,77.11,1,10.39,9,17.56,15.27,6,26.94-5,5-12.7,8.9-6.58,16.81,5.86,7.55,12.81-1.14,19.39-.81,8.12-11.19,1-30.89,20.12-36a3.26,3.26,0,0,1,1.85-3.52l13.71,1.42h0c6,1.76,12.1,3.63,17.4-1.78C65.75,18.9,77.22,17.94,84,7.05c4-6.46,14.18-9.88,18.63-5.69,16.83,15.88,26.15,3.29,36.64-8.43,9,7.8-3.62,31,20,27.17C161,19.82,161,26.1,158.1,28.82Z" transform="translate(1044.77 513.03)"/><path class="cls-9" d="M402.6-151.95c-2.87,10.86-11.53,19-20.4,12.35-33.64-25.15-73.12-22.81-111.29-27.28-11,2.24-21.79,3.51-12.29-12.88,8.42-14.55,17.91-27.62,38.65-24.82,23.22,3.13,47-1.48,70.18,5.5C391.34-191.89,403-176.7,402.6-151.95Z" transform="translate(1044.77 513.03)"/><path class="cls-9" d="M328.53-408.49c17.12,1.82,33.56-18.07,42.26-13.44,15.2,8.08,29,14.54,46,14,3.28-.1,6.48-2.49,9.71-3.82q0-9.18,0-18.34c-11.69-9.67-22.15-29.81-37.07-2.09-2.64,4.92-12.87,1.38-18.91-3.7-20.52-17.22-35.32,4.41-52.6,8.7-1.51.37-2.21,8.16-1.55,12.23C317.4-408.21,323-409.08,328.53-408.49Z" transform="translate(1044.77 513.03)"/><path class="cls-9" d="M134.21-157.58l-.26.08.05.18Z" transform="translate(1044.77 513.03)"/><path class="cls-9" d="M293.38-352.64l0-.09c-11.68-16-10-32.44-2.41-49.66,2.33-5.28-1.69-9.85-7.72-11.31-4.76,5.91-11.34,10.48-17.88,5.59-7.22-5.39-1.61-14.77-3-22.23h0A36.59,36.59,0,0,0,283-438l.05,0,5-6.43c.45-3.14.91-6.29,1.36-9.43a9.19,9.19,0,0,1-1.24-4.89L277.77-461a5.82,5.82,0,0,1-4.48,2.13l-5.9,5.3-5.21,5.1-.93,5.38h0l-2.37,0-2.29-.63c-8.94,6.12-18.76,11.46-21.15,23.48-3.46,1.46-6.74,1.75-9.63-.6,3.18,7.83-.83,14-5.49,20-6.33,27.1,8.88,49.72,15.43,74.13-.32,3.39-.65,6.76-1,10.14-9.88,3.05-18.47,7.62-13.51,20,4.67,11.68,12.77,18.41,26.3,12.35-1.57,10-8.35,16.71-15,23.56-3.52,3.63-8.09,7.29-5.49,13.3s8.25,5,13.37,5.53c25.43,2.53,32.72-8.56,24.21-37l.31-.16c-.09-.2-.2-.39-.29-.58,7.28-4.79,15.4-8.81,16.65-18.91-5.82-15.14-21.77-25.88-19.41-44.58,10.89.34,24.73,19.25,31.68-5.05A3.61,3.61,0,0,1,293.38-352.64ZM257-284.27l-.43.33.06-.59c.14,0,.26,0,.4,0Z" transform="translate(1044.77 513.03)"/><path class="cls-9" d="M225.2-422.12l-.42.38a9.92,9.92,0,0,0,1,.95C225.62-421.23,225.43-421.67,225.2-422.12Z" transform="translate(1044.77 513.03)"/><path class="cls-9" d="M-506.47-136.66c.2.55.38,1.14.54,1.74a27,27,0,0,1,.78,4.8h0c12.45,10.63,22.88,10,30.63-5.53h0c3.69-12.32,9.48-24.72-9.71-30.59-4.88-1.5-9.1-8.23-11.74-13.5-16.81-33.63-23.35-34.5-51.05-5.91h0l-12.84,8.14q5.73,7.86,11.43,15.73c14.26-9.9,21.45-2.54,26.23,10.66v0a29.93,29.93,0,0,1,10.7,6.52A20.78,20.78,0,0,1-506.47-136.66Zm9.25-10.27a12.34,12.34,0,0,0,4.73,5.69,12.44,12.44,0,0,1-4.74-5.7A44.7,44.7,0,0,0-509-164.33,44.79,44.79,0,0,1-497.22-146.93Z" transform="translate(1044.77 513.03)"/><path class="cls-9" d="M216.29-217.18c-11.27-3.19-19.75,5.3-22.17,16.43-2,9.09-11.19,6.87-15.16,12.16-10.89,7.92-21.11,20.33-7.49,29.31,12,7.92,24.79,30.88,44.51,12.43,11.16-10.44,30.08-20.66,11.83-40.53C231.05-200.13,230.72-213.1,216.29-217.18Z" transform="translate(1044.77 513.03)"/><path class="cls-9" d="M372.85-231.84l-.11.09-.1.11Z" transform="translate(1044.77 513.03)"/><path class="cls-9" d="M358.27-252.56c-5.33,2.44-11.3,3.46-17,5.13l-.18.1-10.51,10.7.36,5.77,5.92,4.56a15.51,15.51,0,0,1,4.65.55l5.29-.26,19.95-.65,6-5.09,5.25-5.51-.13,0C380.45-254.08,375.07-260.26,358.27-252.56Z" transform="translate(1044.77 513.03)"/><path class="cls-9" d="M577.18-86.37c-10.81-3.2-14.16,6.79-18.4,14.08-19,17.64,4,43.78-13,62.5-7.21,7.94-.92,16.89,7.79,16.35C561.12,6.1,574-4,569.77-9.66,555.84-28.57,579.56-28.16,581.7-38c8.61-8.2,7.43-18.85,6.07-28.84C586.76-74.3,585.56-83.89,577.18-86.37Z" transform="translate(1044.77 513.03)"/><path class="cls-9" d="M-903.32-297.75l-5.43-3.61.07.1-10.2-6.19-11.31,1.68.52-2.23-5.31.71-10,5.92-5.62,5.73c2.82,13.1,12.32,21.59,19.92,31.85,9.63,13,17.88,18.4,32.3,9.51q2.11-4.84,4.25-9.68c3.43-11.22,2.48-21.82-4.52-31.55A6.51,6.51,0,0,1-903.32-297.75Z" transform="translate(1044.77 513.03)"/><path class="cls-9" d="M257-284.5l0,.23-.43.33.06-.59C256.78-284.53,256.9-284.51,257-284.5Z" transform="translate(1044.77 513.03)"/><path class="cls-9" d="M383.93-310.46l6.71,2.92.61.18,14-2.72c13.17-4.35,5.05-13.59,4.84-21-9.05-1.59-18.68-1-26.55-7.05-6.76,5.41-13.78,10.71-9.37,21.08l6.7,5A3.87,3.87,0,0,1,383.93-310.46Z" transform="translate(1044.77 513.03)"/><path class="cls-9" d="M373.68-14.5c-14.48,2.16-32.25-4-39.84,15.69,28.59,16.82,41.58,16.06,66.5-3.95,3.78,0,5.86-2.44,7.37-5.63,10.48-8.85,11.1-16.15-4.3-17.87C392.06-27.52,380.36-26.57,373.68-14.5Z" transform="translate(1044.77 513.03)"/><path class="cls-9" d="M868.3-111c-14.64-34.66.16-72.86-13-107.7,6.69-.34,9.62,3.86,9.71,9.52C865.44-176.43,872.7-143.91,868.3-111Z" transform="translate(1044.77 513.03)"/><path class="cls-9" d="M-838-184.48a5.38,5.38,0,0,1-2.4-4.41c-1.39-2.16-2.78-4.31-4.16-6.47-6.87-8.62-13.44-4.06-20,.47l-1.68,5.76c5,14.14,12.58,23.39,25.42,23-12.84.43-20.45-8.82-25.43-23-1.47,0-2.93-.08-4.39-.21l.11-.23-5.53,5.4.22-.24-5.51,6c.06,2.6.12,5.21.17,7.81l4.9,6.51,0,0,4.66,5.53.29.39c11,10.44,24.21,7,37,5.69l.73-.7q2.26-2.3,4.54-4.58.11-5.61.23-11.21l-5.88-12.16Zm-2.73,18.3a28.14,28.14,0,0,0,3.09-.28A28.14,28.14,0,0,1-840.72-166.18Z" transform="translate(1044.77 513.03)"/><path class="cls-9" d="M458.13-57.76c-5.34,2.59-10.75,5-16.13,7.55.67,3.84,1.92,6.26,3.57,7.77-1.65-1.51-2.9-3.93-3.57-7.77-11.4,4.92-21.54,15-14.87,25.25,5.3,8.2,18.15-2.72,27.62-4.81,4.19-.92,7.26-6.88,10.83-10.56a14.89,14.89,0,0,0-2.46-.33,14.89,14.89,0,0,1,2.46.33c9-2.75,20.6-6.28,15.31-17.62C476.21-68,465.9-61.53,458.13-57.76ZM449.2-40.53a11,11,0,0,0,1.62.29A11,11,0,0,1,449.2-40.53Z" transform="translate(1044.77 513.03)"/><path class="cls-9" d="M288.14-459v.17l.13,0Z" transform="translate(1044.77 513.03)"/><path class="cls-9" d="M442.45-412.53c4.53-5.19,9.2-10.89,5.45-17.94s-10.22-3.14-15.73-1.89c-1.91.76-3.82,1.53-5.73,2.26q0,9.15.05,18.37C432.34-402,437.93-397.14,442.45-412.53Z" transform="translate(1044.77 513.03)"/><path class="cls-9" d="M699.78-258.38,731.13-263C718.19-278.48,709.38-265.68,699.78-258.38Z" transform="translate(1044.77 513.03)"/></g><g class="cls-12"><path class="cls-2" d="M0,356.37c4.12-.59,8.05-4.12,10.48-10.14,7.25-18,14.67-36,21.16-54.39,20.15-57,54.75-97.83,104-124.31,27.42-14.76,52.72-33.46,73-60.38,21.06-28,35.91-59.9,50.64-92.07,3.48-7.61,6.49-16.7,16.08-14.83C306.46,6.31,336.13,16,360.65,40.31c19.26,19.13,38.49,38.42,58.79,56.1,5.18,4.51,10.49,13.72,15.95,17,20.46,12.4,43,16.24,68.13,10.69,18.48-4.07,37.06-7.87,55.74-10.32,50.4-6.62,61.13.35,73.69,49,8.35,32.33,25.17,56.68,50.53,75.59,38.7,28.87,79.65,52.89,120.62,77,20.5,12.06,72.17,41.46,73.14,40.91Z" transform="translate(1044.77 513.03)"/><path id="SVGID-2" data-name="SVGID" class="cls-2" d="M0,356.37c4.12-.59,8.05-4.12,10.48-10.14,7.25-18,14.67-36,21.16-54.39,20.15-57,54.75-97.83,104-124.31,27.42-14.76,52.72-33.46,73-60.38,21.06-28,35.91-59.9,50.64-92.07,3.48-7.61,6.49-16.7,16.08-14.83C306.46,6.31,336.13,16,360.65,40.31c19.26,19.13,38.49,38.42,58.79,56.1,5.18,4.51,10.49,13.72,15.95,17,20.46,12.4,43,16.24,68.13,10.69,18.48-4.07,37.06-7.87,55.74-10.32,50.4-6.62,61.13.35,73.69,49,8.35,32.33,25.17,56.68,50.53,75.59,38.7,28.87,79.65,52.89,120.62,77,20.5,12.06,72.17,41.46,73.14,40.91Z" transform="translate(1044.77 513.03)"/><g class="cls-13"><path class="cls-2" d="M-530.13-105.12c-2.3,3.53-7.26,7.89-6.46,10.48,10.28,33.52,0,67.89,4.79,101.53L-537.53,11q-3,3.15-6.08,6.29l-14.76-1c-1.7-3.91-5-5.41-9-5.73-2.92-3.35-5.82-3.32-8.71,0l-14.18.69c-8.33-2.62-12.6,10.06-21.4,5.65l-.18-.24-4.8-5.71c-1.65-2.11-3.31-4.22-4.95-6.33l-4.17-4.67c-11.88-12.62-26.9-20.28-42.53-27l-.16.06L-675-31.28s0,0,0,0c-1.77-1.3-3.55-2.6-5.31-3.91a3.57,3.57,0,0,0-3.62-2.09c-19.75-8.07-17.69-35.16-37.64-43l.16.3L-728-84.42c-1.78-1.28-3.58-2.55-5.35-3.83l-17.24-17.23-3.48-6.71a3.29,3.29,0,0,0-1.57-3.85c.44-3.27-1.24-4.84-4.25-5.37l0,0-5.37-4.63a2,2,0,0,0-2.66-1.5c-2.57-1.68-5.16-3.37-7.74-5-.82-6.85,4-14.06-1.26-20.63l-3.56-5.6c-.06-.12-.13-.22-.19-.33l0,.06c-2-3.2-4-6.42-6.07-9.63l-.12-.23c-1.47-2.11-2.94-4.22-4.41-6.31l.28.26c-5.5-11.67-11.32-23.12-21.12-31.93-.88-3.15-2.86-4.74-6.24-4.32l-6.5-5.7c.59-4.22,1.8-8.62-3-11.41,0,0,0-.1,0-.1-4.43-8.71-12.77-9.9-21.16-11l.23.32c-2.19-1.14-4.39-2.26-6.58-3.39-16.44-10.23-13-28-16.5-43.2-.64-12.84-5.28-22.24-19.87-23.1-28.3-8.09-39.06-33.62-54.38-54.65-16.72-22.94-45-31.08-64.74-50.85-10.61-10.66-20.3-21.11-28.15-33.82-9-14.63-8.36-26,8.35-33.94,5.57-10.33,12.44-13.06,23.57-6.6,23.78,13.81,49.71,17.94,77,21.78,14.21,2,37.5,17.57,36.66,43.07l12,10.17,26.75,7.62c28.61-13.27,40.23-5.86,40,25.47,11.79,16.12,22,34.29,45.67,35,.82,0,2.15.41,2.37,1,11,27.12,49.69,24.69,58.07,54.73,2.75,9.85,12.78,7.26,19.79,9.95,13,5,18.94,23.84,40.59,14.16,8.89-4,15,16.11,7.45,26.71-16,22.6-3.73,30.79,16.17,35.49,27.28,6.43,22.82,36.94,39.74,51q5.72,7.86,11.43,15.72c14.26-9.9,21.44-2.53,26.23,10.67-2.18,2.68-4.37,5.46-6.92,7.34,2.56-1.87,4.74-4.64,6.93-7.32a29.91,29.91,0,0,1,10.69,6.53,20.76,20.76,0,0,1,5,7.9c.19.56.38,1.15.53,1.74a28.13,28.13,0,0,1,.79,4.8h0Z" transform="translate(1044.77 513.03)"/><path class="cls-2" d="M872.56,76.61c2.9-16,1.36-32-.78-48-.94-17.27,5.41-35.36-5.69-51.52l-.59-1.46c-9.37-12.28-2-21.84,5.1-31.45q-.21-8.25-.4-16.52a19.19,19.19,0,0,1-1.53-3.21c-.09-.33.82-.94,1.27-1.42,1.65-11.44,2.21-22.84-1.64-34-14.64-34.66.16-72.86-13-107.7a1.68,1.68,0,0,0-2.58-.91c-2.39-7.28-7.31-10.44-13.49-10.44a22,22,0,0,0-4.9.59c-16.75,3.86-31.77-1-46.63-7.61h0c-5.21-8-14.12-7.28-21.88-9.3a22.61,22.61,0,0,0,1.39,2.4,21,21,0,0,1-1.4-2.4l-.63-.6h0c-4.78-12.76-16.11-10.18-26-11.06h0L731.13-263l-31.35,4.58a2.08,2.08,0,0,0-2.93,1.09,4.17,4.17,0,0,0-.18.63,4.16,4.16,0,0,1,.17-.63c-19.83,5.4-37.29-5.14-55.47-5.75-1.23-11.13,18-14.34,5.83-26.11S623.06-314,604.49-306.53c-11.22,4.48-19.85,13.23-5,24.95,6.09,4.82,13.16,9.57,8.67,19.3-11.15,7.37-13.91,13.1.56,21.23,13.12,7.37,25.84,7.88,39.61,5.28,6.14,12.81-8.41,15.67-11.52,24,0,0-.18.3-.18.3,2.3,8.38,3.2,16.06-8.7,17.29q-.8-2.43-1.73-4.8c-10.32,4.44-12.28,20.42-26.67,19.23C583-188.18,582.92-209,569.64-220c-.64,5.75-3,7.91-8,3.6-13.15-11.36-15.53-26.36-14-42.56,1-10.16,4.87-20.24.57-30.5l-4.86-11.64c-11.42-6.67-27.86,5.34-36.94-10l-6-4.63c-14-1.85-28-2.85-41.94.39a5.28,5.28,0,0,1-3.42,1.56l-7.48,2.61c-7.88,6-19.65,2.74-26.53,11.12-1.4.21-2.8.42-4.19.67-18.44,10-26.7,24.62-21,45.68,13.87,3.59,35-7.27,39.91,12.73,2.94,11.94,10.27,16.6,16.49,24,14.44-11.69,33.18,2,47.89-8.12-1.79,13.71-9.33,19.19-23,16.55-6.44-1.24-13.54-4.67-18.48,3.28l-5.88.16c-9,9.68-13.95,17.11,3.62,24.69C467-175.78,484-172,475.82-150.95c-2.74,7,6.37,16.34,14.55,19.85s12.28-3.91,16.21-9.73L522.24-153c4.64,3.43,10,10.27,13.92,10.27a2.81,2.81,0,0,0,.65-.07c17.71-3.93,27.05-.26,33.85,18.56,2.33,6.46,17,16,31.2,15.32,50.73-2.43,89.93,27,131.68,49.25,4.67,2.49,6,5.16,3.37,10.3-5.58,10.76,2.67,17.69,7.49,25.86,12.27,20.8,31.73,42.18,28.77,65.27C769.63,69.32,783.25,63.35,796,59.82c11.84-3.28,20.47-1.81,28.57,6.64,7.93,8.27,15.5,16.92,23.95,24.62,5.07,4.62,8.12,15.85,18.59,8.54C875.53,93.77,877.49,85.86,872.56,76.61ZM524.8-172.57a15.17,15.17,0,0,0,.5-1.66A14.53,14.53,0,0,1,524.8-172.57Zm102.64-17.84c0,.42-.06.84-.08,1.25h0Zm-.09,1.27c0,2.1.08,4.21.11,6.32C623.15-184.86,623.18-187,627.35-189.14ZM663-200.61c0-.2-.07-.39-.11-.58,0,.19.08.38.12.59s.06.31.1.47C663.05-200.3,663-200.45,663-200.61ZM787.47-237c.18.19.37.37.56.56l-.57-.55-1.39.2ZM814.82,42.32l-.8.29q-1.44.53-2.94,1.11c-1.33.51-2.7,1-4.06,1.52,1.37-.49,2.73-1,4.06-1.52L814,42.6c.27-.1.54-.2.8-.28a16.19,16.19,0,0,1,8.14-.61A16.41,16.41,0,0,0,814.82,42.32Zm8.69-.5a15,15,0,0,1,1.91.54A16.8,16.8,0,0,0,823.51,41.82Zm41.37-25.54a16.62,16.62,0,0,0-1.29-1.93,15.44,15.44,0,0,1,1.29,1.93c.4.67.76,1.39,1.11,2.12C865.64,17.67,865.27,17,864.88,16.28Z" transform="translate(1044.77 513.03)"/><path class="cls-2" d="M224.45-431.83c-9-1.3-17.51-.85-24.7,5.61l-33.4,20.05c-6.95,5-14,7.09-21.34.77-7.08-.26-14.14-.5-21.21-.77-1.62,3.16-3.37,3.18-5.22.21l-5.24-1.39-6.52-3.55a3.46,3.46,0,0,1-3.82-1.44l-6.49-3.26-30.36-2.28c-16-9.05-32-20.09-48.25-.35l-5.57,1.38c-1.5,4.49-3.15,3.77-4.86.12a40.3,40.3,0,0,1-5.27.05c-1.86,1.51-3.71,3-5.57,4.53l-.46.44Q-11.88-401.37-19.92-391a40.34,40.34,0,0,1-4.39.63l-9.92,11.2c2.19,10.56-6.77,17.3-9.07,26.32-2.87-16.75-22.8-18.08-29-31.81-26.06-6.29-16.17-26.21-16.07-42.4l.1.08c-14.44-14.18-24.14-29.08-7.42-48.08q-.66-6.41-1.33-12.82l-2-9.49c-2.84-.67-3.78-2.4-2.89-5.16a9.09,9.09,0,0,1-2-4.14L-114.51-508c-16.7,20.52-30.55.3-45.57-3.2l-15.31,0,0,1.41-.62-1.27a3,3,0,0,1-1.88-1.92l-10.93,6.41c-.06,12.27.62,24.61-.45,36.81-.81,9.42-2.2,19.91-15.64,20.31l-10.4.18-4.93,6.58c-2.33,12.25,13.66,29.5-9.8,36-3.52,8.42-10.59,13.26-17.93,17.84-30.26,25.81-32.74,25.93-50.93,2.25-20.51-12.79-39.79-16.1-57.76,5.11a16.53,16.53,0,0,1-19.25,4.17c-5.05,1.07-11.71.45-14.88,3.47-14.59,14-27.13,8.34-39.78-2.35-17.92-11.48-24.48-31.69-36.62-47.6l-1.1-1-11.34-1.76c-.08,1.3-.15,2.6-.2,3.9l-5.82.23-4.93,2s-1.55,1.07-1.55,1.1a9.48,9.48,0,0,1,.2,1c-3.95,9.54-7.64,19.2-11.89,28.62-9.25,20.49-30.94,41.22,2,60.42,1.74,1,3.19,5,2.64,7.07-6.75,24.63,10.28,34.24,27.13,44.55,9.84,6,16.8,11.49,11.74,27.2-11.55,35.85,9.56,59.63,46.18,56.45,8-.71,20.19-7,23.65,3.83,9.58,30,29.73,16.56,46.86,12.6,8.34-1.92,18.24-10.17,24.36-3.28,10.58,11.94,23.48,10.6,36.13,11.36,14.54.87,24.31,5.42,22.22,21.94-1.95,15.39,5.34,16.49,17,12,8.15-3.17,16.81-5.41,22.9-12.41,8.07,1.38,14.19-4,22.85-7.39,0,5.45,0,9.65,0,13.84.05,7-.56,15.71,6.7,18.53,8.86,3.44,14.49-5.23,19.09-10.76,15.41-18.52,9.22-36.32-3.84-53.24-.42,1-.87,2-1.36,2.91a37.71,37.71,0,0,1-2.35,4,41,41,0,0,1-2.7,3.52,43.08,43.08,0,0,0,2.7-3.52,41.5,41.5,0,0,0,2.35-4q.72-1.4,1.35-2.91c13.78-14.13,28.32-28,13.43-49.91-4.68-6.89-.83-13.07,5-15.11,40.39-14,52.9-44.21,50.22-83.68l-.42.49.4-.81c0,.11,0,.21,0,.32l3.84-4.42c11.83-28.32,35-10.31,53.08-13l7.41.64a.52.52,0,0,1,0-.11l5.93,5.39c-16.51,31.75-20.28,68-35.16,100.3h0c-14.21,9.3-10.62,23.37-9.84,36.69,22.44-10,30.17.52,30.25,21.69,6.59,13.23,4.16,25.5-4,37.14l-6.78,20.81c.46,2,.93,4.08,1.39,6.11l5.24,4.72.16.12L-50-115.1l-.22-.33c17.58-10.26,40.25,7.84,56.45-10.1.21-3,.43-5.95.63-8.92A31.91,31.91,0,0,1,2.6-135.7c-1.09-8.26-8-16.41-8-24.69,0-4.27,1.85-8.59,7.3-13,.21-3.34.43-6.69.64-10q.18-13.23.38-26.48-.74-10.78-1.47-21.6c-1.14,0-2.27.05-3.41.08,1.14,0,2.27-.07,3.41-.09q-2.33-7.5-4.69-15h0C27-247.09,27-247.09,11.94-210l11.57,21.12c1.72.4,3.43.85,5.12,1.37,22.52,5.06,8.76,18.64,6.91,29.42l9,11.81,9.64.72,11-.58c1.21,6.46,4.24,9.84,9.23,9.84A16.59,16.59,0,0,0,80-137.46c14-5.06,10.72,5.82,11.76,12.71-.84,13.73,6.92,12.61,16,9.25l5.54-4.36,5.58-4.92.2-.22,4.83-5.69-.13.09c3.26-9-5.45-22.64,10.15-26.91q-3-10.59-6-21.2c1.53-1.59,3.07-3.19,4.62-4.78-1.06-3.53-2.1-7.07-3.15-10.59l-21,2.9L96.12-208.34l-.18.26c-12.58-.42-16.27-6.72-12-18.24,6-3.37,10.25-7.67,8.3-15.34-5.36-1.75-8.57-5.66-10.72-10.63l-8.85-9.93a71.48,71.48,0,0,1-6,4.55c2.07-1.49,4.14-3,6-4.57-17-23.43-13.74-28.84,20.19-34.21q-.08,6.06-.13,12.11l5,1.9a3.77,3.77,0,0,1,4.53,1.52l6.23-1.34,4.56-2.65a2.39,2.39,0,0,0-.12.22c6.56-5.07,14-4.57,21.61-3.58l5.39-1.24q5-5.43,10.11-10.85c.18-3.43.37-6.84.55-10.27l-2.6-.21-2.51.64h0l-4.72-2.5c-6.75.76-6.12-4.19-6.51-8.38,1.68-.52,3.38-1,5.08-1.33,1.09-3.21,2.16-6.42,3.24-9.64l-7.78-10.52-15.82-1.12c-16.53,7.28-33.5,13.8-51.8,12.74-17-1-25.33,13.14-38.11,19.36-3.63-7.12-3.72-18.49-16.93-14.15C7.31-337.47-9.59-340.77-9-356.42c.38-9.58-.55-19.43,11.4-23.17h0L145.68-365c10.3-.12,21.19,3.78,30.29-4.48a15,15,0,0,1,1.4-4.62c1.58-.29,3.15-.63,4.69-1.06l25.41-26.22c.36-11.45,8.78-16,17.29-20.47C224.67-425.2,224.56-428.51,224.45-431.83Zm-714.32,38.51.84-1.44-.83,1.44-1.52,2.69Zm-.67,45.07c.84.71,1.74,1.4,2.71,2.11C-488.8-346.84-489.7-347.54-490.54-348.25Zm42,63a19.92,19.92,0,0,1,1.69,2.24A22.28,22.28,0,0,0-448.57-285.28Zm4.73,17.9c-.11.93-.26,1.89-.44,2.91.18-1,.32-2,.44-2.91.73-6.4-.29-11.06-2.53-14.85C-444.13-278.45-443.1-273.79-443.84-267.38Zm17.75,56a37.34,37.34,0,0,1-9.1-3.53,38.17,38.17,0,0,0,9.1,3.53c1.14.29,2.32.55,3.55.78C-423.77-210.78-424.95-211-426.09-211.33Zm354-35.25a11,11,0,0,1,1.6,2.11A11.71,11.71,0,0,0-72-246.58Zm24,16.75a4.5,4.5,0,0,1,2-.26A4.83,4.83,0,0,0-48-229.83Zm156.66,41.66a11.68,11.68,0,0,0-.15-2.32A10.93,10.93,0,0,1,108.63-188.17ZM124-321.22c-1.35-.11-2.68-.19-4-.18C121.32-321.41,122.66-321.33,124-321.22Zm-15.48,8.36c-.22.74-.42,1.55-.6,2.41h0C108.09-311.31,108.29-312.12,108.52-312.86ZM31.65-292.44a4.1,4.1,0,0,1-.62.53A6.6,6.6,0,0,0,31.65-292.44ZM-3.22-256.82c2.9-.69,5.78-1.42,8.67-2.13-2.89.71-5.77,1.45-8.67,2.14Z" transform="translate(1044.77 513.03)"/><path class="cls-2" d="M158.1,28.82c-13.42,12.62-21.58,34.41-46.86,26.45-2.93-.92-7.43-.08-10,1.68C69.42,78.28,35.9,70.58,2.36,63.41c-6.88,12.82-13.27,26.14-30.24,28.1q-3.64-2.72-7.25-5.45c-.82,1.86-1.64,3.72-2.44,5.57l-1,.52c-5.38,3-10.76,5.12-16-.31-.55-3.37-1.08-6.75-1.61-10.12.29-4-1.83-6.25-5.46-7.38l-4.13-3.09-6.47-5-10-6.9c-4.09-6.33-10.37-1.88-15.49-3.12-.08,3.18-.18,6.37-.26,9.56-10,16-19.58,2.92-28.43-1.12C-160,49.34-194.75,59.37-228.57,61.4c-36.85,2.19-69.38-9.87-102.85-20.65-12.26-4-23.7-1.06-35.49,3.12C-388,51.32-448.35,37.45-460,23.33c2.79-3.33,6.38-8-.14-9.66-13.64-3.52-27.68-6.37-41.52-.09l-13-7.23q-2-7-4-14.06l6.07-6.28,5.75-4.11c14.32,5.19,12.62-12.59,21.6-15h0c-1.71-28.44,14.56-22.55,31-16.27l20.88-1.85c23.81-.88,48.37,1.4,66.56,16.44C-343.35-15.53-299.76-15-280-38c7-8.1,11.66-12.38,25.48-4.21,15.84,9.39,35.95,18,56.94,12.12l5.77.87a4.08,4.08,0,0,1,2.67,2.72,21.78,21.78,0,0,0,2.23,4.64c-5.22,13.87,4.82,18.87,14.12,24.3,12.32,9,26.07,5.25,39,3.27,15.57-2.38,25.42,2.46,30,17.61,3.44-1.58,6.87-3.16,10.32-4.73,25.57.63,50.82-21.77,77.11,1,10.39,9,17.56,15.27,6,26.94-5,5-12.7,8.9-6.58,16.81,5.86,7.55,12.81-1.14,19.39-.81,8.12-11.19,1-30.89,20.12-36a3.26,3.26,0,0,1,1.85-3.52l13.71,1.42h0c6,1.76,12.1,3.63,17.4-1.78C65.75,18.9,77.22,17.94,84,7.05c4-6.46,14.18-9.88,18.63-5.69,16.83,15.88,26.15,3.29,36.64-8.43,9,7.8-3.62,31,20,27.17C161,19.82,161,26.1,158.1,28.82Z" transform="translate(1044.77 513.03)"/><path class="cls-2" d="M402.6-151.95c-2.87,10.86-11.53,19-20.4,12.35-33.64-25.15-73.12-22.81-111.29-27.28-11,2.24-21.79,3.51-12.29-12.88,8.42-14.55,17.91-27.62,38.65-24.82,23.22,3.13,47-1.48,70.18,5.5C391.34-191.89,403-176.7,402.6-151.95Z" transform="translate(1044.77 513.03)"/><path class="cls-2" d="M315-9.95c-7.41-10-15.65,4.19-23.42,8-15.13,7.3-30.73,21-47.36,9.82C218.88-9.25,200.9,1.34,182.7,18.24c2.93,3,4.31,7.27,7.06,10.17-2.75-2.9-4.13-7.14-7.06-10.17-9.39,5.55-15,15-8.77,23.56,7,9.69,19-.3,28.68,1.49-1.63,11.38-5.9,19.31-19.72,17.39-10.49-1.45-20.68-.5-27.07,10-6.9,4.46-13.8,9.54-10,19,3,7.63,10.39,9.22,17.87,7.68,9.29-1.9,14.46,3.72,20.46,9.2,19.88,18.21,32.5,16.82,52.81-5.08,5.85-3.71,5.89-10.15,1.59-12.9C222.66,78.35,221.65,62,218.72,46.31c12.29,3.12,23.82,3,32.92-7.65,18.68-3.6,40.17-.12,52.16-20.63C315.91,11.88,321-1.82,315-9.95Z" transform="translate(1044.77 513.03)"/><path class="cls-2" d="M328.53-408.49c17.12,1.82,33.56-18.07,42.26-13.44,15.2,8.08,29,14.54,46,14,3.28-.1,6.48-2.49,9.71-3.82q0-9.18,0-18.34c-11.69-9.67-22.15-29.81-37.07-2.09-2.64,4.92-12.87,1.38-18.91-3.7-20.52-17.22-35.32,4.41-52.6,8.7-1.51.37-2.21,8.16-1.55,12.23C317.4-408.21,323-409.08,328.53-408.49Z" transform="translate(1044.77 513.03)"/><path class="cls-2" d="M134.21-157.58l-.26.08.05.18Z" transform="translate(1044.77 513.03)"/><path class="cls-2" d="M293.38-352.64l0-.09c-11.68-16-10-32.44-2.41-49.66,2.33-5.28-1.69-9.85-7.72-11.31-4.76,5.91-11.34,10.48-17.88,5.59-7.22-5.39-1.61-14.77-3-22.23h0A36.59,36.59,0,0,0,283-438l.05,0,5-6.43c.45-3.14.91-6.29,1.36-9.43a9.19,9.19,0,0,1-1.24-4.89L277.77-461a5.82,5.82,0,0,1-4.48,2.13l-5.9,5.3-5.21,5.1-.93,5.38h0l-2.37,0-2.29-.63c-8.94,6.12-18.76,11.46-21.15,23.48-3.46,1.46-6.74,1.75-9.63-.6,3.18,7.83-.83,14-5.49,20-6.33,27.1,8.88,49.72,15.43,74.13-.32,3.39-.65,6.76-1,10.14-9.88,3.05-18.47,7.62-13.51,20,4.67,11.68,12.77,18.41,26.3,12.35-1.57,10-8.35,16.71-15,23.56-3.52,3.63-8.09,7.29-5.49,13.3s8.25,5,13.37,5.53c25.43,2.53,32.72-8.56,24.21-37l.31-.16c-.09-.2-.2-.39-.29-.58,7.28-4.79,15.4-8.81,16.65-18.91-5.82-15.14-21.77-25.88-19.41-44.58,10.89.34,24.73,19.25,31.68-5.05A3.61,3.61,0,0,1,293.38-352.64ZM257-284.27l-.43.33.06-.59c.14,0,.26,0,.4,0Z" transform="translate(1044.77 513.03)"/><path class="cls-2" d="M225.2-422.12l-.42.38a9.92,9.92,0,0,0,1,.95C225.62-421.23,225.43-421.67,225.2-422.12Z" transform="translate(1044.77 513.03)"/><path class="cls-2" d="M391.48,33.18q1,.38,2,.69-1-.32-2-.69L363.29,54.71c-8.42,4.95-16.72,10.38-15.83,21.72,1.71,21.75-6.23,38.71-23.2,52.22C320,132,312.35,137.06,318,143.4c6.32,7.08,13.12.55,18.16-3.83,11.83-10.28,21.35-25.54,34.93-31,25.79-10.38,37.1-29.93,45.64-53.37h0c1.42-1.83,2.85-3.66,4.27-5.5,26.94-7.33,19.91-35.54,33.4-51.86C435.62,15,406.34,11.58,391.48,33.18Z" transform="translate(1044.77 513.03)"/><path class="cls-2" d="M-506.47-136.66c.2.55.38,1.14.54,1.74a27,27,0,0,1,.78,4.8h0c12.45,10.63,22.88,10,30.63-5.53h0c3.69-12.32,9.48-24.72-9.71-30.59-4.88-1.5-9.1-8.23-11.74-13.5-16.81-33.63-23.35-34.5-51.05-5.91h0l-12.84,8.14q5.73,7.86,11.43,15.73c14.26-9.9,21.45-2.54,26.23,10.66v0a29.93,29.93,0,0,1,10.7,6.52A20.78,20.78,0,0,1-506.47-136.66Zm9.25-10.27a12.34,12.34,0,0,0,4.73,5.69,12.44,12.44,0,0,1-4.74-5.7A44.7,44.7,0,0,0-509-164.33,44.79,44.79,0,0,1-497.22-146.93Z" transform="translate(1044.77 513.03)"/><path class="cls-2" d="M216.29-217.18c-11.27-3.19-19.75,5.3-22.17,16.43-2,9.09-11.19,6.87-15.16,12.16-10.89,7.92-21.11,20.33-7.49,29.31,12,7.92,24.79,30.88,44.51,12.43,11.16-10.44,30.08-20.66,11.83-40.53C231.05-200.13,230.72-213.1,216.29-217.18Z" transform="translate(1044.77 513.03)"/><path class="cls-2" d="M372.85-231.84l-.11.09-.1.11Z" transform="translate(1044.77 513.03)"/><path class="cls-2" d="M358.27-252.56c-5.33,2.44-11.3,3.46-17,5.13l-.18.1-10.51,10.7.36,5.77,5.92,4.56a15.51,15.51,0,0,1,4.65.55l5.29-.26,19.95-.65,6-5.09,5.25-5.51-.13,0C380.45-254.08,375.07-260.26,358.27-252.56Z" transform="translate(1044.77 513.03)"/><path class="cls-2" d="M577.18-86.37c-10.81-3.2-14.16,6.79-18.4,14.08-19,17.64,4,43.78-13,62.5-7.21,7.94-.92,16.89,7.79,16.35C561.12,6.1,574-4,569.77-9.66,555.84-28.57,579.56-28.16,581.7-38c8.61-8.2,7.43-18.85,6.07-28.84C586.76-74.3,585.56-83.89,577.18-86.37Z" transform="translate(1044.77 513.03)"/><path class="cls-2" d="M-903.32-297.75l-5.43-3.61.07.1-10.2-6.19-11.31,1.68.52-2.23-5.31.71-10,5.92-5.62,5.73c2.82,13.1,12.32,21.59,19.92,31.85,9.63,13,17.88,18.4,32.3,9.51q2.11-4.84,4.25-9.68c3.43-11.22,2.48-21.82-4.52-31.55A6.51,6.51,0,0,1-903.32-297.75Z" transform="translate(1044.77 513.03)"/><path class="cls-2" d="M257-284.5l0,.23-.43.33.06-.59C256.78-284.53,256.9-284.51,257-284.5Z" transform="translate(1044.77 513.03)"/><path class="cls-2" d="M383.93-310.46l6.71,2.92.61.18,14-2.72c13.17-4.35,5.05-13.59,4.84-21-9.05-1.59-18.68-1-26.55-7.05-6.76,5.41-13.78,10.71-9.37,21.08l6.7,5A3.87,3.87,0,0,1,383.93-310.46Z" transform="translate(1044.77 513.03)"/><path class="cls-2" d="M373.68-14.5c-14.48,2.16-32.25-4-39.84,15.69,28.59,16.82,41.58,16.06,66.5-3.95,3.78,0,5.86-2.44,7.37-5.63,10.48-8.85,11.1-16.15-4.3-17.87C392.06-27.52,380.36-26.57,373.68-14.5Z" transform="translate(1044.77 513.03)"/><path class="cls-2" d="M868.3-111c-14.64-34.66.16-72.86-13-107.7,6.69-.34,9.62,3.86,9.71,9.52C865.44-176.43,872.7-143.91,868.3-111Z" transform="translate(1044.77 513.03)"/><path class="cls-2" d="M-838-184.48a5.38,5.38,0,0,1-2.4-4.41c-1.39-2.16-2.78-4.31-4.16-6.47-6.87-8.62-13.44-4.06-20,.47l-1.68,5.76c5,14.14,12.58,23.39,25.42,23-12.84.43-20.45-8.82-25.43-23-1.47,0-2.93-.08-4.39-.21l.11-.23-5.53,5.4.22-.24-5.51,6c.06,2.6.12,5.21.17,7.81l4.9,6.51,0,0,4.66,5.53.29.39c11,10.44,24.21,7,37,5.69l.73-.7q2.26-2.3,4.54-4.58.11-5.61.23-11.21l-5.88-12.16Zm-2.73,18.3a28.14,28.14,0,0,0,3.09-.28A28.14,28.14,0,0,1-840.72-166.18Z" transform="translate(1044.77 513.03)"/><path class="cls-2" d="M458.13-57.76c-5.34,2.59-10.75,5-16.13,7.55.67,3.84,1.92,6.26,3.57,7.77-1.65-1.51-2.9-3.93-3.57-7.77-11.4,4.92-21.54,15-14.87,25.25,5.3,8.2,18.15-2.72,27.62-4.81,4.19-.92,7.26-6.88,10.83-10.56a14.89,14.89,0,0,0-2.46-.33,14.89,14.89,0,0,1,2.46.33c9-2.75,20.6-6.28,15.31-17.62C476.21-68,465.9-61.53,458.13-57.76ZM449.2-40.53a11,11,0,0,0,1.62.29A11,11,0,0,1,449.2-40.53Z" transform="translate(1044.77 513.03)"/><path class="cls-2" d="M288.14-459v.17l.13,0Z" transform="translate(1044.77 513.03)"/><path class="cls-2" d="M442.45-412.53c4.53-5.19,9.2-10.89,5.45-17.94s-10.22-3.14-15.73-1.89c-1.91.76-3.82,1.53-5.73,2.26q0,9.15.05,18.37C432.34-402,437.93-397.14,442.45-412.53Z" transform="translate(1044.77 513.03)"/><path class="cls-2" d="M699.78-258.38,731.13-263C718.19-278.48,709.38-265.68,699.78-258.38Z" transform="translate(1044.77 513.03)"/><path class="cls-2" d="M-530.13-105.12c-2.3,3.53-7.26,7.89-6.46,10.48,10.28,33.52,0,67.89,4.79,101.53L-537.53,11q-3,3.15-6.08,6.29l-14.76-1c-1.7-3.91-5-5.41-9-5.73-2.92-3.35-5.82-3.32-8.71,0l-14.18.69c-8.33-2.62-12.6,10.06-21.4,5.65l-.18-.24-4.8-5.71c-1.65-2.11-3.31-4.22-4.95-6.33l-4.17-4.67c-11.88-12.62-26.9-20.28-42.53-27l-.16.06L-675-31.28s0,0,0,0c-1.77-1.3-3.55-2.6-5.31-3.91a3.57,3.57,0,0,0-3.62-2.09c-19.75-8.07-17.69-35.16-37.64-43l.16.3L-728-84.42c-1.78-1.28-3.58-2.55-5.35-3.83l-17.24-17.23-3.48-6.71a3.29,3.29,0,0,0-1.57-3.85c.44-3.27-1.24-4.84-4.25-5.37l0,0-5.37-4.63a2,2,0,0,0-2.66-1.5c-2.57-1.68-5.16-3.37-7.74-5-.82-6.85,4-14.06-1.26-20.63l-3.56-5.6c-.06-.12-.13-.22-.19-.33l0,.06c-2-3.2-4-6.42-6.07-9.63l-.12-.23c-1.47-2.11-2.94-4.22-4.41-6.31l.28.26c-5.5-11.67-11.32-23.12-21.12-31.93-.88-3.15-2.86-4.74-6.24-4.32l-6.5-5.7c.59-4.22,1.8-8.62-3-11.41,0,0,0-.1,0-.1-4.43-8.71-12.77-9.9-21.16-11l.23.32c-2.19-1.14-4.39-2.26-6.58-3.39-16.44-10.23-13-28-16.5-43.2-.64-12.84-5.28-22.24-19.87-23.1-28.3-8.09-39.06-33.62-54.38-54.65-16.72-22.94-45-31.08-64.74-50.85-10.61-10.66-20.3-21.11-28.15-33.82-9-14.63-8.36-26,8.35-33.94,5.57-10.33,12.44-13.06,23.57-6.6,23.78,13.81,49.71,17.94,77,21.78,14.21,2,37.5,17.57,36.66,43.07l12,10.17,26.75,7.62c28.61-13.27,40.23-5.86,40,25.47,11.79,16.12,22,34.29,45.67,35,.82,0,2.15.41,2.37,1,11,27.12,49.69,24.69,58.07,54.73,2.75,9.85,12.78,7.26,19.79,9.95,13,5,18.94,23.84,40.59,14.16,8.89-4,15,16.11,7.45,26.71-16,22.6-3.73,30.79,16.17,35.49,27.28,6.43,22.82,36.94,39.74,51q5.72,7.86,11.43,15.72c14.26-9.9,21.44-2.53,26.23,10.67-2.18,2.68-4.37,5.46-6.92,7.34,2.56-1.87,4.74-4.64,6.93-7.32a29.91,29.91,0,0,1,10.69,6.53,20.76,20.76,0,0,1,5,7.9c.19.56.38,1.15.53,1.74a28.13,28.13,0,0,1,.79,4.8h0Z" transform="translate(1044.77 513.03)"/><path class="cls-2" d="M872.56,76.61c2.9-16,1.36-32-.78-48-.94-17.27,5.41-35.36-5.69-51.52l-.59-1.46c-9.37-12.28-2-21.84,5.1-31.45q-.21-8.25-.4-16.52a19.19,19.19,0,0,1-1.53-3.21c-.09-.33.82-.94,1.27-1.42,1.65-11.44,2.21-22.84-1.64-34-14.64-34.66.16-72.86-13-107.7a1.68,1.68,0,0,0-2.58-.91c-2.39-7.28-7.31-10.44-13.49-10.44a22,22,0,0,0-4.9.59c-16.75,3.86-31.77-1-46.63-7.61h0c-5.21-8-14.12-7.28-21.88-9.3a22.61,22.61,0,0,0,1.39,2.4,21,21,0,0,1-1.4-2.4l-.63-.6h0c-4.78-12.76-16.11-10.18-26-11.06h0L731.13-263l-31.35,4.58a2.08,2.08,0,0,0-2.93,1.09,4.17,4.17,0,0,0-.18.63,4.16,4.16,0,0,1,.17-.63c-19.83,5.4-37.29-5.14-55.47-5.75-1.23-11.13,18-14.34,5.83-26.11S623.06-314,604.49-306.53c-11.22,4.48-19.85,13.23-5,24.95,6.09,4.82,13.16,9.57,8.67,19.3-11.15,7.37-13.91,13.1.56,21.23,13.12,7.37,25.84,7.88,39.61,5.28,6.14,12.81-8.41,15.67-11.52,24,0,0-.18.3-.18.3,2.3,8.38,3.2,16.06-8.7,17.29q-.8-2.43-1.73-4.8c-10.32,4.44-12.28,20.42-26.67,19.23C583-188.18,582.92-209,569.64-220c-.64,5.75-3,7.91-8,3.6-13.15-11.36-15.53-26.36-14-42.56,1-10.16,4.87-20.24.57-30.5l-4.86-11.64c-11.42-6.67-27.86,5.34-36.94-10l-6-4.63c-14-1.85-28-2.85-41.94.39a5.28,5.28,0,0,1-3.42,1.56l-7.48,2.61c-7.88,6-19.65,2.74-26.53,11.12-1.4.21-2.8.42-4.19.67-18.44,10-26.7,24.62-21,45.68,13.87,3.59,35-7.27,39.91,12.73,2.94,11.94,10.27,16.6,16.49,24,14.44-11.69,33.18,2,47.89-8.12-1.79,13.71-9.33,19.19-23,16.55-6.44-1.24-13.54-4.67-18.48,3.28l-5.88.16c-9,9.68-13.95,17.11,3.62,24.69C467-175.78,484-172,475.82-150.95c-2.74,7,6.37,16.34,14.55,19.85s12.28-3.91,16.21-9.73L522.24-153c4.64,3.43,10,10.27,13.92,10.27a2.81,2.81,0,0,0,.65-.07c17.71-3.93,27.05-.26,33.85,18.56,2.33,6.46,17,16,31.2,15.32,50.73-2.43,89.93,27,131.68,49.25,4.67,2.49,6,5.16,3.37,10.3-5.58,10.76,2.67,17.69,7.49,25.86,12.27,20.8,31.73,42.18,28.77,65.27C769.63,69.32,783.25,63.35,796,59.82c11.84-3.28,20.47-1.81,28.57,6.64,7.93,8.27,15.5,16.92,23.95,24.62,5.07,4.62,8.12,15.85,18.59,8.54C875.53,93.77,877.49,85.86,872.56,76.61ZM524.8-172.57a15.17,15.17,0,0,0,.5-1.66A14.53,14.53,0,0,1,524.8-172.57Zm102.64-17.84c0,.42-.06.84-.08,1.25h0Zm-.09,1.27c0,2.1.08,4.21.11,6.32C623.15-184.86,623.18-187,627.35-189.14ZM663-200.61c0-.2-.07-.39-.11-.58,0,.19.08.38.12.59s.06.31.1.47C663.05-200.3,663-200.45,663-200.61ZM787.47-237c.18.19.37.37.56.56l-.57-.55-1.39.2ZM814.82,42.32l-.8.29q-1.44.53-2.94,1.11c-1.33.51-2.7,1-4.06,1.52,1.37-.49,2.73-1,4.06-1.52L814,42.6c.27-.1.54-.2.8-.28a16.19,16.19,0,0,1,8.14-.61A16.41,16.41,0,0,0,814.82,42.32Zm8.69-.5a15,15,0,0,1,1.91.54A16.8,16.8,0,0,0,823.51,41.82Zm41.37-25.54a16.62,16.62,0,0,0-1.29-1.93,15.44,15.44,0,0,1,1.29,1.93c.4.67.76,1.39,1.11,2.12C865.64,17.67,865.27,17,864.88,16.28Z" transform="translate(1044.77 513.03)"/><path class="cls-2" d="M224.45-431.83c-9-1.3-17.51-.85-24.7,5.61l-33.4,20.05c-6.95,5-14,7.09-21.34.77-7.08-.26-14.14-.5-21.21-.77-1.62,3.16-3.37,3.18-5.22.21l-5.24-1.39-6.52-3.55a3.46,3.46,0,0,1-3.82-1.44l-6.49-3.26-30.36-2.28c-16-9.05-32-20.09-48.25-.35l-5.57,1.38c-1.5,4.49-3.15,3.77-4.86.12a40.3,40.3,0,0,1-5.27.05c-1.86,1.51-3.71,3-5.57,4.53l-.46.44Q-11.88-401.37-19.92-391a40.34,40.34,0,0,1-4.39.63l-9.92,11.2c2.19,10.56-6.77,17.3-9.07,26.32-2.87-16.75-22.8-18.08-29-31.81-26.06-6.29-16.17-26.21-16.07-42.4l.1.08c-14.44-14.18-24.14-29.08-7.42-48.08q-.66-6.41-1.33-12.82l-2-9.49c-2.84-.67-3.78-2.4-2.89-5.16a9.09,9.09,0,0,1-2-4.14L-114.51-508c-16.7,20.52-30.55.3-45.57-3.2l-15.31,0,0,1.41-.62-1.27a3,3,0,0,1-1.88-1.92l-10.93,6.41c-.06,12.27.62,24.61-.45,36.81-.81,9.42-2.2,19.91-15.64,20.31l-10.4.18-4.93,6.58c-2.33,12.25,13.66,29.5-9.8,36-3.52,8.42-10.59,13.26-17.93,17.84-30.26,25.81-32.74,25.93-50.93,2.25-20.51-12.79-39.79-16.1-57.76,5.11a16.53,16.53,0,0,1-19.25,4.17c-5.05,1.07-11.71.45-14.88,3.47-14.59,14-27.13,8.34-39.78-2.35-17.92-11.48-24.48-31.69-36.62-47.6l-1.1-1-11.34-1.76c-.08,1.3-.15,2.6-.2,3.9l-5.82.23-4.93,2s-1.55,1.07-1.55,1.1a9.48,9.48,0,0,1,.2,1c-3.95,9.54-7.64,19.2-11.89,28.62-9.25,20.49-30.94,41.22,2,60.42,1.74,1,3.19,5,2.64,7.07-6.75,24.63,10.28,34.24,27.13,44.55,9.84,6,16.8,11.49,11.74,27.2-11.55,35.85,9.56,59.63,46.18,56.45,8-.71,20.19-7,23.65,3.83,9.58,30,29.73,16.56,46.86,12.6,8.34-1.92,18.24-10.17,24.36-3.28,10.58,11.94,23.48,10.6,36.13,11.36,14.54.87,24.31,5.42,22.22,21.94-1.95,15.39,5.34,16.49,17,12,8.15-3.17,16.81-5.41,22.9-12.41,8.07,1.38,14.19-4,22.85-7.39,0,5.45,0,9.65,0,13.84.05,7-.56,15.71,6.7,18.53,8.86,3.44,14.49-5.23,19.09-10.76,15.41-18.52,9.22-36.32-3.84-53.24-.42,1-.87,2-1.36,2.91a37.71,37.71,0,0,1-2.35,4,41,41,0,0,1-2.7,3.52,43.08,43.08,0,0,0,2.7-3.52,41.5,41.5,0,0,0,2.35-4q.72-1.4,1.35-2.91c13.78-14.13,28.32-28,13.43-49.91-4.68-6.89-.83-13.07,5-15.11,40.39-14,52.9-44.21,50.22-83.68l-.42.49.4-.81c0,.11,0,.21,0,.32l3.84-4.42c11.83-28.32,35-10.31,53.08-13l7.41.64a.52.52,0,0,1,0-.11l5.93,5.39c-16.51,31.75-20.28,68-35.16,100.3h0c-14.21,9.3-10.62,23.37-9.84,36.69,22.44-10,30.17.52,30.25,21.69,6.59,13.23,4.16,25.5-4,37.14l-6.78,20.81c.46,2,.93,4.08,1.39,6.11l5.24,4.72.16.12L-50-115.1l-.22-.33c17.58-10.26,40.25,7.84,56.45-10.1.21-3,.43-5.95.63-8.92A31.91,31.91,0,0,1,2.6-135.7c-1.09-8.26-8-16.41-8-24.69,0-4.27,1.85-8.59,7.3-13,.21-3.34.43-6.69.64-10q.18-13.23.38-26.48-.74-10.78-1.47-21.6c-1.14,0-2.27.05-3.41.08,1.14,0,2.27-.07,3.41-.09q-2.33-7.5-4.69-15h0C27-247.09,27-247.09,11.94-210l11.57,21.12c1.72.4,3.43.85,5.12,1.37,22.52,5.06,8.76,18.64,6.91,29.42l9,11.81,9.64.72,11-.58c1.21,6.46,4.24,9.84,9.23,9.84A16.59,16.59,0,0,0,80-137.46c14-5.06,10.72,5.82,11.76,12.71-.84,13.73,6.92,12.61,16,9.25l5.54-4.36,5.58-4.92.2-.22,4.83-5.69-.13.09c3.26-9-5.45-22.64,10.15-26.91q-3-10.59-6-21.2c1.53-1.59,3.07-3.19,4.62-4.78-1.06-3.53-2.1-7.07-3.15-10.59l-21,2.9L96.12-208.34l-.18.26c-12.58-.42-16.27-6.72-12-18.24,6-3.37,10.25-7.67,8.3-15.34-5.36-1.75-8.57-5.66-10.72-10.63l-8.85-9.93a71.48,71.48,0,0,1-6,4.55c2.07-1.49,4.14-3,6-4.57-17-23.43-13.74-28.84,20.19-34.21q-.08,6.06-.13,12.11l5,1.9a3.77,3.77,0,0,1,4.53,1.52l6.23-1.34,4.56-2.65a2.39,2.39,0,0,0-.12.22c6.56-5.07,14-4.57,21.61-3.58l5.39-1.24q5-5.43,10.11-10.85c.18-3.43.37-6.84.55-10.27l-2.6-.21-2.51.64h0l-4.72-2.5c-6.75.76-6.12-4.19-6.51-8.38,1.68-.52,3.38-1,5.08-1.33,1.09-3.21,2.16-6.42,3.24-9.64l-7.78-10.52-15.82-1.12c-16.53,7.28-33.5,13.8-51.8,12.74-17-1-25.33,13.14-38.11,19.36-3.63-7.12-3.72-18.49-16.93-14.15C7.31-337.47-9.59-340.77-9-356.42c.38-9.58-.55-19.43,11.4-23.17h0L145.68-365c10.3-.12,21.19,3.78,30.29-4.48a15,15,0,0,1,1.4-4.62c1.58-.29,3.15-.63,4.69-1.06l25.41-26.22c.36-11.45,8.78-16,17.29-20.47C224.67-425.2,224.56-428.51,224.45-431.83Zm-714.32,38.51.84-1.44-.83,1.44-1.52,2.69Zm-.67,45.07c.84.71,1.74,1.4,2.71,2.11C-488.8-346.84-489.7-347.54-490.54-348.25Zm42,63a19.92,19.92,0,0,1,1.69,2.24A22.28,22.28,0,0,0-448.57-285.28Zm4.73,17.9c-.11.93-.26,1.89-.44,2.91.18-1,.32-2,.44-2.91.73-6.4-.29-11.06-2.53-14.85C-444.13-278.45-443.1-273.79-443.84-267.38Zm17.75,56a37.34,37.34,0,0,1-9.1-3.53,38.17,38.17,0,0,0,9.1,3.53c1.14.29,2.32.55,3.55.78C-423.77-210.78-424.95-211-426.09-211.33Zm354-35.25a11,11,0,0,1,1.6,2.11A11.71,11.71,0,0,0-72-246.58Zm24,16.75a4.5,4.5,0,0,1,2-.26A4.83,4.83,0,0,0-48-229.83Zm156.66,41.66a11.68,11.68,0,0,0-.15-2.32A10.93,10.93,0,0,1,108.63-188.17ZM124-321.22c-1.35-.11-2.68-.19-4-.18C121.32-321.41,122.66-321.33,124-321.22Zm-15.48,8.36c-.22.74-.42,1.55-.6,2.41h0C108.09-311.31,108.29-312.12,108.52-312.86ZM31.65-292.44a4.1,4.1,0,0,1-.62.53A6.6,6.6,0,0,0,31.65-292.44ZM-3.22-256.82c2.9-.69,5.78-1.42,8.67-2.13-2.89.71-5.77,1.45-8.67,2.14Z" transform="translate(1044.77 513.03)"/><path class="cls-2" d="M158.1,28.82c-13.42,12.62-21.58,34.41-46.86,26.45-2.93-.92-7.43-.08-10,1.68C69.42,78.28,35.9,70.58,2.36,63.41c-6.88,12.82-13.27,26.14-30.24,28.1q-3.64-2.72-7.25-5.45c-.82,1.86-1.64,3.72-2.44,5.57l-1,.52c-5.38,3-10.76,5.12-16-.31-.55-3.37-1.08-6.75-1.61-10.12.29-4-1.83-6.25-5.46-7.38l-4.13-3.09-6.47-5-10-6.9c-4.09-6.33-10.37-1.88-15.49-3.12-.08,3.18-.18,6.37-.26,9.56-10,16-19.58,2.92-28.43-1.12C-160,49.34-194.75,59.37-228.57,61.4c-36.85,2.19-69.38-9.87-102.85-20.65-12.26-4-23.7-1.06-35.49,3.12C-388,51.32-448.35,37.45-460,23.33c2.79-3.33,6.38-8-.14-9.66-13.64-3.52-27.68-6.37-41.52-.09l-13-7.23q-2-7-4-14.06l6.07-6.28,5.75-4.11c14.32,5.19,12.62-12.59,21.6-15h0c-1.71-28.44,14.56-22.55,31-16.27l20.88-1.85c23.81-.88,48.37,1.4,66.56,16.44C-343.35-15.53-299.76-15-280-38c7-8.1,11.66-12.38,25.48-4.21,15.84,9.39,35.95,18,56.94,12.12l5.77.87a4.08,4.08,0,0,1,2.67,2.72,21.78,21.78,0,0,0,2.23,4.64c-5.22,13.87,4.82,18.87,14.12,24.3,12.32,9,26.07,5.25,39,3.27,15.57-2.38,25.42,2.46,30,17.61,3.44-1.58,6.87-3.16,10.32-4.73,25.57.63,50.82-21.77,77.11,1,10.39,9,17.56,15.27,6,26.94-5,5-12.7,8.9-6.58,16.81,5.86,7.55,12.81-1.14,19.39-.81,8.12-11.19,1-30.89,20.12-36a3.26,3.26,0,0,1,1.85-3.52l13.71,1.42h0c6,1.76,12.1,3.63,17.4-1.78C65.75,18.9,77.22,17.94,84,7.05c4-6.46,14.18-9.88,18.63-5.69,16.83,15.88,26.15,3.29,36.64-8.43,9,7.8-3.62,31,20,27.17C161,19.82,161,26.1,158.1,28.82Z" transform="translate(1044.77 513.03)"/><path class="cls-2" d="M402.6-151.95c-2.87,10.86-11.53,19-20.4,12.35-33.64-25.15-73.12-22.81-111.29-27.28-11,2.24-21.79,3.51-12.29-12.88,8.42-14.55,17.91-27.62,38.65-24.82,23.22,3.13,47-1.48,70.18,5.5C391.34-191.89,403-176.7,402.6-151.95Z" transform="translate(1044.77 513.03)"/><path class="cls-2" d="M328.53-408.49c17.12,1.82,33.56-18.07,42.26-13.44,15.2,8.08,29,14.54,46,14,3.28-.1,6.48-2.49,9.71-3.82q0-9.18,0-18.34c-11.69-9.67-22.15-29.81-37.07-2.09-2.64,4.92-12.87,1.38-18.91-3.7-20.52-17.22-35.32,4.41-52.6,8.7-1.51.37-2.21,8.16-1.55,12.23C317.4-408.21,323-409.08,328.53-408.49Z" transform="translate(1044.77 513.03)"/><path class="cls-2" d="M134.21-157.58l-.26.08.05.18Z" transform="translate(1044.77 513.03)"/><path class="cls-2" d="M293.38-352.64l0-.09c-11.68-16-10-32.44-2.41-49.66,2.33-5.28-1.69-9.85-7.72-11.31-4.76,5.91-11.34,10.48-17.88,5.59-7.22-5.39-1.61-14.77-3-22.23h0A36.59,36.59,0,0,0,283-438l.05,0,5-6.43c.45-3.14.91-6.29,1.36-9.43a9.19,9.19,0,0,1-1.24-4.89L277.77-461a5.82,5.82,0,0,1-4.48,2.13l-5.9,5.3-5.21,5.1-.93,5.38h0l-2.37,0-2.29-.63c-8.94,6.12-18.76,11.46-21.15,23.48-3.46,1.46-6.74,1.75-9.63-.6,3.18,7.83-.83,14-5.49,20-6.33,27.1,8.88,49.72,15.43,74.13-.32,3.39-.65,6.76-1,10.14-9.88,3.05-18.47,7.62-13.51,20,4.67,11.68,12.77,18.41,26.3,12.35-1.57,10-8.35,16.71-15,23.56-3.52,3.63-8.09,7.29-5.49,13.3s8.25,5,13.37,5.53c25.43,2.53,32.72-8.56,24.21-37l.31-.16c-.09-.2-.2-.39-.29-.58,7.28-4.79,15.4-8.81,16.65-18.91-5.82-15.14-21.77-25.88-19.41-44.58,10.89.34,24.73,19.25,31.68-5.05A3.61,3.61,0,0,1,293.38-352.64ZM257-284.27l-.43.33.06-.59c.14,0,.26,0,.4,0Z" transform="translate(1044.77 513.03)"/><path class="cls-2" d="M225.2-422.12l-.42.38a9.92,9.92,0,0,0,1,.95C225.62-421.23,225.43-421.67,225.2-422.12Z" transform="translate(1044.77 513.03)"/><path class="cls-2" d="M-506.47-136.66c.2.55.38,1.14.54,1.74a27,27,0,0,1,.78,4.8h0c12.45,10.63,22.88,10,30.63-5.53h0c3.69-12.32,9.48-24.72-9.71-30.59-4.88-1.5-9.1-8.23-11.74-13.5-16.81-33.63-23.35-34.5-51.05-5.91h0l-12.84,8.14q5.73,7.86,11.43,15.73c14.26-9.9,21.45-2.54,26.23,10.66v0a29.93,29.93,0,0,1,10.7,6.52A20.78,20.78,0,0,1-506.47-136.66Zm9.25-10.27a12.34,12.34,0,0,0,4.73,5.69,12.44,12.44,0,0,1-4.74-5.7A44.7,44.7,0,0,0-509-164.33,44.79,44.79,0,0,1-497.22-146.93Z" transform="translate(1044.77 513.03)"/><path class="cls-2" d="M216.29-217.18c-11.27-3.19-19.75,5.3-22.17,16.43-2,9.09-11.19,6.87-15.16,12.16-10.89,7.92-21.11,20.33-7.49,29.31,12,7.92,24.79,30.88,44.51,12.43,11.16-10.44,30.08-20.66,11.83-40.53C231.05-200.13,230.72-213.1,216.29-217.18Z" transform="translate(1044.77 513.03)"/><path class="cls-2" d="M372.85-231.84l-.11.09-.1.11Z" transform="translate(1044.77 513.03)"/><path class="cls-2" d="M358.27-252.56c-5.33,2.44-11.3,3.46-17,5.13l-.18.1-10.51,10.7.36,5.77,5.92,4.56a15.51,15.51,0,0,1,4.65.55l5.29-.26,19.95-.65,6-5.09,5.25-5.51-.13,0C380.45-254.08,375.07-260.26,358.27-252.56Z" transform="translate(1044.77 513.03)"/><path class="cls-2" d="M577.18-86.37c-10.81-3.2-14.16,6.79-18.4,14.08-19,17.64,4,43.78-13,62.5-7.21,7.94-.92,16.89,7.79,16.35C561.12,6.1,574-4,569.77-9.66,555.84-28.57,579.56-28.16,581.7-38c8.61-8.2,7.43-18.85,6.07-28.84C586.76-74.3,585.56-83.89,577.18-86.37Z" transform="translate(1044.77 513.03)"/><path class="cls-2" d="M-903.32-297.75l-5.43-3.61.07.1-10.2-6.19-11.31,1.68.52-2.23-5.31.71-10,5.92-5.62,5.73c2.82,13.1,12.32,21.59,19.92,31.85,9.63,13,17.88,18.4,32.3,9.51q2.11-4.84,4.25-9.68c3.43-11.22,2.48-21.82-4.52-31.55A6.51,6.51,0,0,1-903.32-297.75Z" transform="translate(1044.77 513.03)"/><path class="cls-2" d="M257-284.5l0,.23-.43.33.06-.59C256.78-284.53,256.9-284.51,257-284.5Z" transform="translate(1044.77 513.03)"/><path class="cls-2" d="M383.93-310.46l6.71,2.92.61.18,14-2.72c13.17-4.35,5.05-13.59,4.84-21-9.05-1.59-18.68-1-26.55-7.05-6.76,5.41-13.78,10.71-9.37,21.08l6.7,5A3.87,3.87,0,0,1,383.93-310.46Z" transform="translate(1044.77 513.03)"/><path class="cls-2" d="M373.68-14.5c-14.48,2.16-32.25-4-39.84,15.69,28.59,16.82,41.58,16.06,66.5-3.95,3.78,0,5.86-2.44,7.37-5.63,10.48-8.85,11.1-16.15-4.3-17.87C392.06-27.52,380.36-26.57,373.68-14.5Z" transform="translate(1044.77 513.03)"/><path class="cls-2" d="M868.3-111c-14.64-34.66.16-72.86-13-107.7,6.69-.34,9.62,3.86,9.71,9.52C865.44-176.43,872.7-143.91,868.3-111Z" transform="translate(1044.77 513.03)"/><path class="cls-2" d="M-838-184.48a5.38,5.38,0,0,1-2.4-4.41c-1.39-2.16-2.78-4.31-4.16-6.47-6.87-8.62-13.44-4.06-20,.47l-1.68,5.76c5,14.14,12.58,23.39,25.42,23-12.84.43-20.45-8.82-25.43-23-1.47,0-2.93-.08-4.39-.21l.11-.23-5.53,5.4.22-.24-5.51,6c.06,2.6.12,5.21.17,7.81l4.9,6.51,0,0,4.66,5.53.29.39c11,10.44,24.21,7,37,5.69l.73-.7q2.26-2.3,4.54-4.58.11-5.61.23-11.21l-5.88-12.16Zm-2.73,18.3a28.14,28.14,0,0,0,3.09-.28A28.14,28.14,0,0,1-840.72-166.18Z" transform="translate(1044.77 513.03)"/><path class="cls-2" d="M458.13-57.76c-5.34,2.59-10.75,5-16.13,7.55.67,3.84,1.92,6.26,3.57,7.77-1.65-1.51-2.9-3.93-3.57-7.77-11.4,4.92-21.54,15-14.87,25.25,5.3,8.2,18.15-2.72,27.62-4.81,4.19-.92,7.26-6.88,10.83-10.56a14.89,14.89,0,0,0-2.46-.33,14.89,14.89,0,0,1,2.46.33c9-2.75,20.6-6.28,15.31-17.62C476.21-68,465.9-61.53,458.13-57.76ZM449.2-40.53a11,11,0,0,0,1.62.29A11,11,0,0,1,449.2-40.53Z" transform="translate(1044.77 513.03)"/><path class="cls-2" d="M288.14-459v.17l.13,0Z" transform="translate(1044.77 513.03)"/><path class="cls-2" d="M442.45-412.53c4.53-5.19,9.2-10.89,5.45-17.94s-10.22-3.14-15.73-1.89c-1.91.76-3.82,1.53-5.73,2.26q0,9.15.05,18.37C432.34-402,437.93-397.14,442.45-412.53Z" transform="translate(1044.77 513.03)"/><path class="cls-2" d="M699.78-258.38,731.13-263C718.19-278.48,709.38-265.68,699.78-258.38Z" transform="translate(1044.77 513.03)"/></g></g></g></g></svg>