<svg xmlns="http://www.w3.org/2000/svg" xmlns:xlink="http://www.w3.org/1999/xlink" viewBox="0 0 1920 855.63"><defs><style>.cls-1{fill:none;}.cls-2{fill:#d1ecf8;}.cls-3{clip-path:url(#clip-path);}.cls-4{fill:#1097a0;}</style><clipPath id="clip-path" transform="translate(11.77 444.32)"><path class="cls-1" d="M0,411.31c15.78-7.2,31.6-14.31,47.35-21.62,62.64-29.08,125.06-58.36,195.41-51.28,14,1.42,28.66-1.83,42.33-9.35,24.53-13.5,36.84-38.22,48.37-63.6,10.91-24,21-48.57,30.54-73.35C385.17,137,422.34,98.83,466.41,68c19.26-13.46,39.39-25.35,58.93-38.33,2.67-1.77,10.81-3.18,4.45-9.45C519.35,10,509.65-1.1,493.12.09,462,2.31,430.72,2.46,399.5,3c-8.85.14-14,5.14-18.84,12.57C348.25,65.19,306.17,96.92,251,105.12a225.28,225.28,0,0,0-53.41,15.33c-24.74,10.3-38.8,29.92-42.58,59.69-2.56,20.21-2,40.44-2.8,60.66-.71,16.83-1.39,33.83-4,50.36-3.85,24.08-19.67,36-41.19,33.07-8.49-1.17-16.91-2.92-25.39-4.17-12.79-1.89-24.87-.11-34.93,10C24.88,351.94,10.73,379.78,0,411.31Z"/></clipPath></defs><g id="Layer_2" data-name="Layer 2"><g id="Layer_1-2" data-name="Layer 1"><path class="cls-2" d="M0,411.31c15.78-7.2,31.6-14.31,47.35-21.62,62.64-29.08,125.06-58.36,195.41-51.28,14,1.42,28.66-1.83,42.33-9.35,24.53-13.5,36.84-38.22,48.37-63.6,10.91-24,21-48.57,30.54-73.35C385.17,137,422.34,98.83,466.41,68c19.26-13.46,39.39-25.35,58.93-38.33,2.67-1.77,10.81-3.18,4.45-9.45C519.35,10,509.65-1.1,493.12.09,462,2.31,430.72,2.46,399.5,3c-8.85.14-14,5.14-18.84,12.57C348.25,65.19,306.17,96.92,251,105.12a225.28,225.28,0,0,0-53.41,15.33c-24.74,10.3-38.8,29.92-42.58,59.69-2.56,20.21-2,40.44-2.8,60.66-.71,16.83-1.39,33.83-4,50.36-3.85,24.08-19.67,36-41.19,33.07-8.49-1.17-16.91-2.92-25.39-4.17-12.79-1.89-24.87-.11-34.93,10C24.88,351.94,10.73,379.78,0,411.31Z" transform="translate(11.77 444.32)"/><g class="cls-3"><path class="cls-4" d="M502.88-36.41c-2.3,3.53-7.26,7.89-6.47,10.48,10.29,33.52,0,67.89,4.8,101.53l-5.74,4.11q-3,3.15-6.07,6.29c-4.91-.34-9.83-.69-14.76-1-1.71-3.92-5-5.42-9-5.74-2.92-3.35-5.82-3.32-8.71,0l-14.18.69c-8.33-2.62-12.61,10.06-21.4,5.65l-.18-.24c-1.61-1.9-3.2-3.8-4.81-5.71l-4.94-6.33-4.17-4.67c-11.88-12.61-26.9-20.28-42.53-27l-.16.06q-3.29-2.14-6.59-4.27s0,0,0,0l-5.3-3.9a3.57,3.57,0,0,0-3.62-2.1c-19.75-8.07-17.7-35.16-37.64-43l.15.3L305-15.71l-5.36-3.83L282.41-36.77c-1.17-2.24-2.32-4.47-3.48-6.71a3.29,3.29,0,0,0-1.57-3.85c.44-3.26-1.24-4.84-4.25-5.37,0,0,0,0,0,0l-5.37-4.63a2,2,0,0,0-2.66-1.5c-2.57-1.68-5.16-3.37-7.75-5-.81-6.85,4.06-14.06-1.25-20.63-1.19-1.87-2.38-3.73-3.56-5.6a3.62,3.62,0,0,0-.2-.33.34.34,0,0,0,.06.06c-2-3.2-4-6.42-6.08-9.63l-.11-.23c-1.47-2.11-2.94-4.22-4.42-6.31l.29.26c-5.5-11.67-11.33-23.12-21.12-31.93-.88-3.15-2.86-4.74-6.24-4.32l-6.51-5.7c.6-4.22,1.8-8.62-3-11.41,0,0,0-.1,0-.1-4.43-8.71-12.77-9.9-21.16-11l.23.32-6.58-3.39c-16.44-10.23-13-28-16.5-43.2-.64-12.83-5.29-22.24-19.87-23.1-28.3-8.09-39.06-33.62-54.39-54.65-16.71-22.94-45-31.08-64.73-50.85C11.55-356.26,1.86-366.71-6-379.42c-9-14.63-8.35-26,8.35-33.94,5.58-10.33,12.45-13.06,23.58-6.6,23.77,13.81,49.71,17.94,77,21.78,14.21,2,37.51,17.57,36.67,43.07l12,10.17,26.74,7.62c28.62-13.27,40.24-5.86,40,25.47,11.8,16.12,22,34.29,45.68,35,.81,0,2.14.41,2.37,1,11,27.12,49.69,24.69,58.07,54.73,2.75,9.85,12.78,7.26,19.78,10,13.05,5,18.94,23.84,40.6,14.16,8.89-4,14.95,16.11,7.45,26.71-16,22.6-3.73,30.79,16.17,35.49,27.27,6.43,22.82,36.94,39.73,51q5.73,7.86,11.43,15.73C473.85-78,481-70.61,485.82-57.41c-2.17,2.69-4.36,5.46-6.92,7.34,2.57-1.87,4.75-4.64,6.93-7.32a29.87,29.87,0,0,1,10.7,6.53,20.76,20.76,0,0,1,5,7.9c.19.56.37,1.15.53,1.74a28.13,28.13,0,0,1,.79,4.8h0Z" transform="translate(11.77 444.32)"/><path class="cls-4" d="M1905.57,145.32c2.9-16,1.36-32-.78-48-.94-17.27,5.41-35.36-5.69-51.52l-.6-1.46c-9.36-12.28-2-21.84,5.1-31.45l-.39-16.52a18.44,18.44,0,0,1-1.53-3.21c-.09-.33.82-.94,1.27-1.42,1.65-11.44,2.21-22.84-1.65-34-14.63-34.66.17-72.86-13-107.7a1.68,1.68,0,0,0-2.58-.91c-2.4-7.28-7.31-10.44-13.49-10.44a22,22,0,0,0-4.9.59c-16.75,3.86-31.78-1-46.63-7.61h0c-5.21-8-14.13-7.28-21.89-9.3a22.61,22.61,0,0,0,1.39,2.4,21,21,0,0,1-1.4-2.4l-.62-.6h0c-4.78-12.76-16.11-10.18-26-11.06h0l-8.09-4.91-31.35,4.58a2.09,2.09,0,0,0-2.94,1.09,5.79,5.79,0,0,0-.17.63,5.8,5.8,0,0,1,.16-.63c-19.82,5.4-37.28-5.14-55.46-5.75-1.23-11.13,18-14.34,5.82-26.11-12-11.62-24.13-24.81-42.71-17.38-11.21,4.48-19.84,13.23-5,24.95,6.09,4.82,13.16,9.57,8.66,19.3-11.14,7.37-13.9,13.1.57,21.23,13.12,7.37,25.84,7.88,39.61,5.28,6.14,12.81-8.41,15.67-11.52,24,0,0-.19.3-.19.3,2.3,8.38,3.2,16.06-8.7,17.29q-.8-2.43-1.72-4.8c-10.32,4.44-12.28,20.42-26.67,19.23-16.58-8.47-16.63-29.29-29.9-40.28-.64,5.75-3,7.91-8,3.6-13.16-11.36-15.54-26.36-14-42.56,1-10.16,4.86-20.24.57-30.5-1.63-3.87-3.24-7.76-4.87-11.64-11.41-6.67-27.85,5.34-36.93-10l-6-4.63c-14-1.85-28-2.85-41.94.39a5.34,5.34,0,0,1-3.42,1.57l-7.48,2.6c-7.88,6-19.65,2.74-26.53,11.12-1.4.21-2.8.42-4.19.67-18.44,10-26.7,24.62-21.06,45.68,13.87,3.59,35-7.27,39.92,12.73,2.94,11.94,10.26,16.6,16.49,24,14.43-11.69,33.18,2,47.89-8.12-1.8,13.71-9.33,19.19-23,16.55-6.44-1.24-13.54-4.67-18.48,3.28l-5.88.16c-9,9.68-14,17.11,3.62,24.69,10.65,4.59,27.71,8.41,19.51,29.42-2.74,7,6.37,16.34,14.56,19.85s12.28-3.91,16.2-9.73q7.85-6.09,15.66-12.2c4.65,3.43,10,10.28,13.93,10.28a2.82,2.82,0,0,0,.65-.08c17.71-3.93,27-.26,33.85,18.56,2.33,6.46,17,16,31.2,15.32,50.73-2.43,89.92,27,131.68,49.25,4.66,2.49,6,5.16,3.37,10.3-5.59,10.76,2.66,17.69,7.49,25.86,12.27,20.8,31.73,42.18,28.76,65.27-3.53,27.59,10.08,21.62,22.87,18.09,11.84-3.28,20.47-1.81,28.56,6.64,7.94,8.27,15.51,16.92,24,24.62,5.07,4.62,8.13,15.85,18.6,8.54C1908.54,162.48,1910.49,154.57,1905.57,145.32ZM1557.81-103.86c.19-.54.36-1.09.5-1.66A16.09,16.09,0,0,1,1557.81-103.86Zm102.63-17.84c0,.42,0,.84-.07,1.26h0C1660.39-120.86,1660.41-121.28,1660.44-121.7Zm-.08,1.27c0,2.1.07,4.21.1,6.32C1656.16-116.15,1656.19-118.27,1660.36-120.43ZM1696-131.9c0-.2-.07-.39-.12-.58.05.19.09.38.13.59s.06.31.1.47C1696.06-131.59,1696-131.74,1696-131.9Zm124.49-36.43c.18.19.36.37.56.56l-.57-.55c-.47.08-.93.14-1.39.2ZM1847.83,111l-.81.29c-1,.35-1.93.72-2.93,1.11-1.33.51-2.7,1-4.06,1.52,1.37-.48,2.73-1,4.06-1.52l2.93-1.12c.28-.1.54-.2.81-.28a16.19,16.19,0,0,1,8.14-.61A16.41,16.41,0,0,0,1847.83,111Zm8.69-.5a15.44,15.44,0,0,1,1.91.54A17.4,17.4,0,0,0,1856.52,110.53ZM1897.89,85a16.62,16.62,0,0,0-1.29-1.93,15.44,15.44,0,0,1,1.29,1.93,23.52,23.52,0,0,1,1.1,2.12C1898.65,86.38,1898.28,85.66,1897.89,85Z" transform="translate(11.77 444.32)"/><path class="cls-4" d="M1257.45-363.11c-9-1.31-17.51-.86-24.69,5.6l-33.4,20.05c-6.95,5-14,7.09-21.34.77-7.08-.26-14.14-.5-21.22-.77-1.61,3.16-3.36,3.18-5.21.21l-5.24-1.39-6.53-3.55a3.45,3.45,0,0,1-3.81-1.44c-2.17-1.08-4.32-2.17-6.49-3.26l-30.36-2.28c-16-9.05-32-20.09-48.25-.35l-5.57,1.38c-1.5,4.49-3.15,3.77-4.87.12a40.15,40.15,0,0,1-5.26,0c-1.86,1.51-3.71,3-5.57,4.53l-.46.44q-8.06,10.33-16.09,20.69a40.7,40.7,0,0,1-4.39.63l-9.92,11.2c2.18,10.56-6.77,17.3-9.07,26.32-2.87-16.75-22.8-18.08-29-31.81-26.06-6.29-16.17-26.21-16.07-42.4l.1.08c-14.44-14.18-24.15-29.08-7.42-48.08q-.66-6.4-1.33-12.81l-2-9.5c-2.85-.67-3.79-2.4-2.9-5.16a9.17,9.17,0,0,1-2-4.14L918.5-439.3c-16.7,20.52-30.56.3-45.57-3.2l-15.32,0,0,1.41L857-442.4a3,3,0,0,1-1.88-1.92l-10.93,6.41c-.06,12.27.61,24.61-.45,36.81-.82,9.42-2.21,19.91-15.64,20.31l-10.41.18L812.73-374c-2.33,12.25,13.65,29.5-9.81,36-3.51,8.42-10.59,13.26-17.93,17.84-30.25,25.81-32.73,25.93-50.92,2.25-20.51-12.79-39.79-16.1-57.76,5.11a16.53,16.53,0,0,1-19.25,4.17c-5,1.07-11.71.45-14.88,3.48-14.59,14-27.13,8.33-39.78-2.36-17.92-11.48-24.48-31.69-36.63-47.6l-1.09-1-11.35-1.76c-.07,1.3-.14,2.6-.19,3.9l-5.82.23-4.94,2s-1.54,1.07-1.54,1.1a9.48,9.48,0,0,1,.2,1c-3.95,9.54-7.64,19.2-11.89,28.62-9.25,20.49-30.95,41.22,2,60.42,1.74,1,3.19,5,2.64,7.07-6.75,24.63,10.28,34.24,27.13,44.55,9.83,6,16.79,11.49,11.73,27.2-11.55,35.85,9.57,59.63,46.19,56.45,8-.71,20.19-7,23.64,3.83,9.59,30,29.74,16.56,46.86,12.6,8.34-1.92,18.25-10.17,24.36-3.28,10.58,11.94,23.48,10.6,36.14,11.36,14.54.87,24.31,5.42,22.21,21.94-1.94,15.39,5.35,16.49,17,12,8.16-3.17,16.82-5.41,22.91-12.41,8.07,1.38,14.19-3.95,22.85-7.39,0,5.45,0,9.65,0,13.84,0,7-.56,15.71,6.69,18.53,8.87,3.44,14.5-5.23,19.1-10.76,15.4-18.52,9.22-36.32-3.84-53.24-.42,1-.87,2-1.36,2.91a39.51,39.51,0,0,1-2.35,4,41.11,41.11,0,0,1-2.7,3.53,43.25,43.25,0,0,0,2.7-3.53,43.69,43.69,0,0,0,2.35-4q.72-1.39,1.35-2.91c13.78-14.13,28.32-28,13.43-49.91-4.68-6.89-.83-13.07,5-15.11,40.39-14,52.9-44.21,50.22-83.68l-.42.49.4-.81c0,.11,0,.21,0,.32l3.83-4.42c11.84-28.32,35-10.31,53.09-13q3.72.3,7.41.63a.52.52,0,0,1,0-.11l5.93,5.39c-16.51,31.75-20.28,68-35.17,100.3h0c-14.21,9.3-10.61,23.37-9.83,36.69,22.44-10,30.17.52,30.25,21.69,6.59,13.23,4.16,25.5-4,37.14L970.1-62c.46,2,.93,4.08,1.39,6.11l5.24,4.72.16.12L983-46.39l-.21-.33c17.58-10.26,40.24,7.84,56.45-10.1.21-3,.43-6,.63-8.92a31.91,31.91,0,0,1-4.29-1.25c-1.1-8.26-8-16.41-8-24.69,0-4.27,1.85-8.59,7.31-13,.21-3.34.43-6.69.64-10q.18-13.23.37-26.48-.73-10.78-1.46-21.6l-3.41.08c1.13,0,2.27-.06,3.41-.09-1.55-5-3.13-10-4.69-15h0c30.28-.56,30.28-.56,15.19,36.48q5.77,10.56,11.57,21.12c1.72.4,3.43.85,5.11,1.37,22.52,5.06,8.76,18.64,6.91,29.42q4.53,5.91,9,11.81l9.64.72,11-.58c1.21,6.46,4.24,9.84,9.23,9.84a16.59,16.59,0,0,0,5.62-1.12c14-5.06,10.72,5.82,11.76,12.71-.84,13.73,6.92,12.61,16,9.25l5.54-4.36,5.58-4.92.2-.22,4.83-5.69-.14.09c3.27-9-5.44-22.64,10.16-26.91q-3-10.59-6.06-21.2l4.62-4.78q-1.57-5.3-3.14-10.59l-21,2.9-12.24-17.16-.18.26c-12.59-.42-16.28-6.72-12-18.24,6-3.37,10.25-7.67,8.3-15.34-5.36-1.74-8.57-5.66-10.73-10.63q-4.41-5-8.84-9.93a71.48,71.48,0,0,1-6,4.55c2.07-1.49,4.14-3,6-4.56-16.95-23.43-13.74-28.85,20.19-34.22q-.07,6.06-.13,12.11c1.67.64,3.35,1.26,5,1.9a3.77,3.77,0,0,1,4.53,1.52l6.23-1.34,4.56-2.65a2.39,2.39,0,0,0-.12.22c6.56-5.07,14-4.57,21.61-3.58l5.38-1.24q5.05-5.43,10.12-10.85c.18-3.43.36-6.84.55-10.27l-2.6-.21-2.51.64h0l-4.73-2.5c-6.74.76-6.11-4.19-6.5-8.37,1.68-.53,3.37-1,5.08-1.34,1.09-3.21,2.16-6.42,3.24-9.64q-3.88-5.27-7.79-10.52L1152-275c-16.53,7.28-33.5,13.8-51.8,12.74-17-1-25.33,13.14-38.11,19.36-3.64-7.12-3.72-18.49-16.94-14.15-4.78-11.73-21.68-15-21.08-30.68.37-9.58-.56-19.43,11.39-23.17h0l143.28,14.54c10.29-.12,21.19,3.78,30.29-4.48a14.46,14.46,0,0,1,1.4-4.62c1.57-.29,3.15-.63,4.69-1.06l25.41-26.22c.35-11.45,8.78-16,17.29-20.47Q1257.64-358.14,1257.45-363.11Zm-714.31,38.5c.28-.48.55-1,.84-1.44-.29.48-.55,1-.83,1.44l-1.52,2.69Zm-.67,45.07c.84.71,1.73,1.4,2.71,2.11C544.2-278.13,543.31-278.83,542.47-279.54Zm42,63a21.2,21.2,0,0,1,1.69,2.24A23.89,23.89,0,0,0,584.44-216.57Zm4.72,17.9c-.1.93-.25,1.89-.44,2.91.19-1,.33-2,.44-2.91.74-6.4-.28-11.06-2.52-14.85C588.88-209.74,589.91-205.08,589.16-198.67Zm17.76,56a37.18,37.18,0,0,1-9.1-3.53,38,38,0,0,0,9.1,3.53c1.13.29,2.32.56,3.55.78C609.24-142.06,608.05-142.32,606.92-142.62Zm354-35.25a10.69,10.69,0,0,1,1.61,2.11A11.64,11.64,0,0,0,961-177.87Zm24,16.75a4.5,4.5,0,0,1,2-.26A5,5,0,0,0,985-161.12Zm156.65,41.66a12.44,12.44,0,0,0-.14-2.32A11.6,11.6,0,0,1,1141.63-119.46Zm15.38-133c-1.35-.11-2.69-.19-4-.18C1154.33-252.7,1155.66-252.62,1157-252.51Zm-15.48,8.36c-.22.74-.43,1.55-.6,2.41h0A23.51,23.51,0,0,1,1141.53-244.15Zm-76.87,20.42a4.1,4.1,0,0,1-.62.53A6.6,6.6,0,0,0,1064.66-223.73Zm-34.87,35.62c2.89-.69,5.78-1.42,8.67-2.13-2.89.71-5.78,1.45-8.67,2.14Z" transform="translate(11.77 444.32)"/><path class="cls-4" d="M1191.11,97.53c-13.42,12.62-21.58,34.41-46.86,26.45-2.93-.92-7.43-.08-10,1.68-31.78,21.33-65.3,13.63-98.84,6.46-6.88,12.82-13.28,26.14-30.25,28.1q-3.63-2.72-7.24-5.45l-2.45,5.58-1,.51c-5.39,3-10.76,5.12-16-.31-.54-3.37-1.07-6.75-1.6-10.12.29-4-1.83-6.25-5.46-7.38L967.27,140l-6.47-5-10-6.9c-4.1-6.33-10.37-1.88-15.49-3.12-.09,3.19-.18,6.37-.26,9.56-10,16-19.59,2.92-28.43-1.12-33.66-15.36-68.38-5.34-102.19-3.31-36.85,2.2-69.38-9.87-102.85-20.65-12.26-3.95-23.71-1-35.49,3.12C645,120,584.65,106.16,573,92c2.79-3.33,6.38-8-.14-9.66-13.64-3.52-27.68-6.37-41.53-.09l-13-7.23q-2-7-4-14.06,3-3.14,6.07-6.28l5.74-4.11c14.32,5.19,12.63-12.59,21.6-15h0c-1.7-28.44,14.57-22.55,31-16.27l20.87-1.85c23.82-.88,48.38,1.4,66.57,16.44,23.35,19.3,66.94,19.79,86.72-3.12,7-8.11,11.66-12.39,25.47-4.22,15.85,9.39,36,18,57,12.12l5.77.87a4.08,4.08,0,0,1,2.67,2.72,21.51,21.51,0,0,0,2.22,4.64c-5.21,13.87,4.83,18.87,14.13,24.31,12.32,9,26.07,5.24,39,3.26,15.57-2.38,25.41,2.46,30,17.61l10.33-4.73c25.56.63,50.81-21.77,77.1,1,10.4,9,17.57,15.27,6,27-5,5-12.7,8.89-6.58,16.8,5.86,7.56,12.81-1.14,19.38-.81,8.13-11.19,1.06-30.89,20.13-36a3.26,3.26,0,0,1,1.85-3.52l13.71,1.43h0c6,1.75,12.09,3.62,17.4-1.79,10.21-3.86,21.68-4.82,28.49-15.71,4-6.46,14.18-9.88,18.62-5.69,16.84,15.88,26.15,3.29,36.65-8.43,9,7.8-3.63,31,20,27.17C1194,88.53,1194,94.81,1191.11,97.53Z" transform="translate(11.77 444.32)"/><path class="cls-4" d="M1435.61-83.23c-2.87,10.85-11.53,19-20.4,12.34C1381.56-96,1342.09-93.7,1303.92-98.17c-11,2.24-21.79,3.51-12.29-12.88,8.42-14.55,17.91-27.62,38.65-24.82,23.21,3.13,47-1.48,70.18,5.5C1424.35-123.18,1436-108,1435.61-83.23Z" transform="translate(11.77 444.32)"/><path class="cls-4" d="M1348,58.76c-7.41-10-15.64,4.19-23.41,7.95-15.13,7.3-30.74,21-47.36,9.83-25.36-17.08-43.35-6.49-61.54,10.41,2.93,3,4.31,7.27,7.06,10.17-2.75-2.9-4.13-7.14-7.06-10.16-9.39,5.54-15,15-8.78,23.55,7,9.69,19-.3,28.69,1.49-1.64,11.38-5.9,19.31-19.72,17.39-10.49-1.45-20.68-.5-27.07,10-6.91,4.46-13.8,9.54-10,19,3,7.63,10.39,9.22,17.87,7.68,9.29-1.9,14.46,3.72,20.45,9.2,19.89,18.22,32.5,16.82,52.82-5.08,5.85-3.71,5.88-10.14,1.58-12.9-15.83-10.14-16.85-26.45-19.78-42.18,12.3,3.12,23.83,3,32.93-7.65,18.68-3.6,40.16-.12,52.16-20.63C1348.92,80.59,1354,66.89,1348,58.76Z" transform="translate(11.77 444.32)"/><path class="cls-4" d="M1361.54-339.78c17.11,1.82,33.55-18.07,42.26-13.44,15.2,8.08,29,14.54,46,14,3.27-.1,6.48-2.49,9.71-3.82q0-9.18,0-18.34c-11.69-9.67-22.16-29.81-37.07-2.09-2.64,4.92-12.87,1.38-18.91-3.7-20.52-17.22-35.32,4.41-52.6,8.7-1.52.37-2.21,8.16-1.55,12.23C1350.4-339.5,1356-340.37,1361.54-339.78Z" transform="translate(11.77 444.32)"/><path class="cls-4" d="M1167.22-88.87l-.27.08,0,.18Z" transform="translate(11.77 444.32)"/><path class="cls-4" d="M1326.38-283.93l0-.09c-11.67-16-10-32.44-2.4-49.66,2.33-5.28-1.7-9.85-7.73-11.31-4.75,5.91-11.33,10.48-17.88,5.59-7.21-5.39-1.6-14.77-3-22.23h0a36.59,36.59,0,0,0,20.68-7.67l0,0,5-6.43c.45-3.14.91-6.29,1.36-9.43a9.19,9.19,0,0,1-1.24-4.89l-10.38-2.18a5.78,5.78,0,0,1-4.47,2.13l-5.9,5.3-5.21,5.1-.93,5.38h0l-2.38,0-2.29-.63c-8.93,6.12-18.75,11.46-21.15,23.48-3.45,1.46-6.73,1.75-9.63-.59,3.18,7.82-.82,14-5.49,20-6.32,27.1,8.89,49.72,15.44,74.13-.33,3.39-.65,6.76-1,10.14-9.89,3.05-18.47,7.62-13.51,20,4.67,11.68,12.76,18.41,26.3,12.35-1.58,10-8.35,16.71-15,23.56-3.53,3.63-8.09,7.29-5.49,13.3s8.25,5,13.36,5.53c25.44,2.53,32.72-8.56,24.22-37a3.07,3.07,0,0,1,.31-.17c-.1-.2-.2-.39-.29-.58,7.28-4.79,15.4-8.81,16.65-18.91-5.82-15.14-21.77-25.88-19.41-44.58,10.89.35,24.73,19.25,31.68-5.05A3.61,3.61,0,0,1,1326.38-283.93ZM1290-215.56a4.46,4.46,0,0,1-.43.33l.06-.59c.15,0,.27,0,.4,0Z" transform="translate(11.77 444.32)"/><path class="cls-4" d="M1258.21-353.41l-.43.38a10,10,0,0,0,1,.95C1258.63-352.52,1258.44-353,1258.21-353.41Z" transform="translate(11.77 444.32)"/><path class="cls-4" d="M1424.49,101.89q1,.38,2,.69-1-.31-2-.69l-28.19,21.53c-8.42,5-16.72,10.38-15.83,21.72,1.71,21.75-6.24,38.71-23.21,52.22-4.23,3.37-11.9,8.41-6.26,14.75,6.31,7.09,13.12.55,18.15-3.83,11.84-10.28,21.35-25.54,34.94-31,25.79-10.37,37.1-29.93,45.63-53.37h0l4.27-5.5c26.94-7.33,19.9-35.54,33.39-51.86C1468.63,83.68,1439.34,80.29,1424.49,101.89Z" transform="translate(11.77 444.32)"/><path class="cls-4" d="M526.54-67.95a17.68,17.68,0,0,1,.53,1.74,26.15,26.15,0,0,1,.79,4.8h0c12.45,10.63,22.87,10,30.63-5.53h0c3.69-12.32,9.47-24.72-9.71-30.59-4.89-1.5-9.1-8.23-11.74-13.5-16.82-33.62-23.35-34.5-51-5.91h0l-12.84,8.14q5.73,7.86,11.43,15.73c14.26-9.9,21.45-2.54,26.23,10.66,0,0,0,0,0,0a29.93,29.93,0,0,1,10.7,6.52A20.78,20.78,0,0,1,526.54-67.95Zm9.24-10.27a12.42,12.42,0,0,0,4.74,5.69,12.44,12.44,0,0,1-4.74-5.7A44.7,44.7,0,0,0,524-95.62,44.67,44.67,0,0,1,535.78-78.22Z" transform="translate(11.77 444.32)"/><path class="cls-4" d="M1249.3-148.47c-11.27-3.18-19.75,5.3-22.18,16.43-2,9.09-11.18,6.87-15.15,12.16-10.9,7.92-21.12,20.33-7.49,29.31,12,7.92,24.79,30.88,44.51,12.43,11.16-10.44,30.07-20.66,11.83-40.53C1264.05-131.42,1263.72-144.39,1249.3-148.47Z" transform="translate(11.77 444.32)"/><path class="cls-4" d="M1405.85-163.13l-.1.1-.1.1Z" transform="translate(11.77 444.32)"/><path class="cls-4" d="M1391.28-183.85c-5.33,2.44-11.3,3.46-17,5.13l-.17.1q-5.27,5.34-10.51,10.7.18,2.88.35,5.77l5.93,4.56a15.51,15.51,0,0,1,4.65.55l5.29-.26,20-.65,6-5.08,5.25-5.52-.13,0C1413.46-185.37,1408.08-191.55,1391.28-183.85Z" transform="translate(11.77 444.32)"/><path class="cls-4" d="M1610.19-17.66c-10.81-3.2-14.16,6.79-18.4,14.08-19,17.64,4,43.78-13,62.5-7.21,7.94-.92,16.89,7.78,16.35,7.54-.46,20.37-10.55,16.19-16.22-13.93-18.91,9.79-18.5,11.93-28.35,8.61-8.2,7.43-18.85,6.07-28.84C1619.77-5.59,1618.57-15.18,1610.19-17.66Z" transform="translate(11.77 444.32)"/><path class="cls-4" d="M129.69-229l-5.44-3.61.08.1-10.2-6.19-11.31,1.68.51-2.23-5.3.71-10,5.92-5.62,5.73c2.82,13.1,12.32,21.59,19.91,31.85,9.64,13,17.89,18.4,32.3,9.51q2.13-4.85,4.25-9.67c3.44-11.23,2.49-21.83-4.51-31.56A6.47,6.47,0,0,1,129.69-229Z" transform="translate(11.77 444.32)"/><path class="cls-4" d="M1290-215.79l0,.23a4.46,4.46,0,0,1-.43.33l.06-.59C1289.79-215.82,1289.91-215.8,1290-215.79Z" transform="translate(11.77 444.32)"/><path class="cls-4" d="M1416.93-241.75c2.24,1,4.47,2,6.71,2.92l.61.18,14-2.72c13.17-4.34,5-13.59,4.83-21-9-1.59-18.67-1-26.54-7.05-6.76,5.41-13.79,10.71-9.38,21.08l6.71,5A3.88,3.88,0,0,1,1416.93-241.75Z" transform="translate(11.77 444.32)"/><path class="cls-4" d="M1406.69,54.21c-14.48,2.16-32.25-4-39.84,15.69,28.58,16.82,41.58,16.06,66.5-4,3.77,0,5.86-2.44,7.37-5.62,10.48-8.86,11.1-16.16-4.3-17.88C1425.07,41.19,1413.36,42.14,1406.69,54.21Z" transform="translate(11.77 444.32)"/><path class="cls-4" d="M1901.3-42.29c-14.63-34.66.17-72.86-13-107.7,6.69-.33,9.62,3.86,9.7,9.52C1898.45-107.72,1905.71-75.2,1901.3-42.29Z" transform="translate(11.77 444.32)"/><path class="cls-4" d="M195-115.77a5.36,5.36,0,0,1-2.4-4.41l-4.17-6.47c-6.87-8.62-13.44-4.06-20,.47q-.83,2.88-1.68,5.76c5,14.14,12.59,23.39,25.43,23-12.84.43-20.45-8.82-25.43-23-1.47,0-2.93-.08-4.39-.21l.11-.23-5.53,5.4.22-.24c-1.84,2-3.68,4-5.51,6,.06,2.6.11,5.21.17,7.81l4.89,6.51,0,0c1.56,1.84,3.11,3.69,4.66,5.53l.3.39c11,10.44,24.21,7,37,5.7l.72-.71L204-89l.24-11.21-5.88-12.16Zm-2.73,18.3a28.58,28.58,0,0,0,3.09-.28A28.58,28.58,0,0,1,192.29-97.47Z" transform="translate(11.77 444.32)"/><path class="cls-4" d="M1491.14,11c-5.34,2.59-10.75,5-16.13,7.55.66,3.84,1.92,6.26,3.56,7.77-1.64-1.51-2.9-3.93-3.56-7.77-11.4,4.92-21.54,15-14.88,25.25,5.31,8.2,18.16-2.72,27.63-4.81,4.18-.92,7.26-6.88,10.83-10.56a15,15,0,0,0-2.46-.33,15,15,0,0,1,2.46.33c9-2.75,20.59-6.28,15.31-17.61C1509.22.72,1498.9,7.18,1491.14,11Zm-8.93,17.24a12,12,0,0,0,1.61.28A12,12,0,0,1,1482.21,28.19Z" transform="translate(11.77 444.32)"/><path class="cls-4" d="M1321.15-390.26a1,1,0,0,0,0,.17l.13,0Z" transform="translate(11.77 444.32)"/><path class="cls-4" d="M1475.45-343.82c4.54-5.19,9.21-10.89,5.46-17.94s-10.22-3.14-15.73-1.89c-1.91.76-3.82,1.53-5.73,2.26q0,9.15,0,18.37C1465.34-333.29,1470.94-328.43,1475.45-343.82Z" transform="translate(11.77 444.32)"/><path class="cls-4" d="M1732.78-189.67l31.36-4.59C1751.19-209.77,1742.39-197,1732.78-189.67Z" transform="translate(11.77 444.32)"/></g></g></g></svg>