<svg xmlns="http://www.w3.org/2000/svg" xmlns:xlink="http://www.w3.org/1999/xlink" viewBox="0 0 1920 659.57"><defs><style>.cls-1{fill:none;}.cls-2{fill:#d1ecf8;}.cls-3{clip-path:url(#clip-path);}.cls-4{fill:#dc6820;}.cls-5{fill:#d8d61e;}.cls-6{fill:url(#radial-gradient);}.cls-7{fill:#81b73a;}</style><clipPath id="clip-path" transform="translate(642.66 213.61)"><path class="cls-1" d="M345,0c-7.16,7.27-13.23,12.49-18.32,18.72-41.22,50.45-84.9,98.06-129.51,144.66-38.41,40.12-80.42,62.73-134.33,43.51-17.82-6.35-37.25-7.25-55,3.93-10.41,6.56-10.4,8.86-.11,15.94,24.47,16.85,48.9,33.74,72.6,52C115.91,306.17,144.68,339,155.87,388c2.52,11,8.19,21.18,12.81,31.51,7.62,17,20.48,22.23,36.51,19.48a75.35,75.35,0,0,0,23.14-8.31C266.9,410,300.12,380.2,333.85,351.28c5.79-5,11.13-10.21,15.19-17.36,19-33.46,17.95-67.68-.41-99.69-27.91-48.65-30.48-100-19-154.31C335.07,54.25,339.57,28.34,345,0Z"/></clipPath><radialGradient id="radial-gradient" cx="812.36" cy="193.02" r="358.03" gradientUnits="userSpaceOnUse"><stop offset="0" stop-color="#d45127"/><stop offset="1" stop-color="#2383c5" stop-opacity="0"/></radialGradient></defs><g id="Layer_2" data-name="Layer 2"><g id="Layer_1-2" data-name="Layer 1"><path class="cls-2" d="M345,0c-7.16,7.27-13.23,12.49-18.32,18.72-41.22,50.45-84.9,98.06-129.51,144.66-38.41,40.12-80.42,62.73-134.33,43.51-17.82-6.35-37.25-7.25-55,3.93-10.41,6.56-10.4,8.86-.11,15.94,24.47,16.85,48.9,33.74,72.6,52C115.91,306.17,144.68,339,155.87,388c2.52,11,8.19,21.18,12.81,31.51,7.62,17,20.48,22.23,36.51,19.48a75.35,75.35,0,0,0,23.14-8.31C266.9,410,300.12,380.2,333.85,351.28c5.79-5,11.13-10.21,15.19-17.36,19-33.46,17.95-67.68-.41-99.69-27.91-48.65-30.48-100-19-154.31C335.07,54.25,339.57,28.34,345,0Z" transform="translate(642.66 213.61)"/><g class="cls-3"><path class="cls-4" d="M358.85-53.3l5.93,5.4c-16.51,31.75-20.28,68-35.17,100.29h0c-14.21,9.3-10.61,23.38-9.83,36.7,22.44-10,30.17.51,30.25,21.68,6.59,13.24,4.16,25.5-4,37.15l-6.78,20.8c.46,2.05.93,4.08,1.39,6.11l5.24,4.73.16.11c2,1.55,4.09,3.11,6.14,4.65l-.21-.33c17.58-10.26,40.24,7.84,56.45-10.1.21-3,.43-5.95.63-8.92a31.91,31.91,0,0,1-4.29-1.25c-1.1-8.26-8-16.4-8-24.69,0-4.27,1.85-8.58,7.31-13,.21-3.34.43-6.68.64-10q.18-13.23.37-26.47-.74-10.8-1.46-21.6c-1.14,0-2.28,0-3.41.07,1.13,0,2.27-.06,3.41-.08-1.55-5-3.13-10-4.69-15h0c30.28-.56,30.28-.56,15.19,36.48q5.78,10.58,11.57,21.12c1.72.4,3.43.85,5.11,1.37,22.52,5.06,8.76,18.64,6.91,29.42l9.05,11.81,9.64.73,11-.59c1.21,6.46,4.24,9.85,9.23,9.85a16.62,16.62,0,0,0,5.62-1.13c14-5.06,10.72,5.82,11.76,12.71-.84,13.73,6.92,12.61,16,9.25l5.54-4.35,5.58-4.93.2-.22,4.83-5.69-.14.09c3.27-9-5.44-22.64,10.16-26.9q-3-10.6-6.06-21.2l4.62-4.79c-1-3.52-2.09-7.06-3.14-10.59l-21,2.9L498.24,91.08l-.18.27c-12.59-.42-16.28-6.73-12.05-18.25,6-3.36,10.25-7.67,8.3-15.33C489,56,485.74,52.1,483.58,47.14q-4.41-5-8.84-9.94a71.56,71.56,0,0,1-6,4.56c2.07-1.49,4.14-3,6-4.57C457.78,13.76,461,8.34,494.92,3q-.07,6.06-.13,12.12l5,1.89a3.8,3.8,0,0,1,4.53,1.52l6.23-1.34,4.56-2.64a2.25,2.25,0,0,0-.12.21c6.56-5.07,14-4.57,21.61-3.58,1.79-.41,3.59-.83,5.39-1.23q5-5.43,10.11-10.86c.18-3.43.36-6.84.55-10.26l-2.6-.22-2.51.65h0l-4.73-2.51c-6.74.77-6.11-4.19-6.5-8.37,1.68-.52,3.37-1,5.08-1.34,1.09-3.21,2.16-6.42,3.24-9.64q-3.88-5.26-7.79-10.52c-5.26-.38-10.54-.75-15.81-1.11-16.53,7.27-33.5,13.8-51.8,12.73-17-1-25.33,13.14-38.11,19.36-3.64-7.12-3.72-18.49-16.94-14.14C409.43-38,392.53-41.35,393.13-57c.37-9.58-.56-19.42,11.39-23.16h0L547.8-65.62c10.29-.12,21.19,3.78,30.29-4.48a14.53,14.53,0,0,1,1.4-4.62c1.57-.28,3.15-.63,4.69-1.06L609.59-102c.35-11.45,8.78-16,17.29-20.47q-.14-5-.32-9.93c-8.95-1.31-17.51-.86-24.69,5.6l-33.4,20.06c-7,4.95-14,7.08-21.34.76l-21.22-.76c-1.61,3.16-3.36,3.18-5.21.2l-5.24-1.39-6.53-3.55a3.45,3.45,0,0,1-3.81-1.44c-2.17-1.08-4.32-2.16-6.49-3.26l-30.36-2.28c-16-9-32-20.09-48.25-.35l-5.57,1.38c-1.5,4.49-3.15,3.78-4.87.13a44,44,0,0,1-5.26,0c-1.86,1.5-3.71,3-5.57,4.53l-.46.44q-8.06,10.34-16.09,20.69a40.67,40.67,0,0,1-4.39.62l-9.92,11.2c2.18,10.56-6.77,17.3-9.07,26.33Z" transform="translate(642.66 213.61)"/><path class="cls-5" d="M358.82-53.44C356-70.2,336-71.53,329.82-85.26c-26.06-6.28-16.17-26.21-16.07-42.4l.1.08c-14.44-14.17-24.15-29.08-7.42-48.07q-.66-6.42-1.33-12.82l-2-9.5c-2.85-.66-3.79-2.4-2.9-5.16a9.17,9.17,0,0,1-2-4.14l-10.55-1.32c-16.7,20.53-30.56.31-45.57-3.2l-15.32,0,0,1.41-.61-1.27a3,3,0,0,1-1.88-1.92l-10.93,6.41c-.06,12.28.61,24.62-.45,36.81-.82,9.43-2.21,19.92-15.64,20.31-3.47.07-6.94.14-10.41.19-1.64,2.2-3.28,4.37-4.92,6.57-2.33,12.26,13.65,29.5-9.81,36-3.51,8.43-10.59,13.26-17.93,17.84-30.25,25.81-32.73,25.94-50.92,2.25C82.67-100,63.39-103.34,45.42-82.13A16.53,16.53,0,0,1,26.17-78c-5.05,1.08-11.71.45-14.88,3.48-14.59,14-27.13,8.33-39.78-2.35C-46.41-88.31-53-108.52-65.12-124.44l-1.09-1-11.35-1.76c-.07,1.3-.14,2.61-.19,3.91l-5.82.22-4.93,2S-90-120.07-90-120a9.31,9.31,0,0,1,.2,1c-4,9.55-7.64,19.21-11.89,28.62-9.25,20.5-30.95,41.22,2,60.43,1.74,1,3.19,5,2.64,7.06C-103.83,1.71-86.8,11.32-69.95,21.62c9.83,6,16.79,11.49,11.73,27.2C-69.77,84.67-48.65,108.45-12,105.27c8-.71,20.19-7,23.64,3.83,9.59,30,29.74,16.56,46.86,12.61,8.34-1.92,18.25-10.17,24.36-3.28C93.41,130.37,106.31,129,119,129.78c14.54.87,24.31,5.42,22.21,21.94-1.94,15.4,5.35,16.49,17,12,8.16-3.17,16.82-5.41,22.91-12.41,8.07,1.38,14.19-3.94,22.85-7.39,0,5.45,0,9.65,0,13.84.05,7-.56,15.71,6.69,18.53,8.87,3.44,14.5-5.23,19.1-10.76,15.4-18.51,9.22-36.32-3.84-53.24-.42,1-.87,2-1.36,2.92a39.35,39.35,0,0,1-2.35,4,41.11,41.11,0,0,1-2.7,3.53,38.57,38.57,0,0,0,5.05-7.49c.48-.93.93-1.91,1.35-2.92,13.78-14.13,28.32-28,13.43-49.9-4.68-6.89-.83-13.08,5-15.11,40.39-14,52.9-44.21,50.22-83.68-.14.16-.29.32-.42.49l.4-.82c0,.11,0,.21,0,.33l3.83-4.43c11.84-28.32,35-10.3,53.09-13,2.48.2,5,.42,7.41.63a.52.52,0,0,1,0-.11Z" transform="translate(642.66 213.61)"/><path class="cls-6" d="M-128,194.31c-2.3,3.52-7.26,7.88-6.47,10.48,10.29,33.51,0,67.88,4.8,101.52l-5.74,4.11c-2,2.1-4,4.21-6.07,6.29l-14.76-1c-1.71-3.92-5-5.42-9-5.74-2.92-3.35-5.82-3.32-8.71,0l-14.18.69c-8.33-2.62-12.61,10.07-21.4,5.65l-.18-.23c-1.61-1.9-3.2-3.81-4.81-5.72l-4.94-6.33c-1.39-1.55-2.78-3.1-4.17-4.67-11.88-12.61-26.9-20.28-42.53-27l-.16.06-6.59-4.28s0,0,0,0q-2.66-1.94-5.3-3.9a3.59,3.59,0,0,0-3.62-2.1c-19.75-8.06-17.7-35.15-37.64-43l.15.29c-2.18-1.46-4.38-2.91-6.58-4.37-1.78-1.29-3.58-2.56-5.36-3.84l-17.23-17.23c-1.17-2.24-2.32-4.47-3.48-6.71a3.29,3.29,0,0,0-1.57-3.85c.44-3.26-1.24-4.84-4.25-5.37,0,0,0,0,0,0l-5.37-4.63a2,2,0,0,0-2.66-1.5l-7.75-5c-.81-6.85,4.06-14.06-1.25-20.63-1.19-1.87-2.38-3.73-3.56-5.6-.06-.11-.13-.21-.2-.33l.06.06c-2-3.2-4-6.42-6.08-9.63l-.11-.23q-2.2-3.17-4.42-6.31l.29.27c-5.5-11.68-11.33-23.13-21.12-31.94-.88-3.15-2.86-4.74-6.24-4.32l-6.51-5.69c.6-4.23,1.8-8.62-3-11.41,0,0,0-.11,0-.11-4.43-8.7-12.77-9.9-21.16-11l.23.32-6.58-3.38c-16.44-10.23-13-28-16.5-43.2C-470.37.88-475-8.53-489.6-9.38-517.9-17.48-528.66-43-544-64-560.7-87-589-95.12-608.72-114.89-619.34-125.54-629-136-636.88-148.71c-9-14.62-8.35-26,8.35-33.93,5.58-10.34,12.45-13.07,23.58-6.61,23.77,13.81,49.71,17.94,77,21.79,14.21,2,37.51,17.57,36.67,43.06q6,5.1,12,10.17l26.74,7.62c28.62-13.27,40.24-5.86,40,25.47,11.8,16.12,22,34.29,45.68,35,.81,0,2.14.4,2.37,1,11,27.12,49.69,24.68,58.07,54.73,2.75,9.84,12.78,7.26,19.78,9.94,13.05,5,18.94,23.84,40.6,14.16,8.89-4,15,16.11,7.45,26.71-16,22.61-3.73,30.79,16.17,35.5,27.27,6.43,22.82,36.93,39.73,51q5.73,7.85,11.43,15.72c14.26-9.91,21.45-2.54,26.23,10.66-2.17,2.69-4.36,5.46-6.92,7.34,2.57-1.87,4.75-4.64,6.93-7.32a30,30,0,0,1,10.7,6.53,20.84,20.84,0,0,1,5,7.9c.19.57.37,1.15.53,1.74a28.25,28.25,0,0,1,.79,4.81h0Z" transform="translate(642.66 213.61)"/><path class="cls-6" d="M1274.68,376c2.9-16,1.36-32-.78-48-.94-17.28,5.41-35.36-5.69-51.52l-.6-1.47c-9.36-12.27-2-21.84,5.1-31.45l-.39-16.52a17.77,17.77,0,0,1-1.53-3.21c-.09-.33.82-.94,1.27-1.42,1.65-11.44,2.21-22.84-1.65-34-14.63-34.65.17-72.86-13-107.69a1.67,1.67,0,0,0-2.58-.91c-2.4-7.28-7.31-10.45-13.49-10.45a22,22,0,0,0-4.9.59c-16.75,3.87-31.78-1-46.63-7.6h0c-5.21-8-14.13-7.28-21.89-9.31a23.84,23.84,0,0,0,1.39,2.41,22.11,22.11,0,0,1-1.4-2.41l-.62-.6h0c-4.78-12.76-16.11-10.18-26-11.06h0l-8.09-4.91L1101.9,41a2.09,2.09,0,0,0-2.94,1.1,5.61,5.61,0,0,0-.17.62,5.61,5.61,0,0,1,.16-.62c-19.82,5.39-37.28-5.15-55.46-5.76-1.23-11.13,18-14.34,5.82-26.11-12-11.62-24.13-24.81-42.71-17.38-11.21,4.48-19.84,13.23-5,25,6.09,4.81,13.16,9.57,8.66,19.3-11.14,7.37-13.9,13.09.57,21.22,13.12,7.37,25.84,7.88,39.61,5.28,6.14,12.81-8.41,15.68-11.52,24.05,0,0-.19.29-.19.29,2.3,8.39,3.2,16.06-8.7,17.29-.53-1.61-1.1-3.22-1.72-4.79-10.32,4.43-12.28,20.41-26.67,19.22-16.58-8.47-16.63-29.28-29.9-40.27-.64,5.74-3,7.9-8,3.6-13.16-11.37-15.54-26.37-14-42.57,1-10.16,4.86-20.24.57-30.49-1.63-3.88-3.24-7.76-4.87-11.65-11.41-6.66-27.85,5.34-36.93-9.95l-6-4.63c-14-1.85-28-2.86-41.94.38a5.29,5.29,0,0,1-3.42,1.57l-7.48,2.61C841.8-5.7,830-9,823.15-.57c-1.4.2-2.8.42-4.19.66-18.44,10-26.7,24.63-21.06,45.69,13.87,3.58,35-7.27,39.92,12.72,2.94,11.94,10.26,16.6,16.49,24,14.43-11.69,33.18,2,47.89-8.11-1.8,13.71-9.33,19.19-23,16.55-6.44-1.25-13.54-4.67-18.48,3.27l-5.88.16c-9,9.68-13.95,17.12,3.62,24.69,10.65,4.59,27.71,8.41,19.51,29.42-2.74,7,6.37,16.35,14.56,19.85s12.28-3.9,16.2-9.73q7.84-6.09,15.66-12.2c4.65,3.43,10,10.28,13.93,10.28a2.81,2.81,0,0,0,.65-.07c17.71-3.94,27.05-.27,33.85,18.55,2.33,6.46,17,16,31.2,15.32,50.73-2.43,89.92,27,131.68,49.26,4.66,2.48,6,5.16,3.37,10.29-5.59,10.76,2.66,17.69,7.49,25.86,12.27,20.81,31.73,42.18,28.76,65.27-3.53,27.59,10.08,21.62,22.87,18.1,11.84-3.28,20.47-1.81,28.56,6.63,7.94,8.27,15.51,16.92,24,24.63,5.07,4.62,8.13,15.84,18.6,8.53C1277.65,393.2,1279.6,385.28,1274.68,376ZM926.92,126.85a16.09,16.09,0,0,0,.5-1.66A15.38,15.38,0,0,1,926.92,126.85ZM1029.55,109c0,.42,0,.84-.07,1.26h0C1029.5,109.85,1029.52,109.43,1029.55,109Zm-.08,1.27c0,2.1.07,4.21.1,6.33C1025.27,114.56,1025.3,112.45,1029.47,110.28Zm35.63-11.47c0-.19-.07-.39-.12-.57,0,.18.09.38.13.58s.06.32.1.47C1065.17,99.13,1065.13,99,1065.1,98.81Zm124.49-36.42c.18.18.36.37.56.55l-.57-.54-1.39.19Zm27.35,279.36-.81.28c-1,.35-1.93.73-2.93,1.12-1.33.51-2.7,1-4.06,1.51,1.37-.48,2.73-1,4.06-1.51l2.93-1.13.81-.27a16.09,16.09,0,0,1,8.14-.62A16.42,16.42,0,0,0,1216.94,341.75Zm8.69-.51a15.48,15.48,0,0,1,1.91.55A17.44,17.44,0,0,0,1225.63,341.24ZM1267,315.7a15.68,15.68,0,0,0-1.29-1.92,14.62,14.62,0,0,1,1.29,1.92,22.44,22.44,0,0,1,1.1,2.13C1267.76,317.09,1267.39,316.37,1267,315.7Z" transform="translate(642.66 213.61)"/><path class="cls-7" d="M560.22,328.24c-13.42,12.63-21.58,34.41-46.86,26.46-2.93-.92-7.43-.08-10,1.67-31.78,21.34-65.3,13.63-98.84,6.46-6.88,12.82-13.28,26.14-30.25,28.11q-3.63-2.71-7.24-5.45l-2.45,5.57-1,.51c-5.39,3.05-10.76,5.12-16-.31q-.81-5.06-1.6-10.12c.29-4-1.83-6.24-5.46-7.38l-4.13-3.08c-2.16-1.66-4.31-3.32-6.47-5l-10-6.9c-4.1-6.34-10.37-1.88-15.49-3.13q-.14,4.79-.26,9.57c-10,16-19.59,2.91-28.43-1.13-33.66-15.36-68.38-5.33-102.19-3.31C136.7,363,104.17,351,70.7,340.17c-12.26-3.94-23.71-1.05-35.49,3.12-21.08,7.45-81.45-6.42-93.08-20.54,2.79-3.33,6.38-8-.14-9.66-13.64-3.51-27.68-6.37-41.53-.09l-13-7.23q-2-7-3.95-14l6.07-6.29,5.74-4.11c14.32,5.19,12.63-12.58,21.6-15.05h0c-1.7-28.44,14.57-22.55,31-16.27l20.87-1.85c23.82-.88,48.38,1.4,66.57,16.45,23.35,19.3,66.94,19.79,86.72-3.13,7-8.11,11.66-12.39,25.47-4.21,15.85,9.38,36,18,56.95,12.11,1.91.3,3.84.58,5.77.87A4.08,4.08,0,0,1,213,273a21.51,21.51,0,0,0,2.22,4.64c-5.21,13.87,4.83,18.87,14.13,24.31,12.32,9,26.07,5.24,39,3.26,15.57-2.37,25.41,2.46,29.95,17.61l10.33-4.73c25.56.63,50.81-21.76,77.11,1,10.39,9,17.56,15.27,6,26.95-5,5-12.7,8.89-6.58,16.8,5.86,7.56,12.81-1.14,19.38-.8,8.13-11.2,1.06-30.9,20.13-36a3.24,3.24,0,0,1,1.85-3.51L440.26,324h0c6,1.76,12.09,3.63,17.4-1.79,10.21-3.85,21.68-4.81,28.49-15.7,4.05-6.46,14.18-9.89,18.62-5.7,16.84,15.88,26.15,3.3,36.65-8.43,9,7.8-3.63,31,20,27.17C563.06,319.25,563.11,325.52,560.22,328.24Z" transform="translate(642.66 213.61)"/><path class="cls-6" d="M804.72,147.48c-2.87,10.85-11.53,19-20.4,12.35C750.67,134.67,711.2,137,673,132.54c-11,2.24-21.79,3.51-12.29-12.88,8.42-14.54,17.91-27.62,38.65-24.82,23.21,3.13,47-1.48,70.18,5.5C793.46,107.53,805.12,122.72,804.72,147.48Z" transform="translate(642.66 213.61)"/><path class="cls-6" d="M717.13,289.47c-7.41-10-15.64,4.19-23.41,7.95-15.13,7.31-30.74,21-47.36,9.83C621,290.17,603,300.76,584.82,317.67c2.93,3,4.31,7.26,7.06,10.17-2.75-2.91-4.13-7.14-7.06-10.17-9.39,5.54-15,15-8.78,23.56,7,9.68,19-.31,28.69,1.48-1.64,11.38-5.9,19.32-19.72,17.4-10.49-1.46-20.68-.51-27.07,9.95-6.91,4.47-13.8,9.54-10.05,18.95,3.05,7.63,10.39,9.22,17.87,7.69,9.29-1.91,14.46,3.71,20.45,9.2,19.89,18.21,32.5,16.82,52.82-5.09,5.85-3.71,5.88-10.14,1.58-12.9-15.83-10.13-16.85-26.44-19.78-42.18,12.3,3.12,23.83,3,32.93-7.65,18.68-3.6,40.16-.11,52.16-20.62C718,311.3,723.15,297.6,717.13,289.47Z" transform="translate(642.66 213.61)"/><path class="cls-6" d="M730.65-109.07c17.11,1.82,33.55-18.07,42.26-13.44,15.2,8.09,29,14.54,46,14,3.27-.11,6.48-2.49,9.71-3.83q0-9.18,0-18.33c-11.69-9.68-22.16-29.81-37.07-2.09-2.64,4.91-12.87,1.37-18.91-3.7-20.52-17.23-35.32,4.41-52.6,8.69-1.52.38-2.21,8.16-1.55,12.23C719.51-108.79,725.12-109.66,730.65-109.07Z" transform="translate(642.66 213.61)"/><path class="cls-6" d="M536.33,141.84l-.27.08.05.18Z" transform="translate(642.66 213.61)"/><path class="cls-6" d="M695.49-53.22l0-.09c-11.67-16-10-32.44-2.4-49.66,2.33-5.28-1.7-9.85-7.73-11.31-4.75,5.91-11.33,10.48-17.88,5.59-7.21-5.38-1.6-14.77-3-22.23h0a36.59,36.59,0,0,0,20.68-7.67l0,0c1.66-2.14,3.3-4.28,5-6.43.45-3.14.91-6.28,1.36-9.42a9.23,9.23,0,0,1-1.24-4.9l-10.38-2.18a5.78,5.78,0,0,1-4.47,2.13c-2,1.77-3.94,3.54-5.9,5.31q-2.61,2.53-5.21,5.1c-.31,1.79-.62,3.57-.93,5.37h0l-2.38,0-2.29-.63c-8.93,6.12-18.75,11.46-21.15,23.48-3.45,1.46-6.73,1.75-9.63-.59,3.18,7.82-.82,14-5.49,20-6.32,27.1,8.89,49.73,15.44,74.14-.33,3.38-.65,6.75-1,10.14-9.89,3-18.47,7.61-13.51,20,4.67,11.69,12.76,18.41,26.3,12.35-1.58,10-8.35,16.72-15,23.56-3.53,3.63-8.09,7.29-5.49,13.3s8.25,5,13.36,5.53c25.44,2.53,32.72-8.55,24.22-37l.31-.16c-.1-.21-.2-.39-.29-.59,7.28-4.78,15.4-8.81,16.65-18.91C677.63-14.16,661.68-24.89,664-43.6c10.89.35,24.73,19.25,31.68-5A3.61,3.61,0,0,1,695.49-53.22ZM659.12,15.15l-.43.34.06-.6c.15,0,.27,0,.4,0Z" transform="translate(642.66 213.61)"/><path class="cls-6" d="M627.32-122.7l-.43.39a10,10,0,0,0,1,1C627.74-121.8,627.55-122.25,627.32-122.7Z" transform="translate(642.66 213.61)"/><path class="cls-6" d="M793.6,332.6q1,.39,2,.69-1-.3-2-.69l-28.19,21.54c-8.42,4.95-16.72,10.37-15.83,21.72,1.71,21.74-6.24,38.7-23.21,52.22-4.23,3.37-11.9,8.4-6.26,14.74,6.31,7.09,13.12.55,18.15-3.82,11.84-10.29,21.35-25.54,34.94-31,25.79-10.38,37.1-29.93,45.63-53.38h0l4.27-5.49c26.94-7.34,19.9-35.55,33.39-51.87C837.74,314.39,808.45,311,793.6,332.6Z" transform="translate(642.66 213.61)"/><path class="cls-6" d="M-104.35,162.76c.2.56.38,1.14.53,1.74a26.15,26.15,0,0,1,.79,4.8h0c12.45,10.62,22.87,10,30.63-5.53h0c3.69-12.33,9.47-24.73-9.71-30.6-4.89-1.49-9.1-8.23-11.74-13.5-16.82-33.62-23.35-34.5-51-5.91h0l-12.84,8.15q5.73,7.86,11.43,15.73c14.26-9.91,21.45-2.54,26.23,10.65,0,0,0,0,0,0a30.08,30.08,0,0,1,10.7,6.52A20.78,20.78,0,0,1-104.35,162.76Zm9.24-10.27a12.37,12.37,0,0,0,4.74,5.69,12.37,12.37,0,0,1-4.74-5.69,44.56,44.56,0,0,0-11.82-17.39A44.56,44.56,0,0,1-95.11,152.49Z" transform="translate(642.66 213.61)"/><path class="cls-6" d="M618.41,82.25c-11.27-3.19-19.75,5.3-22.18,16.42-2,9.1-11.18,6.88-15.15,12.16-10.9,7.93-21.12,20.33-7.49,29.31,12,7.92,24.79,30.88,44.51,12.43,11.16-10.44,30.07-20.66,11.83-40.53C633.16,99.3,632.83,86.33,618.41,82.25Z" transform="translate(642.66 213.61)"/><path class="cls-6" d="M775,67.59l-.1.09-.1.1Z" transform="translate(642.66 213.61)"/><path class="cls-6" d="M760.39,46.86c-5.33,2.44-11.3,3.46-17,5.13l-.17.1-10.51,10.7c.12,1.92.24,3.85.35,5.77L739,73.13a14.9,14.9,0,0,1,4.65.55l5.29-.27,19.95-.64,6-5.09,5.25-5.52-.13,0C782.57,45.34,777.19,39.16,760.39,46.86Z" transform="translate(642.66 213.61)"/><path class="cls-6" d="M979.3,213.05c-10.81-3.2-14.16,6.79-18.4,14.09-19,17.63,4,43.78-13,62.49-7.21,7.94-.92,16.89,7.78,16.35,7.54-.46,20.37-10.54,16.19-16.22-13.93-18.9,9.79-18.5,11.93-28.35,8.61-8.2,7.43-18.84,6.07-28.84C988.88,225.12,987.68,215.54,979.3,213.05Z" transform="translate(642.66 213.61)"/><path class="cls-6" d="M-501.2,1.67l-5.43-3.61.07.11L-516.76-8l-11.31,1.69.51-2.23-5.3.7-10,5.92-5.62,5.73c2.82,13.11,12.32,21.6,19.91,31.85,9.64,13,17.89,18.4,32.3,9.51q2.13-4.83,4.25-9.67c3.44-11.23,2.49-21.82-4.51-31.55A6.52,6.52,0,0,1-501.2,1.67Z" transform="translate(642.66 213.61)"/><path class="cls-6" d="M659.15,14.92l0,.23-.43.34.06-.6C658.9,14.89,659,14.91,659.15,14.92Z" transform="translate(642.66 213.61)"/><path class="cls-6" d="M786-11l6.71,2.92s.62.18.61.18l14-2.72c13.17-4.35,5-13.59,4.83-21-9.05-1.59-18.67-1-26.54-7-6.76,5.42-13.79,10.71-9.38,21.09L783-12.68A3.86,3.86,0,0,1,786-11Z" transform="translate(642.66 213.61)"/><path class="cls-6" d="M775.8,284.92c-14.48,2.16-32.25-4-39.84,15.7,28.58,16.81,41.58,16.06,66.5-4,3.77,0,5.86-2.43,7.37-5.62,10.48-8.85,11.1-16.16-4.3-17.87C794.18,271.91,782.47,272.85,775.8,284.92Z" transform="translate(642.66 213.61)"/><path class="cls-6" d="M1270.41,188.42c-14.63-34.65.17-72.86-13-107.69,6.69-.34,9.62,3.85,9.7,9.51C1267.56,123,1274.82,155.51,1270.41,188.42Z" transform="translate(642.66 213.61)"/><path class="cls-6" d="M-435.87,114.94a5.36,5.36,0,0,1-2.4-4.41l-4.17-6.46c-6.87-8.63-13.44-4.06-20,.46q-.82,2.88-1.68,5.76c5,14.14,12.59,23.4,25.43,23-12.84.44-20.45-8.82-25.43-23-1.47,0-2.93-.07-4.39-.21l.11-.22-5.53,5.4.22-.25-5.51,6c.06,2.6.11,5.21.17,7.81l4.89,6.51,0,0c1.56,1.84,3.11,3.69,4.66,5.53l.3.4c11,10.43,24.21,7,37.05,5.69l.72-.71,4.54-4.58.24-11.21-5.88-12.15Zm-2.73,18.31a28.67,28.67,0,0,0,3.09-.29A28.67,28.67,0,0,1-438.6,133.25Z" transform="translate(642.66 213.61)"/><path class="cls-6" d="M860.25,241.66c-5.34,2.59-10.75,5-16.13,7.55.66,3.84,1.92,6.27,3.56,7.78-1.64-1.51-2.9-3.94-3.56-7.78-11.4,4.92-21.54,15-14.88,25.26,5.31,8.19,18.16-2.72,27.63-4.81,4.18-.93,7.26-6.89,10.83-10.56a13.14,13.14,0,0,0-2.46-.33,13.14,13.14,0,0,1,2.46.33c9-2.76,20.59-6.29,15.31-17.62C878.33,231.43,868,237.89,860.25,241.66Zm-8.93,17.24a13.87,13.87,0,0,0,1.61.29A13.87,13.87,0,0,1,851.32,258.9Z" transform="translate(642.66 213.61)"/><path class="cls-6" d="M690.26-159.54a.86.86,0,0,0,0,.16l.13,0Z" transform="translate(642.66 213.61)"/><path class="cls-6" d="M844.56-113.11C849.1-118.3,853.77-124,850-131s-10.22-3.13-15.73-1.89q-2.87,1.16-5.73,2.27,0,9.13,0,18.36C834.45-102.58,840.05-97.72,844.56-113.11Z" transform="translate(642.66 213.61)"/><path class="cls-6" d="M1101.89,41l31.36-4.58C1120.3,21,1111.5,33.75,1101.89,41Z" transform="translate(642.66 213.61)"/></g></g></g></svg>