<svg xmlns="http://www.w3.org/2000/svg" xmlns:xlink="http://www.w3.org/1999/xlink" viewBox="0 0 1920 659.57"><defs><style>.cls-1{fill:none;}.cls-2{fill:#d1ecf8;}.cls-3{clip-path:url(#clip-path);}.cls-4{fill:#1097a0;}.cls-5{fill:#d6d622;}.cls-6{fill:url(#radial-gradient);}.cls-7{fill:#d8d520;}.cls-8{fill:#81b73a;}</style><clipPath id="clip-path" transform="translate(410.91 194.21)"><path class="cls-1" d="M575.85,4.06c-5.25-3.75-9.35-1.32-13.41-.65C530.09,8.73,499.91,23.77,468,30.6c-23.27,5-49.83,11.24-67.21-9.93-18-21.89-34-24.27-57.94-16.94-25.4,7.77-52.63,5.89-79.16,6.55-35.36.88-67.14,12.86-95,38-6.46,5.82-9.31,14.87-16.85,19.52C88.31,106.84,42.91,166.6,3.5,233.12c-1.56,2.63-5,5.14-2.74,8.75,2,3.06,5.54,2,8.43,1.59,26-3.35,52.22-.38,78.26-2.18,17.31-1.21,30.83,3.69,43.67,18,19.48,21.68,36.88,21.06,58.26,2,5-4.49,10.08-9,14.84-13.85C234,217,266.92,205.24,307,219.7c35.24,12.72,67,1.51,95.81-24.59C457.12,146,504.11,88.38,553,33,561,24,568.13,13.91,575.85,4.06Z"/></clipPath><radialGradient id="radial-gradient" cx="1044.11" cy="212.42" r="358.03" gradientUnits="userSpaceOnUse"><stop offset="0" stop-color="#d45127"/><stop offset="1" stop-color="#2383c5" stop-opacity="0"/></radialGradient></defs><g id="Layer_2" data-name="Layer 2"><g id="Layer_1-2" data-name="Layer 1"><path class="cls-2" d="M575.85,4.06c-5.25-3.75-9.35-1.32-13.41-.65C530.09,8.73,499.91,23.77,468,30.6c-23.27,5-49.83,11.24-67.21-9.93-18-21.89-34-24.27-57.94-16.94-25.4,7.77-52.63,5.89-79.16,6.55-35.36.88-67.14,12.86-95,38-6.46,5.82-9.31,14.87-16.85,19.52C88.31,106.84,42.91,166.6,3.5,233.12c-1.56,2.63-5,5.14-2.74,8.75,2,3.06,5.54,2,8.43,1.59,26-3.35,52.22-.38,78.26-2.18,17.31-1.21,30.83,3.69,43.67,18,19.48,21.68,36.88,21.06,58.26,2,5-4.49,10.08-9,14.84-13.85C234,217,266.92,205.24,307,219.7c35.24,12.72,67,1.51,95.81-24.59C457.12,146,504.11,88.38,553,33,561,24,568.13,13.91,575.85,4.06Z" transform="translate(410.91 194.21)"/><g class="cls-3"><path class="cls-4" d="M103.73,213.7c-2.3,3.53-7.26,7.89-6.46,10.48,10.28,33.52,0,67.89,4.79,101.53l-5.73,4.11q-3,3.15-6.08,6.29c-4.91-.34-9.83-.69-14.76-1-1.7-3.92-4.95-5.42-9-5.74-2.92-3.35-5.82-3.32-8.71,0l-14.18.69c-8.33-2.62-12.6,10.06-21.4,5.65l-.18-.24-4.8-5.71c-1.65-2.11-3.31-4.22-4.95-6.33l-4.17-4.67c-11.88-12.61-26.9-20.28-42.53-27l-.16.06-6.58-4.27s0,0,0,0l-5.31-3.9a3.57,3.57,0,0,0-3.62-2.1c-19.75-8.07-17.69-35.16-37.64-43l.16.3-6.59-4.38c-1.78-1.28-3.58-2.55-5.35-3.83l-17.24-17.23-3.48-6.71a3.29,3.29,0,0,0-1.57-3.85c.44-3.26-1.24-4.84-4.25-5.37l0,0-5.37-4.63a2,2,0,0,0-2.66-1.5c-2.57-1.68-5.16-3.37-7.74-5-.82-6.85,4.05-14.06-1.26-20.63l-3.56-5.6c-.06-.12-.13-.22-.19-.33l0,.06c-2-3.2-4-6.42-6.07-9.63l-.12-.23c-1.47-2.11-2.94-4.22-4.41-6.31l.28.26c-5.5-11.67-11.32-23.12-21.12-31.93-.88-3.15-2.86-4.74-6.24-4.32l-6.5-5.7c.59-4.22,1.8-8.62-3-11.41,0,0,0-.1,0-.1-4.43-8.71-12.77-9.9-21.16-11l.23.32c-2.19-1.14-4.39-2.26-6.58-3.39-16.44-10.23-13-28-16.5-43.2-.64-12.84-5.28-22.24-19.87-23.1-28.3-8.09-39.06-33.62-54.38-54.65C-329-67.58-357.28-75.72-377-95.49c-10.61-10.66-20.3-21.11-28.15-33.82-9-14.63-8.36-26,8.35-33.94,5.57-10.33,12.44-13.06,23.57-6.6,23.78,13.81,49.71,17.94,77,21.78,14.21,2,37.5,17.57,36.66,43.07l12,10.17,26.75,7.62c28.61-13.27,40.23-5.86,40,25.47,11.79,16.12,22,34.29,45.67,35,.82,0,2.15.41,2.37,1C-121.83,1.35-83.1-1.08-74.72,29c2.75,9.85,12.78,7.26,19.79,9.95,13,5,18.94,23.84,40.59,14.16,8.89-4,15,16.11,7.45,26.71-16,22.6-3.73,30.79,16.17,35.49,27.28,6.43,22.82,36.94,39.74,51q5.71,7.86,11.43,15.72c14.26-9.9,21.44-2.53,26.23,10.67-2.18,2.69-4.37,5.46-6.92,7.34,2.56-1.87,4.74-4.64,6.93-7.32a29.91,29.91,0,0,1,10.69,6.53,20.76,20.76,0,0,1,5,7.9c.19.56.38,1.15.53,1.74a28.13,28.13,0,0,1,.79,4.8h0Z" transform="translate(410.91 194.21)"/><path class="cls-4" d="M1506.42,395.43c2.9-16.05,1.36-32-.78-48-.94-17.27,5.41-35.36-5.69-51.52l-.59-1.46c-9.37-12.28-2-21.84,5.1-31.45q-.21-8.25-.4-16.52a19.19,19.19,0,0,1-1.53-3.21c-.09-.33.82-.94,1.27-1.42,1.65-11.44,2.21-22.84-1.64-34-14.64-34.66.16-72.86-13-107.7a1.68,1.68,0,0,0-2.58-.91c-2.39-7.28-7.31-10.44-13.49-10.44a22,22,0,0,0-4.9.59c-16.75,3.86-31.77-1-46.63-7.61h0c-5.21-8-14.12-7.28-21.88-9.3a22.61,22.61,0,0,0,1.39,2.4,21,21,0,0,1-1.4-2.4l-.63-.6h0c-4.78-12.76-16.11-10.18-26-11.06h0L1365,55.86l-31.35,4.58a2.08,2.08,0,0,0-2.93,1.09,4.17,4.17,0,0,0-.18.63,4.16,4.16,0,0,1,.17-.63c-19.83,5.4-37.29-5.14-55.47-5.75-1.23-11.13,18-14.34,5.83-26.11s-24.14-24.81-42.71-17.38c-11.22,4.48-19.85,13.23-5,25,6.09,4.82,13.16,9.57,8.67,19.3-11.15,7.37-13.91,13.1.56,21.23,13.12,7.37,25.84,7.88,39.61,5.28,6.14,12.81-8.41,15.67-11.52,24,0,0-.18.3-.18.3,2.3,8.38,3.2,16.06-8.7,17.29q-.79-2.43-1.73-4.8c-10.32,4.44-12.28,20.42-26.67,19.23-16.58-8.47-16.62-29.29-29.9-40.28-.64,5.75-3,7.91-8,3.6-13.15-11.36-15.53-26.36-14-42.56,1-10.16,4.87-20.24.57-30.5l-4.86-11.64c-11.42-6.67-27.86,5.34-36.94-10l-6-4.63c-14-1.85-28-2.85-41.94.39a5.28,5.28,0,0,1-3.42,1.56l-7.48,2.61c-7.88,6-19.65,2.74-26.53,11.12-1.4.21-2.8.42-4.19.67-18.44,10-26.7,24.62-21,45.68,13.87,3.59,35-7.27,39.91,12.73,2.94,11.94,10.27,16.6,16.49,24,14.44-11.69,33.18,2,47.89-8.12-1.79,13.71-9.33,19.19-23,16.55-6.44-1.24-13.54-4.67-18.48,3.28l-5.88.16c-9,9.68-14,17.11,3.62,24.69,10.65,4.59,27.72,8.41,19.52,29.42-2.74,7,6.37,16.34,14.55,19.85s12.28-3.91,16.21-9.73l15.66-12.2c4.64,3.43,10,10.27,13.92,10.27a2.81,2.81,0,0,0,.65-.07c17.71-3.93,27-.26,33.85,18.56,2.33,6.46,17,16,31.2,15.32,50.73-2.43,89.93,27,131.68,49.25,4.67,2.49,6,5.16,3.37,10.3-5.58,10.76,2.67,17.69,7.49,25.86,12.27,20.8,31.73,42.18,28.77,65.27-3.54,27.59,10.08,21.62,22.86,18.09,11.84-3.28,20.47-1.81,28.57,6.64,7.93,8.27,15.5,16.92,24,24.62,5.07,4.62,8.12,15.85,18.59,8.54C1509.39,412.59,1511.35,404.68,1506.42,395.43ZM1158.66,146.25a15.17,15.17,0,0,0,.5-1.66A14.53,14.53,0,0,1,1158.66,146.25Zm102.64-17.84c0,.42-.06.84-.08,1.26h0Zm-.09,1.27c0,2.1.08,4.21.11,6.32C1257,134,1257,131.84,1261.21,129.68Zm35.63-11.47c0-.2-.07-.39-.11-.58,0,.19.08.38.12.59s.06.31.1.47C1296.91,118.52,1296.87,118.37,1296.84,118.21Zm124.49-36.43.56.56-.57-.55c-.47.08-.93.14-1.39.2Zm27.35,279.36-.8.29q-1.44.52-2.94,1.11c-1.33.51-2.7,1-4.06,1.52,1.37-.49,2.73-1,4.06-1.52l2.94-1.12c.27-.1.54-.2.8-.28a16.19,16.19,0,0,1,8.14-.61A16.41,16.41,0,0,0,1448.68,361.14Zm8.69-.5a15,15,0,0,1,1.91.54A16.8,16.8,0,0,0,1457.37,360.64Zm41.37-25.54a16.62,16.62,0,0,0-1.29-1.93,15.44,15.44,0,0,1,1.29,1.93c.4.67.76,1.39,1.11,2.12C1499.5,336.49,1499.13,335.77,1498.74,335.1Z" transform="translate(410.91 194.21)"/><path class="cls-5" d="M858.31-113c-9-1.3-17.51-.85-24.7,5.61l-33.4,20.05c-7,5-14,7.09-21.34.77-7.08-.26-14.14-.5-21.21-.77-1.62,3.16-3.37,3.18-5.22.21l-5.24-1.39-6.52-3.55a3.46,3.46,0,0,1-3.82-1.44l-6.49-3.26Q715.19-97.92,700-99.06c-16-9-32-20.09-48.25-.35L646.19-98c-1.5,4.49-3.15,3.77-4.86.12a40.3,40.3,0,0,1-5.27,0c-1.86,1.51-3.71,3-5.57,4.53l-.46.44Q622-82.55,613.94-72.2a40.34,40.34,0,0,1-4.39.63l-9.92,11.2c2.19,10.56-6.77,17.3-9.07,26.32-2.87-16.75-22.8-18.08-29-31.81-26.06-6.29-16.17-26.21-16.07-42.4l.1.08c-14.44-14.18-24.14-29.08-7.42-48.08q-.66-6.41-1.33-12.82l-2-9.49c-2.84-.67-3.78-2.4-2.89-5.16a9.09,9.09,0,0,1-2.05-4.14l-10.55-1.32c-16.7,20.52-30.55.3-45.57-3.2l-15.31,0,0,1.41-.62-1.27a3,3,0,0,1-1.88-1.92L445-187.8c-.06,12.27.62,24.61-.45,36.81-.81,9.42-2.2,19.91-15.64,20.31l-10.4.18-4.93,6.58c-2.33,12.25,13.66,29.5-9.8,36-3.52,8.42-10.59,13.26-17.93,17.84-30.26,25.81-32.74,25.93-50.93,2.25-20.51-12.79-39.79-16.1-57.76,5.11a16.53,16.53,0,0,1-19.25,4.17c-5.05,1.07-11.71.45-14.88,3.48-14.59,14-27.13,8.33-39.78-2.36-17.92-11.48-24.48-31.69-36.62-47.6l-1.1-1-11.34-1.76c-.08,1.3-.15,2.6-.2,3.9l-5.82.23-4.93,2s-1.55,1.07-1.55,1.1a9.48,9.48,0,0,1,.2,1C137.94-90.1,134.25-80.44,130-71c-9.25,20.49-30.94,41.22,2,60.42,1.74,1,3.19,5,2.64,7.07C127.91,21.1,144.94,30.71,161.79,41c9.84,6,16.8,11.49,11.74,27.2-11.55,35.85,9.56,59.63,46.18,56.45,8-.71,20.19-7,23.65,3.83,9.58,30,29.73,16.56,46.86,12.6,8.34-1.92,18.24-10.17,24.36-3.28,10.58,11.94,23.48,10.6,36.13,11.36,14.54.87,24.31,5.42,22.22,21.94-1.95,15.39,5.34,16.49,17,12,8.15-3.17,16.81-5.41,22.9-12.41,8.07,1.38,14.19-4,22.85-7.39,0,5.45,0,9.65,0,13.84.05,7-.56,15.71,6.7,18.53,8.86,3.44,14.49-5.23,19.09-10.76,15.41-18.52,9.22-36.32-3.84-53.24-.42,1-.87,2-1.36,2.91a37.71,37.71,0,0,1-2.35,4,41.11,41.11,0,0,1-2.7,3.53,43.25,43.25,0,0,0,2.7-3.53,41.5,41.5,0,0,0,2.35-4q.72-1.4,1.35-2.91c13.78-14.13,28.32-28,13.43-49.91-4.68-6.89-.83-13.07,5-15.11,40.39-14,52.9-44.21,50.22-83.68l-.42.49.4-.81c0,.11,0,.21,0,.32l3.84-4.42c11.83-28.32,35-10.31,53.08-13l7.41.64a.52.52,0,0,1,0-.11l5.93,5.39c-16.51,31.75-20.28,68-35.16,100.3h0c-14.21,9.3-10.62,23.37-9.84,36.69,22.44-10,30.17.52,30.25,21.69,6.59,13.23,4.16,25.5-4,37.14L571,188.12c.46,2,.93,4.08,1.39,6.11l5.24,4.72.16.12,6.15,4.65-.22-.33c17.58-10.26,40.25,7.84,56.45-10.1.21-3,.43-5.95.63-8.92a31.91,31.91,0,0,1-4.29-1.25c-1.09-8.26-8-16.41-8-24.69,0-4.27,1.85-8.59,7.3-13,.21-3.34.43-6.69.64-10q.18-13.23.38-26.48-.74-10.78-1.47-21.6c-1.14,0-2.28.05-3.41.08,1.13,0,2.27-.07,3.41-.09q-2.32-7.5-4.69-15h0c30.28-.57,30.28-.57,15.19,36.48l11.57,21.12c1.72.4,3.43.85,5.12,1.37,22.52,5.06,8.76,18.64,6.91,29.42l9,11.81,9.64.72,11-.58c1.21,6.46,4.24,9.84,9.23,9.84a16.59,16.59,0,0,0,5.62-1.12c14-5.06,10.72,5.82,11.76,12.71-.84,13.73,6.92,12.61,16,9.25l5.54-4.36,5.58-4.92.2-.22,4.83-5.69-.13.09c3.26-9-5.45-22.64,10.15-26.91q-3-10.59-6-21.2c1.53-1.59,3.07-3.19,4.62-4.78-1.06-3.53-2.1-7.07-3.15-10.59l-21,2.9L730,110.48l-.18.26c-12.58-.42-16.27-6.72-12-18.24,6-3.37,10.25-7.67,8.3-15.34-5.36-1.75-8.57-5.66-10.72-10.63l-8.85-9.93a71.48,71.48,0,0,1-6,4.55c2.07-1.49,4.14-3,6-4.56-17-23.43-13.74-28.85,20.19-34.22q-.07,6.06-.13,12.11l5,1.9a3.77,3.77,0,0,1,4.53,1.52l6.23-1.34,4.56-2.65a2.39,2.39,0,0,0-.12.22c6.56-5.07,14-4.57,21.61-3.58l5.39-1.24q5-5.43,10.11-10.85c.18-3.43.37-6.84.55-10.27L781.83,8l-2.51.64h0l-4.72-2.5c-6.75.76-6.12-4.19-6.51-8.38,1.68-.52,3.38-1,5.08-1.33,1.09-3.21,2.16-6.42,3.24-9.64l-7.78-10.52L752.8-24.87c-16.53,7.28-33.5,13.8-51.8,12.74-17-1-25.33,13.14-38.11,19.36C659.26.11,659.17-11.26,646-6.92c-4.79-11.73-21.69-15-21.09-30.68.38-9.58-.55-19.43,11.4-23.17h0L779.54-46.22c10.3-.12,21.19,3.78,30.29-4.48a15,15,0,0,1,1.4-4.62c1.58-.29,3.15-.63,4.69-1.06L841.33-82.6c.36-11.45,8.78-16,17.29-20.47C858.53-106.38,858.42-109.69,858.31-113ZM144-74.5l.84-1.44L144-74.5l-1.52,2.69Zm-.67,45.07c.84.71,1.74,1.4,2.71,2.11C145.06-28,144.16-28.72,143.32-29.43Zm42,63A19.92,19.92,0,0,1,187,35.78,22.28,22.28,0,0,0,185.29,33.54ZM190,51.44c-.11.93-.26,1.89-.44,2.91.18-1,.32-2,.44-2.91.73-6.4-.29-11.06-2.53-14.85C189.73,40.37,190.76,45,190,51.44Zm17.75,56.05a37.34,37.34,0,0,1-9.1-3.53,38.17,38.17,0,0,0,9.1,3.53c1.14.29,2.32.55,3.55.78C210.09,108,208.91,107.79,207.77,107.49Zm354-35.25a11,11,0,0,1,1.6,2.11A11.71,11.71,0,0,0,561.81,72.24Zm24,16.75a4.5,4.5,0,0,1,2-.26A4.83,4.83,0,0,0,585.83,89Zm156.66,41.66a11.68,11.68,0,0,0-.15-2.32A10.93,10.93,0,0,1,742.49,130.65Zm15.37-133c-1.35-.11-2.68-.19-4-.18C755.18-2.59,756.52-2.51,757.86-2.4ZM742.38,6c-.22.74-.42,1.55-.6,2.41h0C742,7.51,742.15,6.7,742.38,6ZM665.51,26.38a4.1,4.1,0,0,1-.62.53A6.6,6.6,0,0,0,665.51,26.38ZM630.64,62c2.9-.69,5.78-1.42,8.67-2.13-2.89.71-5.77,1.45-8.67,2.14Z" transform="translate(410.91 194.21)"/><path class="cls-4" d="M1036.46,166.87c-2.87,10.86-11.53,19-20.4,12.35-33.64-25.15-73.12-22.81-111.29-27.28-11,2.24-21.79,3.51-12.29-12.88,8.42-14.55,17.91-27.62,38.65-24.82,23.22,3.13,47-1.48,70.18,5.5C1025.2,126.93,1036.86,142.12,1036.46,166.87Z" transform="translate(410.91 194.21)"/><path class="cls-4" d="M948.88,308.87c-7.41-10-15.65,4.19-23.42,7.95-15.13,7.3-30.73,21-47.36,9.82-25.36-17.07-43.34-6.48-61.54,10.42,2.93,3,4.31,7.27,7.06,10.17-2.75-2.9-4.13-7.14-7.06-10.17-9.39,5.55-15,15-8.77,23.56,7,9.69,19-.3,28.68,1.49-1.63,11.38-5.9,19.31-19.72,17.39-10.49-1.45-20.68-.5-27.07,10-6.9,4.46-13.8,9.54-10,19,3,7.63,10.39,9.22,17.87,7.68,9.29-1.9,14.46,3.72,20.46,9.2,19.88,18.21,32.5,16.82,52.81-5.08,5.85-3.71,5.89-10.14,1.58-12.9-15.83-10.14-16.84-26.45-19.77-42.18,12.29,3.12,23.82,3,32.92-7.65,18.68-3.6,40.17-.12,52.16-20.63C949.77,330.7,954.89,317,948.88,308.87Z" transform="translate(410.91 194.21)"/><path class="cls-4" d="M962.39-89.67c17.12,1.82,33.56-18.07,42.26-13.44,15.2,8.08,29,14.54,46,14,3.28-.1,6.48-2.49,9.71-3.82q0-9.18,0-18.34c-11.69-9.67-22.15-29.81-37.07-2.09-2.64,4.92-12.87,1.38-18.91-3.7-20.52-17.22-35.32,4.41-52.6,8.7-1.51.37-2.21,8.16-1.55,12.23C951.26-89.39,956.86-90.26,962.39-89.67Z" transform="translate(410.91 194.21)"/><path class="cls-4" d="M768.07,161.24l-.26.08.05.18Z" transform="translate(410.91 194.21)"/><path class="cls-4" d="M927.24-33.82l0-.09c-11.68-16-10-32.44-2.41-49.66,2.33-5.28-1.69-9.85-7.72-11.31C912.32-89,905.74-84.4,899.2-89.29c-7.22-5.39-1.61-14.77-3-22.23h0a36.59,36.59,0,0,0,20.68-7.67l0,0,5-6.43c.45-3.14.91-6.29,1.36-9.43A9.19,9.19,0,0,1,922-140l-10.37-2.18a5.82,5.82,0,0,1-4.48,2.13l-5.9,5.3-5.21,5.1-.93,5.38h0l-2.37,0-2.29-.63c-8.94,6.12-18.76,11.46-21.15,23.48-3.46,1.46-6.74,1.75-9.63-.59,3.18,7.82-.83,14-5.49,20-6.33,27.1,8.88,49.72,15.43,74.13-.32,3.39-.65,6.76-1,10.14-9.88,3.05-18.47,7.62-13.51,20,4.67,11.68,12.77,18.41,26.3,12.35-1.57,10-8.35,16.71-15,23.56-3.52,3.63-8.09,7.29-5.49,13.3s8.25,5,13.37,5.53c25.43,2.53,32.72-8.56,24.21-37l.31-.16c-.09-.2-.2-.39-.29-.58,7.28-4.79,15.4-8.81,16.65-18.91C909.37,5.24,893.42-5.5,895.78-24.2c10.89.34,24.73,19.25,31.68-5.05A3.61,3.61,0,0,1,927.24-33.82ZM890.87,34.55l-.43.33.06-.59c.14,0,.26,0,.4,0Z" transform="translate(410.91 194.21)"/><path class="cls-4" d="M859.06-103.3l-.42.38a9.92,9.92,0,0,0,1,1C859.48-102.41,859.29-102.85,859.06-103.3Z" transform="translate(410.91 194.21)"/><path class="cls-4" d="M1025.34,352q1,.38,2,.69-1-.31-2-.69l-28.19,21.53c-8.42,5-16.72,10.38-15.83,21.72C983,417,975.09,434,958.12,447.47c-4.24,3.37-11.91,8.41-6.27,14.75,6.32,7.09,13.12.55,18.16-3.83,11.83-10.28,21.35-25.54,34.93-31,25.79-10.38,37.1-29.93,45.64-53.37h0c1.42-1.83,2.85-3.66,4.27-5.5,26.94-7.33,19.91-35.54,33.4-51.86C1069.48,333.79,1040.2,330.4,1025.34,352Z" transform="translate(410.91 194.21)"/><path class="cls-4" d="M127.39,182.16c.2.55.38,1.14.54,1.74a27,27,0,0,1,.78,4.8h0c12.45,10.63,22.88,10,30.63-5.53h0c3.69-12.32,9.48-24.72-9.71-30.59-4.88-1.5-9.1-8.23-11.74-13.5-16.81-33.63-23.35-34.5-51.05-5.91h0L74,141.31q5.73,7.86,11.43,15.73c14.26-9.9,21.45-2.54,26.23,10.66,0,0,0,0,0,0a29.93,29.93,0,0,1,10.7,6.52A20.78,20.78,0,0,1,127.39,182.16Zm9.25-10.27a12.34,12.34,0,0,0,4.73,5.69,12.44,12.44,0,0,1-4.74-5.7,44.7,44.7,0,0,0-11.82-17.39A44.79,44.79,0,0,1,136.64,171.89Z" transform="translate(410.91 194.21)"/><path class="cls-4" d="M850.15,101.64c-11.27-3.18-19.75,5.3-22.17,16.43-2,9.09-11.19,6.87-15.16,12.16-10.89,7.92-21.11,20.33-7.49,29.31,12,7.92,24.79,30.88,44.51,12.43,11.16-10.44,30.08-20.66,11.83-40.53C864.9,118.69,864.58,105.72,850.15,101.64Z" transform="translate(410.91 194.21)"/><path class="cls-4" d="M1006.71,87l-.11.1-.1.1Z" transform="translate(410.91 194.21)"/><path class="cls-4" d="M992.13,66.26c-5.33,2.44-11.3,3.46-17,5.13l-.18.1-10.51,10.7.36,5.77,5.92,4.56a15.51,15.51,0,0,1,4.65.55l5.29-.26,19.95-.65,6-5.08,5.25-5.52-.13,0C1014.31,64.74,1008.93,58.56,992.13,66.26Z" transform="translate(410.91 194.21)"/><path class="cls-4" d="M1211,232.45c-10.81-3.2-14.16,6.79-18.4,14.08-19,17.64,4,43.78-13,62.5-7.21,7.94-.92,16.89,7.79,16.35,7.53-.46,20.36-10.55,16.18-16.22-13.93-18.91,9.79-18.5,11.93-28.35,8.61-8.2,7.43-18.85,6.07-28.84C1220.62,244.52,1219.42,234.93,1211,232.45Z" transform="translate(410.91 194.21)"/><path class="cls-4" d="M-269.46,21.07l-5.43-3.61.07.1L-285,11.37l-11.31,1.68.52-2.23-5.31.71-10,5.92-5.62,5.73c2.82,13.1,12.32,21.59,19.92,31.85,9.63,13,17.88,18.4,32.3,9.51q2.12-4.85,4.25-9.67c3.43-11.23,2.48-21.83-4.52-31.56A6.51,6.51,0,0,1-269.46,21.07Z" transform="translate(410.91 194.21)"/><path class="cls-4" d="M890.9,34.32l0,.23-.43.33.06-.59C890.64,34.29,890.76,34.31,890.9,34.32Z" transform="translate(410.91 194.21)"/><path class="cls-4" d="M1017.79,8.36c2.23,1,4.47,2,6.71,2.92l.61.18,14-2.72c13.17-4.34,5.05-13.59,4.84-21-9-1.59-18.68-1-26.55-7-6.76,5.41-13.78,10.71-9.37,21.08l6.7,5A3.89,3.89,0,0,1,1017.79,8.36Z" transform="translate(410.91 194.21)"/><path class="cls-4" d="M1007.54,304.32c-14.48,2.16-32.25-4-39.84,15.69,28.59,16.82,41.58,16.06,66.5-3.95,3.78,0,5.86-2.44,7.37-5.62,10.48-8.86,11.1-16.16-4.3-17.88C1025.92,291.3,1014.21,292.25,1007.54,304.32Z" transform="translate(410.91 194.21)"/><path class="cls-4" d="M1502.16,207.82c-14.64-34.66.16-72.86-13-107.7,6.69-.33,9.62,3.86,9.71,9.52C1499.3,142.39,1506.56,174.91,1502.16,207.82Z" transform="translate(410.91 194.21)"/><path class="cls-4" d="M-204.13,134.34a5.38,5.38,0,0,1-2.4-4.41c-1.39-2.16-2.78-4.31-4.16-6.47-6.87-8.62-13.44-4.06-20,.47l-1.68,5.76c5,14.14,12.58,23.39,25.42,23-12.84.43-20.45-8.82-25.43-23-1.47,0-2.93-.08-4.39-.21l.11-.23-5.53,5.4.22-.24-5.51,6c.06,2.6.12,5.21.17,7.81l4.9,6.51,0,0,4.65,5.53.3.39c11,10.44,24.21,7,37.05,5.69l.73-.7q2.26-2.3,4.54-4.58.1-5.61.23-11.21l-5.88-12.16Zm-2.73,18.3a28.36,28.36,0,0,0,3.09-.28A28.36,28.36,0,0,1-206.86,152.64Z" transform="translate(410.91 194.21)"/><path class="cls-4" d="M1092,261.06c-5.34,2.59-10.75,5-16.13,7.55.67,3.84,1.92,6.26,3.57,7.77-1.65-1.51-2.9-3.93-3.57-7.77-11.4,4.92-21.54,15-14.87,25.25,5.3,8.2,18.15-2.72,27.62-4.81,4.19-.92,7.26-6.88,10.83-10.56a14.89,14.89,0,0,0-2.46-.33,14.89,14.89,0,0,1,2.46.33c9-2.75,20.6-6.28,15.31-17.62C1110.07,250.83,1099.76,257.29,1092,261.06Zm-8.93,17.23a11,11,0,0,0,1.62.29A11,11,0,0,1,1083.06,278.29Z" transform="translate(410.91 194.21)"/><path class="cls-4" d="M922-140.15v.17l.13,0Z" transform="translate(410.91 194.21)"/><path class="cls-4" d="M1076.31-93.71c4.53-5.19,9.2-10.89,5.45-17.94s-10.22-3.14-15.73-1.89c-1.91.76-3.82,1.53-5.73,2.26q0,9.15,0,18.37C1066.2-83.18,1071.79-78.32,1076.31-93.71Z" transform="translate(410.91 194.21)"/><path class="cls-4" d="M1333.64,60.44,1365,55.85C1352.05,40.34,1343.24,53.14,1333.64,60.44Z" transform="translate(410.91 194.21)"/><path class="cls-6" d="M1506.42,395.43c2.9-16.05,1.36-32-.78-48-.94-17.27,5.41-35.36-5.69-51.52l-.59-1.46c-9.37-12.28-2-21.84,5.1-31.45q-.21-8.25-.4-16.52a19.19,19.19,0,0,1-1.53-3.21c-.09-.33.82-.94,1.27-1.42,1.65-11.44,2.21-22.84-1.64-34-14.64-34.66.16-72.86-13-107.7a1.68,1.68,0,0,0-2.58-.91c-2.39-7.28-7.31-10.44-13.49-10.44a22,22,0,0,0-4.9.59c-16.75,3.86-31.77-1-46.63-7.61h0c-5.21-8-14.12-7.28-21.88-9.3a22.61,22.61,0,0,0,1.39,2.4,21,21,0,0,1-1.4-2.4l-.63-.6h0c-4.78-12.76-16.11-10.18-26-11.06h0L1365,55.86l-31.35,4.58a2.08,2.08,0,0,0-2.93,1.09,4.17,4.17,0,0,0-.18.63,4.16,4.16,0,0,1,.17-.63c-19.83,5.4-37.29-5.14-55.47-5.75-1.23-11.13,18-14.34,5.83-26.11s-24.14-24.81-42.71-17.38c-11.22,4.48-19.85,13.23-5,25,6.09,4.82,13.16,9.57,8.67,19.3-11.15,7.37-13.91,13.1.56,21.23,13.12,7.37,25.84,7.88,39.61,5.28,6.14,12.81-8.41,15.67-11.52,24,0,0-.18.3-.18.3,2.3,8.38,3.2,16.06-8.7,17.29q-.79-2.43-1.73-4.8c-10.32,4.44-12.28,20.42-26.67,19.23-16.58-8.47-16.62-29.29-29.9-40.28-.64,5.75-3,7.91-8,3.6-13.15-11.36-15.53-26.36-14-42.56,1-10.16,4.87-20.24.57-30.5l-4.86-11.64c-11.42-6.67-27.86,5.34-36.94-10l-6-4.63c-14-1.85-28-2.85-41.94.39a5.28,5.28,0,0,1-3.42,1.56l-7.48,2.61c-7.88,6-19.65,2.74-26.53,11.12-1.4.21-2.8.42-4.19.67-18.44,10-26.7,24.62-21,45.68,13.87,3.59,35-7.27,39.91,12.73,2.94,11.94,10.27,16.6,16.49,24,14.44-11.69,33.18,2,47.89-8.12-1.79,13.71-9.33,19.19-23,16.55-6.44-1.24-13.54-4.67-18.48,3.28l-5.88.16c-9,9.68-14,17.11,3.62,24.69,10.65,4.59,27.72,8.41,19.52,29.42-2.74,7,6.37,16.34,14.55,19.85s12.28-3.91,16.21-9.73l15.66-12.2c4.64,3.43,10,10.27,13.92,10.27a2.81,2.81,0,0,0,.65-.07c17.71-3.93,27-.26,33.85,18.56,2.33,6.46,17,16,31.2,15.32,50.73-2.43,89.93,27,131.68,49.25,4.67,2.49,6,5.16,3.37,10.3-5.58,10.76,2.67,17.69,7.49,25.86,12.27,20.8,31.73,42.18,28.77,65.27-3.54,27.59,10.08,21.62,22.86,18.09,11.84-3.28,20.47-1.81,28.57,6.64,7.93,8.27,15.5,16.92,24,24.62,5.07,4.62,8.12,15.85,18.59,8.54C1509.39,412.59,1511.35,404.68,1506.42,395.43ZM1158.66,146.25a15.17,15.17,0,0,0,.5-1.66A14.53,14.53,0,0,1,1158.66,146.25Zm102.64-17.84c0,.42-.06.84-.08,1.26h0Zm-.09,1.27c0,2.1.08,4.21.11,6.32C1257,134,1257,131.84,1261.21,129.68Zm35.63-11.47c0-.2-.07-.39-.11-.58,0,.19.08.38.12.59s.06.31.1.47C1296.91,118.52,1296.87,118.37,1296.84,118.21Zm124.49-36.43.56.56-.57-.55c-.47.08-.93.14-1.39.2Zm27.35,279.36-.8.29q-1.44.52-2.94,1.11c-1.33.51-2.7,1-4.06,1.52,1.37-.49,2.73-1,4.06-1.52l2.94-1.12c.27-.1.54-.2.8-.28a16.19,16.19,0,0,1,8.14-.61A16.41,16.41,0,0,0,1448.68,361.14Zm8.69-.5a15,15,0,0,1,1.91.54A16.8,16.8,0,0,0,1457.37,360.64Zm41.37-25.54a16.62,16.62,0,0,0-1.29-1.93,15.44,15.44,0,0,1,1.29,1.93c.4.67.76,1.39,1.11,2.12C1499.5,336.49,1499.13,335.77,1498.74,335.1Z" transform="translate(410.91 194.21)"/><path class="cls-7" d="M858.31-113c-9-1.3-17.51-.85-24.7,5.61l-33.4,20.05c-7,5-14,7.09-21.34.77-7.08-.26-14.14-.5-21.21-.77-1.62,3.16-3.37,3.18-5.22.21l-5.24-1.39-6.52-3.55a3.46,3.46,0,0,1-3.82-1.44l-6.49-3.26Q715.19-97.92,700-99.06c-16-9-32-20.09-48.25-.35L646.19-98c-1.5,4.49-3.15,3.77-4.86.12a40.3,40.3,0,0,1-5.27,0c-1.86,1.51-3.71,3-5.57,4.53l-.46.44Q622-82.55,613.94-72.2a40.34,40.34,0,0,1-4.39.63l-9.92,11.2c2.19,10.56-6.77,17.3-9.07,26.32-2.87-16.75-22.8-18.08-29-31.81-26.06-6.29-16.17-26.21-16.07-42.4l.1.08c-14.44-14.18-24.14-29.08-7.42-48.08q-.66-6.41-1.33-12.82l-2-9.49c-2.84-.67-3.78-2.4-2.89-5.16a9.09,9.09,0,0,1-2.05-4.14l-10.55-1.32c-16.7,20.52-30.55.3-45.57-3.2l-15.31,0,0,1.41-.62-1.27a3,3,0,0,1-1.88-1.92L445-187.8c-.06,12.27.62,24.61-.45,36.81-.81,9.42-2.2,19.91-15.64,20.31l-10.4.18-4.93,6.58c-2.33,12.25,13.66,29.5-9.8,36-3.52,8.42-10.59,13.26-17.93,17.84-30.26,25.81-32.74,25.93-50.93,2.25-20.51-12.79-39.79-16.1-57.76,5.11a16.53,16.53,0,0,1-19.25,4.17c-5.05,1.07-11.71.45-14.88,3.48-14.59,14-27.13,8.33-39.78-2.36-17.92-11.48-24.48-31.69-36.62-47.6l-1.1-1-11.34-1.76c-.08,1.3-.15,2.6-.2,3.9l-5.82.23-4.93,2s-1.55,1.07-1.55,1.1a9.48,9.48,0,0,1,.2,1C137.94-90.1,134.25-80.44,130-71c-9.25,20.49-30.94,41.22,2,60.42,1.74,1,3.19,5,2.64,7.07C127.91,21.1,144.94,30.71,161.79,41c9.84,6,16.8,11.49,11.74,27.2-11.55,35.85,9.56,59.63,46.18,56.45,8-.71,20.19-7,23.65,3.83,9.58,30,29.73,16.56,46.86,12.6,8.34-1.92,18.24-10.17,24.36-3.28,10.58,11.94,23.48,10.6,36.13,11.36,14.54.87,24.31,5.42,22.22,21.94-1.95,15.39,5.34,16.49,17,12,8.15-3.17,16.81-5.41,22.9-12.41,8.07,1.38,14.19-4,22.85-7.39,0,5.45,0,9.65,0,13.84.05,7-.56,15.71,6.7,18.53,8.86,3.44,14.49-5.23,19.09-10.76,15.41-18.52,9.22-36.32-3.84-53.24-.42,1-.87,2-1.36,2.91a37.71,37.71,0,0,1-2.35,4,41.11,41.11,0,0,1-2.7,3.53,43.25,43.25,0,0,0,2.7-3.53,41.5,41.5,0,0,0,2.35-4q.72-1.4,1.35-2.91c13.78-14.13,28.32-28,13.43-49.91-4.68-6.89-.83-13.07,5-15.11,40.39-14,52.9-44.21,50.22-83.68l-.42.49.4-.81c0,.11,0,.21,0,.32l3.84-4.42c11.83-28.32,35-10.31,53.08-13l7.41.64a.52.52,0,0,1,0-.11l5.93,5.39c-16.51,31.75-20.28,68-35.16,100.3h0c-14.21,9.3-10.62,23.37-9.84,36.69,22.44-10,30.17.52,30.25,21.69,6.59,13.23,4.16,25.5-4,37.14L571,188.12c.46,2,.93,4.08,1.39,6.11l5.24,4.72.16.12,6.15,4.65-.22-.33c17.58-10.26,40.25,7.84,56.45-10.1.21-3,.43-5.95.63-8.92a31.91,31.91,0,0,1-4.29-1.25c-1.09-8.26-8-16.41-8-24.69,0-4.27,1.85-8.59,7.3-13,.21-3.34.43-6.69.64-10q.18-13.23.38-26.48-.74-10.78-1.47-21.6c-1.14,0-2.28.05-3.41.08,1.13,0,2.27-.07,3.41-.09q-2.32-7.5-4.69-15h0c30.28-.57,30.28-.57,15.19,36.48l11.57,21.12c1.72.4,3.43.85,5.12,1.37,22.52,5.06,8.76,18.64,6.91,29.42l9,11.81,9.64.72,11-.58c1.21,6.46,4.24,9.84,9.23,9.84a16.59,16.59,0,0,0,5.62-1.12c14-5.06,10.72,5.82,11.76,12.71-.84,13.73,6.92,12.61,16,9.25l5.54-4.36,5.58-4.92.2-.22,4.83-5.69-.13.09c3.26-9-5.45-22.64,10.15-26.91q-3-10.59-6-21.2c1.53-1.59,3.07-3.19,4.62-4.78-1.06-3.53-2.1-7.07-3.15-10.59l-21,2.9L730,110.48l-.18.26c-12.58-.42-16.27-6.72-12-18.24,6-3.37,10.25-7.67,8.3-15.34-5.36-1.75-8.57-5.66-10.72-10.63l-8.85-9.93a71.48,71.48,0,0,1-6,4.55c2.07-1.49,4.14-3,6-4.56-17-23.43-13.74-28.85,20.19-34.22q-.07,6.06-.13,12.11l5,1.9a3.77,3.77,0,0,1,4.53,1.52l6.23-1.34,4.56-2.65a2.39,2.39,0,0,0-.12.22c6.56-5.07,14-4.57,21.61-3.58l5.39-1.24q5-5.43,10.11-10.85c.18-3.43.37-6.84.55-10.27L781.83,8l-2.51.64h0l-4.72-2.5c-6.75.76-6.12-4.19-6.51-8.38,1.68-.52,3.38-1,5.08-1.33,1.09-3.21,2.16-6.42,3.24-9.64l-7.78-10.52L752.8-24.87c-16.53,7.28-33.5,13.8-51.8,12.74-17-1-25.33,13.14-38.11,19.36C659.26.11,659.17-11.26,646-6.92c-4.79-11.73-21.69-15-21.09-30.68.38-9.58-.55-19.43,11.4-23.17h0L779.54-46.22c10.3-.12,21.19,3.78,30.29-4.48a15,15,0,0,1,1.4-4.62c1.58-.29,3.15-.63,4.69-1.06L841.33-82.6c.36-11.45,8.78-16,17.29-20.47C858.53-106.38,858.42-109.69,858.31-113ZM144-74.5l.84-1.44L144-74.5l-1.52,2.69Zm-.67,45.07c.84.71,1.74,1.4,2.71,2.11C145.06-28,144.16-28.72,143.32-29.43Zm42,63A19.92,19.92,0,0,1,187,35.78,22.28,22.28,0,0,0,185.29,33.54ZM190,51.44c-.11.93-.26,1.89-.44,2.91.18-1,.32-2,.44-2.91.73-6.4-.29-11.06-2.53-14.85C189.73,40.37,190.76,45,190,51.44Zm17.75,56.05a37.34,37.34,0,0,1-9.1-3.53,38.17,38.17,0,0,0,9.1,3.53c1.14.29,2.32.55,3.55.78C210.09,108,208.91,107.79,207.77,107.49Zm354-35.25a11,11,0,0,1,1.6,2.11A11.71,11.71,0,0,0,561.81,72.24Zm24,16.75a4.5,4.5,0,0,1,2-.26A4.83,4.83,0,0,0,585.83,89Zm156.66,41.66a11.68,11.68,0,0,0-.15-2.32A10.93,10.93,0,0,1,742.49,130.65Zm15.37-133c-1.35-.11-2.68-.19-4-.18C755.18-2.59,756.52-2.51,757.86-2.4ZM742.38,6c-.22.74-.42,1.55-.6,2.41h0C742,7.51,742.15,6.7,742.38,6ZM665.51,26.38a4.1,4.1,0,0,1-.62.53A6.6,6.6,0,0,0,665.51,26.38ZM630.64,62c2.9-.69,5.78-1.42,8.67-2.13-2.89.71-5.77,1.45-8.67,2.14Z" transform="translate(410.91 194.21)"/><path class="cls-8" d="M792,347.64c-13.42,12.62-21.58,34.41-46.86,26.45-2.93-.92-7.43-.08-10,1.68-31.79,21.33-65.31,13.63-98.85,6.46-6.88,12.82-13.27,26.14-30.24,28.1q-3.65-2.71-7.25-5.45c-.82,1.86-1.64,3.72-2.44,5.58l-1,.51c-5.38,3-10.76,5.12-16-.31-.55-3.37-1.08-6.75-1.61-10.12.29-4-1.83-6.25-5.46-7.38l-4.13-3.09-6.47-5-10-6.9c-4.09-6.33-10.37-1.88-15.49-3.12-.08,3.18-.18,6.37-.26,9.56-10,16-19.58,2.92-28.43-1.12-33.66-15.37-68.37-5.34-102.19-3.31-36.85,2.19-69.38-9.87-102.85-20.65-12.26-3.95-23.7-1.06-35.49,3.12-21.08,7.45-81.44-6.42-93.08-20.54,2.79-3.33,6.38-8-.14-9.66-13.64-3.52-27.68-6.37-41.52-.09l-13-7.23q-2-7-4-14.06l6.07-6.28,5.75-4.11c14.32,5.19,12.62-12.59,21.6-15.05h0c-1.71-28.44,14.56-22.55,31-16.27l20.88-1.85c23.81-.88,48.37,1.4,66.56,16.44,23.35,19.3,66.94,19.79,86.72-3.12,7-8.11,11.66-12.39,25.48-4.22,15.84,9.39,35.95,18,56.94,12.12l5.77.87a4.08,4.08,0,0,1,2.67,2.72A21.78,21.78,0,0,0,447,297c-5.22,13.87,4.82,18.87,14.12,24.31,12.32,9,26.07,5.24,39,3.26,15.57-2.38,25.42,2.46,30,17.61,3.44-1.57,6.87-3.16,10.32-4.73,25.57.63,50.82-21.77,77.11,1,10.39,9,17.56,15.27,6,26.95-5,5-12.7,8.89-6.58,16.8,5.86,7.56,12.81-1.14,19.39-.81,8.12-11.19,1-30.89,20.12-36a3.26,3.26,0,0,1,1.85-3.52L672,343.35v0c6,1.75,12.1,3.62,17.4-1.79,10.21-3.86,21.68-4.82,28.49-15.71,4.05-6.46,14.18-9.88,18.63-5.69,16.83,15.88,26.15,3.29,36.64-8.43,9,7.8-3.62,31,20,27.17C794.81,338.64,794.86,344.92,792,347.64Z" transform="translate(410.91 194.21)"/><path class="cls-6" d="M1036.46,166.87c-2.87,10.86-11.53,19-20.4,12.35-33.64-25.15-73.12-22.81-111.29-27.28-11,2.24-21.79,3.51-12.29-12.88,8.42-14.55,17.91-27.62,38.65-24.82,23.22,3.13,47-1.48,70.18,5.5C1025.2,126.93,1036.86,142.12,1036.46,166.87Z" transform="translate(410.91 194.21)"/><path class="cls-6" d="M948.88,308.87c-7.41-10-15.65,4.19-23.42,7.95-15.13,7.3-30.73,21-47.36,9.82-25.36-17.07-43.34-6.48-61.54,10.42,2.93,3,4.31,7.27,7.06,10.17-2.75-2.9-4.13-7.14-7.06-10.17-9.39,5.55-15,15-8.77,23.56,7,9.69,19-.3,28.68,1.49-1.63,11.38-5.9,19.31-19.72,17.39-10.49-1.45-20.68-.5-27.07,10-6.9,4.46-13.8,9.54-10,19,3,7.63,10.39,9.22,17.87,7.68,9.29-1.9,14.46,3.72,20.46,9.2,19.88,18.21,32.5,16.82,52.81-5.08,5.85-3.71,5.89-10.14,1.58-12.9-15.83-10.14-16.84-26.45-19.77-42.18,12.29,3.12,23.82,3,32.92-7.65,18.68-3.6,40.17-.12,52.16-20.63C949.77,330.7,954.89,317,948.88,308.87Z" transform="translate(410.91 194.21)"/><path class="cls-6" d="M962.39-89.67c17.12,1.82,33.56-18.07,42.26-13.44,15.2,8.08,29,14.54,46,14,3.28-.1,6.48-2.49,9.71-3.82q0-9.18,0-18.34c-11.69-9.67-22.15-29.81-37.07-2.09-2.64,4.92-12.87,1.38-18.91-3.7-20.52-17.22-35.32,4.41-52.6,8.7-1.51.37-2.21,8.16-1.55,12.23C951.26-89.39,956.86-90.26,962.39-89.67Z" transform="translate(410.91 194.21)"/><path class="cls-6" d="M768.07,161.24l-.26.08.05.18Z" transform="translate(410.91 194.21)"/><path class="cls-6" d="M927.24-33.82l0-.09c-11.68-16-10-32.44-2.41-49.66,2.33-5.28-1.69-9.85-7.72-11.31C912.32-89,905.74-84.4,899.2-89.29c-7.22-5.39-1.61-14.77-3-22.23h0a36.59,36.59,0,0,0,20.68-7.67l0,0,5-6.43c.45-3.14.91-6.29,1.36-9.43A9.19,9.19,0,0,1,922-140l-10.37-2.18a5.82,5.82,0,0,1-4.48,2.13l-5.9,5.3-5.21,5.1-.93,5.38h0l-2.37,0-2.29-.63c-8.94,6.12-18.76,11.46-21.15,23.48-3.46,1.46-6.74,1.75-9.63-.59,3.18,7.82-.83,14-5.49,20-6.33,27.1,8.88,49.72,15.43,74.13-.32,3.39-.65,6.76-1,10.14-9.88,3.05-18.47,7.62-13.51,20,4.67,11.68,12.77,18.41,26.3,12.35-1.57,10-8.35,16.71-15,23.56-3.52,3.63-8.09,7.29-5.49,13.3s8.25,5,13.37,5.53c25.43,2.53,32.72-8.56,24.21-37l.31-.16c-.09-.2-.2-.39-.29-.58,7.28-4.79,15.4-8.81,16.65-18.91C909.37,5.24,893.42-5.5,895.78-24.2c10.89.34,24.73,19.25,31.68-5.05A3.61,3.61,0,0,1,927.24-33.82ZM890.87,34.55l-.43.33.06-.59c.14,0,.26,0,.4,0Z" transform="translate(410.91 194.21)"/><path class="cls-6" d="M859.06-103.3l-.42.38a9.92,9.92,0,0,0,1,1C859.48-102.41,859.29-102.85,859.06-103.3Z" transform="translate(410.91 194.21)"/><path class="cls-6" d="M1025.34,352q1,.38,2,.69-1-.31-2-.69l-28.19,21.53c-8.42,5-16.72,10.38-15.83,21.72C983,417,975.09,434,958.12,447.47c-4.24,3.37-11.91,8.41-6.27,14.75,6.32,7.09,13.12.55,18.16-3.83,11.83-10.28,21.35-25.54,34.93-31,25.79-10.38,37.1-29.93,45.64-53.37h0c1.42-1.83,2.85-3.66,4.27-5.5,26.94-7.33,19.91-35.54,33.4-51.86C1069.48,333.79,1040.2,330.4,1025.34,352Z" transform="translate(410.91 194.21)"/><path class="cls-6" d="M127.39,182.16c.2.55.38,1.14.54,1.74a27,27,0,0,1,.78,4.8h0c12.45,10.63,22.88,10,30.63-5.53h0c3.69-12.32,9.48-24.72-9.71-30.59-4.88-1.5-9.1-8.23-11.74-13.5-16.81-33.63-23.35-34.5-51.05-5.91h0L74,141.31q5.73,7.86,11.43,15.73c14.26-9.9,21.45-2.54,26.23,10.66,0,0,0,0,0,0a29.93,29.93,0,0,1,10.7,6.52A20.78,20.78,0,0,1,127.39,182.16Zm9.25-10.27a12.34,12.34,0,0,0,4.73,5.69,12.44,12.44,0,0,1-4.74-5.7,44.7,44.7,0,0,0-11.82-17.39A44.79,44.79,0,0,1,136.64,171.89Z" transform="translate(410.91 194.21)"/><path class="cls-6" d="M850.15,101.64c-11.27-3.18-19.75,5.3-22.17,16.43-2,9.09-11.19,6.87-15.16,12.16-10.89,7.92-21.11,20.33-7.49,29.31,12,7.92,24.79,30.88,44.51,12.43,11.16-10.44,30.08-20.66,11.83-40.53C864.9,118.69,864.58,105.72,850.15,101.64Z" transform="translate(410.91 194.21)"/><path class="cls-6" d="M1006.71,87l-.11.1-.1.1Z" transform="translate(410.91 194.21)"/><path class="cls-6" d="M992.13,66.26c-5.33,2.44-11.3,3.46-17,5.13l-.18.1-10.51,10.7.36,5.77,5.92,4.56a15.51,15.51,0,0,1,4.65.55l5.29-.26,19.95-.65,6-5.08,5.25-5.52-.13,0C1014.31,64.74,1008.93,58.56,992.13,66.26Z" transform="translate(410.91 194.21)"/><path class="cls-6" d="M1211,232.45c-10.81-3.2-14.16,6.79-18.4,14.08-19,17.64,4,43.78-13,62.5-7.21,7.94-.92,16.89,7.79,16.35,7.53-.46,20.36-10.55,16.18-16.22-13.93-18.91,9.79-18.5,11.93-28.35,8.61-8.2,7.43-18.85,6.07-28.84C1220.62,244.52,1219.42,234.93,1211,232.45Z" transform="translate(410.91 194.21)"/><path class="cls-6" d="M890.9,34.32l0,.23-.43.33.06-.59C890.64,34.29,890.76,34.31,890.9,34.32Z" transform="translate(410.91 194.21)"/><path class="cls-6" d="M1017.79,8.36c2.23,1,4.47,2,6.71,2.92l.61.18,14-2.72c13.17-4.34,5.05-13.59,4.84-21-9-1.59-18.68-1-26.55-7-6.76,5.41-13.78,10.71-9.37,21.08l6.7,5A3.89,3.89,0,0,1,1017.79,8.36Z" transform="translate(410.91 194.21)"/><path class="cls-6" d="M1007.54,304.32c-14.48,2.16-32.25-4-39.84,15.69,28.59,16.82,41.58,16.06,66.5-3.95,3.78,0,5.86-2.44,7.37-5.62,10.48-8.86,11.1-16.16-4.3-17.88C1025.92,291.3,1014.21,292.25,1007.54,304.32Z" transform="translate(410.91 194.21)"/><path class="cls-6" d="M1502.16,207.82c-14.64-34.66.16-72.86-13-107.7,6.69-.33,9.62,3.86,9.71,9.52C1499.3,142.39,1506.56,174.91,1502.16,207.82Z" transform="translate(410.91 194.21)"/><path class="cls-6" d="M1092,261.06c-5.34,2.59-10.75,5-16.13,7.55.67,3.84,1.92,6.26,3.57,7.77-1.65-1.51-2.9-3.93-3.57-7.77-11.4,4.92-21.54,15-14.87,25.25,5.3,8.2,18.15-2.72,27.62-4.81,4.19-.92,7.26-6.88,10.83-10.56a14.89,14.89,0,0,0-2.46-.33,14.89,14.89,0,0,1,2.46.33c9-2.75,20.6-6.28,15.31-17.62C1110.07,250.83,1099.76,257.29,1092,261.06Zm-8.93,17.23a11,11,0,0,0,1.62.29A11,11,0,0,1,1083.06,278.29Z" transform="translate(410.91 194.21)"/><path class="cls-6" d="M922-140.15v.17l.13,0Z" transform="translate(410.91 194.21)"/><path class="cls-6" d="M1076.31-93.71c4.53-5.19,9.2-10.89,5.45-17.94s-10.22-3.14-15.73-1.89c-1.91.76-3.82,1.53-5.73,2.26q0,9.15,0,18.37C1066.2-83.18,1071.79-78.32,1076.31-93.71Z" transform="translate(410.91 194.21)"/><path class="cls-6" d="M1333.64,60.44,1365,55.85C1352.05,40.34,1343.24,53.14,1333.64,60.44Z" transform="translate(410.91 194.21)"/></g></g></g></svg>