<svg xmlns="http://www.w3.org/2000/svg" xmlns:xlink="http://www.w3.org/1999/xlink" viewBox="0 0 1920 672.27"><defs><style>.cls-1{fill:none;}.cls-2{fill:#fff;}.cls-3{fill:#d1ecf8;}.cls-4{clip-path:url(#clip-path);}.cls-5{fill:#1097a0;}.cls-6{fill:#d9b11d;}.cls-7{fill:#60b7a7;}.cls-8{fill:#dc6820;}.cls-9{fill:#d8d61e;}.cls-10{opacity:0.1;}.cls-11{clip-path:url(#clip-path-2);}</style><clipPath id="clip-path" transform="translate(796.26)"><path class="cls-1" d="M749.62,29c-6.53,0-9.5-.19-12.45,0-64.11,4.87-128.31,5.52-192.54,5.49-63.42,0-125.49-9.19-185.72-32.23C353.07,0,347.38-1,341.33,1.2q-30.6,11-61.28,21.68C215.21,45.35,152.4,77.14,82.45,76c-27.82-.48-44,18-52.66,46.22-2,6.39-3.79,12.84-5.85,19.19-5,15.45-9.8,31.18-19.88,43.5C-2,192.29-.73,198,4.31,205c16,22.17,36.17,31.35,61.35,26.7,23.73-4.37,46.84-11.62,69.83-19.25,39.22-13,78.6-18.2,119.19-8.81,20.92,4.84,42.22,7.75,63.39,11.12,31,4.95,60,.23,83.58-25.56,15-16.44,29.29-33.79,44.32-50.24,22.49-24.64,49.06-35.61,80.77-31,20.83,3,41.41,7.44,62.13,11,37.8,6.56,73.74,4.09,102.28-29.87A601.14,601.14,0,0,1,749.62,29Z"/></clipPath><clipPath id="clip-path-2" transform="translate(796.26)"><path id="SVGID" class="cls-2" d="M749.62,29c-6.53,0-9.5-.19-12.45,0-64.11,4.87-128.31,5.52-192.54,5.49-63.42,0-125.49-9.19-185.72-32.23C353.07,0,347.38-1,341.33,1.2q-30.6,11-61.28,21.68C215.21,45.35,152.4,77.14,82.45,76c-27.82-.48-44,18-52.66,46.22-2,6.39-3.79,12.84-5.85,19.19-5,15.45-9.8,31.18-19.88,43.5C-2,192.29-.73,198,4.31,205c16,22.17,36.17,31.35,61.35,26.7,23.73-4.37,46.84-11.62,69.83-19.25,39.22-13,78.6-18.2,119.19-8.81,20.92,4.84,42.22,7.75,63.39,11.12,31,4.95,60,.23,83.58-25.56,15-16.44,29.29-33.79,44.32-50.24,22.49-24.64,49.06-35.61,80.77-31,20.83,3,41.41,7.44,62.13,11,37.8,6.56,73.74,4.09,102.28-29.87A601.14,601.14,0,0,1,749.62,29Z"/></clipPath></defs><g id="Layer_2" data-name="Layer 2"><g id="Layer_1-2" data-name="Layer 1"><path class="cls-3" d="M749.62,29c-6.53,0-9.5-.19-12.45,0-64.11,4.87-128.31,5.52-192.54,5.49-63.42,0-125.49-9.19-185.72-32.23C353.07,0,347.38-1,341.33,1.2q-30.6,11-61.28,21.68C215.21,45.35,152.4,77.14,82.45,76c-27.82-.48-44,18-52.66,46.22-2,6.39-3.79,12.84-5.85,19.19-5,15.45-9.8,31.18-19.88,43.5C-2,192.29-.73,198,4.31,205c16,22.17,36.17,31.35,61.35,26.7,23.73-4.37,46.84-11.62,69.83-19.25,39.22-13,78.6-18.2,119.19-8.81,20.92,4.84,42.22,7.75,63.39,11.12,31,4.95,60,.23,83.58-25.56,15-16.44,29.29-33.79,44.32-50.24,22.49-24.64,49.06-35.61,80.77-31,20.83,3,41.41,7.44,62.13,11,37.8,6.56,73.74,4.09,102.28-29.87A601.14,601.14,0,0,1,749.62,29Z" transform="translate(796.26)"/><g class="cls-4"><path class="cls-5" d="M-281.62,420.62c-2.3,3.52-7.25,7.88-6.46,10.48,10.29,33.51,0,67.88,4.8,101.52l-5.74,4.11c-2,2.1-4,4.21-6.07,6.29l-14.76-1c-1.71-3.92-5-5.42-9-5.74-2.91-3.35-5.81-3.32-8.7,0l-14.18.69c-8.33-2.62-12.61,10.07-21.4,5.65l-.18-.23c-1.61-1.9-3.2-3.81-4.81-5.72l-4.95-6.33c-1.39-1.55-2.78-3.1-4.17-4.67-11.87-12.61-26.89-20.28-42.52-27l-.16.06-6.59-4.28s0,0,0,0c-1.77-1.29-3.55-2.59-5.3-3.9a3.59,3.59,0,0,0-3.62-2.1c-19.75-8.06-17.7-35.15-37.64-43l.15.29-6.58-4.37c-1.78-1.29-3.58-2.56-5.36-3.84l-17.23-17.23c-1.17-2.24-2.32-4.47-3.48-6.71a3.29,3.29,0,0,0-1.57-3.85c.44-3.26-1.24-4.84-4.26-5.37l0,0-5.37-4.63a2,2,0,0,0-2.66-1.5l-7.75-5c-.82-6.85,4.06-14.06-1.26-20.63l-3.55-5.6c-.06-.11-.14-.21-.2-.33l0,.06c-2-3.2-4-6.42-6.07-9.63l-.11-.23q-2.21-3.16-4.42-6.31l.29.27c-5.5-11.68-11.33-23.13-21.12-31.94-.88-3.15-2.86-4.74-6.25-4.32l-6.5-5.69c.6-4.23,1.8-8.62-3-11.41,0,0,0-.11,0-.11-4.43-8.7-12.77-9.9-21.16-11l.23.32-6.58-3.38c-16.44-10.23-13-28-16.5-43.2-.65-12.84-5.29-22.25-19.87-23.1-28.3-8.1-39.06-33.63-54.39-54.65-16.71-22.94-45-31.09-64.74-50.86-10.61-10.65-20.3-21.11-28.15-33.82-9-14.62-8.35-26,8.35-33.93,5.57-10.34,12.44-13.07,23.58-6.61,23.77,13.81,49.71,17.94,77,21.79,14.21,2,37.51,17.57,36.67,43.06q6,5.1,12,10.17l26.74,7.62c28.62-13.27,40.24-5.86,40,25.47,11.8,16.12,22,34.29,45.68,35,.81,0,2.14.4,2.37,1,11,27.12,49.69,24.68,58.07,54.73,2.75,9.84,12.78,7.26,19.78,9.94,13,5,18.94,23.84,40.6,14.16,8.89-4,14.95,16.11,7.45,26.71-16,22.61-3.73,30.79,16.17,35.5,27.27,6.43,22.82,36.93,39.73,51q5.73,7.84,11.43,15.72c14.26-9.91,21.45-2.54,26.23,10.66-2.17,2.69-4.36,5.46-6.92,7.34,2.57-1.87,4.75-4.64,6.93-7.32a30,30,0,0,1,10.7,6.53,21,21,0,0,1,5,7.9c.19.57.37,1.15.53,1.74a27.3,27.3,0,0,1,.78,4.81h0Z" transform="translate(796.26)"/><path class="cls-5" d="M1121.08,602.34c2.9-16.05,1.36-32-.78-48-.94-17.28,5.41-35.36-5.7-51.52l-.59-1.47c-9.36-12.27-2-21.84,5.1-31.45q-.19-8.25-.4-16.52a18.42,18.42,0,0,1-1.52-3.21c-.09-.33.82-.94,1.27-1.42,1.64-11.44,2.21-22.84-1.65-34-14.64-34.65.17-72.86-13-107.69a1.68,1.68,0,0,0-2.59-.91c-2.39-7.28-7.3-10.45-13.48-10.45a22.12,22.12,0,0,0-4.91.59c-16.74,3.87-31.77-1-46.62-7.6h0c-5.21-8-14.13-7.28-21.89-9.31a23.84,23.84,0,0,0,1.39,2.41,22.11,22.11,0,0,1-1.4-2.41l-.62-.6h0c-4.78-12.76-16.11-10.18-26-11.06h0l-8.08-4.91-31.35,4.58a2.09,2.09,0,0,0-2.94,1.1,5.61,5.61,0,0,0-.17.62,5.61,5.61,0,0,1,.16-.62c-19.82,5.39-37.28-5.15-55.46-5.76-1.23-11.13,18-14.34,5.82-26.11S871.58,211.77,853,219.2c-11.21,4.48-19.84,13.23-5,25,6.1,4.81,13.17,9.57,8.67,19.3-11.14,7.37-13.9,13.09.57,21.22,13.12,7.37,25.84,7.88,39.61,5.28,6.14,12.81-8.42,15.68-11.52,24.05,0,0-.19.29-.19.29,2.3,8.39,3.2,16.06-8.7,17.29-.53-1.61-1.1-3.22-1.72-4.79-10.32,4.43-12.28,20.41-26.68,19.22-16.58-8.47-16.62-29.28-29.9-40.27-.63,5.74-3,7.9-8,3.6C797,298,794.6,283,796.19,266.78c1-10.16,4.86-20.24.57-30.49-1.63-3.88-3.24-7.76-4.87-11.65C780.47,218,764,230,755,214.69l-6-4.63c-14-1.85-28-2.86-41.94.38a5.32,5.32,0,0,1-3.42,1.57l-7.48,2.61c-7.88,6-19.65,2.73-26.53,11.12-1.4.2-2.8.42-4.19.66-18.44,10-26.7,24.63-21.06,45.69,13.87,3.58,35-7.27,39.92,12.72,2.93,11.94,10.26,16.6,16.49,24,14.43-11.69,33.18,2,47.89-8.11-1.8,13.71-9.33,19.19-23,16.55-6.44-1.25-13.54-4.67-18.48,3.27l-5.88.16c-9,9.68-14,17.12,3.62,24.69,10.65,4.59,27.71,8.41,19.51,29.42-2.74,7,6.37,16.35,14.56,19.85s12.28-3.9,16.2-9.73q7.85-6.09,15.66-12.2c4.64,3.43,10,10.28,13.93,10.28a2.81,2.81,0,0,0,.65-.07c17.71-3.94,27-.27,33.85,18.55,2.33,6.46,17,16,31.2,15.32,50.73-2.43,89.92,27,131.68,49.26,4.66,2.48,6,5.16,3.36,10.29-5.58,10.76,2.67,17.69,7.5,25.86,12.26,20.81,31.73,42.18,28.76,65.27-3.53,27.59,10.08,21.62,22.87,18.1,11.84-3.28,20.47-1.81,28.56,6.63,7.93,8.27,15.51,16.92,24,24.63,5.07,4.62,8.13,15.84,18.6,8.53C1124.05,619.51,1126,611.59,1121.08,602.34ZM773.32,353.16a16.09,16.09,0,0,0,.5-1.66A15.38,15.38,0,0,1,773.32,353.16ZM876,335.32c0,.42-.05.84-.07,1.26h0C875.9,336.16,875.92,335.74,876,335.32Zm-.08,1.27c0,2.1.07,4.21.1,6.33C871.67,340.87,871.7,338.76,875.87,336.59Zm35.63-11.47c0-.19-.08-.39-.12-.57,0,.18.08.38.13.58s.06.32.1.47C911.57,325.44,911.53,325.28,911.5,325.12ZM1036,288.7c.19.18.37.37.57.55l-.58-.54-1.39.19Zm27.36,279.36-.81.28c-1,.35-1.93.73-2.93,1.12-1.33.51-2.7,1-4.06,1.51,1.37-.48,2.73-1,4.06-1.51l2.93-1.13.81-.27a16.08,16.08,0,0,1,8.14-.62A16.41,16.41,0,0,0,1063.34,568.06Zm8.69-.51a15.48,15.48,0,0,1,1.91.55A17.44,17.44,0,0,0,1072,567.55ZM1113.4,542a15.68,15.68,0,0,0-1.29-1.92,14.62,14.62,0,0,1,1.29,1.92,22.44,22.44,0,0,1,1.1,2.13C1114.16,543.4,1113.79,542.68,1113.4,542Z" transform="translate(796.26)"/><path class="cls-5" d="M406.62,554.55C393.2,567.18,385,589,359.76,581c-2.93-.92-7.43-.08-10,1.67-31.78,21.34-65.3,13.63-98.84,6.46C244,602,237.6,615.28,220.63,617.25q-3.63-2.71-7.24-5.45l-2.45,5.57-1,.51c-5.39,3-10.76,5.12-16-.31q-.81-5.05-1.6-10.12c.28-4-1.83-6.24-5.46-7.38L182.78,597c-2.16-1.66-4.31-3.32-6.47-5l-10-6.9c-4.1-6.34-10.37-1.88-15.5-3.13-.08,3.19-.17,6.38-.25,9.57-10,16-19.59,2.91-28.43-1.13C88.48,575.08,53.76,585.11,20,587.13c-36.86,2.2-69.38-9.86-102.85-20.65-12.26-3.94-23.71-1.05-35.49,3.12-21.08,7.45-81.45-6.42-93.08-20.54,2.79-3.33,6.38-8-.14-9.66-13.64-3.51-27.69-6.37-41.53-.09l-13-7.23-4-14.05,6.08-6.29,5.74-4.11c14.32,5.19,12.63-12.58,21.6-15.05h0c-1.7-28.44,14.57-22.55,31-16.27l20.87-1.85c23.82-.88,48.37,1.4,66.57,16.45,23.35,19.3,66.94,19.79,86.72-3.13,7-8.11,11.66-12.39,25.47-4.21,15.85,9.38,36,18,57,12.11,1.91.3,3.83.58,5.77.87a4.07,4.07,0,0,1,2.66,2.72,22,22,0,0,0,2.23,4.64c-5.21,13.87,4.83,18.87,14.13,24.31,12.32,9,26.07,5.24,39,3.26,15.57-2.37,25.41,2.46,30,17.61l10.33-4.73c25.56.63,50.81-21.76,77.1,1,10.4,9,17.57,15.27,6,27-5,5-12.69,8.89-6.57,16.8,5.86,7.56,12.81-1.14,19.38-.8,8.13-11.2,1.06-30.9,20.13-36a3.24,3.24,0,0,1,1.85-3.51l13.71,1.42h0c6,1.76,12.09,3.63,17.4-1.79,10.21-3.85,21.68-4.81,28.49-15.7,4.05-6.46,14.18-9.89,18.62-5.7,16.84,15.88,26.15,3.3,36.65-8.43,9,7.8-3.63,31,20,27.17C409.46,545.56,409.51,551.83,406.62,554.55Z" transform="translate(796.26)"/><path class="cls-5" d="M651.12,373.79c-2.87,10.85-11.53,19-20.4,12.35-33.65-25.16-73.13-22.82-111.3-27.29-11,2.24-21.78,3.51-12.28-12.88,8.42-14.54,17.91-27.62,38.65-24.82,23.21,3.13,47-1.48,70.18,5.5C639.85,333.84,651.52,349,651.12,373.79Z" transform="translate(796.26)"/><path class="cls-5" d="M563.53,515.78c-7.41-10-15.64,4.19-23.42,8-15.12,7.31-30.73,21-47.35,9.83-25.36-17.08-43.35-6.49-61.54,10.42,2.93,3,4.31,7.26,7.06,10.17-2.75-2.91-4.13-7.14-7.06-10.17-9.39,5.54-15,15-8.78,23.56,7,9.68,19-.31,28.69,1.48-1.64,11.38-5.9,19.32-19.72,17.4-10.49-1.46-20.69-.51-27.07,10-6.91,4.47-13.81,9.54-10,19,3,7.63,10.39,9.22,17.87,7.69,9.29-1.91,14.46,3.71,20.45,9.2,19.89,18.21,32.5,16.82,52.82-5.09,5.85-3.71,5.88-10.14,1.58-12.9-15.83-10.13-16.85-26.44-19.78-42.18,12.3,3.12,23.83,3,32.93-7.65,18.68-3.6,40.16-.11,52.16-20.62C564.43,537.61,569.55,523.91,563.53,515.78Z" transform="translate(796.26)"/><path class="cls-6" d="M577.05,117.24c17.11,1.82,33.55-18.07,42.26-13.44,15.19,8.09,29,14.54,46,14,3.27-.11,6.47-2.49,9.71-3.83q0-9.18,0-18.33c-11.7-9.68-22.16-29.81-37.07-2.09-2.65,4.91-12.87,1.37-18.91-3.7-20.52-17.23-35.32,4.41-52.61,8.69-1.51.38-2.2,8.16-1.54,12.23C565.91,117.52,571.51,116.65,577.05,117.24Z" transform="translate(796.26)"/><path class="cls-5" d="M382.73,368.15l-.27.08.05.18Z" transform="translate(796.26)"/><path class="cls-7" d="M541.89,173.09l0-.09c-11.67-16-10-32.44-2.4-49.66,2.33-5.28-1.7-9.85-7.73-11.31-4.75,5.91-11.33,10.48-17.88,5.59-7.21-5.38-1.6-14.77-3-22.23h0a36.61,36.61,0,0,0,20.68-7.67l.05,0,5-6.43c.45-3.14.91-6.28,1.36-9.42a9.23,9.23,0,0,1-1.24-4.9l-10.38-2.18a5.78,5.78,0,0,1-4.47,2.13c-2,1.77-3.94,3.54-5.9,5.31q-2.61,2.53-5.22,5.1c-.3,1.79-.61,3.57-.93,5.37h0l-2.37,0-2.29-.63c-8.93,6.12-18.76,11.46-21.15,23.48-3.45,1.46-6.73,1.75-9.63-.59,3.18,7.82-.83,14-5.49,20-6.32,27.1,8.89,49.73,15.44,74.14-.33,3.38-.65,6.75-1,10.14-9.89,3-18.47,7.61-13.52,20,4.68,11.69,12.77,18.41,26.31,12.35-1.58,10-8.36,16.72-15,23.56-3.53,3.63-8.1,7.29-5.49,13.3s8.25,5,13.36,5.53c25.43,2.53,32.72-8.55,24.22-37l.31-.16c-.1-.21-.2-.39-.29-.59,7.28-4.78,15.39-8.81,16.65-18.91-5.83-15.14-21.77-25.87-19.41-44.58,10.89.35,24.73,19.25,31.68-5.05A3.61,3.61,0,0,1,541.89,173.09Zm-36.37,68.37-.43.34c0-.2,0-.39.06-.6.15,0,.27,0,.4,0Z" transform="translate(796.26)"/><path class="cls-5" d="M473.72,103.61l-.43.39a10,10,0,0,0,1,1C474.14,104.51,473.94,104.06,473.72,103.61Z" transform="translate(796.26)"/><path class="cls-5" d="M640,558.91q1,.39,2,.69-1-.3-2-.69l-28.19,21.54c-8.42,4.95-16.72,10.37-15.83,21.72,1.71,21.74-6.24,38.7-23.21,52.22-4.23,3.37-11.91,8.4-6.26,14.74,6.31,7.09,13.12.55,18.15-3.82C596.5,655,606,639.77,619.6,634.3c25.79-10.38,37.1-29.93,45.63-53.38h0l4.27-5.49c26.94-7.34,19.9-35.55,33.39-51.87C684.14,540.7,654.85,537.32,640,558.91Z" transform="translate(796.26)"/><path class="cls-5" d="M-257.95,389.07c.2.56.37,1.14.53,1.74a27,27,0,0,1,.79,4.8h0c12.46,10.62,22.88,10,30.64-5.53h0c3.69-12.33,9.47-24.73-9.71-30.6-4.89-1.49-9.11-8.23-11.74-13.5-16.82-33.62-23.35-34.5-51.05-5.91h0l-12.84,8.15L-299.9,364c14.26-9.91,21.45-2.54,26.23,10.65v0A29.94,29.94,0,0,1-263,381.16,20.68,20.68,0,0,1-257.95,389.07Zm9.24-10.27a12.37,12.37,0,0,0,4.74,5.69,12.37,12.37,0,0,1-4.74-5.69,44.77,44.77,0,0,0-11.82-17.39A44.56,44.56,0,0,1-248.71,378.8Z" transform="translate(796.26)"/><path class="cls-5" d="M464.81,308.56c-11.27-3.19-19.75,5.3-22.18,16.42-2,9.1-11.18,6.88-15.15,12.16-10.9,7.93-21.12,20.33-7.49,29.31,12,7.92,24.79,30.88,44.51,12.43,11.16-10.44,30.07-20.66,11.83-40.53C479.56,325.61,479.23,312.64,464.81,308.56Z" transform="translate(796.26)"/><path class="cls-5" d="M621.36,293.9l-.1.09-.1.1Z" transform="translate(796.26)"/><path class="cls-5" d="M606.78,273.17c-5.32,2.44-11.29,3.46-17,5.13l-.17.1-10.51,10.7c.12,1.92.24,3.85.35,5.77l5.92,4.57a15,15,0,0,1,4.66.55l5.29-.27,19.95-.64,6-5.09,5.25-5.52-.13,0C629,271.65,623.59,265.47,606.78,273.17Z" transform="translate(796.26)"/><path class="cls-5" d="M825.7,439.36c-10.81-3.2-14.17,6.79-18.4,14.09-19,17.63,4,43.78-13,62.49-7.21,7.94-.92,16.89,7.78,16.35,7.54-.46,20.36-10.54,16.19-16.22-13.93-18.9,9.79-18.5,11.93-28.35,8.6-8.2,7.43-18.84,6.07-28.84C835.28,451.43,834.08,441.85,825.7,439.36Z" transform="translate(796.26)"/><path class="cls-5" d="M-654.8,228l-5.44-3.61.07.11-10.19-6.2L-681.67,220l.51-2.23-5.3.7-10,5.92-5.63,5.73c2.83,13.11,12.33,21.6,19.92,31.85,9.63,13,17.89,18.4,32.3,9.51q2.13-4.83,4.25-9.67c3.44-11.23,2.49-21.82-4.51-31.55A6.5,6.5,0,0,1-654.8,228Z" transform="translate(796.26)"/><path class="cls-5" d="M505.55,241.23l0,.23-.43.34c0-.2,0-.39.06-.6C505.3,241.2,505.42,241.22,505.55,241.23Z" transform="translate(796.26)"/><path class="cls-5" d="M632.44,215.28l6.71,2.92.61.18,14-2.72c13.17-4.35,5.05-13.59,4.83-21-9.05-1.59-18.67-1-26.54-7-6.76,5.42-13.79,10.71-9.38,21.09l6.71,4.95A3.86,3.86,0,0,1,632.44,215.28Z" transform="translate(796.26)"/><path class="cls-5" d="M622.2,511.23c-14.48,2.16-32.25-4-39.85,15.7,28.59,16.81,41.59,16.06,66.51-4,3.77,0,5.86-2.43,7.37-5.62,10.48-8.85,11.1-16.16-4.3-17.87C640.58,498.22,628.87,499.16,622.2,511.23Z" transform="translate(796.26)"/><path class="cls-5" d="M1116.81,414.73c-14.64-34.65.17-72.86-13-107.69,6.69-.34,9.62,3.85,9.7,9.51C1114,349.31,1121.22,381.82,1116.81,414.73Z" transform="translate(796.26)"/><path class="cls-5" d="M-589.47,341.25a5.36,5.36,0,0,1-2.4-4.41l-4.17-6.46c-6.87-8.63-13.44-4.06-20,.46-.56,1.92-1.11,3.84-1.68,5.76,5,14.14,12.59,23.4,25.43,23-12.84.44-20.45-8.82-25.43-23-1.47,0-2.93-.07-4.39-.21l.11-.22-5.53,5.4.22-.25-5.51,6c.05,2.6.11,5.21.17,7.81l4.89,6.51,0,0c1.56,1.84,3.11,3.69,4.66,5.53l.3.4c11,10.43,24.2,7,37,5.69l.72-.71,4.54-4.58.24-11.21-5.88-12.15Zm-2.74,18.31a28.21,28.21,0,0,0,3.09-.29A28.21,28.21,0,0,1-592.21,359.56Z" transform="translate(796.26)"/><path class="cls-5" d="M706.65,468c-5.34,2.59-10.76,5-16.13,7.55.66,3.84,1.92,6.27,3.56,7.78-1.64-1.51-2.9-3.94-3.56-7.78-11.4,4.92-21.54,15-14.88,25.26C681,509,693.8,498.06,703.27,496c4.18-.93,7.25-6.89,10.83-10.56a13.14,13.14,0,0,0-2.46-.33,13.14,13.14,0,0,1,2.46.33c9-2.76,20.59-6.29,15.31-17.62C724.73,457.74,714.41,464.2,706.65,468Zm-8.93,17.24a13.87,13.87,0,0,0,1.61.29A13.87,13.87,0,0,1,697.72,485.21Z" transform="translate(796.26)"/><path class="cls-5" d="M536.65,66.77s0,.11,0,.16l.13,0Z" transform="translate(796.26)"/><path class="cls-6" d="M691,113.2c4.54-5.19,9.21-10.89,5.46-17.94s-10.22-3.13-15.73-1.89q-2.87,1.16-5.73,2.27,0,9.14,0,18.36C680.85,123.73,686.45,128.59,691,113.2Z" transform="translate(796.26)"/><path class="cls-5" d="M948.29,267.35l31.36-4.58C966.7,247.26,957.9,260.06,948.29,267.35Z" transform="translate(796.26)"/><path class="cls-8" d="M205.25,173l5.93,5.4c-16.51,31.75-20.28,68-35.17,100.29h0c-14.21,9.3-10.61,23.38-9.83,36.7,22.44-10,30.16.51,30.25,21.68,6.59,13.24,4.16,25.5-4,37.15L185.61,395c.46,2.05.93,4.08,1.39,6.11,1.75,1.58,3.5,3.15,5.23,4.73l.17.11c2,1.55,4.09,3.11,6.14,4.65l-.21-.33c17.58-10.26,40.24,7.84,56.45-10.1l.63-8.92a31.91,31.91,0,0,1-4.29-1.25c-1.1-8.26-8-16.4-8-24.69,0-4.27,1.85-8.58,7.31-13,.21-3.34.43-6.68.63-10q.19-13.23.38-26.47-.73-10.8-1.46-21.6c-1.14,0-2.28,0-3.41.07,1.13,0,2.27-.06,3.41-.08-1.55-5-3.13-10-4.69-15h0c30.28-.56,30.28-.56,15.19,36.48q5.78,10.57,11.57,21.12c1.72.4,3.43.85,5.11,1.37,22.52,5.06,8.76,18.64,6.91,29.42q4.53,5.91,9.05,11.81l9.64.73,11-.59c1.2,6.46,4.24,9.85,9.23,9.85a16.67,16.67,0,0,0,5.62-1.13c14-5.06,10.71,5.82,11.76,12.71-.84,13.73,6.92,12.61,16,9.25l5.55-4.35,5.58-4.93.2-.22,4.83-5.69-.14.09c3.26-9-5.45-22.64,10.15-26.9q-3-10.61-6-21.2l4.62-4.79c-1-3.52-2.09-7.06-3.15-10.59l-21,2.9-12.24-17.16-.18.27c-12.59-.42-16.28-6.73-12.06-18.25,6-3.36,10.26-7.67,8.31-15.33-5.36-1.75-8.57-5.67-10.73-10.63-2.94-3.33-5.9-6.64-8.84-9.94a71.56,71.56,0,0,1-6,4.56c2.06-1.49,4.14-3,6-4.57-16.95-23.43-13.74-28.85,20.19-34.22q-.07,6.06-.13,12.12l5,1.89a3.78,3.78,0,0,1,4.52,1.52l6.24-1.34q2.28-1.33,4.56-2.64a2.25,2.25,0,0,0-.12.21c6.56-5.07,14-4.57,21.61-3.58,1.79-.41,3.58-.83,5.38-1.23l10.11-10.86c.19-3.43.37-6.84.56-10.26l-2.6-.22-2.52.65h0L389.24,213c-6.75.77-6.11-4.19-6.5-8.37,1.68-.52,3.37-1,5.08-1.34l3.24-9.64-7.79-10.52c-5.26-.38-10.54-.75-15.81-1.11-16.53,7.27-33.5,13.8-51.8,12.73-17-1-25.33,13.14-38.11,19.36-3.64-7.12-3.72-18.49-16.94-14.14-4.78-11.74-21.68-15-21.09-30.69.38-9.58-.55-19.42,11.4-23.16h0L394.2,160.69c10.29-.12,21.19,3.78,30.29-4.48a14.53,14.53,0,0,1,1.4-4.62c1.57-.28,3.15-.63,4.69-1.06L456,124.31c.36-11.45,8.78-16,17.3-20.47q-.13-5-.32-9.93c-8.95-1.31-17.51-.86-24.69,5.6l-33.4,20.06c-6.95,5-14,7.08-21.35.76l-21.21-.76c-1.61,3.16-3.36,3.18-5.21.2l-5.24-1.39-6.53-3.55a3.45,3.45,0,0,1-3.81-1.44c-2.17-1.08-4.32-2.16-6.49-3.26l-30.36-2.28c-16-9-32-20.09-48.25-.35l-5.57,1.38c-1.5,4.49-3.15,3.78-4.87.13a44,44,0,0,1-5.26,0c-1.86,1.5-3.71,3-5.57,4.53l-.46.44q-8.06,10.34-16.09,20.69a41,41,0,0,1-4.39.62q-5,5.59-9.93,11.2c2.19,10.56-6.76,17.3-9.06,26.33Z" transform="translate(796.26)"/><path class="cls-9" d="M205.22,172.87c-2.88-16.76-22.8-18.09-29-31.82-26.06-6.28-16.18-26.21-16.07-42.4l.1.08c-14.45-14.17-24.15-29.08-7.42-48.07q-.66-6.42-1.33-12.82l-2-9.5c-2.84-.66-3.78-2.4-2.89-5.16a9.07,9.07,0,0,1-2-4.14c-3.52-.44-7-.87-10.55-1.32-16.71,20.53-30.56.31-45.57-3.2l-15.32,0,0,1.41-.61-1.27a3,3,0,0,1-1.88-1.92L59.66,19.11c-.06,12.28.61,24.62-.45,36.81C58.39,65.35,57,75.84,43.57,76.23c-3.48.07-6.94.14-10.41.19-1.64,2.2-3.28,4.37-4.92,6.57-2.33,12.26,13.65,29.5-9.81,36C14.92,127.41,7.84,132.24.5,136.82c-30.26,25.81-32.73,25.94-50.93,2.25-20.5-12.79-39.78-16.1-57.75,5.11a16.53,16.53,0,0,1-19.25,4.17c-5,1.08-11.72.45-14.88,3.48-14.59,14-27.14,8.33-39.78-2.35C-200,138-206.57,117.79-218.72,101.87l-1.09-1-11.35-1.76c-.07,1.3-.14,2.61-.19,3.91l-5.82.22-4.94,2s-1.54,1.08-1.54,1.11a9.23,9.23,0,0,1,.19,1c-3.94,9.55-7.63,19.21-11.88,28.62-9.26,20.5-31,41.22,2,60.43,1.74,1,3.19,5,2.64,7.06-6.75,24.64,10.28,34.25,27.13,44.55,9.83,6,16.79,11.49,11.73,27.2-11.55,35.85,9.57,59.63,46.19,56.45,8-.71,20.19-7,23.64,3.83,9.59,30,29.74,16.56,46.86,12.61,8.34-1.92,18.25-10.17,24.36-3.28,10.58,11.94,23.48,10.6,36.14,11.35,14.53.87,24.31,5.42,22.21,21.94-1.94,15.4,5.35,16.49,17,12,8.16-3.17,16.82-5.41,22.91-12.41,8.07,1.38,14.19-3.94,22.85-7.39,0,5.45,0,9.65,0,13.84,0,7-.57,15.71,6.69,18.53,8.87,3.44,14.5-5.23,19.1-10.76,15.4-18.51,9.22-36.32-3.85-53.24-.41,1-.86,2-1.35,2.92a37.62,37.62,0,0,1-2.36,4A39.07,39.07,0,0,1,65.88,349a41,41,0,0,0,2.69-3.53,41.38,41.38,0,0,0,2.36-4c.48-.93.93-1.91,1.34-2.92,13.78-14.13,28.33-28,13.44-49.9-4.68-6.89-.83-13.08,5-15.11,40.38-14,52.9-44.21,50.22-83.68-.14.16-.29.32-.42.49l.4-.82c0,.11,0,.21,0,.33,1.28-1.48,2.55-3,3.83-4.43,11.84-28.32,35-10.3,53.09-13,2.48.2,4.94.42,7.41.63a.52.52,0,0,1,0-.11Z" transform="translate(796.26)"/></g><g class="cls-10"><path class="cls-2" d="M749.62,29c-6.53,0-9.5-.19-12.45,0-64.11,4.87-128.31,5.52-192.54,5.49-63.42,0-125.49-9.19-185.72-32.23C353.07,0,347.38-1,341.33,1.2q-30.6,11-61.28,21.68C215.21,45.35,152.4,77.14,82.45,76c-27.82-.48-44,18-52.66,46.22-2,6.39-3.79,12.84-5.85,19.19-5,15.45-9.8,31.18-19.88,43.5C-2,192.29-.73,198,4.31,205c16,22.17,36.17,31.35,61.35,26.7,23.73-4.37,46.84-11.62,69.83-19.25,39.22-13,78.6-18.2,119.19-8.81,20.92,4.84,42.22,7.75,63.39,11.12,31,4.95,60,.23,83.58-25.56,15-16.44,29.29-33.79,44.32-50.24,22.49-24.64,49.06-35.61,80.77-31,20.83,3,41.41,7.44,62.13,11,37.8,6.56,73.74,4.09,102.28-29.87A601.14,601.14,0,0,1,749.62,29Z" transform="translate(796.26)"/><path id="SVGID-2" data-name="SVGID" class="cls-2" d="M749.62,29c-6.53,0-9.5-.19-12.45,0-64.11,4.87-128.31,5.52-192.54,5.49-63.42,0-125.49-9.19-185.72-32.23C353.07,0,347.38-1,341.33,1.2q-30.6,11-61.28,21.68C215.21,45.35,152.4,77.14,82.45,76c-27.82-.48-44,18-52.66,46.22-2,6.39-3.79,12.84-5.85,19.19-5,15.45-9.8,31.18-19.88,43.5C-2,192.29-.73,198,4.31,205c16,22.17,36.17,31.35,61.35,26.7,23.73-4.37,46.84-11.62,69.83-19.25,39.22-13,78.6-18.2,119.19-8.81,20.92,4.84,42.22,7.75,63.39,11.12,31,4.95,60,.23,83.58-25.56,15-16.44,29.29-33.79,44.32-50.24,22.49-24.64,49.06-35.61,80.77-31,20.83,3,41.41,7.44,62.13,11,37.8,6.56,73.74,4.09,102.28-29.87A601.14,601.14,0,0,1,749.62,29Z" transform="translate(796.26)"/><g class="cls-11"><path class="cls-2" d="M-281.62,420.62c-2.3,3.52-7.25,7.88-6.46,10.48,10.29,33.51,0,67.88,4.8,101.52l-5.74,4.11c-2,2.1-4,4.21-6.07,6.29l-14.76-1c-1.71-3.92-5-5.42-9-5.74-2.91-3.35-5.81-3.32-8.7,0l-14.18.69c-8.33-2.62-12.61,10.07-21.4,5.65l-.18-.23c-1.61-1.9-3.2-3.81-4.81-5.72l-4.95-6.33c-1.39-1.55-2.78-3.1-4.17-4.67-11.87-12.61-26.89-20.28-42.52-27l-.16.06-6.59-4.28s0,0,0,0c-1.77-1.29-3.55-2.59-5.3-3.9a3.59,3.59,0,0,0-3.62-2.1c-19.75-8.06-17.7-35.15-37.64-43l.15.29-6.58-4.37c-1.78-1.29-3.58-2.56-5.36-3.84l-17.23-17.23c-1.17-2.24-2.32-4.47-3.48-6.71a3.29,3.29,0,0,0-1.57-3.85c.44-3.26-1.24-4.84-4.26-5.37l0,0-5.37-4.63a2,2,0,0,0-2.66-1.5l-7.75-5c-.82-6.85,4.06-14.06-1.26-20.63l-3.55-5.6c-.06-.11-.14-.21-.2-.33l0,.06c-2-3.2-4-6.42-6.07-9.63l-.11-.23q-2.21-3.16-4.42-6.31l.29.27c-5.5-11.68-11.33-23.13-21.12-31.94-.88-3.15-2.86-4.74-6.25-4.32l-6.5-5.69c.6-4.23,1.8-8.62-3-11.41,0,0,0-.11,0-.11-4.43-8.7-12.77-9.9-21.16-11l.23.32-6.58-3.38c-16.44-10.23-13-28-16.5-43.2-.65-12.84-5.29-22.25-19.87-23.1-28.3-8.1-39.06-33.63-54.39-54.65-16.71-22.94-45-31.09-64.74-50.86-10.61-10.65-20.3-21.11-28.15-33.82-9-14.62-8.35-26,8.35-33.93,5.57-10.34,12.44-13.07,23.58-6.61,23.77,13.81,49.71,17.94,77,21.79,14.21,2,37.51,17.57,36.67,43.06q6,5.1,12,10.17l26.74,7.62c28.62-13.27,40.24-5.86,40,25.47,11.8,16.12,22,34.29,45.68,35,.81,0,2.14.4,2.37,1,11,27.12,49.69,24.68,58.07,54.73,2.75,9.84,12.78,7.26,19.78,9.94,13,5,18.94,23.84,40.6,14.16,8.89-4,14.95,16.11,7.45,26.71-16,22.61-3.73,30.79,16.17,35.5,27.27,6.43,22.82,36.93,39.73,51q5.73,7.84,11.43,15.72c14.26-9.91,21.45-2.54,26.23,10.66-2.17,2.69-4.36,5.46-6.92,7.34,2.57-1.87,4.75-4.64,6.93-7.32a30,30,0,0,1,10.7,6.53,21,21,0,0,1,5,7.9c.19.57.37,1.15.53,1.74a27.3,27.3,0,0,1,.78,4.81h0Z" transform="translate(796.26)"/><path class="cls-2" d="M1121.08,602.34c2.9-16.05,1.36-32-.78-48-.94-17.28,5.41-35.36-5.7-51.52l-.59-1.47c-9.36-12.27-2-21.84,5.1-31.45q-.19-8.25-.4-16.52a18.42,18.42,0,0,1-1.52-3.21c-.09-.33.82-.94,1.27-1.42,1.64-11.44,2.21-22.84-1.65-34-14.64-34.65.17-72.86-13-107.69a1.68,1.68,0,0,0-2.59-.91c-2.39-7.28-7.3-10.45-13.48-10.45a22.12,22.12,0,0,0-4.91.59c-16.74,3.87-31.77-1-46.62-7.6h0c-5.21-8-14.13-7.28-21.89-9.31a23.84,23.84,0,0,0,1.39,2.41,22.11,22.11,0,0,1-1.4-2.41l-.62-.6h0c-4.78-12.76-16.11-10.18-26-11.06h0l-8.08-4.91-31.35,4.58a2.09,2.09,0,0,0-2.94,1.1,5.61,5.61,0,0,0-.17.62,5.61,5.61,0,0,1,.16-.62c-19.82,5.39-37.28-5.15-55.46-5.76-1.23-11.13,18-14.34,5.82-26.11S871.58,211.77,853,219.2c-11.21,4.48-19.84,13.23-5,25,6.1,4.81,13.17,9.57,8.67,19.3-11.14,7.37-13.9,13.09.57,21.22,13.12,7.37,25.84,7.88,39.61,5.28,6.14,12.81-8.42,15.68-11.52,24.05,0,0-.19.29-.19.29,2.3,8.39,3.2,16.06-8.7,17.29-.53-1.61-1.1-3.22-1.72-4.79-10.32,4.43-12.28,20.41-26.68,19.22-16.58-8.47-16.62-29.28-29.9-40.27-.63,5.74-3,7.9-8,3.6C797,298,794.6,283,796.19,266.78c1-10.16,4.86-20.24.57-30.49-1.63-3.88-3.24-7.76-4.87-11.65C780.47,218,764,230,755,214.69l-6-4.63c-14-1.85-28-2.86-41.94.38a5.32,5.32,0,0,1-3.42,1.57l-7.48,2.61c-7.88,6-19.65,2.73-26.53,11.12-1.4.2-2.8.42-4.19.66-18.44,10-26.7,24.63-21.06,45.69,13.87,3.58,35-7.27,39.92,12.72,2.93,11.94,10.26,16.6,16.49,24,14.43-11.69,33.18,2,47.89-8.11-1.8,13.71-9.33,19.19-23,16.55-6.44-1.25-13.54-4.67-18.48,3.27l-5.88.16c-9,9.68-14,17.12,3.62,24.69,10.65,4.59,27.71,8.41,19.51,29.42-2.74,7,6.37,16.35,14.56,19.85s12.28-3.9,16.2-9.73q7.85-6.09,15.66-12.2c4.64,3.43,10,10.28,13.93,10.28a2.81,2.81,0,0,0,.65-.07c17.71-3.94,27-.27,33.85,18.55,2.33,6.46,17,16,31.2,15.32,50.73-2.43,89.92,27,131.68,49.26,4.66,2.48,6,5.16,3.36,10.29-5.58,10.76,2.67,17.69,7.5,25.86,12.26,20.81,31.73,42.18,28.76,65.27-3.53,27.59,10.08,21.62,22.87,18.1,11.84-3.28,20.47-1.81,28.56,6.63,7.93,8.27,15.51,16.92,24,24.63,5.07,4.62,8.13,15.84,18.6,8.53C1124.05,619.51,1126,611.59,1121.08,602.34ZM773.32,353.16a16.09,16.09,0,0,0,.5-1.66A15.38,15.38,0,0,1,773.32,353.16ZM876,335.32c0,.42-.05.84-.07,1.26h0C875.9,336.16,875.92,335.74,876,335.32Zm-.08,1.27c0,2.1.07,4.21.1,6.33C871.67,340.87,871.7,338.76,875.87,336.59Zm35.63-11.47c0-.19-.08-.39-.12-.57,0,.18.08.38.13.58s.06.32.1.47C911.57,325.44,911.53,325.28,911.5,325.12ZM1036,288.7c.19.18.37.37.57.55l-.58-.54-1.39.19Zm27.36,279.36-.81.28c-1,.35-1.93.73-2.93,1.12-1.33.51-2.7,1-4.06,1.51,1.37-.48,2.73-1,4.06-1.51l2.93-1.13.81-.27a16.08,16.08,0,0,1,8.14-.62A16.41,16.41,0,0,0,1063.34,568.06Zm8.69-.51a15.48,15.48,0,0,1,1.91.55A17.44,17.44,0,0,0,1072,567.55ZM1113.4,542a15.68,15.68,0,0,0-1.29-1.92,14.62,14.62,0,0,1,1.29,1.92,22.44,22.44,0,0,1,1.1,2.13C1114.16,543.4,1113.79,542.68,1113.4,542Z" transform="translate(796.26)"/><path class="cls-2" d="M406.62,554.55C393.2,567.18,385,589,359.76,581c-2.93-.92-7.43-.08-10,1.67-31.78,21.34-65.3,13.63-98.84,6.46C244,602,237.6,615.28,220.63,617.25q-3.63-2.71-7.24-5.45l-2.45,5.57-1,.51c-5.39,3-10.76,5.12-16-.31q-.81-5.05-1.6-10.12c.28-4-1.83-6.24-5.46-7.38L182.78,597c-2.16-1.66-4.31-3.32-6.47-5l-10-6.9c-4.1-6.34-10.37-1.88-15.5-3.13-.08,3.19-.17,6.38-.25,9.57-10,16-19.59,2.91-28.43-1.13C88.48,575.08,53.76,585.11,20,587.13c-36.86,2.2-69.38-9.86-102.85-20.65-12.26-3.94-23.71-1.05-35.49,3.12-21.08,7.45-81.45-6.42-93.08-20.54,2.79-3.33,6.38-8-.14-9.66-13.64-3.51-27.69-6.37-41.53-.09l-13-7.23-4-14.05,6.08-6.29,5.74-4.11c14.32,5.19,12.63-12.58,21.6-15.05h0c-1.7-28.44,14.57-22.55,31-16.27l20.87-1.85c23.82-.88,48.37,1.4,66.57,16.45,23.35,19.3,66.94,19.79,86.72-3.13,7-8.11,11.66-12.39,25.47-4.21,15.85,9.38,36,18,57,12.11,1.91.3,3.83.58,5.77.87a4.07,4.07,0,0,1,2.66,2.72,22,22,0,0,0,2.23,4.64c-5.21,13.87,4.83,18.87,14.13,24.31,12.32,9,26.07,5.24,39,3.26,15.57-2.37,25.41,2.46,30,17.61l10.33-4.73c25.56.63,50.81-21.76,77.1,1,10.4,9,17.57,15.27,6,27-5,5-12.69,8.89-6.57,16.8,5.86,7.56,12.81-1.14,19.38-.8,8.13-11.2,1.06-30.9,20.13-36a3.24,3.24,0,0,1,1.85-3.51l13.71,1.42h0c6,1.76,12.09,3.63,17.4-1.79,10.21-3.85,21.68-4.81,28.49-15.7,4.05-6.46,14.18-9.89,18.62-5.7,16.84,15.88,26.15,3.3,36.65-8.43,9,7.8-3.63,31,20,27.17C409.46,545.56,409.51,551.83,406.62,554.55Z" transform="translate(796.26)"/><path class="cls-2" d="M651.12,373.79c-2.87,10.85-11.53,19-20.4,12.35-33.65-25.16-73.13-22.82-111.3-27.29-11,2.24-21.78,3.51-12.28-12.88,8.42-14.54,17.91-27.62,38.65-24.82,23.21,3.13,47-1.48,70.18,5.5C639.85,333.84,651.52,349,651.12,373.79Z" transform="translate(796.26)"/><path class="cls-2" d="M563.53,515.78c-7.41-10-15.64,4.19-23.42,8-15.12,7.31-30.73,21-47.35,9.83-25.36-17.08-43.35-6.49-61.54,10.42,2.93,3,4.31,7.26,7.06,10.17-2.75-2.91-4.13-7.14-7.06-10.17-9.39,5.54-15,15-8.78,23.56,7,9.68,19-.31,28.69,1.48-1.64,11.38-5.9,19.32-19.72,17.4-10.49-1.46-20.69-.51-27.07,10-6.91,4.47-13.81,9.54-10,19,3,7.63,10.39,9.22,17.87,7.69,9.29-1.91,14.46,3.71,20.45,9.2,19.89,18.21,32.5,16.82,52.82-5.09,5.85-3.71,5.88-10.14,1.58-12.9-15.83-10.13-16.85-26.44-19.78-42.18,12.3,3.12,23.83,3,32.93-7.65,18.68-3.6,40.16-.11,52.16-20.62C564.43,537.61,569.55,523.91,563.53,515.78Z" transform="translate(796.26)"/><path class="cls-2" d="M577.05,117.24c17.11,1.82,33.55-18.07,42.26-13.44,15.19,8.09,29,14.54,46,14,3.27-.11,6.47-2.49,9.71-3.83q0-9.18,0-18.33c-11.7-9.68-22.16-29.81-37.07-2.09-2.65,4.91-12.87,1.37-18.91-3.7-20.52-17.23-35.32,4.41-52.61,8.69-1.51.38-2.2,8.16-1.54,12.23C565.91,117.52,571.51,116.65,577.05,117.24Z" transform="translate(796.26)"/><path class="cls-2" d="M382.73,368.15l-.27.08.05.18Z" transform="translate(796.26)"/><path class="cls-2" d="M541.89,173.09l0-.09c-11.67-16-10-32.44-2.4-49.66,2.33-5.28-1.7-9.85-7.73-11.31-4.75,5.91-11.33,10.48-17.88,5.59-7.21-5.38-1.6-14.77-3-22.23h0a36.61,36.61,0,0,0,20.68-7.67l.05,0,5-6.43c.45-3.14.91-6.28,1.36-9.42a9.23,9.23,0,0,1-1.24-4.9l-10.38-2.18a5.78,5.78,0,0,1-4.47,2.13c-2,1.77-3.94,3.54-5.9,5.31q-2.61,2.53-5.22,5.1c-.3,1.79-.61,3.57-.93,5.37h0l-2.37,0-2.29-.63c-8.93,6.12-18.76,11.46-21.15,23.48-3.45,1.46-6.73,1.75-9.63-.59,3.18,7.82-.83,14-5.49,20-6.32,27.1,8.89,49.73,15.44,74.14-.33,3.38-.65,6.75-1,10.14-9.89,3-18.47,7.61-13.52,20,4.68,11.69,12.77,18.41,26.31,12.35-1.58,10-8.36,16.72-15,23.56-3.53,3.63-8.1,7.29-5.49,13.3s8.25,5,13.36,5.53c25.43,2.53,32.72-8.55,24.22-37l.31-.16c-.1-.21-.2-.39-.29-.59,7.28-4.78,15.39-8.81,16.65-18.91-5.83-15.14-21.77-25.87-19.41-44.58,10.89.35,24.73,19.25,31.68-5.05A3.61,3.61,0,0,1,541.89,173.09Zm-36.37,68.37-.43.34c0-.2,0-.39.06-.6.15,0,.27,0,.4,0Z" transform="translate(796.26)"/><path class="cls-2" d="M473.72,103.61l-.43.39a10,10,0,0,0,1,1C474.14,104.51,473.94,104.06,473.72,103.61Z" transform="translate(796.26)"/><path class="cls-2" d="M640,558.91q1,.39,2,.69-1-.3-2-.69l-28.19,21.54c-8.42,4.95-16.72,10.37-15.83,21.72,1.71,21.74-6.24,38.7-23.21,52.22-4.23,3.37-11.91,8.4-6.26,14.74,6.31,7.09,13.12.55,18.15-3.82C596.5,655,606,639.77,619.6,634.3c25.79-10.38,37.1-29.93,45.63-53.38h0l4.27-5.49c26.94-7.34,19.9-35.55,33.39-51.87C684.14,540.7,654.85,537.32,640,558.91Z" transform="translate(796.26)"/><path class="cls-2" d="M-257.95,389.07c.2.56.37,1.14.53,1.74a27,27,0,0,1,.79,4.8h0c12.46,10.62,22.88,10,30.64-5.53h0c3.69-12.33,9.47-24.73-9.71-30.6-4.89-1.49-9.11-8.23-11.74-13.5-16.82-33.62-23.35-34.5-51.05-5.91h0l-12.84,8.15L-299.9,364c14.26-9.91,21.45-2.54,26.23,10.65v0A29.94,29.94,0,0,1-263,381.16,20.68,20.68,0,0,1-257.95,389.07Zm9.24-10.27a12.37,12.37,0,0,0,4.74,5.69,12.37,12.37,0,0,1-4.74-5.69,44.77,44.77,0,0,0-11.82-17.39A44.56,44.56,0,0,1-248.71,378.8Z" transform="translate(796.26)"/><path class="cls-2" d="M464.81,308.56c-11.27-3.19-19.75,5.3-22.18,16.42-2,9.1-11.18,6.88-15.15,12.16-10.9,7.93-21.12,20.33-7.49,29.31,12,7.92,24.79,30.88,44.51,12.43,11.16-10.44,30.07-20.66,11.83-40.53C479.56,325.61,479.23,312.64,464.81,308.56Z" transform="translate(796.26)"/><path class="cls-2" d="M621.36,293.9l-.1.09-.1.1Z" transform="translate(796.26)"/><path class="cls-2" d="M606.78,273.17c-5.32,2.44-11.29,3.46-17,5.13l-.17.1-10.51,10.7c.12,1.92.24,3.85.35,5.77l5.92,4.57a15,15,0,0,1,4.66.55l5.29-.27,19.95-.64,6-5.09,5.25-5.52-.13,0C629,271.65,623.59,265.47,606.78,273.17Z" transform="translate(796.26)"/><path class="cls-2" d="M825.7,439.36c-10.81-3.2-14.17,6.79-18.4,14.09-19,17.63,4,43.78-13,62.49-7.21,7.94-.92,16.89,7.78,16.35,7.54-.46,20.36-10.54,16.19-16.22-13.93-18.9,9.79-18.5,11.93-28.35,8.6-8.2,7.43-18.84,6.07-28.84C835.28,451.43,834.08,441.85,825.7,439.36Z" transform="translate(796.26)"/><path class="cls-2" d="M-654.8,228l-5.44-3.61.07.11-10.19-6.2L-681.67,220l.51-2.23-5.3.7-10,5.92-5.63,5.73c2.83,13.11,12.33,21.6,19.92,31.85,9.63,13,17.89,18.4,32.3,9.51q2.13-4.83,4.25-9.67c3.44-11.23,2.49-21.82-4.51-31.55A6.5,6.5,0,0,1-654.8,228Z" transform="translate(796.26)"/><path class="cls-2" d="M505.55,241.23l0,.23-.43.34c0-.2,0-.39.06-.6C505.3,241.2,505.42,241.22,505.55,241.23Z" transform="translate(796.26)"/><path class="cls-2" d="M632.44,215.28l6.71,2.92.61.18,14-2.72c13.17-4.35,5.05-13.59,4.83-21-9.05-1.59-18.67-1-26.54-7-6.76,5.42-13.79,10.71-9.38,21.09l6.71,4.95A3.86,3.86,0,0,1,632.44,215.28Z" transform="translate(796.26)"/><path class="cls-2" d="M622.2,511.23c-14.48,2.16-32.25-4-39.85,15.7,28.59,16.81,41.59,16.06,66.51-4,3.77,0,5.86-2.43,7.37-5.62,10.48-8.85,11.1-16.16-4.3-17.87C640.58,498.22,628.87,499.16,622.2,511.23Z" transform="translate(796.26)"/><path class="cls-2" d="M1116.81,414.73c-14.64-34.65.17-72.86-13-107.69,6.69-.34,9.62,3.85,9.7,9.51C1114,349.31,1121.22,381.82,1116.81,414.73Z" transform="translate(796.26)"/><path class="cls-2" d="M-589.47,341.25a5.36,5.36,0,0,1-2.4-4.41l-4.17-6.46c-6.87-8.63-13.44-4.06-20,.46-.56,1.92-1.11,3.84-1.68,5.76,5,14.14,12.59,23.4,25.43,23-12.84.44-20.45-8.82-25.43-23-1.47,0-2.93-.07-4.39-.21l.11-.22-5.53,5.4.22-.25-5.51,6c.05,2.6.11,5.21.17,7.81l4.89,6.51,0,0c1.56,1.84,3.11,3.69,4.66,5.53l.3.4c11,10.43,24.2,7,37,5.69l.72-.71,4.54-4.58.24-11.21-5.88-12.15Zm-2.74,18.31a28.21,28.21,0,0,0,3.09-.29A28.21,28.21,0,0,1-592.21,359.56Z" transform="translate(796.26)"/><path class="cls-2" d="M706.65,468c-5.34,2.59-10.76,5-16.13,7.55.66,3.84,1.92,6.27,3.56,7.78-1.64-1.51-2.9-3.94-3.56-7.78-11.4,4.92-21.54,15-14.88,25.26C681,509,693.8,498.06,703.27,496c4.18-.93,7.25-6.89,10.83-10.56a13.14,13.14,0,0,0-2.46-.33,13.14,13.14,0,0,1,2.46.33c9-2.76,20.59-6.29,15.31-17.62C724.73,457.74,714.41,464.2,706.65,468Zm-8.93,17.24a13.87,13.87,0,0,0,1.61.29A13.87,13.87,0,0,1,697.72,485.21Z" transform="translate(796.26)"/><path class="cls-2" d="M536.65,66.77s0,.11,0,.16l.13,0Z" transform="translate(796.26)"/><path class="cls-2" d="M691,113.2c4.54-5.19,9.21-10.89,5.46-17.94s-10.22-3.13-15.73-1.89q-2.87,1.16-5.73,2.27,0,9.14,0,18.36C680.85,123.73,686.45,128.59,691,113.2Z" transform="translate(796.26)"/><path class="cls-2" d="M948.29,267.35l31.36-4.58C966.7,247.26,957.9,260.06,948.29,267.35Z" transform="translate(796.26)"/><path class="cls-2" d="M205.25,173l5.93,5.4c-16.51,31.75-20.28,68-35.17,100.29h0c-14.21,9.3-10.61,23.38-9.83,36.7,22.44-10,30.16.51,30.25,21.68,6.59,13.24,4.16,25.5-4,37.15L185.61,395c.46,2.05.93,4.08,1.39,6.11,1.75,1.58,3.5,3.15,5.23,4.73l.17.11c2,1.55,4.09,3.11,6.14,4.65l-.21-.33c17.58-10.26,40.24,7.84,56.45-10.1l.63-8.92a31.91,31.91,0,0,1-4.29-1.25c-1.1-8.26-8-16.4-8-24.69,0-4.27,1.85-8.58,7.31-13,.21-3.34.43-6.68.63-10q.19-13.23.38-26.47-.73-10.8-1.46-21.6c-1.14,0-2.28,0-3.41.07,1.13,0,2.27-.06,3.41-.08-1.55-5-3.13-10-4.69-15h0c30.28-.56,30.28-.56,15.19,36.48q5.78,10.57,11.57,21.12c1.72.4,3.43.85,5.11,1.37,22.52,5.06,8.76,18.64,6.91,29.42q4.53,5.91,9.05,11.81l9.64.73,11-.59c1.2,6.46,4.24,9.85,9.23,9.85a16.67,16.67,0,0,0,5.62-1.13c14-5.06,10.71,5.82,11.76,12.71-.84,13.73,6.92,12.61,16,9.25l5.55-4.35,5.58-4.93.2-.22,4.83-5.69-.14.09c3.26-9-5.45-22.64,10.15-26.9q-3-10.61-6-21.2l4.62-4.79c-1-3.52-2.09-7.06-3.15-10.59l-21,2.9-12.24-17.16-.18.27c-12.59-.42-16.28-6.73-12.06-18.25,6-3.36,10.26-7.67,8.31-15.33-5.36-1.75-8.57-5.67-10.73-10.63-2.94-3.33-5.9-6.64-8.84-9.94a71.56,71.56,0,0,1-6,4.56c2.06-1.49,4.14-3,6-4.57-16.95-23.43-13.74-28.85,20.19-34.22q-.07,6.06-.13,12.12l5,1.89a3.78,3.78,0,0,1,4.52,1.52l6.24-1.34q2.28-1.33,4.56-2.64a2.25,2.25,0,0,0-.12.21c6.56-5.07,14-4.57,21.61-3.58,1.79-.41,3.58-.83,5.38-1.23l10.11-10.86c.19-3.43.37-6.84.56-10.26l-2.6-.22-2.52.65h0L389.24,213c-6.75.77-6.11-4.19-6.5-8.37,1.68-.52,3.37-1,5.08-1.34l3.24-9.64-7.79-10.52c-5.26-.38-10.54-.75-15.81-1.11-16.53,7.27-33.5,13.8-51.8,12.73-17-1-25.33,13.14-38.11,19.36-3.64-7.12-3.72-18.49-16.94-14.14-4.78-11.74-21.68-15-21.09-30.69.38-9.58-.55-19.42,11.4-23.16h0L394.2,160.69c10.29-.12,21.19,3.78,30.29-4.48a14.53,14.53,0,0,1,1.4-4.62c1.57-.28,3.15-.63,4.69-1.06L456,124.31c.36-11.45,8.78-16,17.3-20.47q-.13-5-.32-9.93c-8.95-1.31-17.51-.86-24.69,5.6l-33.4,20.06c-6.95,5-14,7.08-21.35.76l-21.21-.76c-1.61,3.16-3.36,3.18-5.21.2l-5.24-1.39-6.53-3.55a3.45,3.45,0,0,1-3.81-1.44c-2.17-1.08-4.32-2.16-6.49-3.26l-30.36-2.28c-16-9-32-20.09-48.25-.35l-5.57,1.38c-1.5,4.49-3.15,3.78-4.87.13a44,44,0,0,1-5.26,0c-1.86,1.5-3.71,3-5.57,4.53l-.46.44q-8.06,10.34-16.09,20.69a41,41,0,0,1-4.39.62q-5,5.59-9.93,11.2c2.19,10.56-6.76,17.3-9.06,26.33Z" transform="translate(796.26)"/><path class="cls-2" d="M205.22,172.87c-2.88-16.76-22.8-18.09-29-31.82-26.06-6.28-16.18-26.21-16.07-42.4l.1.08c-14.45-14.17-24.15-29.08-7.42-48.07q-.66-6.42-1.33-12.82l-2-9.5c-2.84-.66-3.78-2.4-2.89-5.16a9.07,9.07,0,0,1-2-4.14c-3.52-.44-7-.87-10.55-1.32-16.71,20.53-30.56.31-45.57-3.2l-15.32,0,0,1.41-.61-1.27a3,3,0,0,1-1.88-1.92L59.66,19.11c-.06,12.28.61,24.62-.45,36.81C58.39,65.35,57,75.84,43.57,76.23c-3.48.07-6.94.14-10.41.19-1.64,2.2-3.28,4.37-4.92,6.57-2.33,12.26,13.65,29.5-9.81,36C14.92,127.41,7.84,132.24.5,136.82c-30.26,25.81-32.73,25.94-50.93,2.25-20.5-12.79-39.78-16.1-57.75,5.11a16.53,16.53,0,0,1-19.25,4.17c-5,1.08-11.72.45-14.88,3.48-14.59,14-27.14,8.33-39.78-2.35C-200,138-206.57,117.79-218.72,101.87l-1.09-1-11.35-1.76c-.07,1.3-.14,2.61-.19,3.91l-5.82.22-4.94,2s-1.54,1.08-1.54,1.11a9.23,9.23,0,0,1,.19,1c-3.94,9.55-7.63,19.21-11.88,28.62-9.26,20.5-31,41.22,2,60.43,1.74,1,3.19,5,2.64,7.06-6.75,24.64,10.28,34.25,27.13,44.55,9.83,6,16.79,11.49,11.73,27.2-11.55,35.85,9.57,59.63,46.19,56.45,8-.71,20.19-7,23.64,3.83,9.59,30,29.74,16.56,46.86,12.61,8.34-1.92,18.25-10.17,24.36-3.28,10.58,11.94,23.48,10.6,36.14,11.35,14.53.87,24.31,5.42,22.21,21.94-1.94,15.4,5.35,16.49,17,12,8.16-3.17,16.82-5.41,22.91-12.41,8.07,1.38,14.19-3.94,22.85-7.39,0,5.45,0,9.65,0,13.84,0,7-.57,15.71,6.69,18.53,8.87,3.44,14.5-5.23,19.1-10.76,15.4-18.51,9.22-36.32-3.85-53.24-.41,1-.86,2-1.35,2.92a37.62,37.62,0,0,1-2.36,4A39.07,39.07,0,0,1,65.88,349a41,41,0,0,0,2.69-3.53,41.38,41.38,0,0,0,2.36-4c.48-.93.93-1.91,1.34-2.92,13.78-14.13,28.33-28,13.44-49.9-4.68-6.89-.83-13.08,5-15.11,40.38-14,52.9-44.21,50.22-83.68-.14.16-.29.32-.42.49l.4-.82c0,.11,0,.21,0,.33,1.28-1.48,2.55-3,3.83-4.43,11.84-28.32,35-10.3,53.09-13,2.48.2,4.94.42,7.41.63a.52.52,0,0,1,0-.11Z" transform="translate(796.26)"/></g></g></g></g></svg>