<svg xmlns="http://www.w3.org/2000/svg" xmlns:xlink="http://www.w3.org/1999/xlink" viewBox="0 0 261.99 322.82"><defs><style>.cls-1{isolation:isolate;}.cls-2{fill:url(#linear-gradient);}.cls-3{fill:url(#linear-gradient-2);}.cls-14,.cls-15,.cls-16,.cls-17,.cls-18,.cls-19,.cls-21,.cls-4,.cls-8{opacity:0.5;}.cls-21,.cls-4{mix-blend-mode:multiply;}.cls-4{fill:url(#linear-gradient-3);}.cls-5{fill:url(#linear-gradient-5);}.cls-6{fill:url(#linear-gradient-6);}.cls-7{fill:url(#radial-gradient);}.cls-9{fill:url(#radial-gradient-2);}.cls-10{fill:url(#linear-gradient-7);}.cls-11{fill:url(#linear-gradient-8);}.cls-12{fill:url(#linear-gradient-9);}.cls-13{fill:url(#linear-gradient-10);}.cls-14{fill:url(#linear-gradient-11);}.cls-15{fill:url(#linear-gradient-12);}.cls-16{fill:url(#linear-gradient-13);}.cls-17{fill:url(#linear-gradient-14);}.cls-18{fill:url(#linear-gradient-15);}.cls-19{fill:url(#linear-gradient-16);}.cls-20{fill:url(#linear-gradient-17);}.cls-21{fill:url(#linear-gradient-18);}</style><linearGradient id="linear-gradient" x1="130.34" y1="32.61" x2="131.37" y2="419.46" gradientUnits="userSpaceOnUse"><stop offset="0" stop-color="#d55023"/><stop offset="1" stop-color="#2484c6" stop-opacity="0"/></linearGradient><linearGradient id="linear-gradient-2" x1="128.64" y1="49.16" x2="135.85" y2="452.48" xlink:href="#linear-gradient"/><linearGradient id="linear-gradient-3" x1="128.64" y1="49.16" x2="135.85" y2="452.48" gradientUnits="userSpaceOnUse"><stop offset="0" stop-color="#2484c6" stop-opacity="0"/><stop offset="1" stop-color="#d55023"/></linearGradient><linearGradient id="linear-gradient-5" x1="182.39" y1="60.14" x2="181.58" y2="302.9" xlink:href="#linear-gradient"/><linearGradient id="linear-gradient-6" x1="77.09" y1="59.79" x2="76.28" y2="302.55" xlink:href="#linear-gradient"/><radialGradient id="radial-gradient" cx="129.82" cy="161.41" r="143" gradientUnits="userSpaceOnUse"><stop offset="0.52" stop-color="#2484c6" stop-opacity="0"/><stop offset="1" stop-color="#d55023"/></radialGradient><radialGradient id="radial-gradient-2" cx="129.82" cy="161.41" r="143" gradientUnits="userSpaceOnUse"><stop offset="0" stop-color="#d55023"/><stop offset="0.48" stop-color="#2484c6" stop-opacity="0.5"/></radialGradient><linearGradient id="linear-gradient-7" x1="176.12" y1="60.12" x2="175.31" y2="302.88" xlink:href="#linear-gradient"/><linearGradient id="linear-gradient-8" x1="179.14" y1="60.13" x2="178.33" y2="302.89" xlink:href="#linear-gradient"/><linearGradient id="linear-gradient-9" x1="80.64" y1="59.8" x2="79.83" y2="302.56" xlink:href="#linear-gradient"/><linearGradient id="linear-gradient-10" x1="85.23" y1="59.82" x2="84.42" y2="302.58" xlink:href="#linear-gradient"/><linearGradient id="linear-gradient-11" x1="182.39" y1="60.14" x2="181.58" y2="302.9" xlink:href="#linear-gradient-3"/><linearGradient id="linear-gradient-12" x1="77.09" y1="59.79" x2="76.28" y2="302.55" xlink:href="#linear-gradient-3"/><linearGradient id="linear-gradient-13" x1="176.12" y1="60.12" x2="175.31" y2="302.88" xlink:href="#linear-gradient-3"/><linearGradient id="linear-gradient-14" x1="179.14" y1="60.13" x2="178.33" y2="302.89" xlink:href="#linear-gradient-3"/><linearGradient id="linear-gradient-15" x1="80.64" y1="59.8" x2="79.83" y2="302.56" xlink:href="#linear-gradient-3"/><linearGradient id="linear-gradient-16" x1="85.23" y1="59.82" x2="84.42" y2="302.58" xlink:href="#linear-gradient-3"/><linearGradient id="linear-gradient-17" x1="19.35" y1="161.35" x2="240.29" y2="161.35" xlink:href="#linear-gradient"/><linearGradient id="linear-gradient-18" x1="19.35" y1="161.35" x2="240.29" y2="161.35" xlink:href="#linear-gradient-3"/></defs><g class="cls-1"><g id="Layer_2" data-name="Layer 2"><g id="Layer_1-2" data-name="Layer 1"><path class="cls-2" d="M136.09,236H215a114.07,114.07,0,0,1-8.64,17.93c-2.7,4.54-6.78,13.54-6.87,18.92a58.23,58.23,0,0,1-13,8.53c40.41-.4,72.23-1.21,75.54-2.43-.14-4.7-4.34-127.44-18.24-182.59-5.8-23-13.12-47-9-70.43.95-5.44,1.66-9.51,1.85-12.55.14-2.28-7.66-8.56-20-7.73.08.32-12-2.49-14.91-2.49-4.16,0-6.85,3.15-13.46,10.42-13.39,14.74-32.7,22.32-54.44,22.7-24.93.44-47-7.62-62.28-25.29C68,7,65.37,1.24,58.58,2.9,52.07,4.53,44.81,5.59,44.81,5.59c-1-.09-21.34,1.3-18.22,14.85,5.31,22.89-3,46.16-6.81,69.07C17.63,102.24-1.38,236.12.08,279.25c3,1.15,34.54,1.88,74.75,2.2-6.8-3.78-12.24-7.24-12.37-8.05-.39-7.15-3.12-13.39-6.3-19.82q-4.27-8.67-7.68-17.6h71.69l.32,45.66h15.92ZM48.48,224.61a170.87,170.87,0,0,1-8.37-29.7c-.37-2,61.8-31.22,79.64-31.21l.42,60.91Zm73.55-78a6.26,6.26,0,0,1-4.25,5.84c-16.31,5.51-72.65,25.76-81.34,16.2-2.83-3.11-1.39-6.31-2.56-26.05-.78-13.15-2.13-23.7-3.07-30.21-.36-2.75.46-12.39,1-16.63.17-1.39.26-2.79.35-4.19C32.81,81,40,60.28,43.3,52.23c2.66-6.56,56.45,5.52,74.91,9.14a6.25,6.25,0,0,1,5.05,6.25Zm14.48-78.21a6.24,6.24,0,0,1,5.86-6.15C165.73,61,216.27,46.34,218,53.34c2,7.94,12.42,36.31,11.11,48.05-.44,4-.22,14.51-1.09,35.35-1.3,31.27-1.59,32.85-3.37,34.58-11.74,11.37-43.66-9.15-84.89-19.72a6.24,6.24,0,0,1-4.66-6.18Zm85.3,130.44A142.54,142.54,0,0,1,215,224.61H136.09l-.42-60.91C154.3,163.71,222.18,196.77,221.81,198.87Z"/><path class="cls-3" d="M251.46,104.32c-.53-25.3-8.09-34.64-10.11-56.22a109.66,109.66,0,0,1,1-28l-.6-5.3c-.24-2.11-1.75-9.11-11.1-10.53-1.3-.2-2.74-.32-4.41-.46-2.07-.18-6.36-.53-7.83-1.08l-.59-.32-.8-.29A30.23,30.23,0,0,0,206.73.19C195.3.19,188,7.66,183.44,13.28c-15.37,19.12-34,29.65-52.56,29.65-10.25,0-20.62-3.18-30.83-9.46A75.33,75.33,0,0,1,77.94,12.61C72.19,4.47,64,0,54.9,0a30.59,30.59,0,0,0-7.56,1L47,1.07c-3,.75-7.9,2-12.25,3.25-7.83,2.24-14.6,4.18-15.86,12a89,89,0,0,1,.41,27.72c-2.09,14.23-8,29-9.5,46.1-.07.7-.14,2.55-.39,4.64,0,.16-1.8,15.63-1.29,22.54,0,4,.91,12.22,2.9,29.63,1.31,11.5,2.8,24.54,3.3,31.75a206.77,206.77,0,0,0,6.1,37.46L41,305.59a19.2,19.2,0,0,0,19.1,17.23H198.33a19.2,19.2,0,0,0,19.1-17.23l18.47-68.84c7-19.82,9.38-39.53,12-61.27q.42-3.49.86-7.08c1.23-9.87,1.84-34.4,2.25-50.62C251.39,104.21,251.49,106.12,251.46,104.32ZM40.11,194.91c-.37-2,61.8-31.22,79.64-31.21l.42,60.91H48.48A170.87,170.87,0,0,1,40.11,194.91Zm77,102.18c-6.74-2.72-14.24-2.63-21-5.33-10.79-3.95-33.37-16.7-33.63-18.36-.39-7.15-3.12-13.39-6.3-19.82q-4.27-8.67-7.68-17.6h71.69l.42,60.91ZM122,146.64a6.26,6.26,0,0,1-4.25,5.84c-16.31,5.51-72.65,25.76-81.34,16.2-2.83-3.11-1.39-6.31-2.56-26.05-.78-13.15-2.13-23.7-3.07-30.21-.36-2.75.46-12.39,1-16.63.17-1.39.26-2.79.35-4.19C32.81,81,40,60.28,43.3,52.23c2.66-6.56,56.45,5.52,74.91,9.14a6.25,6.25,0,0,1,5.05,6.25Zm84.31,107.27c-2.7,4.54-6.78,13.54-6.87,18.92-8.82,7.92-20.09,11.4-30.4,16.64-3.58,1.83-7.53,2.83-11.23,4.51a116.32,116.32,0,0,1-21.33,2.91L136.09,236H215A114.07,114.07,0,0,1,206.34,253.91Zm8.64-29.3H136.09l-.42-60.91c18.63,0,86.51,33.07,86.14,35.17A142.54,142.54,0,0,1,215,224.61Zm14.15-123.22c-.44,4-.22,14.51-1.09,35.35-1.3,31.27-1.59,32.85-3.37,34.58-11.74,11.37-43.66-9.15-84.89-19.72a6.24,6.24,0,0,1-4.66-6.18l1.39-77a6.24,6.24,0,0,1,5.86-6.15C165.73,61,216.27,46.34,218,53.34,220,61.28,230.44,89.65,229.13,101.39Z"/><path class="cls-4" d="M251.46,104.32c-.53-25.3-8.09-34.64-10.11-56.22a109.66,109.66,0,0,1,1-28l-.6-5.3c-.24-2.11-1.75-9.11-11.1-10.53-1.3-.2-2.74-.32-4.41-.46-2.07-.18-6.36-.53-7.83-1.08l-.59-.32-.8-.29A30.23,30.23,0,0,0,206.73.19C195.3.19,188,7.66,183.44,13.28c-15.37,19.12-34,29.65-52.56,29.65-10.25,0-20.62-3.18-30.83-9.46A75.33,75.33,0,0,1,77.94,12.61C72.19,4.47,64,0,54.9,0a30.59,30.59,0,0,0-7.56,1L47,1.07c-3,.75-7.9,2-12.25,3.25-7.83,2.24-14.6,4.18-15.86,12a89,89,0,0,1,.41,27.72c-2.09,14.23-8,29-9.5,46.1-.07.7-.14,2.55-.39,4.64,0,.16-1.8,15.63-1.29,22.54,0,4,.91,12.22,2.9,29.63,1.31,11.5,2.8,24.54,3.3,31.75a206.77,206.77,0,0,0,6.1,37.46L41,305.59a19.2,19.2,0,0,0,19.1,17.23H198.33a19.2,19.2,0,0,0,19.1-17.23l18.47-68.84c7-19.82,9.38-39.53,12-61.27q.42-3.49.86-7.08c1.23-9.87,1.84-34.4,2.25-50.62C251.39,104.21,251.49,106.12,251.46,104.32ZM40.11,194.91c-.37-2,61.8-31.22,79.64-31.21l.42,60.91H48.48A170.87,170.87,0,0,1,40.11,194.91Zm77,102.18c-6.74-2.72-14.24-2.63-21-5.33-10.79-3.95-33.37-16.7-33.63-18.36-.39-7.15-3.12-13.39-6.3-19.82q-4.27-8.67-7.68-17.6h71.69l.42,60.91ZM122,146.64a6.26,6.26,0,0,1-4.25,5.84c-16.31,5.51-72.65,25.76-81.34,16.2-2.83-3.11-1.39-6.31-2.56-26.05-.78-13.15-2.13-23.7-3.07-30.21-.36-2.75.46-12.39,1-16.63.17-1.39.26-2.79.35-4.19C32.81,81,40,60.28,43.3,52.23c2.66-6.56,56.45,5.52,74.91,9.14a6.25,6.25,0,0,1,5.05,6.25Zm84.31,107.27c-2.7,4.54-6.78,13.54-6.87,18.92-8.82,7.92-20.09,11.4-30.4,16.64-3.58,1.83-7.53,2.83-11.23,4.51a116.32,116.32,0,0,1-21.33,2.91L136.09,236H215A114.07,114.07,0,0,1,206.34,253.91Zm8.64-29.3H136.09l-.42-60.91c18.63,0,86.51,33.07,86.14,35.17A142.54,142.54,0,0,1,215,224.61Zm14.15-123.22c-.44,4-.22,14.51-1.09,35.35-1.3,31.27-1.59,32.85-3.37,34.58-11.74,11.37-43.66-9.15-84.89-19.72a6.24,6.24,0,0,1-4.66-6.18l1.39-77a6.24,6.24,0,0,1,5.86-6.15C165.73,61,216.27,46.34,218,53.34,220,61.28,230.44,89.65,229.13,101.39Z"/><path class="cls-4" d="M251.46,104.32c-.53-25.3-8.09-34.64-10.11-56.22a109.66,109.66,0,0,1,1-28l-.6-5.3c-.24-2.11-1.75-9.11-11.1-10.53-1.3-.2-2.74-.32-4.41-.46-2.07-.18-6.36-.53-7.83-1.08l-.59-.32-.8-.29A30.23,30.23,0,0,0,206.73.19C195.3.19,188,7.66,183.44,13.28c-15.37,19.12-34,29.65-52.56,29.65-10.25,0-20.62-3.18-30.83-9.46A75.33,75.33,0,0,1,77.94,12.61C72.19,4.47,64,0,54.9,0a30.59,30.59,0,0,0-7.56,1L47,1.07c-3,.75-7.9,2-12.25,3.25-7.83,2.24-14.6,4.18-15.86,12a89,89,0,0,1,.41,27.72c-2.09,14.23-8,29-9.5,46.1-.07.7-.14,2.55-.39,4.64,0,.16-1.8,15.63-1.29,22.54,0,4,.91,12.22,2.9,29.63,1.31,11.5,2.8,24.54,3.3,31.75a206.77,206.77,0,0,0,6.1,37.46L41,305.59a19.2,19.2,0,0,0,19.1,17.23H198.33a19.2,19.2,0,0,0,19.1-17.23l18.47-68.84c7-19.82,9.38-39.53,12-61.27q.42-3.49.86-7.08c1.23-9.87,1.84-34.4,2.25-50.62C251.39,104.21,251.49,106.12,251.46,104.32ZM40.11,194.91c-.37-2,61.8-31.22,79.64-31.21l.42,60.91H48.48A170.87,170.87,0,0,1,40.11,194.91Zm77,102.18c-6.74-2.72-14.24-2.63-21-5.33-10.79-3.95-33.37-16.7-33.63-18.36-.39-7.15-3.12-13.39-6.3-19.82q-4.27-8.67-7.68-17.6h71.69l.42,60.91ZM122,146.64a6.26,6.26,0,0,1-4.25,5.84c-16.31,5.51-72.65,25.76-81.34,16.2-2.83-3.11-1.39-6.31-2.56-26.05-.78-13.15-2.13-23.7-3.07-30.21-.36-2.75.46-12.39,1-16.63.17-1.39.26-2.79.35-4.19C32.81,81,40,60.28,43.3,52.23c2.66-6.56,56.45,5.52,74.91,9.14a6.25,6.25,0,0,1,5.05,6.25Zm84.31,107.27c-2.7,4.54-6.78,13.54-6.87,18.92-8.82,7.92-20.09,11.4-30.4,16.64-3.58,1.83-7.53,2.83-11.23,4.51a116.32,116.32,0,0,1-21.33,2.91L136.09,236H215A114.07,114.07,0,0,1,206.34,253.91Zm8.64-29.3H136.09l-.42-60.91c18.63,0,86.51,33.07,86.14,35.17A142.54,142.54,0,0,1,215,224.61Zm14.15-123.22c-.44,4-.22,14.51-1.09,35.35-1.3,31.27-1.59,32.85-3.37,34.58-11.74,11.37-43.66-9.15-84.89-19.72a6.24,6.24,0,0,1-4.66-6.18l1.39-77a6.24,6.24,0,0,1,5.86-6.15C165.73,61,216.27,46.34,218,53.34,220,61.28,230.44,89.65,229.13,101.39Z"/><path class="cls-5" d="M135.12,145.42a6.24,6.24,0,0,0,4.66,6.18c41.23,10.57,73.15,31.09,84.89,19.72,1.78-1.73,2.07-3.31,3.37-34.58.87-20.84.65-31.36,1.09-35.35,1.31-11.74-9.11-40.11-11.11-48-1.75-7-52.29,7.61-75.65,8.94a6.24,6.24,0,0,0-5.86,6.15Z"/><path class="cls-6" d="M122,146.64a6.26,6.26,0,0,1-4.25,5.84c-16.31,5.51-72.65,25.76-81.34,16.2-2.83-3.11-1.39-6.31-2.56-26.05-.78-13.15-2.13-23.7-3.07-30.21-.36-2.75.46-12.39,1-16.63.17-1.39.26-2.79.35-4.19C32.81,81,40,60.28,43.3,52.23c2.66-6.56,56.45,5.52,74.91,9.14a6.25,6.25,0,0,1,5.05,6.25Z"/><path class="cls-7" d="M54.9,11.37c5.31,0,10,2.5,13.75,7.79a86.23,86.23,0,0,0,25.45,24c12.56,7.74,25,11.15,36.78,11.15,23.74,0,45.23-13.75,61.41-33.89,4.48-5.56,8.8-8.85,14.44-8.85a19.29,19.29,0,0,1,6.46,1.25c4.93,2.66,17.15,2,17.28,3.26-7,7.32-6.59,17.51-4.21,27.06,2.51,9.92,15.52,45.35,13.89,60-.4,3.57-.93,50.09-2.63,63.85-4.18,33.63-6.51,61.51-24.15,91.19-3.32,5.59-8.34,16.67-8.46,23.28-10.85,9.76-24.72,14-37.41,20.49-4.41,2.25-9.28,3.48-13.82,5.55-10,2.53-20.29,3.28-30.57,3.82-8.3-3.34-17.53-3.23-25.85-6.55-13.28-4.86-41.07-20.55-41.39-22.6-.48-8.8-3.84-16.49-7.76-24.4C35.72,232.63,27.58,206.16,25.62,178c-1.09-15.83-6.43-55.56-6.16-61-.45-3.43.58-15.47,1.21-20.76.2-1.75.32-3.49.43-5.24C22,77.71,31,51.8,35.06,41.74c3.75-9.23,3-17.06-5-23.58C30.26,17,44.68,13.38,50.14,12a19.06,19.06,0,0,1,4.76-.63M54.9,0a31.11,31.11,0,0,0-7.56,1l-.38.1c-3,.75-7.9,2-12.25,3.25-7.83,2.24-14.6,4.18-15.86,12l1.2,9.21c2.77,2.27,7.08,5.49,4.48,11.89C21,46.15,10.78,74.44,9.76,90.18c-.1,1.55-.21,3.15-.38,4.64,0,.16-1.81,15.63-1.3,22.54,0,4,.91,12.22,2.9,29.63,1.31,11.5,2.8,24.54,3.3,31.75,2,28.27,9.69,55.77,23.63,84.06,3.93,7.95,6.27,13.76,6.6,20l0,.57.08.57c.87,5.6,3.66,8.53,21.56,18.44,3.92,2.17,17.39,9.49,27,13a77.16,77.16,0,0,0,14.89,3.81,57.7,57.7,0,0,1,10.77,2.66l2.34.94,2.52-.13c10.42-.56,21.53-1.33,32.73-4.15l1-.25.94-.43c1.61-.73,3.43-1.39,5.36-2.09a76.29,76.29,0,0,0,8.92-3.68c3.35-1.7,6.81-3.26,10.49-4.9,10-4.47,20.26-9.09,29.35-17.26l3.69-3.31.08-4.95c.05-3.18,3.46-11.94,6.87-17.68,17.6-29.61,20.93-56.9,24.79-88.51q.42-3.49.86-7.08c1.23-9.87,1.84-34.4,2.25-50.62.15-6,.31-12.18.41-13.46,1.35-12.53-4.49-32.62-11.13-53.84-1.35-4.34-2.52-8.09-3-10.13-2.66-10.64-.48-14.46,1.39-16.41l3.69-3.85-.6-5.3c-.24-2.11-1.75-9.11-11.1-10.53-1.3-.2-2.74-.32-4.41-.46-2.07-.17-6.35-.53-7.83-1.08l-.59-.32-.8-.28A30,30,0,0,0,206.73.19C195.3.19,188,7.66,183.44,13.27c-15.37,19.13-34,29.66-52.56,29.66-10.25,0-20.62-3.18-30.82-9.46A75.25,75.25,0,0,1,77.94,12.61C72.19,4.47,64,0,54.9,0Z"/><g class="cls-8"><path class="cls-9" d="M54.9,11.37c5.31,0,10,2.5,13.75,7.79a86.23,86.23,0,0,0,25.45,24c12.56,7.74,25,11.15,36.78,11.15,23.74,0,45.23-13.75,61.41-33.89,4.48-5.56,8.8-8.85,14.44-8.85a19.29,19.29,0,0,1,6.46,1.25c4.93,2.66,17.15,2,17.28,3.26-7,7.32-6.59,17.51-4.21,27.06,2.51,9.92,15.52,45.35,13.89,60-.4,3.57-.93,50.09-2.63,63.85-4.18,33.63-6.51,61.51-24.15,91.19-3.32,5.59-8.34,16.67-8.46,23.28-10.85,9.76-24.72,14-37.41,20.49-4.41,2.25-9.28,3.48-13.82,5.55-10,2.53-20.29,3.28-30.57,3.82-8.3-3.34-17.53-3.23-25.85-6.55-13.28-4.86-41.07-20.55-41.39-22.6-.48-8.8-3.84-16.49-7.76-24.4C35.72,232.63,27.58,206.16,25.62,178c-1.09-15.83-6.43-55.56-6.16-61-.45-3.43.58-15.47,1.21-20.76.2-1.75.32-3.49.43-5.24C22,77.71,31,51.8,35.06,41.74c3.75-9.23,3-17.06-5-23.58C30.26,17,44.68,13.38,50.14,12a19.06,19.06,0,0,1,4.76-.63M54.9,0a31.11,31.11,0,0,0-7.56,1l-.38.1c-3,.75-7.9,2-12.25,3.25-7.83,2.24-14.6,4.18-15.86,12l1.2,9.21c2.77,2.27,7.08,5.49,4.48,11.89C21,46.15,10.78,74.44,9.76,90.18c-.1,1.55-.21,3.15-.38,4.64,0,.16-1.81,15.63-1.3,22.54,0,4,.91,12.22,2.9,29.63,1.31,11.5,2.8,24.54,3.3,31.75,2,28.27,9.69,55.77,23.63,84.06,3.93,7.95,6.27,13.76,6.6,20l0,.57.08.57c.87,5.6,3.66,8.53,21.56,18.44,3.92,2.17,17.39,9.49,27,13a77.16,77.16,0,0,0,14.89,3.81,57.7,57.7,0,0,1,10.77,2.66l2.34.94,2.52-.13c10.42-.56,21.53-1.33,32.73-4.15l1-.25.94-.43c1.61-.73,3.43-1.39,5.36-2.09a76.29,76.29,0,0,0,8.92-3.68c3.35-1.7,6.81-3.26,10.49-4.9,10-4.47,20.26-9.09,29.35-17.26l3.69-3.31.08-4.95c.05-3.18,3.46-11.94,6.87-17.68,17.6-29.61,20.93-56.9,24.79-88.51q.42-3.49.86-7.08c1.23-9.87,1.84-34.4,2.25-50.62.15-6,.31-12.18.41-13.46,1.35-12.53-4.49-32.62-11.13-53.84-1.35-4.34-2.52-8.09-3-10.13-2.66-10.64-.48-14.46,1.39-16.41l3.69-3.85-.6-5.3c-.24-2.11-1.75-9.11-11.1-10.53-1.3-.2-2.74-.32-4.41-.46-2.07-.17-6.35-.53-7.83-1.08l-.59-.32-.8-.28A30,30,0,0,0,206.73.19C195.3.19,188,7.66,183.44,13.27c-15.37,19.13-34,29.66-52.56,29.66-10.25,0-20.62-3.18-30.82-9.46A75.25,75.25,0,0,1,77.94,12.61C72.19,4.47,64,0,54.9,0Z"/></g><path class="cls-10" d="M215,236a114.07,114.07,0,0,1-8.64,17.93c-2.7,4.54-6.78,13.54-6.87,18.92-8.82,7.92-20.09,11.4-30.4,16.64-3.58,1.83-7.53,2.83-11.23,4.51a116.32,116.32,0,0,1-21.33,2.91L136.09,236Z"/><path class="cls-11" d="M215,224.61a142.54,142.54,0,0,0,6.83-25.74c.37-2.1-67.51-35.16-86.14-35.17l.42,60.91Z"/><path class="cls-12" d="M48.48,224.61a170.87,170.87,0,0,1-8.37-29.7c-.37-2,61.8-31.22,79.64-31.21l.42,60.91Z"/><path class="cls-13" d="M48.48,236q3.39,8.94,7.68,17.6c3.18,6.43,5.91,12.67,6.3,19.82.26,1.66,22.84,14.41,33.63,18.36,6.76,2.7,14.26,2.61,21,5.33l3.5-.2L120.17,236Z"/><path class="cls-14" d="M135.12,145.42a6.24,6.24,0,0,0,4.66,6.18c41.23,10.57,73.15,31.09,84.89,19.72,1.78-1.73,2.07-3.31,3.37-34.58.87-20.84.65-31.36,1.09-35.35,1.31-11.74-9.11-40.11-11.11-48-1.75-7-52.29,7.61-75.65,8.94a6.24,6.24,0,0,0-5.86,6.15Z"/><path class="cls-15" d="M122,146.64a6.26,6.26,0,0,1-4.25,5.84c-16.31,5.51-72.65,25.76-81.34,16.2-2.83-3.11-1.39-6.31-2.56-26.05-.78-13.15-2.13-23.7-3.07-30.21-.36-2.75.46-12.39,1-16.63.17-1.39.26-2.79.35-4.19C32.81,81,40,60.28,43.3,52.23c2.66-6.56,56.45,5.52,74.91,9.14a6.25,6.25,0,0,1,5.05,6.25Z"/><path class="cls-16" d="M215,236a114.07,114.07,0,0,1-8.64,17.93c-2.7,4.54-6.78,13.54-6.87,18.92-8.82,7.92-20.09,11.4-30.4,16.64-3.58,1.83-7.53,2.83-11.23,4.51a116.32,116.32,0,0,1-21.33,2.91L136.09,236Z"/><path class="cls-17" d="M215,224.61a142.54,142.54,0,0,0,6.83-25.74c.37-2.1-67.51-35.16-86.14-35.17l.42,60.91Z"/><path class="cls-18" d="M48.48,224.61a170.87,170.87,0,0,1-8.37-29.7c-.37-2,61.8-31.22,79.64-31.21l.42,60.91Z"/><path class="cls-19" d="M48.48,236q3.39,8.94,7.68,17.6c3.18,6.43,5.91,12.67,6.3,19.82.26,1.66,22.84,14.41,33.63,18.36,6.76,2.7,14.26,2.61,21,5.33l3.5-.2L120.17,236Z"/><path class="cls-20" d="M226.26,43.13c-2.38-9.55-2.82-19.74,4.21-27.06-.13-1.21-12.35-.6-17.28-3.26-9.1-3.27-14.85.1-20.9,7.6-24.24,30.18-60.4,46-98.19,22.74a86.23,86.23,0,0,1-25.45-24c-4.82-6.82-11.26-9-18.51-7.16-5.46,1.38-19.88,5-20.06,6.16,8,6.52,8.73,14.35,5,23.58C31,51.8,22,77.71,21.1,90.92c-.11,1.75-.23,3.49-.43,5.24-.63,5.29-1.66,17.33-1.21,20.76-.27,5.48,5.07,45.21,6.16,61,2,28.2,10.1,54.67,22.49,79.82,3.92,7.91,7.28,15.6,7.76,24.4.32,2.05,28.11,17.74,41.39,22.6,8.32,3.32,17.55,3.21,25.85,6.55,10.28-.54,20.54-1.29,30.57-3.82,4.54-2.07,9.41-3.3,13.82-5.55,12.69-6.46,26.56-10.73,37.41-20.49.12-6.61,5.14-17.69,8.46-23.28,17.64-29.68,20-57.56,24.15-91.19,1.7-13.76,2.23-60.28,2.63-63.85C241.78,88.48,228.77,53.05,226.26,43.13ZM40.11,194.91c-.37-2,61.8-31.22,79.64-31.21l.42,60.91H48.48A170.87,170.87,0,0,1,40.11,194.91Zm77,102.18c-6.74-2.72-14.24-2.63-21-5.33-10.79-3.95-33.37-16.7-33.63-18.36-.39-7.15-3.12-13.39-6.3-19.82q-4.27-8.67-7.68-17.6h71.69l.42,60.91ZM122,146.64a6.26,6.26,0,0,1-4.25,5.84c-16.31,5.51-72.65,25.76-81.34,16.2-2.83-3.11-1.39-6.31-2.56-26.05-.78-13.15-2.13-23.7-3.07-30.21-.36-2.75.46-12.39,1-16.63.17-1.39.26-2.79.35-4.19C32.81,81,40,60.28,43.3,52.23c2.66-6.56,56.45,5.52,74.91,9.14a6.25,6.25,0,0,1,5.05,6.25Zm84.31,107.27c-2.7,4.54-6.78,13.54-6.87,18.92-8.82,7.92-20.09,11.4-30.4,16.64-3.58,1.83-7.53,2.83-11.23,4.51a116.32,116.32,0,0,1-21.33,2.91L136.09,236H215A114.07,114.07,0,0,1,206.34,253.91Zm8.64-29.3H136.09l-.42-60.91c18.63,0,86.51,33.07,86.14,35.17A142.54,142.54,0,0,1,215,224.61Zm14.15-123.22c-.44,4-.22,14.51-1.09,35.35-1.3,31.27-1.59,32.85-3.37,34.58-11.74,11.37-43.66-9.15-84.89-19.72a6.24,6.24,0,0,1-4.66-6.18l1.39-77a6.24,6.24,0,0,1,5.86-6.15C165.73,61,216.27,46.34,218,53.34,220,61.28,230.44,89.65,229.13,101.39Z"/><path class="cls-21" d="M226.26,43.13c-2.38-9.55-2.82-19.74,4.21-27.06-.13-1.21-12.35-.6-17.28-3.26-9.1-3.27-14.85.1-20.9,7.6-24.24,30.18-60.4,46-98.19,22.74a86.23,86.23,0,0,1-25.45-24c-4.82-6.82-11.26-9-18.51-7.16-5.46,1.38-19.88,5-20.06,6.16,8,6.52,8.73,14.35,5,23.58C31,51.8,22,77.71,21.1,90.92c-.11,1.75-.23,3.49-.43,5.24-.63,5.29-1.66,17.33-1.21,20.76-.27,5.48,5.07,45.21,6.16,61,2,28.2,10.1,54.67,22.49,79.82,3.92,7.91,7.28,15.6,7.76,24.4.32,2.05,28.11,17.74,41.39,22.6,8.32,3.32,17.55,3.21,25.85,6.55,10.28-.54,20.54-1.29,30.57-3.82,4.54-2.07,9.41-3.3,13.82-5.55,12.69-6.46,26.56-10.73,37.41-20.49.12-6.61,5.14-17.69,8.46-23.28,17.64-29.68,20-57.56,24.15-91.19,1.7-13.76,2.23-60.28,2.63-63.85C241.78,88.48,228.77,53.05,226.26,43.13ZM40.11,194.91c-.37-2,61.8-31.22,79.64-31.21l.42,60.91H48.48A170.87,170.87,0,0,1,40.11,194.91Zm77,102.18c-6.74-2.72-14.24-2.63-21-5.33-10.79-3.95-33.37-16.7-33.63-18.36-.39-7.15-3.12-13.39-6.3-19.82q-4.27-8.67-7.68-17.6h71.69l.42,60.91ZM122,146.64a6.26,6.26,0,0,1-4.25,5.84c-16.31,5.51-72.65,25.76-81.34,16.2-2.83-3.11-1.39-6.31-2.56-26.05-.78-13.15-2.13-23.7-3.07-30.21-.36-2.75.46-12.39,1-16.63.17-1.39.26-2.79.35-4.19C32.81,81,40,60.28,43.3,52.23c2.66-6.56,56.45,5.52,74.91,9.14a6.25,6.25,0,0,1,5.05,6.25Zm84.31,107.27c-2.7,4.54-6.78,13.54-6.87,18.92-8.82,7.92-20.09,11.4-30.4,16.64-3.58,1.83-7.53,2.83-11.23,4.51a116.32,116.32,0,0,1-21.33,2.91L136.09,236H215A114.07,114.07,0,0,1,206.34,253.91Zm8.64-29.3H136.09l-.42-60.91c18.63,0,86.51,33.07,86.14,35.17A142.54,142.54,0,0,1,215,224.61Zm14.15-123.22c-.44,4-.22,14.51-1.09,35.35-1.3,31.27-1.59,32.85-3.37,34.58-11.74,11.37-43.66-9.15-84.89-19.72a6.24,6.24,0,0,1-4.66-6.18l1.39-77a6.24,6.24,0,0,1,5.86-6.15C165.73,61,216.27,46.34,218,53.34,220,61.28,230.44,89.65,229.13,101.39Z"/></g></g></g></svg>