<svg width="1920" height="1080" viewBox="0 0 1920 1080" fill="none" xmlns="http://www.w3.org/2000/svg">
<g clip-path="url(#clip0_325_1290)">
<rect width="1920" height="1080" fill="#231F20"/>
<g opacity="0.1">
<path opacity="0.5" d="M1914.56 8.09738H852.658V10.7965H1914.56V8.09738Z" fill="white"/>
<path opacity="0.2" d="M1915.91 59.9206H851.309V62.6197H1915.91V59.9206Z" fill="white"/>
<path opacity="0.2" d="M1915.91 113.093H851.309V115.793H1915.91V113.093Z" fill="white"/>
<path opacity="0.2" d="M1915.91 166.536H851.309V169.235H1915.91V166.536Z" fill="white"/>
<path opacity="0.2" d="M1915.91 219.709H851.309V222.408H1915.91V219.709Z" fill="white"/>
<path opacity="0.5" d="M1915.91 272.882H851.309V275.581H1915.91V272.882Z" fill="white"/>
<path opacity="0.2" d="M1915.91 326.054H851.309V328.754H1915.91V326.054Z" fill="white"/>
<path opacity="0.2" d="M1915.91 379.497H851.309V382.196H1915.91V379.497Z" fill="white"/>
<path opacity="0.2" d="M1915.91 432.67H851.309V435.369H1915.91V432.67Z" fill="white"/>
<path opacity="0.2" d="M1915.91 485.843H851.309V488.542H1915.91V485.843Z" fill="white"/>
<path opacity="0.5" d="M1915.91 539.285H851.309V541.984H1915.91V539.285Z" fill="white"/>
<path opacity="0.2" d="M1915.91 592.458H851.309V595.157H1915.91V592.458Z" fill="white"/>
<path opacity="0.2" d="M1915.91 645.631H851.309V648.33H1915.91V645.631Z" fill="white"/>
<path opacity="0.2" d="M1915.91 699.074H851.309V701.773H1915.91V699.074Z" fill="white"/>
<path opacity="0.2" d="M1915.91 752.246H851.309V754.946H1915.91V752.246Z" fill="white"/>
<path opacity="0.5" d="M1915.91 805.419H851.309V808.118H1915.91V805.419Z" fill="white"/>
<path opacity="0.2" d="M1915.91 858.862H851.309V861.561H1915.91V858.862Z" fill="white"/>
<path opacity="0.2" d="M1915.91 912.035H851.309V914.734H1915.91V912.035Z" fill="white"/>
<path opacity="0.2" d="M1915.91 965.208H851.309V967.907H1915.91V965.208Z" fill="white"/>
<path opacity="0.2" d="M1915.91 1018.38H851.309V1021.08H1915.91V1018.38Z" fill="white"/>
<path opacity="0.5" d="M1914.56 1070.47H852.658V1073.17H1914.56V1070.47Z" fill="white"/>
<path opacity="0.5" d="M1916.17 9.17702H1913.48V1071.55H1916.17V9.17702Z" fill="white"/>
<path opacity="0.2" d="M1864.1 8.09738H1861.41V1073.17H1864.1V8.09738Z" fill="white"/>
<path opacity="0.2" d="M1810.96 8.09738H1808.26V1073.17H1810.96V8.09738Z" fill="white"/>
<path opacity="0.2" d="M1757.54 8.09738H1754.84V1073.17H1757.54V8.09738Z" fill="white"/>
<path opacity="0.2" d="M1704.39 8.09738H1701.69V1073.17H1704.39V8.09738Z" fill="white"/>
<path opacity="0.5" d="M1651.24 8.09738H1648.54V1073.17H1651.24V8.09738Z" fill="white"/>
<path opacity="0.2" d="M1598.09 8.09738H1595.39V1073.17H1598.09V8.09738Z" fill="white"/>
<path opacity="0.2" d="M1544.67 8.09738H1541.97V1073.17H1544.67V8.09738Z" fill="white"/>
<path opacity="0.2" d="M1491.52 8.09738H1488.83V1073.17H1491.52V8.09738Z" fill="white"/>
<path opacity="0.2" d="M1438.37 8.09738H1435.68V1073.17H1438.37V8.09738Z" fill="white"/>
<path opacity="0.5" d="M1384.96 8.09738H1382.26V1073.17H1384.96V8.09738Z" fill="white"/>
<path opacity="0.2" d="M1331.81 8.09738H1329.11V1073.17H1331.81V8.09738Z" fill="white"/>
<path opacity="0.2" d="M1278.66 8.09738H1275.96V1073.17H1278.66V8.09738Z" fill="white"/>
<path opacity="0.2" d="M1225.24 8.09738H1222.54V1073.17H1225.24V8.09738Z" fill="white"/>
<path opacity="0.2" d="M1172.09 8.09738H1169.39V1073.17H1172.09V8.09738Z" fill="white"/>
<path opacity="0.5" d="M1118.94 8.09738H1116.24V1073.17H1118.94V8.09738Z" fill="white"/>
<path opacity="0.2" d="M1065.52 8.09738H1062.82V1073.17H1065.52V8.09738Z" fill="white"/>
<path opacity="0.2" d="M1012.37 8.09738H1009.68V1073.17H1012.37V8.09738Z" fill="white"/>
<path opacity="0.2" d="M959.225 8.09738H956.527V1073.17H959.225V8.09738Z" fill="white"/>
<path opacity="0.2" d="M906.077 8.09738H903.379V1073.17H906.077V8.09738Z" fill="white"/>
<path opacity="0.5" d="M854.006 9.17702H851.309V1071.55H854.006V9.17702Z" fill="white"/>
<g opacity="0.1">
<path opacity="0.1" d="M1924 8.09738H1905.38V10.7965H1924V8.09738Z" fill="white"/>
<path opacity="0.1" d="M1916.17 0H1913.48V18.624H1916.17V0Z" fill="white"/>
</g>
<g opacity="0.1">
<path opacity="0.1" d="M1924 1070.47H1905.38V1073.17H1924V1070.47Z" fill="white"/>
<path opacity="0.1" d="M1916.17 1062.38H1913.48V1081H1916.17V1062.38Z" fill="white"/>
</g>
<g opacity="0.1">
<path opacity="0.1" d="M1658.52 8.09738H1639.91V10.7965H1658.52V8.09738Z" fill="white"/>
<path opacity="0.1" d="M1650.43 0H1647.73V18.624H1650.43V0Z" fill="white"/>
</g>
<g opacity="0.1">
<path opacity="0.1" d="M1658.52 1070.47H1639.91V1073.17H1658.52V1070.47Z" fill="white"/>
<path opacity="0.1" d="M1650.43 1062.38H1647.73V1081H1650.43V1062.38Z" fill="white"/>
</g>
<g opacity="0.1">
<path opacity="0.1" d="M1393.05 8.09738H1374.43V10.7965H1393.05V8.09738Z" fill="white"/>
<path opacity="0.1" d="M1384.96 0H1382.26V18.624H1384.96V0Z" fill="white"/>
</g>
<g opacity="0.1">
<path opacity="0.1" d="M1393.05 1070.47H1374.43V1073.17H1393.05V1070.47Z" fill="white"/>
<path opacity="0.1" d="M1384.96 1062.38H1382.26V1081H1384.96V1062.38Z" fill="white"/>
</g>
<g opacity="0.1">
<path opacity="0.1" d="M1127.57 8.09738H1108.96V10.7965H1127.57V8.09738Z" fill="white"/>
<path opacity="0.1" d="M1119.48 0H1116.78V18.624H1119.48V0Z" fill="white"/>
</g>
<g opacity="0.1">
<path opacity="0.1" d="M1127.57 1070.47H1108.96V1073.17H1127.57V1070.47Z" fill="white"/>
<path opacity="0.1" d="M1119.48 1062.38H1116.78V1081H1119.48V1062.38Z" fill="white"/>
</g>
<g opacity="0.1">
<path opacity="0.1" d="M862.1 8.09738H843.484V10.7965H862.1V8.09738Z" fill="white"/>
<path opacity="0.1" d="M854.006 0H851.309V18.624H854.006V0Z" fill="white"/>
</g>
<g opacity="0.1">
<path opacity="0.1" d="M1924 273.691H1905.38V276.391H1924V273.691Z" fill="white"/>
<path opacity="0.1" d="M1916.17 265.594H1913.48V284.218H1916.17V265.594Z" fill="white"/>
</g>
<g opacity="0.1">
<path opacity="0.1" d="M1658.52 273.691H1639.91V276.391H1658.52V273.691Z" fill="white"/>
<path opacity="0.1" d="M1650.43 265.594H1647.73V284.218H1650.43V265.594Z" fill="white"/>
</g>
<g opacity="0.1">
<path opacity="0.1" d="M1393.05 273.691H1374.43V276.391H1393.05V273.691Z" fill="white"/>
<path opacity="0.1" d="M1384.96 265.594H1382.26V284.218H1384.96V265.594Z" fill="white"/>
</g>
<g opacity="0.1">
<path opacity="0.1" d="M1127.57 273.691H1108.96V276.391H1127.57V273.691Z" fill="white"/>
<path opacity="0.1" d="M1119.48 265.594H1116.78V284.218H1119.48V265.594Z" fill="white"/>
</g>
<g opacity="0.1">
<path opacity="0.1" d="M862.1 273.691H843.484V276.391H862.1V273.691Z" fill="white"/>
<path opacity="0.1" d="M854.006 265.594H851.309V284.218H854.006V265.594Z" fill="white"/>
</g>
<g opacity="0.1">
<path opacity="0.1" d="M1924 539.285H1905.38V541.984H1924V539.285Z" fill="white"/>
<path opacity="0.1" d="M1916.17 531.188H1913.48V549.812H1916.17V531.188Z" fill="white"/>
</g>
<g opacity="0.1">
<path opacity="0.1" d="M1658.52 539.285H1639.91V541.984H1658.52V539.285Z" fill="white"/>
<path opacity="0.1" d="M1650.43 531.188H1647.73V549.812H1650.43V531.188Z" fill="white"/>
</g>
<g opacity="0.1">
<path opacity="0.1" d="M1393.05 539.285H1374.43V541.984H1393.05V539.285Z" fill="white"/>
<path opacity="0.1" d="M1384.96 531.188H1382.26V549.812H1384.96V531.188Z" fill="white"/>
</g>
<g opacity="0.1">
<path opacity="0.1" d="M1127.57 539.285H1108.96V541.984H1127.57V539.285Z" fill="white"/>
<path opacity="0.1" d="M1119.48 531.188H1116.78V549.812H1119.48V531.188Z" fill="white"/>
</g>
<g opacity="0.1">
<path opacity="0.1" d="M862.1 539.285H843.484V541.984H862.1V539.285Z" fill="white"/>
<path opacity="0.1" d="M854.006 531.188H851.309V549.812H854.006V531.188Z" fill="white"/>
</g>
<g opacity="0.1">
<path opacity="0.1" d="M1924 804.879H1905.38V807.579H1924V804.879Z" fill="white"/>
<path opacity="0.1" d="M1916.17 796.782H1913.48V815.406H1916.17V796.782Z" fill="white"/>
</g>
<g opacity="0.1">
<path opacity="0.1" d="M1658.52 804.879H1639.91V807.579H1658.52V804.879Z" fill="white"/>
<path opacity="0.1" d="M1650.43 796.782H1647.73V815.406H1650.43V796.782Z" fill="white"/>
</g>
<g opacity="0.1">
<path opacity="0.1" d="M1393.05 804.879H1374.43V807.579H1393.05V804.879Z" fill="white"/>
<path opacity="0.1" d="M1384.96 796.782H1382.26V815.406H1384.96V796.782Z" fill="white"/>
</g>
<g opacity="0.1">
<path opacity="0.1" d="M1127.57 804.879H1108.96V807.579H1127.57V804.879Z" fill="white"/>
<path opacity="0.1" d="M1119.48 796.782H1116.78V815.406H1119.48V796.782Z" fill="white"/>
</g>
<g opacity="0.1">
<path opacity="0.1" d="M862.1 804.879H843.484V807.579H862.1V804.879Z" fill="white"/>
<path opacity="0.1" d="M854.006 796.782H851.309V815.406H854.006V796.782Z" fill="white"/>
</g>
<g opacity="0.1">
<path opacity="0.1" d="M862.1 1070.47H843.484V1073.17H862.1V1070.47Z" fill="white"/>
<path opacity="0.1" d="M854.006 1062.38H851.309V1081H854.006V1062.38Z" fill="white"/>
</g>
<path opacity="0.1" d="M1783.17 140.894H1780.47V143.593H1783.17V140.894Z" fill="white"/>
<path opacity="0.1" d="M1783.17 406.488H1780.47V409.188H1783.17V406.488Z" fill="white"/>
<path opacity="0.1" d="M1783.17 672.082H1780.47V674.781H1783.17V672.082Z" fill="white"/>
<path opacity="0.1" d="M1783.17 937.677H1780.47V940.375H1783.17V937.677Z" fill="white"/>
<path opacity="0.1" d="M1517.69 140.894H1515V143.593H1517.69V140.894Z" fill="white"/>
<path opacity="0.1" d="M1517.69 406.488H1515V409.188H1517.69V406.488Z" fill="white"/>
<path opacity="0.1" d="M1517.69 672.082H1515V674.781H1517.69V672.082Z" fill="white"/>
<path opacity="0.1" d="M1517.69 937.677H1515V940.375H1517.69V937.677Z" fill="white"/>
<path opacity="0.1" d="M1252.22 140.894H1249.52V143.593H1252.22V140.894Z" fill="white"/>
<path opacity="0.1" d="M1252.22 406.488H1249.52V409.188H1252.22V406.488Z" fill="white"/>
<path opacity="0.1" d="M1252.22 672.082H1249.52V674.781H1252.22V672.082Z" fill="white"/>
<path opacity="0.1" d="M1252.22 937.677H1249.52V940.375H1252.22V937.677Z" fill="white"/>
<path opacity="0.1" d="M986.743 140.894H984.045V143.593H986.743V140.894Z" fill="white"/>
<path opacity="0.1" d="M986.743 406.488H984.045V409.188H986.743V406.488Z" fill="white"/>
<path opacity="0.1" d="M986.743 672.082H984.045V674.781H986.743V672.082Z" fill="white"/>
<path opacity="0.1" d="M986.743 937.677H984.045V940.375H986.743V937.677Z" fill="white"/>
</g>
<g opacity="0.1">
<path opacity="0.5" d="M848.073 8.09738H-213.826V10.7965H848.073V8.09738Z" fill="white"/>
<path opacity="0.2" d="M849.691 59.9206H-214.906V62.6197H849.691V59.9206Z" fill="white"/>
<path opacity="0.2" d="M849.691 113.093H-214.906V115.793H849.691V113.093Z" fill="white"/>
<path opacity="0.2" d="M849.691 166.536H-214.906V169.235H849.691V166.536Z" fill="white"/>
<path opacity="0.2" d="M849.691 219.709H-214.906V222.408H849.691V219.709Z" fill="white"/>
<path opacity="0.5" d="M849.691 272.882H-214.906V275.581H849.691V272.882Z" fill="white"/>
<path opacity="0.2" d="M849.691 326.054H-214.906V328.754H849.691V326.054Z" fill="white"/>
<path opacity="0.2" d="M849.691 379.497H-214.906V382.196H849.691V379.497Z" fill="white"/>
<path opacity="0.2" d="M849.691 432.67H-214.906V435.369H849.691V432.67Z" fill="white"/>
<path opacity="0.2" d="M849.691 485.843H-214.906V488.542H849.691V485.843Z" fill="white"/>
<path opacity="0.5" d="M849.691 539.285H-214.906V541.984H849.691V539.285Z" fill="white"/>
<path opacity="0.2" d="M849.691 592.458H-214.906V595.157H849.691V592.458Z" fill="white"/>
<path opacity="0.2" d="M849.691 645.631H-214.906V648.33H849.691V645.631Z" fill="white"/>
<path opacity="0.2" d="M849.691 699.074H-214.906V701.773H849.691V699.074Z" fill="white"/>
<path opacity="0.2" d="M849.691 752.246H-214.906V754.946H849.691V752.246Z" fill="white"/>
<path opacity="0.5" d="M849.691 805.419H-214.906V808.118H849.691V805.419Z" fill="white"/>
<path opacity="0.2" d="M849.691 858.862H-214.906V861.561H849.691V858.862Z" fill="white"/>
<path opacity="0.2" d="M849.691 912.035H-214.906V914.734H849.691V912.035Z" fill="white"/>
<path opacity="0.2" d="M849.691 965.208H-214.906V967.907H849.691V965.208Z" fill="white"/>
<path opacity="0.2" d="M849.691 1018.38H-214.906V1021.08H849.691V1018.38Z" fill="white"/>
<path opacity="0.5" d="M848.073 1070.47H-213.826V1073.17H848.073V1070.47Z" fill="white"/>
<path opacity="0.5" d="M849.69 9.17702H846.992V1071.55H849.69V9.17702Z" fill="white"/>
<path opacity="0.2" d="M797.622 8.09738H794.924V1073.17H797.622V8.09738Z" fill="white"/>
<path opacity="0.2" d="M744.471 8.09738H741.773V1073.17H744.471V8.09738Z" fill="white"/>
<path opacity="0.2" d="M691.323 8.09738H688.625V1073.17H691.323V8.09738Z" fill="white"/>
<path opacity="0.2" d="M638.174 8.09738H635.477V1073.17H638.174V8.09738Z" fill="white"/>
<path opacity="0.5" d="M584.755 8.09738H582.057V1073.17H584.755V8.09738Z" fill="white"/>
<path opacity="0.2" d="M531.606 8.09738H528.908V1073.17H531.606V8.09738Z" fill="white"/>
<path opacity="0.2" d="M478.458 8.09738H475.76V1073.17H478.458V8.09738Z" fill="white"/>
<path opacity="0.2" d="M425.04 8.09738H422.342V1073.17H425.04V8.09738Z" fill="white"/>
<path opacity="0.2" d="M371.889 8.09738H369.191V1073.17H371.889V8.09738Z" fill="white"/>
<path opacity="0.5" d="M318.741 8.09738H316.043V1073.17H318.741V8.09738Z" fill="white"/>
<path opacity="0.2" d="M265.323 8.09738H262.625V1073.17H265.323V8.09738Z" fill="white"/>
<path opacity="0.2" d="M212.174 8.09738H209.477V1073.17H212.174V8.09738Z" fill="white"/>
<path opacity="0.2" d="M159.024 8.09738H156.326V1073.17H159.024V8.09738Z" fill="white"/>
<path opacity="0.2" d="M105.606 8.09738H102.908V1073.17H105.606V8.09738Z" fill="white"/>
<path opacity="0.5" d="M52.4577 8.09738H49.7598V1073.17H52.4577V8.09738Z" fill="white"/>
<g opacity="0.1">
<path opacity="0.1" d="M857.514 8.09738H838.898V10.7965H857.514V8.09738Z" fill="white"/>
<path opacity="0.1" d="M849.69 0H846.992V18.624H849.69V0Z" fill="white"/>
</g>
<g opacity="0.1">
<path opacity="0.1" d="M857.514 1070.47H838.898V1073.17H857.514V1070.47Z" fill="white"/>
<path opacity="0.1" d="M849.69 1062.38H846.992V1081H849.69V1062.38Z" fill="white"/>
</g>
<g opacity="0.1">
<path opacity="0.1" d="M592.039 8.09738H573.424V10.7965H592.039V8.09738Z" fill="white"/>
<path opacity="0.1" d="M584.216 0H581.518V18.624H584.216V0Z" fill="white"/>
</g>
<g opacity="0.1">
<path opacity="0.1" d="M592.039 1070.47H573.424V1073.17H592.039V1070.47Z" fill="white"/>
<path opacity="0.1" d="M584.216 1062.38H581.518V1081H584.216V1062.38Z" fill="white"/>
</g>
<g opacity="0.1">
<path opacity="0.1" d="M326.565 8.09738H307.949V10.7965H326.565V8.09738Z" fill="white"/>
<path opacity="0.1" d="M318.741 0H316.043V18.624H318.741V0Z" fill="white"/>
</g>
<g opacity="0.1">
<path opacity="0.1" d="M326.565 1070.47H307.949V1073.17H326.565V1070.47Z" fill="white"/>
<path opacity="0.1" d="M318.741 1062.38H316.043V1081H318.741V1062.38Z" fill="white"/>
</g>
<g opacity="0.1">
<path opacity="0.1" d="M61.0902 8.09738H42.4746V10.7965H61.0902V8.09738Z" fill="white"/>
<path opacity="0.1" d="M53.2663 0H50.5684V18.624H53.2663V0Z" fill="white"/>
</g>
<g opacity="0.1">
<path opacity="0.1" d="M61.0902 1070.47H42.4746V1073.17H61.0902V1070.47Z" fill="white"/>
<path opacity="0.1" d="M53.2663 1062.38H50.5684V1081H53.2663V1062.38Z" fill="white"/>
</g>
<g opacity="0.1">
<path opacity="0.1" d="M857.514 273.691H838.898V276.391H857.514V273.691Z" fill="white"/>
<path opacity="0.1" d="M849.69 265.594H846.992V284.218H849.69V265.594Z" fill="white"/>
</g>
<g opacity="0.1">
<path opacity="0.1" d="M592.039 273.691H573.424V276.391H592.039V273.691Z" fill="white"/>
<path opacity="0.1" d="M584.216 265.594H581.518V284.218H584.216V265.594Z" fill="white"/>
</g>
<g opacity="0.1">
<path opacity="0.1" d="M326.565 273.691H307.949V276.391H326.565V273.691Z" fill="white"/>
<path opacity="0.1" d="M318.741 265.594H316.043V284.218H318.741V265.594Z" fill="white"/>
</g>
<g opacity="0.1">
<path opacity="0.1" d="M61.0902 273.691H42.4746V276.391H61.0902V273.691Z" fill="white"/>
<path opacity="0.1" d="M53.2663 265.594H50.5684V284.218H53.2663V265.594Z" fill="white"/>
</g>
<g opacity="0.1">
<path opacity="0.1" d="M857.514 539.285H838.898V541.984H857.514V539.285Z" fill="white"/>
<path opacity="0.1" d="M849.69 531.188H846.992V549.812H849.69V531.188Z" fill="white"/>
</g>
<g opacity="0.1">
<path opacity="0.1" d="M592.039 539.285H573.424V541.984H592.039V539.285Z" fill="white"/>
<path opacity="0.1" d="M584.216 531.188H581.518V549.812H584.216V531.188Z" fill="white"/>
</g>
<g opacity="0.1">
<path opacity="0.1" d="M326.565 539.285H307.949V541.984H326.565V539.285Z" fill="white"/>
<path opacity="0.1" d="M318.741 531.188H316.043V549.812H318.741V531.188Z" fill="white"/>
</g>
<g opacity="0.1">
<path opacity="0.1" d="M61.0902 539.285H42.4746V541.984H61.0902V539.285Z" fill="white"/>
<path opacity="0.1" d="M53.2663 531.188H50.5684V549.812H53.2663V531.188Z" fill="white"/>
</g>
<g opacity="0.1">
<path opacity="0.1" d="M857.514 804.879H838.898V807.579H857.514V804.879Z" fill="white"/>
<path opacity="0.1" d="M849.69 796.782H846.992V815.406H849.69V796.782Z" fill="white"/>
</g>
<g opacity="0.1">
<path opacity="0.1" d="M592.039 804.879H573.424V807.579H592.039V804.879Z" fill="white"/>
<path opacity="0.1" d="M584.216 796.782H581.518V815.406H584.216V796.782Z" fill="white"/>
</g>
<g opacity="0.1">
<path opacity="0.1" d="M326.565 804.879H307.949V807.579H326.565V804.879Z" fill="white"/>
<path opacity="0.1" d="M318.741 796.782H316.043V815.406H318.741V796.782Z" fill="white"/>
</g>
<g opacity="0.1">
<path opacity="0.1" d="M61.0902 804.879H42.4746V807.579H61.0902V804.879Z" fill="white"/>
<path opacity="0.1" d="M53.2663 796.782H50.5684V815.406H53.2663V796.782Z" fill="white"/>
</g>
<path opacity="0.1" d="M716.954 140.894H714.256V143.593H716.954V140.894Z" fill="white"/>
<path opacity="0.1" d="M716.954 406.488H714.256V409.188H716.954V406.488Z" fill="white"/>
<path opacity="0.1" d="M716.954 672.082H714.256V674.781H716.954V672.082Z" fill="white"/>
<path opacity="0.1" d="M716.954 937.677H714.256V940.375H716.954V937.677Z" fill="white"/>
<path opacity="0.1" d="M451.479 140.894H448.781V143.593H451.479V140.894Z" fill="white"/>
<path opacity="0.1" d="M451.479 406.488H448.781V409.188H451.479V406.488Z" fill="white"/>
<path opacity="0.1" d="M451.479 672.082H448.781V674.781H451.479V672.082Z" fill="white"/>
<path opacity="0.1" d="M451.479 937.677H448.781V940.375H451.479V937.677Z" fill="white"/>
<path opacity="0.1" d="M186.005 140.894H183.307V143.593H186.005V140.894Z" fill="white"/>
<path opacity="0.1" d="M186.005 406.488H183.307V409.188H186.005V406.488Z" fill="white"/>
<path opacity="0.1" d="M186.005 672.082H183.307V674.781H186.005V672.082Z" fill="white"/>
<path opacity="0.1" d="M186.005 937.677H183.307V940.375H186.005V937.677Z" fill="white"/>
</g>
<g opacity="0.1">
<path opacity="0.5" d="M1914.56 1075.1H852.658V1077.8H1914.56V1075.1Z" fill="white"/>
<path opacity="0.5" d="M1916.17 1076.18H1913.48V2138.55H1916.17V1076.18Z" fill="white"/>
<path opacity="0.2" d="M1864.1 1075.1H1861.41V2140.17H1864.1V1075.1Z" fill="white"/>
<path opacity="0.2" d="M1810.96 1075.1H1808.26V2140.17H1810.96V1075.1Z" fill="white"/>
<path opacity="0.2" d="M1757.54 1075.1H1754.84V2140.17H1757.54V1075.1Z" fill="white"/>
<path opacity="0.2" d="M1704.39 1075.1H1701.69V2140.17H1704.39V1075.1Z" fill="white"/>
<path opacity="0.5" d="M1651.24 1075.1H1648.54V2140.17H1651.24V1075.1Z" fill="white"/>
<path opacity="0.2" d="M1598.09 1075.1H1595.39V2140.17H1598.09V1075.1Z" fill="white"/>
<path opacity="0.2" d="M1544.67 1075.1H1541.97V2140.17H1544.67V1075.1Z" fill="white"/>
<path opacity="0.2" d="M1491.52 1075.1H1488.83V2140.17H1491.52V1075.1Z" fill="white"/>
<path opacity="0.2" d="M1438.37 1075.1H1435.68V2140.17H1438.37V1075.1Z" fill="white"/>
<path opacity="0.5" d="M1384.96 1075.1H1382.26V2140.17H1384.96V1075.1Z" fill="white"/>
<path opacity="0.2" d="M1331.81 1075.1H1329.11V2140.17H1331.81V1075.1Z" fill="white"/>
<path opacity="0.2" d="M1278.66 1075.1H1275.96V2140.17H1278.66V1075.1Z" fill="white"/>
<path opacity="0.2" d="M1225.24 1075.1H1222.54V2140.17H1225.24V1075.1Z" fill="white"/>
<path opacity="0.2" d="M1172.09 1075.1H1169.39V2140.17H1172.09V1075.1Z" fill="white"/>
<path opacity="0.5" d="M1118.94 1075.1H1116.24V2140.17H1118.94V1075.1Z" fill="white"/>
<path opacity="0.2" d="M1065.52 1075.1H1062.82V2140.17H1065.52V1075.1Z" fill="white"/>
<path opacity="0.2" d="M1012.37 1075.1H1009.68V2140.17H1012.37V1075.1Z" fill="white"/>
<path opacity="0.2" d="M959.225 1075.1H956.527V2140.17H959.225V1075.1Z" fill="white"/>
<path opacity="0.2" d="M906.077 1075.1H903.379V2140.17H906.077V1075.1Z" fill="white"/>
<path opacity="0.5" d="M854.006 1076.18H851.309V2138.55H854.006V1076.18Z" fill="white"/>
<g opacity="0.1">
<path opacity="0.1" d="M1924 1075.1H1905.38V1077.8H1924V1075.1Z" fill="white"/>
<path opacity="0.1" d="M1916.17 1067H1913.48V1085.62H1916.17V1067Z" fill="white"/>
</g>
<g opacity="0.1">
<path opacity="0.1" d="M1658.52 1075.1H1639.91V1077.8H1658.52V1075.1Z" fill="white"/>
<path opacity="0.1" d="M1650.43 1067H1647.73V1085.62H1650.43V1067Z" fill="white"/>
</g>
<g opacity="0.1">
<path opacity="0.1" d="M1393.05 1075.1H1374.43V1077.8H1393.05V1075.1Z" fill="white"/>
<path opacity="0.1" d="M1384.96 1067H1382.26V1085.62H1384.96V1067Z" fill="white"/>
</g>
<g opacity="0.1">
<path opacity="0.1" d="M1127.57 1075.1H1108.96V1077.8H1127.57V1075.1Z" fill="white"/>
<path opacity="0.1" d="M1119.48 1067H1116.78V1085.62H1119.48V1067Z" fill="white"/>
</g>
<g opacity="0.1">
<path opacity="0.1" d="M862.1 1075.1H843.484V1077.8H862.1V1075.1Z" fill="white"/>
<path opacity="0.1" d="M854.006 1067H851.309V1085.62H854.006V1067Z" fill="white"/>
</g>
</g>
<g opacity="0.1">
<path opacity="0.5" d="M848.073 1075.1H-213.826V1077.8H848.073V1075.1Z" fill="white"/>
<path opacity="0.5" d="M849.69 1076.18H846.992V2138.55H849.69V1076.18Z" fill="white"/>
<path opacity="0.2" d="M797.622 1075.1H794.924V2140.17H797.622V1075.1Z" fill="white"/>
<path opacity="0.2" d="M744.471 1075.1H741.773V2140.17H744.471V1075.1Z" fill="white"/>
<path opacity="0.2" d="M691.323 1075.1H688.625V2140.17H691.323V1075.1Z" fill="white"/>
<path opacity="0.2" d="M638.174 1075.1H635.477V2140.17H638.174V1075.1Z" fill="white"/>
<path opacity="0.5" d="M584.755 1075.1H582.057V2140.17H584.755V1075.1Z" fill="white"/>
<path opacity="0.2" d="M531.606 1075.1H528.908V2140.17H531.606V1075.1Z" fill="white"/>
<path opacity="0.2" d="M478.458 1075.1H475.76V2140.17H478.458V1075.1Z" fill="white"/>
<path opacity="0.2" d="M425.04 1075.1H422.342V2140.17H425.04V1075.1Z" fill="white"/>
<path opacity="0.2" d="M371.889 1075.1H369.191V2140.17H371.889V1075.1Z" fill="white"/>
<path opacity="0.5" d="M318.741 1075.1H316.043V2140.17H318.741V1075.1Z" fill="white"/>
<path opacity="0.2" d="M265.323 1075.1H262.625V2140.17H265.323V1075.1Z" fill="white"/>
<path opacity="0.2" d="M212.174 1075.1H209.477V2140.17H212.174V1075.1Z" fill="white"/>
<path opacity="0.2" d="M159.024 1075.1H156.326V2140.17H159.024V1075.1Z" fill="white"/>
<path opacity="0.2" d="M105.606 1075.1H102.908V2140.17H105.606V1075.1Z" fill="white"/>
<path opacity="0.5" d="M52.4577 1075.1H49.7598V2140.17H52.4577V1075.1Z" fill="white"/>
<g opacity="0.1">
<path opacity="0.1" d="M857.514 1075.1H838.898V1077.8H857.514V1075.1Z" fill="white"/>
<path opacity="0.1" d="M849.69 1067H846.992V1085.62H849.69V1067Z" fill="white"/>
</g>
<g opacity="0.1">
<path opacity="0.1" d="M592.039 1075.1H573.424V1077.8H592.039V1075.1Z" fill="white"/>
<path opacity="0.1" d="M584.216 1067H581.518V1085.62H584.216V1067Z" fill="white"/>
</g>
<g opacity="0.1">
<path opacity="0.1" d="M326.565 1075.1H307.949V1077.8H326.565V1075.1Z" fill="white"/>
<path opacity="0.1" d="M318.741 1067H316.043V1085.62H318.741V1067Z" fill="white"/>
</g>
<g opacity="0.1">
<path opacity="0.1" d="M61.0902 1075.1H42.4746V1077.8H61.0902V1075.1Z" fill="white"/>
<path opacity="0.1" d="M53.2663 1067H50.5684V1085.62H53.2663V1067Z" fill="white"/>
</g>
</g>
</g>
<defs>
<clipPath id="clip0_325_1290">
<rect width="1920" height="1080" fill="white"/>
</clipPath>
</defs>
</svg>
