<svg xmlns="http://www.w3.org/2000/svg" xmlns:xlink="http://www.w3.org/1999/xlink" viewBox="0 0 1080 1080"><defs><style>.cls-1{fill:url(#New_Gradient_Swatch_1);}.cls-2{fill:url(#New_Gradient_Swatch_1-2);}.cls-3{fill:url(#New_Gradient_Swatch_1-3);}.cls-4{fill:url(#New_Gradient_Swatch_1-4);}.cls-5{fill:url(#New_Gradient_Swatch_1-5);}.cls-11,.cls-6{opacity:0.2;}.cls-7{fill:url(#linear-gradient);}.cls-8{fill:url(#linear-gradient-2);}.cls-9{fill:url(#linear-gradient-3);}.cls-10{fill:url(#linear-gradient-4);}.cls-11{fill:url(#linear-gradient-5);}</style><linearGradient id="New_Gradient_Swatch_1" x1="104.82" y1="546.76" x2="975.92" y2="546.76" gradientUnits="userSpaceOnUse"><stop offset="0" stop-color="#2484c7" stop-opacity="0"/><stop offset="1" stop-color="#d55127"/></linearGradient><linearGradient id="New_Gradient_Swatch_1-2" x1="355.21" y1="353.24" x2="473.46" y2="353.24" xlink:href="#New_Gradient_Swatch_1"/><linearGradient id="New_Gradient_Swatch_1-3" x1="377.92" y1="390.53" x2="540.4" y2="390.53" gradientTransform="matrix(0.8, -0.32, 0.34, 0.84, -30.25, 196.46)" xlink:href="#New_Gradient_Swatch_1"/><linearGradient id="New_Gradient_Swatch_1-4" x1="464.48" y1="439.85" x2="626.95" y2="439.85" gradientTransform="matrix(0.61, -0.61, 0.64, 0.64, -66.28, 434.03)" xlink:href="#New_Gradient_Swatch_1"/><linearGradient id="New_Gradient_Swatch_1-5" x1="468.75" y1="609.83" x2="639.68" y2="609.83" gradientTransform="matrix(0.34, -0.51, 0.75, 0.5, -15.13, 358.32)" xlink:href="#New_Gradient_Swatch_1"/><linearGradient id="linear-gradient" x1="355.94" y1="351.59" x2="474.19" y2="351.59" gradientUnits="userSpaceOnUse"><stop offset="0" stop-color="#d55127"/><stop offset="1" stop-color="#2484c7" stop-opacity="0"/></linearGradient><linearGradient id="linear-gradient-2" x1="379.43" y1="389.14" x2="541.9" y2="389.14" gradientTransform="matrix(0.8, -0.32, 0.34, 0.84, -30.25, 196.46)" xlink:href="#linear-gradient"/><linearGradient id="linear-gradient-3" x1="466.43" y1="439.13" x2="628.91" y2="439.13" gradientTransform="matrix(0.61, -0.61, 0.64, 0.64, -66.28, 434.03)" xlink:href="#linear-gradient"/><linearGradient id="linear-gradient-4" x1="471.65" y1="609.5" x2="642.58" y2="609.5" gradientTransform="matrix(0.34, -0.51, 0.75, 0.5, -15.13, 358.32)" xlink:href="#linear-gradient"/><linearGradient id="linear-gradient-5" x1="105.55" y1="546.76" x2="976.65" y2="546.76" xlink:href="#linear-gradient"/></defs><g id="Bun"><path class="cls-1" d="M968.37,575.42c5.29,26.45,19.14,95.65-13,157.28-66.08,126.85-276.89,125.72-417,125-150.12-.8-330.84-1.77-403.74-122.9-40.22-66.83-29.17-139.83-26.23-159.35C130.18,431.36,267,390.81,405.7,271.56c10.09-8.68,31.54-27.54,54.79-23.47,14.2,2.49,18.69,11.7,32.26,10.34,18.07-1.82,20.48-19.22,37.85-20.65,15.07-1.23,17.48,11.5,35.06,12.38,19.64,1,26.17-14.43,43.31-14.44,20.3,0,35.32,21.59,40.73,28.76C687,314,752.13,320.45,825.49,373.89,851.56,392.87,945.32,460.28,968.37,575.42Z"/><path class="cls-2" d="M435.64,357.51c-34.38,37-81.24,37.27-80.42,41.24,1,5,75.39,12.54,105.17-30.93,17.93-26.17,14-62.51,8.25-63.93C463.4,302.6,459.9,331.38,435.64,357.51Z"/><path class="cls-3" d="M492.79,375.93c-19.53,60.6-70.79,81.35-67.94,85.89,3.55,5.65,88.79-17.5,100.12-84,6.82-40.05-15.33-83.05-22.3-82.28C496.29,296.24,506.57,333.18,492.79,375.93Z"/><path class="cls-4" d="M569.57,373.63c5.77,63.4-33.25,102.57-28.86,105.63,5.48,3.82,74.84-50.88,59.21-116.51-9.42-39.51-46.65-70.39-52.76-67C541.56,298.93,565.5,328.89,569.57,373.63Z"/><path class="cls-5" d="M647.15,373.32c9.27,19.25,12,35.92,12.05,49.36.07,22.08-5.67,36.7-4.25,37.12,1.93.57,17.2-25.68,17.84-59,.23-11.52.77-39.85-18.78-63.33-18.41-22.09-47.17-30.93-50.36-26.5C600.22,315.74,627.55,332.62,647.15,373.32Z"/><g class="cls-6"><path class="cls-7" d="M436.38,355.87c-34.38,37-81.24,37.26-80.43,41.24,1,4.95,75.4,12.54,105.17-30.93,17.93-26.18,14-62.52,8.25-63.93C464.13,301,460.64,329.74,436.38,355.87Z"/><path class="cls-8" d="M493.52,374.29c-19.53,60.59-70.78,81.34-67.94,85.88,3.55,5.66,88.8-17.49,100.13-84,6.82-40-15.34-83-22.31-82.28C497,294.59,507.3,331.54,493.52,374.29Z"/><path class="cls-9" d="M570.3,372c5.78,63.4-33.25,102.58-28.85,105.64,5.48,3.81,74.83-50.89,59.2-116.51-9.41-39.52-46.65-70.4-52.76-67C542.3,297.29,566.23,327.25,570.3,372Z"/><path class="cls-10" d="M647.88,371.67c9.28,19.25,12,35.93,12,49.37.08,22.07-5.66,36.69-4.25,37.11,1.94.58,17.2-25.68,17.85-59,.22-11.51.77-39.85-18.79-63.32-18.41-22.09-47.17-30.93-50.36-26.5C601,314.09,628.28,331,647.88,371.67Z"/></g><path class="cls-11" d="M969.1,575.42c5.29,26.45,19.15,95.65-13,157.28-66.07,126.85-276.89,125.72-417,125-150.11-.8-330.83-1.77-403.74-122.9-40.22-66.83-29.17-139.83-26.22-159.35,21.74-144.06,158.59-184.61,297.25-303.86,10.09-8.68,31.54-27.54,54.79-23.47,14.2,2.49,18.7,11.7,32.26,10.34,18.08-1.82,20.48-19.22,37.86-20.65,15.06-1.23,17.47,11.5,35.06,12.38,19.63,1,26.16-14.43,43.3-14.44,20.3,0,35.33,21.59,40.74,28.76,37.33,49.51,102.43,56,175.79,109.41C852.29,392.87,946.05,460.28,969.1,575.42Z"/></g></svg>