<svg xmlns="http://www.w3.org/2000/svg" xmlns:xlink="http://www.w3.org/1999/xlink" viewBox="0 0 1080 1080"><defs><style>.cls-1{fill:url(#linear-gradient);}.cls-2{fill:url(#linear-gradient-2);}.cls-3{fill:url(#linear-gradient-3);}.cls-4{fill:url(#linear-gradient-4);}.cls-5{fill:url(#linear-gradient-5);}.cls-10,.cls-12,.cls-6,.cls-7,.cls-8,.cls-9{opacity:0.2;}.cls-6{fill:url(#linear-gradient-6);}.cls-7{fill:url(#linear-gradient-7);}.cls-8{fill:url(#linear-gradient-8);}.cls-9{fill:url(#linear-gradient-9);}.cls-10{fill:url(#linear-gradient-10);}.cls-11{fill:url(#linear-gradient-11);}.cls-12{fill:url(#linear-gradient-12);}</style><linearGradient id="linear-gradient" x1="135.58" y1="660.18" x2="983.32" y2="660.18" gradientUnits="userSpaceOnUse"><stop offset="0" stop-color="#2484c7" stop-opacity="0"/><stop offset="0" stop-color="#d2542b" stop-opacity="0.97"/><stop offset="0" stop-color="#3b83bd" stop-opacity="0.03"/><stop offset="1" stop-color="#d55127"/></linearGradient><linearGradient id="linear-gradient-2" x1="583.52" y1="522.6" x2="694.67" y2="479.9" xlink:href="#linear-gradient"/><linearGradient id="linear-gradient-3" x1="331.32" y1="581.55" x2="527.77" y2="581.55" gradientTransform="matrix(0.58, -0.22, 0.43, 1.12, -87.93, 25.88)" xlink:href="#linear-gradient"/><linearGradient id="linear-gradient-4" x1="159.33" y1="637.79" x2="271.93" y2="637.79" xlink:href="#linear-gradient"/><linearGradient id="linear-gradient-5" x1="792.42" y1="530.88" x2="871.27" y2="500.59" xlink:href="#linear-gradient"/><linearGradient id="linear-gradient-6" x1="135.58" y1="660.54" x2="983.32" y2="660.54" gradientUnits="userSpaceOnUse"><stop offset="0" stop-color="#2484c7" stop-opacity="0"/><stop offset="0" stop-color="#d2542b" stop-opacity="0.97"/><stop offset="0" stop-color="#d55127"/><stop offset="1" stop-color="#3b83bd" stop-opacity="0.03"/></linearGradient><linearGradient id="linear-gradient-7" x1="583.52" y1="522.95" x2="694.67" y2="480.25" xlink:href="#linear-gradient-6"/><linearGradient id="linear-gradient-8" x1="331.11" y1="581.82" x2="527.56" y2="581.82" gradientTransform="matrix(0.58, -0.22, 0.43, 1.12, -87.93, 25.88)" xlink:href="#linear-gradient-6"/><linearGradient id="linear-gradient-9" x1="159.33" y1="638.15" x2="271.93" y2="638.15" xlink:href="#linear-gradient-6"/><linearGradient id="linear-gradient-10" x1="792.42" y1="531.24" x2="871.27" y2="500.95" xlink:href="#linear-gradient-6"/><linearGradient id="linear-gradient-11" x1="249.27" y1="932.16" x2="931.72" y2="669.99" xlink:href="#linear-gradient-6"/><linearGradient id="linear-gradient-12" x1="249.27" y1="932.16" x2="931.72" y2="669.99" xlink:href="#linear-gradient"/></defs><g id="Layer_3" data-name="Layer 3"><path class="cls-1" d="M857.82,469.91c1.36,13,.13,36.45-8,80.83-8.47,46.55-12.71,69.82-19.75,70-7.36.2-11.2-25-27-86.61-12.46-48.63-23-83.62-27.53-104.43A580.31,580.31,0,0,0,662,400.23C677.89,429,674.17,487.44,671.4,531c-2.54,39.89-7.06,110.85-23.37,112.61-12.79,1.38-18.9-41.29-56.31-128.85-26.17-61.29-49.18-101.27-52.68-122.1A639.63,639.63,0,0,0,406.11,410.4c14.57,22.67,19.36,80,31.63,152.11C457.54,679,479.57,731.84,470.4,734.85c-5.6,1.84-14-10-91.12-149.88-36-65.21-73.07-111-78.5-137-43.47,21.17-80.24,47.55-108,77.67C225,638.06,238,670.62,238,670.62c22,55.25,36.42,73.07,31.87,76.49-8,6-60.69-43.54-91.32-106.55-12.27-25.23-25.58-53.57-14.3-77.44h0c-18.49,30-28.64,62.73-28.64,96.91,0,147.83,189.77,267.68,423.87,267.68S983.32,807.86,983.32,660C983.32,585.68,935.32,518.42,857.82,469.91Z"/><path class="cls-2" d="M649.91,644c-12.08,1.4-19.81-36.16-53.72-112.85C562.71,455.44,529.36,399.54,539,392.66c8-5.72,42.56,24.77,68.3,25.27,2.8.05,7.49-.21,19.72-.15,12.69.07,14.91.39,18.47-.93,11.57-4.3,12.75-16.79,16.42-16.62,8,.37,17.36,60.6,10.26,145.18C668.55,589.06,664.07,642.4,649.91,644Z"/><path class="cls-3" d="M300.78,448c6.72-8.88,25.92,5.19,54.85-4.29,32-10.49,37.66-35.37,50.48-33.28,21,3.43,20.65,72.44,34.95,165.1,15,97.3,37,155.63,28.9,158.54-3.84,1.37-10.54-10.94-40.06-61.76-51-87.82-76.51-131.72-80.62-137.9C317.26,486.27,292.42,459,300.78,448Z"/><path class="cls-4" d="M240.72,676.5c21,52.71,34.75,69.72,30.4,73C263.21,755.41,215.26,704,184,647.82c-2-3.58-37.37-68.17-19.77-84.7,3.84-3.61,8.9-3.7,15.68-10.34,8.53-8.38,11.63-19.18,12.9-27.14Q216.76,601.07,240.72,676.5Z"/><path class="cls-5" d="M831.07,623.51c-7.33.26-10.69-28.31-27.94-89.36-16.24-57.44-33-102-27.53-104.43,4.37-1.92,12.86,27.39,39.85,36.62,20.93,7.16,32.86-4.65,42.37,3.57,10,8.68,3.68,27.84-8,80.83C837.34,607.84,836.45,623.31,831.07,623.51Z"/><path class="cls-6" d="M857.82,470.27c1.36,13,.13,36.44-8,80.83-8.47,46.55-12.71,69.82-19.75,70-7.36.21-11.2-25-27-86.6-12.46-48.63-23-83.62-27.53-104.43A580.31,580.31,0,0,0,662,400.59c15.94,28.71,12.22,87.21,9.45,130.77C668.86,571.25,664.34,642.2,648,644c-12.79,1.38-18.9-41.29-56.31-128.85C565.55,453.83,542.54,413.84,539,393a640.29,640.29,0,0,0-132.93,17.75c14.57,22.67,19.36,80,31.63,152.11,19.8,116.46,41.83,169.33,32.66,172.34-5.6,1.84-14-10-91.12-149.88-36-65.21-73.07-111-78.5-137-43.47,21.18-80.24,47.56-108,77.68C225,638.41,238,671,238,671c22,55.24,36.42,73.07,31.87,76.49-8,6-60.69-43.54-91.32-106.55-12.27-25.23-25.58-53.57-14.3-77.44h0c-18.49,30-28.64,62.73-28.64,96.91,0,147.83,189.77,267.67,423.87,267.67S983.32,808.22,983.32,660.39C983.32,586,935.32,518.77,857.82,470.27Z"/><path class="cls-7" d="M649.91,644.39c-12.08,1.39-19.81-36.16-53.72-112.85C562.71,455.8,529.36,399.89,539,393c8-5.72,42.56,24.77,68.3,25.27,2.8.06,7.49-.2,19.72-.14,12.69.07,14.91.39,18.47-.94,11.57-4.29,12.75-16.78,16.42-16.61,8,.37,17.36,60.6,10.26,145.17C668.55,589.42,664.07,642.76,649.91,644.39Z"/><path class="cls-8" d="M300.78,448.32c6.72-8.87,25.92,5.2,54.85-4.28,32-10.49,37.66-35.38,50.48-33.28,21,3.43,20.65,72.44,34.95,165.1,15,97.29,37,155.63,28.9,158.54-3.84,1.37-10.54-10.95-40.06-61.76-51-87.82-76.51-131.73-80.62-137.9C317.26,486.63,292.42,459.36,300.78,448.32Z"/><path class="cls-9" d="M240.72,676.86c21,52.71,34.75,69.72,30.4,73-7.91,5.93-55.86-45.45-87.13-101.66-2-3.58-37.37-68.17-19.77-84.7,3.84-3.61,8.9-3.7,15.68-10.35,8.53-8.37,11.63-19.17,12.9-27.13Q216.76,601.42,240.72,676.86Z"/><path class="cls-10" d="M831.07,623.86c-7.33.27-10.69-28.31-27.94-89.35-16.24-57.44-33-102-27.53-104.43,4.37-1.92,12.86,27.39,39.85,36.62,20.93,7.16,32.86-4.65,42.37,3.57,10,8.68,3.68,27.84-8,80.83C837.34,608.2,836.45,623.67,831.07,623.86Z"/><path class="cls-11" d="M959,741.21c10.55,19.09-56.36,78.07-107.44,111.49-115.31,75.44-234.48,75.9-292.11,75.36-154.1-1.42-258.32-61.35-305.91-89.55-26.27-15.57-60.37-35.78-56.76-46.62,7.82-23.5,174.94,50.07,381.3,38C797.66,816.94,943.92,713.93,959,741.21Z"/><path class="cls-12" d="M959,741.21c10.55,19.09-56.36,78.07-107.44,111.49-115.31,75.44-234.48,75.9-292.11,75.36-154.1-1.42-258.32-61.35-305.91-89.55-26.27-15.57-60.37-35.78-56.76-46.62,7.82-23.5,174.94,50.07,381.3,38C797.66,816.94,943.92,713.93,959,741.21Z"/></g></svg>