<svg xmlns="http://www.w3.org/2000/svg" xmlns:xlink="http://www.w3.org/1999/xlink" viewBox="0 0 459.89 344.98"><defs><style>.cls-1{isolation:isolate;}.cls-2{fill:url(#linear-gradient);}.cls-11,.cls-12,.cls-13,.cls-23,.cls-3,.cls-4,.cls-7{opacity:0.5;}.cls-23,.cls-24,.cls-3,.cls-4{mix-blend-mode:multiply;}.cls-3{fill:url(#radial-gradient);}.cls-4{fill:url(#linear-gradient-2);}.cls-5{fill:url(#linear-gradient-3);}.cls-6{fill:url(#linear-gradient-4);}.cls-7,.cls-8{fill:url(#linear-gradient-5);}.cls-8{opacity:0.1;mix-blend-mode:overlay;}.cls-9{fill:url(#linear-gradient-7);}.cls-10{fill:url(#linear-gradient-8);}.cls-11{fill:url(#linear-gradient-9);}.cls-12{fill:url(#linear-gradient-11);}.cls-13{fill:url(#linear-gradient-15);}.cls-14{fill:url(#radial-gradient-2);}.cls-15{fill:url(#radial-gradient-3);}.cls-16{fill:url(#radial-gradient-4);}.cls-17{fill:url(#radial-gradient-5);}.cls-18{fill:url(#radial-gradient-6);}.cls-19{fill:url(#radial-gradient-7);}.cls-20{fill:url(#radial-gradient-8);}.cls-21{fill:url(#radial-gradient-9);}.cls-22{fill:url(#radial-gradient-10);}.cls-23{fill:url(#radial-gradient-11);}.cls-24{fill:url(#radial-gradient-12);}</style><linearGradient id="linear-gradient" x1="161.78" y1="210.69" x2="189.12" y2="290.74" gradientUnits="userSpaceOnUse"><stop offset="0" stop-color="#d55023"/><stop offset="1" stop-color="#2484c6" stop-opacity="0"/></linearGradient><radialGradient id="radial-gradient" cx="109.85" cy="153.52" r="27.15" gradientUnits="userSpaceOnUse"><stop offset="0.03" stop-color="#fff"/><stop offset="0.08" stop-color="#d2e6f3" stop-opacity="0.86"/><stop offset="0.18" stop-color="#63a7d6" stop-opacity="0.5"/><stop offset="0.23" stop-color="#2484c6" stop-opacity="0.3"/><stop offset="0.33" stop-color="#407cac" stop-opacity="0.41"/><stop offset="0.57" stop-color="#7f6972" stop-opacity="0.66"/><stop offset="0.77" stop-color="#ae5c47" stop-opacity="0.84"/><stop offset="0.92" stop-color="#ca532d" stop-opacity="0.96"/><stop offset="1" stop-color="#d55023"/></radialGradient><linearGradient id="linear-gradient-2" x1="82.69" y1="154" x2="118" y2="154" gradientUnits="userSpaceOnUse"><stop offset="0" stop-color="#2484c6" stop-opacity="0"/><stop offset="1" stop-color="#d55023"/></linearGradient><linearGradient id="linear-gradient-3" x1="725.13" y1="-234.1" x2="725.09" y2="-212.12" gradientTransform="translate(-501.53 265.37)" xlink:href="#linear-gradient"/><linearGradient id="linear-gradient-4" x1="244.41" y1="38.95" x2="281.39" y2="179.9" xlink:href="#linear-gradient"/><linearGradient id="linear-gradient-5" x1="244.41" y1="38.95" x2="281.39" y2="179.9" xlink:href="#linear-gradient-2"/><linearGradient id="linear-gradient-7" x1="202.72" y1="-122.69" x2="240.6" y2="36.66" gradientTransform="matrix(0.97, 0.23, -0.24, 0.93, -31.09, 117.07)" xlink:href="#linear-gradient"/><linearGradient id="linear-gradient-8" x1="413.96" y1="-4.51" x2="453.3" y2="133.83" gradientTransform="translate(32.14 -110.96) rotate(15.13)" xlink:href="#linear-gradient"/><linearGradient id="linear-gradient-9" x1="202.72" y1="-122.69" x2="240.6" y2="36.66" gradientTransform="matrix(0.97, 0.23, -0.24, 0.93, -31.09, 117.07)" xlink:href="#linear-gradient-2"/><linearGradient id="linear-gradient-11" x1="413.96" y1="-4.51" x2="453.3" y2="133.83" gradientTransform="translate(32.14 -110.96) rotate(15.13)" xlink:href="#linear-gradient-2"/><linearGradient id="linear-gradient-15" x1="725.13" y1="-234.1" x2="725.1" y2="-220.36" gradientTransform="translate(-501.53 265.37)" xlink:href="#linear-gradient-2"/><radialGradient id="radial-gradient-2" cx="240.59" cy="261.92" r="83.06" gradientUnits="userSpaceOnUse"><stop offset="0.37" stop-color="#2484c6" stop-opacity="0"/><stop offset="1" stop-color="#d55023"/></radialGradient><radialGradient id="radial-gradient-3" cx="240.59" cy="303.05" r="24.9" xlink:href="#linear-gradient"/><radialGradient id="radial-gradient-4" cx="240.59" cy="220.79" r="24.9" gradientUnits="userSpaceOnUse"><stop offset="0" stop-color="#d55023" stop-opacity="0.7"/><stop offset="1" stop-color="#2484c6" stop-opacity="0"/></radialGradient><radialGradient id="radial-gradient-5" cx="211.58" cy="291.09" r="29.25" xlink:href="#linear-gradient"/><radialGradient id="radial-gradient-6" cx="269.75" cy="232.92" r="29.25" xlink:href="#linear-gradient"/><radialGradient id="radial-gradient-7" cx="199.46" cy="261.92" r="24.9" xlink:href="#linear-gradient"/><radialGradient id="radial-gradient-8" cx="281.72" cy="261.92" r="24.9" xlink:href="#linear-gradient"/><radialGradient id="radial-gradient-9" cx="269.75" cy="291.09" r="29.25" xlink:href="#radial-gradient-4"/><radialGradient id="radial-gradient-10" cx="211.58" cy="232.92" r="29.25" xlink:href="#linear-gradient"/><radialGradient id="radial-gradient-11" cx="240.32" cy="261.88" r="14.63" gradientTransform="translate(45.05 -35.11) rotate(9.22)" xlink:href="#linear-gradient"/><radialGradient id="radial-gradient-12" cx="240.7" cy="261.88" r="4.47" xlink:href="#linear-gradient"/></defs><g class="cls-1"><g id="Layer_2" data-name="Layer 2"><g id="Layer_1-2" data-name="Layer 1"><path class="cls-2" d="M159.45,213.69,68,291.44a10,10,0,0,1-6.48,2.38H16.19A16.19,16.19,0,0,0,0,310v11.11H60.83a9.8,9.8,0,0,0,3.78-.75L331.86,209.18a10,10,0,0,0,6.05-7.77l6-40.91a1.6,1.6,0,0,0-2-1.76l-178.82,53A9.86,9.86,0,0,0,159.45,213.69Z"/><path class="cls-3" d="M102.1,132.31c0-1.57.09-3.13.2-4.69l-.56.16a26.88,26.88,0,1,0,15.67,51.42l.59-.2A74.25,74.25,0,0,1,102.1,132.31Z"/><path class="cls-4" d="M102.1,132.31c0-1.57.09-3.13.2-4.69l-.56.16a26.88,26.88,0,1,0,15.67,51.42l.59-.2A74.25,74.25,0,0,1,102.1,132.31Z"/><path class="cls-5" d="M215.17,32.95H232a9.48,9.48,0,0,1,9.48,9.48V48.6a0,0,0,0,1,0,0H205.69a0,0,0,0,1,0,0V42.43A9.48,9.48,0,0,1,215.17,32.95Z" transform="translate(-3.69 41.91) rotate(-10.62)"/><path class="cls-6" d="M406.78,11.69,150.64,63.09A74.6,74.6,0,0,0,176,207.58C194.69,207.75,435.8,126,435.8,126Z"/><path class="cls-7" d="M406.78,11.69,150.64,63.09A74.6,74.6,0,0,0,176,207.58C194.69,207.75,435.8,126,435.8,126Z"/><path class="cls-8" d="M406.78,11.69,150.64,63.09A74.6,74.6,0,0,0,176,207.58C194.69,207.75,435.8,126,435.8,126Z"/><rect class="cls-9" x="184.21" y="48.8" width="20.44" height="157.58" rx="10" transform="translate(-26.57 55.19) rotate(-15.13)"/><rect class="cls-10" x="420.32" y="-1.47" width="27.1" height="134" rx="13.55" transform="translate(-3.32 102.96) rotate(-13.48)"/><rect class="cls-11" x="184.21" y="48.8" width="20.44" height="157.58" rx="10" transform="translate(-26.57 55.19) rotate(-15.13)"/><rect class="cls-11" x="184.21" y="48.8" width="20.44" height="157.58" rx="10" transform="translate(-26.57 55.19) rotate(-15.13)"/><rect class="cls-12" x="420.32" y="-1.47" width="27.1" height="134" rx="13.55" transform="translate(-3.32 102.96) rotate(-13.48)"/><rect class="cls-12" x="420.32" y="-1.47" width="27.1" height="134" rx="13.55" transform="translate(-3.32 102.96) rotate(-13.48)"/><rect class="cls-12" x="420.32" y="-1.47" width="27.1" height="134" rx="13.55" transform="translate(-3.32 102.96) rotate(-13.48)"/><rect class="cls-12" x="420.32" y="-1.47" width="27.1" height="134" rx="13.55" transform="translate(-3.32 102.96) rotate(-13.48)"/><path class="cls-13" d="M215.17,32.95H232a9.48,9.48,0,0,1,9.48,9.48V48.6a0,0,0,0,1,0,0H205.69a0,0,0,0,1,0,0V42.43A9.48,9.48,0,0,1,215.17,32.95Z" transform="translate(-3.69 41.91) rotate(-10.62)"/><path class="cls-14" d="M240.59,178.87a83.06,83.06,0,1,0,83,83.05A83.06,83.06,0,0,0,240.59,178.87Zm0,150.48A67.43,67.43,0,1,1,308,261.92,67.43,67.43,0,0,1,240.59,329.35Z"/><path class="cls-15" d="M232.18,270.2a46.27,46.27,0,0,1,0,15.42c-1.48,8.66-4.48,10.76-4.26,17.69.21,6.18,2.69,7.58,4.26,15.08a43.78,43.78,0,0,1,0,17.51h17a46.71,46.71,0,0,1,0-18.72c1.57-7.37,3.88-8.56,4-14.62.17-6.76-2.62-8.84-4-17.18a46.47,46.47,0,0,1,0-15.18Z"/><path class="cls-16" d="M232.18,253.64a46.2,46.2,0,0,0,0-15.41c-1.48-8.67-4.48-10.77-4.26-17.7.21-6.18,2.69-7.58,4.26-15.07a43.83,43.83,0,0,0,0-17.52h17a46.71,46.71,0,0,0,0,18.72c1.57,7.37,3.88,8.56,4,14.62.17,6.76-2.62,8.84-4,17.18a46.47,46.47,0,0,0,0,15.18Z"/><path class="cls-17" d="M228.79,261.83a46.43,46.43,0,0,1-10.9,10.9c-7.18,5.08-10.78,4.44-15.53,9.51-4.22,4.51-3.46,7.25-7.64,13.66a43.72,43.72,0,0,1-12.39,12.39l12,12a46.59,46.59,0,0,1,13.24-13.24c6.32-4.1,8.8-3.31,13.19-7.48,4.89-4.67,4.39-8.11,9.29-15a46.42,46.42,0,0,1,10.73-10.73Z"/><path class="cls-18" d="M240.5,250.12a46,46,0,0,0,10.9-10.9c5.08-7.17,4.44-10.78,9.5-15.52,4.51-4.23,7.26-3.47,13.67-7.65A43.78,43.78,0,0,0,287,203.67L299,215.72A46.52,46.52,0,0,0,285.77,229c-4.1,6.33-3.31,8.8-7.49,13.19-4.66,4.9-8.11,4.39-15,9.3a46.42,46.42,0,0,0-10.73,10.73Z"/><path class="cls-19" d="M232.3,253.52a46.47,46.47,0,0,1-15.41,0c-8.66-1.49-10.76-4.49-17.7-4.26-6.17.2-7.58,2.68-15.07,4.26a43.78,43.78,0,0,1-17.51,0v17a46.66,46.66,0,0,1,18.71,0c7.38,1.58,8.57,3.89,14.62,4,6.77.17,8.85-2.63,17.19-4a46.69,46.69,0,0,1,15.17,0Z"/><path class="cls-20" d="M248.87,253.52a46.47,46.47,0,0,0,15.41,0C273,252,275.05,249,282,249.26c6.18.2,7.58,2.68,15.07,4.26a43.78,43.78,0,0,0,17.51,0v17a46.66,46.66,0,0,0-18.71,0c-7.38,1.58-8.57,3.89-14.62,4-6.76.17-8.84-2.63-17.19-4a46.69,46.69,0,0,0-15.17,0Z"/><path class="cls-21" d="M252.55,261.83a46,46,0,0,0,10.9,10.9c7.17,5.08,10.78,4.44,15.52,9.51,4.22,4.51,3.46,7.25,7.65,13.66A43.71,43.71,0,0,0,299,308.29l-12.05,12a46.58,46.58,0,0,0-13.23-13.24c-6.33-4.1-8.8-3.31-13.19-7.48-4.9-4.67-4.4-8.11-9.3-15a46.42,46.42,0,0,0-10.73-10.73Z"/><path class="cls-22" d="M240.83,250.12a46,46,0,0,1-10.89-10.9c-5.08-7.17-4.45-10.78-9.51-15.52-4.51-4.23-7.25-3.47-13.67-7.65a43.78,43.78,0,0,1-12.38-12.38l-12,12.05A46.58,46.58,0,0,1,195.57,229c4.1,6.33,3.31,8.8,7.48,13.19,4.67,4.9,8.11,4.39,15,9.3a46.42,46.42,0,0,1,10.73,10.73Z"/><circle class="cls-23" cx="240.32" cy="261.88" r="14.63" transform="translate(-38.85 41.88) rotate(-9.22)"/><circle class="cls-24" cx="240.7" cy="261.88" r="4.47"/></g></g></g></svg>