<svg width="198" height="201" viewBox="0 0 198 201" fill="none" xmlns="http://www.w3.org/2000/svg">
<g clip-path="url(#clip0_120_5231)">
<path d="M99.3663 99.9944C99.3663 139.113 68.0398 170.875 29.3394 170.875C29.3394 131.703 60.6658 99.9944 99.3663 99.9944Z" fill="url(#paint0_linear_120_5231)"/>
<path d="M99.3663 99.9926C60.6658 99.9926 29.3394 68.2844 29.3394 29.1653C67.9875 29.1653 99.3663 60.8735 99.3663 99.9926Z" fill="url(#paint1_linear_120_5231)"/>
<path d="M169.341 170.875C130.693 170.875 99.314 139.166 99.314 99.9944C138.014 99.9944 169.341 131.703 169.341 170.875Z" fill="url(#paint2_linear_120_5231)"/>
<path d="M99.3662 99.9931C99.3662 60.8741 130.693 29.113 169.393 29.113C169.341 68.285 138.014 99.9931 99.3662 99.9931Z" fill="url(#paint3_linear_120_5231)"/>
<path d="M99.3663 99.9944C99.3663 139.113 68.0398 170.875 29.3394 170.875C29.3394 131.703 60.6658 99.9944 99.3663 99.9944Z" fill="url(#paint4_linear_120_5231)"/>
<path d="M99.3663 99.9926C60.6658 99.9926 29.3394 68.2844 29.3394 29.1653C67.9875 29.1653 99.3663 60.8735 99.3663 99.9926Z" fill="url(#paint5_linear_120_5231)"/>
<path d="M169.341 170.875C130.693 170.875 99.314 139.166 99.314 99.9944C138.014 99.9944 169.341 131.703 169.341 170.875Z" fill="url(#paint6_linear_120_5231)"/>
<path d="M99.3662 99.9931C99.3662 60.8741 130.693 29.113 169.393 29.113C169.341 68.285 138.014 99.9931 99.3662 99.9931Z" fill="url(#paint7_linear_120_5231)"/>
<path d="M99.3663 99.9926C60.6658 99.9926 29.3394 68.2844 29.3394 29.1653C67.9875 29.1653 99.3663 60.8735 99.3663 99.9926Z" fill="url(#paint8_linear_120_5231)"/>
<path d="M99.4708 100.1C99.3139 60.9813 130.536 29.1143 169.236 29.0084C169.341 68.1275 138.119 99.9945 99.4708 100.1Z" fill="url(#paint9_linear_120_5231)"/>
<path d="M99.3663 99.9944C99.3663 139.113 68.0398 170.875 29.3394 170.875C29.3394 131.703 60.6658 99.9944 99.3663 99.9944Z" fill="url(#paint10_linear_120_5231)"/>
<path d="M99.3662 99.9415C138.014 99.9945 169.341 131.756 169.289 170.875C130.64 170.822 99.3662 139.114 99.3662 99.9415Z" fill="url(#paint11_linear_120_5231)"/>
<path d="M99 100.206C126.666 127.574 127.189 172.41 100.151 200.412C72.485 173.045 71.962 128.209 99 100.206Z" fill="url(#paint12_linear_120_5231)"/>
<path d="M99 100.206C71.962 128.209 27.6656 128.738 0 101.371C27.038 73.368 71.3344 72.8387 99 100.206Z" fill="url(#paint13_linear_120_5231)"/>
<path d="M198 99.0416C170.962 127.044 126.666 127.574 99 100.206C125.986 72.2035 170.334 71.6742 198 99.0416Z" fill="url(#paint14_linear_120_5231)"/>
<path d="M99.0002 100.206C71.3346 72.8387 70.8116 28.0027 97.8496 0C125.463 27.3675 125.986 72.2035 99.0002 100.206Z" fill="url(#paint15_linear_120_5231)"/>
<path d="M99 100.206C126.666 127.574 127.189 172.41 100.151 200.412C72.485 173.045 71.962 128.209 99 100.206Z" fill="url(#paint16_linear_120_5231)"/>
<path d="M99 100.206C71.962 128.209 27.6656 128.738 0 101.371C27.038 73.368 71.3344 72.8387 99 100.206Z" fill="url(#paint17_linear_120_5231)"/>
<path d="M198 99.0416C170.962 127.044 126.666 127.574 99 100.206C125.986 72.2035 170.334 71.6742 198 99.0416Z" fill="url(#paint18_linear_120_5231)"/>
<path d="M99.0002 100.206C71.3346 72.8387 70.8116 28.0027 97.8496 0C125.463 27.3675 125.986 72.2035 99.0002 100.206Z" fill="url(#paint19_linear_120_5231)"/>
<path d="M99 100.206C71.962 128.209 27.6656 128.738 0 101.371C27.038 73.368 71.3344 72.8387 99 100.206Z" fill="url(#paint20_linear_120_5231)"/>
<path d="M99.1568 100.206C71.4389 72.9446 70.759 28.1085 97.6401 0C125.41 27.2616 126.09 72.0976 99.1568 100.206Z" fill="url(#paint21_linear_120_5231)"/>
<path d="M99 100.206C126.666 127.574 127.189 172.41 100.151 200.412C72.485 173.045 71.962 128.209 99 100.206Z" fill="url(#paint22_linear_120_5231)"/>
<path d="M99 100.153C126.038 72.2035 170.387 71.7271 198 99.0946C170.962 127.044 126.613 127.521 99 100.153Z" fill="url(#paint23_linear_120_5231)"/>
</g>
<defs>
<linearGradient id="paint0_linear_120_5231" x1="29.3477" y1="135.423" x2="99.3492" y2="135.423" gradientUnits="userSpaceOnUse">
<stop stop-color="#D55023"/>
<stop offset="1" stop-color="#2484C6" stop-opacity="0"/>
</linearGradient>
<linearGradient id="paint1_linear_120_5231" x1="29.3477" y1="64.5668" x2="99.3492" y2="64.5668" gradientUnits="userSpaceOnUse">
<stop stop-color="#D55023"/>
<stop offset="1" stop-color="#2484C6" stop-opacity="0"/>
</linearGradient>
<linearGradient id="paint2_linear_120_5231" x1="99.3492" y1="135.423" x2="169.351" y2="135.423" gradientUnits="userSpaceOnUse">
<stop stop-color="#D55023"/>
<stop offset="1" stop-color="#2484C6" stop-opacity="0"/>
</linearGradient>
<linearGradient id="paint3_linear_120_5231" x1="99.3491" y1="64.5674" x2="169.351" y2="64.5674" gradientUnits="userSpaceOnUse">
<stop stop-color="#D55023"/>
<stop offset="1" stop-color="#2484C6" stop-opacity="0"/>
</linearGradient>
<linearGradient id="paint4_linear_120_5231" x1="29.3477" y1="135.423" x2="99.3492" y2="135.423" gradientUnits="userSpaceOnUse">
<stop stop-color="#D55023"/>
<stop offset="1" stop-color="#2484C6" stop-opacity="0"/>
</linearGradient>
<linearGradient id="paint5_linear_120_5231" x1="29.3477" y1="64.5668" x2="99.3492" y2="64.5668" gradientUnits="userSpaceOnUse">
<stop stop-color="#D55023"/>
<stop offset="1" stop-color="#2484C6" stop-opacity="0"/>
</linearGradient>
<linearGradient id="paint6_linear_120_5231" x1="99.3492" y1="135.423" x2="169.351" y2="135.423" gradientUnits="userSpaceOnUse">
<stop stop-color="#D55023"/>
<stop offset="1" stop-color="#2484C6" stop-opacity="0"/>
</linearGradient>
<linearGradient id="paint7_linear_120_5231" x1="99.3491" y1="64.5674" x2="169.351" y2="64.5674" gradientUnits="userSpaceOnUse">
<stop stop-color="#D55023"/>
<stop offset="1" stop-color="#2484C6" stop-opacity="0"/>
</linearGradient>
<linearGradient id="paint8_linear_120_5231" x1="29.3477" y1="64.5668" x2="99.3492" y2="64.5668" gradientUnits="userSpaceOnUse">
<stop stop-color="#D55023"/>
<stop offset="1" stop-color="#2484C6" stop-opacity="0"/>
</linearGradient>
<linearGradient id="paint9_linear_120_5231" x1="99.4766" y1="64.5687" x2="169.223" y2="64.5687" gradientUnits="userSpaceOnUse">
<stop stop-color="#D55023"/>
<stop offset="1" stop-color="#2484C6" stop-opacity="0"/>
</linearGradient>
<linearGradient id="paint10_linear_120_5231" x1="29.3477" y1="135.423" x2="99.3492" y2="135.423" gradientUnits="userSpaceOnUse">
<stop stop-color="#D55023"/>
<stop offset="1" stop-color="#2484C6" stop-opacity="0"/>
</linearGradient>
<linearGradient id="paint11_linear_120_5231" x1="99.3845" y1="135.423" x2="169.315" y2="135.423" gradientUnits="userSpaceOnUse">
<stop stop-color="#D55023"/>
<stop offset="1" stop-color="#2484C6" stop-opacity="0"/>
</linearGradient>
<linearGradient id="paint12_linear_120_5231" x1="79.064" y1="150.295" x2="120.076" y2="150.295" gradientUnits="userSpaceOnUse">
<stop stop-color="#D55023"/>
<stop offset="1" stop-color="#2484C6" stop-opacity="0"/>
</linearGradient>
<linearGradient id="paint13_linear_120_5231" x1="0" y1="100.784" x2="98.9903" y2="100.784" gradientUnits="userSpaceOnUse">
<stop stop-color="#D55023"/>
<stop offset="1" stop-color="#2484C6" stop-opacity="0"/>
</linearGradient>
<linearGradient id="paint14_linear_120_5231" x1="98.9903" y1="99.6097" x2="197.981" y2="99.6097" gradientUnits="userSpaceOnUse">
<stop stop-color="#D55023"/>
<stop offset="1" stop-color="#2484C6" stop-opacity="0"/>
</linearGradient>
<linearGradient id="paint15_linear_120_5231" x1="77.9043" y1="50.0983" x2="118.917" y2="50.0983" gradientUnits="userSpaceOnUse">
<stop stop-color="#D55023"/>
<stop offset="1" stop-color="#A59F91" stop-opacity="0"/>
</linearGradient>
<linearGradient id="paint16_linear_120_5231" x1="79.064" y1="150.295" x2="120.076" y2="150.295" gradientUnits="userSpaceOnUse">
<stop stop-color="#D55023"/>
<stop offset="1" stop-color="#2484C6" stop-opacity="0"/>
</linearGradient>
<linearGradient id="paint17_linear_120_5231" x1="0" y1="100.784" x2="98.9903" y2="100.784" gradientUnits="userSpaceOnUse">
<stop stop-color="#D55023"/>
<stop offset="1" stop-color="#2484C6" stop-opacity="0"/>
</linearGradient>
<linearGradient id="paint18_linear_120_5231" x1="98.9903" y1="99.6097" x2="197.981" y2="99.6097" gradientUnits="userSpaceOnUse">
<stop stop-color="#D55023"/>
<stop offset="1" stop-color="#2484C6" stop-opacity="0"/>
</linearGradient>
<linearGradient id="paint19_linear_120_5231" x1="77.9043" y1="50.0983" x2="118.917" y2="50.0983" gradientUnits="userSpaceOnUse">
<stop stop-color="#D55023"/>
<stop offset="1" stop-color="#2484C6" stop-opacity="0"/>
</linearGradient>
<linearGradient id="paint20_linear_120_5231" x1="0" y1="100.784" x2="98.9903" y2="100.784" gradientUnits="userSpaceOnUse">
<stop stop-color="#D55023"/>
<stop offset="1" stop-color="#2484C6" stop-opacity="0"/>
</linearGradient>
<linearGradient id="paint21_linear_120_5231" x1="77.9016" y1="50.0983" x2="118.919" y2="50.0983" gradientUnits="userSpaceOnUse">
<stop stop-color="#D55023"/>
<stop offset="1" stop-color="#2484C6" stop-opacity="0"/>
</linearGradient>
<linearGradient id="paint22_linear_120_5231" x1="79.064" y1="150.295" x2="120.076" y2="150.295" gradientUnits="userSpaceOnUse">
<stop stop-color="#D55023"/>
<stop offset="1" stop-color="#2484C6" stop-opacity="0"/>
</linearGradient>
<linearGradient id="paint23_linear_120_5231" x1="98.9897" y1="99.6097" x2="197.981" y2="99.6097" gradientUnits="userSpaceOnUse">
<stop stop-color="#D55023"/>
<stop offset="1" stop-color="#2484C6" stop-opacity="0"/>
</linearGradient>
<clipPath id="clip0_120_5231">
<rect width="198" height="200.412" fill="white"/>
</clipPath>
</defs>
</svg>
