<svg xmlns="http://www.w3.org/2000/svg" viewBox="0 0 626.72 868.77"><defs><style>.cls-1{fill:#754c29;}.cls-2{fill:#d1d3d4;}.cls-3{fill:#df928f;}.cls-4{fill:#da1c5c;}.cls-5{fill:#e0917a;}.cls-6{fill:#54b948;}.cls-7{fill:#006838;}</style></defs><g id="permejaan"><g id="frame_atas_meja" data-name="frame atas meja"><rect class="cls-1" x="296.04" y="406.93" width="80.48" height="105.32"/><rect class="cls-2" x="307.51" y="419.61" width="55.41" height="78.64"/><path class="cls-3" d="M328.52,429.33h9.72a7.11,7.11,0,0,1,7.11,7.11v9.72a0,0,0,0,1,0,0h-9.72a7.11,7.11,0,0,1-7.11-7.11v-9.72a0,0,0,0,1,0,0Z" transform="translate(233 980.27) rotate(-131.57)"/><path class="cls-4" d="M319.35,432.91h9.72a7.11,7.11,0,0,1,7.11,7.11v9.72a0,0,0,0,1,0,0h-9.72a7.11,7.11,0,0,1-7.11-7.11v-9.72A0,0,0,0,1,319.35,432.91Z"/><path class="cls-4" d="M343.26,432.92H353a0,0,0,0,1,0,0v9.72a7.11,7.11,0,0,1-7.11,7.11h-9.72a0,0,0,0,1,0,0V440A7.11,7.11,0,0,1,343.26,432.92Z" transform="translate(689.12 882.67) rotate(180)"/><path class="cls-5" d="M316.31,438.1H326a7.11,7.11,0,0,1,7.11,7.11v9.72a0,0,0,0,1,0,0h-9.72a7.11,7.11,0,0,1-7.11-7.11V438.1A0,0,0,0,1,316.31,438.1Z" transform="translate(-179.75 222.18) rotate(-30)"/><path class="cls-5" d="M346.38,438.08h9.72a0,0,0,0,1,0,0v9.72a7.11,7.11,0,0,1-7.11,7.11h-9.72a0,0,0,0,1,0,0v-9.72A7.11,7.11,0,0,1,346.38,438.08Z" transform="translate(425.54 1007.01) rotate(-150)"/><path class="cls-6" d="M346.43,451.65h9.72a0,0,0,0,1,0,0v9.72a7.11,7.11,0,0,1-7.11,7.11h-9.72a0,0,0,0,1,0,0v-9.72A7.11,7.11,0,0,1,346.43,451.65Z" transform="translate(178.02 -91.09) rotate(19.97)"/><path class="cls-6" d="M315.88,452.08h9.72a7.11,7.11,0,0,1,7.11,7.11v9.72a0,0,0,0,1,0,0H323a7.11,7.11,0,0,1-7.11-7.11v-9.72A0,0,0,0,1,315.88,452.08Z" transform="translate(786.35 782.54) rotate(160.03)"/><rect class="cls-7" x="334.94" y="446.21" width="2.13" height="40.28"/></g></g></svg>