<svg xmlns="http://www.w3.org/2000/svg" viewBox="0 0 626.72 868.77"><defs><style>.cls-1{fill:#2e3192;}.cls-2{fill:#f1f2f2;}.cls-3{fill:#ec008c;}.cls-4{fill:#f7941d;}.cls-5{opacity:0.1;}.cls-6{fill:#fff;}</style></defs><g id="properti_dalam_rak" data-name="properti dalam rak"><g id="buku_tingkat_1" data-name="buku tingkat 1"><rect class="cls-1" x="298.58" y="420.68" width="20.14" height="69.33" transform="translate(237.53 -90.13) rotate(26.7)"/><rect class="cls-2" x="304.13" y="425.15" width="14.7" height="50.61" transform="translate(235.64 -91.92) rotate(26.7)"/><rect class="cls-3" x="333.95" y="422.56" width="20.14" height="69.33"/><rect class="cls-2" x="336.99" y="426.28" width="14.7" height="50.61"/><rect class="cls-4" x="354.09" y="422.56" width="20.14" height="69.33"/><rect class="cls-2" x="357.14" y="426.28" width="14.7" height="50.61"/></g><g id="buku_tingkat_1-2" data-name="buku tingkat 1" class="cls-5"><rect class="cls-6" x="298.58" y="420.68" width="20.14" height="69.33" transform="translate(237.53 -90.13) rotate(26.7)"/><rect class="cls-6" x="304.13" y="425.15" width="14.7" height="50.61" transform="translate(235.64 -91.92) rotate(26.7)"/><rect class="cls-6" x="333.95" y="422.56" width="20.14" height="69.33"/><rect class="cls-6" x="336.99" y="426.28" width="14.7" height="50.61"/><rect class="cls-6" x="354.09" y="422.56" width="20.14" height="69.33"/><rect class="cls-6" x="357.14" y="426.28" width="14.7" height="50.61"/></g></g></svg>