<svg xmlns="http://www.w3.org/2000/svg" viewBox="0 0 626.72 868.77"><defs><style>.cls-1{fill:#754c29;}.cls-2{fill:#d1d3d4;}.cls-3{fill:none;}.cls-3,.cls-4{stroke:#231f20;stroke-miterlimit:10;}.cls-4{fill:#231f20;}</style></defs><g id="frame"><rect class="cls-1" x="270.24" y="243.27" width="116.29" height="147.17"/><rect class="cls-2" x="286.8" y="261" width="80.07" height="109.88"/><line class="cls-3" x1="295.92" y1="297.64" x2="295.35" y2="306.53"/><line class="cls-3" x1="292.15" y1="302.08" x2="300.34" y2="313.83"/><line class="cls-3" x1="290.12" y1="317.78" x2="306.16" y2="311.94"/><line class="cls-3" x1="289.71" y1="324.94" x2="295.94" y2="315.77"/><line class="cls-3" x1="292.83" y1="320.76" x2="297.64" y2="321.8"/><line class="cls-3" x1="295.94" y1="315.77" x2="304.65" y2="327.19"/><path class="cls-4" d="M309.37,329.32s-8.12-3.9-9.48-8.48Z"/><path class="cls-4" d="M303.51,323.79c-3.34,2.14-.24,2.4,1,5.2,1.53,3.37.69,1.76,1.53,3.37s-7.54-3.34-7.54-3.34l-2.81,3.46,1.91,2,2.19-1.17,3.27,4.93"/><line class="cls-3" x1="303.08" y1="335.2" x2="302.51" y2="344.09"/><line class="cls-3" x1="299.31" y1="339.64" x2="307.5" y2="351.39"/><line class="cls-3" x1="297.28" y1="355.33" x2="313.32" y2="349.5"/><line class="cls-3" x1="296.87" y1="362.5" x2="303.1" y2="353.33"/><line class="cls-3" x1="299.99" y1="358.32" x2="304.8" y2="359.35"/><line class="cls-3" x1="303.1" y1="353.33" x2="311.81" y2="364.75"/></g></svg>