<svg xmlns="http://www.w3.org/2000/svg" viewBox="0 0 626.72 868.77"><defs><style>.cls-1{fill:#754c29;}.cls-2{fill:#d1d3d4;}.cls-3{fill:#df928f;}.cls-4{fill:#da1c5c;}.cls-5{fill:#e0917a;}.cls-6{fill:#54b948;}.cls-7{fill:#006838;}.cls-8{opacity:0.1;}.cls-9{fill:#fff;}</style></defs><g id="permejaan"><g id="frame_atas_meja" data-name="frame atas meja"><rect class="cls-1" x="299.44" y="358.13" width="80.48" height="105.32"/><rect class="cls-2" x="310.91" y="370.82" width="55.41" height="78.64"/><path class="cls-3" d="M331.92,380.54h9.72a7.11,7.11,0,0,1,7.11,7.11v9.72a0,0,0,0,1,0,0H339a7.11,7.11,0,0,1-7.11-7.11v-9.72A0,0,0,0,1,331.92,380.54Z" transform="translate(275.16 901.65) rotate(-131.57)"/><path class="cls-4" d="M322.75,384.12h9.72a7.11,7.11,0,0,1,7.11,7.11v9.72a0,0,0,0,1,0,0h-9.72a7.11,7.11,0,0,1-7.11-7.11v-9.72A0,0,0,0,1,322.75,384.12Z"/><path class="cls-4" d="M346.66,384.13h9.72a0,0,0,0,1,0,0v9.72a7.11,7.11,0,0,1-7.11,7.11h-9.72a0,0,0,0,1,0,0v-9.72A7.11,7.11,0,0,1,346.66,384.13Z" transform="translate(695.92 785.09) rotate(180)"/><path class="cls-5" d="M319.71,389.31h9.72a7.11,7.11,0,0,1,7.11,7.11v9.72a0,0,0,0,1,0,0h-9.72a7.11,7.11,0,0,1-7.11-7.11v-9.72A0,0,0,0,1,319.71,389.31Z" transform="translate(-154.9 217.35) rotate(-30)"/><path class="cls-5" d="M349.78,389.29h9.72a0,0,0,0,1,0,0V399a7.11,7.11,0,0,1-7.11,7.11h-9.72a0,0,0,0,1,0,0V396.4A7.11,7.11,0,0,1,349.78,389.29Z" transform="translate(456.28 917.66) rotate(-150)"/><path class="cls-6" d="M349.83,402.86h9.72a0,0,0,0,1,0,0v9.72a7.11,7.11,0,0,1-7.11,7.11h-9.72a0,0,0,0,1,0,0V410A7.11,7.11,0,0,1,349.83,402.86Z" transform="translate(161.56 -95.19) rotate(19.97)"/><path class="cls-6" d="M319.28,403.28H329a7.11,7.11,0,0,1,7.11,7.11v9.72a0,0,0,0,1,0,0h-9.72a7.11,7.11,0,0,1-7.11-7.11v-9.72A0,0,0,0,1,319.28,403.28Z" transform="translate(776.28 686.73) rotate(160.03)"/><rect class="cls-7" x="338.34" y="397.41" width="2.13" height="40.28"/></g><g id="frame_atas_meja-2" data-name="frame atas meja" class="cls-8"><rect class="cls-9" x="299.58" y="358.13" width="80.48" height="105.32"/><rect class="cls-9" x="311.04" y="370.82" width="55.41" height="78.64"/><path class="cls-9" d="M332.06,380.54h9.72a7.11,7.11,0,0,1,7.11,7.11v9.72a0,0,0,0,1,0,0h-9.72a7.11,7.11,0,0,1-7.11-7.11v-9.72A0,0,0,0,1,332.06,380.54Z" transform="translate(275.38 901.75) rotate(-131.57)"/><path class="cls-9" d="M322.89,384.12h9.72a7.11,7.11,0,0,1,7.11,7.11v9.72a0,0,0,0,1,0,0H330a7.11,7.11,0,0,1-7.11-7.11v-9.72A0,0,0,0,1,322.89,384.12Z"/><path class="cls-9" d="M346.79,384.13h9.72a0,0,0,0,1,0,0v9.72A7.11,7.11,0,0,1,349.4,401h-9.72a0,0,0,0,1,0,0v-9.72A7.11,7.11,0,0,1,346.79,384.13Z" transform="translate(696.19 785.09) rotate(180)"/><path class="cls-9" d="M319.84,389.31h9.72a7.11,7.11,0,0,1,7.11,7.11v9.72a0,0,0,0,1,0,0H327a7.11,7.11,0,0,1-7.11-7.11v-9.72A0,0,0,0,1,319.84,389.31Z" transform="translate(-154.88 217.41) rotate(-30)"/><path class="cls-9" d="M349.91,389.29h9.72a0,0,0,0,1,0,0V399a7.11,7.11,0,0,1-7.11,7.11H342.8a0,0,0,0,1,0,0V396.4A7.11,7.11,0,0,1,349.91,389.29Z" transform="translate(456.53 917.73) rotate(-150)"/><path class="cls-9" d="M350,402.86h9.72a0,0,0,0,1,0,0v9.72a7.11,7.11,0,0,1-7.11,7.11h-9.72a0,0,0,0,1,0,0V410A7.11,7.11,0,0,1,350,402.86Z" transform="translate(161.57 -95.23) rotate(19.97)"/><path class="cls-9" d="M319.41,403.28h9.72a7.11,7.11,0,0,1,7.11,7.11v9.72a0,0,0,0,1,0,0h-9.72a7.11,7.11,0,0,1-7.11-7.11v-9.72A0,0,0,0,1,319.41,403.28Z" transform="translate(776.53 686.68) rotate(160.03)"/><rect class="cls-9" x="338.48" y="397.41" width="2.13" height="40.28"/></g></g></svg>