<svg xmlns="http://www.w3.org/2000/svg" viewBox="0 0 626.72 868.77"><defs><style>.cls-1{fill:#754c29;}.cls-2{fill:#d1d3d4;}.cls-3{fill:none;}.cls-3,.cls-4{stroke:#231f20;stroke-miterlimit:10;}.cls-4{fill:#231f20;}.cls-5{fill:#fff;opacity:0.1;}</style></defs><g id="frame"><rect class="cls-1" x="278.01" y="237.82" width="116.29" height="147.17"/><rect class="cls-2" x="294.58" y="255.55" width="80.07" height="109.88"/><line class="cls-3" x1="303.69" y1="292.19" x2="303.13" y2="301.07"/><line class="cls-3" x1="299.92" y1="296.62" x2="308.11" y2="308.38"/><line class="cls-3" x1="297.89" y1="312.32" x2="313.93" y2="306.48"/><line class="cls-3" x1="297.48" y1="319.48" x2="303.71" y2="310.31"/><line class="cls-3" x1="300.61" y1="315.3" x2="305.41" y2="316.34"/><line class="cls-3" x1="303.71" y1="310.31" x2="312.42" y2="321.73"/><path class="cls-4" d="M317.14,323.87s-8.11-3.91-9.47-8.49Z"/><path class="cls-4" d="M311.28,318.34c-3.33,2.13-.24,2.39,1,5.19,1.54,3.37.7,1.77,1.54,3.37s-7.54-3.34-7.54-3.34L303.51,327l1.91,2,2.18-1.17,3.28,4.92"/><line class="cls-3" x1="310.85" y1="329.75" x2="310.29" y2="338.63"/><line class="cls-3" x1="307.08" y1="334.18" x2="315.27" y2="345.94"/><line class="cls-3" x1="305.05" y1="349.88" x2="321.09" y2="344.04"/><line class="cls-3" x1="304.64" y1="357.04" x2="310.87" y2="347.87"/><line class="cls-3" x1="307.77" y1="352.86" x2="312.57" y2="353.9"/><line class="cls-3" x1="310.87" y1="347.87" x2="319.58" y2="359.29"/><rect class="cls-5" x="277.84" y="237.9" width="116.29" height="147.17"/></g></svg>