<svg xmlns="http://www.w3.org/2000/svg" viewBox="0 0 1548.71 863.33"><defs><style>.cls-1{fill:#58595b;}</style></defs><g id="karpet"><path class="cls-1" d="M1178,428.33H287.18a8.93,8.93,0,0,1-5.7,2.59,9.23,9.23,0,0,1-2.42-.31l-1.47.74c1.24,1.35,4.08,3.47,3.7,4.19-.27.48-1.72-.28-3.66-.2-3.35.14-6.54,2.72-8.07,5.39-2.4,4.18-.28,7.87-2.31,9s-4.22-2-6.73-1c-3,1.22-2,6.56-4.23,7.31-2.82.94-7.34-6.66-10.44-8.89l-2.91,1.45c-.28,1.63-.25,3.68-1.26,4-.79.23-1.83-.74-2.81-1.94l-1.28.63c1,2.29,2,4.62,1.79,4.77s-1.83-2.2-3.31-4l-2.72,1.35c0,.6-.14,1.1-.51,1.3a1.63,1.63,0,0,1-1.48-.3l-1,.5c1.61,2.15,4.26,5.34,4,5.57s-3.92-4-5.56-3.14c-1.29.65.2,3.67-.95,5.67-1.86,3.23-9.55,1.94-15.68,1l-5.9,2.95c4.55,3.92,14.87,9.81,14,12.13-.66,1.81-8.12,1.53-30.25-3.78l0-.22L170.34,485,1178,489.44h101.36Zm-117,13.22c2.07-2.95,6,.85,13.31-2,6-2.33,6.48-6.1,10.55-6.06,5,.06,11.09,5.88,11.78,11.64,1.29,10.84-15.88,26.88-27.05,20.16C1062,460.68,1058,445.89,1061,441.55Zm20.84,41.3c-5.25-2.15-7.63-9.64-5.36-12,1.54-1.58,4.21.26,9.44-1.42,4.27-1.38,4.74-3.34,7.6-3.43,3.54-.12,7.65,2.7,8,5.64C1102.11,477.22,1089.54,486,1081.87,482.85Zm40.19-6.94c-15.7-3.38-21.73-17.86-14.4-22.85,5-3.39,12.82-.18,29.08-4.39,13.3-3.43,15.06-7.39,23.83-8.06,10.84-.82,22.92,4.1,23.4,9.88C1184.87,461.39,1145,480.86,1122.06,475.91Z"/></g></svg>