<svg xmlns="http://www.w3.org/2000/svg" xmlns:xlink="http://www.w3.org/1999/xlink" viewBox="0 0 626.72 868.77"><defs><style>.cls-1,.cls-6{fill:#231f20;}.cls-2{fill:#6d6e71;}.cls-3,.cls-4{opacity:0.32;}.cls-3{fill:url(#linear-gradient);}.cls-4{fill:url(#linear-gradient-2);}.cls-5,.cls-7,.cls-8{fill:none;}.cls-5,.cls-6{stroke:#231f20;}.cls-5,.cls-6,.cls-8{stroke-miterlimit:10;}.cls-7,.cls-8{stroke:#e2e2e2;stroke-width:0.75px;}.cls-7{stroke-linejoin:round;}.cls-9{fill:#fff;opacity:0.1;}</style><linearGradient id="linear-gradient" x1="135.24" y1="426.7" x2="465.06" y2="426.7" gradientUnits="userSpaceOnUse"><stop offset="0" stop-color="#fff"/><stop offset="0.01" stop-color="#fdfdfd"/><stop offset="1" stop-color="#58595b"/></linearGradient><linearGradient id="linear-gradient-2" x1="-3714.15" y1="426.27" x2="-3384.33" y2="426.27" gradientTransform="matrix(-1, 0, 0, 1, -3249.96, 0)" xlink:href="#linear-gradient"/></defs><g id="Layer_14" data-name="Layer 14"><rect class="cls-1" x="113.66" y="308.92" width="372.54" height="234.64"/><rect class="cls-2" x="134.9" y="322.3" width="330.06" height="207.88"/><path class="cls-3" d="M465.06,530.42H135.24V323H465.06Z"/><path class="cls-4" d="M134.37,530H464.19V322.55H134.37Z"/><line class="cls-5" x1="168.64" y1="348.27" x2="189.8" y2="364.94"/><line class="cls-5" x1="186.23" y1="348.73" x2="196.2" y2="390.92"/><line class="cls-5" x1="225.71" y1="375.84" x2="180.19" y2="400.21"/><line class="cls-5" x1="242.68" y1="389.37" x2="209.45" y2="384.91"/><line class="cls-5" x1="226.96" y1="387.98" x2="219.59" y2="400.9"/><line class="cls-5" x1="209.45" y1="384.91" x2="217.61" y2="427.58"/><path class="cls-6" d="M212.89,442.53s7.57-26.17,0-38.47Z"/><path class="cls-6" d="M212.25,418.16c11.54-3.2,5.88,4.29,9.61,12.83,4.49,10.26,2.57,5.13,4.49,10.26s7.7-23.73,7.7-23.73l13.46.64.64,8.34-7.05,2.56,4.49,17.32"/><line class="cls-5" x1="238.83" y1="440.21" x2="259.99" y2="456.88"/><line class="cls-5" x1="256.42" y1="440.68" x2="266.39" y2="482.86"/><line class="cls-5" x1="295.9" y1="467.78" x2="250.37" y2="492.15"/><line class="cls-5" x1="312.86" y1="481.31" x2="279.64" y2="476.85"/><line class="cls-5" x1="297.15" y1="479.92" x2="289.78" y2="492.84"/><line class="cls-5" x1="279.64" y1="476.85" x2="287.79" y2="519.52"/><path class="cls-7" d="M484.53,429.49l-51.1-12.33a100.93,100.93,0,0,1-58.55-39.64L326.4,309.27"/><path class="cls-7" d="M461.09,309l-58.95,94.65c1.63.12,83.53-32,83.53-32"/><line class="cls-8" x1="398.07" y1="311.66" x2="396.8" y2="399.74"/><path class="cls-8" d="M467.35,425.27s-21.66-18.84-.86-46.08"/><path class="cls-8" d="M465.23,380s-30.33.51-31.79-26.56"/><path class="cls-8" d="M433,354s-30.45,9.56-35.36-15"/><path class="cls-8" d="M397.6,342.32s-15.52,26.95-33.31,20.11"/><path class="cls-8" d="M397.34,363.49s-10.15,20.18-22.5,13.61"/><path class="cls-8" d="M397,380.68s-8.54,10.64-16.17,4.54"/><path class="cls-8" d="M397,395s-2.74,3-6.88-.4"/><path class="cls-8" d="M424.22,368.09s-25.89,29.84-27.15,16.77"/><path class="cls-8" d="M410.87,389.71s-14,13.67-13.86,9.29"/><path class="cls-8" d="M430,393.24s-14.86,3.51-19.91-2.33"/><path class="cls-8" d="M441.63,389s-24.77-2-15-24.65"/><path class="cls-8" d="M456.06,383.22s-32.22-4.89-28.1-21"/><path class="cls-8" d="M447.37,386.71c-.13.2-18.24,25-6.5,32.13"/><path class="cls-8" d="M451,385.3c-.2,0-34.38,22.52-24.76,29.95"/><path class="cls-8" d="M427.92,394.24S409.1,403,415,410.72"/><path class="cls-8" d="M428.58,361.36s-27.06,24.63-31.24,7"/><path class="cls-8" d="M384.27,358.12c-.07.26-10.81,40.52-12.61,14.8"/><path class="cls-8" d="M412.54,355.2s-13.34,7.3-15.14-1.26"/><path class="cls-8" d="M459.35,391.79s-19.09,45.55-3.25,31.09"/><path class="cls-8" d="M475.1,427.07s-5.1-37-.52-50.9c0,0-32.25-26.88-32.05-38,0,0-41.21,4-45.39-2.59,0,0-34.54,17.12-51.07,1.4"/><path class="cls-8" d="M456.76,378.9s-16.12-17.57-12.24-34.59"/><path class="cls-8" d="M436.44,348.43s-10.43-.63-15.31-9.09"/><path class="cls-8" d="M369.67,343.32s-4.58,17.12-13.74,7.46"/><path class="cls-8" d="M417,355.66s-12.74,46-19.81,37.73"/><path class="cls-8" d="M460.65,415.78s-52.64-1.49-44.08-13.44"/><path class="cls-8" d="M481.22,373.45s-40-25.95-37.47-36.43"/><path class="cls-8" d="M397.6,338.67S360.18,345,336.29,323"/><path class="cls-8" d="M397.44,355.66s-7,16.62-10,20"/><path class="cls-8" d="M417.19,379.65s-2.77,13,1.21,14.5"/><path class="cls-8" d="M418.13,412.21c-.6.2-4.86,4.57-4.86,4.57l-5.18-9.68"/><line class="cls-8" x1="413.27" y1="416.78" x2="413.27" y2="433.3"/><path class="cls-7" d="M454.23,319.75s-49.72,14.09-56.37,8.1"/><path class="cls-7" d="M397.86,330.85s-55.36-1.25-67.09-15.09"/><path class="cls-7" d="M453,322.12s19.83,47.38,29.68,50.5"/><path class="cls-7" d="M479.54,374.49s-8.14,43.4-3.53,53"/><line class="cls-8" x1="359.58" y1="356.22" x2="359.58" y2="394.65"/><line class="cls-8" x1="359.52" y1="361.77" x2="353.28" y2="347.37"/><path class="cls-8" d="M446.46,321.66s-40.91,37.74-48.72,28.27"/><path class="cls-8" d="M455.6,327.81s.17,26.77,7.32,32.42"/><path class="cls-8" d="M462.75,342.61s-4.3,4.22-6.46-2.6"/><path class="cls-8" d="M448.87,328.73c-.34-.25-6,3.82-6.9-3.16"/><path class="cls-8" d="M407.34,329.22s-13.22,33.18-18,23.95"/><path class="cls-8" d="M355.34,326.23s-3.33,39.49-8.15,12.22"/><path class="cls-8" d="M458.09,423.42s-5.9,47.88-26-6.49"/><path class="cls-8" d="M413.45,423s-22.69-5.74-26.06-30.8"/><path class="cls-8" d="M367.31,366.76c-.12.37-3.86,35.29-7.85,7.48"/><line class="cls-8" x1="340" y1="328.6" x2="340" y2="405.13"/><path class="cls-8" d="M340,337.62s-3.16-2.58-2.74-12.88"/><path class="cls-8" d="M458.09,423.42s-5.9,47.88-26-6.49"/><path class="cls-8" d="M413.45,423s-22.69-5.74-26.06-30.8"/><path class="cls-8" d="M367.31,366.76c-.12.37-3.86,35.29-7.85,7.48"/><line class="cls-8" x1="340" y1="328.6" x2="340" y2="405.13"/><path class="cls-8" d="M340,337.62s-3.16-2.58-2.74-12.88"/><rect class="cls-9" x="115.51" y="309.38" width="372.54" height="234.64"/></g></svg>