<svg xmlns="http://www.w3.org/2000/svg" viewBox="0 0 1548.71 863.33"><defs><style>.cls-1{fill:#58595b;}.cls-2{fill:#fff;opacity:0.1;}</style></defs><g id="karpet"><path class="cls-1" d="M1208.42,431.94H317.61a8,8,0,0,1-8.13,2.28L308,435c1.24,1.35,4.09,3.47,3.7,4.19-.26.48-1.71-.27-3.65-.19-3.36.13-6.55,2.71-8.07,5.38-2.4,4.18-.28,7.87-2.31,9s-4.23-2-6.73-1c-3,1.23-2,6.56-4.23,7.31-2.82.94-7.34-6.66-10.44-8.89l-2.91,1.45c-.28,1.63-.25,3.68-1.26,4-.79.23-1.83-.74-2.82-1.94L268,455c1,2.28,2,4.61,1.78,4.76s-1.83-2.2-3.3-4l-2.72,1.36c0,.59-.14,1.09-.51,1.29a1.62,1.62,0,0,1-1.48-.3l-1,.5c1.61,2.15,4.26,5.34,4,5.57s-3.91-4-5.55-3.14c-1.3.66.2,3.67-.95,5.67-1.86,3.24-9.56,1.95-15.68,1l-5.91,2.95c4.56,3.92,14.87,9.82,14,12.13-.66,1.81-8.13,1.53-30.26-3.78l0-.22-19.68,9.84,1007.65,4.47h101.36Zm-117,13.22c2.07-3,6,.85,13.31-2,6-2.34,6.48-6.11,10.54-6.06,5,0,11.1,5.88,11.78,11.63,1.3,10.84-15.88,26.88-27,20.16C1092.4,464.29,1088.42,449.51,1091.46,445.16Zm20.83,41.3c-5.25-2.14-7.63-9.64-5.35-12,1.54-1.58,4.2.26,9.43-1.42,4.28-1.38,4.75-3.33,7.61-3.43,3.54-.12,7.64,2.7,8,5.64C1132.54,480.83,1120,489.59,1112.29,486.46Zm40.2-6.93c-15.71-3.39-21.74-17.87-14.4-22.86,5-3.38,12.82-.18,29.08-4.38,13.29-3.44,15-7.4,23.83-8.06,10.83-.83,22.92,4.09,23.4,9.88C1215.3,465,1175.41,484.47,1152.49,479.53Z"/><path class="cls-2" d="M1208.42,431.94H317.61a8,8,0,0,1-8.13,2.28L308,435c1.24,1.35,4.09,3.47,3.7,4.19-.26.48-1.71-.27-3.65-.19-3.36.13-6.55,2.71-8.07,5.38-2.4,4.18-.28,7.87-2.31,9s-4.23-2-6.73-1c-3,1.23-2,6.56-4.23,7.31-2.82.94-7.34-6.66-10.44-8.89l-2.91,1.45c-.28,1.63-.25,3.68-1.26,4-.79.23-1.83-.74-2.82-1.94L268,455c1,2.28,2,4.61,1.78,4.76s-1.83-2.2-3.3-4l-2.72,1.36c0,.59-.14,1.09-.51,1.29a1.62,1.62,0,0,1-1.48-.3l-1,.5c1.61,2.15,4.26,5.34,4,5.57s-3.91-4-5.55-3.14c-1.3.66.2,3.67-.95,5.67-1.86,3.24-9.56,1.95-15.68,1l-5.91,2.95c4.56,3.92,14.87,9.82,14,12.13-.66,1.81-8.13,1.53-30.26-3.78l0-.22-19.68,9.84,1007.65,4.47h101.36Zm-117,13.22c2.07-3,6,.85,13.31-2,6-2.34,6.48-6.11,10.54-6.06,5,0,11.1,5.88,11.78,11.63,1.3,10.84-15.88,26.88-27,20.16C1092.4,464.29,1088.42,449.51,1091.46,445.16Zm20.83,41.3c-5.25-2.14-7.63-9.64-5.35-12,1.54-1.58,4.2.26,9.43-1.42,4.28-1.38,4.75-3.33,7.61-3.43,3.54-.12,7.64,2.7,8,5.64C1132.54,480.83,1120,489.59,1112.29,486.46Zm40.2-6.93c-15.71-3.39-21.74-17.87-14.4-22.86,5-3.38,12.82-.18,29.08-4.38,13.29-3.44,15-7.4,23.83-8.06,10.83-.83,22.92,4.09,23.4,9.88C1215.3,465,1175.41,484.47,1152.49,479.53Z"/></g></svg>