<svg xmlns="http://www.w3.org/2000/svg" xmlns:xlink="http://www.w3.org/1999/xlink" viewBox="0 0 626.72 868.77"><defs><style>.cls-1,.cls-6{fill:#231f20;}.cls-2{fill:#6d6e71;}.cls-3,.cls-4{opacity:0.32;}.cls-3{fill:url(#linear-gradient);}.cls-4{fill:url(#linear-gradient-2);}.cls-5,.cls-7,.cls-8{fill:none;}.cls-5,.cls-6{stroke:#231f20;}.cls-5,.cls-6,.cls-8{stroke-miterlimit:10;}.cls-7,.cls-8{stroke:#e2e2e2;stroke-width:0.75px;}.cls-7{stroke-linejoin:round;}</style><linearGradient id="linear-gradient" x1="142.68" y1="424.33" x2="472.5" y2="424.33" gradientUnits="userSpaceOnUse"><stop offset="0" stop-color="#fff"/><stop offset="0.01" stop-color="#fdfdfd"/><stop offset="1" stop-color="#58595b"/></linearGradient><linearGradient id="linear-gradient-2" x1="-2428.14" y1="423.9" x2="-2098.32" y2="423.9" gradientTransform="matrix(-1, 0, 0, 1, -1956.51, 0)" xlink:href="#linear-gradient"/></defs><g id="Layer_14" data-name="Layer 14"><rect class="cls-1" x="121.1" y="306.55" width="372.54" height="234.64"/><rect class="cls-2" x="142.34" y="319.93" width="330.06" height="207.88"/><path class="cls-3" d="M472.5,528.05H142.68V320.61H472.5Z"/><path class="cls-4" d="M141.81,527.62H471.63V320.18H141.81Z"/><line class="cls-5" x1="176.08" y1="345.9" x2="197.24" y2="362.57"/><line class="cls-5" x1="193.67" y1="346.37" x2="203.64" y2="388.55"/><line class="cls-5" x1="233.15" y1="373.47" x2="187.62" y2="397.84"/><line class="cls-5" x1="250.11" y1="387" x2="216.88" y2="382.54"/><line class="cls-5" x1="234.4" y1="385.62" x2="227.03" y2="398.53"/><line class="cls-5" x1="216.88" y1="382.54" x2="225.04" y2="425.22"/><path class="cls-6" d="M220.32,440.16s7.57-26.17,0-38.47Z"/><path class="cls-6" d="M219.68,415.79c11.54-3.2,5.88,4.29,9.62,12.83,4.49,10.26,2.56,5.13,4.49,10.26s7.69-23.73,7.69-23.73l13.47.64.64,8.34-7.05,2.57L253,444"/><line class="cls-5" x1="246.27" y1="437.84" x2="267.43" y2="454.52"/><line class="cls-5" x1="263.86" y1="438.31" x2="273.82" y2="480.49"/><line class="cls-5" x1="303.33" y1="465.42" x2="257.81" y2="489.78"/><line class="cls-5" x1="320.3" y1="478.94" x2="287.07" y2="474.48"/><line class="cls-5" x1="304.59" y1="477.56" x2="297.22" y2="490.47"/><line class="cls-5" x1="287.07" y1="474.48" x2="295.23" y2="517.16"/><path class="cls-7" d="M492,427.12l-51.11-12.33a100.9,100.9,0,0,1-58.54-39.64l-48.49-68.24"/><path class="cls-7" d="M468.52,306.66,409.58,401.3c1.62.12,83.52-32,83.52-32"/><line class="cls-8" x1="405.5" y1="309.3" x2="404.24" y2="397.38"/><path class="cls-8" d="M474.79,422.91s-21.67-18.85-.86-46.09"/><path class="cls-8" d="M472.66,377.65s-30.32.52-31.78-26.56"/><path class="cls-8" d="M440.46,351.63s-30.44,9.56-35.35-15"/><path class="cls-8" d="M405,340s-15.53,26.95-33.31,20.11"/><path class="cls-8" d="M404.77,361.12s-10.15,20.18-22.49,13.61"/><path class="cls-8" d="M404.44,378.31s-8.53,10.64-16.16,4.54"/><path class="cls-8" d="M404.44,392.65s-2.74,3-6.87-.41"/><path class="cls-8" d="M431.65,365.72s-25.88,29.85-27.14,16.77"/><path class="cls-8" d="M418.31,387.34s-14,13.67-13.87,9.29"/><path class="cls-8" d="M437.43,390.87s-14.87,3.51-19.91-2.33"/><path class="cls-8" d="M449.07,386.63S424.3,384.61,434,362"/><path class="cls-8" d="M463.49,380.85s-32.21-4.89-28.1-21"/><path class="cls-8" d="M454.81,384.34c-.14.2-18.25,25-6.5,32.13"/><path class="cls-8" d="M458.46,382.93c-.2,0-34.38,22.52-24.75,30"/><path class="cls-8" d="M435.35,391.87s-18.81,8.78-12.9,16.48"/><path class="cls-8" d="M436,359s-27.07,24.63-31.25,7"/><path class="cls-8" d="M391.7,355.75c-.07.26-10.8,40.52-12.61,14.8"/><path class="cls-8" d="M420,352.83s-13.34,7.3-15.13-1.26"/><path class="cls-8" d="M466.79,389.43S447.7,435,463.53,420.51"/><path class="cls-8" d="M482.53,424.71s-5.09-37-.51-50.91c0,0-32.25-26.88-32-38,0,0-41.21,4-45.4-2.58,0,0-34.54,17.12-51.06,1.39"/><path class="cls-8" d="M464.2,376.53S448.07,359,452,342"/><path class="cls-8" d="M443.87,346.06s-10.43-.63-15.31-9.09"/><path class="cls-8" d="M377.1,341s-4.58,17.12-13.74,7.47"/><path class="cls-8" d="M424.38,353.29s-12.74,46-19.81,37.73"/><path class="cls-8" d="M468.08,413.42S415.44,411.92,424,400"/><path class="cls-8" d="M488.65,371.08s-40-25.94-37.46-36.43"/><path class="cls-8" d="M405,336.3s-37.43,6.38-61.32-15.66"/><path class="cls-8" d="M404.87,353.29s-7,16.63-9.95,20"/><path class="cls-8" d="M424.63,377.28s-2.78,13.05,1.2,14.51"/><path class="cls-8" d="M425.56,409.85c-.59.2-4.86,4.56-4.86,4.56l-5.18-9.68"/><line class="cls-8" x1="420.7" y1="414.41" x2="420.7" y2="430.94"/><path class="cls-7" d="M461.66,317.38S412,331.47,405.3,325.49"/><path class="cls-7" d="M405.3,328.48s-55.37-1.25-67.09-15.09"/><path class="cls-7" d="M460.42,319.75s19.82,47.39,29.68,50.5"/><path class="cls-7" d="M487,372.12s-8.15,43.4-3.53,53"/><line class="cls-8" x1="367.02" y1="353.86" x2="367.02" y2="392.28"/><line class="cls-8" x1="366.95" y1="359.4" x2="360.72" y2="345"/><path class="cls-8" d="M453.89,319.29S413,357,405.17,347.56"/><path class="cls-8" d="M463,325.44s.16,26.77,7.31,32.43"/><path class="cls-8" d="M470.19,340.24s-4.31,4.22-6.47-2.6"/><path class="cls-8" d="M456.3,326.36c-.33-.25-6,3.82-6.9-3.16"/><path class="cls-8" d="M414.78,326.86s-13.22,33.17-18,23.94"/><path class="cls-8" d="M362.78,323.86s-3.33,39.49-8.15,12.23"/><path class="cls-8" d="M465.53,421.05s-5.9,47.88-26-6.49"/><path class="cls-8" d="M420.89,420.63s-22.7-5.73-26.07-30.8"/><path class="cls-8" d="M374.75,364.39c-.13.38-3.87,35.29-7.86,7.48"/><line class="cls-8" x1="347.44" y1="326.23" x2="347.44" y2="402.76"/><path class="cls-8" d="M347.48,335.25s-3.16-2.57-2.74-12.88"/><path class="cls-8" d="M465.53,421.05s-5.9,47.88-26-6.49"/><path class="cls-8" d="M420.89,420.63s-22.7-5.73-26.07-30.8"/><path class="cls-8" d="M374.75,364.39c-.13.38-3.87,35.29-7.86,7.48"/><line class="cls-8" x1="347.44" y1="326.23" x2="347.44" y2="402.76"/><path class="cls-8" d="M347.48,335.25s-3.16-2.57-2.74-12.88"/></g></svg>