<svg xmlns="http://www.w3.org/2000/svg" viewBox="0 0 626.72 868.77"><defs><style>.cls-1{fill:#754c29;}.cls-2{fill:#d1d3d4;}.cls-3{fill:#939598;}.cls-4{fill:none;}.cls-4,.cls-5{stroke:#231f20;stroke-miterlimit:10;}.cls-5{fill:#231f20;}.cls-6{fill:#fff;opacity:0.1;}</style></defs><g id="frame"><rect class="cls-1" x="247.51" y="244.91" width="125.55" height="380.78"/><rect class="cls-2" x="266.34" y="267.55" width="86.45" height="337.73"/><polygon class="cls-3" points="344.56 605.41 266.34 605.41 266.34 269.92 344.56 605.41"/><line class="cls-4" x1="321.08" y1="281.05" x2="322.78" y2="307.93"/><line class="cls-4" x1="332.47" y1="294.46" x2="307.7" y2="330.03"/><line class="cls-4" x1="338.62" y1="341.95" x2="290.09" y2="324.29"/><line class="cls-4" x1="339.86" y1="363.61" x2="321.01" y2="335.88"/><line class="cls-4" x1="330.41" y1="350.98" x2="315.87" y2="354.11"/><line class="cls-4" x1="321.01" y1="335.88" x2="294.67" y2="370.43"/><path class="cls-5" d="M280.39,376.89s24.54-11.82,28.65-25.67Z"/><path class="cls-5" d="M298.11,360.15c10.09,6.46.73,7.24-3.14,15.72-4.65,10.19-2.11,5.34-4.65,10.19S313.13,376,313.13,376l8.51,10.45-5.78,6-6.62-3.54-9.9,14.89"/><line class="cls-4" x1="299.42" y1="394.67" x2="301.12" y2="421.55"/><line class="cls-4" x1="310.81" y1="408.08" x2="286.04" y2="443.65"/><line class="cls-4" x1="316.96" y1="455.57" x2="268.43" y2="437.92"/><line class="cls-4" x1="318.2" y1="477.23" x2="299.35" y2="449.51"/><line class="cls-4" x1="308.75" y1="464.61" x2="294.21" y2="467.74"/><line class="cls-4" x1="299.35" y1="449.51" x2="273.01" y2="484.06"/><rect class="cls-6" x="249.66" y="246.01" width="125.55" height="380.78"/></g></svg>