<svg id="Layer_1" data-name="Layer 1" xmlns="http://www.w3.org/2000/svg" xmlns:xlink="http://www.w3.org/1999/xlink" viewBox="0 0 1080 1080"><defs><style>.cls-1{fill:url(#New_Gradient_Swatch_copy_2);}.cls-11,.cls-13,.cls-15,.cls-17,.cls-19,.cls-2,.cls-21,.cls-23,.cls-25,.cls-27,.cls-29,.cls-31,.cls-33,.cls-35,.cls-37,.cls-39,.cls-41,.cls-43,.cls-45,.cls-5,.cls-7,.cls-9{opacity:0.2;}.cls-2{fill:url(#linear-gradient);}.cls-3{opacity:0.1;fill:url(#New_Gradient_Swatch_copy_2-2);}.cls-4{fill:url(#New_Gradient_Swatch_copy_2-3);}.cls-5{fill:url(#linear-gradient-2);}.cls-6{fill:url(#linear-gradient-3);}.cls-7{fill:url(#linear-gradient-4);}.cls-8{fill:url(#linear-gradient-5);}.cls-9{fill:url(#linear-gradient-6);}.cls-10{fill:url(#linear-gradient-7);}.cls-11{fill:url(#linear-gradient-8);}.cls-12{fill:url(#linear-gradient-9);}.cls-13{fill:url(#linear-gradient-10);}.cls-14{fill:url(#linear-gradient-11);}.cls-15{fill:url(#linear-gradient-12);}.cls-16{fill:url(#linear-gradient-13);}.cls-17{fill:url(#linear-gradient-14);}.cls-18{fill:url(#linear-gradient-15);}.cls-19{fill:url(#linear-gradient-16);}.cls-20{fill:url(#linear-gradient-17);}.cls-21{fill:url(#linear-gradient-18);}.cls-22{fill:url(#linear-gradient-19);}.cls-23{fill:url(#linear-gradient-20);}.cls-24{fill:url(#linear-gradient-21);}.cls-25{fill:url(#linear-gradient-22);}.cls-26{fill:url(#linear-gradient-23);}.cls-27{fill:url(#linear-gradient-24);}.cls-28{fill:url(#linear-gradient-25);}.cls-29{fill:url(#linear-gradient-26);}.cls-30{fill:url(#linear-gradient-27);}.cls-31{fill:url(#linear-gradient-28);}.cls-32{fill:url(#linear-gradient-29);}.cls-33{fill:url(#linear-gradient-30);}.cls-34{fill:url(#linear-gradient-31);}.cls-35{fill:url(#linear-gradient-32);}.cls-36,.cls-37{fill:url(#linear-gradient-33);}.cls-38{fill:url(#linear-gradient-35);}.cls-39{fill:url(#linear-gradient-36);}.cls-40{fill:url(#linear-gradient-37);}.cls-41{fill:url(#linear-gradient-38);}.cls-42{fill:url(#linear-gradient-39);}.cls-43{fill:url(#linear-gradient-40);}.cls-44{fill:url(#linear-gradient-41);}.cls-45{fill:url(#linear-gradient-42);}</style><linearGradient id="New_Gradient_Swatch_copy_2" x1="41.89" y1="581.19" x2="1052.83" y2="581.19" gradientUnits="userSpaceOnUse"><stop offset="0" stop-color="#d45127"/><stop offset="1" stop-color="#2383c5" stop-opacity="0"/></linearGradient><linearGradient id="linear-gradient" x1="41.89" y1="581.19" x2="1052.83" y2="581.19" gradientUnits="userSpaceOnUse"><stop offset="0" stop-color="#2383c5" stop-opacity="0"/><stop offset="1" stop-color="#d45127"/></linearGradient><linearGradient id="New_Gradient_Swatch_copy_2-2" x1="826.84" y1="581.19" x2="1052.83" y2="581.19" xlink:href="#New_Gradient_Swatch_copy_2"/><linearGradient id="New_Gradient_Swatch_copy_2-3" x1="175.44" y1="96.75" x2="902.81" y2="96.75" xlink:href="#New_Gradient_Swatch_copy_2"/><linearGradient id="linear-gradient-2" x1="175.44" y1="96.75" x2="902.81" y2="96.75" xlink:href="#linear-gradient"/><linearGradient id="linear-gradient-3" x1="217.04" y1="852.4" x2="366.31" y2="844.48" gradientTransform="translate(-98.21 -70.67) rotate(-6.83)" xlink:href="#New_Gradient_Swatch_copy_2"/><linearGradient id="linear-gradient-4" x1="217.04" y1="852.4" x2="366.31" y2="844.48" gradientTransform="translate(-98.21 -70.67) rotate(-6.83)" xlink:href="#linear-gradient"/><linearGradient id="linear-gradient-5" x1="199.37" y1="792.85" x2="326.85" y2="786.08" gradientTransform="translate(-98.21 -70.67) rotate(-6.83)" xlink:href="#New_Gradient_Swatch_copy_2"/><linearGradient id="linear-gradient-6" x1="199.37" y1="792.85" x2="326.85" y2="786.08" gradientTransform="translate(-98.21 -70.67) rotate(-6.83)" xlink:href="#linear-gradient"/><linearGradient id="linear-gradient-7" x1="218.96" y1="837.51" x2="276.14" y2="834.48" gradientTransform="matrix(1.16, -0.15, 0.16, 1.23, -16.23, -286.97)" xlink:href="#New_Gradient_Swatch_copy_2"/><linearGradient id="linear-gradient-8" x1="218.96" y1="837.51" x2="276.14" y2="834.48" gradientTransform="matrix(1.16, -0.15, 0.16, 1.23, -16.23, -286.97)" xlink:href="#linear-gradient"/><linearGradient id="linear-gradient-9" x1="357.07" y1="771.57" x2="394.93" y2="771.57" gradientTransform="translate(-107.86 -76.26) rotate(-7.46)" xlink:href="#New_Gradient_Swatch_copy_2"/><linearGradient id="linear-gradient-10" x1="357.07" y1="771.57" x2="394.93" y2="771.57" gradientTransform="translate(-107.86 -76.26) rotate(-7.46)" xlink:href="#linear-gradient"/><linearGradient id="linear-gradient-11" x1="403.24" y1="753.66" x2="443.02" y2="751.55" gradientTransform="translate(-107.86 -76.26) rotate(-7.46)" xlink:href="#New_Gradient_Swatch_copy_2"/><linearGradient id="linear-gradient-12" x1="403.24" y1="753.66" x2="443.02" y2="751.55" gradientTransform="translate(-107.86 -76.26) rotate(-7.46)" xlink:href="#linear-gradient"/><linearGradient id="linear-gradient-13" x1="422.89" y1="817.16" x2="488.31" y2="813.69" gradientTransform="translate(-107.86 -76.26) rotate(-7.46)" xlink:href="#New_Gradient_Swatch_copy_2"/><linearGradient id="linear-gradient-14" x1="422.89" y1="817.16" x2="488.31" y2="813.69" gradientTransform="translate(-107.86 -76.26) rotate(-7.46)" xlink:href="#linear-gradient"/><linearGradient id="linear-gradient-15" x1="447.12" y1="724.43" x2="480.46" y2="722.66" gradientTransform="translate(-107.86 -76.26) rotate(-7.46)" xlink:href="#New_Gradient_Swatch_copy_2"/><linearGradient id="linear-gradient-16" x1="447.12" y1="724.43" x2="480.46" y2="722.66" gradientTransform="translate(-107.86 -76.26) rotate(-7.46)" xlink:href="#linear-gradient"/><linearGradient id="linear-gradient-17" x1="460.2" y1="797.17" x2="529.19" y2="793.51" gradientTransform="translate(-107.86 -76.26) rotate(-7.46)" xlink:href="#New_Gradient_Swatch_copy_2"/><linearGradient id="linear-gradient-18" x1="460.2" y1="797.17" x2="529.19" y2="793.51" gradientTransform="translate(-107.86 -76.26) rotate(-7.46)" xlink:href="#linear-gradient"/><linearGradient id="linear-gradient-19" x1="486.81" y1="698.48" x2="523.34" y2="696.55" gradientTransform="translate(-107.86 -76.26) rotate(-7.46)" xlink:href="#New_Gradient_Swatch_copy_2"/><linearGradient id="linear-gradient-20" x1="486.81" y1="698.48" x2="523.34" y2="696.55" gradientTransform="translate(-107.86 -76.26) rotate(-7.46)" xlink:href="#linear-gradient"/><linearGradient id="linear-gradient-21" x1="526.26" y1="674.46" x2="564.61" y2="672.43" gradientTransform="translate(-107.86 -76.26) rotate(-7.46)" xlink:href="#New_Gradient_Swatch_copy_2"/><linearGradient id="linear-gradient-22" x1="526.26" y1="674.46" x2="564.61" y2="672.43" gradientTransform="translate(-107.86 -76.26) rotate(-7.46)" xlink:href="#linear-gradient"/><linearGradient id="linear-gradient-23" x1="503.45" y1="769.27" x2="582.98" y2="765.05" gradientTransform="translate(-107.86 -76.26) rotate(-7.46)" xlink:href="#New_Gradient_Swatch_copy_2"/><linearGradient id="linear-gradient-24" x1="503.45" y1="769.27" x2="582.98" y2="765.05" gradientTransform="translate(-107.86 -76.26) rotate(-7.46)" xlink:href="#linear-gradient"/><linearGradient id="linear-gradient-25" x1="544.62" y1="744.66" x2="619.76" y2="740.67" gradientTransform="translate(-107.86 -76.26) rotate(-7.46)" xlink:href="#New_Gradient_Swatch_copy_2"/><linearGradient id="linear-gradient-26" x1="544.62" y1="744.66" x2="619.76" y2="740.67" gradientTransform="translate(-107.86 -76.26) rotate(-7.46)" xlink:href="#linear-gradient"/><linearGradient id="linear-gradient-27" x1="570.94" y1="658.8" x2="615.11" y2="656.46" gradientTransform="translate(-107.86 -76.26) rotate(-7.46)" xlink:href="#New_Gradient_Swatch_copy_2"/><linearGradient id="linear-gradient-28" x1="570.94" y1="658.8" x2="615.11" y2="656.46" gradientTransform="translate(-107.86 -76.26) rotate(-7.46)" xlink:href="#linear-gradient"/><linearGradient id="linear-gradient-29" x1="580.66" y1="726.9" x2="649.18" y2="723.26" gradientTransform="translate(-107.86 -76.26) rotate(-7.46)" xlink:href="#New_Gradient_Swatch_copy_2"/><linearGradient id="linear-gradient-30" x1="580.66" y1="726.9" x2="649.18" y2="723.26" gradientTransform="translate(-107.86 -76.26) rotate(-7.46)" xlink:href="#linear-gradient"/><linearGradient id="linear-gradient-31" x1="615.35" y1="712.07" x2="689.06" y2="708.15" gradientTransform="translate(-107.86 -76.26) rotate(-7.46)" xlink:href="#New_Gradient_Swatch_copy_2"/><linearGradient id="linear-gradient-32" x1="615.35" y1="712.07" x2="689.06" y2="708.15" gradientTransform="translate(-107.86 -76.26) rotate(-7.46)" xlink:href="#linear-gradient"/><linearGradient id="linear-gradient-33" x1="614.32" y1="642.83" x2="663.95" y2="640.2" gradientTransform="translate(-107.86 -76.26) rotate(-7.46)" xlink:href="#New_Gradient_Swatch_copy_2"/><linearGradient id="linear-gradient-35" x1="651.63" y1="695.41" x2="729.7" y2="691.26" gradientTransform="translate(-107.86 -76.26) rotate(-7.46)" xlink:href="#New_Gradient_Swatch_copy_2"/><linearGradient id="linear-gradient-36" x1="651.63" y1="695.41" x2="729.7" y2="691.26" gradientTransform="translate(-107.86 -76.26) rotate(-7.46)" xlink:href="#linear-gradient"/><linearGradient id="linear-gradient-37" x1="660.54" y1="642.72" x2="715.15" y2="639.82" gradientTransform="translate(-107.86 -76.26) rotate(-7.46)" xlink:href="#New_Gradient_Swatch_copy_2"/><linearGradient id="linear-gradient-38" x1="660.54" y1="642.72" x2="715.15" y2="639.82" gradientTransform="translate(-107.86 -76.26) rotate(-7.46)" xlink:href="#linear-gradient"/><linearGradient id="linear-gradient-39" x1="697.27" y1="668.79" x2="765.1" y2="665.19" gradientTransform="translate(-107.86 -76.26) rotate(-7.46)" xlink:href="#New_Gradient_Swatch_copy_2"/><linearGradient id="linear-gradient-40" x1="697.27" y1="668.79" x2="765.1" y2="665.19" gradientTransform="translate(-107.86 -76.26) rotate(-7.46)" gradientUnits="userSpaceOnUse"><stop offset="0" stop-color="#2383c5" stop-opacity="0"/><stop offset="1" stop-color="#2383c5"/></linearGradient><linearGradient id="linear-gradient-41" x1="162.35" y1="759.35" x2="663.62" y2="732.74" gradientTransform="translate(-98.21 -70.67) rotate(-6.83)" xlink:href="#New_Gradient_Swatch_copy_2"/><linearGradient id="linear-gradient-42" x1="162.35" y1="759.35" x2="663.62" y2="732.74" gradientTransform="translate(-98.21 -70.67) rotate(-6.83)" xlink:href="#linear-gradient"/></defs><path class="cls-1" d="M989.29,222.33c-13.15-23.17-92.07-110.51-92.07-110.51s-8.65,38.8-16.33,55.59S853.45,182.59,807,178c-373.27-37.1-536.53-13.72-592-19.19-24-2.36-37.43-10.37-37.43-10.37s-77,72.13-95.83,216.51S29.86,997.67,46.38,1029.75c8.07,15.68,33.43,5.35,46.58,8.91s624.95,14.45,682.52,5.3c38.66-6.14,87.18,6.55,99.19,6.61,31.17.15,115.56-77.86,163.48-77.86S1002.45,245.5,989.29,222.33Z"/><path class="cls-2" d="M989.29,222.33c-13.15-23.17-92.07-110.51-92.07-110.51s-8.65,38.8-16.33,55.59S853.45,182.59,807,178c-373.27-37.1-536.53-13.72-592-19.19-24-2.36-37.43-10.37-37.43-10.37s-77,72.13-95.83,216.51S29.86,997.67,46.38,1029.75c8.07,15.68,33.43,5.35,46.58,8.91s624.95,14.45,682.52,5.3c38.66-6.14,87.18,6.55,99.19,6.61,31.17.15,115.56-77.86,163.48-77.86S1002.45,245.5,989.29,222.33Z"/><path class="cls-3" d="M989.29,222.33c-13.15-23.17-92.07-110.51-92.07-110.51s-8.65,38.8-16.33,55.59a20.13,20.13,0,0,1-12.4,11.27C860,196,849.11,216.91,836.75,237.46c-13.27,22.07-13.17,767.88,0,788.76,4.21,6.68,11.23,14.39,18.83,21.79,8.76,1.41,15.53,2.54,19.09,2.56,31.17.15,115.56-77.86,163.48-77.86S1002.45,245.5,989.29,222.33Z"/><path class="cls-4" d="M215,158.78C270.47,164.25,433.73,140.87,807,178c46.45,4.62,66.21,6.24,73.89-10.56s16.33-55.59,16.33-55.59,16.3-70.11-6.73-80.63C861.64,18,645.42,31.61,527,31.61s-300.65-28.52-317.56-16-41.34,55.36-31.95,132.84C177.52,148.41,191,156.42,215,158.78Z"/><path class="cls-5" d="M215,158.78C270.47,164.25,433.73,140.87,807,178c46.45,4.62,66.21,6.24,73.89-10.56s16.33-55.59,16.33-55.59,16.3-70.11-6.73-80.63C861.64,18,645.42,31.61,527,31.61s-300.65-28.52-317.56-16-41.34,55.36-31.95,132.84C177.52,148.41,191,156.42,215,158.78Z"/><path class="cls-6" d="M214.18,724.18s15.93,23.61,50.44,24.59,94.36-12,105.77,1.18c0,0-20-23.13-63-20.16S228.47,734.14,214.18,724.18Z"/><path class="cls-7" d="M214.18,724.18s15.93,23.61,50.44,24.59,94.36-12,105.77,1.18c0,0-20-23.13-63-20.16S228.47,734.14,214.18,724.18Z"/><path class="cls-8" d="M197.52,712.94s38.24,1.4,63.66-23.84,40.59-36.46,54.91-39.45c0,0-33.12,3.11-60.77,19.23S216.89,706.66,197.52,712.94Z"/><path class="cls-9" d="M197.52,712.94s38.24,1.4,63.66-23.84,40.59-36.46,54.91-39.45c0,0-33.12,3.11-60.77,19.23S216.89,706.66,197.52,712.94Z"/><path class="cls-10" d="M441.5,705.35s-37.71-27.59-55.73-17.78-12.32,25.67-7.63,30.15c5.39,5.14,20,5.51,31-1.36S429.34,701,441.5,705.35Z"/><path class="cls-11" d="M441.5,705.35s-37.71-27.59-55.73-17.78-12.32,25.67-7.63,30.15c5.39,5.14,20,5.51,31-1.36S429.34,701,441.5,705.35Z"/><path class="cls-12" d="M379.86,606.36s-42.89,35.91-28.79,58.9c6.26,10.22,23.11,6.46,26.31.2s4.61-17.76.39-24.88S371.38,622.44,379.86,606.36Z"/><path class="cls-13" d="M379.86,606.36s-42.89,35.91-28.79,58.9c6.26,10.22,23.11,6.46,26.31.2s4.61-17.76.39-24.88S371.38,622.44,379.86,606.36Z"/><path class="cls-14" d="M423.91,583.79s-38.61,24.72-30.66,52.47c3.56,12.42,21.82,8.76,24.87-.51C424.48,616.42,402.49,606.31,423.91,583.79Z"/><path class="cls-15" d="M423.91,583.79s-38.61,24.72-30.66,52.47c3.56,12.42,21.82,8.76,24.87-.51C424.48,616.42,402.49,606.31,423.91,583.79Z"/><path class="cls-16" d="M485,683.49s-50.1,16-62.3,3.78c-11.87-11.95-3.4-27.67,8.22-29.19C453.46,655.13,456,686.37,485,683.49Z"/><path class="cls-17" d="M485,683.49s-50.1,16-62.3,3.78c-11.87-11.95-3.4-27.67,8.22-29.19C453.46,655.13,456,686.37,485,683.49Z"/><path class="cls-18" d="M457.07,549.15s-28.5,28.93-25.23,47.11c4,22.29,26.1,13.86,29.26,4.57,4.48-13.19-7.93-24.78-8.67-31.8S452.48,556,457.07,549.15Z"/><path class="cls-19" d="M457.07,549.15s-28.5,28.93-25.23,47.11c4,22.29,26.1,13.86,29.26,4.57,4.48-13.19-7.93-24.78-8.67-31.8S452.48,556,457.07,549.15Z"/><path class="cls-20" d="M521.91,652.55s-51.54,33-67,7.29c-14.36-23.91,15.46-33.81,25.4-26.66C492.75,642.12,512.48,653.06,521.91,652.55Z"/><path class="cls-21" d="M521.91,652.55s-51.54,33-67,7.29c-14.36-23.91,15.46-33.81,25.4-26.66C492.75,642.12,512.48,653.06,521.91,652.55Z"/><path class="cls-22" d="M492.72,516.18s2.6,17-5.67,23.56-18.61,15.4-19.22,23.33,7.46,22.75,21.41,17.09S507.81,553.27,492.72,516.18Z"/><path class="cls-23" d="M492.72,516.18s2.6,17-5.67,23.56-18.61,15.4-19.22,23.33,7.46,22.75,21.41,17.09S507.81,553.27,492.72,516.18Z"/><path class="cls-24" d="M533.18,486.42S534.45,498.85,530,508c-2.48,5.12-24.75,14.43-25.25,31.73s29.29,20,31-8.75S535.73,496.13,533.18,486.42Z"/><path class="cls-25" d="M533.18,486.42S534.45,498.85,530,508c-2.48,5.12-24.75,14.43-25.25,31.73s29.29,20,31-8.75S535.73,496.13,533.18,486.42Z"/><path class="cls-26" d="M571.42,616.68s-63.2,30.36-76.21,11.81,5.18-26.37,9.33-27.7C528.68,593.07,530.51,624.89,571.42,616.68Z"/><path class="cls-27" d="M571.42,616.68s-63.2,30.36-76.21,11.81,5.18-26.37,9.33-27.7C528.68,593.07,530.51,624.89,571.42,616.68Z"/><path class="cls-28" d="M605,589.07s-57.92,31-72.67,7.64,9.67-31,19.48-25.47C563.81,578.06,574.11,595.54,605,589.07Z"/><path class="cls-29" d="M605,589.07s-57.92,31-72.67,7.64,9.67-31,19.48-25.47C563.81,578.06,574.11,595.54,605,589.07Z"/><path class="cls-30" d="M582,466.33s2,15.08-14.23,26.51c-13.35,9.41-29.53,24.71-15.54,34.71C564.35,536.19,588.08,513.91,582,466.33Z"/><path class="cls-31" d="M582,466.33s2,15.08-14.23,26.51c-13.35,9.41-29.53,24.71-15.54,34.71C564.35,536.19,588.08,513.91,582,466.33Z"/><path class="cls-32" d="M632.42,570.9s-39.85,23.29-62.45,5.44,3.8-37.92,14.88-27.14S602.63,579,632.42,570.9Z"/><path class="cls-33" d="M632.42,570.9s-39.85,23.29-62.45,5.44,3.8-37.92,14.88-27.14S602.63,579,632.42,570.9Z"/><path class="cls-34" d="M669.79,549.58s-46.32,33.43-69.26,5.6c-21-25.54,7.51-33.4,16.17-30.41C631.9,530,639.19,558.51,669.79,549.58Z"/><path class="cls-35" d="M669.79,549.58s-46.32,33.43-69.26,5.6c-21-25.54,7.51-33.4,16.17-30.41C631.9,530,639.19,558.51,669.79,549.58Z"/><path class="cls-36" d="M628.07,442.38s-6.43,13.62-14,21c-11,10.7-33.9,22.74-24.24,39.32,9.18,15.77,32.91-1,32.43-14.42C621.69,473.29,624.94,451.85,628.07,442.38Z"/><path class="cls-37" d="M628.07,442.38s-6.43,13.62-14,21c-11,10.7-33.9,22.74-24.24,39.32,9.18,15.77,32.91-1,32.43-14.42C621.69,473.29,624.94,451.85,628.07,442.38Z"/><path class="cls-38" d="M708.59,531.35C691,516.67,645.17,494,630.38,517.68,618.9,536,652.27,547.57,678.9,534.14,689.17,529,702.76,531.38,708.59,531.35Z"/><path class="cls-39" d="M708.59,531.35C691,516.67,645.17,494,630.38,517.68,618.9,536,652.27,547.57,678.9,534.14,689.17,529,702.76,531.38,708.59,531.35Z"/><path class="cls-40" d="M679.86,441.1s-5.32,12.38-16.63,16.6-37.41,11.7-29.6,31.86C641.9,510.88,684.79,485.73,679.86,441.1Z"/><path class="cls-41" d="M679.86,441.1s-5.32,12.38-16.63,16.6-37.41,11.7-29.6,31.86C641.9,510.88,684.79,485.73,679.86,441.1Z"/><path class="cls-42" d="M736.81,482.07s-12.65,9.32-25.63.8-28.75-10.47-39.11,3.84S690.92,530.24,736.81,482.07Z"/><path class="cls-43" d="M736.81,482.07s-12.65,9.32-25.63.8-28.75-10.47-39.11,3.84S690.92,530.24,736.81,482.07Z"/><path class="cls-44" d="M162.45,716.71s143.46,2.7,219-48.23c91.11-61.42,182.06-159.16,253.7-163.26,0,0-48.43,5.8-147.9,100.08C441.8,648.4,340.46,744.62,162.45,716.71Z"/><path class="cls-45" d="M162.45,716.71s143.46,2.7,219-48.23c91.11-61.42,182.06-159.16,253.7-163.26,0,0-48.43,5.8-147.9,100.08C441.8,648.4,340.46,744.62,162.45,716.71Z"/></svg>