<svg xmlns="http://www.w3.org/2000/svg" xmlns:xlink="http://www.w3.org/1999/xlink" viewBox="0 0 1080.08 987.46"><defs><style>.cls-1,.cls-10,.cls-101,.cls-103,.cls-106,.cls-108,.cls-11,.cls-111,.cls-113,.cls-116,.cls-118,.cls-12,.cls-121,.cls-122,.cls-124,.cls-125,.cls-127,.cls-13,.cls-130,.cls-132,.cls-135,.cls-137,.cls-14,.cls-140,.cls-142,.cls-145,.cls-147,.cls-15,.cls-150,.cls-152,.cls-154,.cls-16,.cls-17,.cls-18,.cls-19,.cls-20,.cls-21,.cls-22,.cls-24,.cls-25,.cls-26,.cls-27,.cls-29,.cls-30,.cls-31,.cls-32,.cls-33,.cls-4,.cls-42,.cls-43,.cls-44,.cls-45,.cls-46,.cls-47,.cls-48,.cls-49,.cls-5,.cls-50,.cls-51,.cls-53,.cls-54,.cls-55,.cls-56,.cls-57,.cls-58,.cls-59,.cls-6,.cls-60,.cls-61,.cls-62,.cls-63,.cls-64,.cls-65,.cls-66,.cls-67,.cls-68,.cls-69,.cls-7,.cls-70,.cls-71,.cls-72,.cls-73,.cls-74,.cls-75,.cls-76,.cls-77,.cls-78,.cls-79,.cls-8,.cls-80,.cls-83,.cls-87,.cls-89,.cls-9,.cls-91,.cls-93,.cls-96,.cls-98{isolation:isolate;}.cls-2{fill:url(#linear-gradient);}.cls-28,.cls-3,.cls-5,.cls-74,.cls-90,.cls-91{opacity:0.5;}.cls-3{fill:url(#linear-gradient-2);}.cls-4,.cls-83{opacity:0.6;}.cls-4{fill:url(#linear-gradient-3);}.cls-11,.cls-6,.cls-9{opacity:0.1;}.cls-6{fill:url(#linear-gradient-4);}.cls-10,.cls-21,.cls-22,.cls-24,.cls-25,.cls-26,.cls-27,.cls-29,.cls-30,.cls-31,.cls-7{opacity:0.4;}.cls-7{fill:url(#linear-gradient-5);}.cls-23,.cls-75,.cls-8{opacity:0.2;}.cls-9{fill:url(#linear-gradient-8);}.cls-10,.cls-11{fill:url(#linear-gradient-9);}.cls-12,.cls-13,.cls-14,.cls-15,.cls-17,.cls-18,.cls-19,.cls-20{opacity:0.6;}.cls-12{fill:url(#linear-gradient-14);}.cls-13{fill:url(#linear-gradient-15);}.cls-14{fill:url(#linear-gradient-16);}.cls-15{fill:url(#linear-gradient-17);}.cls-16,.cls-43,.cls-44,.cls-45,.cls-46,.cls-47,.cls-48,.cls-49,.cls-50,.cls-51,.cls-76,.cls-77,.cls-78,.cls-79,.cls-80{opacity:0.3;}.cls-17{fill:url(#linear-gradient-18);}.cls-18{fill:url(#linear-gradient-19);}.cls-19{fill:url(#linear-gradient-20);}.cls-20{fill:url(#linear-gradient-21);}.cls-21,.cls-22,.cls-24,.cls-25{mix-blend-mode:screen;}.cls-21{fill:url(#linear-gradient-22);}.cls-22{fill:url(#linear-gradient-23);}.cls-23{mix-blend-mode:overlay;}.cls-24{fill:url(#linear-gradient-24);}.cls-25{fill:url(#linear-gradient-25);}.cls-26{fill:url(#linear-gradient-26);}.cls-27{fill:url(#linear-gradient-27);}.cls-29{fill:url(#linear-gradient-28);}.cls-30{fill:url(#linear-gradient-29);}.cls-31{fill:url(#linear-gradient-30);}.cls-32{fill:url(#linear-gradient-31);}.cls-33{opacity:0.9;}.cls-34{fill:url(#linear-gradient-36);}.cls-35{fill:url(#linear-gradient-37);}.cls-36{fill:url(#linear-gradient-38);}.cls-37{fill:url(#linear-gradient-39);}.cls-38{fill:url(#linear-gradient-40);}.cls-39{fill:url(#linear-gradient-41);}.cls-40{fill:url(#linear-gradient-42);}.cls-41{fill:url(#linear-gradient-43);}.cls-42{fill:url(#linear-gradient-44);}.cls-43{fill:url(#linear-gradient-45);}.cls-44{fill:url(#linear-gradient-46);}.cls-45{fill:url(#linear-gradient-47);}.cls-46{fill:url(#linear-gradient-48);}.cls-47{fill:url(#linear-gradient-49);}.cls-48{fill:url(#linear-gradient-50);}.cls-49{fill:url(#linear-gradient-51);}.cls-50{fill:url(#linear-gradient-52);}.cls-51{fill:url(#linear-gradient-53);}.cls-52{fill:url(#linear-gradient-54);}.cls-101,.cls-103,.cls-106,.cls-108,.cls-111,.cls-113,.cls-116,.cls-118,.cls-121,.cls-122,.cls-124,.cls-125,.cls-127,.cls-130,.cls-132,.cls-135,.cls-137,.cls-140,.cls-142,.cls-145,.cls-147,.cls-150,.cls-152,.cls-154,.cls-53,.cls-54,.cls-55,.cls-56,.cls-57,.cls-58,.cls-59,.cls-60,.cls-61,.cls-62,.cls-63,.cls-64,.cls-65,.cls-66,.cls-67,.cls-68,.cls-69,.cls-70,.cls-71,.cls-72,.cls-73,.cls-87,.cls-89,.cls-93,.cls-96,.cls-98{opacity:0.2;}.cls-53{fill:url(#linear-gradient-55);}.cls-54{fill:url(#linear-gradient-56);}.cls-55{fill:url(#linear-gradient-57);}.cls-56{fill:url(#linear-gradient-58);}.cls-57{fill:url(#linear-gradient-59);}.cls-58{fill:url(#linear-gradient-60);}.cls-59{fill:url(#linear-gradient-61);}.cls-60{fill:url(#linear-gradient-62);}.cls-61{fill:url(#linear-gradient-63);}.cls-62{fill:url(#linear-gradient-64);}.cls-63{fill:url(#linear-gradient-65);}.cls-64{fill:url(#linear-gradient-66);}.cls-65{fill:url(#linear-gradient-67);}.cls-66{fill:url(#linear-gradient-68);}.cls-67{fill:url(#linear-gradient-69);}.cls-68{fill:url(#linear-gradient-70);}.cls-69{fill:url(#linear-gradient-71);}.cls-70{fill:url(#linear-gradient-72);}.cls-71{fill:url(#linear-gradient-73);}.cls-72{fill:url(#linear-gradient-74);}.cls-73{fill:url(#linear-gradient-75);}.cls-74{fill:url(#linear-gradient-158);}.cls-75{fill:url(#linear-gradient-159);}.cls-76{fill:url(#linear-gradient-160);}.cls-77{fill:url(#linear-gradient-161);}.cls-78{fill:url(#linear-gradient-162);}.cls-79{fill:url(#linear-gradient-163);}.cls-80{fill:url(#linear-gradient-164);}.cls-81{fill:url(#linear-gradient-165);}.cls-82{fill:url(#linear-gradient-166);}.cls-83{fill:url(#linear-gradient-167);}.cls-84{fill:url(#linear-gradient-168);}.cls-85{fill:url(#linear-gradient-169);}.cls-86{fill:url(#linear-gradient-170);}.cls-87{fill:url(#linear-gradient-171);}.cls-88{fill:url(#linear-gradient-172);}.cls-89{fill:url(#linear-gradient-173);}.cls-90{fill:url(#linear-gradient-174);}.cls-91{fill:url(#linear-gradient-175);}.cls-92{fill:url(#linear-gradient-176);}.cls-93{fill:url(#linear-gradient-177);}.cls-94{fill:url(#linear-gradient-178);}.cls-95{fill:url(#linear-gradient-179);}.cls-96{fill:url(#linear-gradient-180);}.cls-97{fill:url(#linear-gradient-181);}.cls-98{fill:url(#linear-gradient-182);}.cls-99{fill:url(#linear-gradient-183);}.cls-100{fill:url(#linear-gradient-184);}.cls-101{fill:url(#linear-gradient-185);}.cls-102{fill:url(#linear-gradient-186);}.cls-103{fill:url(#linear-gradient-187);}.cls-104{fill:url(#linear-gradient-188);}.cls-105{fill:url(#linear-gradient-189);}.cls-106{fill:url(#linear-gradient-190);}.cls-107{fill:url(#linear-gradient-191);}.cls-108{fill:url(#linear-gradient-192);}.cls-109{fill:url(#linear-gradient-193);}.cls-110{fill:url(#linear-gradient-194);}.cls-111{fill:url(#linear-gradient-195);}.cls-112{fill:url(#linear-gradient-196);}.cls-113{fill:url(#linear-gradient-197);}.cls-114{fill:url(#linear-gradient-198);}.cls-115{fill:url(#linear-gradient-199);}.cls-116{fill:url(#linear-gradient-200);}.cls-117{fill:url(#linear-gradient-201);}.cls-118{fill:url(#linear-gradient-202);}.cls-119{fill:url(#linear-gradient-203);}.cls-120{fill:url(#linear-gradient-204);}.cls-121{fill:url(#linear-gradient-205);}.cls-122{fill:url(#linear-gradient-206);}.cls-123{fill:url(#linear-gradient-207);}.cls-124{fill:url(#linear-gradient-208);}.cls-125{fill:url(#linear-gradient-209);}.cls-126{fill:url(#linear-gradient-210);}.cls-127{fill:url(#linear-gradient-211);}.cls-128{fill:url(#linear-gradient-212);}.cls-129{fill:url(#linear-gradient-213);}.cls-130{fill:url(#linear-gradient-214);}.cls-131{fill:url(#linear-gradient-215);}.cls-132{fill:url(#linear-gradient-216);}.cls-133{fill:url(#linear-gradient-217);}.cls-134{fill:url(#linear-gradient-218);}.cls-135{fill:url(#linear-gradient-219);}.cls-136{fill:url(#linear-gradient-220);}.cls-137{fill:url(#linear-gradient-221);}.cls-138{fill:url(#linear-gradient-222);}.cls-139{fill:url(#linear-gradient-223);}.cls-140{fill:url(#linear-gradient-224);}.cls-141{fill:url(#linear-gradient-225);}.cls-142{fill:url(#linear-gradient-226);}.cls-143{fill:url(#linear-gradient-227);}.cls-144{fill:url(#linear-gradient-228);}.cls-145{fill:url(#linear-gradient-229);}.cls-146{fill:url(#linear-gradient-230);}.cls-147{fill:url(#linear-gradient-231);}.cls-148{fill:url(#linear-gradient-232);}.cls-149{fill:url(#linear-gradient-233);}.cls-150{fill:url(#linear-gradient-234);}.cls-151{fill:url(#linear-gradient-235);}.cls-152{fill:url(#linear-gradient-236);}.cls-153{fill:url(#linear-gradient-237);}.cls-154{fill:url(#linear-gradient-238);}</style><linearGradient id="linear-gradient" x1="-70.36" y1="726.61" x2="1146.4" y2="722.19" gradientUnits="userSpaceOnUse"><stop offset="0" stop-color="#d45127"/><stop offset="1" stop-color="#2182c5" stop-opacity="0"/></linearGradient><linearGradient id="linear-gradient-2" x1="-70.36" y1="726.61" x2="1146.4" y2="722.19" gradientUnits="userSpaceOnUse"><stop offset="0" stop-color="#2182c5" stop-opacity="0"/><stop offset="1" stop-color="#d45127"/></linearGradient><linearGradient id="linear-gradient-3" x1="20.04" y1="616" x2="1057.5" y2="612.23" xlink:href="#linear-gradient"/><linearGradient id="linear-gradient-4" x1="713.04" y1="340.55" x2="713.75" y2="340.55" gradientUnits="userSpaceOnUse"><stop offset="0" stop-color="#2383c5" stop-opacity="0.5"/><stop offset="1" stop-color="#d45127"/></linearGradient><linearGradient id="linear-gradient-5" x1="716.89" y1="332.47" x2="840.38" y2="332.47" xlink:href="#linear-gradient-4"/><linearGradient id="linear-gradient-8" x1="713.04" y1="340.55" x2="713.75" y2="340.55" gradientUnits="userSpaceOnUse"><stop offset="0" stop-color="#d45127"/><stop offset="1" stop-color="#2383c5" stop-opacity="0.5"/></linearGradient><linearGradient id="linear-gradient-9" x1="716.89" y1="332.47" x2="840.38" y2="332.47" xlink:href="#linear-gradient-8"/><linearGradient id="linear-gradient-14" x1="810.67" y1="458.48" x2="810.98" y2="458.48" gradientUnits="userSpaceOnUse"><stop offset="0" stop-color="#d45127"/><stop offset="1" stop-color="#2383c5" stop-opacity="0"/></linearGradient><linearGradient id="linear-gradient-15" x1="812.9" y1="457.68" x2="813.38" y2="457.68" xlink:href="#linear-gradient-14"/><linearGradient id="linear-gradient-16" x1="830.86" y1="445.75" x2="831.83" y2="445.75" xlink:href="#linear-gradient-14"/><linearGradient id="linear-gradient-17" x1="815.83" y1="281.66" x2="991.39" y2="281.66" gradientUnits="userSpaceOnUse"><stop offset="0" stop-color="#2383c5" stop-opacity="0"/><stop offset="1" stop-color="#d45127"/></linearGradient><linearGradient id="linear-gradient-18" x1="810.67" y1="458.48" x2="810.98" y2="458.48" xlink:href="#linear-gradient-8"/><linearGradient id="linear-gradient-19" x1="812.9" y1="457.68" x2="813.38" y2="457.68" xlink:href="#linear-gradient-8"/><linearGradient id="linear-gradient-20" x1="830.86" y1="445.75" x2="831.83" y2="445.75" xlink:href="#linear-gradient-8"/><linearGradient id="linear-gradient-21" x1="815.83" y1="281.66" x2="991.39" y2="281.66" xlink:href="#linear-gradient-8"/><linearGradient id="linear-gradient-22" x1="712.6" y1="339.97" x2="714.68" y2="341.49" xlink:href="#linear-gradient-17"/><linearGradient id="linear-gradient-23" x1="726.13" y1="244.38" x2="765.45" y2="273.25" xlink:href="#linear-gradient-17"/><linearGradient id="linear-gradient-24" x1="663.72" y1="310.11" x2="681.19" y2="320.82" xlink:href="#linear-gradient-17"/><linearGradient id="linear-gradient-25" x1="708.92" y1="236.37" x2="726.39" y2="247.08" xlink:href="#linear-gradient-17"/><linearGradient id="linear-gradient-26" x1="338.59" y1="405.96" x2="320.12" y2="401.78" xlink:href="#linear-gradient-4"/><linearGradient id="linear-gradient-27" x1="406.97" y1="304.04" x2="91.92" y2="232.62" xlink:href="#linear-gradient-4"/><linearGradient id="linear-gradient-28" x1="338.59" y1="405.96" x2="320.12" y2="401.78" xlink:href="#linear-gradient-8"/><linearGradient id="linear-gradient-29" x1="406.97" y1="304.04" x2="91.92" y2="232.62" xlink:href="#linear-gradient-8"/><linearGradient id="linear-gradient-30" x1="4089.33" y1="-155.13" x2="4307.86" y2="-155.13" gradientTransform="matrix(-0.99, 0.1, 0.1, 0.99, 4385.8, -14.9)" xlink:href="#linear-gradient-17"/><linearGradient id="linear-gradient-31" x1="596.16" y1="-90.07" x2="470.59" y2="548.25" xlink:href="#linear-gradient"/><linearGradient id="linear-gradient-36" x1="599.2" y1="119.82" x2="598.5" y2="116.02" gradientUnits="userSpaceOnUse"><stop offset="0" stop-color="#d45127"/><stop offset="0.11" stop-color="#c75533" stop-opacity="0.93"/><stop offset="0.33" stop-color="#a45e52" stop-opacity="0.73"/><stop offset="0.64" stop-color="#6b6e84" stop-opacity="0.41"/><stop offset="1" stop-color="#2182c5" stop-opacity="0"/></linearGradient><linearGradient id="linear-gradient-37" x1="484.7" y1="75.86" x2="484.7" y2="75.86" xlink:href="#linear-gradient-36"/><linearGradient id="linear-gradient-38" x1="484.69" y1="75.86" x2="484.69" y2="75.86" xlink:href="#linear-gradient-36"/><linearGradient id="linear-gradient-39" x1="642.72" y1="976.79" x2="377.33" y2="-454.12" xlink:href="#linear-gradient-36"/><linearGradient id="linear-gradient-40" x1="255.4" y1="234.98" x2="255.37" y2="234.82" xlink:href="#linear-gradient-36"/><linearGradient id="linear-gradient-41" x1="351.8" y1="400.1" x2="355.48" y2="405.93" xlink:href="#linear-gradient-2"/><linearGradient id="linear-gradient-42" x1="417.25" y1="169.46" x2="419.31" y2="172.71" xlink:href="#linear-gradient-2"/><linearGradient id="linear-gradient-43" x1="598.47" y1="117.38" x2="599.24" y2="118.59" xlink:href="#linear-gradient-2"/><linearGradient id="linear-gradient-44" x1="631.93" y1="-107.89" x2="479.45" y2="667.24" xlink:href="#linear-gradient"/><linearGradient id="linear-gradient-45" x1="572.81" y1="342.6" x2="572.81" y2="342.76" xlink:href="#linear-gradient-2"/><linearGradient id="linear-gradient-46" x1="573.14" y1="342.86" x2="573.15" y2="343.01" xlink:href="#linear-gradient-2"/><linearGradient id="linear-gradient-47" x1="573.51" y1="343.13" x2="573.51" y2="343.27" xlink:href="#linear-gradient-2"/><linearGradient id="linear-gradient-48" x1="572.5" y1="342.35" x2="572.5" y2="342.55" xlink:href="#linear-gradient-2"/><linearGradient id="linear-gradient-49" x1="573.89" y1="343.42" x2="573.9" y2="343.53" xlink:href="#linear-gradient-2"/><linearGradient id="linear-gradient-50" x1="572.18" y1="342.07" x2="572.19" y2="342.38" xlink:href="#linear-gradient-2"/><linearGradient id="linear-gradient-51" x1="571.94" y1="341.86" x2="571.95" y2="342.23" xlink:href="#linear-gradient-2"/><linearGradient id="linear-gradient-52" x1="574.74" y1="344.04" x2="574.74" y2="344.08" xlink:href="#linear-gradient-2"/><linearGradient id="linear-gradient-53" x1="574.3" y1="343.73" x2="574.31" y2="343.8" xlink:href="#linear-gradient-2"/><linearGradient id="linear-gradient-54" x1="772.01" y1="-66.46" x2="642.5" y2="591.88" xlink:href="#linear-gradient-2"/><linearGradient id="linear-gradient-55" x1="611.35" y1="80.34" x2="611.33" y2="81.53" xlink:href="#linear-gradient-2"/><linearGradient id="linear-gradient-56" x1="612.22" y1="81.74" x2="612.21" y2="82.8" xlink:href="#linear-gradient-2"/><linearGradient id="linear-gradient-57" x1="623" y1="94.29" x2="622.99" y2="94.66" xlink:href="#linear-gradient-2"/><linearGradient id="linear-gradient-58" x1="621.7" y1="93.26" x2="621.7" y2="93.36" xlink:href="#linear-gradient-2"/><linearGradient id="linear-gradient-59" x1="613.07" y1="83.13" x2="613.06" y2="84.06" xlink:href="#linear-gradient-2"/><linearGradient id="linear-gradient-60" x1="620.51" y1="92.1" x2="620.51" y2="92.33" xlink:href="#linear-gradient-2"/><linearGradient id="linear-gradient-61" x1="610.43" y1="78.91" x2="610.42" y2="80.25" xlink:href="#linear-gradient-2"/><linearGradient id="linear-gradient-62" x1="605.16" y1="65.18" x2="604.99" y2="79.04" xlink:href="#linear-gradient-2"/><linearGradient id="linear-gradient-63" x1="614.67" y1="85.93" x2="614.67" y2="86.5" xlink:href="#linear-gradient-2"/><linearGradient id="linear-gradient-64" x1="613.88" y1="84.51" x2="613.87" y2="85.3" xlink:href="#linear-gradient-2"/><linearGradient id="linear-gradient-65" x1="625" y1="95.88" x2="624.99" y2="96.65" xlink:href="#linear-gradient-2"/><linearGradient id="linear-gradient-66" x1="626.55" y1="97.36" x2="626.54" y2="98.02" xlink:href="#linear-gradient-2"/><linearGradient id="linear-gradient-67" x1="628.11" y1="98.6" x2="628.1" y2="99.58" xlink:href="#linear-gradient-2"/><linearGradient id="linear-gradient-68" x1="630.13" y1="100.31" x2="630.12" y2="101.51" xlink:href="#linear-gradient-2"/><linearGradient id="linear-gradient-69" x1="631.88" y1="102.05" x2="631.87" y2="102.98" xlink:href="#linear-gradient-2"/><linearGradient id="linear-gradient-70" x1="633.78" y1="103.48" x2="633.76" y2="104.92" xlink:href="#linear-gradient-2"/><linearGradient id="linear-gradient-71" x1="618.52" y1="90.23" x2="618.52" y2="90.56" xlink:href="#linear-gradient-2"/><linearGradient id="linear-gradient-72" x1="616.3" y1="88.08" x2="616.3" y2="88.62" xlink:href="#linear-gradient-2"/><linearGradient id="linear-gradient-73" x1="677.54" y1="77.99" x2="675.3" y2="267.66" xlink:href="#linear-gradient-2"/><linearGradient id="linear-gradient-74" x1="617.41" y1="89.09" x2="617.41" y2="89.64" xlink:href="#linear-gradient-2"/><linearGradient id="linear-gradient-75" x1="661.83" y1="111.14" x2="661.53" y2="136.89" xlink:href="#linear-gradient-2"/><linearGradient id="linear-gradient-158" x1="457.41" y1="36.27" x2="626.37" y2="36.27" xlink:href="#linear-gradient-2"/><linearGradient id="linear-gradient-159" x1="457.41" y1="36.27" x2="626.37" y2="36.27" xlink:href="#linear-gradient"/><linearGradient id="linear-gradient-160" x1="561.72" y1="321.4" x2="561.73" y2="321.59" xlink:href="#linear-gradient-2"/><linearGradient id="linear-gradient-161" x1="559.28" y1="302.97" x2="559.28" y2="303.14" xlink:href="#linear-gradient-2"/><linearGradient id="linear-gradient-162" x1="559.46" y1="305.23" x2="559.46" y2="305.42" xlink:href="#linear-gradient-2"/><linearGradient id="linear-gradient-163" x1="561.01" y1="317.75" x2="561.01" y2="317.77" xlink:href="#linear-gradient-2"/><linearGradient id="linear-gradient-164" x1="561.35" y1="319.55" x2="561.36" y2="319.9" xlink:href="#linear-gradient-2"/><linearGradient id="linear-gradient-165" x1="823.78" y1="528.21" x2="717.97" y2="-42.3" xlink:href="#linear-gradient-2"/><linearGradient id="linear-gradient-166" x1="930.9" y1="684.55" x2="732.75" y2="237.07" xlink:href="#linear-gradient-2"/><linearGradient id="linear-gradient-167" x1="505.81" y1="430.49" x2="518.21" y2="430.45" xlink:href="#linear-gradient"/><linearGradient id="linear-gradient-168" x1="384.36" y1="307.02" x2="384.02" y2="305.21" xlink:href="#linear-gradient-2"/><linearGradient id="linear-gradient-169" x1="568.93" y1="361.74" x2="568.76" y2="360.81" xlink:href="#linear-gradient-2"/><linearGradient id="linear-gradient-170" x1="-888.71" y1="4123.8" x2="-686.84" y2="4123.8" gradientTransform="matrix(1, -0.03, -0.03, -1, 1750.67, 4528.94)" xlink:href="#linear-gradient"/><linearGradient id="linear-gradient-171" x1="-888.71" y1="4123.8" x2="-686.84" y2="4123.8" gradientTransform="matrix(1, -0.03, -0.03, -1, 1750.67, 4528.94)" xlink:href="#linear-gradient-2"/><linearGradient id="linear-gradient-172" x1="1406.16" y1="3941.07" x2="1568.92" y2="3941.07" gradientTransform="translate(2295.03 4412.26) rotate(-178.9)" xlink:href="#linear-gradient-2"/><linearGradient id="linear-gradient-173" x1="1406.16" y1="3941.07" x2="1568.92" y2="3941.07" gradientTransform="translate(2295.03 4412.26) rotate(-178.9)" xlink:href="#linear-gradient"/><linearGradient id="linear-gradient-174" x1="-67.6" y1="-1165.34" x2="-329.83" y2="-1030.27" gradientTransform="matrix(0.88, -0.48, 0.48, 0.88, 1583.54, 1228.85)" xlink:href="#linear-gradient"/><linearGradient id="linear-gradient-175" x1="-67.6" y1="-1165.34" x2="-329.83" y2="-1030.27" gradientTransform="matrix(0.88, -0.48, 0.48, 0.88, 1583.54, 1228.85)" xlink:href="#linear-gradient-2"/><linearGradient id="linear-gradient-176" x1="-5025" y1="469.5" x2="-4959.86" y2="525.02" gradientTransform="matrix(0.86, 0.51, 0.51, -0.86, 4986.04, 3231.35)" xlink:href="#linear-gradient"/><linearGradient id="linear-gradient-177" x1="-5025" y1="469.5" x2="-4959.86" y2="525.02" gradientTransform="matrix(0.86, 0.51, 0.51, -0.86, 4986.04, 3231.35)" xlink:href="#linear-gradient-2"/><linearGradient id="linear-gradient-178" x1="-5025.06" y1="469.53" x2="-4959.84" y2="524.8" gradientTransform="matrix(0.86, 0.51, 0.51, -0.86, 4986.04, 3231.35)" xlink:href="#linear-gradient"/><linearGradient id="linear-gradient-179" x1="-5014.1" y1="468.45" x2="-4956.56" y2="517.34" gradientTransform="matrix(0.86, 0.51, 0.51, -0.86, 4986.04, 3231.35)" gradientUnits="userSpaceOnUse"><stop offset="0.09" stop-color="#d45127"/><stop offset="1" stop-color="#2182c5" stop-opacity="0"/></linearGradient><linearGradient id="linear-gradient-180" x1="-5013.87" y1="468.32" x2="-4956.57" y2="517.48" gradientTransform="matrix(0.86, 0.51, 0.51, -0.86, 4986.04, 3231.35)" xlink:href="#linear-gradient-2"/><linearGradient id="linear-gradient-181" x1="5451.52" y1="4562.56" x2="5508.55" y2="4562.56" gradientTransform="matrix(-0.97, 0.25, -0.25, -0.97, 7417.45, 3316.33)" gradientUnits="userSpaceOnUse"><stop offset="0.15" stop-color="#d45127"/><stop offset="1" stop-color="#2182c5" stop-opacity="0"/></linearGradient><linearGradient id="linear-gradient-182" x1="5451.52" y1="4562.56" x2="5508.55" y2="4562.56" gradientTransform="matrix(-0.97, 0.25, -0.25, -0.97, 7417.45, 3316.33)" xlink:href="#linear-gradient-2"/><linearGradient id="linear-gradient-183" x1="5451.52" y1="4562.59" x2="5508.55" y2="4562.59" xlink:href="#linear-gradient-181"/><linearGradient id="linear-gradient-184" x1="5466.8" y1="4557.44" x2="5500.14" y2="4557.44" xlink:href="#linear-gradient-181"/><linearGradient id="linear-gradient-185" x1="5466.8" y1="4557.44" x2="5500.14" y2="4557.44" gradientTransform="matrix(-0.97, 0.25, -0.25, -0.97, 7417.45, 3316.33)" xlink:href="#linear-gradient-2"/><linearGradient id="linear-gradient-186" x1="125.48" y1="3331.41" x2="185.67" y2="3381.73" gradientTransform="matrix(-0.86, 0.51, -0.51, -0.86, 2856.53, 3136.85)" xlink:href="#linear-gradient"/><linearGradient id="linear-gradient-187" x1="132.68" y1="3337.38" x2="185.11" y2="3381.33" gradientTransform="matrix(-0.86, 0.51, -0.51, -0.86, 2856.53, 3136.85)" xlink:href="#linear-gradient-2"/><linearGradient id="linear-gradient-188" x1="132.5" y1="3345.7" x2="184.18" y2="3371.99" gradientTransform="matrix(-0.86, 0.51, -0.51, -0.86, 2856.53, 3136.85)" xlink:href="#linear-gradient"/><linearGradient id="linear-gradient-189" x1="134.36" y1="3344.96" x2="169.94" y2="3375.15" gradientTransform="matrix(-0.86, 0.51, -0.51, -0.86, 2856.53, 3136.85)" xlink:href="#linear-gradient"/><linearGradient id="linear-gradient-190" x1="137.26" y1="3347.61" x2="169.18" y2="3374.41" gradientTransform="matrix(-0.86, 0.51, -0.51, -0.86, 2856.53, 3136.85)" xlink:href="#linear-gradient-2"/><linearGradient id="linear-gradient-191" x1="-4585.51" y1="3562.13" x2="-4671.04" y2="3562.13" gradientTransform="matrix(0.93, -0.37, -0.37, -0.93, 6628.18, 1856.63)" xlink:href="#linear-gradient"/><linearGradient id="linear-gradient-192" x1="-4598.81" y1="3580.84" x2="-4668.52" y2="3531.28" gradientTransform="matrix(0.93, -0.37, -0.37, -0.93, 6628.18, 1856.63)" xlink:href="#linear-gradient-2"/><linearGradient id="linear-gradient-193" x1="-4585.51" y1="3560.62" x2="-4671.04" y2="3560.62" gradientTransform="matrix(0.93, -0.37, -0.37, -0.93, 6628.18, 1856.63)" xlink:href="#linear-gradient"/><linearGradient id="linear-gradient-194" x1="3804.67" y1="6349.32" x2="3886.02" y2="6349.84" gradientTransform="matrix(-0.54, 0.84, -0.84, -0.54, 8427.25, 439.22)" xlink:href="#linear-gradient"/><linearGradient id="linear-gradient-195" x1="3804.67" y1="6349.32" x2="3886.02" y2="6349.84" gradientTransform="matrix(-0.54, 0.84, -0.84, -0.54, 8427.25, 439.22)" xlink:href="#linear-gradient-2"/><linearGradient id="linear-gradient-196" x1="-4608.32" y1="3664.49" x2="-4635.31" y2="3645.77" gradientTransform="matrix(0.92, -0.38, -0.38, -0.92, 6690.45, 1907.25)" xlink:href="#linear-gradient"/><linearGradient id="linear-gradient-197" x1="-4643.49" y1="3649.74" x2="-4593.27" y2="3649.74" gradientTransform="matrix(0.92, -0.38, -0.38, -0.92, 6690.45, 1907.25)" xlink:href="#linear-gradient"/><linearGradient id="linear-gradient-198" x1="-4613.84" y1="3665.32" x2="-4633.5" y2="3646.31" gradientTransform="matrix(0.92, -0.38, -0.38, -0.92, 6690.45, 1907.25)" xlink:href="#linear-gradient"/><linearGradient id="linear-gradient-199" x1="-4595.87" y1="3654.46" x2="-4656.8" y2="3654.46" gradientTransform="matrix(0.92, -0.38, -0.38, -0.92, 6690.45, 1907.25)" gradientUnits="userSpaceOnUse"><stop offset="0.12" stop-color="#d45127"/><stop offset="1" stop-color="#2182c5" stop-opacity="0"/></linearGradient><linearGradient id="linear-gradient-200" x1="-4595.87" y1="3654.46" x2="-4656.8" y2="3654.46" gradientTransform="matrix(0.92, -0.38, -0.38, -0.92, 6690.45, 1907.25)" xlink:href="#linear-gradient-2"/><linearGradient id="linear-gradient-201" x1="-1230.84" y1="-781.11" x2="-1316.38" y2="-781.11" gradientTransform="matrix(-0.38, 0.92, 0.92, 0.38, 1207.36, 1809.65)" xlink:href="#linear-gradient"/><linearGradient id="linear-gradient-202" x1="-1244.14" y1="-762.4" x2="-1313.86" y2="-811.96" gradientTransform="matrix(-0.38, 0.92, 0.92, 0.38, 1207.36, 1809.65)" xlink:href="#linear-gradient-2"/><linearGradient id="linear-gradient-203" x1="-1230.84" y1="-782.63" x2="-1316.38" y2="-782.63" gradientTransform="matrix(-0.38, 0.92, 0.92, 0.38, 1207.36, 1809.65)" xlink:href="#linear-gradient"/><linearGradient id="linear-gradient-204" x1="3622.05" y1="864.4" x2="3703.41" y2="864.92" gradientTransform="translate(972.94 4087.98) rotate(-103.32)" xlink:href="#linear-gradient"/><linearGradient id="linear-gradient-205" x1="3622.05" y1="864.4" x2="3703.41" y2="864.92" gradientTransform="translate(972.94 4087.98) rotate(-103.32)" xlink:href="#linear-gradient-2"/><linearGradient id="linear-gradient-206" x1="-322.58" y1="-1079.46" x2="2.66" y2="-1081.38" gradientTransform="matrix(0.88, -0.48, 0.48, 0.88, 1583.54, 1228.85)" gradientUnits="userSpaceOnUse"><stop offset="0.42" stop-color="#d45127"/><stop offset="1" stop-color="#2182c5" stop-opacity="0"/></linearGradient><linearGradient id="linear-gradient-207" x1="-2188.96" y1="4865.54" x2="-2118.46" y2="4865.54" gradientTransform="matrix(0.98, -0.2, -0.2, -0.98, 3321.22, 4719.88)" xlink:href="#linear-gradient"/><linearGradient id="linear-gradient-208" x1="-2196.61" y1="4865.54" x2="-2126.12" y2="4865.54" gradientTransform="matrix(0.98, -0.2, -0.2, -0.98, 3321.22, 4719.88)" xlink:href="#linear-gradient-2"/><linearGradient id="linear-gradient-209" x1="-2197.56" y1="4866.56" x2="-2102.81" y2="4866.01" gradientTransform="matrix(0.98, -0.2, -0.2, -0.98, 3321.22, 4719.88)" xlink:href="#linear-gradient-206"/><linearGradient id="linear-gradient-210" x1="22.41" y1="6005.78" x2="101.59" y2="6073.26" gradientTransform="translate(5381.83 3373.38) rotate(121.75)" xlink:href="#linear-gradient"/><linearGradient id="linear-gradient-211" x1="22.41" y1="6005.78" x2="101.58" y2="6073.26" gradientTransform="translate(5381.83 3373.38) rotate(121.75)" xlink:href="#linear-gradient-2"/><linearGradient id="linear-gradient-212" x1="22.34" y1="6005.82" x2="101.6" y2="6073" gradientTransform="translate(5381.83 3373.38) rotate(121.75)" xlink:href="#linear-gradient"/><linearGradient id="linear-gradient-213" x1="35.66" y1="6004.51" x2="105.59" y2="6063.92" gradientTransform="translate(5381.83 3373.38) rotate(121.75)" xlink:href="#linear-gradient-179"/><linearGradient id="linear-gradient-214" x1="35.94" y1="6004.35" x2="105.58" y2="6064.1" gradientTransform="translate(5381.83 3373.38) rotate(121.75)" xlink:href="#linear-gradient-2"/><linearGradient id="linear-gradient-215" x1="-1941.92" y1="5287.9" x2="-1872.6" y2="5287.9" gradientTransform="matrix(0.95, -0.3, -0.3, -0.95, 3546.6, 4711.28)" xlink:href="#linear-gradient-181"/><linearGradient id="linear-gradient-216" x1="-1941.92" y1="5287.9" x2="-1872.6" y2="5287.9" gradientTransform="matrix(0.95, -0.3, -0.3, -0.95, 3546.6, 4711.28)" xlink:href="#linear-gradient-2"/><linearGradient id="linear-gradient-217" x1="-1941.92" y1="5287.93" x2="-1872.6" y2="5287.93" gradientTransform="matrix(0.95, -0.3, -0.3, -0.95, 3546.6, 4711.28)" xlink:href="#linear-gradient-181"/><linearGradient id="linear-gradient-218" x1="-1923.35" y1="5281.67" x2="-1882.82" y2="5281.67" gradientTransform="matrix(0.95, -0.3, -0.3, -0.95, 3546.6, 4711.28)" xlink:href="#linear-gradient-181"/><linearGradient id="linear-gradient-219" x1="-1923.35" y1="5281.67" x2="-1882.82" y2="5281.67" gradientTransform="matrix(0.95, -0.3, -0.3, -0.95, 3546.6, 4711.28)" xlink:href="#linear-gradient-2"/><linearGradient id="linear-gradient-220" x1="58.97" y1="5956.58" x2="132.14" y2="6017.74" gradientTransform="translate(5381.83 3373.38) rotate(121.75)" xlink:href="#linear-gradient"/><linearGradient id="linear-gradient-221" x1="67.73" y1="5963.83" x2="131.45" y2="6017.26" gradientTransform="translate(5381.83 3373.38) rotate(121.75)" xlink:href="#linear-gradient-2"/><linearGradient id="linear-gradient-222" x1="67.5" y1="5973.95" x2="130.32" y2="6005.9" gradientTransform="translate(5381.83 3373.38) rotate(121.75)" xlink:href="#linear-gradient"/><linearGradient id="linear-gradient-223" x1="69.77" y1="5973.05" x2="113.01" y2="6009.74" gradientTransform="translate(5381.83 3373.38) rotate(121.75)" xlink:href="#linear-gradient"/><linearGradient id="linear-gradient-224" x1="73.29" y1="5976.27" x2="112.09" y2="6008.84" gradientTransform="translate(5381.83 3373.38) rotate(121.75)" xlink:href="#linear-gradient-2"/><linearGradient id="linear-gradient-225" x1="1073.21" y1="6006.86" x2="969.25" y2="6006.86" gradientTransform="matrix(-0.66, 0.75, -0.75, -0.66, 5315.18, 3502.36)" xlink:href="#linear-gradient"/><linearGradient id="linear-gradient-226" x1="1057.05" y1="6029.59" x2="972.31" y2="5969.35" gradientTransform="matrix(-0.66, 0.75, -0.75, -0.66, 5315.18, 3502.36)" xlink:href="#linear-gradient-2"/><linearGradient id="linear-gradient-227" x1="1073.21" y1="6005.01" x2="969.25" y2="6005.01" gradientTransform="matrix(-0.66, 0.75, -0.75, -0.66, 5315.18, 3502.36)" xlink:href="#linear-gradient"/><linearGradient id="linear-gradient-228" x1="-2214.74" y1="5030.12" x2="-2115.86" y2="5030.76" gradientTransform="matrix(0.97, -0.23, -0.23, -0.97, 3377.59, 4723.62)" xlink:href="#linear-gradient"/><linearGradient id="linear-gradient-229" x1="-2214.74" y1="5030.12" x2="-2115.86" y2="5030.76" gradientTransform="matrix(0.97, -0.23, -0.23, -0.97, 3377.59, 4723.62)" xlink:href="#linear-gradient-2"/><linearGradient id="linear-gradient-230" x1="1150.2" y1="5950.41" x2="1117.39" y2="5927.66" gradientTransform="translate(5246.11 3600.66) rotate(133.41)" xlink:href="#linear-gradient"/><linearGradient id="linear-gradient-231" x1="1107.44" y1="5932.49" x2="1168.48" y2="5932.49" gradientTransform="translate(5246.11 3600.66) rotate(133.41)" xlink:href="#linear-gradient"/><linearGradient id="linear-gradient-232" x1="1143.48" y1="5951.42" x2="1119.59" y2="5928.31" gradientTransform="translate(5246.11 3600.66) rotate(133.41)" xlink:href="#linear-gradient"/><linearGradient id="linear-gradient-233" x1="1165.33" y1="5938.22" x2="1091.27" y2="5938.22" gradientTransform="translate(5246.11 3600.66) rotate(133.41)" xlink:href="#linear-gradient-199"/><linearGradient id="linear-gradient-234" x1="1165.33" y1="5938.22" x2="1091.27" y2="5938.22" gradientTransform="translate(5246.11 3600.66) rotate(133.41)" xlink:href="#linear-gradient-2"/><linearGradient id="linear-gradient-235" x1="4238.24" y1="3977.36" x2="4440.11" y2="3977.36" gradientTransform="matrix(-1, -0.03, 0.03, -1, 4474.77, 4528.94)" xlink:href="#linear-gradient"/><linearGradient id="linear-gradient-236" x1="4238.24" y1="3977.36" x2="4440.11" y2="3977.36" gradientTransform="matrix(-1, -0.03, 0.03, -1, 4474.77, 4528.94)" xlink:href="#linear-gradient-2"/><linearGradient id="linear-gradient-237" x1="-3722.2" y1="4024.86" x2="-3559.44" y2="4024.86" gradientTransform="matrix(1, -0.02, -0.02, -1, 3930.41, 4412.26)" xlink:href="#linear-gradient-2"/><linearGradient id="linear-gradient-238" x1="-3722.2" y1="4024.86" x2="-3559.44" y2="4024.86" gradientTransform="matrix(1, -0.02, -0.02, -1, 3930.41, 4412.26)" xlink:href="#linear-gradient"/></defs><g class="cls-1"><g id="Layer_2" data-name="Layer 2"><g id="Layer_1-2" data-name="Layer 1"><path class="cls-2" d="M991.45,459.72c-7.17,4.2-56.16,8.33-107,3.23-15.16-1.53-29.63-1.14-43.45-.79-.05.15-.09.3-.14.42l-3-.35-2,0L836,462c-6.23-.71-14.13-1.53-23.37-2.31a85.36,85.36,0,0,1-10.77,2.16,3.25,3.25,0,0,0,.45-.06c-6.86,1.76-13.71,3.56-20.94,3.12h0c-12,4.95-24.54,2.28-36.87,2.6l-.15.14-71,.07,0,.16c-20.08,5.73-40.74,1.44-61.06,2.81a30.38,30.38,0,0,1-11.66-3.44,27.28,27.28,0,0,0,4,3.29l-68.45,0c-49.15-.19-98.31.44-147.45.14l.45,3.39c-73.89,4.33-182.76,13.15-239.71,18.56l-1.59.15-.57.06L146,493l-.68.07c-.46.05-.92.1-1.37.13l-.44.05-1.31.13-.62.05-1.19.13-.58,0-5.09.51-.32,0-1.22.12-.59.07-.91.1-.61.05-.94.1-.53.06c-.28,0-.57.05-.85.09l-.59.06-.93.1-.38,0-1.09.12-.23,0-2.5.28-.25,0-.9.1-.34,0-.73.08-.41.05-.61.07-.42.05-.57.08-.37,0-.58.07-.32,0-.55.08-.3,0-.65.08h-.11l-.73.11h-.13l-.52.08-.2,0-.38.06-.21,0-.32.05-.19,0-.28,0-.17,0-.22,0-.15,0-.2.05-.11,0-.16.05-.08,0-.18.05a7.58,7.58,0,0,1-.9-.77,6.57,6.57,0,0,1-1.21-1.7c-.94-1.93-.79-4.11-.68-6.27a25.54,25.54,0,0,0,0-2.62c-8.51,3.3-101,40.59-108.48,110.21-7.68,71.64,80.14,126.54,120.78,152,79.88,49.94,134.07,46.19,220.19,68.59C546.16,869.59,541,969.05,680.32,985.39c197,23.1,395.11-153.7,378.87-220.86-5.87-24.25-39.09-31.75-39.92-63.54-.92-34.79,38.4-41.9,54.54-89.61,12.53-37,7-86.43-23-119C1030.13,470,1004.27,462.48,991.45,459.72Z"/><path class="cls-3" d="M991.45,459.72c-7.17,4.2-56.16,8.33-107,3.23-15.16-1.53-29.63-1.14-43.45-.79-.05.15-.09.3-.14.42l-3-.35-2,0L836,462c-6.23-.71-14.13-1.53-23.37-2.31a85.36,85.36,0,0,1-10.77,2.16,3.25,3.25,0,0,0,.45-.06c-6.86,1.76-13.71,3.56-20.94,3.12h0c-12,4.95-24.54,2.28-36.87,2.6l-.15.14-71,.07,0,.16c-20.08,5.73-40.74,1.44-61.06,2.81a30.38,30.38,0,0,1-11.66-3.44,27.28,27.28,0,0,0,4,3.29l-68.45,0c-49.15-.19-98.31.44-147.45.14l.45,3.39c-73.89,4.33-182.76,13.15-239.71,18.56l-1.59.15-.57.06L146,493l-.68.07c-.46.05-.92.1-1.37.13l-.44.05-1.31.13-.62.05-1.19.13-.58,0-5.09.51-.32,0-1.22.12-.59.07-.91.1-.61.05-.94.1-.53.06c-.28,0-.57.05-.85.09l-.59.06-.93.1-.38,0-1.09.12-.23,0-2.5.28-.25,0-.9.1-.34,0-.73.08-.41.05-.61.07-.42.05-.57.08-.37,0-.58.07-.32,0-.55.08-.3,0-.65.08h-.11l-.73.11h-.13l-.52.08-.2,0-.38.06-.21,0-.32.05-.19,0-.28,0-.17,0-.22,0-.15,0-.2.05-.11,0-.16.05-.08,0-.18.05a7.58,7.58,0,0,1-.9-.77,6.57,6.57,0,0,1-1.21-1.7c-.94-1.93-.79-4.11-.68-6.27a25.54,25.54,0,0,0,0-2.62c-8.51,3.3-101,40.59-108.48,110.21-7.68,71.64,80.14,126.54,120.78,152,79.88,49.94,134.07,46.19,220.19,68.59C546.16,869.59,541,969.05,680.32,985.39c197,23.1,395.11-153.7,378.87-220.86-5.87-24.25-39.09-31.75-39.92-63.54-.92-34.79,38.4-41.9,54.54-89.61,12.53-37,7-86.43-23-119C1030.13,470,1004.27,462.48,991.45,459.72Z"/><path class="cls-4" d="M1045.43,482.06c-15.86-7.24-33.77-14.68-54-22.34-7.17,4.2-56.16,8.33-107,3.23-15.16-1.53-29.63-1.14-43.46-.79a3.49,3.49,0,0,1-.13.42l-3-.35-2,0L836,462c-6.23-.71-14.13-1.53-23.37-2.31a85.36,85.36,0,0,1-10.77,2.16,3.25,3.25,0,0,0,.45-.06c-6.86,1.76-13.71,3.56-20.94,3.12h0c-12,4.95-24.54,2.28-36.87,2.6l-.15.14-71,.07,0,.16c-20.08,5.73-40.74,1.44-61.06,2.81a30.38,30.38,0,0,1-11.66-3.44,27.28,27.28,0,0,0,4,3.29l-68.45,0c-49.15-.19-98.31.44-147.45.14l.45,3.39c-73.89,4.33-182.76,13.15-239.71,18.56l-1.59.15-.57.06L146,493l-.68.07c-.46.05-.92.1-1.37.13l-.44.05-1.31.13-.62.05-1.19.13-.58,0-5.09.51-.32,0-1.22.12-.59.07-.91.1-.61.05-.94.1-.53.06c-.28,0-.57.05-.85.09l-.59.06-.93.1-.38,0-1.09.12-.23,0-2.5.28-.25,0-.9.1-.34,0-.73.08-.41.05-.61.07-.42.05-.57.08-.37,0-.58.07-.32,0-.55.08-.3,0-.65.08h-.11l-.73.11h-.13l-.52.08-.2,0-.38.06-.21,0-.32.05-.19,0-.28,0-.17,0-.22,0-.15,0-.2.05-.11,0-.16.05-.08,0-.18.05a7.58,7.58,0,0,1-.9-.77,6.57,6.57,0,0,1-1.21-1.7c-.94-1.93-.79-4.11-.68-6.27a25.54,25.54,0,0,0,0-2.62c-33.38,18.26-60.7,37-82.87,55.72-7.12,17.37-10.94,40,4.54,58C92.72,662.54,452.49,702.57,508.71,734c169.52,94.73,223.82-37.3,294.4-92.6C902.7,563.38,1108.26,591,1045.43,482.06Z"/><g class="cls-5"><path class="cls-6" d="M713.75,338.07a33.65,33.65,0,0,1-.71,5A33.65,33.65,0,0,0,713.75,338.07Z"/><path class="cls-7" d="M830.88,297.57c-5.8-27.1-7-55.11-16.58-81.5-4.72-13.09-11-19-23.68-8.41-9.75,8.12-16.9,22.87-33.6,13.26a20.3,20.3,0,0,0-11.44-.88,21.91,21.91,0,0,0-8.63,4.72c-2.91,2.6-11,18.32-20.06,40.49.29.57.58,1.14.86,1.72,9.32,14.35,12.22,20.55,35.78,57.8.34.53.68,1.08,1,1.62l0-.09a315.28,315.28,0,0,0,20.62,24C794.7,371,814,394.07,826.71,421.12c12.07,10.38,15.25,18.05,9.19,25.27-12.49-16.75-23.13-31.71-31.8-44.23,8.95,12.92,20,28.44,33,45.85a85.63,85.63,0,0,1-16.35,8.7,82.21,82.21,0,0,1-9.5,3.14c11.84,1,21.51,2.07,28.26,2.88C843.88,451.68,830.38,314.78,830.88,297.57Z"/><path class="cls-7" d="M830.88,297.57c-5.8-27.1-7-55.11-16.58-81.5-4.72-13.09-11-19-23.68-8.41-9.75,8.12-16.9,22.87-33.6,13.26a20.3,20.3,0,0,0-11.44-.88,21.91,21.91,0,0,0-8.63,4.72c-2.91,2.6-11,18.32-20.06,40.49.29.57.58,1.14.86,1.72,9.32,14.35,12.22,20.55,35.78,57.8.34.53.68,1.08,1,1.62l0-.09a315.28,315.28,0,0,0,20.62,24C794.7,371,814,394.07,826.71,421.12c12.07,10.38,15.25,18.05,9.19,25.27-12.49-16.75-23.13-31.71-31.8-44.23,8.95,12.92,20,28.44,33,45.85a85.63,85.63,0,0,1-16.35,8.7,82.21,82.21,0,0,1-9.5,3.14c11.84,1,21.51,2.07,28.26,2.88C843.88,451.68,830.38,314.78,830.88,297.57Z"/><path class="cls-7" d="M830.88,297.57c-5.8-27.1-7-55.11-16.58-81.5-4.72-13.09-11-19-23.68-8.41-9.75,8.12-16.9,22.87-33.6,13.26a20.3,20.3,0,0,0-11.44-.88,21.91,21.91,0,0,0-8.63,4.72c-2.91,2.6-11,18.32-20.06,40.49.29.57.58,1.14.86,1.72,9.32,14.35,12.22,20.55,35.78,57.8.34.53.68,1.08,1,1.62l0-.09a315.28,315.28,0,0,0,20.62,24C794.7,371,814,394.07,826.71,421.12c12.07,10.38,15.25,18.05,9.19,25.27-12.49-16.75-23.13-31.71-31.8-44.23,8.95,12.92,20,28.44,33,45.85a85.63,85.63,0,0,1-16.35,8.7,82.21,82.21,0,0,1-9.5,3.14c11.84,1,21.51,2.07,28.26,2.88C843.88,451.68,830.38,314.78,830.88,297.57Z"/></g><g class="cls-8"><path class="cls-9" d="M713.75,338.07a33.65,33.65,0,0,1-.71,5A33.65,33.65,0,0,0,713.75,338.07Z"/><path class="cls-10" d="M830.88,297.57c-5.8-27.1-7-55.11-16.58-81.5-4.72-13.09-11-19-23.68-8.41-9.75,8.12-16.9,22.87-33.6,13.26a20.3,20.3,0,0,0-11.44-.88,21.91,21.91,0,0,0-8.63,4.72c-2.91,2.6-11,18.32-20.06,40.49.29.57.58,1.14.86,1.72,9.32,14.35,12.22,20.55,35.78,57.8.34.53.68,1.08,1,1.62l0-.09a315.28,315.28,0,0,0,20.62,24C794.7,371,814,394.07,826.71,421.12c12.07,10.38,15.25,18.05,9.19,25.27-12.49-16.75-23.13-31.71-31.8-44.23,8.95,12.92,20,28.44,33,45.85a85.63,85.63,0,0,1-16.35,8.7,82.21,82.21,0,0,1-9.5,3.14c11.84,1,21.51,2.07,28.26,2.88C843.88,451.68,830.38,314.78,830.88,297.57Z"/><path class="cls-10" d="M830.88,297.57c-5.8-27.1-7-55.11-16.58-81.5-4.72-13.09-11-19-23.68-8.41-9.75,8.12-16.9,22.87-33.6,13.26a20.3,20.3,0,0,0-11.44-.88,21.91,21.91,0,0,0-8.63,4.72c-2.91,2.6-11,18.32-20.06,40.49.29.57.58,1.14.86,1.72,9.32,14.35,12.22,20.55,35.78,57.8.34.53.68,1.08,1,1.62l0-.09a315.28,315.28,0,0,0,20.62,24C794.7,371,814,394.07,826.71,421.12c12.07,10.38,15.25,18.05,9.19,25.27-12.49-16.75-23.13-31.71-31.8-44.23,8.95,12.92,20,28.44,33,45.85a85.63,85.63,0,0,1-16.35,8.7,82.21,82.21,0,0,1-9.5,3.14c11.84,1,21.51,2.07,28.26,2.88C843.88,451.68,830.38,314.78,830.88,297.57Z"/><path class="cls-10" d="M830.88,297.57c-5.8-27.1-7-55.11-16.58-81.5-4.72-13.09-11-19-23.68-8.41-9.75,8.12-16.9,22.87-33.6,13.26a20.3,20.3,0,0,0-11.44-.88,21.91,21.91,0,0,0-8.63,4.72c-2.91,2.6-11,18.32-20.06,40.49.29.57.58,1.14.86,1.72,9.32,14.35,12.22,20.55,35.78,57.8.34.53.68,1.08,1,1.62l0-.09a315.28,315.28,0,0,0,20.62,24C794.7,371,814,394.07,826.71,421.12c12.07,10.38,15.25,18.05,9.19,25.27-12.49-16.75-23.13-31.71-31.8-44.23,8.95,12.92,20,28.44,33,45.85a85.63,85.63,0,0,1-16.35,8.7,82.21,82.21,0,0,1-9.5,3.14c11.84,1,21.51,2.07,28.26,2.88C843.88,451.68,830.38,314.78,830.88,297.57Z"/></g><path class="cls-9" d="M713.75,338.07a33.65,33.65,0,0,1-.71,5A33.65,33.65,0,0,0,713.75,338.07Z"/><path class="cls-11" d="M830.88,297.57c-5.8-27.1-7-55.11-16.58-81.5-4.72-13.09-11-19-23.68-8.41-9.75,8.12-16.9,22.87-33.6,13.26a20.3,20.3,0,0,0-11.44-.88,21.91,21.91,0,0,0-8.63,4.72c-2.91,2.6-11,18.32-20.06,40.49.29.57.58,1.14.86,1.72,9.32,14.35,12.22,20.55,35.78,57.8.34.53.68,1.08,1,1.62l0-.09a315.28,315.28,0,0,0,20.62,24C794.7,371,814,394.07,826.71,421.12c12.07,10.38,15.25,18.05,9.19,25.27-12.49-16.75-23.13-31.71-31.8-44.23,8.95,12.92,20,28.44,33,45.85a85.63,85.63,0,0,1-16.35,8.7,82.21,82.21,0,0,1-9.5,3.14c11.84,1,21.51,2.07,28.26,2.88C843.88,451.68,830.38,314.78,830.88,297.57Z"/><path class="cls-12" d="M810.67,458.53l.31-.1Z"/><path class="cls-13" d="M812.9,457.77l.48-.17Z"/><path class="cls-14" d="M830.86,446.39a15.42,15.42,0,0,0,1-1.28h0A15.42,15.42,0,0,1,830.86,446.39Z"/><path class="cls-15" d="M961.7,292.72c-12.83-8.55-53.19-172.8-65.07-190.44S861,124.47,856.3,140.41c-6.59,22.14-24.62,54.66-40.47,80.6,3.6,18.27,5.51,36.87,9.42,55.06-.44,16,11,133,9.83,163,.44,11.92.38,20.52-.5,23.33,15.36-.34,31.52-1,48.54.67,52.55,5.27,103.11.69,107.63-3.64S974.54,301.27,961.7,292.72Z"/><g class="cls-16"><path class="cls-17" d="M810.67,458.53l.31-.1Z"/><path class="cls-18" d="M812.9,457.77l.48-.17Z"/><path class="cls-19" d="M830.86,446.39a15.42,15.42,0,0,0,1-1.28h0A15.42,15.42,0,0,1,830.86,446.39Z"/><path class="cls-20" d="M961.7,292.72c-12.83-8.55-53.19-172.8-65.07-190.44S861,124.47,856.3,140.41c-6.59,22.14-24.62,54.66-40.47,80.6,3.6,18.27,5.51,36.87,9.42,55.06-.44,16,11,133,9.83,163,.44,11.92.38,20.52-.5,23.33,15.36-.34,31.52-1,48.54.67,52.55,5.27,103.11.69,107.63-3.64S974.54,301.27,961.7,292.72Z"/></g><path class="cls-21" d="M713.75,338.07a33.65,33.65,0,0,1-.71,5A33.65,33.65,0,0,0,713.75,338.07Z"/><path class="cls-22" d="M717.75,267c6.53,10.06,9.92,16.13,19.48,31.69A390.18,390.18,0,0,1,757,220.92a20.3,20.3,0,0,0-11.44-.88h0a20.74,20.74,0,0,0-8.63,4.72c-9.15,8.42-16.5,23.43-21.76,37.1Q716.49,264.4,717.75,267Z"/><g class="cls-23"><path class="cls-24" d="M713.75,338.07a33.65,33.65,0,0,1-.71,5A33.65,33.65,0,0,0,713.75,338.07Z"/><path class="cls-25" d="M717.75,267c6.53,10.06,9.92,16.13,19.48,31.69A390.18,390.18,0,0,1,757,220.92a20.3,20.3,0,0,0-11.44-.88h0a20.74,20.74,0,0,0-8.63,4.72c-9.15,8.42-16.5,23.43-21.76,37.1Q716.49,264.4,717.75,267Z"/></g><path class="cls-26" d="M341.22,382.22q-7.86,14.4-15.66,28.83c-2.44,4.52-7.71,8.17-5.35,14.31a8.68,8.68,0,0,0,9.07.87c.49-.62,1-1.24,1.46-1.87s1-1.35,1.49-2l4.7-4.05a83.38,83.38,0,0,1,1.36-11.15C338.86,399,339.89,390.58,341.22,382.22Z"/><path class="cls-27" d="M384.29,470.84l-5.12.71c-5.57,4.32-15,3.23-21.34-.35-.45-.2-.88-.43-1.32-.66-27-.42-54.08-1.24-81.11-2.74-.46-.82-1.16-1.79-.94-2.55a7.75,7.75,0,0,1,.88-1.83,14.85,14.85,0,0,1-4.6-3.18c-4.72-15.31-18.32-25.42-23.75-40.3,6.82-17.37,16.91-33.13,25.46-49.63,6.28-12.12,13.68-23.72,25.55-31,26.15-16.08,56.52-79.38,55.63-88.94-1.75-18.82-2.9-32.06-3.22-39.91C347.93,149.39,330.22,97.33,325.84,85c-20.09-56.68-39-66.47-47.19-69.74a55.68,55.68,0,0,0-24.22-3.68L242.86,24.36C235.73,44,196.41,128,194.49,132.73c-9.67,4.94-14.72,13.74-17.39,23.46-7,25.46-69.54,319-70.74,326.05,2.69,4.5-1.7,10.87,3.69,14.87,5.56-2.22,175.17-16.86,277.57-22.86l-.44-3.39Z"/><g class="cls-28"><path class="cls-29" d="M341.22,382.22q-7.86,14.4-15.66,28.83c-2.44,4.52-7.71,8.17-5.35,14.31a8.68,8.68,0,0,0,9.07.87c.49-.62,1-1.24,1.46-1.87s1-1.35,1.49-2l4.7-4.05a83.38,83.38,0,0,1,1.36-11.15C338.86,399,339.89,390.58,341.22,382.22Z"/><path class="cls-30" d="M384.29,470.84l-5.12.71c-5.57,4.32-15,3.23-21.34-.35-.45-.2-.88-.43-1.32-.66-27-.42-54.08-1.24-81.11-2.74-.46-.82-1.16-1.79-.94-2.55a7.75,7.75,0,0,1,.88-1.83,14.85,14.85,0,0,1-4.6-3.18c-4.72-15.31-18.32-25.42-23.75-40.3,6.82-17.37,16.91-33.13,25.46-49.63,6.28-12.12,13.68-23.72,25.55-31,26.15-16.08,56.52-79.38,55.63-88.94-1.75-18.82-2.9-32.06-3.22-39.91C347.93,149.39,330.22,97.33,325.84,85c-20.09-56.68-39-66.47-47.19-69.74a55.68,55.68,0,0,0-24.22-3.68L242.86,24.36C235.73,44,196.41,128,194.49,132.73c-9.67,4.94-14.72,13.74-17.39,23.46-7,25.46-69.54,319-70.74,326.05,2.69,4.5-1.7,10.87,3.69,14.87,5.56-2.22,175.17-16.86,277.57-22.86l-.44-3.39Z"/></g><path class="cls-31" d="M148.08,492.8c-22.12,2.1-36.47,3.69-38,4.31-5.39-4-1-10.37-3.69-14.87,1.2-7.05,63.75-300.59,70.75-326,2.66-9.72,7.71-18.52,17.38-23.46C196.41,128,235.73,44,242.86,24.36l11.57-12.81a55.68,55.68,0,0,1,24.22,3.68Q250.38,79.46,222.11,143.7l-20.65,17q-8.91,53.07-17.83,106.15Z"/><path class="cls-32" d="M641.17,97.29a161.78,161.78,0,0,1-12.9-34,83.71,83.71,0,0,1-2.5-12.44c-.73-2.94-1.3-5.4-3.35-8C613.86,32,589.9,32,573.25,38.75c-6.15,2.48-11.15,7.74-19.76,6.19-11.24-2-19.85,1.42-28.08,9.49-9.29,9.11-14.84,7.6-20-4.79-3.72-9-9.57-15.09-18.17-18.84-1.41-.61-2.82-1.26-4.23-1.91C473,24.21,470.49,11.47,477.35,2.75l.14-.18c-5.76.89-14.77,3.12-22.69,9.77-16.32,13.7-9.07,30.29-22.28,59.42-12.21,26.94-28.61,35.25-24.2,50.42,1.43,4.94,5.14,10.83,10.64,12.31,7.69,2.06,17.85-4.77,22.2-13.25,6.83-13.32-3.37-26.15,4.92-39.31a26.37,26.37,0,0,1,8.73-8.37c2.93-.91,6.82-1.58,9.38.4,7,5.44-4.46,24.37-9.83,52-1.88,9.67-13.29,109,4.14,144.51,12.46,25.39,10.14,49.89-.86,74.85-6.15,13.94-10.32,28.26-6.13,44.07,1.45,5.45,1.37,10.57-1.47,13.9-2.38,2.79-5.84,1.71-10.61,3.85a23.25,23.25,0,0,0-10.33,10c9.18,4.82,18.8,7.7,29.31,6.78,1.07-2.38,3.33-4.91,3-7.1-3.92-29.35.86-57.86,7.64-86.24,4.08-17.1,4.05-34-1-51.09-1.8-6.09-4.39-78.63-3.23-137.53.87-44.55,2.77-55.71,11.28-61.93,1.38-1,8.22-6,14.86-4,1.51.46,7.11,2.54,11,14.41,10,30.37-13.43,57.07-2.08,69.05,4.59,4.85,12.86,5.14,17.69,4.16,8.91-1.81,14.16-9.51,15.76-12.18,13.93-23.24-14.9-55.41-1.66-69.75,2.65-2.87,7.17-5.22,10.89-4.22C551,79.72,554.38,95.71,556.08,108c9,65.29-7.92,215.3,16,234.07,2.47,1.94,11.59,9.1,19.84,6.4a16.48,16.48,0,0,0,7.68-6.4c5-7.57-24.13-173-7.08-184.11,4.19-2.73,10.74.47,12.2,1.19,17.06,8.34,12.21,103.59,22.41,105.46,3.77.69,7.4-3.5,7.68-3.84,3.42-4.06,10.41-80.57-44.25-154.19h0c-.16-.28-16.78-29-10.53-39.91A11,11,0,0,1,583.76,63a11.75,11.75,0,0,1,6.48-1.83c3.31.16,5.79,2.11,7.77,3.93,7.71,7.06,13.73,16.16,17.5,22.59a246.83,246.83,0,0,1,27.41,24.94c32.35,34.2,46,68.35,48.09,67.3,1.43-.7-3-16.87-12.94-34.09C663.77,121.07,654.17,122,641.17,97.29Z"/><path class="cls-32" d="M641.17,97.29a161.78,161.78,0,0,1-12.9-34,83.71,83.71,0,0,1-2.5-12.44c-.73-2.94-1.3-5.4-3.35-8C613.86,32,589.9,32,573.25,38.75c-6.15,2.48-11.15,7.74-19.76,6.19-11.24-2-19.85,1.42-28.08,9.49-9.29,9.11-14.84,7.6-20-4.79-3.72-9-9.57-15.09-18.17-18.84-1.41-.61-2.82-1.26-4.23-1.91C473,24.21,470.49,11.47,477.35,2.75l.14-.18c-5.76.89-14.77,3.12-22.69,9.77-16.32,13.7-9.07,30.29-22.28,59.42-12.21,26.94-28.61,35.25-24.2,50.42,1.43,4.94,5.14,10.83,10.64,12.31,7.69,2.06,17.85-4.77,22.2-13.25,6.83-13.32-3.37-26.15,4.92-39.31a26.37,26.37,0,0,1,8.73-8.37c2.93-.91,6.82-1.58,9.38.4,7,5.44-4.46,24.37-9.83,52-1.88,9.67-13.29,109,4.14,144.51,12.46,25.39,10.14,49.89-.86,74.85-6.15,13.94-10.32,28.26-6.13,44.07,1.45,5.45,1.37,10.57-1.47,13.9-2.38,2.79-5.84,1.71-10.61,3.85a23.25,23.25,0,0,0-10.33,10c9.18,4.82,18.8,7.7,29.31,6.78,1.07-2.38,3.33-4.91,3-7.1-3.92-29.35.86-57.86,7.64-86.24,4.08-17.1,4.05-34-1-51.09-1.8-6.09-4.39-78.63-3.23-137.53.87-44.55,2.77-55.71,11.28-61.93,1.38-1,8.22-6,14.86-4,1.51.46,7.11,2.54,11,14.41,10,30.37-13.43,57.07-2.08,69.05,4.59,4.85,12.86,5.14,17.69,4.16,8.91-1.81,14.16-9.51,15.76-12.18,13.93-23.24-14.9-55.41-1.66-69.75,2.65-2.87,7.17-5.22,10.89-4.22C551,79.72,554.38,95.71,556.08,108c9,65.29-7.92,215.3,16,234.07,2.47,1.94,11.59,9.1,19.84,6.4a16.48,16.48,0,0,0,7.68-6.4c5-7.57-24.13-173-7.08-184.11,4.19-2.73,10.74.47,12.2,1.19,17.06,8.34,12.21,103.59,22.41,105.46,3.77.69,7.4-3.5,7.68-3.84,3.42-4.06,10.41-80.57-44.25-154.19h0c-.16-.28-16.78-29-10.53-39.91A11,11,0,0,1,583.76,63a11.75,11.75,0,0,1,6.48-1.83c3.31.16,5.79,2.11,7.77,3.93,7.71,7.06,13.73,16.16,17.5,22.59a246.83,246.83,0,0,1,27.41,24.94c32.35,34.2,46,68.35,48.09,67.3,1.43-.7-3-16.87-12.94-34.09C663.77,121.07,654.17,122,641.17,97.29Z"/><path class="cls-32" d="M641.17,97.29a161.78,161.78,0,0,1-12.9-34,83.71,83.71,0,0,1-2.5-12.44c-.73-2.94-1.3-5.4-3.35-8C613.86,32,589.9,32,573.25,38.75c-6.15,2.48-11.15,7.74-19.76,6.19-11.24-2-19.85,1.42-28.08,9.49-9.29,9.11-14.84,7.6-20-4.79-3.72-9-9.57-15.09-18.17-18.84-1.41-.61-2.82-1.26-4.23-1.91C473,24.21,470.49,11.47,477.35,2.75l.14-.18c-5.76.89-14.77,3.12-22.69,9.77-16.32,13.7-9.07,30.29-22.28,59.42-12.21,26.94-28.61,35.25-24.2,50.42,1.43,4.94,5.14,10.83,10.64,12.31,7.69,2.06,17.85-4.77,22.2-13.25,6.83-13.32-3.37-26.15,4.92-39.31a26.37,26.37,0,0,1,8.73-8.37c2.93-.91,6.82-1.58,9.38.4,7,5.44-4.46,24.37-9.83,52-1.88,9.67-13.29,109,4.14,144.51,12.46,25.39,10.14,49.89-.86,74.85-6.15,13.94-10.32,28.26-6.13,44.07,1.45,5.45,1.37,10.57-1.47,13.9-2.38,2.79-5.84,1.71-10.61,3.85a23.25,23.25,0,0,0-10.33,10c9.18,4.82,18.8,7.7,29.31,6.78,1.07-2.38,3.33-4.91,3-7.1-3.92-29.35.86-57.86,7.64-86.24,4.08-17.1,4.05-34-1-51.09-1.8-6.09-4.39-78.63-3.23-137.53.87-44.55,2.77-55.71,11.28-61.93,1.38-1,8.22-6,14.86-4,1.51.46,7.11,2.54,11,14.41,10,30.37-13.43,57.07-2.08,69.05,4.59,4.85,12.86,5.14,17.69,4.16,8.91-1.81,14.16-9.51,15.76-12.18,13.93-23.24-14.9-55.41-1.66-69.75,2.65-2.87,7.17-5.22,10.89-4.22C551,79.72,554.38,95.71,556.08,108c9,65.29-7.92,215.3,16,234.07,2.47,1.94,11.59,9.1,19.84,6.4a16.48,16.48,0,0,0,7.68-6.4c5-7.57-24.13-173-7.08-184.11,4.19-2.73,10.74.47,12.2,1.19,17.06,8.34,12.21,103.59,22.41,105.46,3.77.69,7.4-3.5,7.68-3.84,3.42-4.06,10.41-80.57-44.25-154.19h0c-.16-.28-16.78-29-10.53-39.91A11,11,0,0,1,583.76,63a11.75,11.75,0,0,1,6.48-1.83c3.31.16,5.79,2.11,7.77,3.93,7.71,7.06,13.73,16.16,17.5,22.59a246.83,246.83,0,0,1,27.41,24.94c32.35,34.2,46,68.35,48.09,67.3,1.43-.7-3-16.87-12.94-34.09C663.77,121.07,654.17,122,641.17,97.29Z"/><path class="cls-32" d="M641.17,97.29a161.78,161.78,0,0,1-12.9-34,83.71,83.71,0,0,1-2.5-12.44c-.73-2.94-1.3-5.4-3.35-8C613.86,32,589.9,32,573.25,38.75c-6.15,2.48-11.15,7.74-19.76,6.19-11.24-2-19.85,1.42-28.08,9.49-9.29,9.11-14.84,7.6-20-4.79-3.72-9-9.57-15.09-18.17-18.84-1.41-.61-2.82-1.26-4.23-1.91C473,24.21,470.49,11.47,477.35,2.75l.14-.18c-5.76.89-14.77,3.12-22.69,9.77-16.32,13.7-9.07,30.29-22.28,59.42-12.21,26.94-28.61,35.25-24.2,50.42,1.43,4.94,5.14,10.83,10.64,12.31,7.69,2.06,17.85-4.77,22.2-13.25,6.83-13.32-3.37-26.15,4.92-39.31a26.37,26.37,0,0,1,8.73-8.37c2.93-.91,6.82-1.58,9.38.4,7,5.44-4.46,24.37-9.83,52-1.88,9.67-13.29,109,4.14,144.51,12.46,25.39,10.14,49.89-.86,74.85-6.15,13.94-10.32,28.26-6.13,44.07,1.45,5.45,1.37,10.57-1.47,13.9-2.38,2.79-5.84,1.71-10.61,3.85a23.25,23.25,0,0,0-10.33,10c9.18,4.82,18.8,7.7,29.31,6.78,1.07-2.38,3.33-4.91,3-7.1-3.92-29.35.86-57.86,7.64-86.24,4.08-17.1,4.05-34-1-51.09-1.8-6.09-4.39-78.63-3.23-137.53.87-44.55,2.77-55.71,11.28-61.93,1.38-1,8.22-6,14.86-4,1.51.46,7.11,2.54,11,14.41,10,30.37-13.43,57.07-2.08,69.05,4.59,4.85,12.86,5.14,17.69,4.16,8.91-1.81,14.16-9.51,15.76-12.18,13.93-23.24-14.9-55.41-1.66-69.75,2.65-2.87,7.17-5.22,10.89-4.22C551,79.72,554.38,95.71,556.08,108c9,65.29-7.92,215.3,16,234.07,2.47,1.94,11.59,9.1,19.84,6.4a16.48,16.48,0,0,0,7.68-6.4c5-7.57-24.13-173-7.08-184.11,4.19-2.73,10.74.47,12.2,1.19,17.06,8.34,12.21,103.59,22.41,105.46,3.77.69,7.4-3.5,7.68-3.84,3.42-4.06,10.41-80.57-44.25-154.19h0c-.16-.28-16.78-29-10.53-39.91A11,11,0,0,1,583.76,63a11.75,11.75,0,0,1,6.48-1.83c3.31.16,5.79,2.11,7.77,3.93,7.71,7.06,13.73,16.16,17.5,22.59a246.83,246.83,0,0,1,27.41,24.94c32.35,34.2,46,68.35,48.09,67.3,1.43-.7-3-16.87-12.94-34.09C663.77,121.07,654.17,122,641.17,97.29Z"/><path class="cls-32" d="M641.17,97.29a161.78,161.78,0,0,1-12.9-34,83.71,83.71,0,0,1-2.5-12.44c-.73-2.94-1.3-5.4-3.35-8C613.86,32,589.9,32,573.25,38.75c-6.15,2.48-11.15,7.74-19.76,6.19-11.24-2-19.85,1.42-28.08,9.49-9.29,9.11-14.84,7.6-20-4.79-3.72-9-9.57-15.09-18.17-18.84-1.41-.61-2.82-1.26-4.23-1.91C473,24.21,470.49,11.47,477.35,2.75l.14-.18c-5.76.89-14.77,3.12-22.69,9.77-16.32,13.7-9.07,30.29-22.28,59.42-12.21,26.94-28.61,35.25-24.2,50.42,1.43,4.94,5.14,10.83,10.64,12.31,7.69,2.06,17.85-4.77,22.2-13.25,6.83-13.32-3.37-26.15,4.92-39.31a26.37,26.37,0,0,1,8.73-8.37c2.93-.91,6.82-1.58,9.38.4,7,5.44-4.46,24.37-9.83,52-1.88,9.67-13.29,109,4.14,144.51,12.46,25.39,10.14,49.89-.86,74.85-6.15,13.94-10.32,28.26-6.13,44.07,1.45,5.45,1.37,10.57-1.47,13.9-2.38,2.79-5.84,1.71-10.61,3.85a23.25,23.25,0,0,0-10.33,10c9.18,4.82,18.8,7.7,29.31,6.78,1.07-2.38,3.33-4.91,3-7.1-3.92-29.35.86-57.86,7.64-86.24,4.08-17.1,4.05-34-1-51.09-1.8-6.09-4.39-78.63-3.23-137.53.87-44.55,2.77-55.71,11.28-61.93,1.38-1,8.22-6,14.86-4,1.51.46,7.11,2.54,11,14.41,10,30.37-13.43,57.07-2.08,69.05,4.59,4.85,12.86,5.14,17.69,4.16,8.91-1.81,14.16-9.51,15.76-12.18,13.93-23.24-14.9-55.41-1.66-69.75,2.65-2.87,7.17-5.22,10.89-4.22C551,79.72,554.38,95.71,556.08,108c9,65.29-7.92,215.3,16,234.07,2.47,1.94,11.59,9.1,19.84,6.4a16.48,16.48,0,0,0,7.68-6.4c5-7.57-24.13-173-7.08-184.11,4.19-2.73,10.74.47,12.2,1.19,17.06,8.34,12.21,103.59,22.41,105.46,3.77.69,7.4-3.5,7.68-3.84,3.42-4.06,10.41-80.57-44.25-154.19h0c-.16-.28-16.78-29-10.53-39.91A11,11,0,0,1,583.76,63a11.75,11.75,0,0,1,6.48-1.83c3.31.16,5.79,2.11,7.77,3.93,7.71,7.06,13.73,16.16,17.5,22.59a246.83,246.83,0,0,1,27.41,24.94c32.35,34.2,46,68.35,48.09,67.3,1.43-.7-3-16.87-12.94-34.09C663.77,121.07,654.17,122,641.17,97.29Z"/><g class="cls-33"><path class="cls-34" d="M598.48,117.46h0l.76,1.06Z"/></g><g class="cls-33"><polygon class="cls-35" points="484.69 75.86 484.69 75.86 484.69 75.86 484.69 75.86"/></g><g class="cls-33"><path class="cls-36" d="M484.68,75.86h0Z"/></g><g class="cls-33"><path class="cls-37" d="M837.1,448c-17.22-23-31-42.76-41-57.55-17.17-25.29-31.18-47.7-42.56-65.69C730,287.52,727.07,281.32,717.75,267c-15-23.09-38.46-115.41-74.62-150.41-1.62-2.18-3.27-4.35-4.88-6.55-1.11-1.51-2.25-3.13-3.44-4.76-7.84-7.12-14.4-13.11-19.3-17.58-3.77-6.43-9.79-15.53-17.5-22.59-2-1.82-4.46-3.77-7.77-3.93A11.75,11.75,0,0,0,583.76,63,11,11,0,0,0,580,66.67c-6.25,10.94,10.37,39.63,10.53,39.91h0c7.7,10.37,14.18,19.6,19.61,27.81h0c33.15,50,27.58,122.89,24.64,126.38-.28.34-3.91,4.53-7.68,3.84-8.93-1.64-6.32-89.05-17-101.26h0a17,17,0,0,0-5.41-4.2c-1.46-.72-8-3.92-12.2-1.19-17,11.13,12.11,176.54,7.08,184.11a16.48,16.48,0,0,1-7.68,6.4,12,12,0,0,1-2,.46,246.27,246.27,0,0,0,25.85,31.21,211.42,211.42,0,0,0,25.89,23C660,416.77,672,433.08,673,453.33c-1.06-20.19-13-36.45-31.35-50a211.42,211.42,0,0,1-25.89-23,244.73,244.73,0,0,1-25.85-31.21c-7.67,1.11-15.56-5.08-17.83-6.86-10.28-8.08-13-29.22-13.5-55.89q.06-17.73.17-35.46c.08-10.78.16-82.21.27-93a401.5,401.5,0,0,0-2.52-46.64l-.3-.45c0-.86-.06-1.73-.1-2.6v0c-.39-2.83-.87-5.85-1.48-8.85a15.42,15.42,0,0,0-1.5-3c0-1.1,0-2.2,0-3.29-2.15-7.6-5.39-14-10.47-15.41h-.07a21.11,21.11,0,0,0-6.65,1.07,15.42,15.42,0,0,0-4.17,3.15c-13.24,14.34,15.59,46.51,1.65,69.75-.32.54-.8,1.29-1.41,2.14a.61.61,0,0,1,0-.14c-2.45,3.4-7.23,8.59-14.34,10-4.83,1-13.1.69-17.69-4.16-11.35-12,12.09-38.68,2.08-69.05-3.91-11.87-9.51-14-11-14.41a12.27,12.27,0,0,0-6.3-.14h0A24,24,0,0,0,476.15,80c-8.51,6.22-10.41,17.38-11.28,61.93-1.16,58.9,1.43,131.44,3.23,137.53,5,17.08,5.07,34,1,51.09-6.78,28.38-11.56,56.89-7.64,86.24.29,2.19-2,4.72-3,7.1-10.51.92-20.13-2-29.31-6.78a23.25,23.25,0,0,1,10.33-10c4.77-2.14,8.23-1.06,10.61-3.85,2.84-3.33,2.92-8.45,1.47-13.9-4.19-15.81,0-30.13,6.13-44.07,11-25,13.32-49.46.86-74.85-17.43-35.52-6-134.84-4.14-144.51,5.37-27.59,16.86-46.52,9.83-52-2.56-2-6.45-1.31-9.38-.4a26.37,26.37,0,0,0-8.73,8.37c-8.29,13.16,1.91,26-4.92,39.31-4.35,8.48-14.51,15.31-22.2,13.25-5.5-1.48-9.2-7.37-10.64-12.3a347.91,347.91,0,0,0-18.71,37.34C369.51,206.63,344.05,311,298,339.3c-11.87,7.29-19.27,18.89-25.55,31-8.55,16.5-18.64,32.26-25.46,49.63,5.43,14.88,26.95,46.54,31.66,61.85,27.25-1.16,169.6-11.4,256-11.06h0l68.47,0a27.18,27.18,0,0,1-4-3.29,30.1,30.1,0,0,0,11.66,3.43c20.34-1.36,41,2.93,61.08-2.8l0-.16,71-.08.15-.14h0c12.33-.32,24.87,2.35,36.89-2.6h0c7.24.44,14.09-1.37,21-3.12l-.89.11A84.87,84.87,0,0,0,837.1,448ZM397.82,342.91c0-.1.06-.19.1-.29q-1.08,3.35-1.93,6.76l.09-.37A30.31,30.31,0,0,1,397.82,342.91Zm26-189.4c-4.12,13-8.24,86.71-12.36,99.74,2.54-8,5.08-76.7,7.61-84.72h0Q421.48,161,423.86,153.51ZM419,300.11l-1.18,2Zm-2,3.39-1.06,1.77ZM415,306.74l-1,1.77ZM413.17,310c-.48.82-.95,1.64-1.41,2.47C412.22,311.6,412.69,310.78,413.17,310Zm-2.47,4.35-1,1.8Zm-1.87,3.41-.85,1.59ZM407.11,321l-.8,1.57C406.57,322,406.84,321.51,407.11,321Zm-1.66,3.28c-.26.53-.51,1.07-.77,1.6C404.94,325.34,405.19,324.8,405.45,324.27Zm-1.58,3.3c-.47,1-.93,2-1.37,3C402.94,329.59,403.4,328.58,403.87,327.57Zm-2.09,4.73c-.24.55-.47,1.11-.7,1.66C401.31,333.41,401.54,332.85,401.78,332.3Zm-1.4,3.42c-.21.55-.43,1.1-.63,1.66C400,336.82,400.17,336.27,400.38,335.72Zm-1.28,3.43c-.21.57-.4,1.15-.6,1.72C398.7,340.3,398.89,339.72,399.1,339.15Zm-69.82,87.08c.49-.62,1-1.24,1.46-1.87h0C330.26,425,329.77,425.61,329.28,426.23Zm66.45-75.76c-.26,1.11-.52,2.24-.74,3.37C395.21,352.71,395.47,351.58,395.73,350.47Zm24-51.64,1.71-2.84Zm72.43-15.35-.6,2.6c-.61-1.46-1.14-2.93-1.61-4.42.71.62,1.44,1.23,2.21,1.82Zm.08,4.14c.7,1.53,1.49,3,2.37,4.55C493.77,290.66,493,289.15,492.28,287.62Zm26.17-10.4c12.25-19.53,14.78-96.86,13.65-121.38,1.15,24.36-1.37,102-13.65,121.52a41,41,0,0,0-.28,6.76A40.57,40.57,0,0,1,518.45,277.22ZM797.1,462.41l2.14-.24Z"/></g><g class="cls-33"><path class="cls-38" d="M255.33,234.93h0l.12-.07Z"/></g><g class="cls-1"><path class="cls-39" d="M366.35,391.34c-8,8.19-16.64,15.87-25.37,23.43C349.71,407.21,358.31,399.53,366.35,391.34Z"/></g><g class="cls-1"><path class="cls-40" d="M419.11,168.53h0l-1.63,5.15Z"/></g><g class="cls-1"><path class="cls-41" d="M599.24,118.52l-.76-1.06h0Z"/></g><path class="cls-42" d="M797.1,462.41c-71-75.89-87.19-106.18-84.44-117.79a32.94,32.94,0,0,0,.78-13.54c-1.55-9.74-7.78-17.87-16.46-26.17-9-8.61-26.81-14.11-26.93-25-.25-22.95-16.24-99.53-28.38-117.44-1-3.93-3.08-7.53-5.09-11.16L624.1,136.21a50.2,50.2,0,0,0-6-20.14,16.72,16.72,0,0,0-7.19-1.75c-.39,6.68-.61,13.37-.74,20.07,22.53,34,27.17,78.54,26.91,104.69-.3-28.64-8.48-81.27-46.52-132.5h0c-.16-.28-16.78-29-10.53-39.91A11,11,0,0,1,583.76,63a11.75,11.75,0,0,1,6.48-1.83c3.31.16,5.79,2.11,7.77,3.93,7.71,7.06,13.73,16.16,17.5,22.59a246.83,246.83,0,0,1,27.41,24.94c32.35,34.2,46,68.35,48.09,67.3,1.43-.7-3-16.87-12.94-34.09-14.3-24.75-23.9-23.78-36.9-48.53a161.78,161.78,0,0,1-12.9-34,83.71,83.71,0,0,1-2.5-12.44c-.73-2.94-1.3-5.4-3.35-8C613.86,32,589.9,32,573.25,38.75c-6.15,2.48-11.15,7.74-19.75,6.19-11.25-2-19.86,1.42-28.09,9.49-9.29,9.11-14.84,7.6-20-4.79-3.72-9-9.57-15.09-18.17-18.84-1.41-.61-2.82-1.26-4.23-1.91C473,24.21,470.49,11.47,477.35,2.75l.14-.18c-5.76.89-14.77,3.12-22.69,9.77-16.32,13.7-9.07,30.29-22.28,59.42-12.21,26.94-28.61,35.25-24.2,50.42,0,0,0,0,0,0v0a347.91,347.91,0,0,0-18.71,37.34C369.51,206.63,344.05,311,298,339.3c-11.87,7.29-19.27,18.89-25.55,31-8.55,16.5-18.64,32.26-25.46,49.63,5.43,14.88,26.95,46.54,31.66,61.85,27.25-1.16,169.6-11.4,256-11.06h0l68.47,0c-10-6.74-12.89-17.71-14.49-29.09-6.37-45.46-19.35-87.36-50.83-121.08-10.65-11.42-21.75-24.41-19.39-43.32,12.66-20.17,14.94-102.05,13.53-123.64v0c.62-.86,1.1-1.62,1.43-2.16,13.93-23.24-14.9-55.41-1.66-69.75,2.65-2.87,7.17-5.22,10.89-4.22C551,79.72,554.38,95.71,556.08,108c9,65.29-7.92,215.3,16,234.07,2.27,1.78,10.16,8,17.82,6.86h0a246.27,246.27,0,0,0,25.85,31.21,211.42,211.42,0,0,0,25.89,23c22.61,16.7,35.5,37.51,30.27,64.71l71-.08.15-.14h0c12.33-.32,24.87,2.35,36.89-2.6h0c7.24.44,14.09-1.37,21-3.12C799.59,462.15,798.3,462.29,797.1,462.41ZM501.78,126.78c-.23.94-.46,1.87-.7,2.78C501.32,128.65,501.55,127.72,501.78,126.78Zm-6.15-47.84h0Zm-5.73-3.21-.26,0Zm-1.33-.18h0Zm-1.09,0h0Zm-1.3.09-.35,0Zm-1,.16-.39.08Zm-1.27.3c-.14,0-.27.08-.41.12C483.61,76.15,483.74,76.1,483.88,76.07Zm-5.67,2.52-.26.16Zm4.7-2.23-.41.14Zm-1.19.44-.4.17Zm-.87.38-.38.18Zm-1,.51-.35.18Zm-.76.41-.31.18ZM468,94.91c-.23,1.07-.43,2.21-.62,3.43C467.54,97.12,467.74,96,468,94.91ZM459.6,340.6c.62-1.55,1.2-3.11,1.75-4.66C460.8,337.49,460.22,339.05,459.6,340.6ZM443.67,110.1a28.56,28.56,0,0,1-.23,3.69A28.56,28.56,0,0,0,443.67,110.1Zm.47,295.6a20.5,20.5,0,0,0-4.71,1.4A20.5,20.5,0,0,1,444.14,405.7Zm5.9-2.45a8.66,8.66,0,0,0,.94-1.33,8.66,8.66,0,0,1-.94,1.33c-.15.17-.3.33-.46.48C449.74,403.58,449.89,403.42,450,403.25Zm14.64-210.16,0-2.86Zm-.08-11.39c0-1,0-1.92,0-2.88C464.59,179.78,464.59,180.74,464.6,181.7ZM465,215v0Zm.43,17.82c0,.83.05,1.66.08,2.47C465.49,234.51,465.47,233.68,465.44,232.85Zm.22,7.15c.06,1.53.11,3,.16,4.49C465.77,243,465.72,241.53,465.66,240Zm-.42-153c.24-1,.46-1.91.63-2.79C465.7,85,465.48,86,465.24,87ZM449.1,404.13a6.12,6.12,0,0,1-1.61.82A6.12,6.12,0,0,0,449.1,404.13Zm2.14-40.24q.6-2.72,1.41-5.4Q451.84,361.17,451.24,363.89Zm8.31,57.89c-.12.19-.23.38-.34.57C459.32,422.16,459.43,422,459.55,421.78ZM465.22,322q.48-2.33.81-4.65c.34-2.32.59-4.65.73-7-.14,2.33-.39,4.66-.73,7q-.33,2.32-.81,4.65c-.46,2.33-1,4.65-1.67,7C464.2,326.62,464.76,324.3,465.22,322Zm2.54-44.43a13.6,13.6,0,0,0,.34,1.9,96,96,0,0,1,2.31,9.59q-.9-4.78-2.31-9.59A13.6,13.6,0,0,1,467.76,277.54ZM464.19,74A5.22,5.22,0,0,1,466,76.62a8.23,8.23,0,0,1,.35,1.79,18.08,18.08,0,0,1-.25,4.46,18.08,18.08,0,0,0,.25-4.46,8.23,8.23,0,0,0-.35-1.79A5.22,5.22,0,0,0,464.19,74a5.34,5.34,0,0,0-1-.62A5.34,5.34,0,0,1,464.19,74Zm-4.55-1.28h0Zm-3,.38-.24.06Zm-4.87,2.57a28,28,0,0,0-2.32,2.07A28,28,0,0,1,451.8,75.63Zm-10.64,45.61a21.89,21.89,0,0,0,2.09-6.21,21.89,21.89,0,0,1-2.09,6.21,25.31,25.31,0,0,1-1.89,3.09A25.31,25.31,0,0,0,441.16,121.24Zm-31.78,3.83,0,0Zm8.95,9.21c-.13,0-.26-.07-.38-.12C418.07,134.21,418.2,134.24,418.33,134.28Zm-.7-.26-.65-.28Zm-1-.48-.55-.31Zm-.85-.51c-.2-.13-.39-.25-.58-.39C415.37,132.78,415.56,132.9,415.76,133Zm-.78-.55c-.22-.16-.43-.33-.64-.51C414.55,132.15,414.76,132.32,415,132.48Zm-1-.85-.42-.38Zm-.84-.82c-.1-.12-.22-.23-.32-.34C412.91,130.58,413,130.69,413.13,130.81Zm-1-1.16h0Zm-.61-.81a.35.35,0,0,1,0-.08A.35.35,0,0,0,411.52,128.84ZM411,128a1.3,1.3,0,0,1-.1-.15A1.3,1.3,0,0,0,411,128ZM395,353.84c-15.29,28-39.12,48.14-62.76,68.48-.48.69-1,1.37-1.49,2s-1,1.25-1.46,1.87a8.68,8.68,0,0,1-9.07-.87c-2.36-6.14,2.91-9.79,5.35-14.31,11.12-20.51,22.22-41,33.63-61.4,4-7.07,2.33-13.89.53-20.89,3.69-7.74,8.34-14.83,15.5-20.2,11.43-14.77,20.31-30.74,25.79-48.33,1.2-3.43,1.25-7.24,3.82-10.21,4.07-6.15,10.63-71.34,12.94-78.59a11.92,11.92,0,0,1,1.34-2.9q2.37-7.51,4.75-15c-4.12,13-8.24,86.71-12.36,99.74,9.29-2.16,10.25-11.36,14.77-17.53,1.38-1.88,2.28-65.38,5.12-64.15,1.23.53,2.62,64,2.23,65.19-6.28,19.24-.87,40.52-12.14,59.23C410.56,314.12,399.23,332.47,395,353.84Zm48.27,68.79a54.35,54.35,0,0,1-5.41-1.65,67.37,67.37,0,0,1-7-3c-.58-.29-1.16-.58-1.73-.88a30.23,30.23,0,0,1,1.71-2.67,26.07,26.07,0,0,1,2.24-2.73,21.91,21.91,0,0,1,2.86-2.52,21.91,21.91,0,0,0-2.86,2.52,26.07,26.07,0,0,0-2.24,2.73,30.23,30.23,0,0,0-1.71,2.67c.57.3,1.15.59,1.73.88a67.37,67.37,0,0,0,7,3,54.35,54.35,0,0,0,5.41,1.65c1.21.3,2.44.56,3.68.77C445.7,423.19,444.47,422.93,443.26,422.63Zm16.55-1.29.38-.64c.14-.25.28-.49.41-.74-.13.25-.27.49-.41.74Zm1.47-3a5.17,5.17,0,0,0,.16-.74A5.17,5.17,0,0,1,461.28,418.35Zm-.53,1.3a8,8,0,0,0,.45-1.06A8,8,0,0,1,460.75,419.65Zm.72-2.46c0-.14,0-.28,0-.42q-.74-5.5-1.08-11c-.12-1.84-.2-3.69-.26-5.53.06,1.84.14,3.69.26,5.53q.35,5.47,1.08,11C461.46,416.91,461.47,417.05,461.47,417.19ZM472.62,83.36a16.51,16.51,0,0,0-1.16,1.71,16.51,16.51,0,0,1,1.16-1.71A17.38,17.38,0,0,1,476.15,80l0,0,0,0A17.38,17.38,0,0,0,472.62,83.36Zm5-4.37-.21.14Zm-.64.43-.11.07Zm-.42.29-.11.08ZM492.2,283.48l-.6,2.6c-.61-1.46-1.14-2.93-1.61-4.42.71.62,1.44,1.23,2.21,1.82Zm.08,4.14c.7,1.53,1.49,3,2.37,4.55C493.77,290.66,493,289.15,492.28,287.62Zm5.14-143.37c.35-1.88.81-3.87,1.34-5.94-.53,2.07-1,4.06-1.34,5.94a36.8,36.8,0,0,0-.64,5.35A36.8,36.8,0,0,1,497.42,144.25Zm20.23,19.36c.51-.1,1-.23,1.48-.37C518.65,163.38,518.16,163.51,517.65,163.61Zm8.28-3.8-.77.55Zm-1.12.79c-.37.24-.76.49-1.16.72C524.05,161.09,524.44,160.84,524.81,160.6Zm-1.18.73c-.4.23-.82.45-1.25.66C522.81,161.78,523.23,161.56,523.63,161.33Zm-1.64.84-.94.41Zm-1.42.59c-.32.13-.65.24-1,.34C519.92,163,520.25,162.89,520.57,162.76Zm7.86-5.07.66-.66Zm2.5-2.74c.06-.06.1-.13.16-.19S531,154.89,530.93,155Zm-1.49,1.7c.15-.15.29-.3.43-.46C529.73,156.35,529.59,156.5,529.44,156.65Zm.8-.87.33-.39Zm-2,2.1c-.29.27-.59.54-.91.81C527.64,158.42,527.94,158.15,528.23,157.88Zm-1.93,1.65L527,159Zm61.85,9.09c0,.09,0,.19,0,.29C588.12,168.81,588.13,168.71,588.15,168.62ZM591,348.73l-.12,0Zm2.52-1c.32-.17.67-.38,1-.62C594.14,347.37,593.79,347.58,593.47,347.75Zm6.68-8.88c0,.41,0,.79-.07,1.12s-.07.65-.11.91a3.31,3.31,0,0,1-.38,1.17,19.79,19.79,0,0,1-1.27,1.7,17.79,17.79,0,0,1-1.32,1.39,17.79,17.79,0,0,0,1.32-1.39,19.79,19.79,0,0,0,1.27-1.7,3.31,3.31,0,0,0,.38-1.17c0-.26.08-.57.11-.91s.06-.71.07-1.12a101.74,101.74,0,0,0-.4-10.72c-.06-.77-.12-1.57-.19-2.39-.1-1.23-.21-2.52-.34-3.86-.08-.9-.16-1.82-.26-2.76.1.94.18,1.86.26,2.76.13,1.34.24,2.63.34,3.86.07.82.13,1.62.19,2.39A101.74,101.74,0,0,1,600.15,338.87Zm-2.64-33.7c.24,2.24.48,4.41.7,6.51.11,1,.21,2.07.32,3.07s.2,2,.29,3c-.09-1-.19-1.95-.29-3s-.21-2-.32-3.07C598,309.58,597.75,307.41,597.51,305.17Zm-.61-148.29a15.06,15.06,0,0,1,3.59.6A15.06,15.06,0,0,0,596.9,156.88Zm35.37,106.2a9.64,9.64,0,0,1-2.4,1.27,6.29,6.29,0,0,1-1.35.31,6.29,6.29,0,0,0,1.35-.31,9.64,9.64,0,0,0,2.4-1.27c.35-.26.68-.52,1-.77C633,262.56,632.62,262.82,632.27,263.08Zm1.38-1.13a13.59,13.59,0,0,0,1.15-1.18h0A13.59,13.59,0,0,1,633.65,262Z"/><path class="cls-43" d="M572.75,342.6l.12.09Z"/><path class="cls-44" d="M573.09,342.85l.11.09Z"/><path class="cls-45" d="M573.45,343.13l.11.08Z"/><path class="cls-46" d="M572.43,342.35l.14.11Z"/><path class="cls-47" d="M573.85,343.42l.09.06Z"/><path class="cls-48" d="M572.07,342.07l.23.18Z"/><path class="cls-49" d="M571.82,341.86l.25.21-.25-.21Z"/><path class="cls-50" d="M574.72,344l0,0Z"/><path class="cls-51" d="M574.27,343.72l.07,0Z"/><g class="cls-16"><path class="cls-52" d="M796.09,390.46c-17.17-25.29-31.18-47.7-42.56-65.69C730,287.52,727.07,281.32,717.75,267c-15-23.09-38.46-115.41-74.62-150.41-1.62-2.18-3.27-4.35-4.88-6.55-1.11-1.51-2.25-3.13-3.44-4.76-7.84-7.12-14.4-13.11-19.3-17.58-3.77-6.43-9.79-15.53-17.5-22.59-2-1.82-4.46-3.77-7.77-3.93A11.75,11.75,0,0,0,583.76,63,11,11,0,0,0,580,66.67c-6.25,10.94,10.37,39.63,10.53,39.91h0c7.7,10.37,14.18,19.6,19.61,27.81.13-6.7.35-13.39.74-20.07a16.72,16.72,0,0,1,7.19,1.75,50.2,50.2,0,0,1,6,20.14l12.48,15.12c2,3.63,4.08,7.23,5.09,11.16C653.81,180.4,669.8,257,670.05,279.93c.12,10.87,17.93,16.37,26.93,25,8.68,8.3,14.91,16.43,16.46,26.17a32.94,32.94,0,0,1-.78,13.54c-2.75,11.61,13.45,41.9,84.44,117.79a85.09,85.09,0,0,0,40-14.4C819.88,425,806.12,405.25,796.09,390.46Z"/></g><path class="cls-53" d="M611,80.51l.68,1Z"/><path class="cls-54" d="M611.92,81.89l.59.91Z"/><path class="cls-55" d="M622.82,94.34l.35.32Z"/><path class="cls-56" d="M621.65,93.27l.09.09Z"/><path class="cls-57" d="M612.81,83.26l.51.8Z"/><path class="cls-58" d="M620.4,92.14l.21.19Z"/><path class="cls-59" d="M610,79.1l.79,1.15Z"/><path class="cls-60" d="M600.16,67.15A91.17,91.17,0,0,1,610,79,91.85,91.85,0,0,0,600.16,67.15Z"/><path class="cls-61" d="M614.52,86l.3.49Z"/><path class="cls-62" d="M613.67,84.62l.42.68Z"/><path class="cls-63" d="M624.63,96l.73.66Z"/><path class="cls-64" d="M626.85,98l-.62-.57Z"/><path class="cls-65" d="M628.57,99.58l-.92-.84Z"/><path class="cls-66" d="M630.69,101.51l-1.13-1Z"/><path class="cls-67" d="M632.31,103l-.88-.8Z"/><path class="cls-68" d="M634.45,104.92l-1.37-1.24Z"/><path class="cls-69" d="M618.36,90.27l.32.29Z"/><path class="cls-70" d="M616.05,88.16l.5.46Z"/><path class="cls-71" d="M673,138.47h0c-.68.7-15.51-12.63-30.12-25.86l-8.15-7.39,0,0c1.19,1.63,2.33,3.25,3.44,4.76,1.61,2.2,3.26,4.37,4.88,6.55,36.16,35,59.64,127.32,74.62,150.41C705.43,241.74,690.23,158.93,673,138.47Z"/><path class="cls-72" d="M617.16,89.17l.5.47Z"/><path class="cls-73" d="M671.67,136.85q-9.63-11.34-20-22.06A147.71,147.71,0,0,0,671.67,136.85Z"/><path class="cls-53" d="M611,80.51l.68,1Z"/><path class="cls-54" d="M611.92,81.89l.59.91Z"/><path class="cls-55" d="M622.82,94.34l.35.32Z"/><path class="cls-56" d="M621.65,93.27l.09.09Z"/><path class="cls-57" d="M612.81,83.26l.51.8Z"/><path class="cls-58" d="M620.4,92.14l.21.19Z"/><path class="cls-59" d="M610,79.1l.79,1.15Z"/><path class="cls-60" d="M600.16,67.15A91.17,91.17,0,0,1,610,79,91.85,91.85,0,0,0,600.16,67.15Z"/><path class="cls-61" d="M614.52,86l.3.49Z"/><path class="cls-62" d="M613.67,84.62l.42.68Z"/><path class="cls-63" d="M624.63,96l.73.66Z"/><path class="cls-64" d="M626.85,98l-.62-.57Z"/><path class="cls-65" d="M628.57,99.58l-.92-.84Z"/><path class="cls-66" d="M630.69,101.51l-1.13-1Z"/><path class="cls-67" d="M632.31,103l-.88-.8Z"/><path class="cls-68" d="M634.45,104.92l-1.37-1.24Z"/><path class="cls-69" d="M618.36,90.27l.32.29Z"/><path class="cls-70" d="M616.05,88.16l.5.46Z"/><path class="cls-71" d="M673,138.47h0c-.68.7-15.51-12.63-30.12-25.86l-8.15-7.39,0,0c1.19,1.63,2.33,3.25,3.44,4.76,1.61,2.2,3.26,4.37,4.88,6.55,36.16,35,59.64,127.32,74.62,150.41C705.43,241.74,690.23,158.93,673,138.47Z"/><path class="cls-72" d="M617.16,89.17l.5.47Z"/><path class="cls-73" d="M671.67,136.85q-9.63-11.34-20-22.06A147.71,147.71,0,0,0,671.67,136.85Z"/><path class="cls-53" d="M611,80.51l.68,1Z"/><path class="cls-54" d="M611.92,81.89l.59.91Z"/><path class="cls-55" d="M622.82,94.34l.35.32Z"/><path class="cls-56" d="M621.65,93.27l.09.09Z"/><path class="cls-57" d="M612.81,83.26l.51.8Z"/><path class="cls-58" d="M620.4,92.14l.21.19Z"/><path class="cls-59" d="M610,79.1l.79,1.15Z"/><path class="cls-60" d="M600.16,67.15A91.17,91.17,0,0,1,610,79,91.85,91.85,0,0,0,600.16,67.15Z"/><path class="cls-61" d="M614.52,86l.3.49Z"/><path class="cls-62" d="M613.67,84.62l.42.68Z"/><path class="cls-63" d="M624.63,96l.73.66Z"/><path class="cls-64" d="M626.85,98l-.62-.57Z"/><path class="cls-65" d="M628.57,99.58l-.92-.84Z"/><path class="cls-66" d="M630.69,101.51l-1.13-1Z"/><path class="cls-67" d="M632.31,103l-.88-.8Z"/><path class="cls-68" d="M634.45,104.92l-1.37-1.24Z"/><path class="cls-69" d="M618.36,90.27l.32.29Z"/><path class="cls-70" d="M616.05,88.16l.5.46Z"/><path class="cls-71" d="M673,138.47h0c-.68.7-15.51-12.63-30.12-25.86l-8.15-7.39,0,0c1.19,1.63,2.33,3.25,3.44,4.76,1.61,2.2,3.26,4.37,4.88,6.55,36.16,35,59.64,127.32,74.62,150.41C705.43,241.74,690.23,158.93,673,138.47Z"/><path class="cls-72" d="M617.16,89.17l.5.47Z"/><path class="cls-73" d="M671.67,136.85q-9.63-11.34-20-22.06A147.71,147.71,0,0,0,671.67,136.85Z"/><path class="cls-53" d="M611,80.51l.68,1Z"/><path class="cls-54" d="M611.92,81.89l.59.91Z"/><path class="cls-55" d="M622.82,94.34l.35.32Z"/><path class="cls-56" d="M621.65,93.27l.09.09Z"/><path class="cls-57" d="M612.81,83.26l.51.8Z"/><path class="cls-58" d="M620.4,92.14l.21.19Z"/><path class="cls-59" d="M610,79.1l.79,1.15Z"/><path class="cls-60" d="M600.16,67.15A91.17,91.17,0,0,1,610,79,91.85,91.85,0,0,0,600.16,67.15Z"/><path class="cls-61" d="M614.52,86l.3.49Z"/><path class="cls-62" d="M613.67,84.62l.42.68Z"/><path class="cls-63" d="M624.63,96l.73.66Z"/><path class="cls-64" d="M626.85,98l-.62-.57Z"/><path class="cls-65" d="M628.57,99.58l-.92-.84Z"/><path class="cls-66" d="M630.69,101.51l-1.13-1Z"/><path class="cls-67" d="M632.31,103l-.88-.8Z"/><path class="cls-68" d="M634.45,104.92l-1.37-1.24Z"/><path class="cls-69" d="M618.36,90.27l.32.29Z"/><path class="cls-70" d="M616.05,88.16l.5.46Z"/><path class="cls-71" d="M673,138.47h0c-.68.7-15.51-12.63-30.12-25.86l-8.15-7.39,0,0c1.19,1.63,2.33,3.25,3.44,4.76,1.61,2.2,3.26,4.37,4.88,6.55,36.16,35,59.64,127.32,74.62,150.41C705.43,241.74,690.23,158.93,673,138.47Z"/><path class="cls-72" d="M617.16,89.17l.5.47Z"/><path class="cls-53" d="M611,80.51l.68,1Z"/><path class="cls-54" d="M611.92,81.89l.59.91Z"/><path class="cls-55" d="M622.82,94.34l.35.32Z"/><path class="cls-56" d="M621.65,93.27l.09.09Z"/><path class="cls-57" d="M612.81,83.26l.51.8Z"/><path class="cls-58" d="M620.4,92.14l.21.19Z"/><path class="cls-59" d="M610,79.1l.79,1.15Z"/><path class="cls-60" d="M600.16,67.15A91.17,91.17,0,0,1,610,79,91.85,91.85,0,0,0,600.16,67.15Z"/><path class="cls-61" d="M614.52,86l.3.49Z"/><path class="cls-62" d="M613.67,84.62l.42.68Z"/><path class="cls-63" d="M624.63,96l.73.66Z"/><path class="cls-64" d="M626.85,98l-.62-.57Z"/><path class="cls-65" d="M628.57,99.58l-.92-.84Z"/><path class="cls-66" d="M630.69,101.51l-1.13-1Z"/><path class="cls-67" d="M632.31,103l-.88-.8Z"/><path class="cls-68" d="M634.45,104.92l-1.37-1.24Z"/><path class="cls-69" d="M618.36,90.27l.32.29Z"/><path class="cls-70" d="M616.05,88.16l.5.46Z"/><path class="cls-71" d="M673,138.47h0c-.68.7-15.51-12.63-30.12-25.86l-8.15-7.39,0,0c1.19,1.63,2.33,3.25,3.44,4.76,1.61,2.2,3.26,4.37,4.88,6.55,36.16,35,59.64,127.32,74.62,150.41C705.43,241.74,690.23,158.93,673,138.47Z"/><path class="cls-72" d="M617.16,89.17l.5.47Z"/><path class="cls-74" d="M593.56,13.29c-4.57.08-52.21-2.4-53.15-2.38h0c-15.82,1.39-46.74-6-47-6-1.2-.89-12-5.53-16.48-4.88-4.55,1.36-8.39,4.23-12.13,6.85-6.43,4.53-10.49,10.4-4.27,18.26,6.48,4.91,13.88,8,21.39,10.87,8.28,3.19,14.25,8.36,17.23,17.38,7.79,23.54,13.22,24.72,31.18,6.94,5.59-5.53,10.82-11.13,19.45-8.49,10.56,3.22,18.73.43,27.24-6.6,12.4-10.24,41.73-6.16,48.78,5.56a55.7,55.7,0,0,0,.59-7C625.36,17.16,620.73,12.81,593.56,13.29Z"/><path class="cls-75" d="M593.56,13.29c-4.57.08-52.21-2.4-53.15-2.38h0c-15.82,1.39-46.74-6-47-6-1.2-.89-12-5.53-16.48-4.88-4.55,1.36-8.39,4.23-12.13,6.85-6.43,4.53-10.49,10.4-4.27,18.26,6.48,4.91,13.88,8,21.39,10.87,8.28,3.19,14.25,8.36,17.23,17.38,7.79,23.54,13.22,24.72,31.18,6.94,5.59-5.53,10.82-11.13,19.45-8.49,10.56,3.22,18.73.43,27.24-6.6,12.4-10.24,41.73-6.16,48.78,5.56a55.7,55.7,0,0,0,.59-7C625.36,17.16,620.73,12.81,593.56,13.29Z"/><path class="cls-76" d="M561.71,321.4a.36.36,0,0,1,0,.1h0Z"/><path class="cls-77" d="M559.29,303.07v0Z"/><path class="cls-78" d="M559.46,305.34v0Z"/><path class="cls-79" d="M561,317.76h0Z"/><path class="cls-80" d="M561.37,319.75a1.55,1.55,0,0,0,0-.21A1.55,1.55,0,0,1,561.37,319.75Z"/><g class="cls-1"><path class="cls-81" d="M796.09,390.46c9.79,14.44,23.16,33.6,39.81,55.93,6.06-7.22,2.88-14.89-9.19-25.27-12.72-27.05-32-50.15-51.59-70.79a315.28,315.28,0,0,1-20.62-24C765.7,344,779.41,365.88,796.09,390.46Z"/></g><g class="cls-1"><path class="cls-82" d="M796.09,390.46c9.79,14.44,23.16,33.6,39.81,55.93,6.06-7.22,2.88-14.89-9.19-25.27-12.72-27.05-32-50.15-51.59-70.79a315.28,315.28,0,0,1-20.62-24C765.7,344,779.41,365.88,796.09,390.46Z"/></g><path class="cls-83" d="M517.33,430.42l.21-.05c-3.62.07-7.28.05-11-.09C512,430.77,515.72,430.77,517.33,430.42Z"/><g class="cls-1"><path class="cls-84" d="M384.11,306.82l.33-.48h0Z"/></g><g class="cls-1"><path class="cls-85" d="M568.78,361.42l.21.18-.21-.18Z"/></g><path class="cls-86" d="M807.38,437.73s-22.87-9.54-7.8-15.33c0,0,0-17.32,13-8,0,0-5-28.34,22.62-17.59,0,0,5.76-31.09,18.71-15.12,0,0-1.38-19.5,8-11.63l9.35,7.88s17.18-14.28,25.65,11.59c0,0,24.81,3.53,21.22,22.15,0,0,15.31-13.95,15.35,11,0,0,28.72,2.5,15.54,20.83,0,0,24.84,15.57-3.8,21.65,0,0,5.51,13.32-18.89,9.44,0,0-3,12.67-37.68,1.89,0,0-17,14.54-36.17,5.89,0,0-38,6.73-38.25-4.9,0,0-62,4.41-49.38-12.49,0,0-17.26-11.51-.31-12,0,0,3.42-10.31,20.92-5.25C785.39,447.68,782,435.08,807.38,437.73Z"/><path class="cls-87" d="M807.38,437.73s-22.87-9.54-7.8-15.33c0,0,0-17.32,13-8,0,0-5-28.34,22.62-17.59,0,0,5.76-31.09,18.71-15.12,0,0-1.38-19.5,8-11.63l9.35,7.88s17.18-14.28,25.65,11.59c0,0,24.81,3.53,21.22,22.15,0,0,15.31-13.95,15.35,11,0,0,28.72,2.5,15.54,20.83,0,0,24.84,15.57-3.8,21.65,0,0,5.51,13.32-18.89,9.44,0,0-3,12.67-37.68,1.89,0,0-17,14.54-36.17,5.89,0,0-38,6.73-38.25-4.9,0,0-62,4.41-49.38-12.49,0,0-17.26-11.51-.31-12,0,0,3.42-10.31,20.92-5.25C785.39,447.68,782,435.08,807.38,437.73Z"/><path class="cls-88" d="M947.12,446.51s4.8-7.22-8.28-7.47c0,0,6.12-17.79-13.47-11.81,0,0-4.4-9-21,.17,0,0,5.87-15.1-11.87-16.11,0,0-4.84-17.15-12.57-10.89s-4.11,7.68-4.11,7.68-11.49-7.4-18.38,13.07c0,0-13-7.2-12,13.16,0,0-21.1-13-21,6.68,0,0-17.09-2.3-14.52,11.35,0,0-20.48,5.09,3.3,17.08,0,0-4.5,10.55,15.78,7.38,0,0,12.75,17.18,53.63,7.36,0,0,41.3,8.79,41.4-.39,0,0,49-6.24,38.94-17.87,0,0,4.58-8-5.73-6.8C957.26,459.1,968.27,444.31,947.12,446.51Z"/><path class="cls-89" d="M947.12,446.51s4.8-7.22-8.28-7.47c0,0,6.12-17.79-13.47-11.81,0,0-4.4-9-21,.17,0,0,5.87-15.1-11.87-16.11,0,0-4.84-17.15-12.57-10.89s-4.11,7.68-4.11,7.68-11.49-7.4-18.38,13.07c0,0-13-7.2-12,13.16,0,0-21.1-13-21,6.68,0,0-17.09-2.3-14.52,11.35,0,0-20.48,5.09,3.3,17.08,0,0-4.5,10.55,15.78,7.38,0,0,12.75,17.18,53.63,7.36,0,0,41.3,8.79,41.4-.39,0,0,49-6.24,38.94-17.87,0,0,4.58-8-5.73-6.8C957.26,459.1,968.27,444.31,947.12,446.51Z"/><path class="cls-90" d="M950.63,285.25C894.31,290.74,856,338.09,852.94,342a156.39,156.39,0,0,0-27.38,54.08c-1.88,6.72-3.19,19.21-5.81,44.18-1.68,16.05-2.63,29.43,3.55,32.75,2.27,1.22,5.9,1.3,10.11,1.39,5,.11,7.63.16,9.16-1.51,1.89-2.08.6-5.12-.66-12.38-.32-1.89-.75-7.12-1.59-17.59-.32-3.91-.69-9.53-.86-16.41a118.1,118.1,0,0,1,1.34-18.8A145.23,145.23,0,0,1,848.52,380c2.83-7.21,6.55-14.45,6.55-14.45h0a118.37,118.37,0,0,1,7.64-12.11,154,154,0,0,1,19.7-22.92c8.28-7.81,27.77-26.21,58.52-36.39,18.92-6.27,34.26-6.83,34.11-8.34C974.9,284.46,961.31,284.21,950.63,285.25Z"/><path class="cls-91" d="M950.63,285.25C894.31,290.74,856,338.09,852.94,342a156.39,156.39,0,0,0-27.38,54.08c-1.88,6.72-3.19,19.21-5.81,44.18-1.68,16.05-2.63,29.43,3.55,32.75,2.27,1.22,5.9,1.3,10.11,1.39,5,.11,7.63.16,9.16-1.51,1.89-2.08.6-5.12-.66-12.38-.32-1.89-.75-7.12-1.59-17.59-.32-3.91-.69-9.53-.86-16.41a118.1,118.1,0,0,1,1.34-18.8A145.23,145.23,0,0,1,848.52,380c2.83-7.21,6.55-14.45,6.55-14.45h0a118.37,118.37,0,0,1,7.64-12.11,154,154,0,0,1,19.7-22.92c8.28-7.81,27.77-26.21,58.52-36.39,18.92-6.27,34.26-6.83,34.11-8.34C974.9,284.46,961.31,284.21,950.63,285.25Z"/><path class="cls-92" d="M929.53,281.91s2.19,1.32,3.54,2.29a22.46,22.46,0,0,1,2.63,2.33,113.16,113.16,0,0,1,39.45-.24s-14-28.54-35.47-34.4c0,0-1.42,2.38-1.91,3.15a39.06,39.06,0,0,1-2.52,3.45s-.44-2.91-.69-3.83-1.39-3.79-1.39-3.79c-11.92-.57-25,5.29-35.22,15.72,0,0,6,9.71,3.88,8.62-1.59-.82-9.35-2.19-9.35-2.19a79.55,79.55,0,0,0-7.66,13.07,29.7,29.7,0,0,1,5-1,30.14,30.14,0,0,1,4,.2s-2.54.83-5.22,2a27.59,27.59,0,0,0-5.14,2.88,64.14,64.14,0,0,0-3.34,19.22,130.32,130.32,0,0,1,21.59-12.17s.52-2.18.68-2.89a17.79,17.79,0,0,1,.95-2.71,20.07,20.07,0,0,0,.3,2.44,16.33,16.33,0,0,0,.67,2,144.61,144.61,0,0,1,25-8.26,15.77,15.77,0,0,0,.37-2.66C929.73,284.07,929.53,281.91,929.53,281.91Z"/><path class="cls-93" d="M929.53,281.91s2.19,1.32,3.54,2.29a22.46,22.46,0,0,1,2.63,2.33,113.16,113.16,0,0,1,39.45-.24s-14-28.54-35.47-34.4c0,0-1.42,2.38-1.91,3.15a39.06,39.06,0,0,1-2.52,3.45s-.44-2.91-.69-3.83-1.39-3.79-1.39-3.79c-11.92-.57-25,5.29-35.22,15.72,0,0,6,9.71,3.88,8.62-1.59-.82-9.35-2.19-9.35-2.19a79.55,79.55,0,0,0-7.66,13.07,29.7,29.7,0,0,1,5-1,30.14,30.14,0,0,1,4,.2s-2.54.83-5.22,2a27.59,27.59,0,0,0-5.14,2.88,64.14,64.14,0,0,0-3.34,19.22,130.32,130.32,0,0,1,21.59-12.17s.52-2.18.68-2.89a17.79,17.79,0,0,1,.95-2.71,20.07,20.07,0,0,0,.3,2.44,16.33,16.33,0,0,0,.67,2,144.61,144.61,0,0,1,25-8.26,15.77,15.77,0,0,0,.37-2.66C929.73,284.07,929.53,281.91,929.53,281.91Z"/><path class="cls-94" d="M883.51,290.18a64.06,64.06,0,0,0-3.33,19.16c4.73-7.5,18.73-27.3,37.92-33.45,18-5.76,42.13.5,57,10.3-.91-1.82-14.71-28.64-35.42-34.3,0,0-1.42,2.38-1.91,3.15a39.06,39.06,0,0,1-2.52,3.45s-.44-2.91-.69-3.83-1.39-3.79-1.39-3.79c-11.92-.57-25,5.29-35.22,15.72,0,0,6,9.71,3.88,8.62-1.59-.82-9.35-2.19-9.35-2.19a79.55,79.55,0,0,0-7.66,13.07,29.7,29.7,0,0,1,5-1,30.14,30.14,0,0,1,4,.2s-2.54.83-5.22,2A27.59,27.59,0,0,0,883.51,290.18Z"/><path class="cls-95" d="M975.15,286.29S955,269.12,924.61,274c-22.29,3.55-37.27,25.37-37.27,25.37s15.42-19.48,36.08-24C946,270.47,964.51,280.62,975.15,286.29Z"/><path class="cls-96" d="M975.15,286.29S955,269.12,924.61,274c-22.29,3.55-37.27,25.37-37.27,25.37s15.42-19.48,36.08-24C946,270.47,964.51,280.62,975.15,286.29Z"/><path class="cls-97" d="M963.78,262.71a10.83,10.83,0,0,1-3.49-.39,47.32,47.32,0,0,1-3-17.59c1.35-.12,2.4-.31,2.4-.31a8.1,8.1,0,0,1-2.07-3.85c3.91-30,39.05-46,39.05-46a1.45,1.45,0,0,0-.16.18c-2.57,2.23-9,8.24-10.26,13.34a30.38,30.38,0,0,1,8.23-4c-.53,6-.76,14.07-1.07,21.86a34.14,34.14,0,0,0-7.74,2.29,41.9,41.9,0,0,1,7.51,2.73c-.25,5-.57,9.71-1.1,13.4-2.13,15.05-17.27,42.1-17.27,42.1a83.19,83.19,0,0,1-13.67-21.82A11,11,0,0,0,963.78,262.71Z"/><path class="cls-98" d="M963.78,262.71a10.83,10.83,0,0,1-3.49-.39,47.32,47.32,0,0,1-3-17.59c1.35-.12,2.4-.31,2.4-.31a8.1,8.1,0,0,1-2.07-3.85c3.91-30,39.05-46,39.05-46a1.45,1.45,0,0,0-.16.18c-2.57,2.23-9,8.24-10.26,13.34a30.38,30.38,0,0,1,8.23-4c-.53,6-.76,14.07-1.07,21.86a34.14,34.14,0,0,0-7.74,2.29,41.9,41.9,0,0,1,7.51,2.73c-.25,5-.57,9.71-1.1,13.4-2.13,15.05-17.27,42.1-17.27,42.1a83.19,83.19,0,0,1-13.67-21.82A11,11,0,0,0,963.78,262.71Z"/><path class="cls-99" d="M963.78,262.71a10.83,10.83,0,0,1-3.49-.39,47.32,47.32,0,0,1-3-17.59c1.35-.12,2.4-.31,2.4-.31a8.1,8.1,0,0,1-2.07-3.85c3.91-30,39.05-46,39.05-46a1.45,1.45,0,0,0-.16.18c-2.52,2.19-8.77,8-10.18,13.07-4.34,7.6-8.43,18.8-10.4,35.18-2.31,19.26-2.1,33.5-1.16,43.41a83.59,83.59,0,0,1-13.63-21.78A11,11,0,0,0,963.78,262.71Z"/><path class="cls-100" d="M974.79,286.36s-3.13-51.39,11.56-78.59C986.35,207.77,969.13,231.39,974.79,286.36Z"/><path class="cls-101" d="M974.79,286.36s-3.13-51.39,11.56-78.59C986.35,207.77,969.13,231.39,974.79,286.36Z"/><path class="cls-102" d="M998.66,311.77a31.69,31.69,0,0,0-6.22,3.56c-.88-1.17-1.3-1.73-2.15-2.9a15.55,15.55,0,0,1,5.07-4.15,29,29,0,0,0-6.88,1.6c-7.42-10.58-12.74-20.48-13.21-24.29,0,0,37,.57,58.57,21.39a41.41,41.41,0,0,1-1.81,5.52,14.71,14.71,0,0,0,5.42-1.64,48.86,48.86,0,0,1,11.26,27.5,16,16,0,0,1-3.78.54,15.93,15.93,0,0,0,3.94,1.61,80.58,80.58,0,0,1-2.45,23.91s-16.35-14.65-31.89-26c-6.63-4.82-13.64-12.34-19.89-20.27A47.93,47.93,0,0,1,998.66,311.77Z"/><path class="cls-103" d="M998.66,311.77a31.69,31.69,0,0,0-6.22,3.56c-.88-1.17-1.3-1.73-2.15-2.9a15.55,15.55,0,0,1,5.07-4.15,29,29,0,0,0-6.88,1.6c-7.42-10.58-12.74-20.48-13.21-24.29,0,0,37,.57,58.57,21.39a41.41,41.41,0,0,1-1.81,5.52,14.71,14.71,0,0,0,5.42-1.64,48.86,48.86,0,0,1,11.26,27.5,16,16,0,0,1-3.78.54,15.93,15.93,0,0,0,3.94,1.61,80.58,80.58,0,0,1-2.45,23.91s-16.35-14.65-31.89-26c-6.63-4.82-13.64-12.34-19.89-20.27A47.93,47.93,0,0,1,998.66,311.77Z"/><path class="cls-104" d="M994.64,318.19a47.93,47.93,0,0,1,4-6.42,31.69,31.69,0,0,0-6.22,3.56c-.88-1.17-1.3-1.73-2.15-2.9a15.55,15.55,0,0,1,5.07-4.15,29,29,0,0,0-6.88,1.6c-7.4-10.55-12.71-20.42-13.2-24.26,17.76,9.34,61.13,36,71.14,78.8,0,0-16.36-14.66-31.89-26C1007.9,333.64,1000.89,326.12,994.64,318.19Z"/><path class="cls-105" d="M975.28,285.62s51.61,21.47,67.55,67.35C1042.83,353,1030.71,317.88,975.28,285.62Z"/><path class="cls-106" d="M975.28,285.62s51.61,21.47,67.55,67.35C1042.83,353,1030.71,317.88,975.28,285.62Z"/><path class="cls-107" d="M1016.17,235.32C986.71,247,975,285.3,975,285.3S993,279.36,1002.16,270c3.45-3.51,6.77-6.69,9.94-9.6a11.59,11.59,0,0,0-4.33-4.15,15.44,15.44,0,0,1,7.16,1.6c2.47-2.2,4.85-4.22,7.11-6.05-1.55-1.38-3.7-3-5.55-3.21a26.41,26.41,0,0,1,8.77.63q3.81-3,7.1-5.27c-1.49-.88-4-2.07-6.11-1.61a19.79,19.79,0,0,1,10.69-1.49c8.31-5.4,13.1-7.25,13.1-7.25S1042.12,225,1016.17,235.32Z"/><path class="cls-108" d="M1016.17,235.32C986.71,247,975,285.3,975,285.3S993,279.36,1002.16,270c3.45-3.51,6.77-6.69,9.94-9.6a11.59,11.59,0,0,0-4.33-4.15,15.44,15.44,0,0,1,7.16,1.6c2.47-2.2,4.85-4.22,7.11-6.05-1.55-1.38-3.7-3-5.55-3.21a26.41,26.41,0,0,1,8.77.63q3.81-3,7.1-5.27c-1.49-.88-4-2.07-6.11-1.61a19.79,19.79,0,0,1,10.69-1.49c8.31-5.4,13.1-7.25,13.1-7.25S1042.12,225,1016.17,235.32Z"/><path class="cls-109" d="M1019.72,237.25c15.45-4.94,24.82-4.9,30.32-3.65h0s-4.79,1.85-13.1,7.25a19.79,19.79,0,0,0-10.69,1.49c2.13-.46,4.62.73,6.11,1.61q-3.3,2.32-7.1,5.27a26.41,26.41,0,0,0-8.77-.63c1.85.23,4,1.83,5.55,3.21q-3.39,2.76-7.11,6.05a15.44,15.44,0,0,0-7.16-1.6,11.59,11.59,0,0,1,4.33,4.15c-3.17,2.91-6.49,6.09-9.94,9.6C993,279.36,975,285.3,975,285.3v-.05C981.14,274.39,999.89,243.58,1019.72,237.25Z"/><path class="cls-110" d="M975,285.3s11-21.91,25.54-36c15.53-15.11,31-16.06,41-16.35-.86.34-22.93,1.52-36.1,13.44C992.82,257.85,986.27,266.65,975,285.3Z"/><path class="cls-111" d="M975,285.3s11-21.91,25.54-36c15.53-15.11,31-16.06,41-16.35-.86.34-22.93,1.52-36.1,13.44C992.82,257.85,986.27,266.65,975,285.3Z"/><path class="cls-112" d="M1002.11,272.91a14.5,14.5,0,0,1-1.38,2.86,12,12,0,0,0-1.94-1.89,108.53,108.53,0,0,0-24.55,11.71s10.12.77,24,2.71c1.06-1.42,2-2.94,1.89-4a16.71,16.71,0,0,1,.77,4.37c12.87,1.87,28.45,4.69,42.21,8.74-.55-2.06-1.43-5-2.27-6a32.5,32.5,0,0,1,5.29,6.95,101.76,101.76,0,0,1,18.23,7.46S1048.74,260.46,1002.11,272.91Z"/><path class="cls-113" d="M1002.11,272.91a14.5,14.5,0,0,1-1.38,2.86,12,12,0,0,0-1.94-1.89,108.53,108.53,0,0,0-24.55,11.71s10.12.77,24,2.71c1.06-1.42,2-2.94,1.89-4a16.71,16.71,0,0,1,.77,4.37c12.87,1.87,28.45,4.69,42.21,8.74-.55-2.06-1.43-5-2.27-6a32.5,32.5,0,0,1,5.29,6.95,101.76,101.76,0,0,1,18.23,7.46S1048.74,260.46,1002.11,272.91Z"/><path class="cls-114" d="M974.25,285.58h0s10.12.77,24,2.71c1.06-1.42,2-2.94,1.89-4a16.71,16.71,0,0,1,.77,4.37c12.87,1.87,28.45,4.69,42.21,8.74-.55-2.06-1.43-5-2.27-6a32.5,32.5,0,0,1,5.29,6.95,100.64,100.64,0,0,1,18.22,7.46C1040.34,266.2,989.82,279.66,974.25,285.58Z"/><path class="cls-115" d="M974.24,285.59c5.81-1.66,53.8-19.22,83.28,11,0,0-13.19-18-44.3-18.68C997.75,277.56,981,282.33,974.24,285.59Z"/><path class="cls-116" d="M974.24,285.59c5.81-1.66,53.8-19.22,83.28,11,0,0-13.19-18-44.3-18.68C997.75,277.56,981,282.33,974.24,285.59Z"/><path class="cls-117" d="M982.3,350.1c12.11-29.29-7.26-64.32-7.26-64.32s-8.22,17-7.91,30.12c.12,4.92.1,9.52,0,13.81a11.6,11.6,0,0,0,6-.21,15.45,15.45,0,0,1-6.13,4q-.21,5-.6,9.32c2.07-.15,4.71-.58,6.17-1.75A26.82,26.82,0,0,1,966,347c-.34,3.19-.73,6.11-1.15,8.76,1.67-.45,4.26-1.42,5.41-3.27a19.87,19.87,0,0,1-6.37,8.72C962,370.88,960,375.61,960,375.61S971.63,375.9,982.3,350.1Z"/><path class="cls-118" d="M982.3,350.1c12.11-29.29-7.26-64.32-7.26-64.32s-8.22,17-7.91,30.12c.12,4.92.1,9.52,0,13.81a11.6,11.6,0,0,0,6-.21,15.45,15.45,0,0,1-6.13,4q-.21,5-.6,9.32c2.07-.15,4.71-.58,6.17-1.75A26.82,26.82,0,0,1,966,347c-.34,3.19-.73,6.11-1.15,8.76,1.67-.45,4.26-1.42,5.41-3.27a19.87,19.87,0,0,1-6.37,8.72C962,370.88,960,375.61,960,375.61S971.63,375.9,982.3,350.1Z"/><path class="cls-119" d="M978.44,351.31c-7.21,14.53-13.76,21.23-18.49,24.3h0s2-4.73,3.91-14.45a19.87,19.87,0,0,0,6.37-8.72c-1.15,1.85-3.74,2.82-5.41,3.27.42-2.65.81-5.57,1.15-8.76a26.82,26.82,0,0,0,6.57-5.86c-1.46,1.17-4.1,1.6-6.17,1.75.25-2.91.45-6,.6-9.32a15.45,15.45,0,0,0,6.13-4,11.6,11.6,0,0,1-6,.21c.12-4.29.14-8.89,0-13.81-.31-13.12,7.91-30.12,7.91-30.12l0,0C978.62,297.76,987.7,332.66,978.44,351.31Z"/><path class="cls-120" d="M975,285.78s8.05,23.17,8.09,43.41c0,21.67-10,33.44-16.82,40.85.35-.85,14.86-17.52,15.47-35.27C982.37,317.66,980.61,306.82,975,285.78Z"/><path class="cls-121" d="M975,285.78s8.05,23.17,8.09,43.41c0,21.67-10,33.44-16.82,40.85.35-.85,14.86-17.52,15.47-35.27C982.37,317.66,980.61,306.82,975,285.78Z"/><path class="cls-122" d="M969.9,286.9c.56-.09,5.45-.2,5.75-.17s-10.38-1.09-11-1.13c-5.85-.41-15.1.88-26.09,4.45-.31-.92-.61-1.74-.86-2.39l-3.5.84c.38.83.74,1.72,1.07,2.67A143.33,143.33,0,0,0,913,301.38c-1.11-1.62-2.29-3.35-3.1-4.32-1.19.74-2.44.81-3.61,1.55a51.94,51.94,0,0,1,3.22,4.8A156.66,156.66,0,0,0,885,321.56c-1.89-1.72-5.07-3.46-6.58-4.68-1.13,1.2-2.52,1.8-3.56,2.93,1.79,1.24,5.19,3.32,6.91,4.76-.82.78-1.63,1.56-2.43,2.37a173.67,173.67,0,0,0-12.7,13.89c-2.32-2.17-5.75-4.43-7.57-5.91-1.22,1.3-2.39,2.57-3.52,3.79a86,86,0,0,1,8.17,5.83A141.45,141.45,0,0,0,849.2,368a68.47,68.47,0,0,0-10.77-3.76c-.82,1.94-2,3.58-2.83,5.52a51.54,51.54,0,0,1,11,3.77c-1.08,2.47-2.12,5.05-3.11,7.72a142.07,142.07,0,0,0-7.89,33.42,119.06,119.06,0,0,0-12.84-1.79c-.4,2.37-.77,4.68-1.12,6.9A68.94,68.94,0,0,1,835.06,421a150.76,150.76,0,0,0,.66,27.32,155.31,155.31,0,0,0-16.42,4.8c.69,2.7-.62,5.6.05,8.11a124.57,124.57,0,0,1,17.37-5.64c.75,7.2,2.2,11.44,2.51,14.75.21,2.29.29,3.67,1,3.78a3.13,3.13,0,0,0,2.38-1.27c1.08-1.31.85-3.09.52-5.32-.37-2.46-1-5.34-1.53-8.65-.44-2.89-1.51-20-2.1-32.41-1.18-24.75,11.48-52.62,13.37-56.69C852.83,369.81,885.07,300.23,969.9,286.9Z"/><path class="cls-123" d="M173.54,284.69s61.33,84.28,72.79,208.5c0,0,21.18,9.19,34.49-7.08C280.82,486.11,250.56,338.79,173.54,284.69Z"/><path class="cls-124" d="M173.54,284.69s61.33,84.28,72.79,208.5c0,0,21.18,9.19,34.49-7.08C280.82,486.11,250.56,338.79,173.54,284.69Z"/><path class="cls-125" d="M252,462.42a331.42,331.42,0,0,0-16.13-64.69c5.7-4.6,10.1-6.32,14-7.18-.5-1.15-1-2.3-1.51-3.45-3.14.9-9.46,2.9-13.58,7.57-6.75-18.15-14.37-34.05-22-50.54q-1-2.17-2-4.27c2.32-2.62,6.62-5,9.62-4.67-.69-1-1.38-2.06-2.08-3.08a18,18,0,0,0-9,4.83c-14-28-28.7-45.06-35.42-52l-.32-.23s61.33,84.28,72.79,208.5a37.37,37.37,0,0,0,9.31,2.32c-.79-10.22-1.81-19.75-3-28.65,9.77-4.9,15.33-6,21.67-6.84-.43-1.57-.9-3.19-1.38-4.86C267.67,456.27,260,457.88,252,462.42Z"/><path class="cls-126" d="M220.11,254.08s-1.61,2.66-2.5,4.47a28.33,28.33,0,0,0-1.51,4,137.55,137.55,0,0,0-42.53,22.13s-1.12-38.63,18.6-57.1c0,0,2.88,1.75,3.83,2.3a49,49,0,0,0,4.67,2.27s-1.18-3.37-1.43-4.5-.66-4.86-.66-4.86c12.49-7.39,29.9-8.52,46.78-3.1,0,0-.91,13.82.72,11.46,1.24-1.78,8.81-7.66,8.81-7.66a96.87,96.87,0,0,1,15.64,9.7,37.39,37.39,0,0,0-5.95,1.79,38,38,0,0,0-4.21,2.51s3.2-.55,6.74-.83a34.19,34.19,0,0,1,7.15.18,77.56,77.56,0,0,1,14.5,18.77,157.6,157.6,0,0,0-30.11-.83l-2.37-2.71a21.35,21.35,0,0,0-2.55-2.39,26.88,26.88,0,0,1,1.06,2.8,19.48,19.48,0,0,1,.41,2.54,174.67,174.67,0,0,0-31.54,5.31,19.25,19.25,0,0,1-1.91-2.66C221.13,256.51,220.11,254.08,220.11,254.08Z"/><path class="cls-127" d="M220.11,254.08s-1.61,2.66-2.5,4.47a28.33,28.33,0,0,0-1.51,4,137.55,137.55,0,0,0-42.53,22.13s-1.12-38.63,18.6-57.1c0,0,2.88,1.75,3.83,2.3a49,49,0,0,0,4.67,2.27s-1.18-3.37-1.43-4.5-.66-4.86-.66-4.86c12.49-7.39,29.9-8.52,46.78-3.1,0,0-.91,13.82.72,11.46,1.24-1.78,8.81-7.66,8.81-7.66a96.87,96.87,0,0,1,15.64,9.7,37.39,37.39,0,0,0-5.95,1.79,38,38,0,0,0-4.21,2.51s3.2-.55,6.74-.83a34.19,34.19,0,0,1,7.15.18,77.56,77.56,0,0,1,14.5,18.77,157.6,157.6,0,0,0-30.11-.83l-2.37-2.71a21.35,21.35,0,0,0-2.55-2.39,26.88,26.88,0,0,1,1.06,2.8,19.48,19.48,0,0,1,.41,2.54,174.67,174.67,0,0,0-31.54,5.31,19.25,19.25,0,0,1-1.91-2.66C221.13,256.51,220.11,254.08,220.11,254.08Z"/><path class="cls-128" d="M274.26,236.84a77.48,77.48,0,0,1,14.46,18.7c-9.34-5.36-35.63-18.7-59.73-14.42-22.61,4-45,24.45-55.42,43.42,0-2.47-.45-39.12,18.6-57,0,0,2.88,1.75,3.83,2.3a49,49,0,0,0,4.67,2.27s-1.18-3.37-1.43-4.5-.66-4.86-.66-4.86c12.49-7.39,29.9-8.52,46.78-3.1,0,0-.91,13.82.72,11.46,1.24-1.78,8.81-7.66,8.81-7.66a96.87,96.87,0,0,1,15.64,9.7,37.39,37.39,0,0,0-5.95,1.79,38,38,0,0,0-4.21,2.51s3.2-.55,6.74-.83A34.19,34.19,0,0,1,274.26,236.84Z"/><path class="cls-129" d="M173.57,284.68s11.86-29.87,47.32-41.93c26-8.84,54.46,6.11,54.46,6.11s-27.63-12.19-52.39-5.28C196,251.12,181.79,272.55,173.57,284.68Z"/><path class="cls-130" d="M173.57,284.68s11.86-29.87,47.32-41.93c26-8.84,54.46,6.11,54.46,6.11s-27.63-12.19-52.39-5.28C196,251.12,181.79,272.55,173.57,284.68Z"/><path class="cls-131" d="M169.82,253.2a13,13,0,0,0,3.35-2.64A57.48,57.48,0,0,0,165,230.48c-1.48.73-2.68,1.21-2.68,1.21a9.82,9.82,0,0,0-.32-5.3c-23.24-28.51-69.83-22.6-69.83-22.6a1.38,1.38,0,0,1,.29.08c4.08.66,14.59,2.75,19.14,7.22a36.91,36.91,0,0,0-11.08,1.11c4.4,5.89,9.79,14.06,15.1,21.91a42.31,42.31,0,0,1,9.46-2.6,51,51,0,0,0-6,7.64c3.47,5,6.81,9.66,9.71,13.14,11.84,14.18,44.79,32.46,44.79,32.46,1.75-12.14,1.64-22.48.16-31.3A13.43,13.43,0,0,1,169.82,253.2Z"/><path class="cls-132" d="M169.82,253.2a13,13,0,0,0,3.35-2.64A57.48,57.48,0,0,0,165,230.48c-1.48.73-2.68,1.21-2.68,1.21a9.82,9.82,0,0,0-.32-5.3c-23.24-28.51-69.83-22.6-69.83-22.6a1.38,1.38,0,0,1,.29.08c4.08.66,14.59,2.75,19.14,7.22a36.91,36.91,0,0,0-11.08,1.11c4.4,5.89,9.79,14.06,15.1,21.91a42.31,42.31,0,0,1,9.46-2.6,51,51,0,0,0-6,7.64c3.47,5,6.81,9.66,9.71,13.14,11.84,14.18,44.79,32.46,44.79,32.46,1.75-12.14,1.64-22.48.16-31.3A13.43,13.43,0,0,1,169.82,253.2Z"/><path class="cls-133" d="M169.82,253.2a13,13,0,0,0,3.35-2.64A57.48,57.48,0,0,0,165,230.48c-1.48.73-2.68,1.21-2.68,1.21a9.82,9.82,0,0,0-.32-5.3c-23.24-28.51-69.83-22.6-69.83-22.6a1.38,1.38,0,0,1,.29.08c4,.65,14.2,2.68,18.88,7,9.35,5.08,20.74,14,33.25,29.7,14.71,18.42,23.62,33.28,29,44.12,1.74-12.11,1.63-22.42.15-31.23A13.43,13.43,0,0,1,169.82,253.2Z"/><path class="cls-134" d="M173.57,284.68s-29.64-55.11-62.23-73.82C111.34,210.86,144.26,224.25,173.57,284.68Z"/><path class="cls-135" d="M173.57,284.68s-29.64-55.11-62.23-73.82C111.34,210.86,144.26,224.25,173.57,284.68Z"/><path class="cls-136" d="M213.54,299.66a38.94,38.94,0,0,0-4.68,7.35c-1.62-.76-2.39-1.12-4-1.91a18.84,18.84,0,0,1,3.11-7.33,35.26,35.26,0,0,0-6.51,5.62c-13.95-7.2-25.27-14.84-27.93-18.68,0,0,40.12-20.29,75.11-10.07a51.19,51.19,0,0,1,1.17,6.95,17.7,17.7,0,0,0,4.9-4.82c10.35,4.22,20,11.49,27.66,23.23a18.91,18.91,0,0,1-3.76,2.71,19,19,0,0,0,5.15-.48,97.9,97.9,0,0,1,10.87,27.11s-25.87-6.53-49-9.92c-9.86-1.44-21.66-5.57-32.86-10.58A57.65,57.65,0,0,1,213.54,299.66Z"/><path class="cls-137" d="M213.54,299.66a38.94,38.94,0,0,0-4.68,7.35c-1.62-.76-2.39-1.12-4-1.91a18.84,18.84,0,0,1,3.11-7.33,35.26,35.26,0,0,0-6.51,5.62c-13.95-7.2-25.27-14.84-27.93-18.68,0,0,40.12-20.29,75.11-10.07a51.19,51.19,0,0,1,1.17,6.95,17.7,17.7,0,0,0,4.9-4.82c10.35,4.22,20,11.49,27.66,23.23a18.91,18.91,0,0,1-3.76,2.71,19,19,0,0,0,5.15-.48,97.9,97.9,0,0,1,10.87,27.11s-25.87-6.53-49-9.92c-9.86-1.44-21.66-5.57-32.86-10.58A57.65,57.65,0,0,1,213.54,299.66Z"/><path class="cls-138" d="M212.84,308.84a57.65,57.65,0,0,1,.7-9.18,38.94,38.94,0,0,0-4.68,7.35c-1.62-.76-2.39-1.12-4-1.91a18.84,18.84,0,0,1,3.11-7.33,35.26,35.26,0,0,0-6.51,5.62c-13.92-7.18-25.21-14.8-27.91-18.65,24.39,0,86.12,4.19,121.08,44.6-.05,0-25.89-6.53-49-9.92C235.84,318,224,313.85,212.84,308.84Z"/><path class="cls-139" d="M173.6,284.74s67.68-6.06,110.75,34.3C284.35,319,251.48,288.14,173.6,284.74Z"/><path class="cls-140" d="M173.6,284.74s67.68-6.06,110.75,34.3C284.35,319,251.48,288.14,173.6,284.74Z"/><path class="cls-141" d="M99.91,311.38c25.37-29,74-26.79,74-26.79s-14.08,18.11-28.54,24.85c-5.42,2.53-10.41,5-15,7.48-1.54-2.12-2.86-4.51-3-6.64a18.88,18.88,0,0,0-1.08,8.84q-5.3,2.91-9.83,5.69c-1-2.33-1.91-5.45-1.41-7.67a32,32,0,0,0-2.84,10.31c-3.3,2.1-6.26,4.1-8.92,6-.41-2.06-.76-5.4.64-7.66,0,0-5,5-6.06,11.64-9.56,7.32-13.63,12.06-13.63,12.06S77.57,336.91,99.91,311.38Z"/><path class="cls-142" d="M99.91,311.38c25.37-29,74-26.79,74-26.79s-14.08,18.11-28.54,24.85c-5.42,2.53-10.41,5-15,7.48-1.54-2.12-2.86-4.51-3-6.64a18.88,18.88,0,0,0-1.08,8.84q-5.3,2.91-9.83,5.69c-1-2.33-1.91-5.45-1.41-7.67a32,32,0,0,0-2.84,10.31c-3.3,2.1-6.26,4.1-8.92,6-.41-2.06-.76-5.4.64-7.66,0,0-5,5-6.06,11.64-9.56,7.32-13.63,12.06-13.63,12.06S77.57,336.91,99.91,311.38Z"/><path class="cls-143" d="M100.68,316.23c-11.94,15.69-15.7,26.44-16.5,33.24h0s4.07-4.74,13.63-12.06c1.09-6.66,6.06-11.64,6.06-11.64-1.4,2.26-1,5.6-.64,7.66,2.66-1.89,5.62-3.89,8.92-6A32,32,0,0,1,115,317.14c-.5,2.22.46,5.34,1.41,7.67q4.56-2.78,9.83-5.69a18.88,18.88,0,0,1,1.08-8.84c.14,2.13,1.46,4.52,3,6.64,4.61-2.45,9.6-4.95,15-7.48,14.46-6.74,28.54-24.85,28.54-24.85h0C158.91,287.15,116,296.09,100.68,316.23Z"/><path class="cls-144" d="M173.88,284.59s-29.57,3.72-51.64,14.6c-23.62,11.65-31,29-35.42,40.36.74-.84,11.07-25.64,30.07-35.88C135.21,293.8,148,289.87,173.88,284.59Z"/><path class="cls-145" d="M173.88,284.59s-29.57,3.72-51.64,14.6c-23.62,11.65-31,29-35.42,40.36.74-.84,11.07-25.64,30.07-35.88C135.21,293.8,148,289.87,173.88,284.59Z"/><path class="cls-146" d="M147.24,310.77a17.74,17.74,0,0,0,3.84-.32,13.91,13.91,0,0,1-1.3-3,131.93,131.93,0,0,1,24-22.75s-3.54,11.82-7.41,28.44c-2.07.59-4.18.94-5.34.41a20.21,20.21,0,0,0,4.61,2.78c-3.49,15.41-7.09,34.32-8.49,51.69-2.11-1.51-5.08-3.81-5.85-5.2a38.7,38.7,0,0,0,5.57,9,122.67,122.67,0,0,0,.51,23.93S112.76,358.24,147.24,310.77Z"/><path class="cls-147" d="M147.24,310.77a17.74,17.74,0,0,0,3.84-.32,13.91,13.91,0,0,1-1.3-3,131.93,131.93,0,0,1,24-22.75s-3.54,11.82-7.41,28.44c-2.07.59-4.18.94-5.34.41a20.21,20.21,0,0,0,4.61,2.78c-3.49,15.41-7.09,34.32-8.49,51.69-2.11-1.51-5.08-3.81-5.85-5.2a38.7,38.7,0,0,0,5.57,9,122.67,122.67,0,0,0,.51,23.93S112.76,358.24,147.24,310.77Z"/><path class="cls-148" d="M173.76,284.69h0s-3.54,11.82-7.41,28.44c-2.07.59-4.18.94-5.34.41a20.21,20.21,0,0,0,4.61,2.78c-3.49,15.41-7.09,34.32-8.49,51.69-2.11-1.51-5.08-3.81-5.85-5.2a38.7,38.7,0,0,0,5.57,9,122.69,122.69,0,0,0,.51,23.93C122.94,351.21,160.25,299.76,173.76,284.69Z"/><path class="cls-149" d="M173.77,284.68c-4.42,5.86-45.28,52.65-23.84,99.28,0,0-14.63-22.8-1.87-58.41C154.41,307.85,167.13,290.92,173.77,284.68Z"/><path class="cls-150" d="M173.77,284.68c-4.42,5.86-45.28,52.65-23.84,99.28,0,0-14.63-22.8-1.87-58.41C154.41,307.85,167.13,290.92,173.77,284.68Z"/><path class="cls-151" d="M289.05,452.43s22.86-9.55,7.8-15.33c0,0,0-17.33-13-8.05,0,0,5-28.34-22.61-17.59,0,0-5.77-31.09-18.72-15.12,0,0,1.39-19.5-8-11.62l-9.35,7.87s-17.19-14.27-25.66,11.59c0,0-24.8,3.54-21.21,22.16,0,0-15.32-13.95-15.36,11,0,0-28.72,2.51-15.53,20.84,0,0-24.85,15.56,3.8,21.65,0,0-5.52,13.31,18.89,9.44,0,0,3,12.66,37.67,1.89,0,0,17,14.53,36.17,5.88,0,0,38,6.74,38.25-4.89,0,0,62,4.41,49.38-12.5,0,0,17.26-11.5.31-12,0,0-3.42-10.3-20.91-5.24C311,462.38,314.47,449.78,289.05,452.43Z"/><path class="cls-152" d="M289.05,452.43s22.86-9.55,7.8-15.33c0,0,0-17.33-13-8.05,0,0,5-28.34-22.61-17.59,0,0-5.77-31.09-18.72-15.12,0,0,1.39-19.5-8-11.62l-9.35,7.87s-17.19-14.27-25.66,11.59c0,0-24.8,3.54-21.21,22.16,0,0-15.32-13.95-15.36,11,0,0-28.72,2.51-15.53,20.84,0,0-24.85,15.56,3.8,21.65,0,0-5.52,13.31,18.89,9.44,0,0,3,12.66,37.67,1.89,0,0,17,14.53,36.17,5.88,0,0,38,6.74,38.25-4.89,0,0,62,4.41,49.38-12.5,0,0,17.26-11.5.31-12,0,0-3.42-10.3-20.91-5.24C311,462.38,314.47,449.78,289.05,452.43Z"/><path class="cls-153" d="M149.3,461.21s-4.8-7.22,8.29-7.47c0,0-6.13-17.79,13.47-11.82,0,0,4.39-9,21,.18,0,0-5.87-15.1,11.87-16.12,0,0,4.84-17.14,12.57-10.88s4.11,7.67,4.11,7.67,11.5-7.39,18.38,13.07c0,0,13-7.19,12,13.16,0,0,21.11-13,21,6.69,0,0,17.09-2.3,14.52,11.34,0,0,20.48,5.09-3.3,17.09,0,0,4.51,10.54-15.78,7.38,0,0-12.75,17.18-53.63,7.36,0,0-41.29,8.79-41.4-.4,0,0-48.95-6.23-38.93-17.86,0,0-4.59-8,5.72-6.8C139.16,473.8,128.16,459,149.3,461.21Z"/><path class="cls-154" d="M149.3,461.21s-4.8-7.22,8.29-7.47c0,0-6.13-17.79,13.47-11.82,0,0,4.39-9,21,.18,0,0-5.87-15.1,11.87-16.12,0,0,4.84-17.14,12.57-10.88s4.11,7.67,4.11,7.67,11.5-7.39,18.38,13.07c0,0,13-7.19,12,13.16,0,0,21.11-13,21,6.69,0,0,17.09-2.3,14.52,11.34,0,0,20.48,5.09-3.3,17.09,0,0,4.51,10.54-15.78,7.38,0,0-12.75,17.18-53.63,7.36,0,0-41.29,8.79-41.4-.4,0,0-48.95-6.23-38.93-17.86,0,0-4.59-8,5.72-6.8C139.16,473.8,128.16,459,149.3,461.21Z"/></g></g></g></svg>