<svg xmlns="http://www.w3.org/2000/svg" xmlns:xlink="http://www.w3.org/1999/xlink" viewBox="0 0 239.62 153.91"><defs><style>.cls-1{fill:#f1f1f2;}.cls-2{mask:url(#mask);}.cls-3{fill:url(#linear-gradient);}.cls-15,.cls-33,.cls-35,.cls-4,.cls-6{opacity:0.2;}.cls-4{fill:url(#linear-gradient-2);}.cls-34,.cls-35,.cls-5,.cls-6{fill:none;stroke-miterlimit:10;stroke-width:1.81px;}.cls-5{stroke:url(#New_Gradient_Swatch_copy_2);}.cls-6{stroke:url(#linear-gradient-3);}.cls-7{fill:url(#New_Gradient_Swatch_copy_2-2);}.cls-8{fill:url(#New_Gradient_Swatch_copy_2-3);}.cls-9{fill:url(#New_Gradient_Swatch_copy_2-4);}.cls-10{fill:url(#New_Gradient_Swatch_copy_2-5);}.cls-11{fill:url(#New_Gradient_Swatch_copy_2-6);}.cls-12{fill:url(#New_Gradient_Swatch_copy_2-7);}.cls-13{fill:url(#New_Gradient_Swatch_copy_2-8);}.cls-14{fill:url(#New_Gradient_Swatch_copy_2-9);}.cls-16{fill:url(#linear-gradient-4);}.cls-17{fill:url(#linear-gradient-5);}.cls-18{fill:url(#linear-gradient-6);}.cls-19{fill:url(#linear-gradient-7);}.cls-20{fill:url(#linear-gradient-8);}.cls-21{fill:url(#linear-gradient-9);}.cls-22{fill:url(#linear-gradient-10);}.cls-23{fill:url(#linear-gradient-11);}.cls-24{fill:url(#linear-gradient-12);}.cls-25{fill:url(#linear-gradient-13);}.cls-26{fill:url(#linear-gradient-14);}.cls-27{fill:url(#linear-gradient-15);}.cls-28{fill:url(#linear-gradient-16);}.cls-29{fill:url(#linear-gradient-17);}.cls-30{fill:url(#linear-gradient-18);}.cls-31{fill:url(#linear-gradient-19);}.cls-32{fill:url(#linear-gradient-20);}.cls-33{fill:url(#linear-gradient-21);}.cls-34{stroke:url(#New_Gradient_Swatch_copy_2-10);}.cls-35{stroke:url(#linear-gradient-22);}.cls-36{fill:url(#New_Gradient_Swatch_copy_2-11);}.cls-37{fill:url(#New_Gradient_Swatch_copy_2-12);}.cls-38{fill:url(#New_Gradient_Swatch_copy_2-13);}.cls-39{fill:url(#New_Gradient_Swatch_copy_2-14);}.cls-40{fill:url(#New_Gradient_Swatch_copy_2-15);}.cls-41{fill:url(#New_Gradient_Swatch_copy_2-16);}.cls-42{fill:url(#New_Gradient_Swatch_copy_2-17);}.cls-43{fill:url(#New_Gradient_Swatch_copy_2-18);}.cls-44{fill:url(#linear-gradient-23);}.cls-45{fill:url(#linear-gradient-24);}.cls-46{fill:url(#linear-gradient-25);}.cls-47{fill:url(#linear-gradient-26);}.cls-48{fill:url(#linear-gradient-27);}.cls-49{fill:url(#linear-gradient-28);}.cls-50{fill:url(#linear-gradient-29);}.cls-51{fill:url(#linear-gradient-30);}.cls-52{fill:url(#linear-gradient-31);}.cls-53{fill:url(#linear-gradient-32);}.cls-54{fill:url(#linear-gradient-33);}.cls-55{fill:url(#linear-gradient-34);}.cls-56{fill:url(#linear-gradient-35);}.cls-57{fill:url(#linear-gradient-36);}.cls-58{fill:url(#linear-gradient-37);}.cls-59{fill:url(#linear-gradient-38);}.cls-60{filter:url(#luminosity-invert-noclip);}</style><filter id="luminosity-invert-noclip" x="0" y="0" width="242.55" height="158.44" filterUnits="userSpaceOnUse" color-interpolation-filters="sRGB"><feColorMatrix values="-1 0 0 0 1 0 -1 0 0 1 0 0 -1 0 1 0 0 0 1 0" result="invert"/><feFlood flood-color="#fff" result="bg"/><feBlend in="invert" in2="bg"/></filter><mask id="mask" x="0" y="0" width="242.55" height="158.44" maskUnits="userSpaceOnUse"><g class="cls-60"><path class="cls-1" d="M32.32,151.19a1.74,1.74,0,0,1-1.21-.54,1.72,1.72,0,0,1-.47-1.25,16.77,16.77,0,0,0-16.27-17.26H13.9c-.58,0-1.19,0-1.8.1h-.18a1.72,1.72,0,0,1-1.74-1.79l.23-7.72A1.74,1.74,0,0,1,12.14,121a1.53,1.53,0,0,1,.3,0,2.45,2.45,0,0,0,.38,0h0a2.64,2.64,0,0,0,.16-5.28h0a1.79,1.79,0,0,0-.36,0h-.2a1.76,1.76,0,0,1-1.17-.46,1.73,1.73,0,0,1-.57-1.33l.21-7a1.76,1.76,0,0,1,.64-1.29,1.7,1.7,0,0,1,1.1-.39l.29,0,.38,0h0a2.64,2.64,0,1,0,.16-5.28h0l-.36,0h-.2a1.74,1.74,0,0,1-1.73-1.79l.2-7a1.74,1.74,0,0,1,1.74-1.69,1.53,1.53,0,0,1,.3,0,2.33,2.33,0,0,0,.38,0h0a2.64,2.64,0,0,0,2.71-2.56,2.65,2.65,0,0,0-2.56-2.72h0l-.36,0h-.19a1.72,1.72,0,0,1-1.74-1.78l.23-8a1.78,1.78,0,0,1,.63-1.28,1.74,1.74,0,0,1,1.11-.4l.26,0a18.66,18.66,0,0,0,2,.19h.51a16.73,16.73,0,0,0,16.74-16,1.74,1.74,0,0,1,1.73-1.67l186.21,5.52A1.72,1.72,0,0,1,222.73,63,16.84,16.84,0,0,0,239,80a1.84,1.84,0,0,1,1.81,1.78l-.23,7.76a1.73,1.73,0,0,1-1.73,1.68h-.06a2.65,2.65,0,0,0-2,4.45,2.61,2.61,0,0,0,1.85.83,1.71,1.71,0,0,1,1.21.55,1.68,1.68,0,0,1,.47,1.24l-.2,6.87a1.71,1.71,0,0,1-.55,1.22,1.75,1.75,0,0,1-1.19.47h0a2.63,2.63,0,0,0-2.71,2.56,2.58,2.58,0,0,0,.71,1.89,2.65,2.65,0,0,0,1.85.83,1.74,1.74,0,0,1,1.68,1.78l-.2,6.88a1.74,1.74,0,0,1-1.74,1.69h0a2.64,2.64,0,1,0-.16,5.27,1.74,1.74,0,0,1,1.69,1.79l-.22,7.5a1.74,1.74,0,0,1-1.74,1.69H237A16.68,16.68,0,0,0,220.25,155a1.73,1.73,0,0,1-1.73,1.68Z"/><path class="cls-1" d="M34.84,57.44,221,63A18.5,18.5,0,0,0,239,81.75h.13l-.23,7.76h-.14a4.38,4.38,0,0,0-.12,8.76l-.21,6.87h-.13a4.38,4.38,0,0,0-.13,8.75l-.2,6.88h-.13a4.38,4.38,0,0,0-.13,8.75l-.22,7.5H237a18.52,18.52,0,0,0-18.5,18L32.37,149.45a18.5,18.5,0,0,0-17.95-19H13.9c-.67,0-1.33,0-2,.1l.22-7.72a4.5,4.5,0,0,0,.63.07h.13A4.38,4.38,0,0,0,13,114.1h-.1a4.58,4.58,0,0,0-.53,0l.21-7a3.18,3.18,0,0,0,.62.07h.13a4.38,4.38,0,0,0,.13-8.75h-.1a4.71,4.71,0,0,0-.53,0l.21-7a6.18,6.18,0,0,0,.62.07h.14A4.38,4.38,0,0,0,14,82.85h-.1a4.38,4.38,0,0,0-.52,0l.23-7.94a18.62,18.62,0,0,0,2.25.2h.56A18.5,18.5,0,0,0,34.84,57.44m0-3.47a3.48,3.48,0,0,0-3.47,3.32,15,15,0,0,1-15,14.39h-.46a15,15,0,0,1-1.83-.17,3,3,0,0,0-.52,0,3.41,3.41,0,0,0-2.22.81,3.46,3.46,0,0,0-1.25,2.56l-.24,7.94a3.48,3.48,0,0,0,3.48,3.58l.39,0h.13a.9.9,0,0,1,0,1.8h-.17a2.88,2.88,0,0,0-.59-.06,3.51,3.51,0,0,0-2.2.79A3.46,3.46,0,0,0,9.6,91.43l-.21,7a3.47,3.47,0,0,0,1.12,2.66,3.51,3.51,0,0,0,2.35.92l.4,0,.13,0a.91.91,0,0,1,0,1.81l-.16,0a3.92,3.92,0,0,0-.59,0,3.48,3.48,0,0,0-2.2.78,3.44,3.44,0,0,0-1.27,2.59l-.21,7a3.5,3.5,0,0,0,1.12,2.66,3.46,3.46,0,0,0,2.35.91,2.55,2.55,0,0,0,.39,0h.14a.89.89,0,0,1,.87.93.91.91,0,0,1-.9.88l-.16,0a3,3,0,0,0-.6,0,3.48,3.48,0,0,0-3.47,3.37l-.23,7.72A3.48,3.48,0,0,0,11.92,134l.36,0a15.07,15.07,0,0,1,1.62-.09h.42A15,15,0,0,1,28.9,149.35a3.48,3.48,0,0,0,3.37,3.58l186.14,5.51h.11a3.48,3.48,0,0,0,3.47-3.37,15,15,0,0,1,15-14.59h.43a3.47,3.47,0,0,0,3.47-3.37l.22-7.51a3.46,3.46,0,0,0-3.37-3.57.87.87,0,0,1-.63-.29.89.89,0,0,1-.24-.64.91.91,0,0,1,.9-.88h.1a3.5,3.5,0,0,0,3.5-3.37l.21-6.87a3.49,3.49,0,0,0-3.37-3.58.91.91,0,0,1-.88-.93.91.91,0,0,1,.9-.87h.11a3.5,3.5,0,0,0,3.5-3.37l.2-6.88a3.48,3.48,0,0,0-3.37-3.58.9.9,0,0,1-.88-.92.91.91,0,0,1,.9-.88h.11a3.5,3.5,0,0,0,3.5-3.37l.23-7.75a3.47,3.47,0,0,0-3.39-3.58H239A15.09,15.09,0,0,1,224.47,63a3.48,3.48,0,0,0-3.37-3.53L35,54Z"/></g></mask><linearGradient id="linear-gradient" x1="65.25" y1="165.72" x2="310.62" y2="291.03" gradientTransform="translate(-20.23 -181.64) rotate(8.01)" gradientUnits="userSpaceOnUse"><stop offset="0" stop-color="#2484c6" stop-opacity="0"/><stop offset="1" stop-color="#d55023"/></linearGradient><linearGradient id="linear-gradient-2" x1="72.02" y1="169.97" x2="265.12" y2="267.02" gradientTransform="translate(-20.23 -181.64) rotate(8.01)" gradientUnits="userSpaceOnUse"><stop offset="0" stop-color="#d55023"/><stop offset="1" stop-color="#2484c6" stop-opacity="0"/></linearGradient><linearGradient id="New_Gradient_Swatch_copy_2" x1="256.53" y1="173" x2="79.1" y2="263.61" xlink:href="#linear-gradient-2"/><linearGradient id="linear-gradient-3" x1="-379.13" y1="173" x2="-556.56" y2="263.61" gradientTransform="translate(609.23 -93.02) rotate(8.01)" gradientUnits="userSpaceOnUse"><stop offset="0" stop-color="#2484c6" stop-opacity="0.4"/><stop offset="1" stop-color="#d55023"/></linearGradient><linearGradient id="New_Gradient_Swatch_copy_2-2" x1="84.21" y1="206.55" x2="99.97" y2="229.56" xlink:href="#linear-gradient-2"/><linearGradient id="New_Gradient_Swatch_copy_2-3" x1="101.98" y1="209.12" x2="123.24" y2="230.88" xlink:href="#linear-gradient-2"/><linearGradient id="New_Gradient_Swatch_copy_2-4" x1="127.2" y1="207.7" x2="144.46" y2="230.96" xlink:href="#linear-gradient-2"/><linearGradient id="New_Gradient_Swatch_copy_2-5" x1="147.74" y1="208.21" x2="165.25" y2="229.97" xlink:href="#linear-gradient-2"/><linearGradient id="New_Gradient_Swatch_copy_2-6" x1="168.04" y1="207.69" x2="185.3" y2="230.7" xlink:href="#linear-gradient-2"/><linearGradient id="New_Gradient_Swatch_copy_2-7" x1="187.53" y1="210.72" x2="209.29" y2="233.48" xlink:href="#linear-gradient-2"/><linearGradient id="New_Gradient_Swatch_copy_2-8" x1="211.92" y1="208.28" x2="231.68" y2="228.79" xlink:href="#linear-gradient-2"/><linearGradient id="New_Gradient_Swatch_copy_2-9" x1="233.38" y1="208.33" x2="251.64" y2="230.34" xlink:href="#linear-gradient-2"/><linearGradient id="linear-gradient-4" x1="84.2" y1="218.77" x2="101.22" y2="218.77" xlink:href="#linear-gradient"/><linearGradient id="linear-gradient-5" x1="104.1" y1="218.77" x2="124.1" y2="218.77" xlink:href="#linear-gradient"/><linearGradient id="linear-gradient-6" x1="127.04" y1="218.77" x2="144.46" y2="218.77" xlink:href="#linear-gradient"/><linearGradient id="linear-gradient-7" x1="147.87" y1="218.77" x2="165.29" y2="218.77" xlink:href="#linear-gradient"/><linearGradient id="linear-gradient-8" x1="168.7" y1="218.77" x2="188.26" y2="218.77" xlink:href="#linear-gradient"/><linearGradient id="linear-gradient-9" x1="187.55" y1="218.77" x2="212.78" y2="218.77" xlink:href="#linear-gradient"/><linearGradient id="linear-gradient-10" x1="213" y1="218.77" x2="231.75" y2="218.77" xlink:href="#linear-gradient"/><linearGradient id="linear-gradient-11" x1="233.05" y1="218.77" x2="251.8" y2="218.77" xlink:href="#linear-gradient"/><linearGradient id="linear-gradient-12" x1="101.45" y1="230.56" x2="84.95" y2="208.3" xlink:href="#linear-gradient"/><linearGradient id="linear-gradient-13" x1="124.21" y1="232.56" x2="103.45" y2="209.79" xlink:href="#linear-gradient"/><linearGradient id="linear-gradient-14" x1="144.73" y1="230.48" x2="127.47" y2="208.47" xlink:href="#linear-gradient"/><linearGradient id="linear-gradient-15" x1="165.92" y1="230.03" x2="147.91" y2="208.77" xlink:href="#linear-gradient"/><linearGradient id="linear-gradient-16" x1="186.76" y1="232.42" x2="168.5" y2="208.16" xlink:href="#linear-gradient"/><linearGradient id="linear-gradient-17" x1="210.69" y1="234.84" x2="189.93" y2="213.08" xlink:href="#linear-gradient"/><linearGradient id="linear-gradient-18" x1="232.4" y1="230.1" x2="213.39" y2="209.09" xlink:href="#linear-gradient"/><linearGradient id="linear-gradient-19" x1="251.84" y1="229.55" x2="234.84" y2="210.54" xlink:href="#linear-gradient"/><linearGradient id="linear-gradient-20" x1="42.11" y1="87.41" x2="287.49" y2="212.72" gradientTransform="translate(-14.54 -39.58) rotate(1.7)" xlink:href="#linear-gradient"/><linearGradient id="linear-gradient-21" x1="48.89" y1="91.66" x2="241.99" y2="188.71" gradientTransform="translate(-14.54 -39.58) rotate(1.7)" xlink:href="#linear-gradient-2"/><linearGradient id="New_Gradient_Swatch_copy_2-10" x1="233.4" y1="94.69" x2="55.97" y2="185.3" gradientTransform="translate(-14.54 -39.58) rotate(1.7)" xlink:href="#linear-gradient-2"/><linearGradient id="linear-gradient-22" x1="-402.27" y1="94.69" x2="-579.7" y2="185.3" gradientTransform="translate(620.84 -20.76) rotate(1.7)" xlink:href="#linear-gradient-3"/><linearGradient id="New_Gradient_Swatch_copy_2-11" x1="61.07" y1="128.24" x2="76.83" y2="151.25" gradientTransform="translate(-14.54 -39.58) rotate(1.7)" xlink:href="#linear-gradient-2"/><linearGradient id="New_Gradient_Swatch_copy_2-12" x1="78.85" y1="130.81" x2="100.11" y2="152.57" gradientTransform="translate(-14.54 -39.58) rotate(1.7)" xlink:href="#linear-gradient-2"/><linearGradient id="New_Gradient_Swatch_copy_2-13" x1="104.07" y1="129.39" x2="121.33" y2="152.65" gradientTransform="translate(-14.54 -39.58) rotate(1.7)" xlink:href="#linear-gradient-2"/><linearGradient id="New_Gradient_Swatch_copy_2-14" x1="124.61" y1="129.9" x2="142.12" y2="151.66" gradientTransform="translate(-14.54 -39.58) rotate(1.7)" xlink:href="#linear-gradient-2"/><linearGradient id="New_Gradient_Swatch_copy_2-15" x1="144.91" y1="129.38" x2="162.17" y2="152.39" gradientTransform="translate(-14.54 -39.58) rotate(1.7)" xlink:href="#linear-gradient-2"/><linearGradient id="New_Gradient_Swatch_copy_2-16" x1="164.39" y1="132.41" x2="186.15" y2="155.17" gradientTransform="translate(-14.54 -39.58) rotate(1.7)" xlink:href="#linear-gradient-2"/><linearGradient id="New_Gradient_Swatch_copy_2-17" x1="188.79" y1="129.97" x2="208.55" y2="150.48" gradientTransform="translate(-14.54 -39.58) rotate(1.7)" xlink:href="#linear-gradient-2"/><linearGradient id="New_Gradient_Swatch_copy_2-18" x1="210.25" y1="130.02" x2="228.51" y2="152.03" gradientTransform="translate(-14.54 -39.58) rotate(1.7)" xlink:href="#linear-gradient-2"/><linearGradient id="linear-gradient-23" x1="61.07" y1="140.46" x2="78.09" y2="140.46" gradientTransform="translate(-14.54 -39.58) rotate(1.7)" xlink:href="#linear-gradient"/><linearGradient id="linear-gradient-24" x1="80.97" y1="140.46" x2="100.96" y2="140.46" gradientTransform="translate(-14.54 -39.58) rotate(1.7)" xlink:href="#linear-gradient"/><linearGradient id="linear-gradient-25" x1="103.91" y1="140.46" x2="121.33" y2="140.46" gradientTransform="translate(-14.54 -39.58) rotate(1.7)" xlink:href="#linear-gradient"/><linearGradient id="linear-gradient-26" x1="124.74" y1="140.46" x2="142.16" y2="140.46" gradientTransform="translate(-14.54 -39.58) rotate(1.7)" xlink:href="#linear-gradient"/><linearGradient id="linear-gradient-27" x1="145.57" y1="140.46" x2="165.13" y2="140.46" gradientTransform="translate(-14.54 -39.58) rotate(1.7)" xlink:href="#linear-gradient"/><linearGradient id="linear-gradient-28" x1="164.41" y1="140.46" x2="189.64" y2="140.46" gradientTransform="translate(-14.54 -39.58) rotate(1.7)" xlink:href="#linear-gradient"/><linearGradient id="linear-gradient-29" x1="189.86" y1="140.46" x2="208.62" y2="140.46" gradientTransform="translate(-14.54 -39.58) rotate(1.7)" xlink:href="#linear-gradient"/><linearGradient id="linear-gradient-30" x1="209.92" y1="140.46" x2="228.67" y2="140.46" gradientTransform="translate(-14.54 -39.58) rotate(1.7)" xlink:href="#linear-gradient"/><linearGradient id="linear-gradient-31" x1="78.32" y1="152.25" x2="61.81" y2="129.99" gradientTransform="translate(-14.54 -39.58) rotate(1.7)" xlink:href="#linear-gradient"/><linearGradient id="linear-gradient-32" x1="101.08" y1="154.24" x2="80.32" y2="131.48" gradientTransform="translate(-14.54 -39.58) rotate(1.7)" xlink:href="#linear-gradient"/><linearGradient id="linear-gradient-33" x1="121.6" y1="152.17" x2="104.34" y2="130.16" gradientTransform="translate(-14.54 -39.58) rotate(1.7)" xlink:href="#linear-gradient"/><linearGradient id="linear-gradient-34" x1="142.78" y1="151.72" x2="124.77" y2="130.46" gradientTransform="translate(-14.54 -39.58) rotate(1.7)" xlink:href="#linear-gradient"/><linearGradient id="linear-gradient-35" x1="163.63" y1="154.11" x2="145.37" y2="129.85" gradientTransform="translate(-14.54 -39.58) rotate(1.7)" xlink:href="#linear-gradient"/><linearGradient id="linear-gradient-36" x1="187.56" y1="156.53" x2="166.8" y2="134.77" gradientTransform="translate(-14.54 -39.58) rotate(1.7)" xlink:href="#linear-gradient"/><linearGradient id="linear-gradient-37" x1="209.26" y1="151.79" x2="190.25" y2="130.77" gradientTransform="translate(-14.54 -39.58) rotate(1.7)" xlink:href="#linear-gradient"/><linearGradient id="linear-gradient-38" x1="228.71" y1="151.24" x2="211.7" y2="132.23" gradientTransform="translate(-14.54 -39.58) rotate(1.7)" xlink:href="#linear-gradient"/></defs><title>freepass</title><g id="Layer_2" data-name="Layer 2"><g id="Layer_1-2" data-name="Layer 1"><g class="cls-2"><path class="cls-3" d="M220.76,89a4.37,4.37,0,0,1,4.94-3.72l1-6.81a4.38,4.38,0,0,1,1.22-8.67l1-6.81a4.38,4.38,0,0,1,1.22-8.67l1.08-7.68-.12,0A18.51,18.51,0,0,1,215.24,26L30.83,0A18.51,18.51,0,0,1,10,15.5a17.65,17.65,0,0,1-2.21-.45L6.64,22.92a3.33,3.33,0,0,1,.63,0,4.38,4.38,0,0,1-1.22,8.67,5.47,5.47,0,0,1-.61-.13l-1,6.91a4.43,4.43,0,0,1,.63,0A4.38,4.38,0,0,1,3.87,47.1,6,6,0,0,1,3.26,47l-1,6.91a4.43,4.43,0,0,1,.63,0,4.38,4.38,0,0,1-1.22,8.67,6,6,0,0,1-.61-.13L0,70.1a17.62,17.62,0,0,1,2.5.18,18.51,18.51,0,0,1,15.75,20.9l184.4,26a18.51,18.51,0,0,1,20.79-15.77l1-7.43A4.38,4.38,0,0,1,220.76,89Z"/><path class="cls-4" d="M220.76,89a4.37,4.37,0,0,1,4.94-3.72l1-6.81a4.38,4.38,0,0,1,1.22-8.67l1-6.81a4.38,4.38,0,0,1,1.22-8.67l1.08-7.68-.12,0A18.51,18.51,0,0,1,215.24,26L30.83,0A18.51,18.51,0,0,1,10,15.5a17.65,17.65,0,0,1-2.21-.45L6.64,22.92a3.33,3.33,0,0,1,.63,0,4.38,4.38,0,0,1-1.22,8.67,5.47,5.47,0,0,1-.61-.13l-1,6.91a4.43,4.43,0,0,1,.63,0A4.38,4.38,0,0,1,3.87,47.1,6,6,0,0,1,3.26,47l-1,6.91a4.43,4.43,0,0,1,.63,0,4.38,4.38,0,0,1-1.22,8.67,6,6,0,0,1-.61-.13L0,70.1a17.62,17.62,0,0,1,2.5.18,18.51,18.51,0,0,1,15.75,20.9l184.4,26a18.51,18.51,0,0,1,20.79-15.77l1-7.43A4.38,4.38,0,0,1,220.76,89Z"/><path class="cls-5" d="M17,54.42l.83-5.92L18.91,41,19.75,35l1.06-7.54.94-6.69.11,0A16.09,16.09,0,0,0,40,7.33L200.45,29.92a16.11,16.11,0,0,0,13.73,18,16.32,16.32,0,0,0,2,.15l-1,6.84-1,7.46-.84,6-1.05,7.46-.85,6-1,7.46-.94,6.65a16.42,16.42,0,0,0-2.13-.45,16.1,16.1,0,0,0-18.19,13.7L28.64,86.61A16.11,16.11,0,0,0,15,68.43L16,62Z"/><path class="cls-6" d="M17,54.42l.83-5.92L18.91,41,19.75,35l1.06-7.54.94-6.69.11,0A16.09,16.09,0,0,0,40,7.33L200.45,29.92a16.11,16.11,0,0,0,13.73,18,16.32,16.32,0,0,0,2,.15l-1,6.84-1,7.46-.84,6-1.05,7.46-.85,6-1,7.46-.94,6.65a16.42,16.42,0,0,0-2.13-.45,16.1,16.1,0,0,0-18.19,13.7L28.64,86.61A16.11,16.11,0,0,0,15,68.43L16,62Z"/><path class="cls-7" d="M39.45,41.52l-.67,4.73,9.48,1.34-.66,4.69L38.12,51l-1,7.36L31,57.46,34,36l16.85,2.37L50.22,43Z"/><path class="cls-8" d="M60.91,55.85l-3.32-.47-.8,5.71-6.08-.86,3-21.48,9.82,1.38a12.34,12.34,0,0,1,4.93,1.68,7.91,7.91,0,0,1,1.83,11.53,7.4,7.4,0,0,1-3.5,2.27L70.51,63,64,62.1Zm4.31-9.76a4.2,4.2,0,0,0-2.71-1.22l-3.37-.48-.89,6.29,3.38.48a4.28,4.28,0,0,0,2.94-.42,3.34,3.34,0,0,0,.65-4.65Z"/><path class="cls-9" d="M91.34,61.16l-.67,4.7L73.42,63.43l3-21.49L93.3,44.32,92.64,49,81.8,47.49l-.51,3.62,9.55,1.34L90.2,57l-9.55-1.35-.55,3.93Z"/><path class="cls-10" d="M112,64.07l-.66,4.69L94.05,66.33l3-21.48,16.85,2.37-.66,4.7-10.84-1.53L101.92,54l9.55,1.35-.64,4.54-9.55-1.34-.55,3.93Z"/><path class="cls-11" d="M132.45,50.81a7.34,7.34,0,0,1,3.5,7.62,7.31,7.31,0,0,1-5.46,6.32,12.32,12.32,0,0,1-5.2.25l-3.74-.52-.8,5.61-6.07-.85,3-21.49,9.82,1.39A12.38,12.38,0,0,1,132.45,50.81Zm-3.92,8.94a2.91,2.91,0,0,0,1.28-2.19,3,3,0,0,0-.62-2.46,4.28,4.28,0,0,0-2.71-1.23l-3.37-.47-.89,6.29,3.38.47A4.27,4.27,0,0,0,128.53,59.75Z"/><path class="cls-12" d="M150.9,70.08l-9.08-1.28-2.28,3.94-6.2-.87,12.51-20.16,6,.85,6.49,22.82L152,74.49Zm-1.15-4.73L148,58.08l-3.73,6.49Z"/><path class="cls-13" d="M162.56,75.76a12.52,12.52,0,0,1-3.75-2.28l2.63-4.2a13,13,0,0,0,3.13,2,13.26,13.26,0,0,0,3.66,1.11c2.33.32,3.58-.09,3.75-1.26a1.48,1.48,0,0,0-.81-1.51,18.8,18.8,0,0,0-3.08-1.39,29.5,29.5,0,0,1-3.89-1.69,6.81,6.81,0,0,1-2.52-2.31,5.2,5.2,0,0,1-.67-3.72,6.27,6.27,0,0,1,1.58-3.4,7.3,7.3,0,0,1,3.56-2,13.4,13.4,0,0,1,5.36-.18A18.82,18.82,0,0,1,175.62,56,13,13,0,0,1,179,57.86l-2.51,4.25a12.52,12.52,0,0,0-5.72-2.5,5,5,0,0,0-2.71.17,1.61,1.61,0,0,0-1,1.28,1.39,1.39,0,0,0,.8,1.42,17.9,17.9,0,0,0,3,1.34,30.22,30.22,0,0,1,3.91,1.69,7,7,0,0,1,2.52,2.3,5.11,5.11,0,0,1,.69,3.71,6.18,6.18,0,0,1-1.57,3.35,7.48,7.48,0,0,1-3.58,2,13.17,13.17,0,0,1-5.35.2A20.3,20.3,0,0,1,162.56,75.76Z"/><path class="cls-14" d="M182.42,78.56a12.52,12.52,0,0,1-3.75-2.28l2.63-4.2a12.93,12.93,0,0,0,3.13,2,12.62,12.62,0,0,0,3.66,1.11c2.33.33,3.58-.09,3.74-1.26a1.45,1.45,0,0,0-.8-1.5A18.8,18.8,0,0,0,188,71a30.89,30.89,0,0,1-3.89-1.69A6.81,6.81,0,0,1,181.54,67a5.21,5.21,0,0,1-.67-3.73,6.27,6.27,0,0,1,1.57-3.39A7.32,7.32,0,0,1,186,57.87a13.28,13.28,0,0,1,5.37-.18,18.27,18.27,0,0,1,4.11,1.06,12.77,12.77,0,0,1,3.42,1.91l-2.51,4.24a12.65,12.65,0,0,0-5.72-2.49,5,5,0,0,0-2.71.16,1.62,1.62,0,0,0-1,1.28,1.4,1.4,0,0,0,.8,1.43,18.75,18.75,0,0,0,3,1.34,28.89,28.89,0,0,1,3.91,1.69,6.94,6.94,0,0,1,2.52,2.3,5.1,5.1,0,0,1,.69,3.71,6.15,6.15,0,0,1-1.57,3.34,7.33,7.33,0,0,1-3.58,2,13.17,13.17,0,0,1-5.35.2A19.85,19.85,0,0,1,182.42,78.56Z"/><g class="cls-15"><path class="cls-16" d="M39.58,41.54l-.66,4.73,9.48,1.34-.66,4.69L38.25,51l-1,7.36-6.08-.85,3-21.49L51,38.36l-.67,4.7Z"/><path class="cls-17" d="M61,55.87l-3.31-.47-.81,5.71-6.07-.86,3-21.48,9.82,1.38a12.23,12.23,0,0,1,4.93,1.68,7.9,7.9,0,0,1,1.84,11.53A7.45,7.45,0,0,1,67,55.63L70.64,63l-6.5-.92Zm4.32-9.76a4.28,4.28,0,0,0-2.71-1.23l-3.38-.47-.88,6.29,3.37.48a4.34,4.34,0,0,0,2.94-.42A2.9,2.9,0,0,0,66,48.58,3,3,0,0,0,65.36,46.11Z"/><path class="cls-18" d="M91.47,61.18l-.66,4.7L73.56,63.45l3-21.49,16.85,2.38L92.77,49,81.94,47.51l-.51,3.62L91,52.47,90.34,57l-9.55-1.35-.55,3.93Z"/><path class="cls-19" d="M112.1,64.09l-.66,4.69L94.19,66.35l3-21.48,16.85,2.37-.66,4.7-10.83-1.53L102.06,54l9.54,1.35L111,59.92l-9.54-1.34-.56,3.92Z"/><path class="cls-20" d="M132.59,50.83a7.66,7.66,0,0,1-2,13.94,12.33,12.33,0,0,1-5.2.25l-3.75-.52-.79,5.61-6.08-.85,3-21.49,9.82,1.38A12.59,12.59,0,0,1,132.59,50.83Zm-3.92,8.94a3.34,3.34,0,0,0,.65-4.65,4.25,4.25,0,0,0-2.7-1.23l-3.38-.47-.89,6.29,3.38.47A4.29,4.29,0,0,0,128.67,59.77Z"/><path class="cls-21" d="M151,70.1,142,68.82l-2.28,3.94-6.2-.88L146,51.73l6,.85,6.49,22.82-6.32-.89Zm-1.15-4.73-1.8-7.27-3.73,6.49Z"/><path class="cls-22" d="M162.7,75.78A12.52,12.52,0,0,1,159,73.5l2.62-4.2a13,13,0,0,0,3.13,2,12.77,12.77,0,0,0,3.67,1.11c2.33.33,3.58-.09,3.74-1.25a1.46,1.46,0,0,0-.8-1.51,19.22,19.22,0,0,0-3.08-1.39,29.65,29.65,0,0,1-3.89-1.69,6.92,6.92,0,0,1-2.53-2.31,5.25,5.25,0,0,1-.66-3.72,6.26,6.26,0,0,1,1.57-3.4,7.35,7.35,0,0,1,3.56-2,13.42,13.42,0,0,1,5.36-.18A18.53,18.53,0,0,1,175.75,56a13,13,0,0,1,3.43,1.91l-2.51,4.25a12.57,12.57,0,0,0-5.72-2.5,5.06,5.06,0,0,0-2.72.17,1.61,1.61,0,0,0-1,1.28,1.38,1.38,0,0,0,.8,1.42,17.35,17.35,0,0,0,3,1.34A30.22,30.22,0,0,1,175,65.53a7.14,7.14,0,0,1,2.53,2.3,5.16,5.16,0,0,1,.68,3.71,6.08,6.08,0,0,1-1.57,3.35,7.45,7.45,0,0,1-3.57,2,13.17,13.17,0,0,1-5.35.2A20.18,20.18,0,0,1,162.7,75.78Z"/><path class="cls-23" d="M182.55,78.58a12.39,12.39,0,0,1-3.74-2.29l2.62-4.2a13.15,13.15,0,0,0,3.13,2,12.8,12.8,0,0,0,3.66,1.11q3.51.5,3.75-1.26a1.45,1.45,0,0,0-.81-1.5,17.79,17.79,0,0,0-3.07-1.39,32,32,0,0,1-3.9-1.69,7,7,0,0,1-2.52-2.31,5.26,5.26,0,0,1-.66-3.73,6.2,6.2,0,0,1,1.57-3.39,7.23,7.23,0,0,1,3.56-2,13.22,13.22,0,0,1,5.36-.19,18.69,18.69,0,0,1,4.11,1.07,12.93,12.93,0,0,1,3.43,1.9l-2.51,4.25a12.65,12.65,0,0,0-5.72-2.49,5.07,5.07,0,0,0-2.72.16,1.63,1.63,0,0,0-1,1.28,1.39,1.39,0,0,0,.8,1.43,17.49,17.49,0,0,0,3,1.33,30.1,30.1,0,0,1,3.91,1.7,7.11,7.11,0,0,1,2.53,2.29,5.19,5.19,0,0,1,.68,3.72,6,6,0,0,1-1.57,3.34,7.29,7.29,0,0,1-3.57,2,13.18,13.18,0,0,1-5.35.2A19.93,19.93,0,0,1,182.55,78.58Z"/></g><g class="cls-15"><path class="cls-24" d="M39.58,41.54l-.66,4.73,9.48,1.34-.66,4.69L38.25,51l-1,7.36-6.08-.85,3-21.49L51,38.36l-.67,4.7Z"/><path class="cls-25" d="M61,55.87l-3.31-.47-.81,5.71-6.07-.86,3-21.48,9.82,1.38a12.23,12.23,0,0,1,4.93,1.68,7.9,7.9,0,0,1,1.84,11.53A7.45,7.45,0,0,1,67,55.63L70.64,63l-6.5-.92Zm4.32-9.76a4.28,4.28,0,0,0-2.71-1.23l-3.38-.47-.88,6.29,3.37.48a4.34,4.34,0,0,0,2.94-.42A2.9,2.9,0,0,0,66,48.58,3,3,0,0,0,65.36,46.11Z"/><path class="cls-26" d="M91.47,61.18l-.66,4.7L73.56,63.45l3-21.49,16.85,2.38L92.77,49,81.94,47.51l-.51,3.62L91,52.47,90.34,57l-9.55-1.35-.55,3.93Z"/><path class="cls-27" d="M112.1,64.09l-.66,4.69L94.19,66.35l3-21.48,16.85,2.37-.66,4.7-10.83-1.53L102.06,54l9.54,1.35L111,59.92l-9.54-1.34-.56,3.92Z"/><path class="cls-28" d="M132.59,50.83a7.66,7.66,0,0,1-2,13.94,12.33,12.33,0,0,1-5.2.25l-3.75-.52-.79,5.61-6.08-.85,3-21.49,9.82,1.38A12.59,12.59,0,0,1,132.59,50.83Zm-3.92,8.94a3.34,3.34,0,0,0,.65-4.65,4.25,4.25,0,0,0-2.7-1.23l-3.38-.47-.89,6.29,3.38.47A4.29,4.29,0,0,0,128.67,59.77Z"/><path class="cls-29" d="M151,70.1,142,68.82l-2.28,3.94-6.2-.88L146,51.73l6,.85,6.49,22.82-6.32-.89Zm-1.15-4.73-1.8-7.27-3.73,6.49Z"/><path class="cls-30" d="M162.7,75.78A12.52,12.52,0,0,1,159,73.5l2.62-4.2a13,13,0,0,0,3.13,2,12.77,12.77,0,0,0,3.67,1.11c2.33.33,3.58-.09,3.74-1.25a1.46,1.46,0,0,0-.8-1.51,19.22,19.22,0,0,0-3.08-1.39,29.65,29.65,0,0,1-3.89-1.69,6.92,6.92,0,0,1-2.53-2.31,5.25,5.25,0,0,1-.66-3.72,6.26,6.26,0,0,1,1.57-3.4,7.35,7.35,0,0,1,3.56-2,13.42,13.42,0,0,1,5.36-.18A18.53,18.53,0,0,1,175.75,56a13,13,0,0,1,3.43,1.91l-2.51,4.25a12.57,12.57,0,0,0-5.72-2.5,5.06,5.06,0,0,0-2.72.17,1.61,1.61,0,0,0-1,1.28,1.38,1.38,0,0,0,.8,1.42,17.35,17.35,0,0,0,3,1.34A30.22,30.22,0,0,1,175,65.53a7.14,7.14,0,0,1,2.53,2.3,5.16,5.16,0,0,1,.68,3.71,6.08,6.08,0,0,1-1.57,3.35,7.45,7.45,0,0,1-3.57,2,13.17,13.17,0,0,1-5.35.2A20.18,20.18,0,0,1,162.7,75.78Z"/><path class="cls-31" d="M182.55,78.58a12.39,12.39,0,0,1-3.74-2.29l2.62-4.2a13.15,13.15,0,0,0,3.13,2,12.8,12.8,0,0,0,3.66,1.11q3.51.5,3.75-1.26a1.45,1.45,0,0,0-.81-1.5,17.79,17.79,0,0,0-3.07-1.39,32,32,0,0,1-3.9-1.69,7,7,0,0,1-2.52-2.31,5.26,5.26,0,0,1-.66-3.73,6.2,6.2,0,0,1,1.57-3.39,7.23,7.23,0,0,1,3.56-2,13.22,13.22,0,0,1,5.36-.19,18.69,18.69,0,0,1,4.11,1.07,12.93,12.93,0,0,1,3.43,1.9l-2.51,4.25a12.65,12.65,0,0,0-5.72-2.49,5.07,5.07,0,0,0-2.72.16,1.63,1.63,0,0,0-1,1.28,1.39,1.39,0,0,0,.8,1.43,17.49,17.49,0,0,0,3,1.33,30.1,30.1,0,0,1,3.91,1.7,7.11,7.11,0,0,1,2.53,2.29,5.19,5.19,0,0,1,.68,3.72,6,6,0,0,1-1.57,3.34,7.29,7.29,0,0,1-3.57,2,13.18,13.18,0,0,1-5.35.2A19.93,19.93,0,0,1,182.55,78.58Z"/></g></g><path class="cls-32" d="M234,123.94a4.38,4.38,0,0,1,4.5-4.24l.21-6.88a4.38,4.38,0,1,1,.25-8.75l.21-6.87a4.38,4.38,0,1,1,.26-8.75l.23-7.76h-.13a18.5,18.5,0,0,1-18-18.8L35.38,56.38a18.5,18.5,0,0,1-19,17.7,16.8,16.8,0,0,1-2.25-.21l-.23,7.95a3.18,3.18,0,0,1,.62,0,4.38,4.38,0,0,1-.25,8.75c-.22,0-.42,0-.63-.07l-.2,7c.2,0,.41,0,.62,0a4.38,4.38,0,1,1-.26,8.75,3.18,3.18,0,0,1-.62-.07l-.21,7a4.43,4.43,0,0,1,.63,0,4.38,4.38,0,0,1-.26,8.75,4.2,4.2,0,0,1-.62-.07l-.23,7.72a20.65,20.65,0,0,1,2.5-.1,18.53,18.53,0,0,1,18,19l186.14,5.52A18.51,18.51,0,0,1,238,136l.22-7.5A4.38,4.38,0,0,1,234,123.94Z"/><path class="cls-33" d="M234,123.94a4.38,4.38,0,0,1,4.5-4.24l.21-6.88a4.38,4.38,0,1,1,.25-8.75l.21-6.87a4.38,4.38,0,1,1,.26-8.75l.23-7.76h-.13a18.5,18.5,0,0,1-18-18.8L35.38,56.38a18.5,18.5,0,0,1-19,17.7,16.8,16.8,0,0,1-2.25-.21l-.23,7.95a3.18,3.18,0,0,1,.62,0,4.38,4.38,0,0,1-.25,8.75c-.22,0-.42,0-.63-.07l-.2,7c.2,0,.41,0,.62,0a4.38,4.38,0,1,1-.26,8.75,3.18,3.18,0,0,1-.62-.07l-.21,7a4.43,4.43,0,0,1,.63,0,4.38,4.38,0,0,1-.26,8.75,4.2,4.2,0,0,1-.62-.07l-.23,7.72a20.65,20.65,0,0,1,2.5-.1,18.53,18.53,0,0,1,18,19l186.14,5.52A18.51,18.51,0,0,1,238,136l.22-7.5A4.38,4.38,0,0,1,234,123.94Z"/><path class="cls-34" d="M27.64,112l.18-6,.23-7.61.17-6,.23-7.61.2-6.75h.11a16.1,16.1,0,0,0,16.56-15.4l162,4.8a16.1,16.1,0,0,0,15.62,16.35,18.36,18.36,0,0,0,2-.06l-.21,6.91-.22,7.52-.18,6.07-.22,7.53-.18,6.07-.23,7.52-.2,6.72a15.34,15.34,0,0,0-2.17-.21,16.09,16.09,0,0,0-16.57,15.62L42.74,142.7a16.11,16.11,0,0,0-15.51-16.57l.19-6.53Z"/><path class="cls-35" d="M27.64,112l.18-6,.23-7.61.17-6,.23-7.61.2-6.75h.11a16.1,16.1,0,0,0,16.56-15.4l162,4.8a16.1,16.1,0,0,0,15.62,16.35,18.36,18.36,0,0,0,2-.06l-.21,6.91-.22,7.52-.18,6.07-.22,7.53-.18,6.07-.23,7.52-.2,6.72a15.34,15.34,0,0,0-2.17-.21,16.09,16.09,0,0,0-16.57,15.62L42.74,142.7a16.11,16.11,0,0,0-15.51-16.57l.19-6.53Z"/><path class="cls-36" d="M48.52,96.7l-.14,4.77,9.57.29-.14,4.74-9.57-.29L48,113.65l-6.14-.18.65-21.69,17,.5L59.39,97Z"/><path class="cls-37" d="M71.43,108.58l-3.35-.1-.17,5.76-6.14-.18.65-21.69,9.91.29a12.43,12.43,0,0,1,5.08,1.13,7.61,7.61,0,0,1-.13,13.91l4.48,7-6.57-.19Zm3.21-10.17a4.15,4.15,0,0,0-2.82-.92l-3.41-.11-.19,6.36,3.41.1a4.29,4.29,0,0,0,2.87-.74,3.35,3.35,0,0,0,.14-4.69Z"/><path class="cls-38" d="M102.26,110.51l-.15,4.74-17.41-.51.64-21.69,17,.5-.14,4.74L91.28,98l-.11,3.66,9.63.28-.13,4.59L91,106.21l-.12,4Z"/><path class="cls-39" d="M123.08,111.13l-.14,4.74-17.42-.52.65-21.68,17,.5L123,98.91l-10.93-.32-.11,3.65,9.63.29-.13,4.58-9.64-.28-.11,4Z"/><path class="cls-40" d="M142,95.7a7.65,7.65,0,0,1-.41,14.07,12.33,12.33,0,0,1-5.14.82l-3.78-.11-.17,5.67-6.14-.18L127,94.28l9.91.3A12.27,12.27,0,0,1,142,95.7ZM139.07,105a2.89,2.89,0,0,0,1-2.31,3,3,0,0,0-.89-2.38,4.21,4.21,0,0,0-2.82-.92L133,99.3l-.19,6.35,3.41.1A4.24,4.24,0,0,0,139.07,105Z"/><path class="cls-41" d="M162.44,112.82l-9.17-.27-1.83,4.16-6.26-.18L155.4,95.12l6,.18,9,22-6.38-.19Zm-1.66-4.57-2.59-7-3,6.86Z"/><path class="cls-42" d="M174.65,117.18a12.54,12.54,0,0,1-4-1.85l2.15-4.46a13.71,13.71,0,0,0,7.09,2.35c2.35.07,3.55-.49,3.58-1.67a1.45,1.45,0,0,0-1-1.4,18.54,18.54,0,0,0-3.21-1,30.18,30.18,0,0,1-4.06-1.26,6.87,6.87,0,0,1-2.76-2,5.2,5.2,0,0,1-1.07-3.63,6.17,6.17,0,0,1,1.19-3.54,7.29,7.29,0,0,1,3.31-2.43,13.12,13.12,0,0,1,5.31-.77,18.51,18.51,0,0,1,4.2.6,13.06,13.06,0,0,1,3.62,1.52l-2,4.5a12.5,12.5,0,0,0-6-1.85,5,5,0,0,0-2.68.46,1.63,1.63,0,0,0-.88,1.38,1.38,1.38,0,0,0,.95,1.33,18.53,18.53,0,0,0,3.17,1,30.59,30.59,0,0,1,4.07,1.25,7.16,7.16,0,0,1,2.76,2,5.18,5.18,0,0,1,1.09,3.62,6.14,6.14,0,0,1-1.19,3.5A7.39,7.39,0,0,1,185,117.2a13.29,13.29,0,0,1-5.29.79A20.12,20.12,0,0,1,174.65,117.18Z"/><path class="cls-43" d="M194.7,117.78a12.39,12.39,0,0,1-4-1.86l2.15-4.46a13.71,13.71,0,0,0,7.09,2.35c2.36.07,3.55-.48,3.59-1.66a1.46,1.46,0,0,0-1-1.41,18,18,0,0,0-3.21-1,31.65,31.65,0,0,1-4.05-1.25,6.83,6.83,0,0,1-2.76-2,5.25,5.25,0,0,1-1.08-3.63,6.27,6.27,0,0,1,1.19-3.55A7.32,7.32,0,0,1,196,96.82a13.29,13.29,0,0,1,5.31-.77,18.67,18.67,0,0,1,4.2.6,13.17,13.17,0,0,1,3.61,1.52l-2,4.5a12.65,12.65,0,0,0-6-1.85,5.08,5.08,0,0,0-2.68.46,1.63,1.63,0,0,0-.87,1.39,1.39,1.39,0,0,0,1,1.33,17.66,17.66,0,0,0,3.16,1,30.78,30.78,0,0,1,4.08,1.25,7.19,7.19,0,0,1,2.76,2,5.09,5.09,0,0,1,1.08,3.61,6.06,6.06,0,0,1-1.18,3.5,7.5,7.5,0,0,1-3.33,2.43,13.16,13.16,0,0,1-5.3.79A20.11,20.11,0,0,1,194.7,117.78Z"/><g class="cls-15"><path class="cls-44" d="M48.66,96.71l-.15,4.77,9.58.28L58,106.5l-9.58-.28-.22,7.43L42,113.47l.64-21.69,17,.51L59.53,97Z"/><path class="cls-45" d="M71.56,108.58l-3.34-.1-.17,5.76-6.14-.18.64-21.69,9.92.3a12.47,12.47,0,0,1,5.08,1.12,7.56,7.56,0,0,1,3.26,2.89,7.73,7.73,0,0,1,1.06,4.3,7.55,7.55,0,0,1-1.23,4.07,7.36,7.36,0,0,1-3.22,2.65l4.47,7-6.56-.19Zm3.22-10.17A4.25,4.25,0,0,0,72,97.49l-3.41-.1-.18,6.35,3.4.1a4.29,4.29,0,0,0,2.88-.74,2.87,2.87,0,0,0,1-2.31A3,3,0,0,0,74.78,98.41Z"/><path class="cls-46" d="M102.39,110.52l-.14,4.74-17.41-.52.64-21.69,17,.51-.14,4.74L91.41,98l-.11,3.66,9.64.28-.14,4.59-9.63-.29-.12,4Z"/><path class="cls-47" d="M123.21,111.13l-.14,4.74-17.41-.51.64-21.69,17,.5-.14,4.74-10.94-.32-.1,3.66,9.63.28-.13,4.59-9.64-.29-.12,4Z"/><path class="cls-48" d="M142.12,95.71a7.53,7.53,0,0,1,3.26,2.88,7.75,7.75,0,0,1,1.06,4.3,7.32,7.32,0,0,1-4.74,6.88,12.29,12.29,0,0,1-5.14.83l-3.78-.11-.17,5.67-6.13-.19.64-21.68,9.92.29A12.31,12.31,0,0,1,142.12,95.71ZM139.21,105a2.93,2.93,0,0,0,1-2.31,3,3,0,0,0-.89-2.39,4.31,4.31,0,0,0-2.83-.92l-3.41-.1-.18,6.35,3.4.1A4.29,4.29,0,0,0,139.21,105Z"/><path class="cls-49" d="M162.58,112.83l-9.17-.28-1.83,4.17-6.26-.19,10.21-21.4,6.05.18,9,22-6.38-.19Zm-1.67-4.58-2.58-7-3,6.85Z"/><path class="cls-50" d="M174.79,117.19a12.39,12.39,0,0,1-4-1.86l2.15-4.46a13.71,13.71,0,0,0,7.09,2.35c2.36.07,3.55-.48,3.59-1.66a1.46,1.46,0,0,0-1-1.41,18,18,0,0,0-3.21-1,31.65,31.65,0,0,1-4.05-1.25,6.83,6.83,0,0,1-2.76-2,5.25,5.25,0,0,1-1.08-3.63,6.27,6.27,0,0,1,1.19-3.55,7.32,7.32,0,0,1,3.32-2.43,13.47,13.47,0,0,1,5.31-.77,18.67,18.67,0,0,1,4.2.6,13.17,13.17,0,0,1,3.61,1.52l-2,4.5a12.65,12.65,0,0,0-6-1.85,5.08,5.08,0,0,0-2.68.46,1.63,1.63,0,0,0-.87,1.39,1.39,1.39,0,0,0,1,1.33,17.66,17.66,0,0,0,3.16,1,30.78,30.78,0,0,1,4.08,1.25,7.19,7.19,0,0,1,2.76,2,5.15,5.15,0,0,1,1.09,3.61,6.14,6.14,0,0,1-1.19,3.5,7.5,7.5,0,0,1-3.33,2.43,13.16,13.16,0,0,1-5.3.79A20.11,20.11,0,0,1,174.79,117.19Z"/><path class="cls-51" d="M194.84,117.78a12.6,12.6,0,0,1-4-1.85l2.15-4.47a12.94,12.94,0,0,0,3.33,1.65,12.64,12.64,0,0,0,3.76.7c2.36.07,3.55-.48,3.59-1.66a1.48,1.48,0,0,0-1-1.41,18.83,18.83,0,0,0-3.21-1,30.78,30.78,0,0,1-4.06-1.25,6.87,6.87,0,0,1-2.76-2,5.25,5.25,0,0,1-1.07-3.63,6.24,6.24,0,0,1,1.19-3.54,7.2,7.2,0,0,1,3.31-2.43,13.34,13.34,0,0,1,5.31-.78,19.09,19.09,0,0,1,4.2.61,12.93,12.93,0,0,1,3.62,1.52l-2,4.49a12.72,12.72,0,0,0-6-1.85,5,5,0,0,0-2.68.47,1.62,1.62,0,0,0-.88,1.38,1.4,1.4,0,0,0,1,1.33,18.06,18.06,0,0,0,3.16,1,29.17,29.17,0,0,1,4.07,1.25,7.06,7.06,0,0,1,2.76,2,5.12,5.12,0,0,1,1.09,3.62,6.1,6.1,0,0,1-1.19,3.5,7.39,7.39,0,0,1-3.33,2.43,13.12,13.12,0,0,1-5.29.78A19.61,19.61,0,0,1,194.84,117.78Z"/></g><g class="cls-15"><path class="cls-52" d="M48.66,96.71l-.15,4.77,9.58.28L58,106.5l-9.58-.28-.22,7.43L42,113.47l.64-21.69,17,.51L59.53,97Z"/><path class="cls-53" d="M71.56,108.58l-3.34-.1-.17,5.76-6.14-.18.64-21.69,9.92.3a12.47,12.47,0,0,1,5.08,1.12,7.56,7.56,0,0,1,3.26,2.89,7.73,7.73,0,0,1,1.06,4.3,7.55,7.55,0,0,1-1.23,4.07,7.36,7.36,0,0,1-3.22,2.65l4.47,7-6.56-.19Zm3.22-10.17A4.25,4.25,0,0,0,72,97.49l-3.41-.1-.18,6.35,3.4.1a4.29,4.29,0,0,0,2.88-.74,2.87,2.87,0,0,0,1-2.31A3,3,0,0,0,74.78,98.41Z"/><path class="cls-54" d="M102.39,110.52l-.14,4.74-17.41-.52.64-21.69,17,.51-.14,4.74L91.41,98l-.11,3.66,9.64.28-.14,4.59-9.63-.29-.12,4Z"/><path class="cls-55" d="M123.21,111.13l-.14,4.74-17.41-.51.64-21.69,17,.5-.14,4.74-10.94-.32-.1,3.66,9.63.28-.13,4.59-9.64-.29-.12,4Z"/><path class="cls-56" d="M142.12,95.71a7.53,7.53,0,0,1,3.26,2.88,7.75,7.75,0,0,1,1.06,4.3,7.32,7.32,0,0,1-4.74,6.88,12.29,12.29,0,0,1-5.14.83l-3.78-.11-.17,5.67-6.13-.19.64-21.68,9.92.29A12.31,12.31,0,0,1,142.12,95.71ZM139.21,105a2.93,2.93,0,0,0,1-2.31,3,3,0,0,0-.89-2.39,4.31,4.31,0,0,0-2.83-.92l-3.41-.1-.18,6.35,3.4.1A4.29,4.29,0,0,0,139.21,105Z"/><path class="cls-57" d="M162.58,112.83l-9.17-.28-1.83,4.17-6.26-.19,10.21-21.4,6.05.18,9,22-6.38-.19Zm-1.67-4.58-2.58-7-3,6.85Z"/><path class="cls-58" d="M174.79,117.19a12.39,12.39,0,0,1-4-1.86l2.15-4.46a13.71,13.71,0,0,0,7.09,2.35c2.36.07,3.55-.48,3.59-1.66a1.46,1.46,0,0,0-1-1.41,18,18,0,0,0-3.21-1,31.65,31.65,0,0,1-4.05-1.25,6.83,6.83,0,0,1-2.76-2,5.25,5.25,0,0,1-1.08-3.63,6.27,6.27,0,0,1,1.19-3.55,7.32,7.32,0,0,1,3.32-2.43,13.47,13.47,0,0,1,5.31-.77,18.67,18.67,0,0,1,4.2.6,13.17,13.17,0,0,1,3.61,1.52l-2,4.5a12.65,12.65,0,0,0-6-1.85,5.08,5.08,0,0,0-2.68.46,1.63,1.63,0,0,0-.87,1.39,1.39,1.39,0,0,0,1,1.33,17.66,17.66,0,0,0,3.16,1,30.78,30.78,0,0,1,4.08,1.25,7.19,7.19,0,0,1,2.76,2,5.15,5.15,0,0,1,1.09,3.61,6.14,6.14,0,0,1-1.19,3.5,7.5,7.5,0,0,1-3.33,2.43,13.16,13.16,0,0,1-5.3.79A20.11,20.11,0,0,1,174.79,117.19Z"/><path class="cls-59" d="M194.84,117.78a12.6,12.6,0,0,1-4-1.85l2.15-4.47a12.94,12.94,0,0,0,3.33,1.65,12.64,12.64,0,0,0,3.76.7c2.36.07,3.55-.48,3.59-1.66a1.48,1.48,0,0,0-1-1.41,18.83,18.83,0,0,0-3.21-1,30.78,30.78,0,0,1-4.06-1.25,6.87,6.87,0,0,1-2.76-2,5.25,5.25,0,0,1-1.07-3.63,6.24,6.24,0,0,1,1.19-3.54,7.2,7.2,0,0,1,3.31-2.43,13.34,13.34,0,0,1,5.31-.78,19.09,19.09,0,0,1,4.2.61,12.93,12.93,0,0,1,3.62,1.52l-2,4.49a12.72,12.72,0,0,0-6-1.85,5,5,0,0,0-2.68.47,1.62,1.62,0,0,0-.88,1.38,1.4,1.4,0,0,0,1,1.33,18.06,18.06,0,0,0,3.16,1,29.17,29.17,0,0,1,4.07,1.25,7.06,7.06,0,0,1,2.76,2,5.12,5.12,0,0,1,1.09,3.62,6.1,6.1,0,0,1-1.19,3.5,7.39,7.39,0,0,1-3.33,2.43,13.12,13.12,0,0,1-5.29.78A19.61,19.61,0,0,1,194.84,117.78Z"/></g></g></g></svg>