<svg xmlns="http://www.w3.org/2000/svg" xmlns:xlink="http://www.w3.org/1999/xlink" viewBox="0 0 374.89 280"><defs><style>.cls-1{fill:url(#New_Gradient_Swatch_copy_7);}.cls-2{fill:url(#New_Gradient_Swatch_copy_7-2);}.cls-3{fill:url(#New_Gradient_Swatch_copy_7-3);}.cls-4{fill:url(#New_Gradient_Swatch_copy_7-4);}.cls-5{fill:url(#New_Gradient_Swatch_copy_7-5);}.cls-6{fill:url(#New_Gradient_Swatch_copy_7-6);}</style><linearGradient id="New_Gradient_Swatch_copy_7" y1="165.39" x2="374.89" y2="165.39" gradientUnits="userSpaceOnUse"><stop offset="0" stop-color="#d55023"/><stop offset="1" stop-color="#2484c6" stop-opacity="0"/></linearGradient><linearGradient id="New_Gradient_Swatch_copy_7-2" x1="68.83" y1="139.33" x2="350.84" y2="139.33" xlink:href="#New_Gradient_Swatch_copy_7"/><linearGradient id="New_Gradient_Swatch_copy_7-3" x1="4.68" y1="52.12" x2="374.22" y2="52.12" xlink:href="#New_Gradient_Swatch_copy_7"/><linearGradient id="New_Gradient_Swatch_copy_7-4" y1="182.77" x2="130.98" y2="182.77" xlink:href="#New_Gradient_Swatch_copy_7"/><linearGradient id="New_Gradient_Swatch_copy_7-5" x1="128.97" y1="174.75" x2="373.56" y2="174.75" xlink:href="#New_Gradient_Swatch_copy_7"/><linearGradient id="New_Gradient_Swatch_copy_7-6" x1="130.31" y1="59.81" x2="374.22" y2="59.81" xlink:href="#New_Gradient_Swatch_copy_7"/></defs><g id="Layer_2" data-name="Layer 2"><g id="Layer_1-2" data-name="Layer 1"><path class="cls-1" d="M0,241.24,324.77,61.48l50.12,9.36L131.65,269.31Z"/><path class="cls-2" d="M350.84,22.72q-1.68,22.72-3.35,45.44Q208.17,162.06,68.83,255.94l4.68-147.68L131,115.61Z"/><path class="cls-3" d="M4.68,85.54l125.63,18.71L374.22,4,318.09,0Z"/><path class="cls-4" d="M73.39,108,131,115.61q-.33-5.69-.67-11.36L4.68,85.54V98.9L73.38,108l-17.22-1.92-2.7,145.86L0,241.24,2.67,252.6,129,280l1.22-11L69,256.18Z"/><path class="cls-5" d="M130.31,269.31q-.67,5.34-1.34,10.69L372.89,74.84q.33-2.67.67-5.34Z"/><path class="cls-6" d="M130.31,104.25,374.22,4v7.35L131,115.61Q130.65,109.92,130.31,104.25Z"/></g></g></svg>