<svg width="194" height="186" viewBox="0 0 194 186" fill="none" xmlns="http://www.w3.org/2000/svg">
<path d="M194 148.842C188.879 153.852 183.717 158.862 178.597 163.872C180.387 169.174 182.218 174.435 184.009 179.737C147.915 181.825 111.862 183.912 75.7682 186C72.8957 182.91 69.5236 178.61 66.6094 173.057C64.9442 169.926 63.7369 166.962 62.8626 164.29C57.7004 162.536 49.3742 158.904 41.6309 151.347C40.0489 149.802 34.5536 144.249 30.0991 135.189C26.0609 126.964 24.6871 119.449 24.1459 114.606C16.236 107.801 8.32613 100.954 0.41626 94.1481C18.4424 104.878 36.5103 115.566 54.5364 126.296C65.6519 127.591 77.4751 129.344 89.9227 131.724C105.576 134.73 120.063 138.321 133.219 142.162C133.094 143.957 132.927 145.794 132.803 147.589C142.752 149.009 154.076 150.011 166.524 150.094C176.473 150.178 185.674 149.677 194 148.842Z" fill="url(#paint0_linear_120_7168)"/>
<path opacity="0.2" d="M193.584 148.842C188.463 153.852 183.301 158.862 178.18 163.872C179.97 169.174 181.802 174.435 183.592 179.737C147.498 181.825 111.446 183.912 75.3519 186C72.4794 182.91 69.1073 178.61 66.1931 173.057C64.5279 169.926 63.3206 166.962 62.4464 164.29C57.2841 162.536 48.9579 158.904 41.2146 151.347C39.6326 149.802 34.1373 144.249 29.6828 135.189C25.6446 126.964 24.2708 119.449 23.7296 114.606C15.8197 107.801 7.90987 100.954 0 94.1481C18.0262 104.878 36.094 115.566 54.1202 126.296C65.2356 127.591 77.0588 129.344 89.5064 131.724C105.16 134.73 119.647 138.321 132.803 142.162C132.678 143.957 132.511 145.794 132.386 147.589C142.336 149.009 153.66 150.011 166.107 150.094C176.057 150.178 185.258 149.677 193.584 148.842Z" fill="url(#paint1_linear_120_7168)"/>
<path d="M28.3091 113.354C32.9301 117.57 38.6752 121.996 45.7941 125.879C47.7923 126.964 49.7074 127.925 51.6224 128.801C51.7473 131.807 52.1636 135.523 53.2876 139.657C55.0361 146.086 57.7421 150.971 59.9486 154.269C57.534 151.723 53.6207 146.838 51.6224 139.657C50.6232 136.149 50.3735 132.976 50.3735 130.471C46.6267 128.718 41.9224 126.088 37.0516 122.121C33.3464 119.115 30.4739 116.026 28.3091 113.354Z" fill="url(#paint2_linear_120_7168)"/>
<path opacity="0.2" d="M28.3091 113.354C32.9301 117.57 38.6752 121.996 45.7941 125.879C47.7923 126.964 49.7074 127.925 51.6224 128.801C51.7473 131.807 52.1636 135.523 53.2876 139.657C55.0361 146.086 57.7421 150.971 59.9486 154.269C57.534 151.723 53.6207 146.838 51.6224 139.657C50.6232 136.149 50.3735 132.976 50.3735 130.471C46.6267 128.718 41.9224 126.088 37.0516 122.121C33.3464 119.115 30.4739 116.026 28.3091 113.354Z" fill="url(#paint3_linear_120_7168)"/>
<path d="M62.4463 135.064C63.8259 135.064 64.9442 133.942 64.9442 132.559C64.9442 131.175 63.8259 130.054 62.4463 130.054C61.0668 130.054 59.9485 131.175 59.9485 132.559C59.9485 133.942 61.0668 135.064 62.4463 135.064Z" fill="url(#paint4_linear_120_7168)"/>
<path opacity="0.2" d="M62.4463 135.064C63.8259 135.064 64.9442 133.942 64.9442 132.559C64.9442 131.175 63.8259 130.054 62.4463 130.054C61.0668 130.054 59.9485 131.175 59.9485 132.559C59.9485 133.942 61.0668 135.064 62.4463 135.064Z" fill="url(#paint5_linear_120_7168)"/>
<path d="M70.3563 135.481C71.7358 135.481 72.8541 134.36 72.8541 132.976C72.8541 131.593 71.7358 130.471 70.3563 130.471C68.9767 130.471 67.8584 131.593 67.8584 132.976C67.8584 134.36 68.9767 135.481 70.3563 135.481Z" fill="url(#paint6_linear_120_7168)"/>
<path opacity="0.2" d="M70.3563 135.481C71.7358 135.481 72.8541 134.36 72.8541 132.976C72.8541 131.593 71.7358 130.471 70.3563 130.471C68.9767 130.471 67.8584 131.593 67.8584 132.976C67.8584 134.36 68.9767 135.481 70.3563 135.481Z" fill="url(#paint7_linear_120_7168)"/>
<path d="M74.894 181.199L141.129 178.067L74.9773 182.451L74.894 181.199Z" fill="url(#paint8_linear_120_7168)"/>
<path opacity="0.2" d="M74.894 181.199L141.129 178.067L74.9773 182.451L74.894 181.199Z" fill="#383838"/>
<path d="M122.645 168.465C125.588 168.465 127.973 166.072 127.973 163.121C127.973 160.169 125.588 157.776 122.645 157.776C119.702 157.776 117.316 160.169 117.316 163.121C117.316 166.072 119.702 168.465 122.645 168.465Z" fill="url(#paint9_linear_120_7168)"/>
<path opacity="0.2" d="M122.645 168.465C125.588 168.465 127.973 166.072 127.973 163.121C127.973 160.169 125.588 157.776 122.645 157.776C119.702 157.776 117.316 160.169 117.316 163.121C117.316 166.072 119.702 168.465 122.645 168.465Z" fill="url(#paint10_linear_120_7168)"/>
<path d="M139.713 169.3C142.656 169.3 145.042 166.907 145.042 163.956C145.042 161.004 142.656 158.611 139.713 158.611C136.77 158.611 134.385 161.004 134.385 163.956C134.385 166.907 136.77 169.3 139.713 169.3Z" fill="url(#paint11_linear_120_7168)"/>
<path opacity="0.2" d="M139.713 169.3C142.656 169.3 145.042 166.907 145.042 163.956C145.042 161.004 142.656 158.611 139.713 158.611C136.77 158.611 134.385 161.004 134.385 163.956C134.385 166.907 136.77 169.3 139.713 169.3Z" fill="url(#paint12_linear_120_7168)"/>
<path d="M155.949 170.552C158.892 170.552 161.278 168.16 161.278 165.208C161.278 162.257 158.892 159.864 155.949 159.864C153.006 159.864 150.621 162.257 150.621 165.208C150.621 168.16 153.006 170.552 155.949 170.552Z" fill="url(#paint13_linear_120_7168)"/>
<path opacity="0.2" d="M155.949 170.552C158.892 170.552 161.278 168.16 161.278 165.208C161.278 162.257 158.892 159.864 155.949 159.864C153.006 159.864 150.621 162.257 150.621 165.208C150.621 168.16 153.006 170.552 155.949 170.552Z" fill="url(#paint14_linear_120_7168)"/>
<path d="M104.91 135.064C104.577 90.0566 104.202 45.0074 103.869 0L100.622 134.187C102.037 134.479 103.494 134.772 104.91 135.064Z" fill="url(#paint15_linear_120_7168)"/>
<path d="M149.455 149.259L148.831 31.3131L145.708 149.218L149.455 149.259Z" fill="url(#paint16_linear_120_7168)"/>
<path d="M181.303 103.125C179.263 106.089 175.266 112.686 174.642 121.912C173.767 135.356 180.636 144.875 182.551 147.38C171.936 144.792 160.112 142.454 147.165 140.7C134.759 139.03 123.144 138.154 112.612 137.778C111.071 135.44 107.2 128.676 107.616 119.407C107.991 111.809 111.03 106.381 112.612 103.96C135.509 103.667 158.406 103.417 181.303 103.125Z" fill="url(#paint17_linear_120_7168)"/>
<path opacity="0.2" d="M181.303 103.125C179.263 106.089 175.266 112.686 174.642 121.912C173.767 135.356 180.636 144.875 182.551 147.38C171.936 144.792 160.112 142.454 147.165 140.7C134.759 139.03 123.144 138.154 112.612 137.778C111.071 135.44 107.2 128.676 107.616 119.407C107.991 111.809 111.03 106.381 112.612 103.96C135.509 103.667 158.406 103.417 181.303 103.125Z" fill="url(#paint18_linear_120_7168)"/>
<path d="M170.895 60.1212C170.062 63.67 169.23 69.4734 170.479 76.404C172.477 87.3428 178.555 94.4404 181.303 97.2795C159.53 98.4067 137.715 99.4923 115.942 100.62C115.359 96.5697 114.943 90.3906 116.358 83.0842C117.774 75.6525 120.521 69.9744 122.603 66.3838C138.714 64.2963 154.784 62.2088 170.895 60.1212Z" fill="url(#paint19_linear_120_7168)"/>
<path opacity="0.2" d="M170.895 60.1212C170.062 63.67 169.23 69.4734 170.479 76.404C172.477 87.3428 178.555 94.4404 181.303 97.2795C159.53 98.4067 137.715 99.4923 115.942 100.62C115.359 96.5697 114.943 90.3906 116.358 83.0842C117.774 75.6525 120.521 69.9744 122.603 66.3838C138.714 64.2963 154.784 62.2088 170.895 60.1212Z" fill="url(#paint20_linear_120_7168)"/>
<path d="M162.569 33.4007C162.652 36.5737 163.068 40.5818 164.234 45.0909C165.566 50.3515 167.523 54.5266 169.23 57.6162C162.985 56.9064 154.7 56.6141 145.084 58.0337C136.841 59.2444 129.972 61.3737 124.685 63.4613C127.724 56.7811 130.804 50.101 133.843 43.4209C143.418 40.0808 152.994 36.7407 162.569 33.4007Z" fill="url(#paint21_linear_120_7168)"/>
<path opacity="0.2" d="M162.569 33.4007C162.652 36.5737 163.068 40.5818 164.234 45.0909C165.566 50.3515 167.523 54.5266 169.23 57.6162C162.985 56.9064 154.7 56.6141 145.084 58.0337C136.841 59.2444 129.972 61.3737 124.685 63.4613C127.724 56.7811 130.804 50.101 133.843 43.4209C143.418 40.0808 152.994 36.7407 162.569 33.4007Z" fill="url(#paint22_linear_120_7168)"/>
<path d="M72.6458 104.377C91.9209 100.202 111.238 96.027 130.513 91.8519C130.138 96.7785 130.013 102.54 130.513 108.97C130.971 115.274 131.928 120.91 133.011 125.67C123.852 123.249 110.905 120.994 95.5428 121.912C86.5505 122.455 78.6823 123.958 72.2295 125.67C72.3544 118.572 72.5209 111.475 72.6458 104.377Z" fill="url(#paint23_linear_120_7168)"/>
<path opacity="0.2" d="M72.6458 104.377C91.9209 100.202 111.238 96.027 130.513 91.8519C130.138 96.7785 130.013 102.54 130.513 108.97C130.971 115.274 131.928 120.91 133.011 125.67C123.852 123.249 110.905 120.994 95.5428 121.912C86.5505 122.455 78.6823 123.958 72.2295 125.67C72.3544 118.572 72.5209 111.475 72.6458 104.377Z" fill="url(#paint24_linear_120_7168)"/>
<path d="M127.807 49.6835C111.696 52.4808 95.6262 55.2364 79.5151 58.0337C77.3919 65.9246 75.5602 75.0263 74.5194 85.1717C74.0198 90.0148 73.77 94.6074 73.6868 98.9495C79.4318 95.6929 88.5074 91.4761 100.331 89.3468C111.737 87.301 121.396 87.969 127.807 88.9293C127.807 75.8613 127.807 62.7515 127.807 49.6835Z" fill="url(#paint25_linear_120_7168)"/>
<path opacity="0.2" d="M127.807 49.6835C111.696 52.4808 95.6262 55.2364 79.5151 58.0337C77.3919 65.9246 75.5602 75.0263 74.5194 85.1717C74.0198 90.0148 73.77 94.6074 73.6868 98.9495C79.4318 95.6929 88.5074 91.4761 100.331 89.3468C111.737 87.301 121.396 87.969 127.807 88.9293C127.807 75.8613 127.807 62.7515 127.807 49.6835Z" fill="url(#paint26_linear_120_7168)"/>
<path d="M117.607 27.5555C118.024 29.8936 118.773 32.7744 120.105 35.9057C121.77 39.872 123.81 42.9199 125.517 45.0909C116.608 45.2162 106.159 46.2182 94.7103 48.8485C89.9228 49.934 85.5099 51.2283 81.3884 52.6061C84.1777 47.3037 86.9253 42.0431 89.7146 36.7407C98.9983 33.6929 108.324 30.6034 117.607 27.5555Z" fill="url(#paint27_linear_120_7168)"/>
<path opacity="0.2" d="M117.607 27.5555C118.024 29.8936 118.773 32.7744 120.105 35.9057C121.77 39.872 123.81 42.9199 125.517 45.0909C116.608 45.2162 106.159 46.2182 94.7103 48.8485C89.9228 49.934 85.5099 51.2283 81.3884 52.6061C84.1777 47.3037 86.9253 42.0431 89.7146 36.7407C98.9983 33.6929 108.324 30.6034 117.607 27.5555Z" fill="url(#paint28_linear_120_7168)"/>
<path d="M103.661 2.92346C97.3747 5.55377 92.2541 7.0568 88.6739 7.93356C85.3018 8.76858 82.8872 9.14434 79.5151 10.8561C76.3927 12.4427 75.3936 13.6952 72.4378 15.0312C68.9824 16.6177 65.8185 17.0352 63.6953 17.1187C66.443 18.6218 70.6893 20.3336 75.7683 20.0413C79.7232 19.7908 82.1378 18.413 85.7597 17.1187C89.673 15.6992 95.5846 14.1544 103.661 14.1962C103.661 10.4386 103.661 6.68104 103.661 2.92346Z" fill="url(#paint29_linear_120_7168)"/>
<path opacity="0.2" d="M104.077 2.83905C97.5829 5.55286 92.3374 7.09764 88.6739 7.93265C85.385 8.72592 82.9288 9.10168 79.5151 10.8552C76.3927 12.4417 75.3936 13.6943 72.4378 15.0303C68.9824 16.6168 65.8185 17.0343 63.6953 17.1178C66.443 18.6209 70.6893 20.3327 75.7683 20.0404C79.7232 19.7899 82.1378 18.4121 85.7597 17.1178C89.673 15.6983 95.5846 14.1535 103.661 14.1953C103.786 10.396 103.952 6.59663 104.077 2.83905Z" fill="url(#paint30_linear_120_7168)"/>
<path d="M109.614 65.9663C109.698 65.8828 110.489 64.6303 109.781 63.837C109.323 63.336 108.449 63.2108 107.658 63.67C107.533 62.8768 106.95 62.2922 106.242 62.167C105.326 62 104.702 62.7098 104.619 62.7515C104.036 63.3778 103.994 64.4215 104.494 65.2983C101.33 68.3044 98.1658 71.3104 95.0434 74.3582C93.5864 73.8155 92.1709 73.9407 91.3383 74.7758C91.1718 74.9428 90.4224 75.736 90.7138 76.5293C90.9636 77.1973 91.8379 77.6983 92.9203 77.5313C92.7954 78.4916 93.2533 79.4518 94.0443 79.9111C94.9185 80.4539 96.1675 80.4121 96.9585 79.5771C97.7078 78.7838 97.7494 77.5313 97.0417 76.6128C100.455 73.4397 103.869 70.2667 107.283 67.0518C107.366 67.0518 108.865 67.0936 109.614 65.9663Z" fill="url(#paint31_linear_120_7168)"/>
<path opacity="0.2" d="M109.614 65.9663C109.698 65.8828 110.489 64.6303 109.781 63.837C109.323 63.336 108.449 63.2108 107.658 63.67C107.533 62.8768 106.95 62.2922 106.242 62.167C105.326 62 104.702 62.7098 104.619 62.7515C104.036 63.3778 103.994 64.4215 104.494 65.2983C101.33 68.3044 98.1658 71.3104 95.0434 74.3582C93.5864 73.8155 92.1709 73.9407 91.3383 74.7758C91.1718 74.9428 90.4224 75.736 90.7138 76.5293C90.9636 77.1973 91.8379 77.6983 92.9203 77.5313C92.7954 78.4916 93.2533 79.4518 94.0443 79.9111C94.9185 80.4539 96.1675 80.4121 96.9585 79.5771C97.7078 78.7838 97.7494 77.5313 97.0417 76.6128C100.455 73.4397 103.869 70.2667 107.283 67.0518C107.366 67.0518 108.865 67.0936 109.614 65.9663Z" fill="url(#paint32_linear_120_7168)"/>
<path d="M94.2108 63.503C94.0859 63.4613 92.7537 62.8767 92.0876 63.7118C91.6713 64.2545 91.713 65.1313 92.2958 65.8411C91.5464 66.1333 91.0469 66.8013 91.0469 67.5111C91.0469 68.4296 91.8379 68.9306 91.9211 69.0141C92.6289 69.4734 93.6696 69.3481 94.419 68.7219C97.916 71.3104 101.455 73.899 104.952 76.4875C104.66 77.9906 105.035 79.4101 106.034 80.0781C106.201 80.2034 107.116 80.8296 107.866 80.4121C108.49 80.0781 108.823 79.0761 108.49 78.0741C109.448 78.0323 110.322 77.4478 110.655 76.571C111.03 75.6108 110.78 74.4 109.822 73.7737C108.907 73.1892 107.658 73.3562 106.908 74.1912C103.203 71.3939 99.4563 68.5549 95.7512 65.7576C95.6679 65.5071 95.4598 64.0458 94.2108 63.503Z" fill="url(#paint33_linear_120_7168)"/>
<path opacity="0.2" d="M94.2108 63.503C94.0859 63.4613 92.7537 62.8767 92.0876 63.7118C91.6713 64.2545 91.713 65.1313 92.2958 65.8411C91.5464 66.1333 91.0469 66.8013 91.0469 67.5111C91.0469 68.4296 91.8379 68.9306 91.9211 69.0141C92.6289 69.4734 93.6696 69.3481 94.419 68.7219C97.916 71.3104 101.455 73.899 104.952 76.4875C104.66 77.9906 105.035 79.4101 106.034 80.0781C106.201 80.2034 107.116 80.8296 107.866 80.4121C108.49 80.0781 108.823 79.0761 108.49 78.0741C109.448 78.0323 110.322 77.4478 110.655 76.571C111.03 75.6108 110.78 74.4 109.822 73.7737C108.907 73.1892 107.658 73.3562 106.908 74.1912C103.203 71.3939 99.4563 68.5549 95.7512 65.7576C95.6679 65.5071 95.4598 64.0458 94.2108 63.503Z" fill="url(#paint34_linear_120_7168)"/>
<defs>
<linearGradient id="paint0_linear_120_7168" x1="0.41626" y1="140.074" x2="194" y2="140.074" gradientUnits="userSpaceOnUse">
<stop stop-color="#D45127"/>
<stop offset="1" stop-color="#2383C5" stop-opacity="0"/>
</linearGradient>
<linearGradient id="paint1_linear_120_7168" x1="0" y1="140.074" x2="193.584" y2="140.074" gradientUnits="userSpaceOnUse">
<stop stop-color="#2383C5" stop-opacity="0"/>
<stop offset="1" stop-color="#D45127"/>
</linearGradient>
<linearGradient id="paint2_linear_120_7168" x1="28.3091" y1="133.811" x2="59.9486" y2="133.811" gradientUnits="userSpaceOnUse">
<stop offset="0.2189" stop-color="#D45127"/>
<stop offset="1" stop-color="#2383C5" stop-opacity="0"/>
</linearGradient>
<linearGradient id="paint3_linear_120_7168" x1="28.3091" y1="133.811" x2="59.9486" y2="133.811" gradientUnits="userSpaceOnUse">
<stop stop-color="#D45127"/>
<stop offset="0.7547" stop-color="#2383C5" stop-opacity="0"/>
</linearGradient>
<linearGradient id="paint4_linear_120_7168" x1="59.9485" y1="132.559" x2="64.9442" y2="132.559" gradientUnits="userSpaceOnUse">
<stop stop-color="#2383C5" stop-opacity="0"/>
<stop offset="1" stop-color="#D45127"/>
</linearGradient>
<linearGradient id="paint5_linear_120_7168" x1="59.9485" y1="132.559" x2="64.9442" y2="132.559" gradientUnits="userSpaceOnUse">
<stop stop-color="#D45127"/>
<stop offset="0.7547" stop-color="#2383C5" stop-opacity="0"/>
</linearGradient>
<linearGradient id="paint6_linear_120_7168" x1="67.8584" y1="132.976" x2="72.8541" y2="132.976" gradientUnits="userSpaceOnUse">
<stop stop-color="#2383C5" stop-opacity="0"/>
<stop offset="1" stop-color="#D45127"/>
</linearGradient>
<linearGradient id="paint7_linear_120_7168" x1="67.8584" y1="132.976" x2="72.8541" y2="132.976" gradientUnits="userSpaceOnUse">
<stop stop-color="#D45127"/>
<stop offset="0.7547" stop-color="#2383C5" stop-opacity="0"/>
</linearGradient>
<linearGradient id="paint8_linear_120_7168" x1="74.9004" y1="180.259" x2="141.129" y2="180.259" gradientUnits="userSpaceOnUse">
<stop stop-color="#D45127"/>
<stop offset="1" stop-color="#2383C5" stop-opacity="0"/>
</linearGradient>
<linearGradient id="paint9_linear_120_7168" x1="117.333" y1="163.137" x2="127.957" y2="163.137" gradientUnits="userSpaceOnUse">
<stop stop-color="#2383C5" stop-opacity="0"/>
<stop offset="1" stop-color="#D45127"/>
</linearGradient>
<linearGradient id="paint10_linear_120_7168" x1="117.333" y1="163.137" x2="127.957" y2="163.137" gradientUnits="userSpaceOnUse">
<stop stop-color="#D45127"/>
<stop offset="0.7547" stop-color="#2383C5" stop-opacity="0"/>
</linearGradient>
<linearGradient id="paint11_linear_120_7168" x1="134.401" y1="163.972" x2="145.025" y2="163.972" gradientUnits="userSpaceOnUse">
<stop stop-color="#2383C5" stop-opacity="0"/>
<stop offset="1" stop-color="#D45127"/>
</linearGradient>
<linearGradient id="paint12_linear_120_7168" x1="134.401" y1="163.972" x2="145.025" y2="163.972" gradientUnits="userSpaceOnUse">
<stop stop-color="#D45127"/>
<stop offset="0.7547" stop-color="#2383C5" stop-opacity="0"/>
</linearGradient>
<linearGradient id="paint13_linear_120_7168" x1="150.637" y1="165.225" x2="161.261" y2="165.225" gradientUnits="userSpaceOnUse">
<stop stop-color="#2383C5" stop-opacity="0"/>
<stop offset="1" stop-color="#D45127"/>
</linearGradient>
<linearGradient id="paint14_linear_120_7168" x1="150.637" y1="165.225" x2="161.261" y2="165.225" gradientUnits="userSpaceOnUse">
<stop stop-color="#D45127"/>
<stop offset="0.7547" stop-color="#2383C5" stop-opacity="0"/>
</linearGradient>
<linearGradient id="paint15_linear_120_7168" x1="104.91" y1="67.532" x2="100.602" y2="67.532" gradientUnits="userSpaceOnUse">
<stop stop-color="#D45127"/>
<stop offset="1" stop-color="#2383C5" stop-opacity="0"/>
</linearGradient>
<linearGradient id="paint16_linear_120_7168" x1="149.473" y1="90.2887" x2="145.69" y2="90.2887" gradientUnits="userSpaceOnUse">
<stop stop-color="#D45127"/>
<stop offset="1" stop-color="#2383C5" stop-opacity="0"/>
</linearGradient>
<linearGradient id="paint17_linear_120_7168" x1="107.582" y1="125.253" x2="182.551" y2="125.253" gradientUnits="userSpaceOnUse">
<stop stop-color="#2383C5" stop-opacity="0"/>
<stop offset="1" stop-color="#D45127"/>
</linearGradient>
<linearGradient id="paint18_linear_120_7168" x1="107.582" y1="125.253" x2="182.551" y2="125.253" gradientUnits="userSpaceOnUse">
<stop stop-color="#D45127"/>
<stop offset="0.7547" stop-color="#2383C5" stop-opacity="0"/>
</linearGradient>
<linearGradient id="paint19_linear_120_7168" x1="115.408" y1="80.3704" x2="181.303" y2="80.3704" gradientUnits="userSpaceOnUse">
<stop stop-color="#2383C5" stop-opacity="0"/>
<stop offset="1" stop-color="#D45127"/>
</linearGradient>
<linearGradient id="paint20_linear_120_7168" x1="115.408" y1="80.3704" x2="181.303" y2="80.3704" gradientUnits="userSpaceOnUse">
<stop stop-color="#D45127"/>
<stop offset="0.7547" stop-color="#2383C5" stop-opacity="0"/>
</linearGradient>
<linearGradient id="paint21_linear_120_7168" x1="124.685" y1="48.431" x2="169.23" y2="48.431" gradientUnits="userSpaceOnUse">
<stop stop-color="#2383C5" stop-opacity="0"/>
<stop offset="1" stop-color="#D45127"/>
</linearGradient>
<linearGradient id="paint22_linear_120_7168" x1="124.685" y1="48.431" x2="169.23" y2="48.431" gradientUnits="userSpaceOnUse">
<stop stop-color="#D45127"/>
<stop offset="0.7547" stop-color="#2383C5" stop-opacity="0"/>
</linearGradient>
<linearGradient id="paint23_linear_120_7168" x1="72.2295" y1="108.761" x2="133.011" y2="108.761" gradientUnits="userSpaceOnUse">
<stop stop-color="#2383C5" stop-opacity="0"/>
<stop offset="1" stop-color="#D45127"/>
</linearGradient>
<linearGradient id="paint24_linear_120_7168" x1="72.2295" y1="108.761" x2="133.011" y2="108.761" gradientUnits="userSpaceOnUse">
<stop stop-color="#D45127"/>
<stop offset="0.7547" stop-color="#2383C5" stop-opacity="0"/>
</linearGradient>
<linearGradient id="paint25_linear_120_7168" x1="73.6868" y1="74.3165" x2="127.807" y2="74.3165" gradientUnits="userSpaceOnUse">
<stop stop-color="#2383C5" stop-opacity="0"/>
<stop offset="1" stop-color="#D45127"/>
</linearGradient>
<linearGradient id="paint26_linear_120_7168" x1="73.6868" y1="74.3165" x2="127.807" y2="74.3165" gradientUnits="userSpaceOnUse">
<stop stop-color="#D45127"/>
<stop offset="0.7547" stop-color="#2383C5" stop-opacity="0"/>
</linearGradient>
<linearGradient id="paint27_linear_120_7168" x1="81.3884" y1="40.0808" x2="125.517" y2="40.0808" gradientUnits="userSpaceOnUse">
<stop stop-color="#2383C5" stop-opacity="0"/>
<stop offset="1" stop-color="#D45127"/>
</linearGradient>
<linearGradient id="paint28_linear_120_7168" x1="81.3884" y1="40.0808" x2="125.517" y2="40.0808" gradientUnits="userSpaceOnUse">
<stop stop-color="#D45127"/>
<stop offset="0.7547" stop-color="#2383C5" stop-opacity="0"/>
</linearGradient>
<linearGradient id="paint29_linear_120_7168" x1="63.6953" y1="11.5003" x2="103.661" y2="11.5003" gradientUnits="userSpaceOnUse">
<stop stop-color="#D45127"/>
<stop offset="1" stop-color="#2383C5" stop-opacity="0"/>
</linearGradient>
<linearGradient id="paint30_linear_120_7168" x1="63.6953" y1="11.4472" x2="104.077" y2="11.4472" gradientUnits="userSpaceOnUse">
<stop stop-color="#D45127"/>
<stop offset="0.7547" stop-color="#2383C5" stop-opacity="0"/>
</linearGradient>
<linearGradient id="paint31_linear_120_7168" x1="90.2082" y1="72.3433" x2="110.697" y2="70.0635" gradientUnits="userSpaceOnUse">
<stop stop-color="#D45127"/>
<stop offset="0.7547" stop-color="#2383C5" stop-opacity="0"/>
</linearGradient>
<linearGradient id="paint32_linear_120_7168" x1="90.2082" y1="72.3433" x2="110.697" y2="70.0635" gradientUnits="userSpaceOnUse">
<stop stop-color="#2383C5" stop-opacity="0"/>
<stop offset="0.7169" stop-color="#D45127"/>
</linearGradient>
<linearGradient id="paint33_linear_120_7168" x1="103.876" y1="81.5131" x2="97.9924" y2="61.6972" gradientUnits="userSpaceOnUse">
<stop stop-color="#D45127"/>
<stop offset="0.7547" stop-color="#2383C5" stop-opacity="0"/>
</linearGradient>
<linearGradient id="paint34_linear_120_7168" x1="103.876" y1="81.5131" x2="97.9924" y2="61.6972" gradientUnits="userSpaceOnUse">
<stop stop-color="#2383C5" stop-opacity="0"/>
<stop offset="0.7169" stop-color="#D45127"/>
</linearGradient>
</defs>
</svg>
