<svg id="Layer_1" data-name="Layer 1" xmlns="http://www.w3.org/2000/svg" xmlns:xlink="http://www.w3.org/1999/xlink" viewBox="0 0 1080 1080"><defs><style>.cls-1{fill:url(#New_Gradient_Swatch_copy_2);}.cls-2{opacity:0.2;fill:url(#linear-gradient);}.cls-3{opacity:0.6;fill:url(#New_Gradient_Swatch_copy_2-2);}.cls-4{fill:url(#New_Gradient_Swatch_copy_2-3);}.cls-5{fill:url(#New_Gradient_Swatch_copy_2-4);}</style><linearGradient id="New_Gradient_Swatch_copy_2" x1="13.13" y1="574.02" x2="1066.35" y2="574.02" gradientUnits="userSpaceOnUse"><stop offset="0" stop-color="#d45127"/><stop offset="1" stop-color="#2383c5" stop-opacity="0"/></linearGradient><linearGradient id="linear-gradient" x1="13.13" y1="574.02" x2="1066.35" y2="574.02" gradientUnits="userSpaceOnUse"><stop offset="0" stop-color="#2383c5" stop-opacity="0"/><stop offset="1" stop-color="#d45127"/></linearGradient><linearGradient id="New_Gradient_Swatch_copy_2-2" x1="13.13" y1="574.02" x2="1565.56" y2="574.02" xlink:href="#New_Gradient_Swatch_copy_2"/><linearGradient id="New_Gradient_Swatch_copy_2-3" x1="216.07" y1="541.44" x2="415" y2="541.44" xlink:href="#New_Gradient_Swatch_copy_2"/><linearGradient id="New_Gradient_Swatch_copy_2-4" x1="315.2" y1="969.13" x2="424.95" y2="969.13" gradientTransform="translate(-86.53 -427.69)" xlink:href="#New_Gradient_Swatch_copy_2"/></defs><path class="cls-1" d="M295.17,198.26C197,225,233.32,284.67,130,372S-36.15,708,62.78,829.46s142,137.08,188.63,118c49.19-20.13,252.64-75.67,296.28-80.27S1071.36,804,1066.31,713.32C1047.29,371.45,436.54,159.79,295.17,198.26Z"/><path class="cls-2" d="M295.17,198.26C197,225,233.32,284.67,130,372S-36.15,708,62.78,829.46s142,137.08,188.63,118c49.19-20.13,252.64-75.67,296.28-80.27S1071.36,804,1066.31,713.32C1047.29,371.45,436.54,159.79,295.17,198.26Z"/><path class="cls-3" d="M1066.31,713.32c-19-341.87-629.77-553.53-771.14-515.06C197,225,233.32,284.67,130,372S-36.15,708,62.78,829.46s142,137.08,188.63,118c49.19-20.13,252.64-75.67,296.28-80.27S1071.36,804,1066.31,713.32ZM117,415c12.18-8.39,27.31-24,43.49-42.62,9.91-2.07,20-2,27.57,3.27,24.12,16.8,60.88,83.13,51.82,108-.36,1-.68,1.91-1,2.85-22.76,15.83-35.94,40.58-34.71,65a105.08,105.08,0,0,1-15.66,1.58C154.08,554,77.42,570.34,66.23,560a33.42,33.42,0,0,1-6.48-8.53C71.2,486.08,95.25,430.06,117,415ZM91.21,764.14c-35.2-44.59-42.69-114-36-179.6,12.13-4.9,31.93-11.48,48.94-10.52,25.21,1.41,71.76-18.15,103.12-6.13.33,1,.68,2,1.07,3,14.07,36,59.17,52,100.72,35.75a90.92,90.92,0,0,0,30-19c27.66,38.58,73.74,106,74.34,128.33.86,31.87,7.75,48.24,7.75,55.13,0,3.93-8.56,17.1-23.94,30.1-57.94,13.51-102.65,24.26-117.31,28.33C230.74,843.11,168.72,862.32,91.21,764.14Zm715.73-53.45c-47.67,8.63-174.62,36.62-292.58,63.46a44.22,44.22,0,0,1-8-3.12c-20.9-11.21-77.52-51.11-85.27-78.09-5.65-19.69-50.67-81.51-74.64-113.54,15.66-19.59,21.2-44.75,12.35-67.38-13.26-33.91-54.05-50.07-93.47-38.25-5.4-4.56-9.95-11.23-11.76-21-5.74-31-64.6-73.64-61.87-101.21.43-4.31,3.15-14.2,6.31-24.63,34.47-43.2,67.33-86.18,81.83-92.5C481.37,146.59,934.4,419.07,1008.38,590,1038.63,659.92,954.23,684,806.94,710.69Z"/><path class="cls-4" d="M347.44,516.45c-11.95-30.57-50.25-44.16-85.54-30.36s-54.2,49.77-42.25,80.34,50.25,44.16,85.54,30.36S359.4,547,347.44,516.45Zm-46.58,69.26c-28.23,11-58.86.17-68.42-24.28s5.57-53.22,33.79-64.26,58.86-.17,68.42,24.28S329.08,574.67,300.86,585.71Z"/><ellipse class="cls-5" cx="283.55" cy="541.44" rx="54.88" ry="47.53" transform="translate(-177.73 140.46) rotate(-21.36)"/></svg>