<svg xmlns="http://www.w3.org/2000/svg" xmlns:xlink="http://www.w3.org/1999/xlink" viewBox="0 0 1148.23649 941.89945"><defs><style>.cls-1{fill:#e99b23;}.cls-2{fill:#fdc148;}.cls-3{fill:url(#linear-gradient);}.cls-4{fill:#ce791d;}.cls-5{fill:url(#linear-gradient-2);}.cls-6{fill:url(#linear-gradient-3);}.cls-7{opacity:0.1;}.cls-8{fill:#fff;}</style><linearGradient id="linear-gradient" x1="824.91959" y1="556.74461" x2="1148.23554" y2="556.74461" gradientUnits="userSpaceOnUse"><stop offset="0" stop-color="#fdc148" stop-opacity="0"/><stop offset="1" stop-color="#ee9826"/></linearGradient><linearGradient id="linear-gradient-2" x1="383.54314" y1="470.94955" x2="694.72725" y2="470.94955" xlink:href="#linear-gradient"/><linearGradient id="linear-gradient-3" x1="102.4245" y1="556.74461" x2="319.69228" y2="556.74461" xlink:href="#linear-gradient"/></defs><g id="Layer_2" data-name="Layer 2"><g id="Layer_49" data-name="Layer 49"><rect class="cls-1" x="942.14469" y="399.29075" width="88.86646" height="62.61765"/><path class="cls-2" d="M1120.771,941.89945H852.40165c-14.74944,0-26.32959-13.17335-25.06032-28.5243,4.39856-53.19751,13.15925-166.246,12.15959-211.47138-.76965-34.81926-14.58156-138.47888-14.58156-138.47888,0-56.066,43.50752-101.51649,97.17678-101.51649h128.96357c53.66926,0,97.17678,45.45048,97.17678,101.51649,0,0-13.71631,103.66237-14.48065,138.47888-.99293,45.229,7.70908,158.29667,12.07678,211.48764C1147.09269,928.737,1135.51444,941.89945,1120.771,941.89945Z"/><path class="cls-2" d="M1114.1851,299.19739a127.6571,127.6571,0,0,1-83.15148,119.65c-13.84312,5.14541-75.06756,5.14555-88.91041.00036A127.62233,127.62233,0,1,1,1114.1851,299.19739Z"/><path class="cls-3" d="M1133.75649,701.90339c.76408-34.816,14.479-138.47995,14.479-138.47995,0-56.06555-43.50678-101.51459-97.17564-101.51459h-20.04932v-43.056a.07744.07744,0,0,0,.022-.0055,127.60876,127.60876,0,1,0-88.90818,0,.06506.06506,0,0,0,.02016.0055v43.056H922.09706c-53.66886,0-97.17747,45.449-97.17747,101.51459,0,0,13.81208,103.66207,14.58166,138.47995.99862,45.2255-7.76174,158.27275-12.16116,211.47254-1.268,15.35123,10.31234,28.522,25.06257,28.522h268.36813c14.74473,0,26.32138-13.16161,25.06073-28.50735C1141.46509,860.2,1132.76337,747.13255,1133.75649,701.90339Z"/><polygon class="cls-4" points="1118.351 876.25 1091.601 796.71 1077.129 828.032 1056.605 807.852 1062.199 747.609 1045.723 807.852 1070.361 842.68 1035.177 918.83 1118.351 936.091 1094.617 892.535 1118.351 876.25"/><rect class="cls-1" x="498.19688" y="280.97385" width="81.8755" height="64.72695"/><path class="cls-2" d="M653.20673,941.89945H425.06254L383.542,559.25693V547.84059c0-98.65543,48.58212-181.71152,114.651-206.41961,13.04521-4.87858,68.83728-4.87873,81.88215-.00042,66.06941,24.70756,114.65208,107.764,114.65208,206.42v11.41634Z"/><path class="cls-2" d="M637.54549,201.17978c0,43.70725-23.55552,81.3636-57.466,98.45074-12.4673,6.28214-69.4218,6.28232-81.88887.00046-33.91094-17.08691-57.46688-54.74355-57.46688-98.4512C440.72378,141.40341,524.86689,0,539.13463,0S637.54549,141.40341,637.54549,201.17978Z"/><path class="cls-5" d="M580.07488,341.42052l-.00366-.00183V299.6343l.00732-.00367c33.91271-17.08828,57.46728-54.7426,57.46728-98.45093,0-59.77784-84.14229-201.17852-98.41246-201.17852-14.2665,0-98.41062,141.40068-98.41062,201.17852,0,43.70833,23.5564,81.36448,57.46911,98.45093l.00366.00184v41.78622l-.00366.00183c-66.06639,24.70893-114.64871,107.76465-114.64871,206.42081v11.4154l41.52053,382.6412H653.20672l41.52053-382.6412v-11.4154C694.72725,449.18517,646.14493,366.12762,580.07488,341.42052Z"/><polygon class="cls-4" points="625.066 678.946 584.045 676.934 565.905 660.807 554.355 620.191 561.42 665.222 581.557 685.408 583.494 696.723 548.175 726.146 544.643 765.745 555.238 727.029 588.791 701.903 587.026 685.53 593.206 680.369 625.066 685.53 690.85 594.993 625.066 678.946"/><rect class="cls-1" x="117.22534" y="399.29075" width="88.86646" height="62.61765"/><path class="cls-2" d="M295.85161,941.89945H27.48229c-14.74944,0-26.32959-13.17335-25.06032-28.5243,4.39856-53.19751,13.15926-166.246,12.15959-211.47138C13.81192,667.08451,0,563.42489,0,563.42489c0-56.066,43.50753-101.51649,97.17678-101.51649H226.14036c53.66925,0,97.17677,45.45048,97.17677,101.51649,0,0-13.71631,103.66237-14.48065,138.47888-.99292,45.229,7.70908,158.29667,12.07678,211.48764C322.17334,928.737,310.59509,941.89945,295.85161,941.89945Z"/><path class="cls-2" d="M289.26574,299.19739a127.65709,127.65709,0,0,1-83.15147,119.65c-13.84313,5.14541-75.06757,5.14555-88.91042.00036A127.62233,127.62233,0,1,1,289.26574,299.19739Z"/><polygon class="cls-4" points="106.692 614.01 104.042 603.856 105.588 615.555 123.579 620.412 100.376 650.511 98.116 647.879 86.825 589.287 131.843 563.173 120.598 503.198 128.545 560.812 82.189 587.3 91.203 639.831 91.203 660.858 77.554 696.723 23.251 701.903 81.527 701.903 92.334 674.584 106.692 657.866 102.403 652.872 125.455 619.308 106.692 614.01"/><path class="cls-6" d="M308.8355,701.90339c.76591-34.816,14.48271-138.47995,14.48271-138.47995,0-56.06555-43.5086-101.51459-97.17747-101.51459H206.09142v-43.056l.02382-.0055a127.60693,127.60693,0,1,0-88.91184,0,.09679.09679,0,0,0,.022.0055v43.056H97.17607c-53.66886,0-97.17564,45.449-97.17564,101.51459,0,0,13.81208,103.66207,14.58166,138.47995,1.00045,45.2255-7.76174,158.27275-12.15932,211.47254-1.26981,15.35123,10.3105,28.522,25.0589,28.522h268.37c14.7429,0,26.32138-13.16161,25.06257-28.50735C316.54593,860.2,307.84238,747.13255,308.8355,701.90339Z"/><g class="cls-7"><path class="cls-8" d="M1133.756,701.90375c.76416-34.81653,14.48047-138.47888,14.48047-138.47888,0-56.066-43.50733-101.51648-97.17676-101.51648H1031.0111V418.85516l.02246-.00781a127.60706,127.60706,0,1,0-88.9104.00037l.02148.00744v43.05323H922.09606c-53.66919,0-97.17676,45.4505-97.17676,101.51648,0,0,13.812,103.6596,14.58154,138.47888.99976,45.2254-7.761,158.27386-12.15942,211.47137-1.26929,15.351,10.31079,28.52429,25.0603,28.52429h268.36939c14.7434,0,26.32153-13.16247,25.06152-28.508C1141.465,860.20044,1132.76281,747.13269,1133.756,701.90375Z"/><path class="cls-8" d="M580.07506,341.42053l-.00268-.001V299.63385l.00708-.00336c33.9104-17.08709,57.46606-54.74347,57.46606-98.45074C637.54552,141.40338,553.40245,0,539.13463,0s-98.41089,141.40338-98.41089,201.17975c0,43.70764,23.55591,81.36432,57.4668,98.45123l.00635.00293v41.78571l-.00391.00134C432.12413,366.129,383.5421,449.18512,383.5421,547.84058V559.2569l41.52051,382.64251h228.144L694.72716,559.2569V547.84058C694.72716,449.18457,646.14464,366.12811,580.07506,341.42053Z"/><path class="cls-8" d="M308.83654,701.90375c.76416-34.81653,14.48046-138.47888,14.48046-138.47888,0-56.066-43.50732-101.51648-97.17675-101.51648H206.09191V418.85516l.02246-.00781a127.60717,127.60717,0,1,0-88.91065.00037l.02149.00744v43.05323H97.17687c-53.66944,0-97.17676,45.4505-97.17676,101.51648,0,0,13.81177,103.6596,14.58154,138.47888.99952,45.2254-7.76123,158.27386-12.15966,211.47137-1.26929,15.351,10.31079,28.52429,25.0603,28.52429H295.85167c14.74341,0,26.32178-13.16247,25.06153-28.508C316.54552,860.20044,307.84362,747.13269,308.83654,701.90375Z"/></g></g></g></svg>