<svg xmlns="http://www.w3.org/2000/svg" viewBox="0 0 1094.82353 700.50153"><defs><style>.cls-1{fill:#9c7ab6;}.cls-2{fill:#9f86be;}.cls-3{fill:#8161a8;}.cls-4{fill:#fff;opacity:0.1;}</style></defs><g id="Layer_2" data-name="Layer 2"><g id="Layer_49" data-name="Layer 49"><path class="cls-1" d="M28.99427,120.61619h1036.835a0,0,0,0,1,0,0V669.44562a31.05591,31.05591,0,0,1-31.05591,31.05591H60.05018a31.05591,31.05591,0,0,1-31.05591-31.05591V120.61619A0,0,0,0,1,28.99427,120.61619Z"/><rect class="cls-2" y="0.00004" width="1094.82353" height="143.81157"/><rect class="cls-3" x="371.12662" y="223.26148" width="352.57029" height="64.94716"/><path class="cls-4" d="M1094.82352,0H0V143.81158H28.99417v525.634a31.056,31.056,0,0,0,31.05615,31.05591h974.72315a31.05578,31.05578,0,0,0,31.05566-31.05591v-525.634h28.99439Z"/></g></g></svg>