<svg id="Layer_1" data-name="Layer 1" xmlns="http://www.w3.org/2000/svg" xmlns:xlink="http://www.w3.org/1999/xlink" viewBox="0 0 1080 1080"><defs><style>.cls-1{fill:url(#linear-gradient);}.cls-10,.cls-13,.cls-16,.cls-18,.cls-2,.cls-4,.cls-6,.cls-8{opacity:0.2;}.cls-2{fill:url(#linear-gradient-2);}.cls-3{fill:url(#linear-gradient-3);}.cls-4{fill:url(#linear-gradient-4);}.cls-5{fill:url(#linear-gradient-5);}.cls-6{fill:url(#linear-gradient-6);}.cls-7{opacity:0.4;fill:url(#linear-gradient-7);}.cls-8{fill:url(#linear-gradient-8);}.cls-9{fill:url(#linear-gradient-9);}.cls-10{fill:url(#linear-gradient-10);}.cls-11{fill:url(#linear-gradient-11);}.cls-12{fill:url(#linear-gradient-12);}.cls-13{fill:url(#linear-gradient-13);}.cls-14{fill:url(#linear-gradient-14);}.cls-15{fill:url(#linear-gradient-15);}.cls-16{fill:url(#linear-gradient-16);}.cls-17{fill:url(#linear-gradient-17);}.cls-18{fill:url(#linear-gradient-18);}.cls-19,.cls-20{fill:none;stroke-miterlimit:10;stroke-width:3px;}.cls-19{stroke:url(#linear-gradient-19);}.cls-20{stroke:url(#linear-gradient-20);}</style><linearGradient id="linear-gradient" x1="377.35" y1="129.76" x2="527.85" y2="129.76" gradientUnits="userSpaceOnUse"><stop offset="0" stop-color="#d45127"/><stop offset="1" stop-color="#2383c5" stop-opacity="0"/></linearGradient><linearGradient id="linear-gradient-2" x1="377.35" y1="129.76" x2="527.85" y2="129.76" gradientUnits="userSpaceOnUse"><stop offset="0" stop-color="#2383c5" stop-opacity="0"/><stop offset="1" stop-color="#d45127"/></linearGradient><linearGradient id="linear-gradient-3" x1="257.05" y1="608.79" x2="648.14" y2="608.79" xlink:href="#linear-gradient"/><linearGradient id="linear-gradient-4" x1="257.05" y1="608.79" x2="648.14" y2="608.79" xlink:href="#linear-gradient-2"/><linearGradient id="linear-gradient-5" x1="379.64" y1="62.74" x2="525.55" y2="62.74" xlink:href="#linear-gradient"/><linearGradient id="linear-gradient-6" x1="379.64" y1="62.74" x2="525.55" y2="62.74" xlink:href="#linear-gradient-2"/><linearGradient id="linear-gradient-7" x1="288.43" y1="750.32" x2="692.32" y2="750.32" xlink:href="#linear-gradient"/><linearGradient id="linear-gradient-8" x1="288.43" y1="750.32" x2="616.76" y2="750.32" xlink:href="#linear-gradient-2"/><linearGradient id="linear-gradient-9" x1="165.92" y1="1324.31" x2="317.67" y2="1404.06" gradientTransform="translate(141.89 -576.33) scale(1.07 1)" gradientUnits="userSpaceOnUse"><stop offset="0.06" stop-color="#d45127"/><stop offset="1" stop-color="#2383c5" stop-opacity="0"/></linearGradient><linearGradient id="linear-gradient-10" x1="159.05" y1="1333.18" x2="255.15" y2="1358.11" gradientTransform="translate(141.89 -576.33) scale(1.07 1)" xlink:href="#linear-gradient-2"/><linearGradient id="linear-gradient-11" x1="-18.91" y1="1324.11" x2="0.44" y2="1324.11" gradientTransform="translate(352.31 -640.49) scale(1.29 1.08)" xlink:href="#linear-gradient"/><linearGradient id="linear-gradient-12" x1="-362.63" y1="2094.65" x2="-259.35" y2="2196.14" gradientTransform="translate(795.42 -1313.86) scale(1.06 1)" xlink:href="#linear-gradient"/><linearGradient id="linear-gradient-13" x1="-357.16" y1="2086.63" x2="-301.5" y2="2168.85" gradientTransform="translate(795.42 -1313.86) scale(1.06 1)" xlink:href="#linear-gradient-2"/><linearGradient id="linear-gradient-14" x1="-295.61" y1="1927.98" x2="-276.26" y2="1927.98" gradientTransform="translate(805.19 -1239.31) scale(1.29 1.08)" xlink:href="#linear-gradient"/><linearGradient id="linear-gradient-15" x1="379.12" y1="979.24" x2="463.42" y2="979.24" gradientTransform="translate(-219.06 -179.24) rotate(-12.86)" xlink:href="#linear-gradient"/><linearGradient id="linear-gradient-16" x1="379.12" y1="979.24" x2="463.42" y2="979.24" gradientTransform="translate(-219.06 -179.24) rotate(-12.86)" xlink:href="#linear-gradient-2"/><linearGradient id="linear-gradient-17" x1="484.08" y1="963.41" x2="557.67" y2="963.41" gradientTransform="translate(-219.06 -179.24) rotate(-12.86)" xlink:href="#linear-gradient"/><linearGradient id="linear-gradient-18" x1="484.08" y1="963.41" x2="557.67" y2="963.41" gradientTransform="translate(-219.06 -179.24) rotate(-12.86)" xlink:href="#linear-gradient-2"/><linearGradient id="linear-gradient-19" x1="407.7" y1="1079.75" x2="580.16" y2="1079.75" gradientTransform="translate(-219.06 -179.24) rotate(-12.86)" xlink:href="#linear-gradient"/><linearGradient id="linear-gradient-20" x1="462.18" y1="1068.55" x2="498.21" y2="1068.55" gradientTransform="translate(-219.06 -179.24) rotate(-12.86)" xlink:href="#linear-gradient"/></defs><rect class="cls-1" x="377.35" y="110.95" width="150.5" height="37.61" rx="2.76"/><rect class="cls-2" x="377.35" y="110.95" width="150.5" height="37.61" rx="2.76"/><path class="cls-3" d="M634.62,412.9h0c-5.36-6.14-68.34-45.38-93.81-67.88-13.73-12.14-18.41-24.79-19.81-33.87V148.56H384.19V311.15c-1.4,9.08-6.08,21.73-19.81,33.87-25.47,22.5-88.45,61.74-93.81,67.88h0a43.13,43.13,0,0,0-13.52,31.57v582c0,23.5,18.31,42.55,40.89,42.55H607.25c22.59,0,40.89-19,40.89-42.55v-582A43.13,43.13,0,0,0,634.62,412.9Z"/><path class="cls-4" d="M634.62,412.9h0c-5.36-6.14-68.34-45.38-93.81-67.88-13.73-12.14-18.41-24.79-19.81-33.87V148.56H384.19V311.15c-1.4,9.08-6.08,21.73-19.81,33.87-25.47,22.5-88.45,61.74-93.81,67.88h0a43.13,43.13,0,0,0-13.52,31.57v582c0,23.5,18.31,42.55,40.89,42.55H607.25c22.59,0,40.89-19,40.89-42.55v-582A43.13,43.13,0,0,0,634.62,412.9Z"/><path class="cls-5" d="M396.45,14.53c-9.63,0-17.29,7.26-16.79,15.92L390,111H515.25l10.28-80.5c.51-8.66-7.15-15.92-16.78-15.92Z"/><path class="cls-6" d="M396.45,14.53c-9.63,0-17.29,7.26-16.79,15.92L390,111H515.25l10.28-80.5c.51-8.66-7.15-15.92-16.78-15.92Z"/><path class="cls-7" d="M288.43,459.32V998.5c0,23.65,15.37,42.82,34.33,42.82H582.43c19,0,34.33-19.17,34.33-42.82V459.32Z"/><path class="cls-8" d="M288.43,459.32V998.5c0,23.65,15.37,42.82,34.33,42.82H582.43c19,0,34.33-19.17,34.33-42.82V459.32Z"/><ellipse class="cls-9" cx="362.6" cy="769.02" rx="53.2" ry="45.69" transform="translate(-303.32 240.42) rotate(-26.31)"/><ellipse class="cls-10" cx="362.6" cy="769.02" rx="53.2" ry="45.69" transform="translate(-303.32 240.42) rotate(-26.31)"/><ellipse class="cls-11" cx="340.35" cy="788.6" rx="12.53" ry="15.14" transform="translate(-314.31 232.59) rotate(-26.31)"/><ellipse class="cls-12" cx="446.72" cy="812.8" rx="52.45" ry="45.69" transform="translate(-474.73 918.31) rotate(-67.74)"/><ellipse class="cls-13" cx="446.72" cy="812.8" rx="52.45" ry="45.69" transform="translate(-474.73 918.31) rotate(-67.74)"/><ellipse class="cls-14" cx="434.96" cy="841.53" rx="12.53" ry="15.14" transform="matrix(0.53, -0.85, 0.85, 0.53, -509.01, 762.2)"/><path class="cls-15" d="M459.44,740s-53.81-6.16-75.82-47.63-24-56.51-30.21-67.64C353.41,624.73,471.8,639,459.44,740Z"/><path class="cls-16" d="M459.44,740s-53.81-6.16-75.82-47.63-24-56.51-30.21-67.64C353.41,624.73,471.8,639,459.44,740Z"/><path class="cls-17" d="M517.39,748.17s-48.87-42.71-49.64-107.48,18.44-90.56,15.65-99.52C483.4,541.17,593.86,653.22,517.39,748.17Z"/><path class="cls-18" d="M517.39,748.17s-48.87-42.71-49.64-107.48,18.44-90.56,15.65-99.52C483.4,541.17,593.86,653.22,517.39,748.17Z"/><path class="cls-19" d="M594.42,782.24S514.8,722.41,410.3,745.43"/><path class="cls-20" d="M502.43,744.35s-27.13,15.51-30,22.88"/></svg>