<svg xmlns="http://www.w3.org/2000/svg" xmlns:xlink="http://www.w3.org/1999/xlink" viewBox="0 0 1080 1080"><defs><style>.cls-1{fill:url(#linear-gradient);}.cls-2{fill:url(#linear-gradient-2);}.cls-3{fill:url(#linear-gradient-3);}.cls-4{fill:url(#New_Gradient_Swatch_1);}.cls-10,.cls-14,.cls-15,.cls-16,.cls-17,.cls-18,.cls-19,.cls-5,.cls-7{opacity:0.2;}.cls-5{fill:url(#linear-gradient-4);}.cls-6{fill:url(#New_Gradient_Swatch_1-2);}.cls-7{fill:url(#linear-gradient-5);}.cls-8{fill:url(#New_Gradient_Swatch_1-3);}.cls-9{fill:url(#New_Gradient_Swatch_1-4);}.cls-10{fill:url(#linear-gradient-6);}.cls-11{fill:url(#New_Gradient_Swatch_1-5);}.cls-12{fill:url(#New_Gradient_Swatch_1-6);}.cls-13{fill:url(#New_Gradient_Swatch_1-7);}.cls-14{fill:url(#linear-gradient-7);}.cls-15{fill:url(#linear-gradient-8);}.cls-16{fill:url(#linear-gradient-9);}.cls-17{fill:url(#linear-gradient-10);}.cls-18{fill:url(#linear-gradient-11);}.cls-20{fill:url(#linear-gradient-12);}.cls-21{fill:url(#linear-gradient-13);}</style><linearGradient id="linear-gradient" x1="461.85" y1="464.12" x2="624.03" y2="464.12" gradientUnits="userSpaceOnUse"><stop offset="0" stop-color="#2484c7" stop-opacity="0"/><stop offset="0" stop-color="#d2542b" stop-opacity="0.97"/><stop offset="1" stop-color="#3b83bd" stop-opacity="0.03"/><stop offset="1" stop-color="#d55127"/></linearGradient><linearGradient id="linear-gradient-2" x1="53.52" y1="762.43" x2="1050.01" y2="762.43" xlink:href="#linear-gradient"/><linearGradient id="linear-gradient-3" x1="220.39" y1="609.01" x2="220.78" y2="609.01" xlink:href="#linear-gradient"/><linearGradient id="New_Gradient_Swatch_1" x1="451.54" y1="696.37" x2="771.58" y2="696.37" gradientUnits="userSpaceOnUse"><stop offset="0" stop-color="#2484c7" stop-opacity="0"/><stop offset="1" stop-color="#d55127"/></linearGradient><linearGradient id="linear-gradient-4" x1="452.54" y1="697.37" x2="772.58" y2="697.37" gradientUnits="userSpaceOnUse"><stop offset="0" stop-color="#d55127"/><stop offset="1" stop-color="#2484c7" stop-opacity="0"/></linearGradient><linearGradient id="New_Gradient_Swatch_1-2" x1="464.52" y1="615.66" x2="528.01" y2="615.66" xlink:href="#New_Gradient_Swatch_1"/><linearGradient id="linear-gradient-5" x1="464.52" y1="614.96" x2="528.01" y2="614.96" xlink:href="#linear-gradient-4"/><linearGradient id="New_Gradient_Swatch_1-3" x1="90.36" y1="681.49" x2="309.15" y2="681.49" gradientTransform="translate(-116.41 -105.59) rotate(-8.74)" xlink:href="#New_Gradient_Swatch_1"/><linearGradient id="New_Gradient_Swatch_1-4" x1="241.67" y1="448.74" x2="464.52" y2="448.74" xlink:href="#New_Gradient_Swatch_1"/><linearGradient id="linear-gradient-6" x1="208.27" y1="642.98" x2="871.8" y2="642.98" xlink:href="#linear-gradient-4"/><linearGradient id="New_Gradient_Swatch_1-5" x1="280.41" y1="539.18" x2="344.2" y2="539.18" xlink:href="#New_Gradient_Swatch_1"/><linearGradient id="New_Gradient_Swatch_1-6" x1="146.96" y1="640.98" x2="227.66" y2="640.98" xlink:href="#New_Gradient_Swatch_1"/><linearGradient id="New_Gradient_Swatch_1-7" x1="208.27" y1="642.98" x2="871.8" y2="642.98" xlink:href="#New_Gradient_Swatch_1"/><linearGradient id="linear-gradient-7" x1="90.36" y1="681.49" x2="309.15" y2="681.49" gradientTransform="translate(-116.41 -105.59) rotate(-8.74)" xlink:href="#linear-gradient-4"/><linearGradient id="linear-gradient-8" x1="241.67" y1="448.74" x2="464.52" y2="448.74" xlink:href="#linear-gradient-4"/><linearGradient id="linear-gradient-9" x1="280.41" y1="539.18" x2="344.2" y2="539.18" xlink:href="#linear-gradient-4"/><linearGradient id="linear-gradient-10" x1="146.96" y1="640.98" x2="227.66" y2="640.98" xlink:href="#linear-gradient"/><linearGradient id="linear-gradient-11" x1="461.85" y1="463.64" x2="624.03" y2="463.64" gradientUnits="userSpaceOnUse"><stop offset="0" stop-color="#2484c7" stop-opacity="0"/><stop offset="0" stop-color="#d2542b" stop-opacity="0.97"/><stop offset="0" stop-color="#3b83bd" stop-opacity="0.03"/><stop offset="1" stop-color="#d55127"/></linearGradient><linearGradient id="linear-gradient-12" x1="53.52" y1="761.95" x2="1050.01" y2="761.95" xlink:href="#linear-gradient-11"/><linearGradient id="linear-gradient-13" x1="220.39" y1="608.53" x2="220.78" y2="608.53" xlink:href="#linear-gradient-11"/></defs><g id="Layer_2" data-name="Layer 2"><path class="cls-1" d="M464,473.68a19.66,19.66,0,0,1-2.18,5.57q15.58-5,31.79-9.39A611.55,611.55,0,0,1,624,449.25a825.09,825.09,0,0,0-100.29,3.58q-31.12,3-61.07,8.17A19.75,19.75,0,0,1,464,473.68Z"/><path class="cls-2" d="M1049.16,704.73c-10.72-111.3-120.83-198.72-275.37-236,49.18,17.87,83.41,47.34,93.88,86.41C885,619.71,833,694,741.61,750.37l-.57-.65a218.52,218.52,0,0,1-21.24-29.05,218.19,218.19,0,0,0,21.78,30c19,22,30.57,27,30.16,41.27-1,36.2-77.7,69.52-143.65,69.82-29.79.14-63.11.29-83.33-22.2-29.89-33.25,5.4-75.24-23.81-127-.48-.84-1-1.65-1.44-2.46l.9,1.56c26,46.11.85,84.47,16.19,115.8C374.88,857.52,234,818.13,210.75,731.2c-17.64-65.81,36.69-141.72,131.43-198.5-.42-.23-.83-.47-1.23-.74a19.19,19.19,0,0,1-2.23-1.73,19.9,19.9,0,0,1-30.51-17.5,19.81,19.81,0,0,1-12.31-3.3l-.22-.15q-3.48,1.47-6.93,3a19.86,19.86,0,0,1-1.64,23.65A19.91,19.91,0,0,1,267,570.28a19.88,19.88,0,0,1-29.83,8.45,19.87,19.87,0,0,1-10.32,28.78c-3.52,7-6.52,16.63-4.19,27.37a37.87,37.87,0,0,0,2.65,7.8,157.59,157.59,0,0,0-10,21.89l-59.74,8.77c4.25-6.05,10.61-17.17,9.41-30.46-1.25-13.9-10.18-23.58-16.32-28.82a19.82,19.82,0,0,1-9.64-5.31c-59.25,56.62-91.27,123.36-84.67,191.8C70.31,966,305.92,1078.72,580.62,1052.26S1065.1,870.21,1049.16,704.73Z"/><path class="cls-3" d="M220.78,608.71h0c-.11.21-.24.4-.35.59Z"/><path class="cls-4" d="M771.57,790.7c-1.05,36.19-77.7,69.52-143.65,69.82-29.79.14-63.11.29-83.33-22.21-29.89-33.24,5.41-75.23-23.81-127C498.67,672.18,468,677.7,455.7,639.9c-9.17-28.14-3.33-65.46,19.05-87.3,33.13-32.34,89.85-18.33,119-11.11,15.62,3.86,28.38,7,42.86,15.87,64,39.19,37.17,113.81,104.76,192.07C760.42,771.43,772,776.46,771.57,790.7Z"/><path class="cls-5" d="M772.57,791.7c-1.05,36.19-77.7,69.52-143.65,69.82-29.79.14-63.11.29-83.33-22.21-29.89-33.24,5.41-75.23-23.81-127C499.67,673.18,469,678.7,456.7,640.9c-9.17-28.14-3.33-65.46,19.05-87.3,33.13-32.34,89.85-18.33,119-11.11,15.62,3.86,28.38,7,42.86,15.87,64,39.19,37.17,113.81,104.76,192.07C761.42,772.43,773,777.46,772.57,791.7Z"/><path class="cls-6" d="M499.06,608.38c.13,24.3,34.18,36.32,28.26,51.79-2.17,5.66-8.72,9.27-14.13,10.07-19.73,2.9-48.52-28.11-48.67-59-.12-23.27,16-49.59,33-50.36,5.55-.25,12.72,2.17,15.7,7.2C519.62,579,499,589.4,499.06,608.38Z"/><path class="cls-7" d="M499.06,607.68c.13,24.3,34.18,36.32,28.26,51.79-2.17,5.65-8.72,9.27-14.13,10.07-19.73,2.9-48.52-28.11-48.67-59-.12-23.26,16-49.59,33-50.35,5.55-.25,12.72,2.17,15.7,7.19C519.62,578.26,499,588.7,499.06,607.68Z"/><path class="cls-8" d="M287.94,535.72a19.92,19.92,0,0,0-23.84-30.85l0-.24a19.25,19.25,0,0,0-33.16-10.17,21.44,21.44,0,0,0-.2-2.37,20,20,0,0,0-16.08-16.56,21,21,0,0,0-29.52-12.42A19.27,19.27,0,0,0,148.9,474.8c0,.08,0,.16,0,.24a19.47,19.47,0,0,0-5.95,0,19.91,19.91,0,0,0-7.52,36.56,19.89,19.89,0,0,0-4.29,8.55A19.26,19.26,0,0,0,100,538.08c0,.08,0,.16,0,.24A19.91,19.91,0,0,0,86.6,574.9a19.91,19.91,0,0,0,29.47,26.75,19.87,19.87,0,0,0,18.17,6.75,19.22,19.22,0,0,0,4.39-1.2,19.88,19.88,0,0,0,23.73,5.29,19.91,19.91,0,0,0,34.79,5.17,20.15,20.15,0,0,0,2.71.79,19.9,19.9,0,0,0,21.71-9.93,19.89,19.89,0,0,0,16.46-30,19.88,19.88,0,0,0,29.83-8.45,19.91,19.91,0,0,0,20.08-34.37Z"/><path class="cls-9" d="M257.23,486.89a19.79,19.79,0,0,0,12.67-1.33,19.87,19.87,0,0,0,14.45,12.91,20.07,20.07,0,0,0,4.53.49A19.91,19.91,0,0,0,309,512.54,19.9,19.9,0,0,0,339.55,530a19.19,19.19,0,0,0,2.23,1.73,20.86,20.86,0,0,0,2.34,1.32c34.21-20.42,73.64-38.36,116.84-52.43A19.91,19.91,0,0,0,443,449.46l.06-.24a19.26,19.26,0,0,0-27.16-21.57,18.76,18.76,0,0,0,.67-2.28,19.9,19.9,0,0,0-8.93-21.28,21,21,0,0,0-22.95-22.33,19.27,19.27,0,0,0-38-2.34,2,2,0,0,0,0,.24,19.92,19.92,0,0,0-25.9,29.15,19.93,19.93,0,0,0-7.11,6.4,19.25,19.25,0,0,0-35.53,5.31c0,.08,0,.15-.05.23a20.26,20.26,0,0,0-5.54-2.15,19.91,19.91,0,0,0-20.35,31.3,19.9,19.9,0,0,0,5,37Z"/><path class="cls-10" d="M868.5,555C842.87,459.35,675,421.24,493.64,469.86S186,635.39,211.58,731c23.29,86.93,164.13,126.31,325.85,96.22-15.34-31.33,9.84-69.69-16.19-115.8-22.11-39.15-52.77-33.63-65.08-71.43-9.17-28.14-3.33-65.46,19-87.3,33.14-32.34,89.85-18.32,119-11.11,15.62,3.86,28.38,7,42.86,15.87,64,39.19,37.17,113.81,104.76,192.07l.58.65C833.84,693.78,885.8,619.52,868.5,555Z"/><path class="cls-11" d="M344.2,533.15a19.62,19.62,0,0,1-2.64-1.47,19.19,19.19,0,0,1-2.23-1.73,19.91,19.91,0,0,1-30.52-17.51,19.86,19.86,0,0,1-12.3-3.29c-.43-.29-.84-.59-1.24-.9l-1.35-.31c3.88,6.52,10.46,20.05,6.2,35.06-3.65,12.83-13.57,20.94-19.71,25l10.5,2.36A433.06,433.06,0,0,1,344.2,533.15Z"/><path class="cls-12" d="M215.64,665.6a158.23,158.23,0,0,1,10-21.9,37.58,37.58,0,0,1-2.65-7.79c-2.44-11.22.94-21.25,4.66-28.31a19.46,19.46,0,0,1-5.94,1.1,19.83,19.83,0,0,1-24.48,9,19.91,19.91,0,0,1-34.76-5.4,19.86,19.86,0,0,1-12.67,1.34c-.51-.12-1-.25-1.48-.4l-1.37.2c6,4.7,16.95,15,18.35,30.5,1.2,13.29-5.16,24.41-9.41,30.45Z"/><path class="cls-13" d="M868.5,555C842.87,459.35,675,421.24,493.64,469.86S186,635.39,211.58,731c23.29,86.93,164.13,126.31,325.85,96.22-15.34-31.33,9.84-69.69-16.19-115.8-22.11-39.15-52.77-33.63-65.08-71.43-9.17-28.14-3.33-65.46,19-87.3,33.14-32.34,89.85-18.32,119-11.11,15.62,3.86,28.38,7,42.86,15.87,64,39.19,37.17,113.81,104.76,192.07l.58.65C833.84,693.78,885.8,619.52,868.5,555Z"/><path class="cls-14" d="M287.94,535.72a19.92,19.92,0,0,0-23.84-30.85l0-.24a19.25,19.25,0,0,0-33.16-10.17,21.44,21.44,0,0,0-.2-2.37,20,20,0,0,0-16.08-16.56,21,21,0,0,0-29.52-12.42A19.27,19.27,0,0,0,148.9,474.8c0,.08,0,.16,0,.24a19.47,19.47,0,0,0-5.95,0,19.91,19.91,0,0,0-7.52,36.56,19.89,19.89,0,0,0-4.29,8.55A19.26,19.26,0,0,0,100,538.08c0,.08,0,.16,0,.24A19.91,19.91,0,0,0,86.6,574.9a19.91,19.91,0,0,0,29.47,26.75,19.87,19.87,0,0,0,18.17,6.75,19.22,19.22,0,0,0,4.39-1.2,19.88,19.88,0,0,0,23.73,5.29,19.91,19.91,0,0,0,34.79,5.17,20.15,20.15,0,0,0,2.71.79,19.9,19.9,0,0,0,21.71-9.93,19.89,19.89,0,0,0,16.46-30,19.88,19.88,0,0,0,29.83-8.45,19.91,19.91,0,0,0,20.08-34.37Z"/><path class="cls-15" d="M257.23,486.89a19.79,19.79,0,0,0,12.67-1.33,19.87,19.87,0,0,0,14.45,12.91,20.07,20.07,0,0,0,4.53.49A19.91,19.91,0,0,0,309,512.54,19.9,19.9,0,0,0,339.55,530a19.19,19.19,0,0,0,2.23,1.73,20.86,20.86,0,0,0,2.34,1.32c34.21-20.42,73.64-38.36,116.84-52.43A19.91,19.91,0,0,0,443,449.46l.06-.24a19.26,19.26,0,0,0-27.16-21.57,18.76,18.76,0,0,0,.67-2.28,19.9,19.9,0,0,0-8.93-21.28,21,21,0,0,0-22.95-22.33,19.27,19.27,0,0,0-38-2.34,2,2,0,0,0,0,.24,19.92,19.92,0,0,0-25.9,29.15,19.93,19.93,0,0,0-7.11,6.4,19.25,19.25,0,0,0-35.53,5.31c0,.08,0,.15-.05.23a20.26,20.26,0,0,0-5.54-2.15,19.91,19.91,0,0,0-20.35,31.3,19.9,19.9,0,0,0,5,37Z"/><path class="cls-16" d="M344.2,533.15a19.62,19.62,0,0,1-2.64-1.47,19.19,19.19,0,0,1-2.23-1.73,19.91,19.91,0,0,1-30.52-17.51,19.86,19.86,0,0,1-12.3-3.29c-.43-.29-.84-.59-1.24-.9l-1.35-.31c3.88,6.52,10.46,20.05,6.2,35.06-3.65,12.83-13.57,20.94-19.71,25l10.5,2.36A433.06,433.06,0,0,1,344.2,533.15Z"/><path class="cls-17" d="M215.64,665.6a158.23,158.23,0,0,1,10-21.9,37.58,37.58,0,0,1-2.65-7.79c-2.44-11.22.94-21.25,4.66-28.31a19.46,19.46,0,0,1-5.94,1.1,19.83,19.83,0,0,1-24.48,9,19.91,19.91,0,0,1-34.76-5.4,19.86,19.86,0,0,1-12.67,1.34c-.51-.12-1-.25-1.48-.4l-1.37.2c6,4.7,16.95,15,18.35,30.5,1.2,13.29-5.16,24.41-9.41,30.45Z"/><path class="cls-18" d="M464,473.2a19.84,19.84,0,0,1-2.18,5.58q15.58-5,31.79-9.4A611.51,611.51,0,0,1,624,448.78a823.07,823.07,0,0,0-100.29,3.58q-31.12,3-61.07,8.16A19.75,19.75,0,0,1,464,473.2Z"/><g class="cls-19"><path class="cls-20" d="M1049.16,704.26c-10.72-111.31-120.83-198.73-275.37-236,49.18,17.88,83.41,47.34,93.88,86.41C885,619.23,833,693.5,741.61,749.89l-.57-.65a217.87,217.87,0,0,1-21.24-29,218.19,218.19,0,0,0,21.78,29.95c19,22,30.57,27,30.16,41.27-1,36.2-77.7,69.52-143.65,69.82-29.79.14-63.11.3-83.33-22.2-29.89-33.25,5.4-75.24-23.81-127-.48-.84-1-1.65-1.44-2.45l.9,1.55c26,46.11.85,84.47,16.19,115.81C374.88,857,234,817.65,210.75,730.72,193.11,664.91,247.44,589,342.18,532.23q-.63-.35-1.23-.75a20.28,20.28,0,0,1-2.23-1.72,19.91,19.91,0,0,1-30.51-17.51A19.87,19.87,0,0,1,295.9,509l-.22-.16c-2.32,1-4.63,2-6.93,3a19.86,19.86,0,0,1-1.64,23.65A19.91,19.91,0,0,1,267,569.8a19.88,19.88,0,0,1-29.83,8.45A19.87,19.87,0,0,1,226.88,607c-3.52,7-6.52,16.63-4.19,27.38a37.78,37.78,0,0,0,2.65,7.79,157.59,157.59,0,0,0-10,21.89l-59.74,8.77c4.25-6,10.61-17.17,9.41-30.45-1.25-13.91-10.18-23.58-16.32-28.83a19.82,19.82,0,0,1-9.64-5.31c-59.25,56.62-91.27,123.37-84.67,191.8,15.94,165.48,251.55,278.17,526.25,251.71S1065.1,869.73,1049.16,704.26Z"/><path class="cls-21" d="M220.78,608.23h0c-.11.2-.24.39-.35.59Z"/></g></g></svg>