<svg xmlns="http://www.w3.org/2000/svg" viewBox="0 0 88.75 116"><defs><style>.cls-1{fill:#dfdfdf;}.cls-2{fill:#dbdbdb;}.cls-3{fill:#dedede;}.cls-4{fill:#eaeaea;}.cls-5{fill:#d6d6d6;}.cls-6{fill:#e1e1e1;}.cls-7{fill:#dcdcdc;}.cls-8{fill:#e4e4e4;}.cls-9{fill:#d9d9d9;}.cls-10{fill:#d3d3d3;}.cls-11{fill:#d5d5d5;}.cls-12{fill:#d2d2d2;}.cls-13{fill:#b7b7b7;}.cls-14{fill:#adadad;}.cls-15{fill:#d7d7d7;}.cls-16{fill:#dadada;}.cls-17{fill:#d1d1d1;}.cls-18{fill:#e9e9e9;}.cls-19{fill:#d8d8d8;}.cls-20{fill:#e2e2e2;}.cls-21{fill:#d0d0d0;}.cls-22{fill:#ccc;}.cls-23{fill:#d4d4d4;}.cls-24{fill:#e7e7e7;}.cls-25{fill:#e6e6e6;}.cls-26{fill:#e8e8e8;}.cls-27{fill:#b2b2b2;}.cls-28{fill:#eee;}.cls-29{fill:#ebebeb;}.cls-30{fill:#ececec;}.cls-31{fill:#e3e3e3;}.cls-32{fill:#c2c2c2;}.cls-33{fill:#efefef;}.cls-34{fill:#e5e5e5;}.cls-35{fill:#c5c5c5;}.cls-36{fill:#bdbdbd;}.cls-37{fill:#727272;}.cls-38{fill:#cacaca;}.cls-39{fill:#bfbfbf;}.cls-40{fill:#575757;}.cls-41{fill:#e0e0e0;}.cls-42{fill:#969696;}.cls-43{fill:#ddd;}.cls-44{fill:#a2a2a2;}.cls-45{fill:#f4f4f4;}.cls-46{fill:#cdcdcd;}.cls-47{fill:#c9c9c9;}.cls-48{fill:#b8b8b8;}.cls-49{fill:#a8a8a8;}.cls-50{fill:#8b8b8b;}.cls-51{opacity:0.1;}.cls-52{fill:#fff;}</style></defs><g id="Layer_2" data-name="Layer 2"><g id="Layer_1-2" data-name="Layer 1"><path class="cls-1" d="M26.25,1.66Q48.32.85,70.37,0a8.62,8.62,0,0,1,3.81.37c0,.48.27,1-.1,1.43-.69.93-2.44.8-3.11,1.76-2,1.64-3.81,1.82-6.46.64-3.37-1.5-3.37-1.5-7.05-1.37a41.27,41.27,0,0,0,7.07,2c1,.15,2.11.09,2.5,1.08s-.81,1.2-1.26,1.78a5.14,5.14,0,0,1-4.48.6c-1.91-.59-3.93-.19-5.9-.22a14.62,14.62,0,0,1-5-.66c-3.92-1.49-8.16-1.83-12.45-2a6.53,6.53,0,0,0-3.9.93c.76.42,1.78.07,2.48.54a2.34,2.34,0,0,0,2,.69,3.37,3.37,0,0,1,2.91,1.18c.54.46.81,1,.35,1.6s-1.39.6-2.26.34a13.16,13.16,0,0,0-6.8-.42,6.38,6.38,0,0,0-1.37.52c-.47.34-1.09.16-1.63.24-2.42.73-3.89-.39-5.28-1.59s-.73-2.12.28-3.15a2,2,0,0,0,.13-2.6C24.15,2.57,24.56,1.86,26.25,1.66Z"/><path class="cls-2" d="M26.25,1.66c-.54.52-.74,1.15,0,1.55,1.95,1.06.87,2.27.24,3.29-1.67,2.69-1.16,3.44,2.91,3.75.85.75,1.63,1.57.85,2.58s-2,.5-3,.56c-5.56.34-10.73-.81-15.88-2.15a13.41,13.41,0,0,0-3.05-.39c-1.47,0-2.69-.32-3.43-1.41s-1.37-.93-1.75.16c-.5,1.44-1.47,1.64-2.94.72A11.2,11.2,0,0,1,.05,7.21,14,14,0,0,0,.73,4.8C.75,3,2,2.38,4.32,2.34,11.63,2.19,18.94,1.9,26.25,1.66Z"/><path class="cls-3" d="M80.39,6.33l1.07.76c2.73.58,2.4,2.42,2.67,3.92a3.57,3.57,0,0,1-.48,2.32c0,.13-.05.26-.05.39,0,2.86-1.74,3.67-5.44,2.63-4.26-1.2-5.78-3.77-6.34-6.88-.11-1.29,1-1.35,2.31-1.41,1.53-.06,3.25.45,4.5-.68A1.41,1.41,0,0,1,80.39,6.33Z"/><path class="cls-4" d="M80.39,6.33a1.72,1.72,0,0,0,0,1.53.8.8,0,0,1-.63.38c-1.44-.07-2.87-.22-4.32-.16a29.18,29.18,0,0,1-4.5-.62c-.79-.18-1.74-.28-1.69-1.17.47-2.06,2.12-3.6,3.93-5.07l1-.81A56.41,56.41,0,0,1,80.39,6.33Z"/><path class="cls-5" d="M88.25,102.92c.75,2.72.44,5.47.39,8.21,0,1.26-1.11,1.63-2.61,1.67-2.07.06-4.17-.19-6.2.33-.7,1.14-2.24.3-3.23.73a7.44,7.44,0,0,1-3.6-.22c-1-.35-2.74-.35-2.43-1.58a2.92,2.92,0,0,1,3-2.11A36.55,36.55,0,0,0,80,108.83c.51-.09,1.14-.13,1.14-.61s-.71-.69-1.31-.72c-2.73-.15-5.27.27-6.88,2.07s-3.58,2.28-6.49,1.61c-2.61-.6-5-1-6.57-3-1.45-1.86-2.94-1.91-5.42-.71a9.31,9.31,0,0,1-6.62.67c-.77-.2-1.65-.43-1.68-1.07-.09-1.38-1.58-1.65-2.72-2.23a7.44,7.44,0,0,0-2.82-1.33c-3.24-.81-5.84-2.48-8.76-3.73a1,1,0,0,1-.65-1.16c.26-1.16,1.49-1,2.45-.87a37.77,37.77,0,0,0,4.39.29,4.14,4.14,0,0,1,3.5,1.37,2.92,2.92,0,0,0,.66.6c.75.46,1.5,1.61,2.42.94S45,99.07,44,98.55C41,97,38.42,94.49,34,95.13c-1.13.17-1.76-.38-1.52-1.32,1.49-1.14,3.62-1,5.4-1.58a26.31,26.31,0,0,1,8.35,1.92,4.51,4.51,0,0,0,3,.39,18.86,18.86,0,0,1,9.75.1c2.86.66,6.1,1,8.87-.87a41,41,0,0,0-12.13-.88,8.92,8.92,0,0,1-4-.68,26,26,0,0,0-5.41-1.8c-1.69-.29-1.87-1.9-.19-2.49a4.38,4.38,0,0,0,3.2-3.27,1.49,1.49,0,0,1,.59-.86c2.06-1.37,3.67-3.09,5.9-4.32,1-.35,1.4.27,2,.65a79.77,79.77,0,0,0,8.13,5.5c.15.06.36.11.43.21,2.42,3.73,7.7,5.5,10.66,8.87a3.87,3.87,0,0,0,3.26.85c4.94-.36,7.39,1.29,7.62,5.09C87.85,101.41,87.43,102.23,88.25,102.92Z"/><path class="cls-6" d="M88.25,102.92l-.19,2.31c-.86-2.71-.32-5-2.26-7a5.09,5.09,0,0,0-5.51-1.55,3.86,3.86,0,0,1-4.24-1c-3.25-3.4-7.74-5.94-11.26-9.15a.77.77,0,0,1,.69-.73,3.61,3.61,0,0,1,1.27.09c3,.43,4.07-1.93,6.35-2.61,3.12-.94,3.2-1.26,2.94-4.46,0-.19,0-.39,0-.58-.07-.71,1.46-1.39.27-2.07-1.47-.82-2.65-2.07-4.81-2-1.42,0-2.65-.25-2.18-1.7,2.67-1.17,6.74-.92,8.6.67,1.52,1.29,2.82,1,4.49.18,1.17-.55,1.81-2.12,3.82-1.38.79.5-.16,1.2.35,1.73.23,4.3-.16,8.61.58,12.89,0,.4,0,.79,0,1.18.44.26.34.52,0,.8l0,.78c.85.72-.27,1.64.4,2.37h0c.4.25.35.5,0,.76l.1,1.19c.63,1-.23,2.18.41,3.21l.08.69c.4.27.32.54,0,.81Z"/><path class="cls-7" d="M86.08,71.94c-1.25,1.87-3.79,2.55-5.9,3.61a1.67,1.67,0,0,1-2.06-.37c-1.6-3-5-2.43-8.12-2.46a2.26,2.26,0,0,1-3.43.26,12.11,12.11,0,0,0-3.08-1.52,5.44,5.44,0,0,0-4.37-.22,33,33,0,0,1-6.34,1.46,19.74,19.74,0,0,0-2.94-1.5,2.82,2.82,0,0,1-.77-4.81,2.22,2.22,0,0,1,1.67-.28c2.85.4,5.54-.22,8.23-.76a11.72,11.72,0,0,1,5.2.2c4.77,1.17,9.61,2,14.67.75,2.34-.59,4.82-1.06,6.82.7.49.71-.09,1.55.43,2.26l.09,2.29C86.38,71.71,86.34,71.85,86.08,71.94Z"/><path class="cls-8" d="M85.68,66c0,.4-.09.79-.14,1.18a13.64,13.64,0,0,0-7.09.27,15.59,15.59,0,0,1-6.89.43c-2.93-.42-6.07.14-8.8-1.53-1.44-.88-3.68-.33-5.47.25a14,14,0,0,1-5.54.73c-.91-.08-1.76-.19-2.12.67a1.6,1.6,0,0,0,.6,2.16,9.77,9.77,0,0,0,3.12,1.35c.68,1.59-1.14,1.44-2.17,1.67-1.27.28-2.73.06-3.77.89-2,.22-3.28-.91-4.72-1.64a14.65,14.65,0,0,1-2.78-2,9.93,9.93,0,0,0-5.44-2.76c-.72-.09-1.79-.27-1.79-1.18.23-.52.59-1.21,1.29-1.11,2.73.39,5-1.27,7.72-.83.43,0,.87,0,1.29-.09,3.78-.25,7.57-.08,11.37-.49,2.66-.29,5.21-.89,7.88-1.12a12.08,12.08,0,0,1,3.94-.06c1.76.38,4.62-1.78,4.69-3.48a4.25,4.25,0,0,1,.9-3c.63-.72.19-1.27-.91-1.42a24.52,24.52,0,0,0-2.56-.32c-2.89-.08-5.68-.29-7.74-2.12-.67-.6-1.8,0-2.59-.4a11.16,11.16,0,0,0-4.61-2.62c-1.27-.37-3.41-.93-2.7-2.73a3.24,3.24,0,0,1,2.65-1.25,96.37,96.37,0,0,1,16.32,1.8,1.73,1.73,0,0,1,.63.33c.48,2,2.65,2.4,4.65,2.35,4.28-.11,7.28,1.58,10.22,3.52.15.66.3,1.32.44,2l.09,9c.4.27.32.54,0,.82Z"/><path class="cls-9" d="M85.12,53.46a9,9,0,0,1-4.75-1.27,8.69,8.69,0,0,0-4-1.14c-2.65-.33-5.56-.42-6.93-2.69.27-.78,1.41-.72,2-1.2a3.91,3.91,0,0,0-1.15-3.24,30.34,30.34,0,0,1-3-4.72c-1.21-1.9.45-3.61,3.22-3.38,1.05.09,2.17.94,3.11.24s0-1.64.48-2.42a4.24,4.24,0,0,1,3.18-.24c2.4.63,4.68.82,6.84-.44.6,1.3.3,2.67.51,4,0,.53,0,1.06,0,1.58.59.53.34,1.11.2,1.69-1,1.75-2.67.68-4.13.61a3.23,3.23,0,0,0,3.81-.07c.26-.07.44,0,.52.2,0,1.29.09,2.57.13,3.85Z"/><path class="cls-10" d="M83.06,13.28a52,52,0,0,1,1.07,10.31C84.07,25.7,84,27.8,84,29.9a7,7,0,0,1-6.9-.23C73.14,26.91,68.7,27,63.82,27a42.48,42.48,0,0,1-9.32-.69c-1.74-2.16-1.45-2.68,1.39-3.84,1.7-.7,3.29-1.38,5.31-1a1,1,0,0,0,1.17-.56c.55-1.28,2.05-1.57,3.46-2,.82.1,1.56.44,2.43.48-3.4-1-4.88-3.45-7.23-5.21-1.31-1-.29-1.91,2-2-5.29.41-9.51-2.23-14.47-2.87-1.74-.22-3.4-1.09-5.26-1.46a21,21,0,0,0-7.66,0c-1.64-.65-3.78,0-5.32-1C36.59,2.56,43.2,5,49.58,6.18A27.26,27.26,0,0,0,57.67,7a8.57,8.57,0,0,1,4.27.32c1.32.54,2.25-.4,3.37-.6,1.27,3.19,1.27,3.17,6.6,2.17a.94.94,0,0,1,.69.19c1.22,2.54,2,5.27,6.06,6.3C81.7,16.14,82.7,15.72,83.06,13.28Z"/><path class="cls-6" d="M54.91,26c5.94-.8,11.85.29,17.78.21a2.61,2.61,0,0,1,1.62.55c2.46,2.41,6,2.88,9.65,3.17,0,1,.09,2,.14,3.06,0,.51-.07,1-.07,1.54,0,.86-.47,1.06-1.62.87a55,55,0,0,0-7.73-1.15c-.91,1.28-2.27,1.77-4.23,1.62a3.85,3.85,0,0,0-3.31,1.07c-1.55,1.75-2.85,1.83-4.93.44a12.36,12.36,0,0,1-3.62-3.54,6.36,6.36,0,0,0-5-2.87,16.4,16.4,0,0,0-4.7-1.59,3.34,3.34,0,0,1-2.68-1.58c-.24-.71.2-1.17,1-1.4C49.69,25.64,52.22,24.89,54.91,26Z"/><path class="cls-11" d="M54.91,26c-1.67.25-3.34.48-5,.75a4.29,4.29,0,0,0-2.81,1.21c.06.83-.76,1-1.57,1.15a4.88,4.88,0,0,1-3.07-.2c-1.17-2.05-1.19-2.06-3.67-.39-1,.64-4.2.81-5.09.12a6.87,6.87,0,0,0-3.91-1.32c-1.32-.08-2.31-.55-2.53-1.63s.51-1.6,1.71-1.91,2-1.19,3.37-1.37c.34-.05.6.17.83,0a42.09,42.09,0,0,1-7.72-1.49c-5,.85-10.15.77-15,2.12-.5.53-2.09-.15-2,1.05a1.4,1.4,0,0,1,.12.55,2.63,2.63,0,0,0,1.15,1.73c1,.81.19,2.72-1.29,3.54a3.2,3.2,0,0,1-3.88-.4A1.77,1.77,0,0,1,4,28C4,24.66,1.52,21.81.62,18.64c-.05-2.8-.48-5.61.27-8.4,1-.63.89-1.5,1-2.34s0-1.57,1.24-1.71,2.28.37,2.44,1.14C6,9.66,8.16,9.81,10.6,10A59.6,59.6,0,0,1,18,11.65c3.26.72,6.44.44,9.65.66,2.3.15,1.32-1.3,1.75-2.06H31a2.79,2.79,0,0,1,3,1.64,5.38,5.38,0,0,0,4.61,3,3.1,3.1,0,0,1,2.54,1.82c1.06,2.32,3.18,3.53,6.29,4.14,2.95.58,5.79,1.22,8.89.59,1.62-.33,1.77-.83.85-1.77s-1.38-2-2.53-2.46C51.68,16,50.8,13.63,49,11.8A1.28,1.28,0,0,1,48.89,10c.55-.7,1.38-.32,2.11-.23,4.08.5,6.76,2.6,9.48,4.69,1.83,1.39,3.5,2.9,5.44,4.22.75.5,1.33,1.08.43,1.83-.76-.09-1.76-.32-2.14.29-1.32,2.15-4.1,2-6.44,2.3C55.21,23.33,54.17,24,54.91,26Z"/><path class="cls-9" d="M66.35,20.46Q60.64,16,54.91,11.65c-1.25-1-2.79-1.21-4.95-.93,1.66.92,3.76,1.53,2.4,3.32-.09.11.23.53.49.63,3.16,1.2,4.19,4,7.07,5.39.62.3,1,.73.77,1.33a1.9,1.9,0,0,1-1.58.91c-4.37.6-8.75,1.33-12.89-.68a4.46,4.46,0,0,0-1.74-.34c-1.95-.05-2.89-.83-3.41-2.21a4.87,4.87,0,0,0-4.93-3.46,2.87,2.87,0,0,1-2.53-1.77A12.33,12.33,0,0,0,31,10.25c2.78-2.61,6.11-.95,9.6-.54-1.31-1.56-3.3-1.41-4.92-1.82,3.92-2.46,8.18-1.5,11.93-.13A46.14,46.14,0,0,0,61.28,11a5.69,5.69,0,0,1,4.16,2c.3.31.69.7.27,1s-.95,0-1.42-.11c-.63-.15-1.15-.6-2.11-.33A25.54,25.54,0,0,0,72,20.12C70,20.77,68.17,20.32,66.35,20.46Z"/><path class="cls-12" d="M72.6,9.07a6.62,6.62,0,0,1-4.47,1.16c-3.64-.08-4.44-1.07-2.82-3.52.61-1-.55-.75-1-.81C61,5.45,58.19,4,55.07,3.28c-.41-.1-.92-.2-.92-.58s.61-.59,1.11-.63c3.32-.28,6.67-.95,9.58,1.1,2,1.38,3.93,1,5.68-.39,1.24.9-.16,1.37-.67,1.82a1.8,1.8,0,0,0-.33,2.69c.65,1,1.64.51,2.65.45,2.56-.15,5.1.4,7.67.16l.54,0c1.31.93-.08.75-.62.79C77.38,8.83,74.93,8.38,72.6,9.07Z"/><path class="cls-13" d="M79.84,7.9c-3.51.72-7.14.41-10.7.66-2,.14-2.6-1.19-1.44-2.81.77-1.08,2.37-1.71,2.82-3,1.11-.3,1-1.78,2.64-1.56L70,5.94c-1.11.4-1,1,0,1.11,1.86.21,3.69.79,5.63.47A15.63,15.63,0,0,1,79.84,7.9Z"/><path class="cls-10" d="M19.2,8.84c-2.84-.29-5.69-.53-8.51-.88-.71-.09-1.56-.43-1.4-1.18.11-.53.9-.77,1.4-.66,2.94.64,5.83,1.37,8.74,2.07Z"/><path class="cls-10" d="M11.07,4.11c-.05.4-.14.84-.8.82s-.91-.51-.94-1a.73.73,0,0,1,.82-.81C10.94,3.15,11,3.65,11.07,4.11Z"/><path class="cls-14" d="M75.68,7.52c-2.1.72-4.26-.09-6.39.15-.71.08-1.16-.38-.94-.9s.34-1.45,1.67-.83C71.39,7.52,73.88,6.82,75.68,7.52Z"/><path class="cls-3" d="M32,98.66a89,89,0,0,0,12.49,5.11c1.26.87.92,2.61,2.45,3.15,3.93,1.38,5.66,4.77,9.83,5.89,1.14.31,1.25,1,.25,1.65a30,30,0,0,1-7.28.31H43.11c-.41,0-1,.06-1.18-.24-1.55-2.8-5-4.35-7.41-6.6-.32-.3-.47-.67-.86-.93-2.51-1.81-4.7-3.89-7.7-5.29-1.32-.61-2.66-1.18-4,0-.72.54-.67,1.23-.85,1.92-.4,1.55-2.81,2.21-3.84,1-2.06-2.47-5.89-3.09-8.37-5-.93.44-.92,1.2-1.06,1.87s-.42,1-1.33.86a1.15,1.15,0,0,1-.66-.43c-1.13-4.29-.46-8.62-.61-12.93,0-1.56,0-3.12,0-4.68,0-.61.16-1.49,1-1.34,2.33.43,2-.85,2.35-1.76a1.25,1.25,0,0,1,2.11-.47c.89.89,2.37,1,3.26,1.76a3.35,3.35,0,0,0,2.45,1.88c1.62.37,1.93,1.2,1.41,2.26-.86,1.74-.41,3.27.83,4.83,1,1.27,1.12,2.85,2.09,4.18a4.09,4.09,0,0,0,4.33,1.85c1.61,0,3.21.21,4.82.28C30.76,97.76,31.83,97.66,32,98.66Z"/><path class="cls-1" d="M56,80.19c-1.16,1.29-2.12,2.68-4.08,3.47a2.3,2.3,0,0,0-1.5,2c-.11,1.83-1,3.12-3.48,3.31,4.55,3.07,10.2,2.87,15.7,3,2.83.07,5.38.94,8.12,1.23.5.06,1.11.17,1,.69s-.66.56-1.14.69c-3.45.91-6.84,2-10.66,1.67A6.39,6.39,0,0,1,58,95.8a10.18,10.18,0,0,0-8.76.17,2.49,2.49,0,0,1-3-.2,12.7,12.7,0,0,0-7.52-2.22c-2.08-.28-4.1-.93-6.24.12-1.17.56-1.89-.35-2.2-1.11A4.27,4.27,0,0,0,26.53,90c-.2-.12-.39-.25-.61-.36-2.59-1.37-2.71-1.88-1.09-3.93a17.43,17.43,0,0,1,2.51-2.15,3.68,3.68,0,0,1,3.58-.3c2.14.71,3.27,2.23,5.17,3.34-2.62-1.3-2.83-3.39-3.52-5.22A1.81,1.81,0,0,1,34,79.08c1.35-.4,2,.38,2.64,1.13a3,3,0,0,0,1.8,1.21c.71-.73-.32-1.71.58-2.36a3,3,0,0,1,2.16-.18,3.59,3.59,0,0,0,3.84-.78c.16-.16.43-.34.4-.49-.52-2.41,1.77-2.89,4-3.39,1.67.29,2.74,1.29,4,2C55.17,77.25,56.24,78.49,56,80.19Z"/><path class="cls-15" d="M26.81,88.83c2.39.28,4.21,1.06,4.77,3a1.36,1.36,0,0,0,1.83,1c2-.61,3.66.16,5.37.74-1.94.13-4-.41-5.73.79.82,2.1-1.49,1.66-2.72,1.71-2.51.1-4.73.45-6.12,2.21-2.54.18-4.35-.09-5.08-2.47a16.42,16.42,0,0,0-2.76-5.45,2.92,2.92,0,0,1-.72-2.24c.28-1.28,1.23-2.45-1.43-3-.84-.17-.77-1.37-.94-2.14.05-.31.64-.74-.13-.91-1.89-.43-2.69-1.73-3.94-2.68S7.07,77.18,4.89,77.5c-.41.06-.63-.37-.68-.72,0-1.47-.58-2.92-.45-4.39A42.59,42.59,0,0,0,2.7,62.23c.25-.92.75-1.8,1-2.74S4.52,58,5.9,58.26s2.49.44,3.16,1.47,2.29.57,3.42,1.05c1.89.79,2.42,1.59,1.41,3C13,65,13.05,66,14.65,66.84c1.33.72,2.38,1.64,1.79,3a4.16,4.16,0,0,1-3.54,2.31,1.58,1.58,0,0,0-1.12.52A24.63,24.63,0,0,0,21.13,76c2,.34,3.58.85,4.64,2.2.73.92,2.07,1.36,3.08,2.07,1.41,1,1.46,1.91,0,2.78a10.35,10.35,0,0,1-2.58,1.55,2.79,2.79,0,0,0-2.37,2.52C23.41,89,24.14,89.47,26.81,88.83Z"/><path class="cls-8" d="M56,80.19,52.31,77c.21-.2.37-.62.62-.58,3,.38,4.72-1.61,7.25-2.09,2.12-.4,3.46-1.44,3.1-3.28-.12-.6.13-1,1-1.11,1.79,1,2.79,3,5.73,2.74a11,11,0,0,0,3,.42c2,.14,4.69,2.26,4.45,3.74a10.65,10.65,0,0,0,.24,3.29c.29,2-.79,3.31-3.29,3.91a5.69,5.69,0,0,0-2.83,1.31c-1.85,2-4.06,2.46-6.82,1.09Z"/><path class="cls-16" d="M57,113.91c-2.62-.24-4.57-1-5.79-3-.72-1.18-2.27-2.11-3.62-3a6.1,6.1,0,0,1-3.07-4.12,5.11,5.11,0,0,1,2,1.76c1.51,2.3,3.83,2.72,6.76,1.28,4.39-2.18,5.48-2,8.42,1.29,1,1.13,6.65,2.75,8.34,2.39a2.33,2.33,0,0,0,1.45-1.06c2.06-2.88,5.7-3.17,9.4-3.13,1.61,0,3.11.71,2.9,2.22-.19,1.33-1.28,1.68-3.11,1.69a60.79,60.79,0,0,0-7.34.81c-.7.1-1.33.43-1.25,1.07s.76.62,1.37.69l2.79.38L59.1,114C58.33,114.57,57.61,114.69,57,113.91Z"/><path class="cls-10" d="M24.21,98.26c-.23-2.18.59-2.93,3.44-3.11,1.84-.11,3.79.18,5.4-.81,3.42-.64,6.5-.3,9,1.8a1.75,1.75,0,0,0,.79.49c3.54.37,4,2.42,4.42,4.51a1.37,1.37,0,0,1-.5,1.61,2.44,2.44,0,0,1-2.19.12,6.76,6.76,0,0,1-3.11-2A6.5,6.5,0,0,0,36.11,99a38,38,0,0,1-4.1-.34A45.12,45.12,0,0,1,24.21,98.26Z"/><path class="cls-2" d="M9.12,97.87c2.9,1.19,5,3.13,7.36,4.75.77.52.91,1.75,2.36,1.45,1.24-.26,1.21-1.31,1.51-2.1a8.14,8.14,0,0,0,.22-1c.8-.81,1.53-.37,2,.17a12,12,0,0,1,2.27,2.53,40.08,40.08,0,0,0,7.78,8.57,6.6,6.6,0,0,0,2.87,1.2c1.25.27,1.86.76.6,1.61-2.06-.09-4.1.55-6.17.1l-15.4.39c-1.6.35-3.25,0-4.87.19-.47,0-.87,0-1.08-.33a.69.69,0,0,1,.36-1c1.85-1,1.06-1.91.15-3s-2-2.13-3-3.16c-.26-.67,0-1.38-.23-2,.59-3,1.36-3.38,5-2.26,1.78.55,3.8.75,5.28,1.82s2.74,2.15,4.17,3.18a2.82,2.82,0,0,0,2.25.75.32.32,0,0,0,.28-.46,2.65,2.65,0,0,0-1.7-1.12,18.38,18.38,0,0,1-4.69-2,16.6,16.6,0,0,0-3-3.06c0-1.52-2.07-1.77-3-2.72C9.69,99.64,7.9,99.19,9.12,97.87Z"/><path class="cls-17" d="M9.65,116c-1.42,0-2.16-.45-2.16-1.61a21.45,21.45,0,0,0-.37-2.84c-1.4-1-1.16-2,0-3.07a15.05,15.05,0,0,1,5.4,4.82c1.24,1.54-1.54,1.21-2.67,2.29h4.74Z"/><path class="cls-18" d="M64.27,70l.57,2.31c.24.95-.17,1.61-1.34,2.1C61,75.45,58,75.86,56,77.75c-1.05,1-2.42-.51-3.71-.71a7.32,7.32,0,0,0-3.12-2c-1-.32-2.56-.16-2.09-1.57.72-1,2-1.12,3.33-1.22a8.17,8.17,0,0,0,2.92-.75c2-.48,3.94-.93,5.89-1.46A8.23,8.23,0,0,1,64.27,70Z"/><path class="cls-4" d="M43.46,65.65a38.16,38.16,0,0,1,6.59-1.72,6.64,6.64,0,0,0,3.9-1.8,23.29,23.29,0,0,1,7.22-4.67c1.16-.5,1.34-1.12.72-1.94l-3.34-4.41a28.42,28.42,0,0,0,13.83,2.54,2,2,0,0,1,1.89.86,1.32,1.32,0,0,1-.53,2c-1.37.88-1.86,1.84-.86,3.08.27.34.52.91.08,1.09-2.19.91-3.33,2.61-5.18,3.75a1.48,1.48,0,0,1-1.47,0c-2.1-1.37-4.38-.51-6.43-.12a27.31,27.31,0,0,1-6.91.55C49.71,64.64,46.69,65.83,43.46,65.65Z"/><path class="cls-6" d="M47.1,73.51l2.09,1.57c-1.82.55-2.89,1.36-2.07,3,.34.67-.25,1.09-1.06,1.33-2.1-1.71-4.68-3.06-6.66-4.87a1.81,1.81,0,0,0-.65-.33c-1-.32-2.08-.82-2.91-.23s.26,1.29.57,1.92c.17.36.56.66.49,1.09-1.23,1.79-3,.76-3.95.09-2-1.41-4.73-2.52-5.11-5-.06-.44-.53-.84-1-1.11a22.05,22.05,0,0,1-5.42-4.94C20,64.54,19.79,63.19,21,61.64a2,2,0,0,1,2.63-.44,7.75,7.75,0,0,1,3.05,1.72c1.43,1.87,3.82,2.94,5.71,4.41.8.61.42-.86,1.22-.5,3.4.08,6.08,1,7.87,3.35C42.71,71.82,45.43,72.19,47.1,73.51Z"/><path class="cls-18" d="M51.27,47.18c-.71-1.9-2.65-2.55-5-2.71a11.62,11.62,0,0,1-4.39-.82c-.95-1-.77-1.86.51-2.52a2.4,2.4,0,0,1,3.13.64c.78.91,2.12,1.17,3.14,1.78a1.3,1.3,0,0,0,1.41.11c.51-.3.28-.65.16-1-.32-1.1-1.17-2.17-.36-3.34,1.87-2.14,3.15-2.2,4.72,0,1.09,1.5,2.53,1.73,4.46,1.28a48.5,48.5,0,0,0,9.4,3c2.43.51,3.4,2.44,5.16,3.63.3.5,1.26,1,.73,1.51s-1.41,0-2.13,0c-.92-.09-1.84-.21-2.76-.32a102.58,102.58,0,0,0-15.9-1.88A3.38,3.38,0,0,0,51.27,47.18Z"/><path class="cls-4" d="M62.25,58.21a24.61,24.61,0,0,0-7.32,4.62,5.6,5.6,0,0,1-3.67,1.44c-2.7.12-5.12,1.16-7.8,1.38h-1c-1.7.58-3.51.35-5.29.39a5.68,5.68,0,0,0-3.55.79c.34.44.68.9,1.05,1.33s1.37.74.78,1.26a1.73,1.73,0,0,1-2.26-.23C31.36,67,27,66.89,26,64c-.42-1.15-2.54-1.88-4.35-2.23l-.37,0c-1.37-.17-1.66-1.23-2.55-1.81a.86.86,0,0,1,.36-1.52,5.51,5.51,0,0,0,3.51-3.11c.23-.4.79-.48,1.28-.58,2.44-.71,4.94-1.36,6.65-3-.37.06-.74.13-1.12.16-2.56-.38-3-.36-4.46.21a1.49,1.49,0,0,1-.76-.32,5.34,5.34,0,0,0-.64-1.06c-1.27-1.27-1.66-2.76-.46-4,1.4-1.45,2.84-3.1,5.95-2.58a12.59,12.59,0,0,0,5.83-.61A13.32,13.32,0,0,1,42.17,43a31.14,31.14,0,0,0,5.41.86c3.41,0,4.2.79,3.69,3.33,2.52,1.21,5.7,1.73,7.28,3.93,1.92,1.2,3.76,2.42,4.78,4.23C64.05,56.62,63.9,57.56,62.25,58.21Z"/><path class="cls-7" d="M73.63,47.19c-4.16-2.87-10-3.19-14.56-5.51-2.8-.4-3.43-2-3.65-3.8,2-1.91,2-2.41.1-4.38a9.54,9.54,0,0,1-1.69-2.37c-.27-.52-.38-1,.56-1.24A8,8,0,0,1,59,33.1a18,18,0,0,0,3.85,3.38,2.4,2.4,0,0,0,2.3.55c.94-.34.92-1,.87-1.69,0-.49-.39-1.11.46-1.37.67-.2,1,.36,1.5.6,2.34,1.16,4.46-.09,6.66-.35a2.53,2.53,0,0,0,1.39,1.12c.61.23,1.38.42,1.12,1.12s-.94.72-1.6.9a6.63,6.63,0,0,1-4.5-.3,2.26,2.26,0,0,0-2.39.14c-.75.58-.4,1.2,0,1.81C70.34,41.73,72,44.46,73.63,47.19Z"/><path class="cls-1" d="M84.53,40.5a2.33,2.33,0,0,1,.06.35v2.94c-1.37-1.59-3.45-1-4.78-1.78S76.4,40.75,77,39.58s2.58-.21,3.89,0A30.53,30.53,0,0,1,84.53,40.5Z"/><path class="cls-19" d="M54.39,29.89a24.28,24.28,0,0,0,3.2,4c1.69,1.78,1.1,3.49-1.12,3.88s-3.08-.93-3.86-1.87a14.8,14.8,0,0,0-5.89-4.46c-1.41-.6-2.53-1.68-1.19-3.09l1.57-.4A26.5,26.5,0,0,1,54.39,29.89Z"/><path class="cls-20" d="M45.53,28.33a5.39,5.39,0,0,0,4.2,3.17,2.93,2.93,0,0,1,2.11,1.35c.95,2,2.91,3.37,4.63,4.9.87,1.31.9,2.93,2.6,3.93a17.53,17.53,0,0,0-1.78.1c-2.09.32-3.43-.18-4-1.83-.36-1.09-1.09-1.56-2.05-.23-.11,1.13-1.64,2-.89,3.37.37.7-.93.88-1.86.5a10.27,10.27,0,0,1-5.26-4.27c-.89-1.55-2.17-1.9-4.31-1.67a35.72,35.72,0,0,0-12.83,3.88c-2.7,1.4-6.25,1.33-9.54,1.41a15.7,15.7,0,0,0-2.06-.08c-1.18.18-2.21.58-2.41,1.54S13,45.83,14,46a8.4,8.4,0,0,1,5.78,3.62c.47.69.85,1.28.22,2-.33.16-.68.28-1,.44a16.78,16.78,0,0,1-7.84-1.25A9.94,9.94,0,0,0,8.52,50c-1.7-.31-2.66.15-2.77,1.51-.08,1-.32,2-.3,3.1-.91,1-1.67,1-2.26-.18,0-5.11-.64-10.19-1.07-15.29a3.1,3.1,0,0,1,.14-1.78l.3-2c0-1.2.36-2,2.27-1.15a5.27,5.27,0,0,0,3.75-.07c4.05-1.23,8.61-1.51,12.16-3.69a1.12,1.12,0,0,1,.72-.17c4.7.48,9-1.69,13.67-1.28a6.17,6.17,0,0,0,4-1c1.11-.74,2.51-1.26,3.76,0A7.25,7.25,0,0,0,45.53,28.33Z"/><path class="cls-15" d="M42.94,27.93c-5,1.17-10.09,2.11-15.22,2.9-1.61.25-3.19.44-4.82.57-2.34.2-4.2,1.56-6.58,2a80,80,0,0,0-8.6,2.14,8.71,8.71,0,0,1-5.16-.18c.08-1.45-1-2.79-.63-4.27a13.72,13.72,0,0,0,0-7.44c-.06-1.66-.11-3.32-.17-5l.15-1c-1,3.9,3.61,6.77,3.41,10.52,0,.57.54,1,1.33,1a1.88,1.88,0,0,0,1.78-.93c.95-1.35-.57-2.34-.86-3.5.09-.84.92-.93,1.68-.77a8.62,8.62,0,0,0,5.37-.86,38.81,38.81,0,0,1,9.5-2.3,2.09,2.09,0,0,0,1.66-.79c3.13.72,6.43,1,9.43,2,.68.23,1.68.5,1.38,1.2s-1.3.4-2,.21c-2.46-.66-3.92.75-5.45,1.65-.92.53.21,1.08,1,1.06a6.93,6.93,0,0,1,4.75,1.55c1.35,1,2.8.44,4-.55C40.91,25.56,41.89,25.75,42.94,27.93Z"/><path class="cls-3" d="M25.77,20.07c.32.9-.21,1.48-1.37,1.48-3.57,0-6.43,1.46-9.31,2.66-2.57,1.06-4.87,1.49-7.53.58H7A6.6,6.6,0,0,1,6,23.47c-.49-1.14,0-1.62,1.5-1.28A3.48,3.48,0,0,0,9.64,22a30.11,30.11,0,0,1,9.57-1.16C21.51,21,23.52,20,25.77,20.07Z"/><path class="cls-15" d="M9.64,22c-.28.13-.58.39-.84.38-2.89-.17-2.53,1-1.76,2.36-1-.59-1.89-1.34-1.17-2.3C6.78,21.28,8.36,22.14,9.64,22Z"/><path class="cls-8" d="M1.92,23.62a6.66,6.66,0,0,1,0,7.44Z"/><path class="cls-21" d="M42.42,114.35c-2,.64-4.17.38-6.28.35-5.56-.27-6.86-4.16-9.64-6.69-1.08-1-1.63-2.41-2.81-3.46s-1.75-2.42-.4-3.22,2.75.43,3.9,1.16a4.76,4.76,0,0,1,1.07.83,9.59,9.59,0,0,0,6.35,3.2l7.69,6C43.06,113.11,43.87,113.68,42.42,114.35Z"/><path class="cls-16" d="M5.15,77.05l.64-2.24a32.66,32.66,0,0,1,5.44,5.06,2.63,2.63,0,0,0,3.35,1c.57-.2,1.38-.63,1.77.06s-.4,1-1,1.22-1.39.52-2.09.77c-.49-.26-1-.51-1.47-.78-1.28-.72-2.17-.82-2.21.71a2.34,2.34,0,0,1-.8,1.81c-1,.83-2.07,1.6-2.89-.31v4.2c-1.3,0-1.16-.74-1.2-1.35,0-1,0-2,0-3-.11-1.85-.79-3.68-.5-5.55C4.28,78,4,77.27,5.15,77.05Z"/><path class="cls-11" d="M34.61,106.52c-3.11,1.25-4,1.06-6-1.24a11.91,11.91,0,0,0-1.93-1.81c-.75-.53-1.29-1.7-2.6-1.21s-.47,1.5-.35,2.29c-1.65-.87-1.33-2.74-3.12-3.53.17-1.94,1.74-1.61,3.29-1.11A27.94,27.94,0,0,1,34.61,106.52Z"/><path class="cls-22" d="M7,106.32a12.6,12.6,0,0,1-.42-4.52H7c1.73-1.74,2.19-1.87,4.51-.67,1.06.55,2.21,1,3.31,1.45a9.86,9.86,0,0,0,1.79,1.62c1.45.82.6,1.34-.24,1.92h0a18.77,18.77,0,0,1-5.91-1.18C8.26,104.28,7.3,104.71,7,106.32Z"/><path class="cls-10" d="M14.85,102.58a9.12,9.12,0,0,1-3.92-.7A5.16,5.16,0,0,0,7,101.8c0-1.1,0-2.2,0-3.3,0-.5-.27-1.19.46-1.41s1,.55,1.61.78Z"/><path class="cls-16" d="M21.6,61.72c-.49,3.38,2.2,5.62,5,7.71,1.49,1.1,3.17,1.89,3.33,3.73.13,1.34,4.27,3.46,6.21,3.49,0-.7.51-1.16,1.45-1,1.46.23,1.66,1.39,2.44,2.13.6.56.75,1.17-.25,1.64.19.5.21,1.1.6,1.48,1,1,.55,1.53-.76,2.11a2.15,2.15,0,0,1-2.94-.69c-.63-.69-1-2.23-2.2-1.79-1.48.54,0,1.71.22,2.61a4.42,4.42,0,0,0,3,3.45c.65.25,1.42.79.71,1.42s-1.26.06-1.82-.24c-2.12-1.12-3.86-2.62-6.22-3.51s-3.28.43-4.16,1.63c-.78,1-2,2.25.57,3-1.2,1.24-2.92,1.55-4.81,1.52-.52,0-1.08-.06-1.33-.47s.17-.72.56-1c2-1.31,2-2.78.6-4.35-.29-.34-.58-.71-.21-1.08s1.06-.32,1.65-.14a14,14,0,0,0,1.67.51,2.93,2.93,0,0,0,3.12-1.32c.69-1,0-1.61-1.1-2.06a6.13,6.13,0,0,1-2.56-1.9,3.43,3.43,0,0,0-2.67-1.39c-3-.14-5.55-1.4-8.32-2.09-1.66-.41-3.1-1.54-4.68-2.31-1.13-.55-.78-1.28.51-1.49s2.41-.13,3.6-.28A2.44,2.44,0,0,0,15,69.53c.29-.92-.48-1.44-1.38-1.91-2.78-1.47-2.92-1.74-1.29-3.91,1.08-1.46.36-2.24-1.47-2.64A15.74,15.74,0,0,1,6,59.36a1,1,0,0,1,1.23-.72c1.61.93,3.19.06,4.77.08A13.4,13.4,0,0,0,16.57,60a8.52,8.52,0,0,1,5,1.76Z"/><path class="cls-8" d="M39.82,79.4c-1-1.1-1.27-2.7-3.64-2.75-1.61-1.17-3.94-2.59-2.58-4.17,1.06-1.23,3.8,0,5.27.62,3,1.14,4.94,3.31,7.16,5.18.25.22,0,.74,0,1.12a5.17,5.17,0,0,0-1.39.43C42.79,81.19,41.24,80.79,39.82,79.4Z"/><path class="cls-3" d="M3.48,62.11l-.16-3.53c.09-1.5-.46-3,.52-4.48.56.43.49,0,.6-.24a2.33,2.33,0,0,1,2.65-1.1A31.4,31.4,0,0,0,11,52.9c.61,0,1.45-.09,1.75.22,1.68,1.71,4.17,2.13,6.68,2.56.22,0,.29.3.35.49.09.73-.2,1.25-1.28,1.39-.83.11-1.63.33-2.48.45-1.72.23-3.8.13-3.76,2.14L6,59.36c-1.15-.15-1.46.38-1.54,1.08A2,2,0,0,1,3.48,62.11Z"/><path class="cls-6" d="M61.67,77.83c-.63-.12-1.42,0-1.81-.91A36.09,36.09,0,0,1,65,76c2.83-.07,5.67.14,8.5.29.89.05,2.22.09,2,1.1-.19.74-1.35.66-2.21.54s-1.84-.35-2.75-.52C68.75,78.45,63.24,78.7,61.67,77.83Z"/><path class="cls-18" d="M61.67,77.83a62.16,62.16,0,0,1,8.85-.39C70.92,79,69.42,79,68.14,79A15.51,15.51,0,0,0,62,80c-1,.43-2.24.85-2.91-.17s.64-1.4,1.69-1.7C61.05,78,61.36,77.93,61.67,77.83Z"/><path class="cls-23" d="M16.4,106.12c3.67.21,6.83,1.12,9.11,3.47.78.81.54,1.06-.58,1.33a7.69,7.69,0,0,1-7.87-3.32,10.28,10.28,0,0,1-.66-1.48Z"/><path class="cls-24" d="M19.53,51.11c-1.68-1.8-3.1-3.74-6.42-4.22-1.63-.24-3.53-.73-3.4-2.46.08-1,3.78-3.14,5.13-2.88,5.94,1.11,10.72-.83,15.4-3.14,3.4-1.69,7.45-1.44,11.19-2.09a2.48,2.48,0,0,1,2.8,1.91,9.4,9.4,0,0,0,3.06,4c.9.73,1.88,1.1,2.24-.4a4.89,4.89,0,0,1,1.73-2.15c.25,1.2-.29,2.38.12,3.64s-1.1,1.39-2.28,1a15.32,15.32,0,0,1-3.53-1.59c-2-1.3-3-.74-3.67.87a19.24,19.24,0,0,0-7.72,1.27,8,8,0,0,1-3.76.42c-5.5-.43-7.36,1.3-5.88,5.4a7,7,0,0,1,.19.76C22.92,52.77,21.68,52.68,19.53,51.11Z"/><path class="cls-1" d="M31,50.72l.52,1.57a10.74,10.74,0,0,1-7.28,3.15.62.62,0,0,1-.43.14c-.16,0-.24,0-.24,0a6.42,6.42,0,0,0-1.92-.48c-2.44,0-3.89-2-3.14-4h1.05l5.2.39h.52c1-1.39,2.77-.53,4.16-.78Z"/><path class="cls-24" d="M29.41,50.72l-4.16.78C26.09,49.6,27.77,50.21,29.41,50.72Z"/><path class="cls-25" d="M23.69,55.43h.52c-.27.24-.84.56-.77.72.78,1.82-.84,2.18-2.5,2.93-2.07.92.37,1.74.67,2.63-3-.88-6.45-.37-9.37-1.57-.76-.42-1.51-.85-2.27-1.26s-1.57-.52-1.2-1.28c.28-.57,1.15-.64,1.79-.53,2.89.48,5.64-.29,8.45-.47C20.62,54.89,21.71,54.62,23.69,55.43Z"/><path class="cls-19" d="M23.69,55.43,19,56.61a12.34,12.34,0,0,0-3.84-.39c-1.41,0-3.13.27-2.89-1.59.06-.53-.75-.71-1.36-.7a51.88,51.88,0,0,0-6.48-.07c0-1.5,0-3,0-4.5,0-.92.35-1.1,1.73-1,3.42.35,6.09,2.17,9.47,2.48.94.09,1.89.16,2.83.23,1.37,1.39,2,3.36,5.06,3.38C24.17,54.49,24,55.07,23.69,55.43Z"/><path class="cls-24" d="M47.85,52c0,.17-.14.28-.32.23a.44.44,0,0,0-.41.1.92.92,0,0,1-.58.17h-.65a.85.85,0,0,0-.52.12.63.63,0,0,1-.33.09,6.48,6.48,0,0,0-1.16.05c-.17,0-.28-.11-.43-.17s-.16-.13-.28-.1a.12.12,0,0,0-.07.05c-.06.15,0,.25.1.37a.83.83,0,0,0,.14.22,1.18,1.18,0,0,1,.13.18c.16.14.19.36.31.52A.73.73,0,0,1,44,54c0,.14.1.32.31.32a.13.13,0,0,0,.08,0,.25.25,0,0,1,.29-.1.54.54,0,0,0,.44-.08c.22-.13.49,0,.73-.08l1.41-.13a3.53,3.53,0,0,0,.72-.14.88.88,0,0,0,.26-.66c0-.15,0-.29,0-.42Z"/><path class="cls-26" d="M38.73,58.3v.37a3,3,0,0,0,.19,1.78.13.13,0,0,0,.19-.1,1.55,1.55,0,0,0,0-.52,4.3,4.3,0,0,1-.1-.87c0-.18,0-.29.23-.26a.2.2,0,0,0,.14-.06.82.82,0,0,0,.13-.59,1.49,1.49,0,0,1,0-.47,1.3,1.3,0,0,0,0-.48c-.06-.21-.14-.23-.33-.1l-.21.32C39,57.67,38.68,57.94,38.73,58.3Z"/><path d="M45.35,61.68c.07,0,.12.08.2.06s0-.18,0-.27a.66.66,0,0,1,0-.46c0-.17.17-.24.25-.36a2.32,2.32,0,0,1,1-.32.83.83,0,0,0,.44-.08A3.3,3.3,0,0,1,48,60a.22.22,0,0,1,.23.07c.1.09.22.16.33.25a.2.2,0,0,0,.3,0,2,2,0,0,0,.06-1.08,9,9,0,0,0,.1-.91,3,3,0,0,1,.17-.88A.32.32,0,0,0,49,57.2a.26.26,0,0,0-.31.13c-.09.11-.15.25-.31.29s-.3-.13-.41-.23c-.35-.3-.65-.65-1-1a.56.56,0,0,1,0-.6c.16-.23.21-.51.36-.74a.66.66,0,0,0,0-.24c-.1-.2-.22-.17-.34,0a1.81,1.81,0,0,1-.51.4.88.88,0,0,1-1.17.12c-.05-.05-.12-.09-.14-.17a.46.46,0,0,0-.34-.29.41.41,0,0,1-.32-.32c-.09-.09-.2-.17-.3-.26s-.21-.43-.41-.58a.31.31,0,0,0-.1.32,1.88,1.88,0,0,0,.12.82V55c0,.07.06.11.09.16a.61.61,0,0,1-.07.68c-.07.07-.14.13-.24.09a1.45,1.45,0,0,0-.36,0c-.29,0-.43.23-.6.41a2.28,2.28,0,0,0,.07.69c0,.16.13.34-.07.46s-.15.09-.24.08a.92.92,0,0,1-.29,0,.6.6,0,0,0-.47.42.63.63,0,0,1-.35.38,1.54,1.54,0,0,0-.5.24c-.06.06-.14,0-.21.08a.57.57,0,0,0-.29.3c0,.2.19.28.33.38A6.39,6.39,0,0,1,42,60.46c.1.06.11.18.15.28a1.2,1.2,0,0,0,.24.41,1,1,0,0,1,.63,0A8.46,8.46,0,0,1,45.35,61.68Z"/><path class="cls-23" d="M40.86,58.67a1.83,1.83,0,0,1,.48-.25,1.22,1.22,0,0,0,.07-.17c0-.26,0-.53,0-.78s-.06-.55-.05-.82c0-.1,0-.17.13-.21l.28-.1.08-.08a2.88,2.88,0,0,0,.52-1.34,7.68,7.68,0,0,1,.37-1.24c.11-.26.24-.47.55-.5a.14.14,0,0,0,.16-.13l-.11-.21c-.36-.12-.46-.1-.67.17a2.48,2.48,0,0,0-.36.55,1.27,1.27,0,0,1-.23.34.49.49,0,0,0-.17.31c0,.42-.3.73-.38,1.12a2,2,0,0,1-.24.46.25.25,0,0,1-.38,0c-.06-.07-.12-.13-.17-.2a.21.21,0,0,0-.27-.1l-.06.07a.75.75,0,0,0,0,.26.64.64,0,0,1,.17.44,4,4,0,0,0,.21,1,1.75,1.75,0,0,1,0,1.13C40.69,58.53,40.71,58.65,40.86,58.67Z"/><path class="cls-6" d="M47.89,53.93v-.21L45.55,54l-.26,0A.34.34,0,0,0,45,54a.24.24,0,0,1-.35,0c-.08-.05-.16-.1-.26,0a.21.21,0,0,0-.05.26.8.8,0,0,0,.78.34,9.84,9.84,0,0,0,1.71-.28,4.53,4.53,0,0,1,1-.29C47.83,54.06,47.84,54,47.89,53.93Z"/><path class="cls-15" d="M40.6,55.7c.07.31.36.28.56.33s.22-.15.3-.3a7.53,7.53,0,0,1,.42-1,.47.47,0,0,0,.08-.3A.62.62,0,0,1,42.2,54a.42.42,0,0,0,.14-.25,1.16,1.16,0,0,1,.2-.38.87.87,0,0,1,.77-.48c0-.11-.14-.19-.16-.31s-.2,0-.3,0a.36.36,0,0,0-.38.22c-.3.6-.71,1.13-1,1.71a6,6,0,0,0-.56,1C40.82,55.6,40.7,55.64,40.6,55.7Z"/><path class="cls-1" d="M40.6,55.7c.29.21.29.19.39-.15a4.77,4.77,0,0,1,.58-1.09c.31-.53.66-1,1-1.58.1-.17.17-.31.41-.17s.11-.14.19-.18v-.06l-.1,0a.41.41,0,0,0-.75-.05,9.14,9.14,0,0,0-.55,1.08c-.22.51-.59.94-.84,1.43a1,1,0,0,1-.36.33,1.59,1.59,0,0,0-.15.21s-.06.11,0,.12A.2.2,0,0,1,40.6,55.7Z"/><path class="cls-27" d="M42.74,56.38c.18-.13.29-.37.57-.32a3.16,3.16,0,0,1,.62-1.19,4.92,4.92,0,0,1-.1-1.15,1.21,1.21,0,0,0-.31-.52s-.05,0-.06,0a.44.44,0,0,0-.05.15c0,.05,0,.12,0,.14s.13.25,0,.4a.41.41,0,0,0,0,.19s0,.1,0,.15c-.28.37-.33.85-.59,1.23a.23.23,0,0,0-.05.17.36.36,0,0,1-.23.38.7.7,0,0,1-.14.16c-.09.13-.33.06-.36.28v.07a2.13,2.13,0,0,1,.16.78.35.35,0,0,0,.12.32.5.5,0,0,0,.27,0c.1-.08.09-.18.08-.29A5.14,5.14,0,0,1,42.74,56.38Z"/><path class="cls-21" d="M43.52,53.25v0a.21.21,0,0,0-.1-.15,1,1,0,0,1-.23,0c-.35,0-.46.19-.58.45a12.36,12.36,0,0,0-.54,1.89,4.51,4.51,0,0,1-.32.79c.16.2.37.18.51-.08a5.46,5.46,0,0,0,.35-.78c.1-.31.14-.62.21-.94a1.07,1.07,0,0,1,.36-.72C43.21,53.49,43.38,53.39,43.52,53.25Z"/><path class="cls-2" d="M47.89,53.93a9.39,9.39,0,0,1-2.1.47.36.36,0,0,0-.15,0,1.51,1.51,0,0,1-1.34-.12h-.06a.41.41,0,0,0,.21.31c.15.06.22.23.4.26a.34.34,0,0,0,.26,0,.45.45,0,0,1,.19,0,2.86,2.86,0,0,0,1.41-.23h0l.33-.15a1.28,1.28,0,0,1,.68-.25C47.86,54.15,47.88,54,47.89,53.93Z"/><path class="cls-25" d="M40.6,55.29a6,6,0,0,0,1.16-1.61c.22-.37.39-.77.59-1.15s.43-.36.7-.11a.24.24,0,0,0-.12-.21.34.34,0,0,1-.19-.36l-.21-.26c-.12-.06-.21,0-.21.11a.72.72,0,0,1-.14.36,9.35,9.35,0,0,0-.75,1.48c-.12.26-.3.49-.42.76a3.07,3.07,0,0,1-.47.85A.13.13,0,0,0,40.6,55.29Z"/><path class="cls-28" d="M40.6,55.29v-.16a4,4,0,0,0,.55-1.31.33.33,0,0,1,0-.15c.4-.53.48-1.21.84-1.76.13-.21.1-.27-.11-.38s-.33.23-.41.39c-.18.38-.36.76-.52,1.15a15.26,15.26,0,0,1-.52,1.48.45.45,0,0,0,0,.2c0,.27-.08.49-.4.55-.12,0-.19.14-.23.26s-.09.3-.13.45a1.87,1.87,0,0,1-.47.94v0c.14,0,.21,0,.21.16a6,6,0,0,1-.06,1.46c-.19.19-.13.43-.1.65a1.2,1.2,0,0,0,.15.52.25.25,0,0,0,.22.07c.22,0,.22-.25.36-.34s.28-.14.3-.33a1.18,1.18,0,0,1-.09-.94.82.82,0,0,0-.11-.68.94.94,0,0,1-.06-1,8.65,8.65,0,0,1,.42-1v-.06C40.44,55.42,40.55,55.37,40.6,55.29Z"/><path class="cls-28" d="M39.2,57a1.2,1.2,0,0,0,.54-.79c.06-.17.12-.34.17-.52s.11-.28.31-.2a.1.1,0,0,0,.13,0,.86.86,0,0,0,.19-.45c0-.37.24-.66.28-1a5.83,5.83,0,0,1,.4-1.08,3.29,3.29,0,0,1,.68-1.26.15.15,0,0,0,.06-.1c-.05-.08-.07-.21-.18-.21s-.12.13-.15.22a.27.27,0,0,1-.07.14c-.36.32-.45.8-.7,1.19a1.23,1.23,0,0,1-.17.32,2.52,2.52,0,0,0-.45,1.05.87.87,0,0,1-.22.45.64.64,0,0,0-.21.46c0,.32-.22.6-.27.93A2.51,2.51,0,0,1,39.2,57Z"/><path class="cls-29" d="M42,51.49l-.06.1c.08,0,.11.1.06.17-.17.28-.29.6-.45.89a.75.75,0,0,0-.13.38.33.33,0,0,1-.08.27A.93.93,0,0,0,41,54c-.05.4-.3.75-.39,1.15.33-.22.38-.61.58-.91A9.78,9.78,0,0,0,42,52.51c.08-.19.25-.32.34-.51s.16-.2.06-.35.05,0,.09-.06C42.36,51.41,42.16,51.46,42,51.49Z"/><path class="cls-26" d="M39.25,60.54a.23.23,0,0,0,0,.25.35.35,0,0,1,.62,0l.18.22c.12.15.26.23.47,0a.51.51,0,0,0,.25.5l.64.56c.07.07.14.08.19,0s.34-.3.47-.48a.16.16,0,0,0-.19-.1c-.37.09-.58-.17-.79-.38a1.6,1.6,0,0,0-.62-.44,1,1,0,0,1-.49-.42l-.07,0a.63.63,0,0,0-.64.2S39.27,60.5,39.25,60.54Z"/><path class="cls-15" d="M43,61.05a.58.58,0,0,0-.58.06c-.14-.08-.22-.23-.36-.3a2,2,0,0,1-1-.38c-.3-.19-.67-.14-1-.32a.2.2,0,0,0-.22,0c0,.07,0,.1,0,.13h0a1.26,1.26,0,0,0,.55.39,2.77,2.77,0,0,1,.66.4,1.36,1.36,0,0,0,1.13.3l.36-.25C42.8,61.14,42.93,61.19,43,61.05Z"/><path class="cls-1" d="M42.32,61.37a.68.68,0,0,0-.4-.13.74.74,0,0,1-.55-.19,2.88,2.88,0,0,0-1-.55,2,2,0,0,1-.41-.22.62.62,0,0,0,.34.37,3.1,3.1,0,0,1,.81.63.84.84,0,0,0,1,.3Z"/><path class="cls-24" d="M43,61.05a1,1,0,0,0-.33.07.7.7,0,0,0,.61.22,1.53,1.53,0,0,1,1,.19c.31.15.66.08,1,.23,0,0,.07,0,.1-.08a1.05,1.05,0,0,0-.7-.37C44.1,61.25,43.56,61.14,43,61.05Z"/><path class="cls-30" d="M39,60.44a2.35,2.35,0,0,1-.21-1.1,3.71,3.71,0,0,0-.05-.67.34.34,0,0,0-.1.23c0,.4-.14.81,0,1.21,0,.11,0,.24-.15.16s-.09,0-.11,0,0,.07.05.08c.24.06.46.31.74.11a.06.06,0,0,0,0-.08A.18.18,0,0,0,39,60.44Z"/><path class="cls-16" d="M45.86,62.78v-.31c-.08-.16-.08-.35-.22-.49A1.88,1.88,0,0,0,45.86,62.78Z"/><path class="cls-22" d="M39.2,60.44v.05l0,0a0,0,0,0,0,0,0c.05-.08.15-.13.11-.24s-.11-.18-.23-.12A.2.2,0,0,0,39.2,60.44Z"/><path class="cls-31" d="M39.2,60.44a.59.59,0,0,1,0-.32.31.31,0,0,0,.21-.35,6.31,6.31,0,0,1-.11-1.15.75.75,0,0,1-.15-.09c-.23-.19-.25-.19-.27.09A3.3,3.3,0,0,0,39,59.75a1.25,1.25,0,0,1,0,.69Z"/><path class="cls-26" d="M40.44,55.6a1.27,1.27,0,0,0-.41.64c-.05.19-.16.35-.22.55a.86.86,0,0,0,.1.74,1.07,1.07,0,0,1,.11.92.64.64,0,0,0,.17.75c.11,0,.15,0,.18-.12s0-.07,0-.11a.75.75,0,0,0,.27-.26,1.9,1.9,0,0,0,0-1.37,6,6,0,0,1-.16-1.12.83.83,0,0,0-.1-.41Z"/><path class="cls-32" d="M42.21,56.54v-.06c0-.12-.14-.13-.23-.13a.61.61,0,0,1-.27-.08c-.1,0-.19,0-.26.06s-.1.43-.09.66,0,.7,0,1c0,.11-.1.18-.15.26l.11.12a.6.6,0,0,0,.48-.5.3.3,0,0,1,.34-.25c.05-.07,0-.13,0-.19a.67.67,0,0,1,0-.57A.81.81,0,0,0,42.21,56.54Z"/><path class="cls-3" d="M40.4,55.81a5,5,0,0,0,.16,1.68,3.85,3.85,0,0,1,.09,1.22.22.22,0,0,0,.21,0c0-.07-.08-.13,0-.21a1.39,1.39,0,0,0,0-1.13,10,10,0,0,1-.27-1.18A.45.45,0,0,0,40.4,55.81Z"/><path class="cls-33" d="M45.49,61a.75.75,0,0,0,.33-.07,8.75,8.75,0,0,1,1.74-.46,3.06,3.06,0,0,0,.7-.41c0-.17-.14-.11-.23-.11A4,4,0,0,0,47,60.2l-.15,0a1.21,1.21,0,0,1-.57.22,3.94,3.94,0,0,0-.49.14C45.66,60.71,45.51,60.79,45.49,61Z"/><path class="cls-34" d="M48.41,57.75a.75.75,0,0,0-.42-.56,1.3,1.3,0,0,1-.56-.53,1.86,1.86,0,0,0-.4-.44.21.21,0,0,1,0-.33.79.79,0,0,0,.18-.82c-.1.33-.35.6-.35,1a.11.11,0,0,1,0,0c-.33.26-.06.37.13.51a13.37,13.37,0,0,1,1.15,1.11C48.21,57.79,48.29,57.89,48.41,57.75Z"/><path class="cls-10" d="M45.08,54.76c-.25.12-.41-.14-.63-.15a.58.58,0,0,0,.36.34.52.52,0,0,1,.31.29,4.11,4.11,0,0,0,1,0c.17,0,.27-.15.37-.25a3.29,3.29,0,0,1,.58-.48c.07-.05.17-.1.1-.23a.16.16,0,0,0-.16,0l-.26.15a2.18,2.18,0,0,1-1,.35A1.42,1.42,0,0,1,45.08,54.76Z"/><path class="cls-35" d="M43.93,54.87c-.21-.06-.28.07-.35.24s-.2.38-.3.57-.16.27,0,.38.24-.05.36,0c.2-.33.44-.65.27-1.07Z"/><path class="cls-36" d="M42.06,60.91c.11.09.19.23.37.2a1.65,1.65,0,0,0-.21-.42l0,0a3.78,3.78,0,0,0-1-.66A.47.47,0,0,0,41,60a8.48,8.48,0,0,1-.87-.06c-.11,0-.23,0-.28.13s0,.09.12.11a3.07,3.07,0,0,1,1.26.37C41.5,60.68,41.83,60.7,42.06,60.91Z"/><path class="cls-23" d="M42.21,56.54a1,1,0,0,0-.26.82.3.3,0,0,0,.21.31c.09.11.18,0,.26,0,0-.28,0-.56,0-.85S42.27,56.65,42.21,56.54Z"/><path class="cls-37" d="M40.38,59l0,.05a.53.53,0,0,0,.39.66,2.25,2.25,0,0,1,.36.24.18.18,0,0,0,.13.08.49.49,0,0,0,.2.11,1,1,0,0,1,.45.26c.06.08.15.13.23,0a7.89,7.89,0,0,0-1.55-1.27A.49.49,0,0,1,40.38,59Z"/><path class="cls-38" d="M46.12,55.18c-.33.12-.67-.08-1,.06,0,.11.07.14.15.16s.27,0,.41.08a.83.83,0,0,0,.86-.26,3,3,0,0,0,.35-.27c.07-.08.13-.13.09-.24s-.2,0-.29,0S46.37,55.13,46.12,55.18Z"/><path class="cls-39" d="M46.54,55.18a1,1,0,0,1-1,.17.45.45,0,0,0-.28,0,.88.88,0,0,0,1.27-.11A.08.08,0,0,0,46.54,55.18Z"/><path class="cls-36" d="M46.54,55.18v.11a1.4,1.4,0,0,0,.57-.45c.06-.08.13-.14.16,0a1,1,0,0,0,.15-.31c-.18-.16-.29-.12-.47.15S46.64,55,46.54,55.18Z"/><path class="cls-40" d="M42.74,56.38c-.12.2,0,.41-.05.61s0,.43,0,.64c.18,0,.21-.09.18-.25C42.82,57.05,42.79,56.72,42.74,56.38Z"/><path class="cls-41" d="M45.74,60.59a3,3,0,0,0,.93-.19c.07,0,.15-.06.13-.17A3.59,3.59,0,0,0,45.74,60.59Z"/><path class="cls-42" d="M42.1,60.39c-.25-.06-.39-.33-.67-.37,0,0,0,.08,0,.1.27.19.46.48.8.59v0A.56.56,0,0,0,42.1,60.39Z"/><path class="cls-27" d="M43.94,55a1.6,1.6,0,0,1-.19.74c0,.11-.11.21-.08.33s.19,0,.26-.12a2.89,2.89,0,0,0,.11-.82Z"/><path class="cls-43" d="M49,57.47a3.22,3.22,0,0,1,.36-1c-.14,0-.15,0-.21.19s-.17.43-.26.65C49.08,57.27,49,57.39,49,57.47Z"/><path class="cls-44" d="M44,55.08a4.24,4.24,0,0,1-.17.61.18.18,0,0,0,.06.21A.83.83,0,0,0,44,55.08Z"/><path class="cls-45" d="M48.83,59.24l.07.2c0-.39,0-.77,0-1.15A5,5,0,0,0,48.83,59.24Z"/><path class="cls-46" d="M47,54.71c.16,0,.27-.23.47-.15.08-.09.18-.18.16-.31a.5.5,0,0,0-.42.1l-1,.83a.45.45,0,0,0,.34-.15A.9.9,0,0,1,47,54.71Z"/><path class="cls-23" d="M47.16,54.35c.16.06.28-.07.42-.1l.16-.06a.93.93,0,0,0-.74.16Z"/><path class="cls-47" d="M41.7,56.27c.1.22.33.16.5.21s.34,0,.38-.21a4,4,0,0,0,.5-1.73c0-.14.07-.26.1-.4a.46.46,0,0,0-.08-.52,1,1,0,0,0-.41.75A5,5,0,0,1,42.18,56c-.09.18-.21.31-.43.2Z"/><path class="cls-22" d="M41.23,58.3a.49.49,0,0,0,.21-.47c0-.5,0-1,0-1.5-.22.12-.22.36-.19.7A2.12,2.12,0,0,1,41.23,58.3Z"/><path class="cls-35" d="M43.1,53.62c-.09.61-.18,1.22-.26,1.83a3,3,0,0,1-.19.5c0,.11-.11.2-.07.32a.24.24,0,0,0,.11-.15,4.58,4.58,0,0,0,.45-1,6.73,6.73,0,0,1,.48-1v-.21a1.34,1.34,0,0,0-.1-.52v-.16C43.14,53.28,43.12,53.3,43.1,53.62Z"/><path class="cls-48" d="M43.62,54.14a.28.28,0,0,0-.2.15c-.24.61-.54,1.2-.73,1.83a.52.52,0,0,0,.26-.35,5.7,5.7,0,0,1,.65-1.42C43.65,54.27,43.67,54.22,43.62,54.14Z"/><path class="cls-48" d="M43.52,53.41a.94.94,0,0,0,.1.52C43.79,53.72,43.6,53.58,43.52,53.41Z"/><path class="cls-23" d="M45.08,54.76a.19.19,0,0,0,.14.15,1.37,1.37,0,0,0,1.52-.41A7.18,7.18,0,0,1,45.08,54.76Z"/><path class="cls-49" d="M42.22,60.71a3.24,3.24,0,0,1-.79-.69.2.2,0,0,1-.15-.1A3.06,3.06,0,0,0,40,59.78c-.1,0-.2,0-.3,0h-.21a.84.84,0,0,0-.21.35c0,.05,0,.2.1.11h0c.11-.19.31-.16.48-.2a2.22,2.22,0,0,1,1.93.48C41.9,60.6,42,60.77,42.22,60.71Z"/><path class="cls-50" d="M41.18,59.86a2.2,2.2,0,0,0-.32-.21.92.92,0,0,1-.52-.63l-.15.18-.26.25c-.08.2,0,.3.21.32S40.83,59.81,41.18,59.86Z"/><path class="cls-42" d="M41.18,59.86c-.32-.14-.68-.06-1-.18a.36.36,0,0,1-.25-.23c-.13.07-.18.21-.26.31a.22.22,0,0,0,.27.14,4.63,4.63,0,0,1,1.34,0Z"/><path class="cls-3" d="M39.35,60.23l-.05.26a.94.94,0,0,1,.68-.21l0-.1c-.21-.22-.28-.22-.58,0Z"/><path class="cls-22" d="M39.35,60.23c.19,0,.37-.23.58,0a5.19,5.19,0,0,1,1.06.33,2.89,2.89,0,0,0,1.07.4.38.38,0,0,0-.34-.28c-.18,0-.26-.18-.41-.25a4.43,4.43,0,0,0-1.19-.3.57.57,0,0,1-.25-.06C39.58,59.93,39.49,60,39.35,60.23Z"/><g class="cls-51"><path class="cls-52" d="M48,60.46c-.36,0-.35.28-.39.49,0,.38.21.54.53.78Z"/><path class="cls-52" d="M48.07,60.08c-.24-.27-.16-.67-.6-.82l.06,1Z"/><path class="cls-52" d="M47.61,61.75c-.11.52,0,.69.49.85C48.13,62.27,48,62.11,47.61,61.75Z"/><path class="cls-52" d="M46.45,58.7c-.48.41-.49.71-.06,1.12Z"/><path class="cls-52" d="M43.12,58.77l.3,1,.15-.05-.36-1Z"/></g><g class="cls-51"><path class="cls-52" d="M26.25,1.66Q48.32.85,70.37,0a8.62,8.62,0,0,1,3.81.37c0,.48.27,1-.1,1.43-.69.93-2.44.8-3.11,1.76-2,1.64-3.81,1.82-6.46.64-3.37-1.5-3.37-1.5-7.05-1.37a41.27,41.27,0,0,0,7.07,2c1,.15,2.11.09,2.5,1.08s-.81,1.2-1.26,1.78a5.14,5.14,0,0,1-4.48.6c-1.91-.59-3.93-.19-5.9-.22a14.62,14.62,0,0,1-5-.66c-3.92-1.49-8.16-1.83-12.45-2a6.53,6.53,0,0,0-3.9.93c.76.42,1.78.07,2.48.54a2.34,2.34,0,0,0,2,.69,3.37,3.37,0,0,1,2.91,1.18c.54.46.81,1,.35,1.6s-1.39.6-2.26.34a13.16,13.16,0,0,0-6.8-.42,6.38,6.38,0,0,0-1.37.52c-.47.34-1.09.16-1.63.24-2.42.73-3.89-.39-5.28-1.59s-.73-2.12.28-3.15a2,2,0,0,0,.13-2.6C24.15,2.57,24.56,1.86,26.25,1.66Z"/><path class="cls-52" d="M26.25,1.66c-.54.52-.74,1.15,0,1.55,1.95,1.06.87,2.27.24,3.29-1.67,2.69-1.16,3.44,2.91,3.75.85.75,1.63,1.57.85,2.58s-2,.5-3,.56c-5.56.34-10.73-.81-15.88-2.15a13.41,13.41,0,0,0-3.05-.39c-1.47,0-2.69-.32-3.43-1.41s-1.37-.93-1.75.16c-.5,1.44-1.47,1.64-2.94.72A11.2,11.2,0,0,1,.05,7.21,14,14,0,0,0,.73,4.8C.75,3,2,2.38,4.32,2.34,11.63,2.19,18.94,1.9,26.25,1.66Z"/><path class="cls-52" d="M80.39,6.33l1.07.76c2.73.58,2.4,2.42,2.67,3.92a3.57,3.57,0,0,1-.48,2.32c0,.13-.05.26-.05.39,0,2.86-1.74,3.67-5.44,2.63-4.26-1.2-5.78-3.77-6.34-6.88-.11-1.29,1-1.35,2.31-1.41,1.53-.06,3.25.45,4.5-.68A1.41,1.41,0,0,1,80.39,6.33Z"/><path class="cls-52" d="M80.39,6.33a1.72,1.72,0,0,0,0,1.53.8.8,0,0,1-.63.38c-1.44-.07-2.87-.22-4.32-.16a29.18,29.18,0,0,1-4.5-.62c-.79-.18-1.74-.28-1.69-1.17.47-2.06,2.12-3.6,3.93-5.07l1-.81A56.41,56.41,0,0,1,80.39,6.33Z"/><path class="cls-52" d="M88.25,102.92c.75,2.72.44,5.47.39,8.21,0,1.26-1.11,1.63-2.61,1.67-2.07.06-4.17-.19-6.2.33-.7,1.14-2.24.3-3.23.73a7.44,7.44,0,0,1-3.6-.22c-1-.35-2.74-.35-2.43-1.58a2.92,2.92,0,0,1,3-2.11A36.55,36.55,0,0,0,80,108.83c.51-.09,1.14-.13,1.14-.61s-.71-.69-1.31-.72c-2.73-.15-5.27.27-6.88,2.07s-3.58,2.28-6.49,1.61c-2.61-.6-5-1-6.57-3-1.45-1.86-2.94-1.91-5.42-.71a9.31,9.31,0,0,1-6.62.67c-.77-.2-1.65-.43-1.68-1.07-.09-1.38-1.58-1.65-2.72-2.23a7.44,7.44,0,0,0-2.82-1.33c-3.24-.81-5.84-2.48-8.76-3.73a1,1,0,0,1-.65-1.16c.26-1.16,1.49-1,2.45-.87a37.77,37.77,0,0,0,4.39.29,4.14,4.14,0,0,1,3.5,1.37,2.92,2.92,0,0,0,.66.6c.75.46,1.5,1.61,2.42.94S45,99.07,44,98.55C41,97,38.42,94.49,34,95.13c-1.13.17-1.76-.38-1.52-1.32,1.49-1.14,3.62-1,5.4-1.58a26.31,26.31,0,0,1,8.35,1.92,4.51,4.51,0,0,0,3,.39,18.86,18.86,0,0,1,9.75.1c2.86.66,6.1,1,8.87-.87a41,41,0,0,0-12.13-.88,8.92,8.92,0,0,1-4-.68,26,26,0,0,0-5.41-1.8c-1.69-.29-1.87-1.9-.19-2.49a4.38,4.38,0,0,0,3.2-3.27,1.49,1.49,0,0,1,.59-.86c2.06-1.37,3.67-3.09,5.9-4.32,1-.35,1.4.27,2,.65a79.77,79.77,0,0,0,8.13,5.5c.15.06.36.11.43.21,2.42,3.73,7.7,5.5,10.66,8.87a3.87,3.87,0,0,0,3.26.85c4.94-.36,7.39,1.29,7.62,5.09C87.85,101.41,87.43,102.23,88.25,102.92Z"/><path class="cls-52" d="M88.25,102.92l-.19,2.31c-.86-2.71-.32-5-2.26-7a5.09,5.09,0,0,0-5.51-1.55,3.86,3.86,0,0,1-4.24-1c-3.25-3.4-7.74-5.94-11.26-9.15a.77.77,0,0,1,.69-.73,3.61,3.61,0,0,1,1.27.09c3,.43,4.07-1.93,6.35-2.61,3.12-.94,3.2-1.26,2.94-4.46,0-.19,0-.39,0-.58-.07-.71,1.46-1.39.27-2.07-1.47-.82-2.65-2.07-4.81-2-1.42,0-2.65-.25-2.18-1.7,2.67-1.17,6.74-.92,8.6.67,1.52,1.29,2.82,1,4.49.18,1.17-.55,1.81-2.12,3.82-1.38.79.5-.16,1.2.35,1.73.23,4.3-.16,8.61.58,12.89,0,.4,0,.79,0,1.18.44.26.34.52,0,.8l0,.78c.85.72-.27,1.64.4,2.37h0c.4.25.35.5,0,.76l.1,1.19c.63,1-.23,2.18.41,3.21l.08.69c.4.27.32.54,0,.81Z"/><path class="cls-52" d="M86.08,71.94c-1.25,1.87-3.79,2.55-5.9,3.61a1.67,1.67,0,0,1-2.06-.37c-1.6-3-5-2.43-8.12-2.46a2.26,2.26,0,0,1-3.43.26,12.11,12.11,0,0,0-3.08-1.52,5.44,5.44,0,0,0-4.37-.22,33,33,0,0,1-6.34,1.46,19.74,19.74,0,0,0-2.94-1.5,2.82,2.82,0,0,1-.77-4.81,2.22,2.22,0,0,1,1.67-.28c2.85.4,5.54-.22,8.23-.76a11.72,11.72,0,0,1,5.2.2c4.77,1.17,9.61,2,14.67.75,2.34-.59,4.82-1.06,6.82.7.49.71-.09,1.55.43,2.26l.09,2.29C86.38,71.71,86.34,71.85,86.08,71.94Z"/><path class="cls-52" d="M85.68,66c0,.4-.09.79-.14,1.18a13.64,13.64,0,0,0-7.09.27,15.59,15.59,0,0,1-6.89.43c-2.93-.42-6.07.14-8.8-1.53-1.44-.88-3.68-.33-5.47.25a14,14,0,0,1-5.54.73c-.91-.08-1.76-.19-2.12.67a1.6,1.6,0,0,0,.6,2.16,9.77,9.77,0,0,0,3.12,1.35c.68,1.59-1.14,1.44-2.17,1.67-1.27.28-2.73.06-3.77.89-2,.22-3.28-.91-4.72-1.64a14.65,14.65,0,0,1-2.78-2,9.93,9.93,0,0,0-5.44-2.76c-.72-.09-1.79-.27-1.79-1.18.23-.52.59-1.21,1.29-1.11,2.73.39,5-1.27,7.72-.83.43,0,.87,0,1.29-.09,3.78-.25,7.57-.08,11.37-.49,2.66-.29,5.21-.89,7.88-1.12a12.08,12.08,0,0,1,3.94-.06c1.76.38,4.62-1.78,4.69-3.48a4.25,4.25,0,0,1,.9-3c.63-.72.19-1.27-.91-1.42a24.52,24.52,0,0,0-2.56-.32c-2.89-.08-5.68-.29-7.74-2.12-.67-.6-1.8,0-2.59-.4a11.16,11.16,0,0,0-4.61-2.62c-1.27-.37-3.41-.93-2.7-2.73a3.24,3.24,0,0,1,2.65-1.25,96.37,96.37,0,0,1,16.32,1.8,1.73,1.73,0,0,1,.63.33c.48,2,2.65,2.4,4.65,2.35,4.28-.11,7.28,1.58,10.22,3.52.15.66.3,1.32.44,2l.09,9c.4.27.32.54,0,.82Z"/><path class="cls-52" d="M85.12,53.46a9,9,0,0,1-4.75-1.27,8.69,8.69,0,0,0-4-1.14c-2.65-.33-5.56-.42-6.93-2.69.27-.78,1.41-.72,2-1.2a3.91,3.91,0,0,0-1.15-3.24,30.34,30.34,0,0,1-3-4.72c-1.21-1.9.45-3.61,3.22-3.38,1.05.09,2.17.94,3.11.24s0-1.64.48-2.42a4.24,4.24,0,0,1,3.18-.24c2.4.63,4.68.82,6.84-.44.6,1.3.3,2.67.51,4,0,.53,0,1.06,0,1.58.59.53.34,1.11.2,1.69-1,1.75-2.67.68-4.13.61a3.23,3.23,0,0,0,3.81-.07c.26-.07.44,0,.52.2,0,1.29.09,2.57.13,3.85Z"/><path class="cls-52" d="M83.06,13.28a52,52,0,0,1,1.07,10.31C84.07,25.7,84,27.8,84,29.9a7,7,0,0,1-6.9-.23C73.14,26.91,68.7,27,63.82,27a42.48,42.48,0,0,1-9.32-.69c-1.74-2.16-1.45-2.68,1.39-3.84,1.7-.7,3.29-1.38,5.31-1a1,1,0,0,0,1.17-.56c.55-1.28,2.05-1.57,3.46-2,.82.1,1.56.44,2.43.48-3.4-1-4.88-3.45-7.23-5.21-1.31-1-.29-1.91,2-2-5.29.41-9.51-2.23-14.47-2.87-1.74-.22-3.4-1.09-5.26-1.46a21,21,0,0,0-7.66,0c-1.64-.65-3.78,0-5.32-1C36.59,2.56,43.2,5,49.58,6.18A27.26,27.26,0,0,0,57.67,7a8.57,8.57,0,0,1,4.27.32c1.32.54,2.25-.4,3.37-.6,1.27,3.19,1.27,3.17,6.6,2.17a.94.94,0,0,1,.69.19c1.22,2.54,2,5.27,6.06,6.3C81.7,16.14,82.7,15.72,83.06,13.28Z"/><path class="cls-52" d="M54.91,26c5.94-.8,11.85.29,17.78.21a2.61,2.61,0,0,1,1.62.55c2.46,2.41,6,2.88,9.65,3.17,0,1,.09,2,.14,3.06,0,.51-.07,1-.07,1.54,0,.86-.47,1.06-1.62.87a55,55,0,0,0-7.73-1.15c-.91,1.28-2.27,1.77-4.23,1.62a3.85,3.85,0,0,0-3.31,1.07c-1.55,1.75-2.85,1.83-4.93.44a12.36,12.36,0,0,1-3.62-3.54,6.36,6.36,0,0,0-5-2.87,16.4,16.4,0,0,0-4.7-1.59,3.34,3.34,0,0,1-2.68-1.58c-.24-.71.2-1.17,1-1.4C49.69,25.64,52.22,24.89,54.91,26Z"/><path class="cls-52" d="M54.91,26c-1.67.25-3.34.48-5,.75a4.29,4.29,0,0,0-2.81,1.21c.06.83-.76,1-1.57,1.15a4.88,4.88,0,0,1-3.07-.2c-1.17-2.05-1.19-2.06-3.67-.39-1,.64-4.2.81-5.09.12a6.87,6.87,0,0,0-3.91-1.32c-1.32-.08-2.31-.55-2.53-1.63s.51-1.6,1.71-1.91,2-1.19,3.37-1.37c.34-.05.6.17.83,0a42.09,42.09,0,0,1-7.72-1.49c-5,.85-10.15.77-15,2.12-.5.53-2.09-.15-2,1.05a1.4,1.4,0,0,1,.12.55,2.63,2.63,0,0,0,1.15,1.73c1,.81.19,2.72-1.29,3.54a3.2,3.2,0,0,1-3.88-.4A1.77,1.77,0,0,1,4,28C4,24.66,1.52,21.81.62,18.64c-.05-2.8-.48-5.61.27-8.4,1-.63.89-1.5,1-2.34s0-1.57,1.24-1.71,2.28.37,2.44,1.14C6,9.66,8.16,9.81,10.6,10A59.6,59.6,0,0,1,18,11.65c3.26.72,6.44.44,9.65.66,2.3.15,1.32-1.3,1.75-2.06H31a2.79,2.79,0,0,1,3,1.64,5.38,5.38,0,0,0,4.61,3,3.1,3.1,0,0,1,2.54,1.82c1.06,2.32,3.18,3.53,6.29,4.14,2.95.58,5.79,1.22,8.89.59,1.62-.33,1.77-.83.85-1.77s-1.38-2-2.53-2.46C51.68,16,50.8,13.63,49,11.8A1.28,1.28,0,0,1,48.89,10c.55-.7,1.38-.32,2.11-.23,4.08.5,6.76,2.6,9.48,4.69,1.83,1.39,3.5,2.9,5.44,4.22.75.5,1.33,1.08.43,1.83-.76-.09-1.76-.32-2.14.29-1.32,2.15-4.1,2-6.44,2.3C55.21,23.33,54.17,24,54.91,26Z"/><path class="cls-52" d="M66.35,20.46Q60.64,16,54.91,11.65c-1.25-1-2.79-1.21-4.95-.93,1.66.92,3.76,1.53,2.4,3.32-.09.11.23.53.49.63,3.16,1.2,4.19,4,7.07,5.39.62.3,1,.73.77,1.33a1.9,1.9,0,0,1-1.58.91c-4.37.6-8.75,1.33-12.89-.68a4.46,4.46,0,0,0-1.74-.34c-1.95-.05-2.89-.83-3.41-2.21a4.87,4.87,0,0,0-4.93-3.46,2.87,2.87,0,0,1-2.53-1.77A12.33,12.33,0,0,0,31,10.25c2.78-2.61,6.11-.95,9.6-.54-1.31-1.56-3.3-1.41-4.92-1.82,3.92-2.46,8.18-1.5,11.93-.13A46.14,46.14,0,0,0,61.28,11a5.69,5.69,0,0,1,4.16,2c.3.31.69.7.27,1s-.95,0-1.42-.11c-.63-.15-1.15-.6-2.11-.33A25.54,25.54,0,0,0,72,20.12C70,20.77,68.17,20.32,66.35,20.46Z"/><path class="cls-52" d="M72.6,9.07a6.62,6.62,0,0,1-4.47,1.16c-3.64-.08-4.44-1.07-2.82-3.52.61-1-.55-.75-1-.81C61,5.45,58.19,4,55.07,3.28c-.41-.1-.92-.2-.92-.58s.61-.59,1.11-.63c3.32-.28,6.67-.95,9.58,1.1,2,1.38,3.93,1,5.68-.39,1.24.9-.16,1.37-.67,1.82a1.8,1.8,0,0,0-.33,2.69c.65,1,1.64.51,2.65.45,2.56-.15,5.1.4,7.67.16l.54,0c1.31.93-.08.75-.62.79C77.38,8.83,74.93,8.38,72.6,9.07Z"/><path class="cls-52" d="M79.84,7.9c-3.51.72-7.14.41-10.7.66-2,.14-2.6-1.19-1.44-2.81.77-1.08,2.37-1.71,2.82-3,1.11-.3,1-1.78,2.64-1.56L70,5.94c-1.11.4-1,1,0,1.11,1.86.21,3.69.79,5.63.47A15.63,15.63,0,0,1,79.84,7.9Z"/><path class="cls-52" d="M19.2,8.84c-2.84-.29-5.69-.53-8.51-.88-.71-.09-1.56-.43-1.4-1.18.11-.53.9-.77,1.4-.66,2.94.64,5.83,1.37,8.74,2.07Z"/><path class="cls-52" d="M11.07,4.11c-.05.4-.14.84-.8.82s-.91-.51-.94-1a.73.73,0,0,1,.82-.81C10.94,3.15,11,3.65,11.07,4.11Z"/><path class="cls-52" d="M75.68,7.52c-2.1.72-4.26-.09-6.39.15-.71.08-1.16-.38-.94-.9s.34-1.45,1.67-.83C71.39,7.52,73.88,6.82,75.68,7.52Z"/><path class="cls-52" d="M32,98.66a89,89,0,0,0,12.49,5.11c1.26.87.92,2.61,2.45,3.15,3.93,1.38,5.66,4.77,9.83,5.89,1.14.31,1.25,1,.25,1.65a30,30,0,0,1-7.28.31H43.11c-.41,0-1,.06-1.18-.24-1.55-2.8-5-4.35-7.41-6.6-.32-.3-.47-.67-.86-.93-2.51-1.81-4.7-3.89-7.7-5.29-1.32-.61-2.66-1.18-4,0-.72.54-.67,1.23-.85,1.92-.4,1.55-2.81,2.21-3.84,1-2.06-2.47-5.89-3.09-8.37-5-.93.44-.92,1.2-1.06,1.87s-.42,1-1.33.86a1.15,1.15,0,0,1-.66-.43c-1.13-4.29-.46-8.62-.61-12.93,0-1.56,0-3.12,0-4.68,0-.61.16-1.49,1-1.34,2.33.43,2-.85,2.35-1.76a1.25,1.25,0,0,1,2.11-.47c.89.89,2.37,1,3.26,1.76a3.35,3.35,0,0,0,2.45,1.88c1.62.37,1.93,1.2,1.41,2.26-.86,1.74-.41,3.27.83,4.83,1,1.27,1.12,2.85,2.09,4.18a4.09,4.09,0,0,0,4.33,1.85c1.61,0,3.21.21,4.82.28C30.76,97.76,31.83,97.66,32,98.66Z"/><path class="cls-52" d="M56,80.19c-1.16,1.29-2.12,2.68-4.08,3.47a2.3,2.3,0,0,0-1.5,2c-.11,1.83-1,3.12-3.48,3.31,4.55,3.07,10.2,2.87,15.7,3,2.83.07,5.38.94,8.12,1.23.5.06,1.11.17,1,.69s-.66.56-1.14.69c-3.45.91-6.84,2-10.66,1.67A6.39,6.39,0,0,1,58,95.8a10.18,10.18,0,0,0-8.76.17,2.49,2.49,0,0,1-3-.2,12.7,12.7,0,0,0-7.52-2.22c-2.08-.28-4.1-.93-6.24.12-1.17.56-1.89-.35-2.2-1.11A4.27,4.27,0,0,0,26.53,90c-.2-.12-.39-.25-.61-.36-2.59-1.37-2.71-1.88-1.09-3.93a17.43,17.43,0,0,1,2.51-2.15,3.68,3.68,0,0,1,3.58-.3c2.14.71,3.27,2.23,5.17,3.34-2.62-1.3-2.83-3.39-3.52-5.22A1.81,1.81,0,0,1,34,79.08c1.35-.4,2,.38,2.64,1.13a3,3,0,0,0,1.8,1.21c.71-.73-.32-1.71.58-2.36a3,3,0,0,1,2.16-.18,3.59,3.59,0,0,0,3.84-.78c.16-.16.43-.34.4-.49-.52-2.41,1.77-2.89,4-3.39,1.67.29,2.74,1.29,4,2C55.17,77.25,56.24,78.49,56,80.19Z"/><path class="cls-52" d="M26.81,88.83c2.39.28,4.21,1.06,4.77,3a1.36,1.36,0,0,0,1.83,1c2-.61,3.66.16,5.37.74-1.94.13-4-.41-5.73.79.82,2.1-1.49,1.66-2.72,1.71-2.51.1-4.73.45-6.12,2.21-2.54.18-4.35-.09-5.08-2.47a16.42,16.42,0,0,0-2.76-5.45,2.92,2.92,0,0,1-.72-2.24c.28-1.28,1.23-2.45-1.43-3-.84-.17-.77-1.37-.94-2.14.05-.31.64-.74-.13-.91-1.89-.43-2.69-1.73-3.94-2.68S7.07,77.18,4.89,77.5c-.41.06-.63-.37-.68-.72,0-1.47-.58-2.92-.45-4.39A42.59,42.59,0,0,0,2.7,62.23c.25-.92.75-1.8,1-2.74S4.52,58,5.9,58.26s2.49.44,3.16,1.47,2.29.57,3.42,1.05c1.89.79,2.42,1.59,1.41,3C13,65,13.05,66,14.65,66.84c1.33.72,2.38,1.64,1.79,3a4.16,4.16,0,0,1-3.54,2.31,1.58,1.58,0,0,0-1.12.52A24.63,24.63,0,0,0,21.13,76c2,.34,3.58.85,4.64,2.2.73.92,2.07,1.36,3.08,2.07,1.41,1,1.46,1.91,0,2.78a10.35,10.35,0,0,1-2.58,1.55,2.79,2.79,0,0,0-2.37,2.52C23.41,89,24.14,89.47,26.81,88.83Z"/><path class="cls-52" d="M56,80.19,52.31,77c.21-.2.37-.62.62-.58,3,.38,4.72-1.61,7.25-2.09,2.12-.4,3.46-1.44,3.1-3.28-.12-.6.13-1,1-1.11,1.79,1,2.79,3,5.73,2.74a11,11,0,0,0,3,.42c2,.14,4.69,2.26,4.45,3.74a10.65,10.65,0,0,0,.24,3.29c.29,2-.79,3.31-3.29,3.91a5.69,5.69,0,0,0-2.83,1.31c-1.85,2-4.06,2.46-6.82,1.09Z"/><path class="cls-52" d="M57,113.91c-2.62-.24-4.57-1-5.79-3-.72-1.18-2.27-2.11-3.62-3a6.1,6.1,0,0,1-3.07-4.12,5.11,5.11,0,0,1,2,1.76c1.51,2.3,3.83,2.72,6.76,1.28,4.39-2.18,5.48-2,8.42,1.29,1,1.13,6.65,2.75,8.34,2.39a2.33,2.33,0,0,0,1.45-1.06c2.06-2.88,5.7-3.17,9.4-3.13,1.61,0,3.11.71,2.9,2.22-.19,1.33-1.28,1.68-3.11,1.69a60.79,60.79,0,0,0-7.34.81c-.7.1-1.33.43-1.25,1.07s.76.62,1.37.69l2.79.38L59.1,114C58.33,114.57,57.61,114.69,57,113.91Z"/><path class="cls-52" d="M24.21,98.26c-.23-2.18.59-2.93,3.44-3.11,1.84-.11,3.79.18,5.4-.81,3.42-.64,6.5-.3,9,1.8a1.75,1.75,0,0,0,.79.49c3.54.37,4,2.42,4.42,4.51a1.37,1.37,0,0,1-.5,1.61,2.44,2.44,0,0,1-2.19.12,6.76,6.76,0,0,1-3.11-2A6.5,6.5,0,0,0,36.11,99a38,38,0,0,1-4.1-.34A45.12,45.12,0,0,1,24.21,98.26Z"/><path class="cls-52" d="M9.12,97.87c2.9,1.19,5,3.13,7.36,4.75.77.52.91,1.75,2.36,1.45,1.24-.26,1.21-1.31,1.51-2.1a8.14,8.14,0,0,0,.22-1c.8-.81,1.53-.37,2,.17a12,12,0,0,1,2.27,2.53,40.08,40.08,0,0,0,7.78,8.57,6.6,6.6,0,0,0,2.87,1.2c1.25.27,1.86.76.6,1.61-2.06-.09-4.1.55-6.17.1l-15.4.39c-1.6.35-3.25,0-4.87.19-.47,0-.87,0-1.08-.33a.69.69,0,0,1,.36-1c1.85-1,1.06-1.91.15-3s-2-2.13-3-3.16c-.26-.67,0-1.38-.23-2,.59-3,1.36-3.38,5-2.26,1.78.55,3.8.75,5.28,1.82s2.74,2.15,4.17,3.18a2.82,2.82,0,0,0,2.25.75.32.32,0,0,0,.28-.46,2.65,2.65,0,0,0-1.7-1.12,18.38,18.38,0,0,1-4.69-2,16.6,16.6,0,0,0-3-3.06c0-1.52-2.07-1.77-3-2.72C9.69,99.64,7.9,99.19,9.12,97.87Z"/><path class="cls-52" d="M9.65,116c-1.42,0-2.16-.45-2.16-1.61a21.45,21.45,0,0,0-.37-2.84c-1.4-1-1.16-2,0-3.07a15.05,15.05,0,0,1,5.4,4.82c1.24,1.54-1.54,1.21-2.67,2.29h4.74Z"/><path class="cls-52" d="M64.27,70l.57,2.31c.24.95-.17,1.61-1.34,2.1C61,75.45,58,75.86,56,77.75c-1.05,1-2.42-.51-3.71-.71a7.32,7.32,0,0,0-3.12-2c-1-.32-2.56-.16-2.09-1.57.72-1,2-1.12,3.33-1.22a8.17,8.17,0,0,0,2.92-.75c2-.48,3.94-.93,5.89-1.46A8.23,8.23,0,0,1,64.27,70Z"/><path class="cls-52" d="M43.46,65.65a38.16,38.16,0,0,1,6.59-1.72,6.64,6.64,0,0,0,3.9-1.8,23.29,23.29,0,0,1,7.22-4.67c1.16-.5,1.34-1.12.72-1.94l-3.34-4.41a28.42,28.42,0,0,0,13.83,2.54,2,2,0,0,1,1.89.86,1.32,1.32,0,0,1-.53,2c-1.37.88-1.86,1.84-.86,3.08.27.34.52.91.08,1.09-2.19.91-3.33,2.61-5.18,3.75a1.48,1.48,0,0,1-1.47,0c-2.1-1.37-4.38-.51-6.43-.12a27.31,27.31,0,0,1-6.91.55C49.71,64.64,46.69,65.83,43.46,65.65Z"/><path class="cls-52" d="M47.1,73.51l2.09,1.57c-1.82.55-2.89,1.36-2.07,3,.34.67-.25,1.09-1.06,1.33-2.1-1.71-4.68-3.06-6.66-4.87a1.81,1.81,0,0,0-.65-.33c-1-.32-2.08-.82-2.91-.23s.26,1.29.57,1.92c.17.36.56.66.49,1.09-1.23,1.79-3,.76-3.95.09-2-1.41-4.73-2.52-5.11-5-.06-.44-.53-.84-1-1.11a22.05,22.05,0,0,1-5.42-4.94C20,64.54,19.79,63.19,21,61.64a2,2,0,0,1,2.63-.44,7.75,7.75,0,0,1,3.05,1.72c1.43,1.87,3.82,2.94,5.71,4.41.8.61.42-.86,1.22-.5,3.4.08,6.08,1,7.87,3.35C42.71,71.82,45.43,72.19,47.1,73.51Z"/><path class="cls-52" d="M51.27,47.18c-.71-1.9-2.65-2.55-5-2.71a11.62,11.62,0,0,1-4.39-.82c-.95-1-.77-1.86.51-2.52a2.4,2.4,0,0,1,3.13.64c.78.91,2.12,1.17,3.14,1.78a1.3,1.3,0,0,0,1.41.11c.51-.3.28-.65.16-1-.32-1.1-1.17-2.17-.36-3.34,1.87-2.14,3.15-2.2,4.72,0,1.09,1.5,2.53,1.73,4.46,1.28a48.5,48.5,0,0,0,9.4,3c2.43.51,3.4,2.44,5.16,3.63.3.5,1.26,1,.73,1.51s-1.41,0-2.13,0c-.92-.09-1.84-.21-2.76-.32a102.58,102.58,0,0,0-15.9-1.88A3.38,3.38,0,0,0,51.27,47.18Z"/><path class="cls-52" d="M62.25,58.21a24.61,24.61,0,0,0-7.32,4.62,5.6,5.6,0,0,1-3.67,1.44c-2.7.12-5.12,1.16-7.8,1.38h-1c-1.7.58-3.51.35-5.29.39a5.68,5.68,0,0,0-3.55.79c.34.44.68.9,1.05,1.33s1.37.74.78,1.26a1.73,1.73,0,0,1-2.26-.23C31.36,67,27,66.89,26,64c-.42-1.15-2.54-1.88-4.35-2.23l-.37,0c-1.37-.17-1.66-1.23-2.55-1.81a.86.86,0,0,1,.36-1.52,5.51,5.51,0,0,0,3.51-3.11c.23-.4.79-.48,1.28-.58,2.44-.71,4.94-1.36,6.65-3-.37.06-.74.13-1.12.16-2.56-.38-3-.36-4.46.21a1.49,1.49,0,0,1-.76-.32,5.34,5.34,0,0,0-.64-1.06c-1.27-1.27-1.66-2.76-.46-4,1.4-1.45,2.84-3.1,5.95-2.58a12.59,12.59,0,0,0,5.83-.61A13.32,13.32,0,0,1,42.17,43a31.14,31.14,0,0,0,5.41.86c3.41,0,4.2.79,3.69,3.33,2.52,1.21,5.7,1.73,7.28,3.93,1.92,1.2,3.76,2.42,4.78,4.23C64.05,56.62,63.9,57.56,62.25,58.21Z"/><path class="cls-52" d="M73.63,47.19c-4.16-2.87-10-3.19-14.56-5.51-2.8-.4-3.43-2-3.65-3.8,2-1.91,2-2.41.1-4.38a9.54,9.54,0,0,1-1.69-2.37c-.27-.52-.38-1,.56-1.24A8,8,0,0,1,59,33.1a18,18,0,0,0,3.85,3.38,2.4,2.4,0,0,0,2.3.55c.94-.34.92-1,.87-1.69,0-.49-.39-1.11.46-1.37.67-.2,1,.36,1.5.6,2.34,1.16,4.46-.09,6.66-.35a2.53,2.53,0,0,0,1.39,1.12c.61.23,1.38.42,1.12,1.12s-.94.72-1.6.9a6.63,6.63,0,0,1-4.5-.3,2.26,2.26,0,0,0-2.39.14c-.75.58-.4,1.2,0,1.81C70.34,41.73,72,44.46,73.63,47.19Z"/><path class="cls-52" d="M84.53,40.5a2.33,2.33,0,0,1,.06.35v2.94c-1.37-1.59-3.45-1-4.78-1.78S76.4,40.75,77,39.58s2.58-.21,3.89,0A30.53,30.53,0,0,1,84.53,40.5Z"/><path class="cls-52" d="M54.39,29.89a24.28,24.28,0,0,0,3.2,4c1.69,1.78,1.1,3.49-1.12,3.88s-3.08-.93-3.86-1.87a14.8,14.8,0,0,0-5.89-4.46c-1.41-.6-2.53-1.68-1.19-3.09l1.57-.4A26.5,26.5,0,0,1,54.39,29.89Z"/><path class="cls-52" d="M45.53,28.33a5.39,5.39,0,0,0,4.2,3.17,2.93,2.93,0,0,1,2.11,1.35c.95,2,2.91,3.37,4.63,4.9.87,1.31.9,2.93,2.6,3.93a17.53,17.53,0,0,0-1.78.1c-2.09.32-3.43-.18-4-1.83-.36-1.09-1.09-1.56-2.05-.23-.11,1.13-1.64,2-.89,3.37.37.7-.93.88-1.86.5a10.27,10.27,0,0,1-5.26-4.27c-.89-1.55-2.17-1.9-4.31-1.67a35.72,35.72,0,0,0-12.83,3.88c-2.7,1.4-6.25,1.33-9.54,1.41a15.7,15.7,0,0,0-2.06-.08c-1.18.18-2.21.58-2.41,1.54S13,45.83,14,46a8.4,8.4,0,0,1,5.78,3.62c.47.69.85,1.28.22,2-.33.16-.68.28-1,.44a16.78,16.78,0,0,1-7.84-1.25A9.94,9.94,0,0,0,8.52,50c-1.7-.31-2.66.15-2.77,1.51-.08,1-.32,2-.3,3.1-.91,1-1.67,1-2.26-.18,0-5.11-.64-10.19-1.07-15.29a3.1,3.1,0,0,1,.14-1.78l.3-2c0-1.2.36-2,2.27-1.15a5.27,5.27,0,0,0,3.75-.07c4.05-1.23,8.61-1.51,12.16-3.69a1.12,1.12,0,0,1,.72-.17c4.7.48,9-1.69,13.67-1.28a6.17,6.17,0,0,0,4-1c1.11-.74,2.51-1.26,3.76,0A7.25,7.25,0,0,0,45.53,28.33Z"/><path class="cls-52" d="M42.94,27.93c-5,1.17-10.09,2.11-15.22,2.9-1.61.25-3.19.44-4.82.57-2.34.2-4.2,1.56-6.58,2a80,80,0,0,0-8.6,2.14,8.71,8.71,0,0,1-5.16-.18c.08-1.45-1-2.79-.63-4.27a13.72,13.72,0,0,0,0-7.44c-.06-1.66-.11-3.32-.17-5l.15-1c-1,3.9,3.61,6.77,3.41,10.52,0,.57.54,1,1.33,1a1.88,1.88,0,0,0,1.78-.93c.95-1.35-.57-2.34-.86-3.5.09-.84.92-.93,1.68-.77a8.62,8.62,0,0,0,5.37-.86,38.81,38.81,0,0,1,9.5-2.3,2.09,2.09,0,0,0,1.66-.79c3.13.72,6.43,1,9.43,2,.68.23,1.68.5,1.38,1.2s-1.3.4-2,.21c-2.46-.66-3.92.75-5.45,1.65-.92.53.21,1.08,1,1.06a6.93,6.93,0,0,1,4.75,1.55c1.35,1,2.8.44,4-.55C40.91,25.56,41.89,25.75,42.94,27.93Z"/><path class="cls-52" d="M25.77,20.07c.32.9-.21,1.48-1.37,1.48-3.57,0-6.43,1.46-9.31,2.66-2.57,1.06-4.87,1.49-7.53.58H7A6.6,6.6,0,0,1,6,23.47c-.49-1.14,0-1.62,1.5-1.28A3.48,3.48,0,0,0,9.64,22a30.11,30.11,0,0,1,9.57-1.16C21.51,21,23.52,20,25.77,20.07Z"/><path class="cls-52" d="M9.64,22c-.28.13-.58.39-.84.38-2.89-.17-2.53,1-1.76,2.36-1-.59-1.89-1.34-1.17-2.3C6.78,21.28,8.36,22.14,9.64,22Z"/><path class="cls-52" d="M1.92,23.62a6.66,6.66,0,0,1,0,7.44Z"/><path class="cls-52" d="M42.42,114.35c-2,.64-4.17.38-6.28.35-5.56-.27-6.86-4.16-9.64-6.69-1.08-1-1.63-2.41-2.81-3.46s-1.75-2.42-.4-3.22,2.75.43,3.9,1.16a4.76,4.76,0,0,1,1.07.83,9.59,9.59,0,0,0,6.35,3.2l7.69,6C43.06,113.11,43.87,113.68,42.42,114.35Z"/><path class="cls-52" d="M5.15,77.05l.64-2.24a32.66,32.66,0,0,1,5.44,5.06,2.63,2.63,0,0,0,3.35,1c.57-.2,1.38-.63,1.77.06s-.4,1-1,1.22-1.39.52-2.09.77c-.49-.26-1-.51-1.47-.78-1.28-.72-2.17-.82-2.21.71a2.34,2.34,0,0,1-.8,1.81c-1,.83-2.07,1.6-2.89-.31v4.2c-1.3,0-1.16-.74-1.2-1.35,0-1,0-2,0-3-.11-1.85-.79-3.68-.5-5.55C4.28,78,4,77.27,5.15,77.05Z"/><path class="cls-52" d="M34.61,106.52c-3.11,1.25-4,1.06-6-1.24a11.91,11.91,0,0,0-1.93-1.81c-.75-.53-1.29-1.7-2.6-1.21s-.47,1.5-.35,2.29c-1.65-.87-1.33-2.74-3.12-3.53.17-1.94,1.74-1.61,3.29-1.11A27.94,27.94,0,0,1,34.61,106.52Z"/><path class="cls-52" d="M7,106.32a12.6,12.6,0,0,1-.42-4.52H7c1.73-1.74,2.19-1.87,4.51-.67,1.06.55,2.21,1,3.31,1.45a9.86,9.86,0,0,0,1.79,1.62c1.45.82.6,1.34-.24,1.92h0a18.77,18.77,0,0,1-5.91-1.18C8.26,104.28,7.3,104.71,7,106.32Z"/><path class="cls-52" d="M14.85,102.58a9.12,9.12,0,0,1-3.92-.7A5.16,5.16,0,0,0,7,101.8c0-1.1,0-2.2,0-3.3,0-.5-.27-1.19.46-1.41s1,.55,1.61.78Z"/><path class="cls-52" d="M21.6,61.72c-.49,3.38,2.2,5.62,5,7.71,1.49,1.1,3.17,1.89,3.33,3.73.13,1.34,4.27,3.46,6.21,3.49,0-.7.51-1.16,1.45-1,1.46.23,1.66,1.39,2.44,2.13.6.56.75,1.17-.25,1.64.19.5.21,1.1.6,1.48,1,1,.55,1.53-.76,2.11a2.15,2.15,0,0,1-2.94-.69c-.63-.69-1-2.23-2.2-1.79-1.48.54,0,1.71.22,2.61a4.42,4.42,0,0,0,3,3.45c.65.25,1.42.79.71,1.42s-1.26.06-1.82-.24c-2.12-1.12-3.86-2.62-6.22-3.51s-3.28.43-4.16,1.63c-.78,1-2,2.25.57,3-1.2,1.24-2.92,1.55-4.81,1.52-.52,0-1.08-.06-1.33-.47s.17-.72.56-1c2-1.31,2-2.78.6-4.35-.29-.34-.58-.71-.21-1.08s1.06-.32,1.65-.14a14,14,0,0,0,1.67.51,2.93,2.93,0,0,0,3.12-1.32c.69-1,0-1.61-1.1-2.06a6.13,6.13,0,0,1-2.56-1.9,3.43,3.43,0,0,0-2.67-1.39c-3-.14-5.55-1.4-8.32-2.09-1.66-.41-3.1-1.54-4.68-2.31-1.13-.55-.78-1.28.51-1.49s2.41-.13,3.6-.28A2.44,2.44,0,0,0,15,69.53c.29-.92-.48-1.44-1.38-1.91-2.78-1.47-2.92-1.74-1.29-3.91,1.08-1.46.36-2.24-1.47-2.64A15.74,15.74,0,0,1,6,59.36a1,1,0,0,1,1.23-.72c1.61.93,3.19.06,4.77.08A13.4,13.4,0,0,0,16.57,60a8.52,8.52,0,0,1,5,1.76Z"/><path class="cls-52" d="M39.82,79.4c-1-1.1-1.27-2.7-3.64-2.75-1.61-1.17-3.94-2.59-2.58-4.17,1.06-1.23,3.8,0,5.27.62,3,1.14,4.94,3.31,7.16,5.18.25.22,0,.74,0,1.12a5.17,5.17,0,0,0-1.39.43C42.79,81.19,41.24,80.79,39.82,79.4Z"/><path class="cls-52" d="M3.48,62.11l-.16-3.53c.09-1.5-.46-3,.52-4.48.56.43.49,0,.6-.24a2.33,2.33,0,0,1,2.65-1.1A31.4,31.4,0,0,0,11,52.9c.61,0,1.45-.09,1.75.22,1.68,1.71,4.17,2.13,6.68,2.56.22,0,.29.3.35.49.09.73-.2,1.25-1.28,1.39-.83.11-1.63.33-2.48.45-1.72.23-3.8.13-3.76,2.14L6,59.36c-1.15-.15-1.46.38-1.54,1.08A2,2,0,0,1,3.48,62.11Z"/><path class="cls-52" d="M61.67,77.83c-.63-.12-1.42,0-1.81-.91A36.09,36.09,0,0,1,65,76c2.83-.07,5.67.14,8.5.29.89.05,2.22.09,2,1.1-.19.74-1.35.66-2.21.54s-1.84-.35-2.75-.52C68.75,78.45,63.24,78.7,61.67,77.83Z"/><path class="cls-52" d="M61.67,77.83a62.16,62.16,0,0,1,8.85-.39C70.92,79,69.42,79,68.14,79A15.51,15.51,0,0,0,62,80c-1,.43-2.24.85-2.91-.17s.64-1.4,1.69-1.7C61.05,78,61.36,77.93,61.67,77.83Z"/><path class="cls-52" d="M16.4,106.12c3.67.21,6.83,1.12,9.11,3.47.78.81.54,1.06-.58,1.33a7.69,7.69,0,0,1-7.87-3.32,10.28,10.28,0,0,1-.66-1.48Z"/><path class="cls-52" d="M19.53,51.11c-1.68-1.8-3.1-3.74-6.42-4.22-1.63-.24-3.53-.73-3.4-2.46.08-1,3.78-3.14,5.13-2.88,5.94,1.11,10.72-.83,15.4-3.14,3.4-1.69,7.45-1.44,11.19-2.09a2.48,2.48,0,0,1,2.8,1.91,9.4,9.4,0,0,0,3.06,4c.9.73,1.88,1.1,2.24-.4a4.89,4.89,0,0,1,1.73-2.15c.25,1.2-.29,2.38.12,3.64s-1.1,1.39-2.28,1a15.32,15.32,0,0,1-3.53-1.59c-2-1.3-3-.74-3.67.87a19.24,19.24,0,0,0-7.72,1.27,8,8,0,0,1-3.76.42c-5.5-.43-7.36,1.3-5.88,5.4a7,7,0,0,1,.19.76C22.92,52.77,21.68,52.68,19.53,51.11Z"/><path class="cls-52" d="M31,50.72l.52,1.57a10.74,10.74,0,0,1-7.28,3.15.62.62,0,0,1-.43.14c-.16,0-.24,0-.24,0a6.42,6.42,0,0,0-1.92-.48c-2.44,0-3.89-2-3.14-4h1.05l5.2.39h.52c1-1.39,2.77-.53,4.16-.78Z"/><path class="cls-52" d="M29.41,50.72l-4.16.78C26.09,49.6,27.77,50.21,29.41,50.72Z"/><path class="cls-52" d="M23.69,55.43h.52c-.27.24-.84.56-.77.72.78,1.82-.84,2.18-2.5,2.93-2.07.92.37,1.74.67,2.63-3-.88-6.45-.37-9.37-1.57-.76-.42-1.51-.85-2.27-1.26s-1.57-.52-1.2-1.28c.28-.57,1.15-.64,1.79-.53,2.89.48,5.64-.29,8.45-.47C20.62,54.89,21.71,54.62,23.69,55.43Z"/><path class="cls-52" d="M23.69,55.43,19,56.61a12.34,12.34,0,0,0-3.84-.39c-1.41,0-3.13.27-2.89-1.59.06-.53-.75-.71-1.36-.7a51.88,51.88,0,0,0-6.48-.07c0-1.5,0-3,0-4.5,0-.92.35-1.1,1.73-1,3.42.35,6.09,2.17,9.47,2.48.94.09,1.89.16,2.83.23,1.37,1.39,2,3.36,5.06,3.38C24.17,54.49,24,55.07,23.69,55.43Z"/></g><g class="cls-51"><path class="cls-52" d="M48,60.46c-.36,0-.35.28-.39.49,0,.38.21.54.53.78Z"/><path class="cls-52" d="M48.07,60.08c-.24-.27-.16-.67-.6-.82l.06,1Z"/><path class="cls-52" d="M47.61,61.75c-.11.52,0,.69.49.85C48.13,62.27,48,62.11,47.61,61.75Z"/><path class="cls-52" d="M46.45,58.7c-.48.41-.49.71-.06,1.12Z"/><path class="cls-52" d="M43.12,58.77l.3,1,.15-.05-.36-1Z"/></g></g></g></svg>