<svg xmlns="http://www.w3.org/2000/svg" xmlns:xlink="http://www.w3.org/1999/xlink" viewBox="0 0 510.88 249.67"><defs><style>.cls-1{isolation:isolate;}.cls-2{fill:url(#linear-gradient);}.cls-10,.cls-11,.cls-12,.cls-13,.cls-3,.cls-5,.cls-7,.cls-8,.cls-9,.cls-91{opacity:0.5;}.cls-3{fill:url(#linear-gradient-2);}.cls-4{fill:url(#linear-gradient-4);}.cls-5{fill:url(#linear-gradient-5);}.cls-6{fill:url(#linear-gradient-6);}.cls-7{fill:url(#linear-gradient-7);}.cls-12,.cls-13,.cls-8,.cls-9{mix-blend-mode:screen;}.cls-8{fill:url(#linear-gradient-8);}.cls-9{fill:url(#linear-gradient-9);}.cls-10,.cls-12{fill:url(#linear-gradient-10);}.cls-11,.cls-13{fill:url(#linear-gradient-11);}.cls-14{fill:none;}.cls-15{fill:#666;}.cls-16{fill:#999;}.cls-17{fill:#e6e6e6;}.cls-18,.cls-20,.cls-24,.cls-25,.cls-27,.cls-29,.cls-31,.cls-33,.cls-37,.cls-39,.cls-41,.cls-43,.cls-45,.cls-47,.cls-49,.cls-51,.cls-53,.cls-54,.cls-58,.cls-60,.cls-62,.cls-64,.cls-66,.cls-68,.cls-70,.cls-72{opacity:0.2;}.cls-19,.cls-20{fill:#4d4d4d;}.cls-21{fill:#ccc;}.cls-22{fill:url(#New_Gradient_Swatch_copy_2);}.cls-23,.cls-24{fill:url(#linear-gradient-14);}.cls-26,.cls-27{fill:url(#linear-gradient-16);}.cls-28,.cls-29{fill:url(#linear-gradient-18);}.cls-30,.cls-31{fill:url(#linear-gradient-20);}.cls-32{fill:url(#New_Gradient_Swatch_copy_2-2);}.cls-33{fill:url(#linear-gradient-22);}.cls-34{fill:url(#New_Gradient_Swatch_copy_2-3);}.cls-35{fill:url(#New_Gradient_Swatch_copy_2-4);}.cls-36,.cls-37{fill:url(#linear-gradient-23);}.cls-38,.cls-39{fill:url(#linear-gradient-25);}.cls-40,.cls-41{fill:url(#linear-gradient-27);}.cls-42,.cls-43{fill:url(#linear-gradient-29);}.cls-44,.cls-45{fill:url(#linear-gradient-31);}.cls-46,.cls-47{fill:url(#linear-gradient-33);}.cls-48,.cls-49{fill:url(#linear-gradient-35);}.cls-50,.cls-51{fill:url(#linear-gradient-37);}.cls-52{fill:url(#linear-gradient-39);}.cls-53{fill:url(#linear-gradient-40);}.cls-54{fill:url(#linear-gradient-41);}.cls-55{fill:url(#linear-gradient-42);}.cls-56{fill:url(#New_Gradient_Swatch_copy_2-6);}.cls-57{fill:url(#New_Gradient_Swatch_copy_2-7);}.cls-58{fill:url(#linear-gradient-43);}.cls-59{fill:url(#linear-gradient-44);}.cls-60{fill:url(#linear-gradient-45);}.cls-61{fill:url(#linear-gradient-46);}.cls-62{fill:url(#linear-gradient-47);}.cls-63{fill:url(#linear-gradient-48);}.cls-64{fill:url(#linear-gradient-49);}.cls-65{fill:url(#linear-gradient-50);}.cls-66{fill:url(#linear-gradient-51);}.cls-67{fill:url(#linear-gradient-52);}.cls-68{fill:url(#linear-gradient-53);}.cls-69{fill:url(#New_Gradient_Swatch_copy_2-8);}.cls-70{fill:#383838;}.cls-71{fill:url(#linear-gradient-54);}.cls-72{fill:url(#linear-gradient-55);}.cls-73,.cls-91{mix-blend-mode:multiply;}.cls-74{fill:url(#linear-gradient-56);}.cls-75{fill:url(#linear-gradient-57);}.cls-76{fill:url(#linear-gradient-58);}.cls-77{fill:url(#linear-gradient-59);}.cls-78{fill:url(#linear-gradient-60);}.cls-79{fill:url(#linear-gradient-61);}.cls-80{fill:url(#linear-gradient-62);}.cls-81{fill:url(#linear-gradient-63);}.cls-82{fill:url(#linear-gradient-64);}.cls-83{fill:url(#linear-gradient-65);}.cls-84{fill:url(#linear-gradient-66);}.cls-85{fill:url(#linear-gradient-67);}.cls-86{fill:url(#linear-gradient-68);}.cls-87{fill:url(#linear-gradient-69);}.cls-88{fill:url(#linear-gradient-70);}.cls-89{fill:url(#linear-gradient-71);}.cls-90{fill:url(#linear-gradient-72);}.cls-92{fill:url(#linear-gradient-73);}.cls-93{fill:url(#linear-gradient-74);}.cls-94{fill:url(#linear-gradient-75);}.cls-95{fill:url(#linear-gradient-76);}.cls-96{fill:url(#linear-gradient-77);}.cls-97{fill:url(#linear-gradient-78);}.cls-98{fill:url(#linear-gradient-79);}.cls-99{fill:url(#linear-gradient-80);}.cls-100{fill:url(#linear-gradient-81);}.cls-101{fill:url(#linear-gradient-82);}.cls-102{fill:url(#linear-gradient-83);}.cls-103{fill:url(#linear-gradient-84);}.cls-104{fill:url(#linear-gradient-85);}.cls-105{fill:url(#linear-gradient-86);}.cls-106{fill:url(#linear-gradient-87);}.cls-107{fill:url(#linear-gradient-88);}.cls-108{fill:url(#linear-gradient-89);}</style><linearGradient id="linear-gradient" x1="11.72" y1="124.83" x2="504.94" y2="124.83" gradientUnits="userSpaceOnUse"><stop offset="0" stop-color="#d55023"/><stop offset="1" stop-color="#2484c6" stop-opacity="0"/></linearGradient><linearGradient id="linear-gradient-2" x1="11.72" y1="124.83" x2="504.94" y2="124.83" gradientUnits="userSpaceOnUse"><stop offset="0" stop-color="#2484c6" stop-opacity="0"/><stop offset="1" stop-color="#d55023"/></linearGradient><linearGradient id="linear-gradient-4" x1="3391.12" y1="14.9" x2="3901.99" y2="14.9" gradientTransform="matrix(1, 0, 0, -1, -3391.12, 29.8)" xlink:href="#linear-gradient-2"/><linearGradient id="linear-gradient-5" x1="3391.12" y1="14.9" x2="3901.99" y2="14.9" gradientTransform="matrix(1, 0, 0, -1, -3391.12, 29.8)" xlink:href="#linear-gradient"/><linearGradient id="linear-gradient-6" x1="3391.11" y1="234.77" x2="3901.98" y2="234.77" gradientTransform="matrix(1, 0, 0, -1, -3391.11, 469.55)" xlink:href="#linear-gradient-2"/><linearGradient id="linear-gradient-7" x1="3391.11" y1="234.77" x2="3901.98" y2="234.77" gradientTransform="matrix(1, 0, 0, -1, -3391.11, 469.55)" xlink:href="#linear-gradient"/><linearGradient id="linear-gradient-8" x1="36.38" y1="124.05" x2="81.7" y2="124.05" xlink:href="#linear-gradient"/><linearGradient id="linear-gradient-9" x1="36.38" y1="124.05" x2="81.7" y2="124.05" xlink:href="#linear-gradient-2"/><linearGradient id="linear-gradient-10" x1="19.75" y1="13.59" x2="196.4" y2="13.59" xlink:href="#linear-gradient"/><linearGradient id="linear-gradient-11" x1="19.74" y1="233.49" x2="196.42" y2="233.49" xlink:href="#linear-gradient"/><linearGradient id="New_Gradient_Swatch_copy_2" x1="377.81" y1="144.95" x2="381.04" y2="144.95" gradientUnits="userSpaceOnUse"><stop offset="0" stop-color="#d45127"/><stop offset="1" stop-color="#2383c5" stop-opacity="0"/></linearGradient><linearGradient id="linear-gradient-14" x1="383.11" y1="152.56" x2="434.65" y2="152.56" gradientUnits="userSpaceOnUse"><stop offset="0" stop-color="#d45127"/><stop offset="0.75" stop-color="#2383c5" stop-opacity="0"/></linearGradient><linearGradient id="linear-gradient-16" x1="383.11" y1="152.56" x2="434.65" y2="152.56" gradientUnits="userSpaceOnUse"><stop offset="0" stop-color="#2383c5" stop-opacity="0"/><stop offset="1" stop-color="#d45127"/></linearGradient><linearGradient id="linear-gradient-18" x1="355.68" y1="141.75" x2="402.84" y2="141.75" xlink:href="#linear-gradient-14"/><linearGradient id="linear-gradient-20" x1="355.68" y1="141.75" x2="402.84" y2="141.75" xlink:href="#linear-gradient-16"/><linearGradient id="New_Gradient_Swatch_copy_2-2" x1="412.69" y1="153.98" x2="415.6" y2="153.98" xlink:href="#New_Gradient_Swatch_copy_2"/><linearGradient id="linear-gradient-22" x1="379.21" y1="78.52" x2="380.39" y2="78.52" xlink:href="#linear-gradient-16"/><linearGradient id="New_Gradient_Swatch_copy_2-3" x1="379.21" y1="78.52" x2="380.39" y2="78.52" xlink:href="#New_Gradient_Swatch_copy_2"/><linearGradient id="New_Gradient_Swatch_copy_2-4" x1="413.66" y1="108.64" x2="415.41" y2="108.64" xlink:href="#New_Gradient_Swatch_copy_2"/><linearGradient id="linear-gradient-23" x1="389.18" y1="120.11" x2="440.3" y2="120.11" xlink:href="#linear-gradient-14"/><linearGradient id="linear-gradient-25" x1="389.18" y1="120.11" x2="440.3" y2="120.11" xlink:href="#linear-gradient-16"/><linearGradient id="linear-gradient-27" x1="396.38" y1="95.4" x2="430.94" y2="95.4" xlink:href="#linear-gradient-14"/><linearGradient id="linear-gradient-29" x1="396.38" y1="95.4" x2="430.94" y2="95.4" xlink:href="#linear-gradient-16"/><linearGradient id="linear-gradient-31" x1="356.81" y1="115.1" x2="398.8" y2="115.1" xlink:href="#linear-gradient-14"/><linearGradient id="linear-gradient-33" x1="356.81" y1="115.1" x2="398.8" y2="115.1" xlink:href="#linear-gradient-16"/><linearGradient id="linear-gradient-35" x1="362.79" y1="88.62" x2="397.02" y2="88.62" xlink:href="#linear-gradient-14"/><linearGradient id="linear-gradient-37" x1="362.79" y1="88.62" x2="397.02" y2="88.62" xlink:href="#linear-gradient-16"/><linearGradient id="linear-gradient-39" x1="349.06" y1="66.51" x2="380.07" y2="66.51" xlink:href="#linear-gradient-16"/><linearGradient id="linear-gradient-40" x1="349.06" y1="66.47" x2="380.39" y2="66.47" xlink:href="#linear-gradient-16"/><linearGradient id="linear-gradient-41" x1="369.77" y1="113.59" x2="385.38" y2="112.56" gradientUnits="userSpaceOnUse"><stop offset="0" stop-color="#2383c5" stop-opacity="0"/><stop offset="0.84" stop-color="#d45127"/></linearGradient><linearGradient id="linear-gradient-42" x1="369.77" y1="113.59" x2="385.38" y2="112.56" gradientUnits="userSpaceOnUse"><stop offset="0" stop-color="#d45127"/><stop offset="0.8" stop-color="#2383c5" stop-opacity="0"/></linearGradient><linearGradient id="New_Gradient_Swatch_copy_2-6" x1="378.45" y1="128.19" x2="380.79" y2="128.19" xlink:href="#New_Gradient_Swatch_copy_2"/><linearGradient id="New_Gradient_Swatch_copy_2-7" x1="303.2" y1="164.12" x2="454.35" y2="164.12" xlink:href="#New_Gradient_Swatch_copy_2"/><linearGradient id="linear-gradient-43" x1="303.2" y1="164.12" x2="454.35" y2="164.12" xlink:href="#linear-gradient-16"/><linearGradient id="linear-gradient-44" x1="431.69" y1="182.85" x2="439.94" y2="182.85" xlink:href="#linear-gradient-16"/><linearGradient id="linear-gradient-45" x1="431.69" y1="182.85" x2="439.94" y2="182.85" xlink:href="#linear-gradient-14"/><linearGradient id="linear-gradient-46" x1="419.1" y1="181.23" x2="427.34" y2="181.23" xlink:href="#linear-gradient-16"/><linearGradient id="linear-gradient-47" x1="419.1" y1="181.23" x2="427.34" y2="181.23" xlink:href="#linear-gradient-14"/><linearGradient id="linear-gradient-48" x1="405.85" y1="179.94" x2="414.1" y2="179.94" xlink:href="#linear-gradient-16"/><linearGradient id="linear-gradient-49" x1="405.85" y1="179.94" x2="414.1" y2="179.94" xlink:href="#linear-gradient-14"/><linearGradient id="linear-gradient-50" x1="351.68" y1="167.91" x2="355.55" y2="167.91" gradientTransform="translate(-0.96 -13.72) rotate(0.67)" xlink:href="#linear-gradient-16"/><linearGradient id="linear-gradient-51" x1="351.68" y1="167.91" x2="355.55" y2="167.91" gradientTransform="translate(-0.96 -13.72) rotate(0.67)" xlink:href="#linear-gradient-14"/><linearGradient id="linear-gradient-52" x1="357.83" y1="168.81" x2="361.7" y2="168.81" gradientTransform="translate(-0.96 -13.72) rotate(0.67)" xlink:href="#linear-gradient-16"/><linearGradient id="linear-gradient-53" x1="357.83" y1="168.81" x2="361.7" y2="168.81" gradientTransform="translate(-0.96 -13.72) rotate(0.67)" xlink:href="#linear-gradient-14"/><linearGradient id="New_Gradient_Swatch_copy_2-8" x1="346.47" y1="286.57" x2="397.85" y2="286.57" gradientTransform="translate(30.72 -108.65) rotate(3.01)" xlink:href="#New_Gradient_Swatch_copy_2"/><linearGradient id="linear-gradient-54" x1="324.84" y1="159.19" x2="349.38" y2="159.19" gradientUnits="userSpaceOnUse"><stop offset="0.22" stop-color="#d45127"/><stop offset="1" stop-color="#2383c5" stop-opacity="0"/></linearGradient><linearGradient id="linear-gradient-55" x1="324.84" y1="159.19" x2="349.38" y2="159.19" xlink:href="#linear-gradient-14"/><linearGradient id="linear-gradient-56" x1="107.64" y1="148.31" x2="322.35" y2="224.72" xlink:href="#linear-gradient"/><linearGradient id="linear-gradient-57" x1="110.23" y1="141.03" x2="324.94" y2="217.44" xlink:href="#linear-gradient"/><linearGradient id="linear-gradient-58" x1="112.15" y1="135.64" x2="326.86" y2="212.05" xlink:href="#linear-gradient"/><linearGradient id="linear-gradient-59" x1="114.74" y1="128.38" x2="329.44" y2="204.79" xlink:href="#linear-gradient"/><linearGradient id="linear-gradient-60" x1="112.48" y1="134.72" x2="327.19" y2="211.12" xlink:href="#linear-gradient"/><linearGradient id="linear-gradient-61" x1="96.29" y1="180.2" x2="311" y2="256.61" xlink:href="#linear-gradient"/><linearGradient id="linear-gradient-62" x1="98.11" y1="175.11" x2="312.81" y2="251.51" xlink:href="#linear-gradient"/><linearGradient id="linear-gradient-63" x1="100.03" y1="169.72" x2="314.73" y2="246.13" xlink:href="#linear-gradient"/><linearGradient id="linear-gradient-64" x1="103.3" y1="160.52" x2="318" y2="236.93" xlink:href="#linear-gradient"/><linearGradient id="linear-gradient-65" x1="103.56" y1="159.79" x2="318.26" y2="236.19" xlink:href="#linear-gradient"/><linearGradient id="linear-gradient-66" x1="106.97" y1="150.2" x2="321.68" y2="226.61" xlink:href="#linear-gradient"/><linearGradient id="linear-gradient-67" x1="108.62" y1="145.56" x2="323.33" y2="221.97" xlink:href="#linear-gradient"/><linearGradient id="linear-gradient-68" x1="109.87" y1="142.04" x2="324.58" y2="218.45" xlink:href="#linear-gradient"/><linearGradient id="linear-gradient-69" x1="112.53" y1="134.59" x2="327.23" y2="211" xlink:href="#linear-gradient"/><linearGradient id="linear-gradient-70" x1="113.69" y1="131.31" x2="328.4" y2="207.72" xlink:href="#linear-gradient"/><linearGradient id="linear-gradient-71" x1="115.61" y1="125.92" x2="330.32" y2="202.33" xlink:href="#linear-gradient"/><linearGradient id="linear-gradient-72" x1="118.16" y1="118.76" x2="332.86" y2="195.17" xlink:href="#linear-gradient"/><linearGradient id="linear-gradient-73" x1="107.64" y1="148.31" x2="322.35" y2="224.72" xlink:href="#linear-gradient-2"/><linearGradient id="linear-gradient-74" x1="110.23" y1="141.03" x2="324.94" y2="217.44" xlink:href="#linear-gradient-2"/><linearGradient id="linear-gradient-75" x1="112.15" y1="135.64" x2="326.86" y2="212.05" xlink:href="#linear-gradient-2"/><linearGradient id="linear-gradient-76" x1="114.74" y1="128.38" x2="329.44" y2="204.79" xlink:href="#linear-gradient-2"/><linearGradient id="linear-gradient-77" x1="112.48" y1="134.72" x2="327.19" y2="211.12" xlink:href="#linear-gradient-2"/><linearGradient id="linear-gradient-78" x1="96.29" y1="180.2" x2="311" y2="256.61" xlink:href="#linear-gradient-2"/><linearGradient id="linear-gradient-79" x1="98.11" y1="175.11" x2="312.81" y2="251.51" xlink:href="#linear-gradient-2"/><linearGradient id="linear-gradient-80" x1="100.03" y1="169.72" x2="314.73" y2="246.13" xlink:href="#linear-gradient-2"/><linearGradient id="linear-gradient-81" x1="103.3" y1="160.52" x2="318" y2="236.93" xlink:href="#linear-gradient-2"/><linearGradient id="linear-gradient-82" x1="103.56" y1="159.79" x2="318.26" y2="236.19" xlink:href="#linear-gradient-2"/><linearGradient id="linear-gradient-83" x1="106.97" y1="150.2" x2="321.68" y2="226.61" xlink:href="#linear-gradient-2"/><linearGradient id="linear-gradient-84" x1="108.62" y1="145.56" x2="323.33" y2="221.97" xlink:href="#linear-gradient-2"/><linearGradient id="linear-gradient-85" x1="109.87" y1="142.04" x2="324.58" y2="218.45" xlink:href="#linear-gradient-2"/><linearGradient id="linear-gradient-86" x1="112.53" y1="134.59" x2="327.23" y2="211" xlink:href="#linear-gradient-2"/><linearGradient id="linear-gradient-87" x1="113.69" y1="131.31" x2="328.4" y2="207.72" xlink:href="#linear-gradient-2"/><linearGradient id="linear-gradient-88" x1="115.61" y1="125.92" x2="330.32" y2="202.33" xlink:href="#linear-gradient-2"/><linearGradient id="linear-gradient-89" x1="118.16" y1="118.76" x2="332.86" y2="195.17" xlink:href="#linear-gradient-2"/></defs><g class="cls-1"><g id="Layer_2" data-name="Layer 2"><g id="Layer_1-2" data-name="Layer 1"><path class="cls-2" d="M496,29.8H14.9a14.55,14.55,0,0,1-3.18-.35V220.22a15.21,15.21,0,0,1,3.19-.35H496a14.79,14.79,0,0,1,9,3V26.78A14.82,14.82,0,0,1,496,29.8Z"/><path class="cls-3" d="M496,29.8H14.9a14.55,14.55,0,0,1-3.18-.35V220.22a15.21,15.21,0,0,1,3.19-.35H496a14.79,14.79,0,0,1,9,3V26.78A14.82,14.82,0,0,1,496,29.8Z"/><path class="cls-3" d="M496,29.8H14.9a14.55,14.55,0,0,1-3.18-.35V220.22a15.21,15.21,0,0,1,3.19-.35H496a14.79,14.79,0,0,1,9,3V26.78A14.82,14.82,0,0,1,496,29.8Z"/><rect class="cls-4" width="510.87" height="29.8" rx="14.9" transform="translate(510.87 29.8) rotate(-180)"/><rect class="cls-5" width="510.87" height="29.8" rx="14.9" transform="translate(510.87 29.8) rotate(180)"/><rect class="cls-6" x="0.01" y="219.87" width="510.87" height="29.8" rx="14.9" transform="translate(510.88 469.55) rotate(-180)"/><rect class="cls-7" x="0.01" y="219.87" width="510.87" height="29.8" rx="14.9" transform="translate(510.88 469.55) rotate(-180)"/><path class="cls-8" d="M81.57,124.1c0,16.61.34,33.23-.1,49.82s-15,26.36-30.46,20.77C40.8,191,37.1,181.81,36.91,172.37c-.63-31.65-.78-63.33,0-95,.42-17.77,12.75-28.06,27.38-25C74.6,54.5,81.39,62.81,81.52,74.27,81.72,90.88,81.57,107.49,81.57,124.1Z"/><path class="cls-9" d="M81.57,124.1c0,16.61.34,33.23-.1,49.82s-15,26.36-30.46,20.77C40.8,191,37.1,181.81,36.91,172.37c-.63-31.65-.78-63.33,0-95,.42-17.77,12.75-28.06,27.38-25C74.6,54.5,81.39,62.81,81.52,74.27,81.72,90.88,81.57,107.49,81.57,124.1Z"/><path class="cls-10" d="M107.86,20.54c-25.69,0-51.38,0-77.07,0-4.79,0-11,1.1-11-6.27S25.88,6.76,31.1,6.79c41.77.24,83.54-.81,125.3.5,8.54.27,17.1-.38,25.65-.57a58.83,58.83,0,0,1,6.23.11c4.67.39,8.27,2.57,8.12,7.58s-4.09,6.08-8.37,6.08l-56,.05Z"/><path class="cls-11" d="M107.3,240.49c-25.43,0-50.86,0-76.29,0-4.79,0-11,1.08-11.26-6.13s5.43-7.84,11-7.84q76.68,0,153.35,0a26.55,26.55,0,0,1,3.89.21c4.38.66,8.54,2.21,8.45,7.38-.1,5.47-4.47,6.34-8.94,6.35q-40.08,0-80.18,0Z"/><path class="cls-12" d="M107.86,20.54c-25.69,0-51.38,0-77.07,0-4.79,0-11,1.1-11-6.27S25.88,6.76,31.1,6.79c41.77.24,83.54-.81,125.3.5,8.54.27,17.1-.38,25.65-.57a58.83,58.83,0,0,1,6.23.11c4.67.39,8.27,2.57,8.12,7.58s-4.09,6.08-8.37,6.08l-56,.05Z"/><path class="cls-13" d="M107.3,240.49c-25.43,0-50.86,0-76.29,0-4.79,0-11,1.08-11.26-6.13s5.43-7.84,11-7.84q76.68,0,153.35,0a26.55,26.55,0,0,1,3.89.21c4.38.66,8.54,2.21,8.45,7.38-.1,5.47-4.47,6.34-8.94,6.35q-40.08,0-80.18,0Z"/><path class="cls-14" d="M421.2,197.88,401.06,199"/><path class="cls-15" d="M454.35,172.76a200.13,200.13,0,0,1-21.31,1c-2.81,0-5.55-.11-8.2-.24h0l0,1.25h0l.07,2.75h0a4.13,4.13,0,0,1,.17,7.43l.3,13,21.2-1.22-4.2-12.28ZM435.58,186.9a4.12,4.12,0,1,1,4.3-3.93A4.12,4.12,0,0,1,435.58,186.9Z"/><path class="cls-16" d="M425.29,197.71l-.24-12.77a4.12,4.12,0,1,1-.14-7.45c0-.92,0-1.83-.05-2.75h0c0-.42,0-.83,0-1.25,0-.11,0-.22,0-.32l-17.95-1.71c.1-1.39.21-2.8.32-4.19l-5.82-1.54q.45,15.45.91,30.91v.22l.06,2.11v0Zm-15.08-21.83a4.12,4.12,0,1,1-4.3,3.93A4.12,4.12,0,0,1,410.21,175.88Z"/><path class="cls-17" d="M377,197.22v0c0-.22-.05-.44-.08-.66v0q-2.25-19.26-4.51-38.53l0-.41-27.12-4.15h0l-.33-.05,6.78,29.39a46.8,46.8,0,0,0,2.91,6.78,46.14,46.14,0,0,0,7.11,10l15.5-.56Zm-24.31-38.73a1.94,1.94,0,1,1-1.7-2.15A1.93,1.93,0,0,1,352.64,158.49Zm24.23,38c0,.22.05.44.08.66l-15.32.21v-.93Zm-18.18-37a1.93,1.93,0,1,1-3.84-.46,1.93,1.93,0,1,1,3.84.46Z"/><path d="M425.1,184.92l-.05,0-.14-7.45h0Z"/><path class="cls-18" d="M425.1,184.92l-.05,0-.14-7.45h0Z"/><path class="cls-19" d="M380.79,129.74q-.29-36.08-.56-72.13l-1.76,72.05"/><polyline class="cls-19" points="415.41 135.45 415.11 81.19 413.66 135.45"/><path class="cls-19" d="M432.23,104.12a31,31,0,0,0-.32,12.6,31.61,31.61,0,0,0,8.39,16.15l-50.7,2.58A41,41,0,0,1,394.76,109Z"/><path class="cls-20" d="M432.23,104.12a31,31,0,0,0-.32,12.6,31.61,31.61,0,0,0,8.39,16.15l-50.7,2.58A41,41,0,0,1,394.76,109Z"/><path class="cls-19" d="M425.77,83.45a41,41,0,0,0,5.17,18.73,73,73,0,0,0-18.74.33,72.06,72.06,0,0,0-15.82,4.2q3.56-7.75,7.1-15.51Z"/><path class="cls-20" d="M425.77,83.45a41,41,0,0,0,5.17,18.73,73,73,0,0,0-18.74.33,72.06,72.06,0,0,0-15.82,4.2q3.56-7.75,7.1-15.51Z"/><path class="cls-19" d="M361.33,102.51a132.19,132.19,0,0,0-3.87,21c-.38,3.74-.58,7.3-.65,10.66a65.87,65.87,0,0,1,42-7.75V96.05Zm24.13,14.25a1.89,1.89,0,0,1-1.67,1.17,1.51,1.51,0,0,1-.47,1.82,1.46,1.46,0,0,1-1.42-.25,2.72,2.72,0,0,1-.83-2.79l-3.35-2.46-2.83,2.63a1.73,1.73,0,0,1-2.31,2.53,1.88,1.88,0,0,1-.86-1.85,1.52,1.52,0,0,1-1.71-.78c-.21-.63.38-1.24.5-1.36a2.72,2.72,0,0,1,2.88-.32l2.38-2.27c-.95-.71-1.92-1.41-2.88-2.12a1.69,1.69,0,0,1-1.95.24,1.42,1.42,0,0,1-.68-1.14,1.45,1.45,0,0,1,1-1.3,1.32,1.32,0,0,1-.15-1.64c.51-.62,1.55-.18,1.64-.15a2.24,2.24,0,0,1,1.17,1.68l3.65,2.75,3.2-3.05a1.67,1.67,0,0,1,.11-2,1.33,1.33,0,0,1,2.35.71,1.31,1.31,0,0,1,1.64.15c.52.6-.09,1.56-.14,1.64a2.23,2.23,0,0,1-1.86.85l-3.35,3.12,3.07,2.32a1.77,1.77,0,0,1,2.26-.34A1.8,1.8,0,0,1,385.46,116.76Z"/><path class="cls-20" d="M361.33,102.51a132.19,132.19,0,0,0-3.87,21c-.38,3.74-.58,7.3-.65,10.66a65.87,65.87,0,0,1,42-7.75V96.05Zm24.13,14.25a1.89,1.89,0,0,1-1.67,1.17,1.51,1.51,0,0,1-.47,1.82,1.46,1.46,0,0,1-1.42-.25,2.72,2.72,0,0,1-.83-2.79l-3.35-2.46-2.83,2.63a1.73,1.73,0,0,1-2.31,2.53,1.88,1.88,0,0,1-.86-1.85,1.52,1.52,0,0,1-1.71-.78c-.21-.63.38-1.24.5-1.36a2.72,2.72,0,0,1,2.88-.32l2.38-2.27c-.95-.71-1.92-1.41-2.88-2.12a1.69,1.69,0,0,1-1.95.24,1.42,1.42,0,0,1-.68-1.14,1.45,1.45,0,0,1,1-1.3,1.32,1.32,0,0,1-.15-1.64c.51-.62,1.55-.18,1.64-.15a2.24,2.24,0,0,1,1.17,1.68l3.65,2.75,3.2-3.05a1.67,1.67,0,0,1,.11-2,1.33,1.33,0,0,1,2.35.71,1.31,1.31,0,0,1,1.64.15c.52.6-.09,1.56-.14,1.64a2.23,2.23,0,0,1-1.86.85l-3.35,3.12,3.07,2.32a1.77,1.77,0,0,1,2.26-.34A1.8,1.8,0,0,1,385.46,116.76Z"/><path class="cls-19" d="M390.89,78.93A30.82,30.82,0,0,0,397,92.49a114.43,114.43,0,0,0-23.9,2.91c-3.7.86-7.15,1.85-10.33,2.91Q366,92.18,369.25,86Z"/><path class="cls-20" d="M390.89,78.93A30.82,30.82,0,0,0,397,92.49a114.43,114.43,0,0,0-23.9,2.91c-3.7.86-7.15,1.85-10.33,2.91Q366,92.18,369.25,86Z"/><path class="cls-19" d="M380.07,59.87a76.56,76.56,0,0,1-11.63,3.88A28.45,28.45,0,0,0,361.33,66c-2.43,1.23-3.19,2.18-5.49,3.23a18.32,18.32,0,0,1-6.78,1.61,17.59,17.59,0,0,0,9.37,2.26c3.08-.18,4.93-1.24,7.75-2.26a40.16,40.16,0,0,1,13.89-2.26Z"/><path class="cls-20" d="M380.39,59.79a78.06,78.06,0,0,1-11.95,4A27.71,27.71,0,0,0,361.33,66c-2.43,1.23-3.19,2.18-5.49,3.23a18.32,18.32,0,0,1-6.78,1.61,17.59,17.59,0,0,0,9.37,2.26c3.08-.18,4.93-1.24,7.75-2.26a40.16,40.16,0,0,1,13.89-2.26C380.17,65.66,380.28,62.72,380.39,59.79Z"/><path class="cls-19" d="M378.47,129.66l-.78,31.76,3.35.68q-.14-16.18-.25-32.36"/><path class="cls-19" d="M433.79,137.39a25.65,25.65,0,0,0-4.58,12.88,26.27,26.27,0,0,0,5.44,17.46,238.17,238.17,0,0,0-48.08-6.58,21.14,21.14,0,0,1,0-23.19Z"/><path class="cls-20" d="M433.79,137.39a25.65,25.65,0,0,0-4.58,12.88,26.27,26.27,0,0,0,5.44,17.46,238.17,238.17,0,0,0-48.08-6.58,21.14,21.14,0,0,1,0-23.19Z"/><path class="cls-19" d="M356,138.36l44.9-9.69a88.33,88.33,0,0,0,1.94,26.16,92,92,0,0,0-47.16,0Q355.85,146.6,356,138.36Z"/><path class="cls-20" d="M356,138.36l44.9-9.69a88.33,88.33,0,0,0,1.94,26.16,92,92,0,0,0-47.16,0Q355.85,146.6,356,138.36Z"/><path class="cls-19" d="M413.66,135.45l-1,36.74,2.91.32q-.11-18.52-.19-37.06"/><path class="cls-21" d="M402,199H377.16l-.21-1.78v0c0-.22-.05-.44-.08-.66v0q-2.28-19.28-4.55-38.54h0l29,7.74.6,30.9v0l-13.51-.07h-1l-10.62,0c0,.22.05.44.08.66l11.5-.15.9,0h.55l12.09-.19v0C402,197.57,402,198.28,402,199Z"/><path class="cls-22" d="M378.47,129.66l-.66,29.93,3.23.65q-.14-15.26-.25-30.5"/><path class="cls-23" d="M433.79,137.39a25.65,25.65,0,0,0-4.58,12.88,26.27,26.27,0,0,0,5.44,17.46,238.17,238.17,0,0,0-48.08-6.58,21.14,21.14,0,0,1,0-23.19Z"/><path class="cls-24" d="M433.79,137.39a25.65,25.65,0,0,0-4.58,12.88,26.27,26.27,0,0,0,5.44,17.46,238.17,238.17,0,0,0-48.08-6.58,21.14,21.14,0,0,1,0-23.19Z"/><g class="cls-25"><path class="cls-26" d="M433.79,137.39a25.65,25.65,0,0,0-4.58,12.88,26.27,26.27,0,0,0,5.44,17.46,238.17,238.17,0,0,0-48.08-6.58,21.14,21.14,0,0,1,0-23.19Z"/><path class="cls-27" d="M433.79,137.39a25.65,25.65,0,0,0-4.58,12.88,26.27,26.27,0,0,0,5.44,17.46,238.17,238.17,0,0,0-48.08-6.58,21.14,21.14,0,0,1,0-23.19Z"/></g><path class="cls-28" d="M356,138.36l44.9-9.69a88.33,88.33,0,0,0,1.94,26.16,92,92,0,0,0-47.16,0Q355.85,146.6,356,138.36Z"/><path class="cls-29" d="M356,138.36l44.9-9.69a88.33,88.33,0,0,0,1.94,26.16,92,92,0,0,0-47.16,0Q355.85,146.6,356,138.36Z"/><g class="cls-25"><path class="cls-30" d="M356,138.36l44.9-9.69a88.33,88.33,0,0,0,1.94,26.16,92,92,0,0,0-47.16,0Q355.85,146.6,356,138.36Z"/><path class="cls-31" d="M356,138.36l44.9-9.69a88.33,88.33,0,0,0,1.94,26.16,92,92,0,0,0-47.16,0Q355.85,146.6,356,138.36Z"/></g><path class="cls-32" d="M413.66,135.45l-1,36.74,2.91.32q-.11-18.52-.19-37.06"/><path class="cls-33" d="M380.39,99.2q-.08-20.81-.16-41.59l-1,41.81Z"/><path class="cls-34" d="M380.39,99.2q-.08-20.81-.16-41.59l-1,41.81Z"/><polyline class="cls-35" points="415.41 135.77 415.11 81.51 413.66 135.77"/><polyline class="cls-35" points="415.41 135.77 415.11 81.51 413.66 135.77"/><path class="cls-36" d="M432.23,104.44a31,31,0,0,0-.32,12.6,31.61,31.61,0,0,0,8.39,16.15l-50.7,2.58a41,41,0,0,1,5.16-26.48Z"/><path class="cls-37" d="M432.23,104.44a31,31,0,0,0-.32,12.6,31.61,31.61,0,0,0,8.39,16.15l-50.7,2.58a41,41,0,0,1,5.16-26.48Z"/><g class="cls-25"><path class="cls-38" d="M432.23,104.44a31,31,0,0,0-.32,12.6,31.61,31.61,0,0,0,8.39,16.15l-50.7,2.58a41,41,0,0,1,5.16-26.48Z"/><path class="cls-39" d="M432.23,104.44a31,31,0,0,0-.32,12.6,31.61,31.61,0,0,0,8.39,16.15l-50.7,2.58a41,41,0,0,1,5.16-26.48Z"/></g><path class="cls-40" d="M425.77,83.77a41,41,0,0,0,5.17,18.74A72.6,72.6,0,0,0,396.38,107q3.56-7.75,7.1-15.51Z"/><path class="cls-41" d="M425.77,83.77a41,41,0,0,0,5.17,18.74A72.6,72.6,0,0,0,396.38,107q3.56-7.75,7.1-15.51Z"/><g class="cls-25"><path class="cls-42" d="M425.77,83.77a41,41,0,0,0,5.17,18.74A72.6,72.6,0,0,0,396.38,107q3.56-7.75,7.1-15.51Z"/><path class="cls-43" d="M425.77,83.77a41,41,0,0,0,5.17,18.74A72.6,72.6,0,0,0,396.38,107q3.56-7.75,7.1-15.51Z"/></g><path class="cls-44" d="M361.33,102.51a132.19,132.19,0,0,0-3.87,21c-.38,3.74-.58,7.3-.65,10.66a65.87,65.87,0,0,1,42-7.75V96.05Zm24.13,14.25a1.89,1.89,0,0,1-1.67,1.17,1.51,1.51,0,0,1-.47,1.82,1.46,1.46,0,0,1-1.42-.25,2.72,2.72,0,0,1-.83-2.79l-3.35-2.46-2.83,2.63a1.73,1.73,0,0,1-2.31,2.53,1.88,1.88,0,0,1-.86-1.85,1.52,1.52,0,0,1-1.71-.78c-.21-.63.38-1.24.5-1.36a2.72,2.72,0,0,1,2.88-.32l2.38-2.27c-.95-.71-1.92-1.41-2.88-2.12a1.69,1.69,0,0,1-1.95.24,1.42,1.42,0,0,1-.68-1.14,1.45,1.45,0,0,1,1-1.3,1.32,1.32,0,0,1-.15-1.64c.51-.62,1.55-.18,1.64-.15a2.24,2.24,0,0,1,1.17,1.68l3.65,2.75,3.2-3.05a1.67,1.67,0,0,1,.11-2,1.33,1.33,0,0,1,2.35.71,1.31,1.31,0,0,1,1.64.15c.52.6-.09,1.56-.14,1.64a2.23,2.23,0,0,1-1.86.85l-3.35,3.12,3.07,2.32a1.77,1.77,0,0,1,2.26-.34A1.8,1.8,0,0,1,385.46,116.76Z"/><path class="cls-45" d="M361.33,102.51a132.19,132.19,0,0,0-3.87,21c-.38,3.74-.58,7.3-.65,10.66a65.87,65.87,0,0,1,42-7.75V96.05Zm24.13,14.25a1.89,1.89,0,0,1-1.67,1.17,1.51,1.51,0,0,1-.47,1.82,1.46,1.46,0,0,1-1.42-.25,2.72,2.72,0,0,1-.83-2.79l-3.35-2.46-2.83,2.63a1.73,1.73,0,0,1-2.31,2.53,1.88,1.88,0,0,1-.86-1.85,1.52,1.52,0,0,1-1.71-.78c-.21-.63.38-1.24.5-1.36a2.72,2.72,0,0,1,2.88-.32l2.38-2.27c-.95-.71-1.92-1.41-2.88-2.12a1.69,1.69,0,0,1-1.95.24,1.42,1.42,0,0,1-.68-1.14,1.45,1.45,0,0,1,1-1.3,1.32,1.32,0,0,1-.15-1.64c.51-.62,1.55-.18,1.64-.15a2.24,2.24,0,0,1,1.17,1.68l3.65,2.75,3.2-3.05a1.67,1.67,0,0,1,.11-2,1.33,1.33,0,0,1,2.35.71,1.31,1.31,0,0,1,1.64.15c.52.6-.09,1.56-.14,1.64a2.23,2.23,0,0,1-1.86.85l-3.35,3.12,3.07,2.32a1.77,1.77,0,0,1,2.26-.34A1.8,1.8,0,0,1,385.46,116.76Z"/><g class="cls-25"><path class="cls-46" d="M361.33,102.51a132.19,132.19,0,0,0-3.87,21c-.38,3.74-.58,7.3-.65,10.66a65.87,65.87,0,0,1,42-7.75V96.05Zm24.13,14.25a1.89,1.89,0,0,1-1.67,1.17,1.51,1.51,0,0,1-.47,1.82,1.46,1.46,0,0,1-1.42-.25,2.72,2.72,0,0,1-.83-2.79l-3.35-2.46-2.83,2.63a1.73,1.73,0,0,1-2.31,2.53,1.88,1.88,0,0,1-.86-1.85,1.52,1.52,0,0,1-1.71-.78c-.21-.63.38-1.24.5-1.36a2.72,2.72,0,0,1,2.88-.32l2.38-2.27c-.95-.71-1.92-1.41-2.88-2.12a1.69,1.69,0,0,1-1.95.24,1.42,1.42,0,0,1-.68-1.14,1.45,1.45,0,0,1,1-1.3,1.32,1.32,0,0,1-.15-1.64c.51-.62,1.55-.18,1.64-.15a2.24,2.24,0,0,1,1.17,1.68l3.65,2.75,3.2-3.05a1.67,1.67,0,0,1,.11-2,1.33,1.33,0,0,1,2.35.71,1.31,1.31,0,0,1,1.64.15c.52.6-.09,1.56-.14,1.64a2.23,2.23,0,0,1-1.86.85l-3.35,3.12,3.07,2.32a1.77,1.77,0,0,1,2.26-.34A1.8,1.8,0,0,1,385.46,116.76Z"/><path class="cls-47" d="M361.33,102.51a132.19,132.19,0,0,0-3.87,21c-.38,3.74-.58,7.3-.65,10.66a65.87,65.87,0,0,1,42-7.75V96.05Zm24.13,14.25a1.89,1.89,0,0,1-1.67,1.17,1.51,1.51,0,0,1-.47,1.82,1.46,1.46,0,0,1-1.42-.25,2.72,2.72,0,0,1-.83-2.79l-3.35-2.46-2.83,2.63a1.73,1.73,0,0,1-2.31,2.53,1.88,1.88,0,0,1-.86-1.85,1.52,1.52,0,0,1-1.71-.78c-.21-.63.38-1.24.5-1.36a2.72,2.72,0,0,1,2.88-.32l2.38-2.27c-.95-.71-1.92-1.41-2.88-2.12a1.69,1.69,0,0,1-1.95.24,1.42,1.42,0,0,1-.68-1.14,1.45,1.45,0,0,1,1-1.3,1.32,1.32,0,0,1-.15-1.64c.51-.62,1.55-.18,1.64-.15a2.24,2.24,0,0,1,1.17,1.68l3.65,2.75,3.2-3.05a1.67,1.67,0,0,1,.11-2,1.33,1.33,0,0,1,2.35.71,1.31,1.31,0,0,1,1.64.15c.52.6-.09,1.56-.14,1.64a2.23,2.23,0,0,1-1.86.85l-3.35,3.12,3.07,2.32a1.77,1.77,0,0,1,2.26-.34A1.8,1.8,0,0,1,385.46,116.76Z"/></g><path class="cls-48" d="M390.89,78.93A30.82,30.82,0,0,0,397,92.49a114.43,114.43,0,0,0-23.9,2.91c-3.7.86-7.15,1.85-10.33,2.91Q366,92.18,369.25,86Z"/><path class="cls-49" d="M390.89,78.93A30.82,30.82,0,0,0,397,92.49a114.43,114.43,0,0,0-23.9,2.91c-3.7.86-7.15,1.85-10.33,2.91Q366,92.18,369.25,86Z"/><g class="cls-25"><path class="cls-50" d="M390.89,78.93A30.82,30.82,0,0,0,397,92.49a114.43,114.43,0,0,0-23.9,2.91c-3.7.86-7.15,1.85-10.33,2.91Q366,92.18,369.25,86Z"/><path class="cls-51" d="M390.89,78.93A30.82,30.82,0,0,0,397,92.49a114.43,114.43,0,0,0-23.9,2.91c-3.7.86-7.15,1.85-10.33,2.91Q366,92.18,369.25,86Z"/></g><path class="cls-52" d="M380.07,59.87a76.56,76.56,0,0,1-11.63,3.88A28.45,28.45,0,0,0,361.33,66c-2.43,1.23-3.19,2.18-5.49,3.23a18.32,18.32,0,0,1-6.78,1.61,17.59,17.59,0,0,0,9.37,2.26c3.08-.18,4.93-1.24,7.75-2.26a40.16,40.16,0,0,1,13.89-2.26Z"/><path class="cls-53" d="M380.39,59.79a78.06,78.06,0,0,1-11.95,4A27.71,27.71,0,0,0,361.33,66c-2.43,1.23-3.19,2.18-5.49,3.23a18.32,18.32,0,0,1-6.78,1.61,17.59,17.59,0,0,0,9.37,2.26c3.08-.18,4.93-1.24,7.75-2.26a40.16,40.16,0,0,1,13.89-2.26C380.17,65.66,380.28,62.72,380.39,59.79Z"/><path class="cls-54" d="M384.82,114.59a1.78,1.78,0,0,0-2.26.33l-3.07-2.31,3.35-3.12a2.23,2.23,0,0,0,1.86-.85c.05-.08.66-1,.14-1.64a1.3,1.3,0,0,0-1.64-.15,1.42,1.42,0,0,0-1.11-1.17,1.45,1.45,0,0,0-1.25.46,1.69,1.69,0,0,0-.1,2l-3.2,3.05-3.65-2.75a2.21,2.21,0,0,0-1.17-1.68c-.09,0-1.13-.47-1.64.15a1.32,1.32,0,0,0,.15,1.64,1.34,1.34,0,0,0-.29,2.44,1.68,1.68,0,0,0,1.95-.24l2.89,2.12-2.39,2.27a2.72,2.72,0,0,0-2.88.32c-.12.12-.71.73-.5,1.35a1.52,1.52,0,0,0,1.71.79,1.88,1.88,0,0,0,.86,1.85,1.73,1.73,0,0,0,2.31-2.53l2.83-2.63,3.35,2.46a2.73,2.73,0,0,0,.82,2.79,1.48,1.48,0,0,0,1.43.25,1.51,1.51,0,0,0,.47-1.82,1.89,1.89,0,0,0,1.67-1.17A1.8,1.8,0,0,0,384.82,114.59Z"/><path class="cls-55" d="M384.82,114.59a1.78,1.78,0,0,0-2.26.33l-3.07-2.31,3.35-3.12a2.23,2.23,0,0,0,1.86-.85c.05-.08.66-1,.14-1.64a1.3,1.3,0,0,0-1.64-.15,1.42,1.42,0,0,0-1.11-1.17,1.45,1.45,0,0,0-1.25.46,1.69,1.69,0,0,0-.1,2l-3.2,3.05-3.65-2.75a2.21,2.21,0,0,0-1.17-1.68c-.09,0-1.13-.47-1.64.15a1.32,1.32,0,0,0,.15,1.64,1.34,1.34,0,0,0-.29,2.44,1.68,1.68,0,0,0,1.95-.24l2.89,2.12-2.39,2.27a2.72,2.72,0,0,0-2.88.32c-.12.12-.71.73-.5,1.35a1.52,1.52,0,0,0,1.71.79,1.88,1.88,0,0,0,.86,1.85,1.73,1.73,0,0,0,2.31-2.53l2.83-2.63,3.35,2.46a2.73,2.73,0,0,0,.82,2.79,1.48,1.48,0,0,0,1.43.25,1.51,1.51,0,0,0,.47-1.82,1.89,1.89,0,0,0,1.67-1.17A1.8,1.8,0,0,0,384.82,114.59Z"/><path class="cls-56" d="M378.47,130l2.32.08-.08-3.73-2.26.32Z"/><path class="cls-57" d="M454.35,172.84a181.27,181.27,0,0,1-22,1c-2.59-.05-5.12-.15-7.57-.29l.14-.36-18.08-1.61c.1-1.4.21-2.81.32-4.2L372.32,158v-.32l-27.14-4.2-42-24.87,18.41,15.82a46.66,46.66,0,0,0,5.16,17.12,45.26,45.26,0,0,0,10,12.84,43.23,43.23,0,0,0,14.85,8.48,52,52,0,0,0,10,16.8c4.17-.23,10.82-.54,19-.65,10.87-.15,12.46.22,21.64,0,7.86-.18,10.11-.53,23.9-1.29,8.69-.48,15.77-.79,20.35-1l-4.2-12.28Zm-111.43-9.13a26.39,26.39,0,0,1-1-7.1,48,48,0,0,1-17.11-13.25,69.62,69.62,0,0,0,13.56,9.69q2.31,1.27,4.52,2.26A38.26,38.26,0,0,0,349.38,175,27.18,27.18,0,0,1,342.92,163.71Zm7.73-3.47a1.94,1.94,0,1,1,2-1.91A1.93,1.93,0,0,1,350.65,160.24Zm6.14,1a1.94,1.94,0,1,1,2-1.92A1.94,1.94,0,0,1,356.79,161.21Zm4.84,36.2v-1l40.35.22v.2ZM410,184.06a4.12,4.12,0,1,1,4.12-4.12A4.12,4.12,0,0,1,410,184.06Zm13.24,1.29a4.12,4.12,0,1,1,4.12-4.12A4.11,4.11,0,0,1,423.22,185.35ZM435.81,187a4.12,4.12,0,1,1,4.13-4.12A4.13,4.13,0,0,1,435.81,187Z"/><path class="cls-58" d="M454.35,172.84a181.27,181.27,0,0,1-22,1c-2.59-.05-5.12-.15-7.57-.29l.14-.36-18.08-1.61c.1-1.4.21-2.81.32-4.2L372.32,158v-.32l-27.14-4.2-42-24.87,18.41,15.82a46.66,46.66,0,0,0,5.16,17.12,45.26,45.26,0,0,0,10,12.84,43.23,43.23,0,0,0,14.85,8.48,52,52,0,0,0,10,16.8c4.17-.23,10.82-.54,19-.65,10.87-.15,12.46.22,21.64,0,7.86-.18,10.11-.53,23.9-1.29,8.69-.48,15.77-.79,20.35-1l-4.2-12.28Zm-111.43-9.13a26.39,26.39,0,0,1-1-7.1,48,48,0,0,1-17.11-13.25,69.62,69.62,0,0,0,13.56,9.69q2.31,1.27,4.52,2.26A38.26,38.26,0,0,0,349.38,175,27.18,27.18,0,0,1,342.92,163.71Zm7.73-3.47a1.94,1.94,0,1,1,2-1.91A1.93,1.93,0,0,1,350.65,160.24Zm6.14,1a1.94,1.94,0,1,1,2-1.92A1.94,1.94,0,0,1,356.79,161.21Zm4.84,36.2v-1l40.35.22v.2ZM410,184.06a4.12,4.12,0,1,1,4.12-4.12A4.12,4.12,0,0,1,410,184.06Zm13.24,1.29a4.12,4.12,0,1,1,4.12-4.12A4.11,4.11,0,0,1,423.22,185.35ZM435.81,187a4.12,4.12,0,1,1,4.13-4.12A4.13,4.13,0,0,1,435.81,187Z"/><circle class="cls-59" cx="435.81" cy="182.85" r="4.12"/><circle class="cls-60" cx="435.81" cy="182.85" r="4.12"/><circle class="cls-61" cx="423.22" cy="181.23" r="4.12"/><circle class="cls-62" cx="423.22" cy="181.23" r="4.12"/><circle class="cls-63" cx="409.98" cy="179.94" r="4.12"/><circle class="cls-64" cx="409.98" cy="179.94" r="4.12"/><circle class="cls-65" cx="350.67" cy="158.3" r="1.94"/><circle class="cls-66" cx="350.67" cy="158.3" r="1.94"/><circle class="cls-67" cx="356.81" cy="159.27" r="1.94"/><circle class="cls-68" cx="356.81" cy="159.27" r="1.94"/><polygon class="cls-69" points="361.63 196.44 413.06 196.72 361.63 197.41 361.63 196.44"/><polyline class="cls-70" points="401.99 196.87 361.63 197.41 361.63 196.44 401.99 196.66"/><path class="cls-71" d="M324.84,143.36a69.93,69.93,0,0,0,13.56,9.69q2.31,1.27,4.52,2.26A38.26,38.26,0,0,0,349.38,175a27.11,27.11,0,0,1-6.46-11.31,26.39,26.39,0,0,1-1-7.1,48,48,0,0,1-17.11-13.25Z"/><path class="cls-72" d="M324.84,143.36a69.93,69.93,0,0,0,13.56,9.69q2.31,1.27,4.52,2.26A38.26,38.26,0,0,0,349.38,175a27.11,27.11,0,0,1-6.46-11.31,26.39,26.39,0,0,1-1-7.1,48,48,0,0,1-17.11-13.25Z"/><g class="cls-73"><path class="cls-74" d="M132.24,162.64h-3.46v-9.53a1.39,1.39,0,0,0-.36-1,1.46,1.46,0,0,0-1.06-.35h-4.49v10.91h-3.46V150a1.63,1.63,0,0,1,.13-.67,1.75,1.75,0,0,1,.38-.55,1.59,1.59,0,0,1,.55-.36,1.76,1.76,0,0,1,.68-.14h6.24a5.23,5.23,0,0,1,1.54.26,4.8,4.8,0,0,1,1.57.81v-1.07h4.68a4.89,4.89,0,0,1,1,.12,5,5,0,0,1,1.08.35,4.78,4.78,0,0,1,1,.62,3.73,3.73,0,0,1,.86.91,4.67,4.67,0,0,1,.6,1.25,5.21,5.21,0,0,1,.23,1.59v9.53h-3.46v-9.53a1.42,1.42,0,0,0-.34-1,1.39,1.39,0,0,0-1-.35h-3.11a5.49,5.49,0,0,1,.17,1.38Z"/><path class="cls-75" d="M158.66,153a5.61,5.61,0,0,1-.25,1.55,4.68,4.68,0,0,1-.82,1.54,4.52,4.52,0,0,1-1.48,1.19,4.66,4.66,0,0,1-2.21.48h-6.24v-3.28h6.24a1.41,1.41,0,0,0,1.09-.43,1.54,1.54,0,0,0,.38-1.07,1.35,1.35,0,0,0-.43-1.07,1.53,1.53,0,0,0-1-.38h-6.24a1.38,1.38,0,0,0-1.09.43,1.57,1.57,0,0,0-.38,1.07v4.83a1.34,1.34,0,0,0,.43,1.07,1.53,1.53,0,0,0,1.07.39h6.21v3.29h-6.24a5.31,5.31,0,0,1-1.55-.25,4.69,4.69,0,0,1-1.54-.82,4.5,4.5,0,0,1-1.19-1.47,4.71,4.71,0,0,1-.48-2.21V153a5.35,5.35,0,0,1,.26-1.55,4.51,4.51,0,0,1,4.5-3.21h6.24a5.35,5.35,0,0,1,1.55.26,4.56,4.56,0,0,1,1.54.81,4.53,4.53,0,0,1,1.67,3.69Z"/><path class="cls-76" d="M175.72,157.89a5.28,5.28,0,0,1-.26,1.54,4.46,4.46,0,0,1-2.29,2.74,4.69,4.69,0,0,1-2.21.47h-6.24a5.31,5.31,0,0,1-1.55-.25,4.59,4.59,0,0,1-1.54-.82,4.5,4.5,0,0,1-1.19-1.47,4.71,4.71,0,0,1-.48-2.21,5.74,5.74,0,0,1,.25-1.56,4.54,4.54,0,0,1,.82-1.55,4.53,4.53,0,0,1,3.69-1.67H171v3.3h-6.24a1.38,1.38,0,0,0-1.09.43,1.54,1.54,0,0,0-.38,1.07,1.31,1.31,0,0,0,.44,1.06,1.6,1.6,0,0,0,1.06.38H171a1.38,1.38,0,0,0,1.09-.43,1.55,1.55,0,0,0,.38-1.06V153A1.39,1.39,0,0,0,172,152a1.45,1.45,0,0,0-1-.4h-7.59v-3.29H171a5.35,5.35,0,0,1,1.55.26,4.51,4.51,0,0,1,3.21,4.5Z"/><path class="cls-77" d="M185,162.64h-1.54a5.52,5.52,0,0,1-1.59-.25,4.58,4.58,0,0,1-1.57-.83,4.42,4.42,0,0,1-1.21-1.5,4.89,4.89,0,0,1-.48-2.27V142.2h3.46v15.59a1.35,1.35,0,0,0,.39,1,1.41,1.41,0,0,0,1,.38H185Z"/><path class="cls-78" d="M188.63,165.09h-2.44l1.24-6.69h3.26Z"/><path class="cls-79" d="M132,186.92h-7.78a1.43,1.43,0,0,0-1.06.36,1.36,1.36,0,0,0-.36,1v9.53h-3.46v-9.53a5.23,5.23,0,0,1,.23-1.6,4.61,4.61,0,0,1,.6-1.24,4,4,0,0,1,.87-.92,5.22,5.22,0,0,1,1-.62,5.53,5.53,0,0,1,1.09-.35,4.82,4.82,0,0,1,1-.11H132Z"/><path class="cls-80" d="M149.67,188.23a5.31,5.31,0,0,1-.25,1.55,4.53,4.53,0,0,1-4.51,3.21h-6.23V189.7h6.23a1.38,1.38,0,0,0,1.09-.43,1.53,1.53,0,0,0,.39-1.07,1.36,1.36,0,0,0-.43-1.06,1.52,1.52,0,0,0-1.05-.39h-6.23a1.37,1.37,0,0,0-1.09.43,1.55,1.55,0,0,0-.39,1.07v4.83a1.37,1.37,0,0,0,.43,1.08,1.59,1.59,0,0,0,1.07.38h6.21v3.3h-6.23a5.61,5.61,0,0,1-1.55-.25,4.52,4.52,0,0,1-2.74-2.3,4.78,4.78,0,0,1-.47-2.21v-4.85a5.26,5.26,0,0,1,.25-1.55,4.5,4.5,0,0,1,.82-1.54,4.26,4.26,0,0,1,1.47-1.19,4.73,4.73,0,0,1,2.22-.48h6.23a5.26,5.26,0,0,1,1.55.25,4.59,4.59,0,0,1,1.54.82,4.48,4.48,0,0,1,1.19,1.47A4.73,4.73,0,0,1,149.67,188.23Z"/><path class="cls-81" d="M166.73,193.08a5.67,5.67,0,0,1-.25,1.55,4.59,4.59,0,0,1-.82,1.54,4.53,4.53,0,0,1-3.69,1.67h-6.24a5.67,5.67,0,0,1-1.55-.25,4.53,4.53,0,0,1-3.21-4.51,5.41,5.41,0,0,1,.26-1.56A4.71,4.71,0,0,1,152,190a4.65,4.65,0,0,1,1.48-1.19,4.81,4.81,0,0,1,2.21-.47H162v3.29h-6.24a1.39,1.39,0,0,0-1.09.44,1.56,1.56,0,0,0-.38,1.07,1.32,1.32,0,0,0,.44,1,1.55,1.55,0,0,0,1.06.38H162a1.41,1.41,0,0,0,1.09-.42,1.53,1.53,0,0,0,.39-1.07v-4.82a1.42,1.42,0,0,0-.42-1.08,1.47,1.47,0,0,0-1.06-.4h-7.59v-3.28H162a5.31,5.31,0,0,1,1.55.25,4.56,4.56,0,0,1,2.73,2.29,4.73,4.73,0,0,1,.48,2.22Z"/><path class="cls-82" d="M185.45,193a5.33,5.33,0,0,1-.23,1.6,5,5,0,0,1-.59,1.25,4.24,4.24,0,0,1-.87.92,5.17,5.17,0,0,1-1,.61,5.57,5.57,0,0,1-1.09.36,5.67,5.67,0,0,1-1,.11h-6.24a5.21,5.21,0,0,1-1.59-.23,4.67,4.67,0,0,1-1.25-.6,4.24,4.24,0,0,1-.92-.87,5.17,5.17,0,0,1-.61-1,5.79,5.79,0,0,1-.36-1.09,5.57,5.57,0,0,1-.11-1v-4.68a4.75,4.75,0,0,1,.49-2.26,4.63,4.63,0,0,1,1.21-1.5,4.49,4.49,0,0,1,1.57-.83,5.49,5.49,0,0,1,1.57-.25h6.24v3.45h-6.21a1.42,1.42,0,0,0-1,.36,1.36,1.36,0,0,0-.36,1V193a1.47,1.47,0,0,0,.35,1.06,1.39,1.39,0,0,0,1,.36h6.24a1.39,1.39,0,0,0,1.05-.36,1.42,1.42,0,0,0,.34-1v-15.6h3.46Z"/><path class="cls-83" d="M199.76,197.84h-6.24a5.82,5.82,0,0,1-1.59-.25,4.75,4.75,0,0,1-1.57-.83,4.44,4.44,0,0,1-1.21-1.51,4.84,4.84,0,0,1-.48-2.26v-9.52h3.45V193a1.39,1.39,0,0,0,.36,1,1.46,1.46,0,0,0,1.07.36h6.21Zm4.84,1.38a5.23,5.23,0,0,1-.23,1.6,4.53,4.53,0,0,1-.6,1.25,4.21,4.21,0,0,1-.86.92,5.22,5.22,0,0,1-1,.62,4.94,4.94,0,0,1-1.09.35,4.76,4.76,0,0,1-1,.11h-6.24v-3.45h6.24a1.36,1.36,0,0,0,1-.36,1.45,1.45,0,0,0,.35-1V183.47h3.46Z"/><path class="cls-84" d="M220.28,189.86H207.81v-3.11h12.47Z"/><path class="cls-85" d="M236.52,186.92h-6v10.92H227V186.92h-4.49v-3.45H227v-4.7h3.5v4.7h6Z"/><path class="cls-86" d="M254.37,193a5.34,5.34,0,0,1-.22,1.6,4.67,4.67,0,0,1-.6,1.25,4.24,4.24,0,0,1-.87.92,4.9,4.9,0,0,1-1,.61,5.36,5.36,0,0,1-1.09.36,5.49,5.49,0,0,1-1,.11h-6.24a5.8,5.8,0,0,1-1.56-.25,4.55,4.55,0,0,1-2.79-2.34,4.84,4.84,0,0,1-.48-2.26v-4.68a4.87,4.87,0,0,1,.48-2.26,4.76,4.76,0,0,1,1.21-1.5,4.53,4.53,0,0,1,1.58-.83,5.43,5.43,0,0,1,1.56-.25h6.24a4.87,4.87,0,0,1,2.26.48,4.4,4.4,0,0,1,1.5,1.2,4.75,4.75,0,0,1,.83,1.57,5.27,5.27,0,0,1,.26,1.59Zm-3.45-4.66a1.4,1.4,0,0,0-.36-1.06,1.45,1.45,0,0,0-1-.35h-6.21a1.42,1.42,0,0,0-1.05.36,1.36,1.36,0,0,0-.36,1V193a1.39,1.39,0,0,0,.36,1,1.42,1.42,0,0,0,1.05.36h6.21a1.39,1.39,0,0,0,1-.36,1.43,1.43,0,0,0,.35-1Z"/><path class="cls-87" d="M269.7,189.86H257.23v-3.11H269.7Z"/><path class="cls-88" d="M288.33,188.23a5.31,5.31,0,0,1-.25,1.55,4.53,4.53,0,0,1-4.51,3.21h-6.23V189.7h6.23a1.38,1.38,0,0,0,1.09-.43,1.53,1.53,0,0,0,.39-1.07,1.34,1.34,0,0,0-.44-1.06,1.48,1.48,0,0,0-1-.39h-6.23a1.4,1.4,0,0,0-1.1.43,1.59,1.59,0,0,0-.38,1.07v4.83a1.37,1.37,0,0,0,.43,1.08,1.59,1.59,0,0,0,1.07.38h6.21v3.3h-6.23a5.61,5.61,0,0,1-1.55-.25,4.5,4.5,0,0,1-3.21-4.51v-4.85a5.26,5.26,0,0,1,.25-1.55,4.5,4.5,0,0,1,.82-1.54,4.26,4.26,0,0,1,1.47-1.19,4.73,4.73,0,0,1,2.22-.48h6.23a5.26,5.26,0,0,1,1.55.25,4.59,4.59,0,0,1,1.54.82,4.48,4.48,0,0,1,1.19,1.47A4.73,4.73,0,0,1,288.33,188.23Z"/><path class="cls-89" d="M305.39,193.08a5.67,5.67,0,0,1-.25,1.55,4.78,4.78,0,0,1-.82,1.54,4.53,4.53,0,0,1-3.69,1.67h-6.24a5.67,5.67,0,0,1-1.55-.25,4.53,4.53,0,0,1-3.21-4.51,5.41,5.41,0,0,1,.26-1.56,4.71,4.71,0,0,1,.81-1.55,4.65,4.65,0,0,1,1.48-1.19,4.81,4.81,0,0,1,2.21-.47h6.24v3.29h-6.24a1.39,1.39,0,0,0-1.09.44,1.56,1.56,0,0,0-.38,1.07,1.32,1.32,0,0,0,.44,1,1.55,1.55,0,0,0,1.06.38h6.21a1.41,1.41,0,0,0,1.09-.42,1.53,1.53,0,0,0,.38-1.07v-4.82a1.45,1.45,0,0,0-.41-1.08,1.47,1.47,0,0,0-1.06-.4H293v-3.28h7.59a5.31,5.31,0,0,1,1.55.25,4.56,4.56,0,0,1,2.73,2.29,4.73,4.73,0,0,1,.48,2.22Z"/><path class="cls-90" d="M321.36,186.92h-6v10.92h-3.5V186.92h-4.49v-3.45h4.49v-4.7h3.5v4.7h6Z"/></g><g class="cls-91"><path class="cls-92" d="M132.24,162.64h-3.46v-9.53a1.39,1.39,0,0,0-.36-1,1.46,1.46,0,0,0-1.06-.35h-4.49v10.91h-3.46V150a1.63,1.63,0,0,1,.13-.67,1.75,1.75,0,0,1,.38-.55,1.59,1.59,0,0,1,.55-.36,1.76,1.76,0,0,1,.68-.14h6.24a5.23,5.23,0,0,1,1.54.26,4.8,4.8,0,0,1,1.57.81v-1.07h4.68a4.89,4.89,0,0,1,1,.12,5,5,0,0,1,1.08.35,4.78,4.78,0,0,1,1,.62,3.73,3.73,0,0,1,.86.91,4.67,4.67,0,0,1,.6,1.25,5.21,5.21,0,0,1,.23,1.59v9.53h-3.46v-9.53a1.42,1.42,0,0,0-.34-1,1.39,1.39,0,0,0-1-.35h-3.11a5.49,5.49,0,0,1,.17,1.38Z"/><path class="cls-93" d="M158.66,153a5.61,5.61,0,0,1-.25,1.55,4.68,4.68,0,0,1-.82,1.54,4.52,4.52,0,0,1-1.48,1.19,4.66,4.66,0,0,1-2.21.48h-6.24v-3.28h6.24a1.41,1.41,0,0,0,1.09-.43,1.54,1.54,0,0,0,.38-1.07,1.35,1.35,0,0,0-.43-1.07,1.53,1.53,0,0,0-1-.38h-6.24a1.38,1.38,0,0,0-1.09.43,1.57,1.57,0,0,0-.38,1.07v4.83a1.34,1.34,0,0,0,.43,1.07,1.53,1.53,0,0,0,1.07.39h6.21v3.29h-6.24a5.31,5.31,0,0,1-1.55-.25,4.69,4.69,0,0,1-1.54-.82,4.5,4.5,0,0,1-1.19-1.47,4.71,4.71,0,0,1-.48-2.21V153a5.35,5.35,0,0,1,.26-1.55,4.51,4.51,0,0,1,4.5-3.21h6.24a5.35,5.35,0,0,1,1.55.26,4.56,4.56,0,0,1,1.54.81,4.53,4.53,0,0,1,1.67,3.69Z"/><path class="cls-94" d="M175.72,157.89a5.28,5.28,0,0,1-.26,1.54,4.46,4.46,0,0,1-2.29,2.74,4.69,4.69,0,0,1-2.21.47h-6.24a5.31,5.31,0,0,1-1.55-.25,4.59,4.59,0,0,1-1.54-.82,4.5,4.5,0,0,1-1.19-1.47,4.71,4.71,0,0,1-.48-2.21,5.74,5.74,0,0,1,.25-1.56,4.54,4.54,0,0,1,.82-1.55,4.53,4.53,0,0,1,3.69-1.67H171v3.3h-6.24a1.38,1.38,0,0,0-1.09.43,1.54,1.54,0,0,0-.38,1.07,1.31,1.31,0,0,0,.44,1.06,1.6,1.6,0,0,0,1.06.38H171a1.38,1.38,0,0,0,1.09-.43,1.55,1.55,0,0,0,.38-1.06V153A1.39,1.39,0,0,0,172,152a1.45,1.45,0,0,0-1-.4h-7.59v-3.29H171a5.35,5.35,0,0,1,1.55.26,4.51,4.51,0,0,1,3.21,4.5Z"/><path class="cls-95" d="M185,162.64h-1.54a5.52,5.52,0,0,1-1.59-.25,4.58,4.58,0,0,1-1.57-.83,4.42,4.42,0,0,1-1.21-1.5,4.89,4.89,0,0,1-.48-2.27V142.2h3.46v15.59a1.35,1.35,0,0,0,.39,1,1.41,1.41,0,0,0,1,.38H185Z"/><path class="cls-96" d="M188.63,165.09h-2.44l1.24-6.69h3.26Z"/><path class="cls-97" d="M132,186.92h-7.78a1.43,1.43,0,0,0-1.06.36,1.36,1.36,0,0,0-.36,1v9.53h-3.46v-9.53a5.23,5.23,0,0,1,.23-1.6,4.61,4.61,0,0,1,.6-1.24,4,4,0,0,1,.87-.92,5.22,5.22,0,0,1,1-.62,5.53,5.53,0,0,1,1.09-.35,4.82,4.82,0,0,1,1-.11H132Z"/><path class="cls-98" d="M149.67,188.23a5.31,5.31,0,0,1-.25,1.55,4.53,4.53,0,0,1-4.51,3.21h-6.23V189.7h6.23a1.38,1.38,0,0,0,1.09-.43,1.53,1.53,0,0,0,.39-1.07,1.36,1.36,0,0,0-.43-1.06,1.52,1.52,0,0,0-1.05-.39h-6.23a1.37,1.37,0,0,0-1.09.43,1.55,1.55,0,0,0-.39,1.07v4.83a1.37,1.37,0,0,0,.43,1.08,1.59,1.59,0,0,0,1.07.38h6.21v3.3h-6.23a5.61,5.61,0,0,1-1.55-.25,4.52,4.52,0,0,1-2.74-2.3,4.78,4.78,0,0,1-.47-2.21v-4.85a5.26,5.26,0,0,1,.25-1.55,4.5,4.5,0,0,1,.82-1.54,4.26,4.26,0,0,1,1.47-1.19,4.73,4.73,0,0,1,2.22-.48h6.23a5.26,5.26,0,0,1,1.55.25,4.59,4.59,0,0,1,1.54.82,4.48,4.48,0,0,1,1.19,1.47A4.73,4.73,0,0,1,149.67,188.23Z"/><path class="cls-99" d="M166.73,193.08a5.67,5.67,0,0,1-.25,1.55,4.59,4.59,0,0,1-.82,1.54,4.53,4.53,0,0,1-3.69,1.67h-6.24a5.67,5.67,0,0,1-1.55-.25,4.53,4.53,0,0,1-3.21-4.51,5.41,5.41,0,0,1,.26-1.56A4.71,4.71,0,0,1,152,190a4.65,4.65,0,0,1,1.48-1.19,4.81,4.81,0,0,1,2.21-.47H162v3.29h-6.24a1.39,1.39,0,0,0-1.09.44,1.56,1.56,0,0,0-.38,1.07,1.32,1.32,0,0,0,.44,1,1.55,1.55,0,0,0,1.06.38H162a1.41,1.41,0,0,0,1.09-.42,1.53,1.53,0,0,0,.39-1.07v-4.82a1.42,1.42,0,0,0-.42-1.08,1.47,1.47,0,0,0-1.06-.4h-7.59v-3.28H162a5.31,5.31,0,0,1,1.55.25,4.56,4.56,0,0,1,2.73,2.29,4.73,4.73,0,0,1,.48,2.22Z"/><path class="cls-100" d="M185.45,193a5.33,5.33,0,0,1-.23,1.6,5,5,0,0,1-.59,1.25,4.24,4.24,0,0,1-.87.92,5.17,5.17,0,0,1-1,.61,5.57,5.57,0,0,1-1.09.36,5.67,5.67,0,0,1-1,.11h-6.24a5.21,5.21,0,0,1-1.59-.23,4.67,4.67,0,0,1-1.25-.6,4.24,4.24,0,0,1-.92-.87,5.17,5.17,0,0,1-.61-1,5.79,5.79,0,0,1-.36-1.09,5.57,5.57,0,0,1-.11-1v-4.68a4.75,4.75,0,0,1,.49-2.26,4.63,4.63,0,0,1,1.21-1.5,4.49,4.49,0,0,1,1.57-.83,5.49,5.49,0,0,1,1.57-.25h6.24v3.45h-6.21a1.42,1.42,0,0,0-1,.36,1.36,1.36,0,0,0-.36,1V193a1.47,1.47,0,0,0,.35,1.06,1.39,1.39,0,0,0,1,.36h6.24a1.39,1.39,0,0,0,1.05-.36,1.42,1.42,0,0,0,.34-1v-15.6h3.46Z"/><path class="cls-101" d="M199.76,197.84h-6.24a5.82,5.82,0,0,1-1.59-.25,4.75,4.75,0,0,1-1.57-.83,4.44,4.44,0,0,1-1.21-1.51,4.84,4.84,0,0,1-.48-2.26v-9.52h3.45V193a1.39,1.39,0,0,0,.36,1,1.46,1.46,0,0,0,1.07.36h6.21Zm4.84,1.38a5.23,5.23,0,0,1-.23,1.6,4.53,4.53,0,0,1-.6,1.25,4.21,4.21,0,0,1-.86.92,5.22,5.22,0,0,1-1,.62,4.94,4.94,0,0,1-1.09.35,4.76,4.76,0,0,1-1,.11h-6.24v-3.45h6.24a1.36,1.36,0,0,0,1-.36,1.45,1.45,0,0,0,.35-1V183.47h3.46Z"/><path class="cls-102" d="M220.28,189.86H207.81v-3.11h12.47Z"/><path class="cls-103" d="M236.52,186.92h-6v10.92H227V186.92h-4.49v-3.45H227v-4.7h3.5v4.7h6Z"/><path class="cls-104" d="M254.37,193a5.34,5.34,0,0,1-.22,1.6,4.67,4.67,0,0,1-.6,1.25,4.24,4.24,0,0,1-.87.92,4.9,4.9,0,0,1-1,.61,5.36,5.36,0,0,1-1.09.36,5.49,5.49,0,0,1-1,.11h-6.24a5.8,5.8,0,0,1-1.56-.25,4.55,4.55,0,0,1-2.79-2.34,4.84,4.84,0,0,1-.48-2.26v-4.68a4.87,4.87,0,0,1,.48-2.26,4.76,4.76,0,0,1,1.21-1.5,4.53,4.53,0,0,1,1.58-.83,5.43,5.43,0,0,1,1.56-.25h6.24a4.87,4.87,0,0,1,2.26.48,4.4,4.4,0,0,1,1.5,1.2,4.75,4.75,0,0,1,.83,1.57,5.27,5.27,0,0,1,.26,1.59Zm-3.45-4.66a1.4,1.4,0,0,0-.36-1.06,1.45,1.45,0,0,0-1-.35h-6.21a1.42,1.42,0,0,0-1.05.36,1.36,1.36,0,0,0-.36,1V193a1.39,1.39,0,0,0,.36,1,1.42,1.42,0,0,0,1.05.36h6.21a1.39,1.39,0,0,0,1-.36,1.43,1.43,0,0,0,.35-1Z"/><path class="cls-105" d="M269.7,189.86H257.23v-3.11H269.7Z"/><path class="cls-106" d="M288.33,188.23a5.31,5.31,0,0,1-.25,1.55,4.53,4.53,0,0,1-4.51,3.21h-6.23V189.7h6.23a1.38,1.38,0,0,0,1.09-.43,1.53,1.53,0,0,0,.39-1.07,1.34,1.34,0,0,0-.44-1.06,1.48,1.48,0,0,0-1-.39h-6.23a1.4,1.4,0,0,0-1.1.43,1.59,1.59,0,0,0-.38,1.07v4.83a1.37,1.37,0,0,0,.43,1.08,1.59,1.59,0,0,0,1.07.38h6.21v3.3h-6.23a5.61,5.61,0,0,1-1.55-.25,4.5,4.5,0,0,1-3.21-4.51v-4.85a5.26,5.26,0,0,1,.25-1.55,4.5,4.5,0,0,1,.82-1.54,4.26,4.26,0,0,1,1.47-1.19,4.73,4.73,0,0,1,2.22-.48h6.23a5.26,5.26,0,0,1,1.55.25,4.59,4.59,0,0,1,1.54.82,4.48,4.48,0,0,1,1.19,1.47A4.73,4.73,0,0,1,288.33,188.23Z"/><path class="cls-107" d="M305.39,193.08a5.67,5.67,0,0,1-.25,1.55,4.78,4.78,0,0,1-.82,1.54,4.53,4.53,0,0,1-3.69,1.67h-6.24a5.67,5.67,0,0,1-1.55-.25,4.53,4.53,0,0,1-3.21-4.51,5.41,5.41,0,0,1,.26-1.56,4.71,4.71,0,0,1,.81-1.55,4.65,4.65,0,0,1,1.48-1.19,4.81,4.81,0,0,1,2.21-.47h6.24v3.29h-6.24a1.39,1.39,0,0,0-1.09.44,1.56,1.56,0,0,0-.38,1.07,1.32,1.32,0,0,0,.44,1,1.55,1.55,0,0,0,1.06.38h6.21a1.41,1.41,0,0,0,1.09-.42,1.53,1.53,0,0,0,.38-1.07v-4.82a1.45,1.45,0,0,0-.41-1.08,1.47,1.47,0,0,0-1.06-.4H293v-3.28h7.59a5.31,5.31,0,0,1,1.55.25,4.56,4.56,0,0,1,2.73,2.29,4.73,4.73,0,0,1,.48,2.22Z"/><path class="cls-108" d="M321.36,186.92h-6v10.92h-3.5V186.92h-4.49v-3.45h4.49v-4.7h3.5v4.7h6Z"/></g></g></g></g></svg>