<svg xmlns="http://www.w3.org/2000/svg" xmlns:xlink="http://www.w3.org/1999/xlink" viewBox="0 0 881.57 286.59"><defs><style>.cls-1{fill:url(#linear-gradient);}.cls-2{fill:url(#linear-gradient-2);}.cls-3{fill:url(#New_Gradient_Swatch_copy_3);}.cls-4{fill:url(#linear-gradient-3);}.cls-5{fill:url(#linear-gradient-4);}.cls-6{fill:url(#linear-gradient-5);}.cls-7{fill:url(#linear-gradient-6);}.cls-8{fill:url(#linear-gradient-7);}.cls-9{fill:url(#linear-gradient-8);}.cls-10{fill:url(#linear-gradient-9);}.cls-11{fill:url(#linear-gradient-10);}.cls-12{fill:url(#linear-gradient-11);}.cls-13{fill:url(#linear-gradient-12);}.cls-14{fill:url(#linear-gradient-13);}.cls-15,.cls-17,.cls-20,.cls-22,.cls-24,.cls-26{opacity:0.2;}.cls-15{fill:url(#linear-gradient-14);}.cls-16{fill:url(#linear-gradient-15);}.cls-17{fill:url(#linear-gradient-16);}.cls-18{fill:url(#New_Gradient_Swatch_copy_3-2);}.cls-19{fill:url(#linear-gradient-17);}.cls-20{fill:url(#linear-gradient-18);}.cls-21{fill:url(#linear-gradient-19);}.cls-22{fill:url(#linear-gradient-20);}.cls-23{fill:url(#linear-gradient-21);}.cls-24{fill:url(#linear-gradient-22);}.cls-25{fill:url(#New_Gradient_Swatch_copy_3-3);}.cls-26{fill:url(#linear-gradient-23);}.cls-27{fill:url(#linear-gradient-24);}</style><linearGradient id="linear-gradient" x1="9.85" y1="114.82" x2="231.39" y2="114.82" gradientUnits="userSpaceOnUse"><stop offset="0" stop-color="#2382c4" stop-opacity="0"/><stop offset="1" stop-color="#d35127"/></linearGradient><linearGradient id="linear-gradient-2" x1="501.77" y1="973.09" x2="606.91" y2="973.09" gradientTransform="translate(56.8 -1051.41) rotate(14.65)" gradientUnits="userSpaceOnUse"><stop offset="0" stop-color="#d35127"/><stop offset="1" stop-color="#2382c4" stop-opacity="0"/></linearGradient><linearGradient id="New_Gradient_Swatch_copy_3" x1="-3660.38" y1="89.15" x2="-3652.28" y2="89.15" gradientTransform="translate(4007.94)" xlink:href="#linear-gradient-2"/><linearGradient id="linear-gradient-3" x1="7007.92" y1="-242.43" x2="7123.54" y2="-242.43" gradientTransform="matrix(-1, 0.09, 0.09, 1, 7407.86, -286.85)" xlink:href="#linear-gradient"/><linearGradient id="linear-gradient-4" x1="0" y1="182.92" x2="881.57" y2="182.92" gradientTransform="matrix(1, 0, 0, 1, 0, 0)" xlink:href="#linear-gradient-2"/><linearGradient id="linear-gradient-5" x1="19.76" y1="186.64" x2="730.28" y2="186.64" xlink:href="#linear-gradient"/><linearGradient id="linear-gradient-6" x1="163.84" y1="210.28" x2="177.35" y2="210.28" xlink:href="#linear-gradient"/><linearGradient id="linear-gradient-7" x1="190.86" y1="212.08" x2="204.37" y2="212.08" xlink:href="#linear-gradient"/><linearGradient id="linear-gradient-8" x1="220.58" y1="212.98" x2="234.08" y2="212.98" xlink:href="#linear-gradient"/><linearGradient id="linear-gradient-9" x1="252.09" y1="213.88" x2="265.6" y2="213.88" xlink:href="#linear-gradient"/><linearGradient id="linear-gradient-10" x1="281.81" y1="212.98" x2="295.32" y2="212.98" xlink:href="#linear-gradient"/><linearGradient id="linear-gradient-11" x1="686.15" y1="105.1" x2="574.49" y2="105.1" xlink:href="#linear-gradient"/><linearGradient id="linear-gradient-12" x1="573.31" y1="79.14" x2="726.78" y2="79.14" xlink:href="#linear-gradient"/><linearGradient id="linear-gradient-13" x1="7015.61" y1="348.22" x2="7047.15" y2="348.22" gradientTransform="matrix(-1, -0.02, -0.02, 1, 7388.09, -99.46)" gradientUnits="userSpaceOnUse"><stop offset="0" stop-color="#d35127"/><stop offset="0.75" stop-color="#2382c4" stop-opacity="0"/></linearGradient><linearGradient id="linear-gradient-14" x1="7015.61" y1="348.22" x2="7047.15" y2="348.22" gradientTransform="matrix(-1, -0.02, -0.02, 1, 7388.09, -99.46)" gradientUnits="userSpaceOnUse"><stop offset="0" stop-color="#2382c4" stop-opacity="0"/><stop offset="0.72" stop-color="#d35127"/></linearGradient><linearGradient id="linear-gradient-15" x1="149.29" y1="4930.81" x2="180.84" y2="4930.81" gradientTransform="matrix(0.2, -0.98, -0.98, -0.2, 5148.77, 1226.16)" xlink:href="#linear-gradient-13"/><linearGradient id="linear-gradient-16" x1="149.29" y1="4930.81" x2="180.84" y2="4930.81" gradientTransform="matrix(0.2, -0.98, -0.98, -0.2, 5148.77, 1226.16)" xlink:href="#linear-gradient-14"/><linearGradient id="New_Gradient_Swatch_copy_3-2" x1="-6081.51" y1="78.39" x2="-6077" y2="78.39" gradientTransform="translate(6561.44)" xlink:href="#linear-gradient-2"/><linearGradient id="linear-gradient-17" x1="9437.02" y1="125.85" x2="9505.48" y2="125.85" gradientTransform="matrix(-1, 0, 0, 1, 9954.16, 0)" xlink:href="#linear-gradient"/><linearGradient id="linear-gradient-18" x1="9437.02" y1="125.85" x2="9505.48" y2="125.85" gradientTransform="matrix(-1, 0, 0, 1, 9954.16, 0)" xlink:href="#linear-gradient-13"/><linearGradient id="linear-gradient-19" x1="9438.66" y1="87.16" x2="9499.62" y2="87.16" gradientTransform="matrix(-1, 0, 0, 1, 9954.16, 0)" xlink:href="#linear-gradient"/><linearGradient id="linear-gradient-20" x1="9438.66" y1="87.16" x2="9499.62" y2="87.16" gradientTransform="matrix(-1, 0, 0, 1, 9954.16, 0)" xlink:href="#linear-gradient-13"/><linearGradient id="linear-gradient-21" x1="9447.33" y1="48.71" x2="9497.04" y2="48.71" gradientTransform="matrix(-1, 0, 0, 1, 9954.16, 0)" xlink:href="#linear-gradient"/><linearGradient id="linear-gradient-22" x1="9447.33" y1="48.71" x2="9497.04" y2="48.71" gradientTransform="matrix(-1, 0, 0, 1, 9954.16, 0)" xlink:href="#linear-gradient-13"/><linearGradient id="New_Gradient_Swatch_copy_3-3" x1="9427.4" y1="16.61" x2="9472.42" y2="16.61" gradientTransform="matrix(-1, 0, 0, 1, 9954.16, 0)" xlink:href="#linear-gradient-2"/><linearGradient id="linear-gradient-23" x1="9427.4" y1="16.55" x2="9472.89" y2="16.55" gradientTransform="matrix(-1, 0, 0, 1, 9954.16, 0)" xlink:href="#linear-gradient-13"/><linearGradient id="linear-gradient-24" x1="283.61" y1="144.99" x2="397.34" y2="144.99" gradientTransform="matrix(1, 0, 0, 1, 0, 0)" xlink:href="#linear-gradient-2"/></defs><g id="Layer_2" data-name="Layer 2"><g id="Layer_1-2" data-name="Layer 1"><path class="cls-1" d="M31.46,136.88l-.9-11.71-18.91-1.8-1.8-10.8,18.91.9.9-17.11,106.27-2.7.9-26.12h57.63q.21,21.48.41,43h36.52q0,25.8,0,51.59l-74.74-3.61q-10.37-11.7-20.71-23.41Z"/><path class="cls-2" d="M379.07,9.91A63.12,63.12,0,0,1,396.2,50c-16.52-2.58-34.78-4.65-54.58-5.75-18.87-1-36.45-1-52.49-.39a44.85,44.85,0,0,0,17-16.8,44.24,44.24,0,0,0,5.4-16.21Z"/><path class="cls-3" d="M350.9,53.06q2.39,62.18,4.76,124.35l-8.11.9L348.87,0q1,26.54,2,53.06"/><path class="cls-4" d="M286.56,49.75,390.45,55a71.32,71.32,0,0,1,14.36,28.72,72.48,72.48,0,0,1-2.87,42.37,232.33,232.33,0,0,0-109.27-6.51,95,95,0,0,0-6.11-69.82Z"/><path class="cls-5" d="M881.57,79.25,744.69,137.78l-36.92,49.53-51.33,45.93L553.77,286.37l-514.3.22L16.44,211a71.7,71.7,0,0,0,3.29-19.73c0-9.87-16.44-34.54-16.44-34.54L0,137l135.93-1.87q10.35,11.71,20.71,23.41l80.88,4L250.29,181l167.5-5.41,148.59-54a983.29,983.29,0,0,0,143.19-6.3A984.43,984.43,0,0,0,881.57,79.25Z"/><path class="cls-6" d="M19.76,190.91a1963.83,1963.83,0,0,0,346.7,16.21,1964.49,1964.49,0,0,0,363.82-49.53q-4.5,5.86-9,11.71a2012.14,2012.14,0,0,1-355.71,45,2012.83,2012.83,0,0,1-345.8-17.11Z"/><circle class="cls-7" cx="170.6" cy="210.28" r="6.75"/><circle class="cls-8" cx="197.61" cy="212.08" r="6.75"/><circle class="cls-9" cx="227.33" cy="212.98" r="6.75"/><circle class="cls-10" cx="258.85" cy="213.88" r="6.75"/><circle class="cls-11" cx="288.57" cy="212.98" r="6.75"/><path class="cls-12" d="M596.1,94.56l-1.8,12.6-14.41.9-5.4,13.51c16.57.47,34,.52,52.23,0,20.9-.59,40.74-1.86,59.43-3.6L669,88.25l-10.8.9v2.7h-5.41v-2.7Z"/><path class="cls-13" d="M573.87,87c-.51-2.2-1.51-8,1.7-12.77.73-1.09,3.16-4.71,6-4.26a4.21,4.21,0,0,1,2.55,1.7L612.2,69.5V67.8l6-.85V69.5L651,67V65.24h5.11v1.28l44.73-.85V64.39h3.4v1.28a18.72,18.72,0,0,0,14.91-5.54c.53.36,7.9,5.52,7.67,14.48a17.29,17.29,0,0,1-5.54,11.93,32.79,32.79,0,0,0-15.76-2.13v1.7h-3c-.14-.57-.28-1.13-.43-1.7L658.2,89.52v2.13h-5.53V89.52L587.5,96.33a6.14,6.14,0,0,1-3,1.71A6.88,6.88,0,0,1,582,98C579.61,97.57,576.29,93.34,573.87,87Z"/><path class="cls-14" d="M335.73,74.55c-.12-.15-1.48-1.92-.56-3.2a2.57,2.57,0,0,1,3.2-.56,2.63,2.63,0,0,1,4.5-1.8,3.34,3.34,0,0,1,.55,3.83L359.05,85.3c2.12-1,4.34-1,5.73.13.25.21,1.51,1.32,1.21,2.58a3,3,0,0,1-3.23,1.84,3.74,3.74,0,0,1-1.36,3.79,3.55,3.55,0,0,1-4.46-.11,3.49,3.49,0,0,1-.53-4.47L339.52,75.91A4.38,4.38,0,0,1,335.73,74.55Z"/><path class="cls-15" d="M335.73,74.55c-.12-.15-1.48-1.92-.56-3.2a2.57,2.57,0,0,1,3.2-.56,2.63,2.63,0,0,1,4.5-1.8,3.34,3.34,0,0,1,.55,3.83L359.05,85.3c2.12-1,4.34-1,5.73.13.25.21,1.51,1.32,1.21,2.58a3,3,0,0,1-3.23,1.84,3.74,3.74,0,0,1-1.36,3.79,3.55,3.55,0,0,1-4.46-.11,3.49,3.49,0,0,1-.53-4.47L339.52,75.91A4.38,4.38,0,0,1,335.73,74.55Z"/><path class="cls-16" d="M358.93,68.73c.17-.09,2.15-1.12,3.25,0a2.6,2.6,0,0,1,0,3.25,2.78,2.78,0,0,1,2.11,2.38,2.82,2.82,0,0,1-1.13,2.37,3.33,3.33,0,0,1-3.87-.14l-15,13.19c.62,2.27.23,4.46-1.14,5.62-.25.21-1.57,1.26-2.75.74a3,3,0,0,1-1.24-3.5,3.73,3.73,0,0,1-3.49-2,3.55,3.55,0,0,1,.89-4.37,3.49,3.49,0,0,1,4.49.26l15.91-14.31A4.41,4.41,0,0,1,358.93,68.73Z"/><path class="cls-17" d="M358.93,68.73c.17-.09,2.15-1.12,3.25,0a2.6,2.6,0,0,1,0,3.25,2.78,2.78,0,0,1,2.11,2.38,2.82,2.82,0,0,1-1.13,2.37,3.33,3.33,0,0,1-3.87-.14l-15,13.19c.62,2.27.23,4.46-1.14,5.62-.25.21-1.57,1.26-2.75.74a3,3,0,0,1-1.24-3.5,3.73,3.73,0,0,1-3.49-2,3.55,3.55,0,0,1,.89-4.37,3.49,3.49,0,0,1,4.49.26l15.91-14.31A4.41,4.41,0,0,1,358.93,68.73Z"/><path class="cls-18" d="M479.93,153.09q.79-74.7,1.58-149.4,1.46,73.8,2.92,147.6Z"/><path class="cls-19" d="M516.68,120.93l-65.19-14.07a128.48,128.48,0,0,1-2.81,38,133.7,133.7,0,0,1,68.47,0Q516.91,132.89,516.68,120.93Z"/><path class="cls-20" d="M516.68,120.93l-65.19-14.07a128.48,128.48,0,0,1-2.81,38,133.7,133.7,0,0,1,68.47,0Q516.91,132.89,516.68,120.93Z"/><path class="cls-21" d="M454.54,59.5l54.4,9.38a190.55,190.55,0,0,1,5.63,30.48c.55,5.43.84,10.6.93,15.47a95.74,95.74,0,0,0-61-11.25Z"/><path class="cls-22" d="M454.54,59.5l54.4,9.38a190.55,190.55,0,0,1,5.63,30.48c.55,5.43.84,10.6.93,15.47a95.74,95.74,0,0,0-61-11.25Z"/><path class="cls-23" d="M466,34.64A44.67,44.67,0,0,1,463.22,44a45.36,45.36,0,0,1-6.1,10.32,165.81,165.81,0,0,1,34.7,4.22c5.38,1.24,10.39,2.68,15,4.22L497.45,45Z"/><path class="cls-24" d="M466,34.64A44.67,44.67,0,0,1,463.22,44a45.36,45.36,0,0,1-6.1,10.32,165.81,165.81,0,0,1,34.7,4.22c5.38,1.24,10.39,2.68,15,4.22L497.45,45Z"/><path class="cls-25" d="M481.74,7a112.19,112.19,0,0,0,16.88,5.62c3.81.93,6.51,1.35,10.32,3.29,3.53,1.79,4.64,3.16,8,4.68a26.8,26.8,0,0,0,9.85,2.35,25.49,25.49,0,0,1-13.6,3.28c-4.48-.27-7.17-1.81-11.26-3.28a58.11,58.11,0,0,0-20.16-3.28Z"/><path class="cls-26" d="M481.27,6.86a112,112,0,0,0,17.35,5.74c3.69.89,6.47,1.33,10.32,3.29,3.53,1.79,4.64,3.16,8,4.68a26.8,26.8,0,0,0,9.85,2.35,25.49,25.49,0,0,1-13.6,3.28c-4.48-.27-7.17-1.81-11.26-3.28a58.11,58.11,0,0,0-20.16-3.28Q481.5,13.25,481.27,6.86Z"/><path class="cls-27" d="M292.62,127a256.19,256.19,0,0,1,104.46,6.3,86.73,86.73,0,0,1,0,13.51,87.75,87.75,0,0,1-3.6,18.91c-17.76-1.6-37-2.62-57.64-2.7-18.54-.08-36,.61-52.23,1.8q1.93-10,4.51-20.71Q290.27,135.21,292.62,127Z"/></g></g></svg>