<svg id="Layer_1" data-name="Layer 1" xmlns="http://www.w3.org/2000/svg" xmlns:xlink="http://www.w3.org/1999/xlink" viewBox="0 0 1080 1080"><defs><style>.cls-1{fill:url(#New_Gradient_Swatch_1);}.cls-2{fill:url(#linear-gradient);}.cls-3{fill:url(#New_Gradient_Swatch_1-2);}.cls-4{fill:url(#New_Gradient_Swatch_1-3);}.cls-5{fill:url(#New_Gradient_Swatch_1-4);}.cls-6{fill:url(#New_Gradient_Swatch_1-5);}.cls-7{fill:url(#New_Gradient_Swatch_1-6);}.cls-8{fill:url(#New_Gradient_Swatch_1-7);}.cls-9{fill:url(#New_Gradient_Swatch_1-8);}.cls-10{fill:url(#New_Gradient_Swatch_1-9);}.cls-11{fill:url(#New_Gradient_Swatch_1-10);}.cls-12{fill:url(#New_Gradient_Swatch_1-11);}.cls-13,.cls-27,.cls-28,.cls-33,.cls-34{opacity:0.2;}.cls-14{fill:url(#linear-gradient-2);}.cls-15{fill:url(#linear-gradient-3);}.cls-16{fill:url(#linear-gradient-4);}.cls-17{fill:url(#linear-gradient-5);}.cls-18{fill:url(#linear-gradient-6);}.cls-19{fill:url(#linear-gradient-7);}.cls-20{fill:url(#linear-gradient-8);}.cls-21{fill:url(#linear-gradient-9);}.cls-22{fill:url(#linear-gradient-10);}.cls-23{fill:url(#linear-gradient-11);}.cls-24{fill:url(#linear-gradient-12);}.cls-25{fill:url(#linear-gradient-13);}.cls-26{fill:url(#linear-gradient-14);}.cls-27{fill:url(#linear-gradient-15);}.cls-28{fill:url(#linear-gradient-16);}.cls-29{fill:url(#New_Gradient_Swatch_1-12);}.cls-30{fill:url(#New_Gradient_Swatch_1-13);}.cls-31{fill:url(#New_Gradient_Swatch_1-14);}.cls-32{fill:url(#New_Gradient_Swatch_1-15);}.cls-33{fill:url(#linear-gradient-17);}.cls-34{fill:url(#linear-gradient-18);}</style><linearGradient id="New_Gradient_Swatch_1" x1="297.53" y1="700.26" x2="909.51" y2="700.26" gradientUnits="userSpaceOnUse"><stop offset="0" stop-color="#2484c7" stop-opacity="0"/><stop offset="1" stop-color="#d55127"/></linearGradient><linearGradient id="linear-gradient" x1="297.53" y1="700.26" x2="909.51" y2="700.26" gradientUnits="userSpaceOnUse"><stop offset="0" stop-color="#d55127" stop-opacity="0.2"/><stop offset="1" stop-color="#2484c7" stop-opacity="0"/></linearGradient><linearGradient id="New_Gradient_Swatch_1-2" x1="304.6" y1="629.87" x2="418.98" y2="629.87" xlink:href="#New_Gradient_Swatch_1"/><linearGradient id="New_Gradient_Swatch_1-3" x1="327.22" y1="674.75" x2="421.64" y2="674.75" xlink:href="#New_Gradient_Swatch_1"/><linearGradient id="New_Gradient_Swatch_1-4" x1="404.21" y1="620.21" x2="576.1" y2="620.21" xlink:href="#New_Gradient_Swatch_1"/><linearGradient id="New_Gradient_Swatch_1-5" x1="395.34" y1="681.8" x2="569.74" y2="681.8" xlink:href="#New_Gradient_Swatch_1"/><linearGradient id="New_Gradient_Swatch_1-6" x1="711.47" y1="762.86" x2="894.61" y2="762.86" xlink:href="#New_Gradient_Swatch_1"/><linearGradient id="New_Gradient_Swatch_1-7" x1="627.47" y1="672.02" x2="861.72" y2="672.02" xlink:href="#New_Gradient_Swatch_1"/><linearGradient id="New_Gradient_Swatch_1-8" x1="615.13" y1="699.26" x2="815.95" y2="699.26" xlink:href="#New_Gradient_Swatch_1"/><linearGradient id="New_Gradient_Swatch_1-9" x1="524.33" y1="645.35" x2="710.69" y2="645.35" xlink:href="#New_Gradient_Swatch_1"/><linearGradient id="New_Gradient_Swatch_1-10" x1="792.83" y1="632.06" x2="910.51" y2="632.06" xlink:href="#New_Gradient_Swatch_1"/><linearGradient id="New_Gradient_Swatch_1-11" x1="509.35" y1="704.93" x2="773.74" y2="704.93" xlink:href="#New_Gradient_Swatch_1"/><linearGradient id="linear-gradient-2" x1="304.6" y1="629.29" x2="418.98" y2="629.29" gradientUnits="userSpaceOnUse"><stop offset="0" stop-color="#d55127"/><stop offset="0.57" stop-color="#2484c7" stop-opacity="0"/><stop offset="1" stop-color="#c65c3c" stop-opacity="0.96"/></linearGradient><linearGradient id="linear-gradient-3" x1="327.22" y1="674.17" x2="421.64" y2="674.17" xlink:href="#linear-gradient-2"/><linearGradient id="linear-gradient-4" x1="404.21" y1="619.63" x2="576.1" y2="619.63" xlink:href="#linear-gradient-2"/><linearGradient id="linear-gradient-5" x1="395.34" y1="681.22" x2="569.74" y2="681.22" xlink:href="#linear-gradient-2"/><linearGradient id="linear-gradient-6" x1="711.47" y1="762.28" x2="894.61" y2="762.28" xlink:href="#linear-gradient-2"/><linearGradient id="linear-gradient-7" x1="627.47" y1="671.44" x2="861.72" y2="671.44" xlink:href="#linear-gradient-2"/><linearGradient id="linear-gradient-8" x1="615.13" y1="698.68" x2="815.95" y2="698.68" xlink:href="#linear-gradient-2"/><linearGradient id="linear-gradient-9" x1="524.33" y1="644.76" x2="710.69" y2="644.76" xlink:href="#linear-gradient-2"/><linearGradient id="linear-gradient-10" x1="792.83" y1="631.48" x2="910.51" y2="631.48" xlink:href="#linear-gradient-2"/><linearGradient id="linear-gradient-11" x1="509.35" y1="704.34" x2="773.74" y2="704.34" xlink:href="#linear-gradient-2"/><linearGradient id="linear-gradient-12" x1="298.23" y1="580.68" x2="451" y2="580.68" gradientUnits="userSpaceOnUse"><stop offset="0" stop-color="#d55127"/><stop offset="1" stop-color="#2484c7" stop-opacity="0"/></linearGradient><linearGradient id="linear-gradient-13" x1="248.06" y1="627.56" x2="250.8" y2="627.56" xlink:href="#linear-gradient-12"/><linearGradient id="linear-gradient-14" x1="167.36" y1="820.15" x2="956.93" y2="820.15" xlink:href="#linear-gradient-12"/><linearGradient id="linear-gradient-15" x1="152.05" y1="553.73" x2="345.64" y2="553.73" gradientTransform="translate(-291.33 258.41) rotate(-36.25)" xlink:href="#linear-gradient-12"/><linearGradient id="linear-gradient-16" x1="205.87" y1="641.82" x2="281.67" y2="641.82" gradientTransform="translate(-291.33 258.41) rotate(-36.25)" xlink:href="#linear-gradient-12"/><linearGradient id="New_Gradient_Swatch_1-12" x1="158.91" y1="569.99" x2="330.77" y2="569.99" xlink:href="#New_Gradient_Swatch_1"/><linearGradient id="New_Gradient_Swatch_1-13" x1="291.32" y1="581.94" x2="484.9" y2="581.94" gradientTransform="translate(44.52 -163.61) rotate(7.35)" xlink:href="#New_Gradient_Swatch_1"/><linearGradient id="New_Gradient_Swatch_1-14" x1="239.11" y1="635.28" x2="320.51" y2="635.28" xlink:href="#New_Gradient_Swatch_1"/><linearGradient id="New_Gradient_Swatch_1-15" x1="337.21" y1="546.16" x2="407.92" y2="546.16" xlink:href="#New_Gradient_Swatch_1"/><linearGradient id="linear-gradient-17" x1="291.32" y1="581.94" x2="484.9" y2="581.94" gradientTransform="translate(44.52 -163.61) rotate(7.35)" xlink:href="#linear-gradient-12"/><linearGradient id="linear-gradient-18" x1="167.36" y1="820.15" x2="956.93" y2="820.15" xlink:href="#New_Gradient_Swatch_1"/></defs><path class="cls-1" d="M908.15,683.17c12.26,92-59.75,203-141.91,217.93C646.71,922.86,545.9,734.08,413.52,741c-15.7.81-69.8,6.35-99.34-26.35-8.89-9.85-14.75-22.27-16.21-31.43C288.25,622.25,440.75,499,603.06,497.69,717.62,496.73,891.21,556.05,908.15,683.17Z"/><path class="cls-2" d="M908.15,683.17c12.26,92-59.75,203-141.91,217.93C646.71,922.86,545.9,734.08,413.52,741c-15.7.81-69.8,6.35-99.34-26.35-8.89-9.85-14.75-22.27-16.21-31.43C288.25,622.25,440.75,499,603.06,497.69,717.62,496.73,891.21,556.05,908.15,683.17Z"/><path class="cls-3" d="M419,547.65q-12.53,6.84-24.1,14.22l-90.28,139a73,73,0,0,0,7.62,11.16Z"/><path class="cls-4" d="M413.42,740.6q4.13-.21,8.22-.17L336,608.54q-4.65,4.69-8.79,9.38L407.12,741Z"/><path class="cls-5" d="M413.42,740.6q3.07-.17,6.12-.18L576.1,499.3c-5.37.47-10.72,1.08-16.05,1.8l-155.84,240C408,740.94,411.11,740.72,413.42,740.6Z"/><path class="cls-6" d="M569.74,807.91,406,555.69q-5.42,3.21-10.64,6.52L541.71,787.65C551.14,794.11,560.47,800.94,569.74,807.91Z"/><path class="cls-7" d="M724.3,900.27,894.61,638q-3.09-6.4-6.75-12.52L711.47,897.13Q717.86,899,724.3,900.27Z"/><path class="cls-8" d="M861.72,835.89,643.17,499.28q-7.95-.81-15.7-1.27l226,348Q857.71,841.13,861.72,835.89Z"/><path class="cls-9" d="M625.17,849.38,816,555.54q-5.26-3.3-10.72-6.4L615.13,841.93Q620.16,845.7,625.17,849.38Z"/><path class="cls-10" d="M534.82,782.36,710.69,511.49q-6.41-1.68-12.83-3.15L524.33,775.61Q529.6,778.9,534.82,782.36Z"/><path class="cls-11" d="M910.47,700.43l-94.2-145.1c-7.55-4.69-15.39-9.08-23.44-13.19L909.6,722A177.4,177.4,0,0,0,910.47,700.43Z"/><path class="cls-12" d="M509.35,511.67,760,901.68q3.07-.37,6.18-.93c2.54-.47,5.07-1,7.59-1.67L522.54,508.17Q515.9,509.82,509.35,511.67Z"/><g class="cls-13"><path class="cls-14" d="M419,547.07q-12.53,6.84-24.1,14.21L304.6,700.33a73.12,73.12,0,0,0,7.62,11.17Z"/><path class="cls-15" d="M413.42,740c2.75-.15,5.49-.2,8.22-.18L336,608q-4.65,4.69-8.79,9.38l79.9,123C409.6,740.24,411.74,740.1,413.42,740Z"/><path class="cls-16" d="M413.42,740q3.07-.16,6.12-.18L576.1,498.71q-8.05.72-16.05,1.81l-155.84,240C408,740.36,411.11,740.14,413.42,740Z"/><path class="cls-17" d="M569.74,807.32,406,555.11q-5.42,3.21-10.64,6.52L541.71,787.07C551.14,793.53,560.47,800.35,569.74,807.32Z"/><path class="cls-18" d="M724.3,899.69l170.31-262.3q-3.09-6.42-6.75-12.52L711.47,896.54C715.73,897.8,720,898.86,724.3,899.69Z"/><path class="cls-19" d="M861.72,835.31,643.17,498.69q-7.95-.79-15.7-1.27l226,348Q857.71,840.53,861.72,835.31Z"/><path class="cls-20" d="M625.17,848.8,816,555c-3.51-2.19-7.09-4.33-10.72-6.39L615.13,841.34Q620.16,845.12,625.17,848.8Z"/><path class="cls-21" d="M534.82,781.78,710.69,510.9q-6.41-1.66-12.83-3.15L524.33,775C527.84,777.21,531.34,779.47,534.82,781.78Z"/><path class="cls-22" d="M910.47,699.85l-94.2-145.1c-7.55-4.69-15.39-9.09-23.44-13.19L909.6,721.4A177.23,177.23,0,0,0,910.47,699.85Z"/><path class="cls-23" d="M509.35,511.09,760,901.1q3.07-.37,6.18-.94c2.54-.46,5.07-1,7.59-1.66L522.54,507.59Q515.9,509.24,509.35,511.09Z"/></g><path class="cls-24" d="M298.23,597a17.41,17.41,0,0,0,2.25-2c0,7.06,1.53,16.3,8.08,24.07a35.55,35.55,0,0,0,12.15,9.13c26-33.31,73-69.25,130.29-94.87-16.59,3-32.72,6.62-48.33,10.85a35.88,35.88,0,0,0,5.93,8.75,392.45,392.45,0,0,0-33.66,22.72l-27.29,8.09c2.6-5.11,6-13.69,5.15-23.33a443.94,443.94,0,0,0-48.43,21.94A17.63,17.63,0,0,1,298.23,597Z"/><path class="cls-25" d="M250.8,626.35l-.16-.14a17.81,17.81,0,0,1-2.58,2.7A18,18,0,0,0,250.8,626.35Z"/><path class="cls-26" d="M893.41,633.88a148.13,148.13,0,0,1,15.91,49.77c12.26,92-59.74,203-141.9,217.92-119.53,21.76-220.34-167-352.73-160.15-15.69.81-69.79,6.35-99.33-26.35-8.89-9.85-14.76-22.27-16.22-31.42s.78-19.83,6.19-31.24L272,676.84c.82-6.49,1.18-17.82-5.25-27.71-7.53-11.57-20.38-15-27-16.25l.08-.06a17.46,17.46,0,0,1-7.56-.25c-41,38.18-64.94,83.9-64.94,133,0,133.71,176.75,242.11,394.78,242.11s394.79-108.4,394.79-242.11C956.93,717,933.59,671.79,893.41,633.88Z"/><path class="cls-27" d="M317.13,514a17.62,17.62,0,0,0-31.31-14.47c-.05-.05-.08-.11-.13-.17A17,17,0,0,0,255.51,505a17.36,17.36,0,0,0-20.51-8.2,18.57,18.57,0,0,0-28.24,2.32,17.05,17.05,0,0,0-23.64,24l.13.17a17.61,17.61,0,0,0,4.38,34.21,17.6,17.6,0,0,0,.13,8.47,17,17,0,0,0-17.12,26.78l.13.17a17.62,17.62,0,0,0,4.38,34.22A17.61,17.61,0,0,0,209.21,636a17.62,17.62,0,0,0,17-2.12,17.94,17.94,0,0,0,3-2.74A17.61,17.61,0,0,0,250,625.61a17.62,17.62,0,0,0,29.42-10.17,18,18,0,0,0,2.45-.48,17.62,17.62,0,0,0,13-16.67,17.61,17.61,0,0,0,.66-30.26,17.59,17.59,0,0,0,19.95-18.82A17.61,17.61,0,0,0,317.13,514Z"/><path class="cls-28" d="M298.81,594.32a17.39,17.39,0,0,1-4.19,3.32,17.62,17.62,0,0,1-13,16.67,18,18,0,0,1-2.45.49A17.62,17.62,0,0,1,249.77,625a17.45,17.45,0,0,1-9.35,6.29c-.44.12-.88.22-1.32.31l-1,.72c6.6,1.2,19.45,4.68,27,16.25,6.43,9.89,6.07,21.22,5.25,27.71l61.13-44.83c-6.44-1.17-17.13-4.19-24.58-13C300.33,610.62,298.82,601.38,298.81,594.32Z"/><path class="cls-29" d="M327,539.31a17.61,17.61,0,0,1-9.23-14.46,17.59,17.59,0,0,1-18.87-10.31,18.15,18.15,0,0,1-4,0,17.61,17.61,0,0,1-13.79-10.2,17.57,17.57,0,0,1-23-4.81,17.3,17.3,0,0,0-2.64,5.49,17.36,17.36,0,0,0-20.51-8.2,18.57,18.57,0,0,0-28.24,2.32,17.05,17.05,0,0,0-23.64,24l.13.17a17.23,17.23,0,0,0-4.66,2.45,17.61,17.61,0,0,0,9,31.76,17.6,17.6,0,0,0,.13,8.47,17,17,0,0,0-17.12,26.78l.13.17a17.62,17.62,0,0,0,4.38,34.22A17.61,17.61,0,0,0,209.21,636a17.59,17.59,0,0,0,17-2.12,17.94,17.94,0,0,0,3-2.74A17.61,17.61,0,0,0,250,625.61a17.62,17.62,0,0,0,29.42-10.17,18,18,0,0,0,2.45-.48,17.62,17.62,0,0,0,13-16.67,17.61,17.61,0,0,0,.66-30.26,17.59,17.59,0,0,0,19.95-18.82,17.56,17.56,0,0,0,15.35-8.41A17.93,17.93,0,0,1,327,539.31Z"/><path class="cls-30" d="M443.4,486.89A17.61,17.61,0,0,0,436,454.71a17.78,17.78,0,0,0-5.26.11c0-.07,0-.14,0-.21A17,17,0,0,0,405,437.83a17.46,17.46,0,0,0,.41-2.06,17.64,17.64,0,0,0-9.61-18A18.59,18.59,0,0,0,373.78,400,17.05,17.05,0,0,0,340.13,401l0,.21A17.62,17.62,0,0,0,319.68,429a17.67,17.67,0,0,0-5.74,6.22,17,17,0,0,0-30.87,7.59c0,.07,0,.14,0,.21A18.1,18.1,0,0,0,278,441.6a17.61,17.61,0,0,0-15.36,29.24,17.62,17.62,0,0,0,18.49,30,17.65,17.65,0,0,0,17.82,10.25,17.59,17.59,0,0,0,18.87,10.31,17.62,17.62,0,0,0,28.32,12.92,16.79,16.79,0,0,0,2.11,1.34,17.6,17.6,0,0,0,20.89-3.12,17.59,17.59,0,0,0,21.34-21.45,17.61,17.61,0,0,0,27.44.13,17.62,17.62,0,0,0,25.49-24.3Z"/><path class="cls-31" d="M307.72,649.56a120.4,120.4,0,0,1,12.79-21.81,35.69,35.69,0,0,1-12.62-9.36c-6.56-7.77-8.07-17-8.08-24.07a17.39,17.39,0,0,1-4.19,3.32,17.62,17.62,0,0,1-13,16.67,18,18,0,0,1-2.45.49A17.62,17.62,0,0,1,250.77,625a17.45,17.45,0,0,1-9.35,6.29c-.44.12-.88.22-1.32.31l-1,.72c6.6,1.2,19.45,4.68,27,16.25,6.43,9.89,6.07,21.22,5.25,27.71Z"/><path class="cls-32" d="M351.48,555.61c2.52,11.28-1.54,21.62-4.51,27.46l27.3-8.1a390.69,390.69,0,0,1,33.65-22.72,34.8,34.8,0,0,1-7.15-11.68c-4.66-13,.35-25.33,3.38-31.32l-1.18.35c-.33.3-.67.6-1,.87a17.52,17.52,0,0,1-10.67,3.64,17.62,17.62,0,0,1-25.89,17.27,17.61,17.61,0,0,1-23,1.91,17.58,17.58,0,0,1-5.18,1.33C342.81,538.9,349.26,545.69,351.48,555.61Z"/><path class="cls-33" d="M443.4,486.89A17.61,17.61,0,0,0,436,454.71a17.78,17.78,0,0,0-5.26.11c0-.07,0-.14,0-.21A17,17,0,0,0,405,437.83a17.46,17.46,0,0,0,.41-2.06,17.64,17.64,0,0,0-9.61-18A18.59,18.59,0,0,0,373.78,400,17.05,17.05,0,0,0,340.13,401l0,.21A17.62,17.62,0,0,0,319.68,429a17.67,17.67,0,0,0-5.74,6.22,17,17,0,0,0-30.87,7.59c0,.07,0,.14,0,.21A18.1,18.1,0,0,0,278,441.6a17.61,17.61,0,0,0-15.36,29.24,17.62,17.62,0,0,0,18.49,30,17.65,17.65,0,0,0,17.82,10.25,17.59,17.59,0,0,0,18.87,10.31,17.62,17.62,0,0,0,28.32,12.92,16.79,16.79,0,0,0,2.11,1.34,17.6,17.6,0,0,0,20.89-3.12,17.59,17.59,0,0,0,21.34-21.45,17.61,17.61,0,0,0,27.44.13,17.62,17.62,0,0,0,25.49-24.3Z"/><path class="cls-34" d="M893.41,633.88a148.13,148.13,0,0,1,15.91,49.77c12.26,92-59.74,203-141.9,217.92-119.53,21.76-220.34-167-352.73-160.15-15.69.81-69.79,6.35-99.33-26.35-8.89-9.85-14.76-22.27-16.22-31.42s.78-19.83,6.19-31.24L272,676.84c.82-6.49,1.18-17.82-5.25-27.71-7.53-11.57-20.38-15-27-16.25l.08-.06a17.46,17.46,0,0,1-7.56-.25c-41,38.18-64.94,83.9-64.94,133,0,133.71,176.75,242.11,394.78,242.11s394.79-108.4,394.79-242.11C956.93,717,933.59,671.79,893.41,633.88Z"/></svg>