<svg xmlns="http://www.w3.org/2000/svg" xmlns:xlink="http://www.w3.org/1999/xlink" viewBox="0 0 235.39 125.41"><defs><style>.cls-1{fill:url(#New_Gradient_Swatch_copy_2);}.cls-2{fill:url(#New_Gradient_Swatch_copy_2-2);}.cls-3,.cls-4{opacity:0.2;}.cls-3{fill:url(#New_Gradient_Swatch_copy_2-3);}.cls-4{fill:url(#linear-gradient);}</style><linearGradient id="New_Gradient_Swatch_copy_2" y1="63.4" x2="134.76" y2="63.4" gradientUnits="userSpaceOnUse"><stop offset="0" stop-color="#d55023"/><stop offset="1" stop-color="#2484c6" stop-opacity="0"/></linearGradient><linearGradient id="New_Gradient_Swatch_copy_2-2" x1="131.12" y1="62.01" x2="235.39" y2="62.01" xlink:href="#New_Gradient_Swatch_copy_2"/><linearGradient id="New_Gradient_Swatch_copy_2-3" x1="1020.86" y1="64.78" x2="1155.61" y2="64.78" gradientTransform="matrix(-1, 0, 0, 1, 1155.61, 0)" xlink:href="#New_Gradient_Swatch_copy_2"/><linearGradient id="linear-gradient" x1="131.12" y1="63.4" x2="235.39" y2="63.4" gradientUnits="userSpaceOnUse"><stop offset="0" stop-color="#2484c6" stop-opacity="0"/><stop offset="1" stop-color="#d55023"/></linearGradient></defs><title>x2</title><g id="Layer_2" data-name="Layer 2"><g id="Layer_1-2" data-name="Layer 1"><path class="cls-1" d="M88,124,67,91.63,46.59,124H0L43.82,62.88,1.56,2.77h45.9L68.07,33.26,88.17,2.77h44L90.07,61.32,134.76,124Z"/><path class="cls-2" d="M235.39,92.32V124H138.22V98.9L182,58.37c3.82-3.57,6.35-6.64,7.63-9.18a16.57,16.57,0,0,0,1.9-7.45,8.6,8.6,0,0,0-3-7q-3-2.5-8.75-2.51a19.7,19.7,0,0,0-10.39,2.94A19.38,19.38,0,0,0,162,43.48L131.12,28.06A50.54,50.54,0,0,1,151.39,7.54Q164.73,0,183.6,0a65,65,0,0,1,25.47,4.68A39.83,39.83,0,0,1,226.39,18a33.29,33.29,0,0,1,6.23,19.92,42.49,42.49,0,0,1-4.24,18.8q-4.24,8.75-16.54,19.83L194.52,92.32Z"/><path class="cls-3" d="M46.77,125.41,67.72,93l20.44,32.4h46.6L90.93,64.26,133.2,4.16H87.3L66.69,34.64,46.59,4.16H2.6L44.69,62.7,0,125.41Z"/><path class="cls-4" d="M235.39,93.71v31.7H138.22V100.29L182,59.76c3.82-3.58,6.35-6.64,7.63-9.18a16.57,16.57,0,0,0,1.9-7.45,8.63,8.63,0,0,0-3-7q-3-2.51-8.75-2.51a19.71,19.71,0,0,0-10.39,2.95A19.3,19.3,0,0,0,162,44.86L131.12,29.45A50.56,50.56,0,0,1,151.39,8.92q13.34-7.53,32.21-7.53a65.22,65.22,0,0,1,25.47,4.67A39.92,39.92,0,0,1,226.39,19.4a33.27,33.27,0,0,1,6.23,19.92,42.45,42.45,0,0,1-4.24,18.79Q224.14,66.87,211.84,78L194.52,93.71Z"/></g></g></svg>