<svg xmlns="http://www.w3.org/2000/svg" xmlns:xlink="http://www.w3.org/1999/xlink" viewBox="0 0 442.03 164.59"><defs><style>.cls-1{fill:url(#New_Gradient_Swatch_copy_7);}.cls-2{fill:url(#New_Gradient_Swatch_copy_7-2);}.cls-3{fill:url(#New_Gradient_Swatch_copy_7-3);}.cls-4{fill:url(#New_Gradient_Swatch_copy_7-4);}.cls-5{fill:url(#New_Gradient_Swatch_copy_7-5);}.cls-6{fill:url(#New_Gradient_Swatch_copy_7-6);}.cls-11,.cls-7,.cls-8,.cls-9{fill:none;stroke-miterlimit:10;stroke-width:4px;}.cls-7{stroke:url(#New_Gradient_Swatch_copy_7-7);}.cls-8{stroke:url(#New_Gradient_Swatch_copy_7-8);}.cls-9{stroke:url(#New_Gradient_Swatch_copy_7-9);}.cls-10{fill:url(#New_Gradient_Swatch_copy_7-10);}.cls-11{stroke:url(#New_Gradient_Swatch_copy_7-11);}</style><linearGradient id="New_Gradient_Swatch_copy_7" x1="46.53" y1="80.26" x2="442.03" y2="80.26" gradientUnits="userSpaceOnUse"><stop offset="0" stop-color="#d55023"/><stop offset="1" stop-color="#2484c6" stop-opacity="0"/></linearGradient><linearGradient id="New_Gradient_Swatch_copy_7-2" x1="0" y1="102.68" x2="92.37" y2="102.68" gradientTransform="translate(17.41 -6.17) rotate(9.41)" xlink:href="#New_Gradient_Swatch_copy_7"/><linearGradient id="New_Gradient_Swatch_copy_7-3" x1="27.43" y1="101.65" x2="63.71" y2="101.65" xlink:href="#New_Gradient_Swatch_copy_7"/><linearGradient id="New_Gradient_Swatch_copy_7-4" x1="18.57" y1="100.41" x2="70.8" y2="100.41" xlink:href="#New_Gradient_Swatch_copy_7"/><linearGradient id="New_Gradient_Swatch_copy_7-5" x1="6.87" y1="102.57" x2="79.05" y2="102.57" xlink:href="#New_Gradient_Swatch_copy_7"/><linearGradient id="New_Gradient_Swatch_copy_7-6" x1="30.62" y1="99.54" x2="58.44" y2="99.54" xlink:href="#New_Gradient_Swatch_copy_7"/><linearGradient id="New_Gradient_Swatch_copy_7-7" x1="132.45" y1="37.23" x2="380.3" y2="37.23" xlink:href="#New_Gradient_Swatch_copy_7"/><linearGradient id="New_Gradient_Swatch_copy_7-8" x1="112.46" y1="65.66" x2="396.84" y2="65.66" xlink:href="#New_Gradient_Swatch_copy_7"/><linearGradient id="New_Gradient_Swatch_copy_7-9" x1="118.19" y1="91.13" x2="421.66" y2="91.13" xlink:href="#New_Gradient_Swatch_copy_7"/><linearGradient id="New_Gradient_Swatch_copy_7-10" x1="62.57" y1="108.65" x2="131.57" y2="108.65" xlink:href="#New_Gradient_Swatch_copy_7"/><linearGradient id="New_Gradient_Swatch_copy_7-11" x1="141.15" y1="113.63" x2="374.65" y2="113.63" xlink:href="#New_Gradient_Swatch_copy_7"/></defs><g id="Layer_2" data-name="Layer 2"><g id="Layer_1-2" data-name="Layer 1"><path class="cls-1" d="M46.53,41.36c56.55-3.91,115.85-9.51,177.57-17.2C280.19,17.17,333.88,9,385,0c28.26,5.35,50.43,27.23,55.77,54.88,4.93,25.54-5.27,52-26.23,68.12-50.15.81-104.26,3.65-161.72,9.46-67.3,6.81-129.39,16.7-185.68,28.06a55,55,0,0,0,13.47-12.19c19.12-24.34,10-57.14,7.93-64a73,73,0,0,0-15-27c-7.05-7.9-13.38-11.17-15-12A45.7,45.7,0,0,0,46.53,41.36Z"/><ellipse class="cls-2" cx="46.19" cy="102.68" rx="45.65" ry="62.29" transform="translate(-16.16 8.93) rotate(-9.41)"/><path class="cls-3" d="M47.28,131.07c-4.52,0-9-2.67-12.58-7.63-3.81-5.2-6.31-12.33-7.05-20.09s.38-15.23,3.14-21c2.85-6,7.1-9.55,12-10s9.73,2.23,13.66,7.58S62.75,92.19,63.49,100s-.38,15.23-3.14,21.06c-2.85,6-7.11,9.54-12,10C48,131.05,47.64,131.07,47.28,131.07ZM43.85,74.23c-.29,0-.59,0-.88,0-4.16.4-7.84,3.55-10.37,8.88-2.61,5.51-3.66,12.61-3,20s3.07,14.19,6.68,19.1C39.8,127,44,129.43,48.17,129s7.84-3.55,10.37-8.88c2.61-5.5,3.66-12.61,3-20S58.42,86,54.82,81C51.58,76.62,47.72,74.23,43.85,74.23Z"/><path class="cls-4" d="M46,138.3c-13.83,0-25.95-15.86-27.33-36.13C18,92.15,20,82.54,24.35,75.1,28.77,67.49,35.08,63,42.13,62.56s13.9,3.09,19.3,10c5.28,6.79,8.57,16,9.24,26.05h0c.68,10-1.33,19.63-5.65,27.07-4.42,7.61-10.73,12.06-17.78,12.54C46.83,138.29,46.43,138.3,46,138.3ZM43.36,65.25c-.35,0-.7,0-1,0-6.11.41-11.65,4.38-15.6,11.18-4.05,7-5.93,16-5.29,25.51,1.31,19.37,12.82,34.43,25.64,33.56,6.11-.42,11.65-4.39,15.6-11.19,4-7,5.93-16,5.29-25.51h0c-.64-9.48-3.72-18.2-8.67-24.57C54.72,68.42,49.11,65.25,43.36,65.25Z"/><path class="cls-5" d="M44.57,153c-9.09,0-17.84-4.67-24.83-13.31-7.29-9-11.8-21.32-12.7-34.64S9,78.88,15,69c6.14-10.12,14.88-16,24.6-16.71s19.18,4,26.62,13.25c7.3,9,11.81,21.32,12.71,34.64,1.88,27.75-12.72,51.41-32.53,52.75C45.77,152.93,45.17,153,44.57,153ZM41.34,55.89c-.51,0-1,0-1.53,0-8.48.58-16.18,5.88-21.68,14.94-5.62,9.27-8.25,21.3-7.4,33.87s5.07,24.13,11.89,32.56c6.67,8.24,15,12.46,23.49,11.89,17.78-1.2,30.82-23.1,29.09-48.81-.85-12.57-5.08-24.13-11.89-32.56C57,60.09,49.29,55.89,41.34,55.89Z"/><path class="cls-6" d="M45.81,121.71c-7.27,0-13.91-9.1-15-20.87-1.16-12.2,4.07-22.72,11.65-23.44S57.12,86,58.28,98.23h0c1.15,12.21-4.07,22.72-11.65,23.44A7.5,7.5,0,0,1,45.81,121.71ZM43.27,78.88a5.48,5.48,0,0,0-.7,0c-6.75.64-11.36,10.41-10.27,21.78s7.45,20.1,14.19,19.46,11.35-10.41,10.27-21.78C55.72,87.4,49.75,78.88,43.27,78.88Z"/><path class="cls-7" d="M132.57,56.15a584.13,584.13,0,0,0,131-7,583.8,583.8,0,0,0,116-32"/><path class="cls-8" d="M112.57,79.15q75.29-4.14,156-12,66-6.53,128-15"/><path class="cls-9" d="M118.57,109.15q45.36-8.79,94-16a2089.91,2089.91,0,0,1,209-20"/><path class="cls-10" d="M62.57,113.15l30-3,36,3,3-8-39-1Z"/><path class="cls-11" d="M141.57,128.15c34.4-7.31,71.82-13.88,112-19,43.13-5.49,83.63-8.57,121-10"/></g></g></svg>